<?xml version="1.0"?>
<VTKFile type="PolyData" version="0.1" byte_order="LittleEndian">
  <PolyData>
    <FieldData>
      <DataArray type="Float64" Name="TimeValue" NumberOfTuples="1" format="ascii">
        4.499999999998803e+01
      </DataArray>
    </FieldData>
    <Piece NumberOfPoints="398" NumberOfVerts="398" NumberOfLines="0" NumberOfStrips="0" NumberOfPolys="0">
      <Points>
        <DataArray type="Float64" NumberOfComponents="3" format="ascii">
          -4.9726094768e-01 5.2264231634e-02 0.0000000000e+00 -4.9591980461e-01 5.7187521354e-02 0.0000000000e+00 -4.9320742903e-01 6.1518265364e-02 0.0000000000e+00 -4.8960598536e-01 6.5153650837e-02 0.0000000000e+00 -4.8548567450e-01 6.8194643038e-02 0.0000000000e+00 -4.8105786906e-01 7.0770768034e-02 0.0000000000e+00 -4.7643787966e-01 7.2985647804e-02 0.0000000000e+00 -4.7169100133e-01 7.4914697529e-02 0.0000000000e+00 -4.6685629730e-01 7.6612338955e-02 0.0000000000e+00 -4.6195841863e-01 7.8118474475e-02 0.0000000000e+00 -4.5701365804e-01 7.9463020303e-02 0.0000000000e+00 -4.5203321881e-01 8.0668916425e-02 0.0000000000e+00 -4.4702506197e-01 8.1754126178e-02 0.0000000000e+00 -4.4199500846e-01 8.2732982305e-02 0.0000000000e+00 -4.3694742522e-01 8.3617112443e-02 0.0000000000e+00 -4.3188565927e-01 8.4416090884e-02 0.0000000000e+00 -4.2681230400e-01 8.5137908709e-02 0.0000000000e+00 -4.2172941653e-01 8.5789311244e-02 0.0000000000e+00 -4.1663865062e-01 8.6376052829e-02 0.0000000000e+00 -4.1154135992e-01 8.6903088373e-02 0.0000000000e+00 -4.0643863732e-01 8.7374723845e-02 0.0000000000e+00 -4.0133140546e-01 8.7794726707e-02 0.0000000000e+00 -3.9622042424e-01 8.8166419095e-02 0.0000000000e+00 -3.9110634740e-01 8.8492747356e-02 0.0000000000e+00 -3.8598972048e-01 8.8776341615e-02 0.0000000000e+00 -3.8087100981e-01 8.9019561684e-02 0.0000000000e+00 -3.7575063504e-01 8.9224534775e-02 0.0000000000e+00 -3.7062893181e-01 8.9393189274e-02 0.0000000000e+00 -3.6550619075e-01 8.9527279365e-02 0.0000000000e+00 -3.6038270739e-01 8.9628406450e-02 0.0000000000e+00 -3.5525869773e-01 8.9698040036e-02 0.0000000000e+00 -3.5013435246e-01 8.9737531833e-02 0.0000000000e+00 -3.4500987690e-01 8.9748129328e-02 0.0000000000e+00 -3.3988541842e-01 8.9730987908e-02 0.0000000000e+00 -3.3476111444e-01 8.9687180276e-02 0.0000000000e+00 -3.2963709471e-01 8.9617705257e-02 0.0000000000e+00 -3.2451348064e-01 8.9523495400e-02 0.0000000000e+00 -3.1939034143e-01 8.9405422449e-02 0.0000000000e+00 -3.1426779881e-01 8.9264305217e-02 0.0000000000e+00 -3.0914591206e-01 8.9100912041e-02 0.0000000000e+00 -3.0402476307e-01 8.8915967270e-02 0.0000000000e+00 -2.9890440772e-01 8.8710153739e-02 0.0000000000e+00 -2.9378490850e-01 8.8484117338e-02 0.0000000000e+00 -2.8866631015e-01 8.8238469120e-02 0.0000000000e+00 -2.8354865267e-01 8.7973788508e-02 0.0000000000e+00 -2.7843198600e-01 8.7690626604e-02 0.0000000000e+00 -2.7331635766e-01 8.7389507892e-02 0.0000000000e+00 -2.6820177024e-01 8.7070929522e-02 0.0000000000e+00 -2.6308828316e-01 8.6735369256e-02 0.0000000000e+00 -2.5797588368e-01 8.6383278975e-02 0.0000000000e+00 -2.5286463554e-01 8.6015095985e-02 0.0000000000e+00 -2.4775456034e-01 8.5631236490e-02 0.0000000000e+00 -2.4264563136e-01 8.5232095683e-02 0.0000000000e+00 -2.3753787536e-01 8.4818056587e-02 0.0000000000e+00 -2.3243133189e-01 8.4389488400e-02 0.0000000000e+00 -2.2732604551e-01 8.3946746927e-02 0.0000000000e+00 -2.2222190001e-01 8.3490160448e-02 0.0000000000e+00 -2.1711899509e-01 8.3020063562e-02 0.0000000000e+00 -2.1201736213e-01 8.2536773495e-02 0.0000000000e+00 -2.0691697960e-01 8.2040591368e-02 0.0000000000e+00 -2.0181778048e-01 8.1531802906e-02 0.0000000000e+00 -1.9671983644e-01 8.1010697525e-02 0.0000000000e+00 -1.9162315737e-01 8.0477549322e-02 0.0000000000e+00 -1.8652775518e-01 7.9932623721e-02 0.0000000000e+00 -1.8143354438e-01 7.9376166968e-02 0.0000000000e+00 -1.7634058775e-01 7.8808433128e-02 0.0000000000e+00 -1.7124890276e-01 7.8229663908e-02 0.0000000000e+00 -1.6615843046e-01 7.7640084880e-02 0.0000000000e+00 -1.6106919074e-01 7.7039923480e-02 0.0000000000e+00 -1.5598117717e-01 7.6429397432e-02 0.0000000000e+00 -1.5089442149e-01 7.5808722703e-02 0.0000000000e+00 -1.4580891223e-01 7.5178103979e-02 0.0000000000e+00 -1.4072455773e-01 7.4537729809e-02 0.0000000000e+00 -1.3564143273e-01 7.3887803843e-02 0.0000000000e+00 -1.3055953602e-01 7.3228514974e-02 0.0000000000e+00 -1.2547885669e-01 7.2560045603e-02 0.0000000000e+00 -1.2039932696e-01 7.1882565420e-02 0.0000000000e+00 -1.1532097276e-01 7.1196251579e-02 0.0000000000e+00 -1.1024384833e-01 7.0501280681e-02 0.0000000000e+00 -1.0516789419e-01 6.9797809381e-02 0.0000000000e+00 -1.0009305693e-01 6.9085990467e-02 0.0000000000e+00 -9.5019385779e-02 6.8365986871e-02 0.0000000000e+00 -8.9946876275e-02 6.7637950065e-02 0.0000000000e+00 -8.4875512802e-02 6.6902025973e-02 0.0000000000e+00 -7.9805266057e-02 6.6158354627e-02 0.0000000000e+00 -7.4736119229e-02 6.5407074084e-02 0.0000000000e+00 -6.9668110663e-02 6.4648327056e-02 0.0000000000e+00 -6.4601223625e-02 6.3882244673e-02 0.0000000000e+00 -5.9535406374e-02 6.3108949253e-02 0.0000000000e+00 -5.4470657317e-02 6.2328567330e-02 0.0000000000e+00 -4.9407032488e-02 6.1541231275e-02 0.0000000000e+00 -4.4344451672e-02 6.0747049224e-02 0.0000000000e+00 -3.9282923158e-02 5.9946139943e-02 0.0000000000e+00 -3.4222445485e-02 5.9138617762e-02 0.0000000000e+00 -2.9163037454e-02 5.8324597432e-02 0.0000000000e+00 -2.4104648617e-02 5.7504179745e-02 0.0000000000e+00 -1.9047261811e-02 5.6677467985e-02 0.0000000000e+00 -1.3990893842e-02 5.5844568318e-02 0.0000000000e+00 -8.9355444057e-03 5.5005581552e-02 0.0000000000e+00 -3.8812175905e-03 5.4160606701e-02 0.0000000000e+00 1.1721998069e-03 5.3309720494e-02 0.0000000000e+00 6.2245485523e-03 5.2453043054e-02 0.0000000000e+00 1.1275943392e-02 5.1590645938e-02 0.0000000000e+00 1.6326440609e-02 5.0722607920e-02 0.0000000000e+00 2.1375943892e-02 4.9849031720e-02 0.0000000000e+00 2.6424457110e-02 4.8970000753e-02 0.0000000000e+00 3.1472011504e-02 4.8085591397e-02 0.0000000000e+00 3.6518701143e-02 4.7195866621e-02 0.0000000000e+00 4.1564441327e-02 4.6300918671e-02 0.0000000000e+00 4.6609230112e-02 4.5400823257e-02 0.0000000000e+00 5.1653173445e-02 4.4495634621e-02 0.0000000000e+00 5.6696228622e-02 4.3585431459e-02 0.0000000000e+00 6.1738361294e-02 4.2670289132e-02 0.0000000000e+00 6.6779564021e-02 4.1750276257e-02 0.0000000000e+00 7.1819899165e-02 4.0825446710e-02 0.0000000000e+00 7.6859356703e-02 3.9895865608e-02 0.0000000000e+00 8.1898008641e-02 3.8961580986e-02 0.0000000000e+00 8.6935705941e-02 3.8022680059e-02 0.0000000000e+00 9.1972611128e-02 3.7079190280e-02 0.0000000000e+00 9.7008668669e-02 3.6131177844e-02 0.0000000000e+00 1.0204386087e-01 3.5178700202e-02 0.0000000000e+00 1.0707827097e-01 3.4221793894e-02 0.0000000000e+00 1.1211171891e-01 3.3260543822e-02 0.0000000000e+00 1.1714445382e-01 3.2294951292e-02 0.0000000000e+00 1.2217637967e-01 3.1325081711e-02 0.0000000000e+00 1.2720736077e-01 3.0351006860e-02 0.0000000000e+00 1.3223761875e-01 2.9372727682e-02 0.0000000000e+00 1.3726706297e-01 2.8390303861e-02 0.0000000000e+00 1.4229572061e-01 2.7403770609e-02 0.0000000000e+00 1.4732360119e-01 2.6413164931e-02 0.0000000000e+00 1.5235059578e-01 2.5418545708e-02 0.0000000000e+00 1.5737688659e-01 2.4419912645e-02 0.0000000000e+00 1.6240234385e-01 2.3417325663e-02 0.0000000000e+00 1.6742696646e-01 2.2410817741e-02 0.0000000000e+00 1.7245085770e-01 2.1400399305e-02 0.0000000000e+00 1.7747398558e-01 2.0386106299e-02 0.0000000000e+00 1.8249635644e-01 1.9367965495e-02 0.0000000000e+00 1.8751791564e-01 1.8346014588e-02 0.0000000000e+00 1.9253867441e-01 1.7320276492e-02 0.0000000000e+00 1.9755867528e-01 1.6290766192e-02 0.0000000000e+00 2.0257793396e-01 1.5257502622e-02 0.0000000000e+00 2.0759639625e-01 1.4220517707e-02 0.0000000000e+00 2.1261408588e-01 1.3179825911e-02 0.0000000000e+00 2.1763104490e-01 1.2135436390e-02 0.0000000000e+00 2.2264726018e-01 1.1087368318e-02 0.0000000000e+00 2.2766268318e-01 1.0035646948e-02 0.0000000000e+00 2.3267726296e-01 8.9802968007e-03 0.0000000000e+00 2.3769115605e-01 7.9212972708e-03 0.0000000000e+00 2.4270427261e-01 6.8586782309e-03 0.0000000000e+00 2.4771659633e-01 5.7924527911e-03 0.0000000000e+00 2.5272819058e-01 4.7226157199e-03 0.0000000000e+00 2.5773898461e-01 3.6491890353e-03 0.0000000000e+00 2.6274907064e-01 2.5721585331e-03 0.0000000000e+00 2.6775833653e-01 1.4915525741e-03 0.0000000000e+00 2.7276680970e-01 4.0736826173e-04 0.0000000000e+00 2.7777451790e-01 -6.8039875983e-04 0.0000000000e+00 2.8278146879e-01 -1.7717498540e-03 0.0000000000e+00 2.8778759011e-01 -2.8666701914e-03 0.0000000000e+00 2.9279294031e-01 -3.9651747581e-03 0.0000000000e+00 2.9779755351e-01 -5.0672746270e-03 0.0000000000e+00 3.0280135913e-01 -6.1729590882e-03 0.0000000000e+00 3.0780438244e-01 -7.2822397704e-03 0.0000000000e+00 3.1280650594e-01 -8.3950978319e-03 0.0000000000e+00 3.1780794456e-01 -9.5115896717e-03 0.0000000000e+00 3.2280852738e-01 -1.0631687020e-02 0.0000000000e+00 3.2780825022e-01 -1.1755399878e-02 0.0000000000e+00 3.3280721108e-01 -1.2882762556e-02 0.0000000000e+00 3.3780534714e-01 -1.4013774448e-02 0.0000000000e+00 3.4280265335e-01 -1.5148449133e-02 0.0000000000e+00 3.4779915549e-01 -1.6286808434e-02 0.0000000000e+00 3.5279469994e-01 -1.7428834392e-02 0.0000000000e+00 3.5778950179e-01 -1.8574594513e-02 0.0000000000e+00 3.6278342043e-01 -1.9724076172e-02 0.0000000000e+00 3.6777640315e-01 -2.0877287849e-02 0.0000000000e+00 3.7276860129e-01 -2.2034286424e-02 0.0000000000e+00 3.7775992822e-01 -2.3195075031e-02 0.0000000000e+00 3.8275032602e-01 -2.4359664423e-02 0.0000000000e+00 3.8773987974e-01 -2.5528099898e-02 0.0000000000e+00 3.9272844614e-01 -2.6700374472e-02 0.0000000000e+00 3.9771614086e-01 -2.7876543029e-02 0.0000000000e+00 4.0270291178e-01 -2.9056622242e-02 0.0000000000e+00 4.0768869791e-01 -3.0240627667e-02 0.0000000000e+00 4.1267361642e-01 -3.1428618368e-02 0.0000000000e+00 4.1765755604e-01 -3.2620600225e-02 0.0000000000e+00 4.2264052151e-01 -3.3816607805e-02 0.0000000000e+00 4.2762255447e-01 -3.5016685743e-02 0.0000000000e+00 4.3260353408e-01 -3.6220840625e-02 0.0000000000e+00 4.3758354093e-01 -3.7429128723e-02 0.0000000000e+00 4.4256256770e-01 -3.8641586290e-02 0.0000000000e+00 4.4754046411e-01 -3.9858215695e-02 0.0000000000e+00 4.5251740906e-01 -4.1079100795e-02 0.0000000000e+00 4.5749335137e-01 -4.2304270474e-02 0.0000000000e+00 4.6246815394e-01 -4.3533733300e-02 0.0000000000e+00 4.6744192511e-01 -4.4767559442e-02 0.0000000000e+00 4.7241451575e-01 -4.6005756378e-02 0.0000000000e+00 4.7738608692e-01 -4.7248409814e-02 0.0000000000e+00 4.8235650207e-01 -4.8495532369e-02 0.0000000000e+00 4.8732575854e-01 -4.9747171040e-02 0.0000000000e+00 4.9229400251e-01 -5.1003411632e-02 0.0000000000e+00 4.9726094768e-01 -5.2264231634e-02 0.0000000000e+00 4.9214040296e-01 -5.2464813724e-02 0.0000000000e+00 4.8701953993e-01 -5.2660646441e-02 0.0000000000e+00 4.8189864333e-01 -5.2851767290e-02 0.0000000000e+00 4.7677755232e-01 -5.3038229807e-02 0.0000000000e+00 4.7165625973e-01 -5.3220080515e-02 0.0000000000e+00 4.6653489650e-01 -5.3397360149e-02 0.0000000000e+00 4.6141328729e-01 -5.3570119057e-02 0.0000000000e+00 4.5629157639e-01 -5.3738395555e-02 0.0000000000e+00 4.5116964327e-01 -5.3902235761e-02 0.0000000000e+00 4.4604762022e-01 -5.4061676551e-02 0.0000000000e+00 4.4092555131e-01 -5.4216756824e-02 0.0000000000e+00 4.3580324412e-01 -5.4367521411e-02 0.0000000000e+00 4.3068084515e-01 -5.4514003871e-02 0.0000000000e+00 4.2555835402e-01 -5.4656241187e-02 0.0000000000e+00 4.2043568020e-01 -5.4794271646e-02 0.0000000000e+00 4.1531294051e-01 -5.4928126814e-02 0.0000000000e+00 4.1019008497e-01 -5.5057841695e-02 0.0000000000e+00 4.0506710173e-01 -5.5183449112e-02 0.0000000000e+00 3.9994409843e-01 -5.5304977955e-02 0.0000000000e+00 3.9482094815e-01 -5.5422461631e-02 0.0000000000e+00 3.8969770733e-01 -5.5535928040e-02 0.0000000000e+00 3.8457442349e-01 -5.5645404327e-02 0.0000000000e+00 3.7945097209e-01 -5.5750920133e-02 0.0000000000e+00 3.7432749471e-01 -5.5852498408e-02 0.0000000000e+00 3.6920389872e-01 -5.5950165778e-02 0.0000000000e+00 3.6408023857e-01 -5.6043944803e-02 0.0000000000e+00 3.5895659830e-01 -5.6133856558e-02 0.0000000000e+00 3.5383281810e-01 -5.6219925217e-02 0.0000000000e+00 3.4870894773e-01 -5.6302170032e-02 0.0000000000e+00 3.4358512736e-01 -5.6380607890e-02 0.0000000000e+00 3.3846113257e-01 -5.6455260100e-02 0.0000000000e+00 3.3333711736e-01 -5.6526141037e-02 0.0000000000e+00 3.2821305197e-01 -5.6593266688e-02 0.0000000000e+00 3.2308893851e-01 -5.6656651381e-02 0.0000000000e+00 3.1796483857e-01 -5.6716307587e-02 0.0000000000e+00 3.1284064916e-01 -5.6772248492e-02 0.0000000000e+00 3.0771637227e-01 -5.6824484747e-02 0.0000000000e+00 3.0259218097e-01 -5.6873024235e-02 0.0000000000e+00 2.9746785329e-01 -5.6917877437e-02 0.0000000000e+00 2.9234350810e-01 -5.6959050352e-02 0.0000000000e+00 2.8721911827e-01 -5.6996549104e-02 0.0000000000e+00 2.8209475503e-01 -5.7030377886e-02 0.0000000000e+00 2.7697038274e-01 -5.7060540439e-02 0.0000000000e+00 2.7184594108e-01 -5.7087039267e-02 0.0000000000e+00 2.6672150384e-01 -5.7109874891e-02 0.0000000000e+00 2.6159706323e-01 -5.7129047050e-02 0.0000000000e+00 2.5647259122e-01 -5.7144554236e-02 0.0000000000e+00 2.5134806035e-01 -5.7156393579e-02 0.0000000000e+00 2.4622358623e-01 -5.7164560656e-02 0.0000000000e+00 2.4109907571e-01 -5.7169050186e-02 0.0000000000e+00 2.3597460255e-01 -5.7169855343e-02 0.0000000000e+00 2.3085010370e-01 -5.7166968068e-02 0.0000000000e+00 2.2572559782e-01 -5.7160378926e-02 0.0000000000e+00 2.2060117901e-01 -5.7150077380e-02 0.0000000000e+00 2.1547668986e-01 -5.7136051039e-02 0.0000000000e+00 2.1035218532e-01 -5.7118286508e-02 0.0000000000e+00 2.0522771809e-01 -5.7096769179e-02 0.0000000000e+00 2.0010330503e-01 -5.7071483028e-02 0.0000000000e+00 1.9497890690e-01 -5.7042410356e-02 0.0000000000e+00 1.8985450348e-01 -5.7009532077e-02 0.0000000000e+00 1.8473015445e-01 -5.6972828238e-02 0.0000000000e+00 1.7960584836e-01 -5.6932277051e-02 0.0000000000e+00 1.7448154674e-01 -5.6887855015e-02 0.0000000000e+00 1.6935724336e-01 -5.6839537383e-02 0.0000000000e+00 1.6423299950e-01 -5.6787298642e-02 0.0000000000e+00 1.5910881454e-01 -5.6731111290e-02 0.0000000000e+00 1.5398472721e-01 -5.6670946815e-02 0.0000000000e+00 1.4886063870e-01 -5.6606773550e-02 0.0000000000e+00 1.4373655692e-01 -5.6538559464e-02 0.0000000000e+00 1.3861262126e-01 -5.6466272926e-02 0.0000000000e+00 1.3348865342e-01 -5.6389876340e-02 0.0000000000e+00 1.2836477223e-01 -5.6309334762e-02 0.0000000000e+00 1.2324097603e-01 -5.6224610014e-02 0.0000000000e+00 1.1811724558e-01 -5.6135662002e-02 0.0000000000e+00 1.1299368194e-01 -5.6042451195e-02 0.0000000000e+00 1.0787006851e-01 -5.5944930586e-02 0.0000000000e+00 1.0274655297e-01 -5.5843058179e-02 0.0000000000e+00 9.7623242809e-02 -5.5736789958e-02 0.0000000000e+00 9.2499894644e-02 -5.5626072852e-02 0.0000000000e+00 8.7376702232e-02 -5.5510861246e-02 0.0000000000e+00 8.2253591763e-02 -5.5391102098e-02 0.0000000000e+00 7.7130592483e-02 -5.5266742888e-02 0.0000000000e+00 7.2007772477e-02 -5.5137730413e-02 0.0000000000e+00 6.6884978478e-02 -5.5004004031e-02 0.0000000000e+00 6.1762374400e-02 -5.4865509418e-02 0.0000000000e+00 5.6639899797e-02 -5.4722184619e-02 0.0000000000e+00 5.1517578012e-02 -5.4573968022e-02 0.0000000000e+00 4.6395359247e-02 -5.4420793964e-02 0.0000000000e+00 4.1273265047e-02 -5.4262596875e-02 0.0000000000e+00 3.6151344678e-02 -5.4099310180e-02 0.0000000000e+00 3.1029656272e-02 -5.3930865784e-02 0.0000000000e+00 2.5908107476e-02 -5.3757188601e-02 0.0000000000e+00 2.0786715931e-02 -5.3578204980e-02 0.0000000000e+00 1.5665583667e-02 -5.3393842301e-02 0.0000000000e+00 1.0544631760e-02 -5.3204019413e-02 0.0000000000e+00 5.4238455346e-03 -5.3008655112e-02 0.0000000000e+00 3.0323854710e-04 -5.2807667001e-02 0.0000000000e+00 -4.8170736379e-03 -5.2600974629e-02 0.0000000000e+00 -9.9371296962e-03 -5.2388489241e-02 0.0000000000e+00 -1.5057026989e-02 -5.2170116987e-02 0.0000000000e+00 -2.0176584787e-02 -5.1945773477e-02 0.0000000000e+00 -2.5295897865e-02 -5.1715360119e-02 0.0000000000e+00 -3.0414941641e-02 -5.1478780917e-02 0.0000000000e+00 -3.5533695451e-02 -5.1235937199e-02 0.0000000000e+00 -4.0652120784e-02 -5.0986728615e-02 0.0000000000e+00 -4.5770212954e-02 -5.0731050570e-02 0.0000000000e+00 -5.0888000350e-02 -5.0468793984e-02 0.0000000000e+00 -5.6005440725e-02 -5.0199850525e-02 0.0000000000e+00 -6.1122511737e-02 -4.9924108055e-02 0.0000000000e+00 -6.6239180585e-02 -4.9641452129e-02 0.0000000000e+00 -7.1355503248e-02 -4.9351760294e-02 0.0000000000e+00 -7.6471397397e-02 -4.9054914724e-02 0.0000000000e+00 -8.1586838279e-02 -4.8750791317e-02 0.0000000000e+00 -8.6701851077e-02 -4.8439259672e-02 0.0000000000e+00 -9.1816424892e-02 -4.8120188045e-02 0.0000000000e+00 -9.6930492547e-02 -4.7793444814e-02 0.0000000000e+00 -1.0204404178e-01 -4.7458891444e-02 0.0000000000e+00 -1.0715707215e-01 -4.7116384871e-02 0.0000000000e+00 -1.1226956858e-01 -4.6765779115e-02 0.0000000000e+00 -1.1738150394e-01 -4.6406925081e-02 0.0000000000e+00 -1.2249279621e-01 -4.6039673639e-02 0.0000000000e+00 -1.2760346587e-01 -4.5663864229e-02 0.0000000000e+00 -1.3271353851e-01 -4.5279331259e-02 0.0000000000e+00 -1.3782292438e-01 -4.4885913259e-02 0.0000000000e+00 -1.4293156128e-01 -4.4483442340e-02 0.0000000000e+00 -1.4803948021e-01 -4.4071738429e-02 0.0000000000e+00 -1.5314665394e-01 -4.3650620840e-02 0.0000000000e+00 -1.5825304438e-01 -4.3219904557e-02 0.0000000000e+00 -1.6335853606e-01 -4.2779405918e-02 0.0000000000e+00 -1.6846317945e-01 -4.2328921443e-02 0.0000000000e+00 -1.7356694323e-01 -4.1868248527e-02 0.0000000000e+00 -1.7866975142e-01 -4.1397182525e-02 0.0000000000e+00 -1.8377156506e-01 -4.0915509135e-02 0.0000000000e+00 -1.8887231740e-01 -4.0423010023e-02 0.0000000000e+00 -1.9397201921e-01 -3.9919452293e-02 0.0000000000e+00 -1.9907060315e-01 -3.9404603149e-02 0.0000000000e+00 -2.0416795498e-01 -3.8878227134e-02 0.0000000000e+00 -2.0926410713e-01 -3.8340065606e-02 0.0000000000e+00 -2.1435899276e-01 -3.7789861420e-02 0.0000000000e+00 -2.1945254522e-01 -3.7227348521e-02 0.0000000000e+00 -2.2454463421e-01 -3.6652258723e-02 0.0000000000e+00 -2.2963526591e-01 -3.6064298608e-02 0.0000000000e+00 -2.3472439875e-01 -3.5463169159e-02 0.0000000000e+00 -2.3981193609e-01 -3.4848566607e-02 0.0000000000e+00 -2.4489771085e-01 -3.4220184393e-02 0.0000000000e+00 -2.4998176842e-01 -3.3577677250e-02 0.0000000000e+00 -2.5506399126e-01 -3.2920706413e-02 0.0000000000e+00 -2.6014426393e-01 -3.2248918972e-02 0.0000000000e+00 -2.6522248061e-01 -3.1561945841e-02 0.0000000000e+00 -2.7029858526e-01 -3.0859394906e-02 0.0000000000e+00 -2.7537247023e-01 -3.0140863550e-02 0.0000000000e+00 -2.8044398225e-01 -2.9405937276e-02 0.0000000000e+00 -2.8551303983e-01 -2.8654171425e-02 0.0000000000e+00 -2.9057948552e-01 -2.7885111033e-02 0.0000000000e+00 -2.9564321341e-01 -2.7098270352e-02 0.0000000000e+00 -3.0070406800e-01 -2.6293146236e-02 0.0000000000e+00 -3.0576188583e-01 -2.5469210014e-02 0.0000000000e+00 -3.1081650731e-01 -2.4625903240e-02 0.0000000000e+00 -3.1586776165e-01 -2.3762637513e-02 0.0000000000e+00 -3.2091545343e-01 -2.2878794051e-02 0.0000000000e+00 -3.2595938602e-01 -2.1973716558e-02 0.0000000000e+00 -3.3099932872e-01 -2.1046713543e-02 0.0000000000e+00 -3.3603506379e-01 -2.0097045782e-02 0.0000000000e+00 -3.4106630193e-01 -1.9123937664e-02 0.0000000000e+00 -3.4609279420e-01 -1.8126550881e-02 0.0000000000e+00 -3.5111422796e-01 -1.7103998506e-02 0.0000000000e+00 -3.5613026864e-01 -1.6055330517e-02 0.0000000000e+00 -3.6114055876e-01 -1.4979526225e-02 0.0000000000e+00 -3.6614471400e-01 -1.3875486128e-02 0.0000000000e+00 -3.7114227411e-01 -1.2742032692e-02 0.0000000000e+00 -3.7613277157e-01 -1.1577883387e-02 0.0000000000e+00 -3.8111568954e-01 -1.0381645731e-02 0.0000000000e+00 -3.8609040603e-01 -9.1518147596e-03 0.0000000000e+00 -3.9105627202e-01 -7.8867350466e-03 0.0000000000e+00 -3.9601255828e-01 -6.5845901298e-03 0.0000000000e+00 -4.0095841207e-01 -5.2433865304e-03 0.0000000000e+00 -4.0589288660e-01 -3.8609129621e-03 0.0000000000e+00 -4.1081490142e-01 -2.4347101989e-03 0.0000000000e+00 -4.1572320451e-01 -9.6203219494e-04 0.0000000000e+00 -4.2061636185e-01 5.6021259395e-04 0.0000000000e+00 -4.2549268766e-01 2.1355174736e-03 0.0000000000e+00 -4.3035021769e-01 3.7678670960e-03 0.0000000000e+00 -4.3518659767e-01 5.4618266507e-03 0.0000000000e+00 -4.3999901359e-01 7.2226808961e-03 0.0000000000e+00 -4.4478405085e-01 9.0566000589e-03 0.0000000000e+00 -4.4953751130e-01 1.0970861400e-02 0.0000000000e+00 -4.5425413044e-01 1.2974134101e-02 0.0000000000e+00 -4.5892721924e-01 1.5076883774e-02 0.0000000000e+00 -4.6354810402e-01 1.7291919714e-02 0.0000000000e+00 -4.6810526293e-01 1.9635157524e-02 0.0000000000e+00 -4.7258296803e-01 2.2126706606e-02 0.0000000000e+00 -4.7695906267e-01 2.4792441981e-02 0.0000000000e+00 -4.8120113833e-01 2.7666268843e-02 0.0000000000e+00 -4.8525967047e-01 3.0793297982e-02 0.0000000000e+00 -4.8905511125e-01 3.4233720983e-02 0.0000000000e+00 -4.9245312560e-01 3.8064921006e-02 0.0000000000e+00 -4.9522002994e-01 4.2369646827e-02 0.0000000000e+00 -4.9697272129e-01 4.7169688282e-02 0.0000000000e+00
        </DataArray>
      </Points>
      <Verts>
        <DataArray type="Int64" Name="connectivity" format="ascii">
          0 1 2 3 4 5 6 7 8 9 10 11 12 13 14 15 16 17 18 19 20 21 22 23 24 25 26 27 28 29 30 31 32 33 34 35 36 37 38 39 40 41 42 43 44 45 46 47 48 49 50 51 52 53 54 55 56 57 58 59 60 61 62 63 64 65 66 67 68 69 70 71 72 73 74 75 76 77 78 79 80 81 82 83 84 85 86 87 88 89 90 91 92 93 94 95 96 97 98 99 100 101 102 103 104 105 106 107 108 109 110 111 112 113 114 115 116 117 118 119 120 121 122 123 124 125 126 127 128 129 130 131 132 133 134 135 136 137 138 139 140 141 142 143 144 145 146 147 148 149 150 151 152 153 154 155 156 157 158 159 160 161 162 163 164 165 166 167 168 169 170 171 172 173 174 175 176 177 178 179 180 181 182 183 184 185 186 187 188 189 190 191 192 193 194 195 196 197 198 199 200 201 202 203 204 205 206 207 208 209 210 211 212 213 214 215 216 217 218 219 220 221 222 223 224 225 226 227 228 229 230 231 232 233 234 235 236 237 238 239 240 241 242 243 244 245 246 247 248 249 250 251 252 253 254 255 256 257 258 259 260 261 262 263 264 265 266 267 268 269 270 271 272 273 274 275 276 277 278 279 280 281 282 283 284 285 286 287 288 289 290 291 292 293 294 295 296 297 298 299 300 301 302 303 304 305 306 307 308 309 310 311 312 313 314 315 316 317 318 319 320 321 322 323 324 325 326 327 328 329 330 331 332 333 334 335 336 337 338 339 340 341 342 343 344 345 346 347 348 349 350 351 352 353 354 355 356 357 358 359 360 361 362 363 364 365 366 367 368 369 370 371 372 373 374 375 376 377 378 379 380 381 382 383 384 385 386 387 388 389 390 391 392 393 394 395 396 397
        </DataArray>
        <DataArray type="Int64" Name="offsets" format="ascii">
          1 2 3 4 5 6 7 8 9 10 11 12 13 14 15 16 17 18 19 20 21 22 23 24 25 26 27 28 29 30 31 32 33 34 35 36 37 38 39 40 41 42 43 44 45 46 47 48 49 50 51 52 53 54 55 56 57 58 59 60 61 62 63 64 65 66 67 68 69 70 71 72 73 74 75 76 77 78 79 80 81 82 83 84 85 86 87 88 89 90 91 92 93 94 95 96 97 98 99 100 101 102 103 104 105 106 107 108 109 110 111 112 113 114 115 116 117 118 119 120 121 122 123 124 125 126 127 128 129 130 131 132 133 134 135 136 137 138 139 140 141 142 143 144 145 146 147 148 149 150 151 152 153 154 155 156 157 158 159 160 161 162 163 164 165 166 167 168 169 170 171 172 173 174 175 176 177 178 179 180 181 182 183 184 185 186 187 188 189 190 191 192 193 194 195 196 197 198 199 200 201 202 203 204 205 206 207 208 209 210 211 212 213 214 215 216 217 218 219 220 221 222 223 224 225 226 227 228 229 230 231 232 233 234 235 236 237 238 239 240 241 242 243 244 245 246 247 248 249 250 251 252 253 254 255 256 257 258 259 260 261 262 263 264 265 266 267 268 269 270 271 272 273 274 275 276 277 278 279 280 281 282 283 284 285 286 287 288 289 290 291 292 293 294 295 296 297 298 299 300 301 302 303 304 305 306 307 308 309 310 311 312 313 314 315 316 317 318 319 320 321 322 323 324 325 326 327 328 329 330 331 332 333 334 335 336 337 338 339 340 341 342 343 344 345 346 347 348 349 350 351 352 353 354 355 356 357 358 359 360 361 362 363 364 365 366 367 368 369 370 371 372 373 374 375 376 377 378 379 380 381 382 383 384 385 386 387 388 389 390 391 392 393 394 395 396 397 398
        </DataArray>
      </Verts>
      <PointData>
        <DataArray type="Float64" Name="velocity" NumberOfComponents="3" format="ascii">
          0.0000000000e+00 0.0000000000e+00 0.0000000000e+00 0.0000000000e+00 0.0000000000e+00 0.0000000000e+00 0.0000000000e+00 0.0000000000e+00 0.0000000000e+00 0.0000000000e+00 0.0000000000e+00 0.0000000000e+00 0.0000000000e+00 0.0000000000e+00 0.0000000000e+00 0.0000000000e+00 0.0000000000e+00 0.0000000000e+00 0.0000000000e+00 0.0000000000e+00 0.0000000000e+00 0.0000000000e+00 0.0000000000e+00 0.0000000000e+00 0.0000000000e+00 0.0000000000e+00 0.0000000000e+00 0.0000000000e+00 0.0000000000e+00 0.0000000000e+00 0.0000000000e+00 0.0000000000e+00 0.0000000000e+00 0.0000000000e+00 0.0000000000e+00 0.0000000000e+00 0.0000000000e+00 0.0000000000e+00 0.0000000000e+00 0.0000000000e+00 0.0000000000e+00 0.0000000000e+00 0.0000000000e+00 0.0000000000e+00 0.0000000000e+00 0.0000000000e+00 0.0000000000e+00 0.0000000000e+00 0.0000000000e+00 0.0000000000e+00 0.0000000000e+00 0.0000000000e+00 0.0000000000e+00 0.0000000000e+00 0.0000000000e+00 0.0000000000e+00 0.0000000000e+00 0.0000000000e+00 0.0000000000e+00 0.0000000000e+00 0.0000000000e+00 0.0000000000e+00 0.0000000000e+00 0.0000000000e+00 0.0000000000e+00 0.0000000000e+00 0.0000000000e+00 0.0000000000e+00 0.0000000000e+00 0.0000000000e+00 0.0000000000e+00 0.0000000000e+00 0.0000000000e+00 0.0000000000e+00 0.0000000000e+00 0.0000000000e+00 0.0000000000e+00 0.0000000000e+00 0.0000000000e+00 0.0000000000e+00 0.0000000000e+00 0.0000000000e+00 0.0000000000e+00 0.0000000000e+00 0.0000000000e+00 0.0000000000e+00 0.0000000000e+00 0.0000000000e+00 0.0000000000e+00 0.0000000000e+00 0.0000000000e+00 0.0000000000e+00 0.0000000000e+00 0.0000000000e+00 0.0000000000e+00 0.0000000000e+00 0.0000000000e+00 0.0000000000e+00 0.0000000000e+00 0.0000000000e+00 0.0000000000e+00 0.0000000000e+00 0.0000000000e+00 0.0000000000e+00 0.0000000000e+00 0.0000000000e+00 0.0000000000e+00 0.0000000000e+00 0.0000000000e+00 0.0000000000e+00 0.0000000000e+00 0.0000000000e+00 0.0000000000e+00 0.0000000000e+00 0.0000000000e+00 0.0000000000e+00 0.0000000000e+00 0.0000000000e+00 0.0000000000e+00 0.0000000000e+00 0.0000000000e+00 0.0000000000e+00 0.0000000000e+00 0.0000000000e+00 0.0000000000e+00 0.0000000000e+00 0.0000000000e+00 0.0000000000e+00 0.0000000000e+00 0.0000000000e+00 0.0000000000e+00 0.0000000000e+00 0.0000000000e+00 0.0000000000e+00 0.0000000000e+00 0.0000000000e+00 0.0000000000e+00 0.0000000000e+00 0.0000000000e+00 0.0000000000e+00 0.0000000000e+00 0.0000000000e+00 0.0000000000e+00 0.0000000000e+00 0.0000000000e+00 0.0000000000e+00 0.0000000000e+00 0.0000000000e+00 0.0000000000e+00 0.0000000000e+00 0.0000000000e+00 0.0000000000e+00 0.0000000000e+00 0.0000000000e+00 0.0000000000e+00 0.0000000000e+00 0.0000000000e+00 0.0000000000e+00 0.0000000000e+00 0.0000000000e+00 0.0000000000e+00 0.0000000000e+00 0.0000000000e+00 0.0000000000e+00 0.0000000000e+00 0.0000000000e+00 0.0000000000e+00 0.0000000000e+00 0.0000000000e+00 0.0000000000e+00 0.0000000000e+00 0.0000000000e+00 0.0000000000e+00 0.0000000000e+00 0.0000000000e+00 0.0000000000e+00 0.0000000000e+00 0.0000000000e+00 0.0000000000e+00 0.0000000000e+00 0.0000000000e+00 0.0000000000e+00 0.0000000000e+00 0.0000000000e+00 0.0000000000e+00 0.0000000000e+00 0.0000000000e+00 0.0000000000e+00 0.0000000000e+00 0.0000000000e+00 0.0000000000e+00 0.0000000000e+00 0.0000000000e+00 0.0000000000e+00 0.0000000000e+00 0.0000000000e+00 0.0000000000e+00 0.0000000000e+00 0.0000000000e+00 0.0000000000e+00 0.0000000000e+00 0.0000000000e+00 0.0000000000e+00 0.0000000000e+00 0.0000000000e+00 0.0000000000e+00 0.0000000000e+00 0.0000000000e+00 0.0000000000e+00 0.0000000000e+00 0.0000000000e+00 0.0000000000e+00 0.0000000000e+00 0.0000000000e+00 0.0000000000e+00 0.0000000000e+00 0.0000000000e+00 0.0000000000e+00 0.0000000000e+00 0.0000000000e+00 0.0000000000e+00 0.0000000000e+00 0.0000000000e+00 0.0000000000e+00 0.0000000000e+00 0.0000000000e+00 0.0000000000e+00 0.0000000000e+00 0.0000000000e+00 0.0000000000e+00 0.0000000000e+00 0.0000000000e+00 0.0000000000e+00 0.0000000000e+00 0.0000000000e+00 0.0000000000e+00 0.0000000000e+00 0.0000000000e+00 0.0000000000e+00 0.0000000000e+00 0.0000000000e+00 0.0000000000e+00 0.0000000000e+00 0.0000000000e+00 0.0000000000e+00 0.0000000000e+00 0.0000000000e+00 0.0000000000e+00 0.0000000000e+00 0.0000000000e+00 0.0000000000e+00 0.0000000000e+00 0.0000000000e+00 0.0000000000e+00 0.0000000000e+00 0.0000000000e+00 0.0000000000e+00 0.0000000000e+00 0.0000000000e+00 0.0000000000e+00 0.0000000000e+00 0.0000000000e+00 0.0000000000e+00 0.0000000000e+00 0.0000000000e+00 0.0000000000e+00 0.0000000000e+00 0.0000000000e+00 0.0000000000e+00 0.0000000000e+00 0.0000000000e+00 0.0000000000e+00 0.0000000000e+00 0.0000000000e+00 0.0000000000e+00 0.0000000000e+00 0.0000000000e+00 0.0000000000e+00 0.0000000000e+00 0.0000000000e+00 0.0000000000e+00 0.0000000000e+00 0.0000000000e+00 0.0000000000e+00 0.0000000000e+00 0.0000000000e+00 0.0000000000e+00 0.0000000000e+00 0.0000000000e+00 0.0000000000e+00 0.0000000000e+00 0.0000000000e+00 0.0000000000e+00 0.0000000000e+00 0.0000000000e+00 0.0000000000e+00 0.0000000000e+00 0.0000000000e+00 0.0000000000e+00 0.0000000000e+00 0.0000000000e+00 0.0000000000e+00 0.0000000000e+00 0.0000000000e+00 0.0000000000e+00 0.0000000000e+00 0.0000000000e+00 0.0000000000e+00 0.0000000000e+00 0.0000000000e+00 0.0000000000e+00 0.0000000000e+00 0.0000000000e+00 0.0000000000e+00 0.0000000000e+00 0.0000000000e+00 0.0000000000e+00 0.0000000000e+00 0.0000000000e+00 0.0000000000e+00 0.0000000000e+00 0.0000000000e+00 0.0000000000e+00 0.0000000000e+00 0.0000000000e+00 0.0000000000e+00 0.0000000000e+00 0.0000000000e+00 0.0000000000e+00 0.0000000000e+00 0.0000000000e+00 0.0000000000e+00 0.0000000000e+00 0.0000000000e+00 0.0000000000e+00 0.0000000000e+00 0.0000000000e+00 0.0000000000e+00 0.0000000000e+00 0.0000000000e+00 0.0000000000e+00 0.0000000000e+00 0.0000000000e+00 0.0000000000e+00 0.0000000000e+00 0.0000000000e+00 0.0000000000e+00 0.0000000000e+00 0.0000000000e+00 0.0000000000e+00 0.0000000000e+00 0.0000000000e+00 0.0000000000e+00 0.0000000000e+00 0.0000000000e+00 0.0000000000e+00 0.0000000000e+00 0.0000000000e+00 0.0000000000e+00 0.0000000000e+00 0.0000000000e+00 0.0000000000e+00 0.0000000000e+00 0.0000000000e+00 0.0000000000e+00 0.0000000000e+00 0.0000000000e+00 0.0000000000e+00 0.0000000000e+00 0.0000000000e+00 0.0000000000e+00 0.0000000000e+00 0.0000000000e+00 0.0000000000e+00 0.0000000000e+00 0.0000000000e+00 0.0000000000e+00 0.0000000000e+00 0.0000000000e+00 0.0000000000e+00 0.0000000000e+00 0.0000000000e+00 0.0000000000e+00 0.0000000000e+00 0.0000000000e+00 0.0000000000e+00 0.0000000000e+00 0.0000000000e+00 0.0000000000e+00 0.0000000000e+00 0.0000000000e+00 0.0000000000e+00 0.0000000000e+00 0.0000000000e+00 0.0000000000e+00 0.0000000000e+00 0.0000000000e+00 0.0000000000e+00 0.0000000000e+00 0.0000000000e+00 0.0000000000e+00 0.0000000000e+00 0.0000000000e+00 0.0000000000e+00 0.0000000000e+00 0.0000000000e+00 0.0000000000e+00 0.0000000000e+00 0.0000000000e+00 0.0000000000e+00 0.0000000000e+00 0.0000000000e+00 0.0000000000e+00 0.0000000000e+00 0.0000000000e+00 0.0000000000e+00 0.0000000000e+00 0.0000000000e+00 0.0000000000e+00 0.0000000000e+00 0.0000000000e+00 0.0000000000e+00 0.0000000000e+00 0.0000000000e+00 0.0000000000e+00 0.0000000000e+00 0.0000000000e+00 0.0000000000e+00 0.0000000000e+00 0.0000000000e+00 0.0000000000e+00 0.0000000000e+00 0.0000000000e+00 0.0000000000e+00 0.0000000000e+00 0.0000000000e+00 0.0000000000e+00 0.0000000000e+00 0.0000000000e+00 0.0000000000e+00 0.0000000000e+00 0.0000000000e+00 0.0000000000e+00 0.0000000000e+00 0.0000000000e+00 0.0000000000e+00 0.0000000000e+00 0.0000000000e+00 0.0000000000e+00 0.0000000000e+00 0.0000000000e+00 0.0000000000e+00 0.0000000000e+00 0.0000000000e+00 0.0000000000e+00 0.0000000000e+00 0.0000000000e+00 0.0000000000e+00 0.0000000000e+00 0.0000000000e+00 0.0000000000e+00 0.0000000000e+00 0.0000000000e+00 0.0000000000e+00 0.0000000000e+00 0.0000000000e+00 0.0000000000e+00 0.0000000000e+00 0.0000000000e+00 0.0000000000e+00 0.0000000000e+00 0.0000000000e+00 0.0000000000e+00 0.0000000000e+00 0.0000000000e+00 0.0000000000e+00 0.0000000000e+00 0.0000000000e+00 0.0000000000e+00 0.0000000000e+00 0.0000000000e+00 0.0000000000e+00 0.0000000000e+00 0.0000000000e+00 0.0000000000e+00 0.0000000000e+00 0.0000000000e+00 0.0000000000e+00 0.0000000000e+00 0.0000000000e+00 0.0000000000e+00 0.0000000000e+00 0.0000000000e+00 0.0000000000e+00 0.0000000000e+00 0.0000000000e+00 0.0000000000e+00 0.0000000000e+00 0.0000000000e+00 0.0000000000e+00 0.0000000000e+00 0.0000000000e+00 0.0000000000e+00 0.0000000000e+00 0.0000000000e+00 0.0000000000e+00 0.0000000000e+00 0.0000000000e+00 0.0000000000e+00 0.0000000000e+00 0.0000000000e+00 0.0000000000e+00 0.0000000000e+00 0.0000000000e+00 0.0000000000e+00 0.0000000000e+00 0.0000000000e+00 0.0000000000e+00 0.0000000000e+00 0.0000000000e+00 0.0000000000e+00 0.0000000000e+00 0.0000000000e+00 0.0000000000e+00 0.0000000000e+00 0.0000000000e+00 0.0000000000e+00 0.0000000000e+00 0.0000000000e+00 0.0000000000e+00 0.0000000000e+00 0.0000000000e+00 0.0000000000e+00 0.0000000000e+00 0.0000000000e+00 0.0000000000e+00 0.0000000000e+00 0.0000000000e+00 0.0000000000e+00 0.0000000000e+00 0.0000000000e+00 0.0000000000e+00 0.0000000000e+00 0.0000000000e+00 0.0000000000e+00 0.0000000000e+00 0.0000000000e+00 0.0000000000e+00 0.0000000000e+00 0.0000000000e+00 0.0000000000e+00 0.0000000000e+00 0.0000000000e+00 0.0000000000e+00 0.0000000000e+00 0.0000000000e+00 0.0000000000e+00 0.0000000000e+00 0.0000000000e+00 0.0000000000e+00 0.0000000000e+00 0.0000000000e+00 0.0000000000e+00 0.0000000000e+00 0.0000000000e+00 0.0000000000e+00 0.0000000000e+00 0.0000000000e+00 0.0000000000e+00 0.0000000000e+00 0.0000000000e+00 0.0000000000e+00 0.0000000000e+00 0.0000000000e+00 0.0000000000e+00 0.0000000000e+00 0.0000000000e+00 0.0000000000e+00 0.0000000000e+00 0.0000000000e+00 0.0000000000e+00 0.0000000000e+00 0.0000000000e+00 0.0000000000e+00 0.0000000000e+00 0.0000000000e+00 0.0000000000e+00 0.0000000000e+00 0.0000000000e+00 0.0000000000e+00 0.0000000000e+00 0.0000000000e+00 0.0000000000e+00 0.0000000000e+00 0.0000000000e+00 0.0000000000e+00 0.0000000000e+00 0.0000000000e+00 0.0000000000e+00 0.0000000000e+00 0.0000000000e+00 0.0000000000e+00 0.0000000000e+00 0.0000000000e+00 0.0000000000e+00 0.0000000000e+00 0.0000000000e+00 0.0000000000e+00 0.0000000000e+00 0.0000000000e+00 0.0000000000e+00 0.0000000000e+00 0.0000000000e+00 0.0000000000e+00 0.0000000000e+00 0.0000000000e+00 0.0000000000e+00 0.0000000000e+00 0.0000000000e+00 0.0000000000e+00 0.0000000000e+00 0.0000000000e+00 0.0000000000e+00 0.0000000000e+00 0.0000000000e+00 0.0000000000e+00 0.0000000000e+00 0.0000000000e+00 0.0000000000e+00 0.0000000000e+00 0.0000000000e+00 0.0000000000e+00 0.0000000000e+00 0.0000000000e+00 0.0000000000e+00 0.0000000000e+00 0.0000000000e+00 0.0000000000e+00 0.0000000000e+00 0.0000000000e+00 0.0000000000e+00 0.0000000000e+00 0.0000000000e+00 0.0000000000e+00 0.0000000000e+00 0.0000000000e+00 0.0000000000e+00 0.0000000000e+00 0.0000000000e+00 0.0000000000e+00 0.0000000000e+00 0.0000000000e+00 0.0000000000e+00 0.0000000000e+00 0.0000000000e+00 0.0000000000e+00 0.0000000000e+00 0.0000000000e+00 0.0000000000e+00 0.0000000000e+00 0.0000000000e+00 0.0000000000e+00 0.0000000000e+00 0.0000000000e+00 0.0000000000e+00 0.0000000000e+00 0.0000000000e+00 0.0000000000e+00 0.0000000000e+00 0.0000000000e+00 0.0000000000e+00 0.0000000000e+00 0.0000000000e+00 0.0000000000e+00 0.0000000000e+00 0.0000000000e+00 0.0000000000e+00 0.0000000000e+00 0.0000000000e+00 0.0000000000e+00 0.0000000000e+00 0.0000000000e+00 0.0000000000e+00 0.0000000000e+00 0.0000000000e+00 0.0000000000e+00 0.0000000000e+00 0.0000000000e+00 0.0000000000e+00 0.0000000000e+00 0.0000000000e+00 0.0000000000e+00 0.0000000000e+00 0.0000000000e+00 0.0000000000e+00 0.0000000000e+00 0.0000000000e+00 0.0000000000e+00 0.0000000000e+00 0.0000000000e+00 0.0000000000e+00 0.0000000000e+00 0.0000000000e+00 0.0000000000e+00 0.0000000000e+00 0.0000000000e+00 0.0000000000e+00 0.0000000000e+00 0.0000000000e+00 0.0000000000e+00 0.0000000000e+00 0.0000000000e+00 0.0000000000e+00 0.0000000000e+00 0.0000000000e+00 0.0000000000e+00 0.0000000000e+00 0.0000000000e+00 0.0000000000e+00 0.0000000000e+00 0.0000000000e+00 0.0000000000e+00 0.0000000000e+00 0.0000000000e+00 0.0000000000e+00 0.0000000000e+00 0.0000000000e+00 0.0000000000e+00 0.0000000000e+00 0.0000000000e+00 0.0000000000e+00 0.0000000000e+00 0.0000000000e+00 0.0000000000e+00 0.0000000000e+00 0.0000000000e+00 0.0000000000e+00 0.0000000000e+00 0.0000000000e+00 0.0000000000e+00 0.0000000000e+00 0.0000000000e+00 0.0000000000e+00 0.0000000000e+00 0.0000000000e+00 0.0000000000e+00 0.0000000000e+00 0.0000000000e+00 0.0000000000e+00 0.0000000000e+00 0.0000000000e+00 0.0000000000e+00 0.0000000000e+00 0.0000000000e+00 0.0000000000e+00 0.0000000000e+00 0.0000000000e+00 0.0000000000e+00 0.0000000000e+00 0.0000000000e+00 0.0000000000e+00 0.0000000000e+00 0.0000000000e+00 0.0000000000e+00 0.0000000000e+00 0.0000000000e+00 0.0000000000e+00 0.0000000000e+00 0.0000000000e+00 0.0000000000e+00 0.0000000000e+00 0.0000000000e+00 0.0000000000e+00 0.0000000000e+00 0.0000000000e+00 0.0000000000e+00 0.0000000000e+00 0.0000000000e+00 0.0000000000e+00 0.0000000000e+00 0.0000000000e+00 0.0000000000e+00 0.0000000000e+00 0.0000000000e+00 0.0000000000e+00 0.0000000000e+00 0.0000000000e+00 0.0000000000e+00 0.0000000000e+00 0.0000000000e+00 0.0000000000e+00 0.0000000000e+00 0.0000000000e+00 0.0000000000e+00 0.0000000000e+00 0.0000000000e+00 0.0000000000e+00 0.0000000000e+00 0.0000000000e+00 0.0000000000e+00 0.0000000000e+00 0.0000000000e+00 0.0000000000e+00 0.0000000000e+00 0.0000000000e+00 0.0000000000e+00 0.0000000000e+00 0.0000000000e+00 0.0000000000e+00 0.0000000000e+00 0.0000000000e+00 0.0000000000e+00 0.0000000000e+00 0.0000000000e+00 0.0000000000e+00 0.0000000000e+00 0.0000000000e+00 0.0000000000e+00 0.0000000000e+00 0.0000000000e+00 0.0000000000e+00 0.0000000000e+00 0.0000000000e+00 0.0000000000e+00 0.0000000000e+00 0.0000000000e+00 0.0000000000e+00 0.0000000000e+00 0.0000000000e+00 0.0000000000e+00 0.0000000000e+00 0.0000000000e+00 0.0000000000e+00 0.0000000000e+00 0.0000000000e+00 0.0000000000e+00 0.0000000000e+00 0.0000000000e+00 0.0000000000e+00 0.0000000000e+00 0.0000000000e+00 0.0000000000e+00 0.0000000000e+00 0.0000000000e+00 0.0000000000e+00 0.0000000000e+00 0.0000000000e+00 0.0000000000e+00 0.0000000000e+00 0.0000000000e+00 0.0000000000e+00 0.0000000000e+00 0.0000000000e+00 0.0000000000e+00 0.0000000000e+00 0.0000000000e+00 0.0000000000e+00 0.0000000000e+00 0.0000000000e+00 0.0000000000e+00 0.0000000000e+00 0.0000000000e+00 0.0000000000e+00 0.0000000000e+00 0.0000000000e+00 0.0000000000e+00 0.0000000000e+00 0.0000000000e+00 0.0000000000e+00 0.0000000000e+00 0.0000000000e+00 0.0000000000e+00 0.0000000000e+00 0.0000000000e+00 0.0000000000e+00 0.0000000000e+00 0.0000000000e+00 0.0000000000e+00 0.0000000000e+00 0.0000000000e+00 0.0000000000e+00 0.0000000000e+00 0.0000000000e+00 0.0000000000e+00 0.0000000000e+00 0.0000000000e+00 0.0000000000e+00 0.0000000000e+00 0.0000000000e+00 0.0000000000e+00 0.0000000000e+00 0.0000000000e+00 0.0000000000e+00 0.0000000000e+00 0.0000000000e+00 0.0000000000e+00 0.0000000000e+00 0.0000000000e+00 0.0000000000e+00 0.0000000000e+00 0.0000000000e+00 0.0000000000e+00 0.0000000000e+00 0.0000000000e+00 0.0000000000e+00 0.0000000000e+00 0.0000000000e+00 0.0000000000e+00 0.0000000000e+00 0.0000000000e+00 0.0000000000e+00 0.0000000000e+00 0.0000000000e+00 0.0000000000e+00 0.0000000000e+00 0.0000000000e+00 0.0000000000e+00 0.0000000000e+00 0.0000000000e+00 0.0000000000e+00 0.0000000000e+00 0.0000000000e+00 0.0000000000e+00 0.0000000000e+00 0.0000000000e+00 0.0000000000e+00 0.0000000000e+00 0.0000000000e+00 0.0000000000e+00 0.0000000000e+00 0.0000000000e+00 0.0000000000e+00 0.0000000000e+00 0.0000000000e+00 0.0000000000e+00 0.0000000000e+00 0.0000000000e+00 0.0000000000e+00 0.0000000000e+00 0.0000000000e+00 0.0000000000e+00 0.0000000000e+00 0.0000000000e+00 0.0000000000e+00 0.0000000000e+00 0.0000000000e+00 0.0000000000e+00 0.0000000000e+00 0.0000000000e+00 0.0000000000e+00 0.0000000000e+00 0.0000000000e+00 0.0000000000e+00 0.0000000000e+00 0.0000000000e+00 0.0000000000e+00 0.0000000000e+00 0.0000000000e+00 0.0000000000e+00 0.0000000000e+00 0.0000000000e+00 0.0000000000e+00 0.0000000000e+00 0.0000000000e+00 0.0000000000e+00 0.0000000000e+00 0.0000000000e+00 0.0000000000e+00 0.0000000000e+00 0.0000000000e+00 0.0000000000e+00 0.0000000000e+00 0.0000000000e+00 0.0000000000e+00 0.0000000000e+00 0.0000000000e+00 0.0000000000e+00 0.0000000000e+00 0.0000000000e+00 0.0000000000e+00 0.0000000000e+00 0.0000000000e+00 0.0000000000e+00 0.0000000000e+00 0.0000000000e+00 0.0000000000e+00 0.0000000000e+00 0.0000000000e+00 0.0000000000e+00 0.0000000000e+00 0.0000000000e+00 0.0000000000e+00 0.0000000000e+00 0.0000000000e+00 0.0000000000e+00 0.0000000000e+00 0.0000000000e+00 0.0000000000e+00 0.0000000000e+00 0.0000000000e+00 0.0000000000e+00 0.0000000000e+00 0.0000000000e+00 0.0000000000e+00 0.0000000000e+00 0.0000000000e+00 0.0000000000e+00 0.0000000000e+00 0.0000000000e+00 0.0000000000e+00 0.0000000000e+00 0.0000000000e+00 0.0000000000e+00 0.0000000000e+00 0.0000000000e+00 0.0000000000e+00 0.0000000000e+00 0.0000000000e+00 0.0000000000e+00 0.0000000000e+00 0.0000000000e+00 0.0000000000e+00 0.0000000000e+00 0.0000000000e+00 0.0000000000e+00 0.0000000000e+00 0.0000000000e+00 0.0000000000e+00 0.0000000000e+00 0.0000000000e+00 0.0000000000e+00 0.0000000000e+00 0.0000000000e+00 0.0000000000e+00 0.0000000000e+00 0.0000000000e+00 0.0000000000e+00 0.0000000000e+00 0.0000000000e+00 0.0000000000e+00 0.0000000000e+00 0.0000000000e+00 0.0000000000e+00 0.0000000000e+00 0.0000000000e+00 0.0000000000e+00 0.0000000000e+00 0.0000000000e+00 0.0000000000e+00 0.0000000000e+00 0.0000000000e+00 0.0000000000e+00 0.0000000000e+00 0.0000000000e+00 0.0000000000e+00 0.0000000000e+00 0.0000000000e+00 0.0000000000e+00 0.0000000000e+00 0.0000000000e+00 0.0000000000e+00 0.0000000000e+00 0.0000000000e+00 0.0000000000e+00 0.0000000000e+00 0.0000000000e+00 0.0000000000e+00 0.0000000000e+00 0.0000000000e+00 0.0000000000e+00 0.0000000000e+00 0.0000000000e+00 0.0000000000e+00 0.0000000000e+00 0.0000000000e+00 0.0000000000e+00 0.0000000000e+00 0.0000000000e+00 0.0000000000e+00 0.0000000000e+00 0.0000000000e+00 0.0000000000e+00 0.0000000000e+00 0.0000000000e+00 0.0000000000e+00 0.0000000000e+00 0.0000000000e+00 0.0000000000e+00 0.0000000000e+00 0.0000000000e+00 0.0000000000e+00 0.0000000000e+00 0.0000000000e+00 0.0000000000e+00 0.0000000000e+00 0.0000000000e+00 0.0000000000e+00 0.0000000000e+00 0.0000000000e+00 0.0000000000e+00 0.0000000000e+00 0.0000000000e+00 0.0000000000e+00 0.0000000000e+00 0.0000000000e+00 0.0000000000e+00 0.0000000000e+00 0.0000000000e+00 0.0000000000e+00 0.0000000000e+00 0.0000000000e+00 0.0000000000e+00 0.0000000000e+00 0.0000000000e+00 0.0000000000e+00 0.0000000000e+00 0.0000000000e+00 0.0000000000e+00 0.0000000000e+00 0.0000000000e+00 0.0000000000e+00 0.0000000000e+00 0.0000000000e+00 0.0000000000e+00 0.0000000000e+00 0.0000000000e+00 0.0000000000e+00 0.0000000000e+00 0.0000000000e+00 0.0000000000e+00 0.0000000000e+00 0.0000000000e+00 0.0000000000e+00 0.0000000000e+00 0.0000000000e+00 0.0000000000e+00 0.0000000000e+00 0.0000000000e+00 0.0000000000e+00 0.0000000000e+00 0.0000000000e+00 0.0000000000e+00 0.0000000000e+00 0.0000000000e+00 0.0000000000e+00 0.0000000000e+00 0.0000000000e+00 0.0000000000e+00 0.0000000000e+00 0.0000000000e+00 0.0000000000e+00 0.0000000000e+00 0.0000000000e+00 0.0000000000e+00 0.0000000000e+00 0.0000000000e+00 0.0000000000e+00 0.0000000000e+00 0.0000000000e+00 0.0000000000e+00 0.0000000000e+00 0.0000000000e+00 0.0000000000e+00 0.0000000000e+00 0.0000000000e+00 0.0000000000e+00 0.0000000000e+00 0.0000000000e+00 0.0000000000e+00 0.0000000000e+00 0.0000000000e+00 0.0000000000e+00 0.0000000000e+00 0.0000000000e+00 0.0000000000e+00 0.0000000000e+00 0.0000000000e+00 0.0000000000e+00 0.0000000000e+00 0.0000000000e+00 0.0000000000e+00 0.0000000000e+00 0.0000000000e+00 0.0000000000e+00 0.0000000000e+00 0.0000000000e+00 0.0000000000e+00 0.0000000000e+00 0.0000000000e+00 0.0000000000e+00 0.0000000000e+00 0.0000000000e+00 0.0000000000e+00 0.0000000000e+00
        </DataArray>
        <DataArray type="Float64" Name="force" NumberOfComponents="3" format="ascii">
          -1.0852890067e-02 -1.0839472040e-03 0.0000000000e+00 -8.6026982056e-03 2.1504874667e-03 0.0000000000e+00 -1.2301370805e-02 -6.6902458677e-04 0.0000000000e+00 9.8616776601e-04 1.1776713084e-02 0.0000000000e+00 -1.3365653484e-02 -1.5099709419e-03 0.0000000000e+00 1.7600912554e-03 1.0623083783e-02 0.0000000000e+00 -8.4002289326e-03 3.0569426254e-03 0.0000000000e+00 -3.8817158369e-05 7.8126991095e-03 0.0000000000e+00 -4.8458826516e-03 5.5198325588e-03 0.0000000000e+00 -1.7991265162e-03 6.6362115356e-03 0.0000000000e+00 -2.5853323441e-03 6.4179408535e-03 0.0000000000e+00 -1.6902836404e-03 6.6892574120e-03 0.0000000000e+00 -2.3020181681e-03 6.5269085130e-03 0.0000000000e+00 -1.7286660874e-03 6.6514036453e-03 0.0000000000e+00 -1.6069198811e-03 6.7142489668e-03 0.0000000000e+00 -1.3893780710e-03 6.8412117803e-03 0.0000000000e+00 -1.2452094827e-03 6.8953959020e-03 0.0000000000e+00 -1.2583671585e-03 6.9024718891e-03 0.0000000000e+00 -1.0921861994e-03 6.9241256551e-03 0.0000000000e+00 -1.0548276343e-03 6.9337305794e-03 0.0000000000e+00 -1.0340828064e-03 6.9540003437e-03 0.0000000000e+00 -8.9544450655e-04 7.0004741182e-03 0.0000000000e+00 -7.4809516948e-04 7.0549773800e-03 0.0000000000e+00 -6.8045510617e-04 7.1042724831e-03 0.0000000000e+00 -6.1433229205e-04 7.1417334706e-03 0.0000000000e+00 -5.5399254551e-04 7.1741294582e-03 0.0000000000e+00 -4.9411313962e-04 7.2023965740e-03 0.0000000000e+00 -4.3731201427e-04 7.2275895447e-03 0.0000000000e+00 -3.8231232905e-04 7.2521936992e-03 0.0000000000e+00 -3.2993418972e-04 7.2728494848e-03 0.0000000000e+00 -2.7928645688e-04 7.2954868262e-03 0.0000000000e+00 -2.3076588058e-04 7.3104265304e-03 0.0000000000e+00 -1.8401192432e-04 7.3463234209e-03 0.0000000000e+00 -1.3922306980e-04 7.3559210871e-03 0.0000000000e+00 -9.5619369426e-05 7.3772228303e-03 0.0000000000e+00 -5.4098425212e-05 7.4017967949e-03 0.0000000000e+00 -1.3810553888e-05 7.4208590606e-03 0.0000000000e+00 2.4801530703e-05 7.4412954336e-03 0.0000000000e+00 6.2432618522e-05 7.4589085416e-03 0.0000000000e+00 9.8854563472e-05 7.4766699396e-03 0.0000000000e+00 1.3465838665e-04 7.4928348855e-03 0.0000000000e+00 1.6986951716e-04 7.5086780324e-03 0.0000000000e+00 2.0520389460e-04 7.5232537898e-03 0.0000000000e+00 2.4155800479e-04 7.5373393075e-03 0.0000000000e+00 2.8458658313e-04 7.5486663621e-03 0.0000000000e+00 3.5885835717e-04 7.5603874342e-03 0.0000000000e+00 4.2239750207e-04 7.5763639858e-03 0.0000000000e+00 3.7196012127e-04 7.6033599793e-03 0.0000000000e+00 4.0558261906e-04 7.6293605087e-03 0.0000000000e+00 4.1220117975e-04 7.6526353088e-03 0.0000000000e+00 4.5227938096e-04 7.6716158889e-03 0.0000000000e+00 4.6210967829e-04 7.6891534509e-03 0.0000000000e+00 5.0682564096e-04 7.7040127671e-03 0.0000000000e+00 5.3437573647e-04 7.7150485012e-03 0.0000000000e+00 5.3567939741e-04 7.7227956657e-03 0.0000000000e+00 5.7381686223e-04 7.7270425309e-03 0.0000000000e+00 5.9253261130e-04 7.7289662595e-03 0.0000000000e+00 6.6074029319e-04 7.7234649734e-03 0.0000000000e+00 7.8436268334e-04 7.7223080451e-03 0.0000000000e+00 7.2310111848e-04 7.7517693650e-03 0.0000000000e+00 6.7762279220e-04 7.7882309052e-03 0.0000000000e+00 7.0782524838e-04 7.8160912023e-03 0.0000000000e+00 7.1222579245e-04 7.8377044962e-03 0.0000000000e+00 7.9502261979e-04 7.8460738009e-03 0.0000000000e+00 7.3926487138e-04 7.8525709263e-03 0.0000000000e+00 8.0003078564e-04 7.8452057808e-03 0.0000000000e+00 8.0826730010e-04 7.8316177674e-03 0.0000000000e+00 1.0129801912e-03 7.8143973353e-03 0.0000000000e+00 9.2651367906e-04 7.8451356461e-03 0.0000000000e+00 8.5907144017e-04 7.8843866291e-03 0.0000000000e+00 8.5245045965e-04 7.9241852931e-03 0.0000000000e+00 9.4310859424e-04 7.9351641477e-03 0.0000000000e+00 9.1787532148e-04 7.9457140618e-03 0.0000000000e+00 9.0954652993e-04 7.9322577359e-03 0.0000000000e+00 9.9881203897e-04 7.9058814759e-03 0.0000000000e+00 1.1567494002e-03 7.8870380743e-03 0.0000000000e+00 1.0652569672e-03 7.9244910564e-03 0.0000000000e+00 9.6227187555e-04 7.9694514873e-03 0.0000000000e+00 1.0209021993e-03 8.0106030295e-03 0.0000000000e+00 1.0764120467e-03 8.0065765309e-03 0.0000000000e+00 1.0064640374e-03 8.0127822268e-03 0.0000000000e+00 1.0929832408e-03 7.9673478538e-03 0.0000000000e+00 1.2601814870e-03 7.9554902096e-03 0.0000000000e+00 1.2237084956e-03 7.9676536196e-03 0.0000000000e+00 1.0336928881e-03 8.0416185653e-03 0.0000000000e+00 1.1505577227e-03 8.0672062439e-03 0.0000000000e+00 1.1589847997e-03 8.0800193793e-03 0.0000000000e+00 1.0925978252e-03 8.0562343958e-03 0.0000000000e+00 1.2855023552e-03 8.0153233509e-03 0.0000000000e+00 1.3855523625e-03 8.0055437844e-03 0.0000000000e+00 1.1823787570e-03 8.0531343926e-03 0.0000000000e+00 1.1653386263e-03 8.1226216966e-03 0.0000000000e+00 1.2775425659e-03 8.1229612843e-03 0.0000000000e+00 1.1686155961e-03 8.1262091961e-03 0.0000000000e+00 1.3085578166e-03 8.0684852585e-03 0.0000000000e+00 1.4535097073e-03 8.0481614460e-03 0.0000000000e+00 1.3445474062e-03 8.0831794338e-03 0.0000000000e+00 1.1935211958e-03 8.1628794164e-03 0.0000000000e+00 1.3628769009e-03 8.1709504390e-03 0.0000000000e+00 1.2337719390e-03 8.1680074202e-03 0.0000000000e+00 1.3884329933e-03 8.1124165126e-03 0.0000000000e+00 1.5417153356e-03 8.0830350390e-03 0.0000000000e+00 1.3686015296e-03 8.1329958556e-03 0.0000000000e+00 1.2896946708e-03 8.2082481282e-03 0.0000000000e+00 1.4170387239e-03 8.2148500734e-03 0.0000000000e+00 1.2911239808e-03 8.1937029912e-03 0.0000000000e+00 1.5043209389e-03 8.1402150896e-03 0.0000000000e+00 1.6436729477e-03 8.1195883121e-03 0.0000000000e+00 1.2902841740e-03 8.2019986625e-03 0.0000000000e+00 1.4572629851e-03 8.2488872311e-03 0.0000000000e+00 1.4037105286e-03 8.2522729299e-03 0.0000000000e+00 1.4204947433e-03 8.2025693140e-03 0.0000000000e+00 1.6298724675e-03 8.1526414067e-03 0.0000000000e+00 1.6114524410e-03 8.1801868833e-03 0.0000000000e+00 1.3261554500e-03 8.2751453779e-03 0.0000000000e+00 1.5685951671e-03 8.2801456728e-03 0.0000000000e+00 1.3713189985e-03 8.2618072548e-03 0.0000000000e+00 1.6453034561e-03 8.1954295794e-03 0.0000000000e+00 1.7543775843e-03 8.1819025990e-03 0.0000000000e+00 1.3473625581e-03 8.2804042348e-03 0.0000000000e+00 1.6147398631e-03 8.3082610410e-03 0.0000000000e+00 1.4347628941e-03 8.3039134195e-03 0.0000000000e+00 1.6311441638e-03 8.2359235207e-03 0.0000000000e+00 1.8182344152e-03 8.1959268490e-03 0.0000000000e+00 1.4436014182e-03 8.2860693025e-03 0.0000000000e+00 1.6142089239e-03 8.3342980807e-03 0.0000000000e+00 1.5192263756e-03 8.3331117811e-03 0.0000000000e+00 1.6180924288e-03 8.2699686553e-03 0.0000000000e+00 1.8723835895e-03 8.2141209622e-03 0.0000000000e+00 1.5216432504e-03 8.2996385665e-03 0.0000000000e+00 1.6302384492e-03 8.3570766356e-03 0.0000000000e+00 1.5765556189e-03 8.3568153855e-03 0.0000000000e+00 1.6395315835e-03 8.2940631938e-03 0.0000000000e+00 1.9317644154e-03 8.2320713110e-03 0.0000000000e+00 1.5420724968e-03 8.3239033268e-03 0.0000000000e+00 1.6912324901e-03 8.3759735270e-03 0.0000000000e+00 1.5846498677e-03 8.3789302957e-03 0.0000000000e+00 1.7218564041e-03 8.3049341820e-03 0.0000000000e+00 1.9716072398e-03 8.2527624859e-03 0.0000000000e+00 1.5283891782e-03 8.3561435707e-03 0.0000000000e+00 1.7798175062e-03 8.3924971707e-03 0.0000000000e+00 1.5609160795e-03 8.3972016039e-03 0.0000000000e+00 1.8539652050e-03 8.3030603438e-03 0.0000000000e+00 1.9666413639e-03 8.2816892219e-03 0.0000000000e+00 1.5312027727e-03 8.3922414638e-03 0.0000000000e+00 1.8643047800e-03 8.4072549671e-03 0.0000000000e+00 1.5262247230e-03 8.4070255938e-03 0.0000000000e+00 2.0376287293e-03 8.2898760414e-03 0.0000000000e+00 1.8521042687e-03 8.3284289444e-03 0.0000000000e+00 1.6599255172e-03 8.4173513216e-03 0.0000000000e+00 1.8135259231e-03 8.4321730202e-03 0.0000000000e+00 1.6513742811e-03 8.3877947351e-03 0.0000000000e+00 2.1336417880e-03 8.2883000600e-03 0.0000000000e+00 1.7063094863e-03 8.3833419377e-03 0.0000000000e+00 1.8416461207e-03 8.4351456361e-03 0.0000000000e+00 1.6671694493e-03 8.4498143376e-03 0.0000000000e+00 1.9654727336e-03 8.3440359107e-03 0.0000000000e+00 2.0516626838e-03 8.3243649815e-03 0.0000000000e+00 1.6579318264e-03 8.4342468886e-03 0.0000000000e+00 1.9428643097e-03 8.4513765002e-03 0.0000000000e+00 1.6339621118e-03 8.4344733535e-03 0.0000000000e+00 2.2229710121e-03 8.3079645578e-03 0.0000000000e+00 1.8051279567e-03 8.3953514974e-03 0.0000000000e+00 1.8941497370e-03 8.4525586853e-03 0.0000000000e+00 1.7226172862e-03 8.4753533333e-03 0.0000000000e+00 2.0489213081e-03 8.3609448270e-03 0.0000000000e+00 2.0908400668e-03 8.3459826574e-03 0.0000000000e+00 1.7566354508e-03 8.4523125691e-03 0.0000000000e+00 1.9579618659e-03 8.4749303523e-03 0.0000000000e+00 1.7623394619e-03 8.4360275681e-03 0.0000000000e+00 2.2923158571e-03 8.3195036199e-03 0.0000000000e+00 1.8032097659e-03 8.4292219055e-03 0.0000000000e+00 2.0119258439e-03 8.4694517852e-03 0.0000000000e+00 1.7223949332e-03 8.4830685587e-03 0.0000000000e+00 2.2684008160e-03 8.3401600858e-03 0.0000000000e+00 1.9862045058e-03 8.3920713678e-03 0.0000000000e+00 1.9579987957e-03 8.4662292602e-03 0.0000000000e+00 1.8216368288e-03 8.4964233499e-03 0.0000000000e+00 2.1559718759e-03 8.3757606373e-03 0.0000000000e+00 2.1599657911e-03 8.3567672223e-03 0.0000000000e+00 1.9196919364e-03 8.4565931169e-03 0.0000000000e+00 1.9459735370e-03 8.4906353139e-03 0.0000000000e+00 2.0329971928e-03 8.4072412326e-03 0.0000000000e+00 2.3004338660e-03 8.3234860688e-03 0.0000000000e+00 1.9297147788e-03 8.4314258138e-03 0.0000000000e+00 2.0301384212e-03 8.4726993091e-03 0.0000000000e+00 1.9685513922e-03 8.4180946844e-03 0.0000000000e+00 2.3655018013e-03 8.2851421585e-03 0.0000000000e+00 2.0462178601e-03 8.3650082131e-03 0.0000000000e+00 1.9750831186e-03 8.4451271718e-03 0.0000000000e+00 2.0319393369e-03 8.3980504762e-03 0.0000000000e+00 2.3757128901e-03 8.2137484064e-03 0.0000000000e+00 2.2616842977e-03 8.1667558759e-03 0.0000000000e+00 1.7278709409e-03 8.4576097935e-03 0.0000000000e+00 2.3123766856e-03 8.1823817621e-03 0.0000000000e+00 1.1056807102e-03 9.1768334416e-03 0.0000000000e+00 3.2796517719e-03 9.6772001948e-03 0.0000000000e+00 4.7942855322e-06 1.3752832883e-02 0.0000000000e+00 8.5150742889e-03 1.0134959936e-02 0.0000000000e+00 -2.7118101513e-04 1.3975022990e-04 0.0000000000e+00 -1.6197054242e-03 -1.0870841535e-02 0.0000000000e+00 3.7910393345e-04 -1.3881400208e-02 0.0000000000e+00 -5.0363427125e-04 -9.6914842921e-03 0.0000000000e+00 -8.1218101114e-04 -9.4715739058e-03 0.0000000000e+00 2.3041436935e-04 -8.3550352943e-03 0.0000000000e+00 4.3345191663e-05 -8.6924976785e-03 0.0000000000e+00 2.2321064746e-04 -8.3574161990e-03 0.0000000000e+00 3.2836873666e-04 -8.6021160221e-03 0.0000000000e+00 1.7988095817e-04 -8.6589155208e-03 0.0000000000e+00 9.1698567960e-05 -8.6508554188e-03 0.0000000000e+00 1.5523948431e-04 -8.6069714538e-03 0.0000000000e+00 2.4339809572e-04 -8.6491290143e-03 0.0000000000e+00 1.5933647960e-04 -8.6929791351e-03 0.0000000000e+00 1.1121675211e-04 -8.6875361679e-03 0.0000000000e+00 1.2621685036e-04 -8.6730200742e-03 0.0000000000e+00 1.6392962305e-04 -8.6860368926e-03 0.0000000000e+00 1.3548419590e-04 -8.6935421655e-03 0.0000000000e+00 1.0599658113e-04 -8.7058023292e-03 0.0000000000e+00 1.0307553769e-04 -8.7061751178e-03 0.0000000000e+00 1.1396934665e-04 -8.6930543381e-03 0.0000000000e+00 1.0277888425e-04 -8.7152393197e-03 0.0000000000e+00 8.8317128398e-05 -8.7120550701e-03 0.0000000000e+00 7.9937735714e-05 -8.7189617818e-03 0.0000000000e+00 7.8828931321e-05 -8.7174024349e-03 0.0000000000e+00 7.2561355699e-05 -8.7229923065e-03 0.0000000000e+00 6.3395292514e-05 -8.7236789820e-03 0.0000000000e+00 5.5303721031e-05 -8.7252014816e-03 0.0000000000e+00 5.0187333540e-05 -8.7256623927e-03 0.0000000000e+00 4.4645625269e-05 -8.7268175947e-03 0.0000000000e+00 3.7615483176e-05 -8.7278716932e-03 0.0000000000e+00 3.0432625232e-05 -8.7286291161e-03 0.0000000000e+00 2.4173429543e-05 -8.7289613099e-03 0.0000000000e+00 1.8230270669e-05 -8.7295498708e-03 0.0000000000e+00 1.1765537602e-05 -8.7300703224e-03 0.0000000000e+00 4.9712850671e-06 -8.7304808309e-03 0.0000000000e+00 -1.6720067267e-06 -8.7309270339e-03 0.0000000000e+00 -8.0779689125e-06 -8.7310186667e-03 0.0000000000e+00 -1.4562382168e-05 -8.7312218157e-03 0.0000000000e+00 -2.1231749600e-05 -8.7315146421e-03 0.0000000000e+00 -2.7841609321e-05 -8.7315836438e-03 0.0000000000e+00 -3.4432353640e-05 -8.7316153750e-03 0.0000000000e+00 -4.1005478849e-05 -8.7315638602e-03 0.0000000000e+00 -4.7691329091e-05 -8.7316487091e-03 0.0000000000e+00 -5.4452426757e-05 -8.7316661263e-03 0.0000000000e+00 -6.1258659666e-05 -8.7315261611e-03 0.0000000000e+00 -6.8064134759e-05 -8.7314269273e-03 0.0000000000e+00 -7.4934631148e-05 -8.7313124995e-03 0.0000000000e+00 -8.1831240025e-05 -8.7311181330e-03 0.0000000000e+00 -8.8822974636e-05 -8.7306496007e-03 0.0000000000e+00 -9.5772702254e-05 -8.7304921587e-03 0.0000000000e+00 -1.0286271536e-04 -8.7295984567e-03 0.0000000000e+00 -1.0982596944e-04 -8.7296443763e-03 0.0000000000e+00 -1.1706122826e-04 -8.7277778213e-03 0.0000000000e+00 -1.2398240546e-04 -8.7282296937e-03 0.0000000000e+00 -1.3139885772e-04 -8.7245337738e-03 0.0000000000e+00 -1.3821748615e-04 -8.7260908800e-03 0.0000000000e+00 -1.4589724040e-04 -8.7173818907e-03 0.0000000000e+00 -1.5265693909e-04 -8.7201163664e-03 0.0000000000e+00 -1.5998201559e-04 -8.7311358173e-03 0.0000000000e+00 -1.6728022342e-04 -8.7131406804e-03 0.0000000000e+00 -1.7471462678e-04 -8.7245784619e-03 0.0000000000e+00 -1.8176087219e-04 -8.7224428303e-03 0.0000000000e+00 -1.8927253020e-04 -8.7276415582e-03 0.0000000000e+00 -1.9646238223e-04 -8.7268224500e-03 0.0000000000e+00 -2.0399767737e-04 -8.7292019025e-03 0.0000000000e+00 -2.1134671900e-04 -8.7291987528e-03 0.0000000000e+00 -2.1892604066e-04 -8.7303860124e-03 0.0000000000e+00 -2.2643210544e-04 -8.7310670915e-03 0.0000000000e+00 -2.3408435057e-04 -8.7317560745e-03 0.0000000000e+00 -2.4171536172e-04 -8.7324308920e-03 0.0000000000e+00 -2.4946562946e-04 -8.7332553968e-03 0.0000000000e+00 -2.5720542135e-04 -8.7338816619e-03 0.0000000000e+00 -2.6504369615e-04 -8.7346882051e-03 0.0000000000e+00 -2.7286523752e-04 -8.7353005615e-03 0.0000000000e+00 -2.8077883930e-04 -8.7361400777e-03 0.0000000000e+00 -2.8862665551e-04 -8.7371444924e-03 0.0000000000e+00 -2.9657945219e-04 -8.7377521268e-03 0.0000000000e+00 -3.0426444589e-04 -8.7386466404e-03 0.0000000000e+00 -3.1302016672e-04 -8.7395862315e-03 0.0000000000e+00 -3.2023480058e-04 -8.7403655741e-03 0.0000000000e+00 -3.2879524402e-04 -8.7412912618e-03 0.0000000000e+00 -3.3648020543e-04 -8.7420679489e-03 0.0000000000e+00 -3.4545710562e-04 -8.7430443448e-03 0.0000000000e+00 -3.5285402380e-04 -8.7440040255e-03 0.0000000000e+00 -3.6241258930e-04 -8.7442834601e-03 0.0000000000e+00 -3.7083632526e-04 -8.7444191541e-03 0.0000000000e+00 -3.8015910512e-04 -8.7444499618e-03 0.0000000000e+00 -3.8918129332e-04 -8.7442883486e-03 0.0000000000e+00 -3.9850804091e-04 -8.7438869651e-03 0.0000000000e+00 -4.0770130161e-04 -8.7427684466e-03 0.0000000000e+00 -4.1699704244e-04 -8.7417200970e-03 0.0000000000e+00 -4.2624805213e-04 -8.7392455556e-03 0.0000000000e+00 -4.3548305531e-04 -8.7374467673e-03 0.0000000000e+00 -4.4510366896e-04 -8.7315595831e-03 0.0000000000e+00 -4.5458446164e-04 -8.7290396171e-03 0.0000000000e+00 -4.6791256758e-04 -8.7168047875e-03 0.0000000000e+00 -4.8284927031e-04 -8.7132071405e-03 0.0000000000e+00 -5.4105078309e-04 -8.6912257273e-03 0.0000000000e+00 -5.5131405548e-04 -8.7027631558e-03 0.0000000000e+00 -5.2718106155e-04 -8.7079548112e-03 0.0000000000e+00 -5.3589767416e-04 -8.7008322040e-03 0.0000000000e+00 -5.4419515686e-04 -8.7206562966e-03 0.0000000000e+00 -5.5617473626e-04 -8.7212640410e-03 0.0000000000e+00 -5.6724919209e-04 -8.7325724571e-03 0.0000000000e+00 -5.7835106951e-04 -8.7349646856e-03 0.0000000000e+00 -5.8898496786e-04 -8.7422138474e-03 0.0000000000e+00 -5.9906626833e-04 -8.7455430219e-03 0.0000000000e+00 -6.1128359306e-04 -8.7513976970e-03 0.0000000000e+00 -6.1975230645e-04 -8.7542748615e-03 0.0000000000e+00 -6.3435649691e-04 -8.7550565177e-03 0.0000000000e+00 -6.4410473028e-04 -8.7544689156e-03 0.0000000000e+00 -6.5689045948e-04 -8.7522169224e-03 0.0000000000e+00 -6.6771361597e-04 -8.7473606828e-03 0.0000000000e+00 -6.7980113851e-04 -8.7390935221e-03 0.0000000000e+00 -6.9773080182e-04 -8.7248543940e-03 0.0000000000e+00 -7.5506032043e-04 -8.7071520498e-03 0.0000000000e+00 -8.3622971458e-04 -8.6961539452e-03 0.0000000000e+00 -7.7510779355e-04 -8.7060657488e-03 0.0000000000e+00 -7.7924209690e-04 -8.7225180794e-03 0.0000000000e+00 -7.7933695793e-04 -8.7372623357e-03 0.0000000000e+00 -8.0861252621e-04 -8.7485182725e-03 0.0000000000e+00 -8.0541881404e-04 -8.7591776194e-03 0.0000000000e+00 -8.4121102790e-04 -8.7680621545e-03 0.0000000000e+00 -8.3020979398e-04 -8.7753197739e-03 0.0000000000e+00 -8.7288123547e-04 -8.7720700589e-03 0.0000000000e+00 -8.5106218889e-04 -8.7681659192e-03 0.0000000000e+00 -9.0820296205e-04 -8.7546976442e-03 0.0000000000e+00 -8.6918107517e-04 -8.7341690805e-03 0.0000000000e+00 -1.0532284965e-03 -8.7026462929e-03 0.0000000000e+00 -1.0586950109e-03 -8.6985103835e-03 0.0000000000e+00 -9.9683219513e-04 -8.7189807424e-03 0.0000000000e+00 -1.0000957250e-03 -8.7478944100e-03 0.0000000000e+00 -1.0125685090e-03 -8.7682862045e-03 0.0000000000e+00 -1.0463961600e-03 -8.7844124549e-03 0.0000000000e+00 -1.0490070322e-03 -8.7975625559e-03 0.0000000000e+00 -1.0721142906e-03 -8.7906610687e-03 0.0000000000e+00 -1.0881536285e-03 -8.7783437504e-03 0.0000000000e+00 -1.0763970781e-03 -8.7469995826e-03 0.0000000000e+00 -1.2979304262e-03 -8.7047512625e-03 0.0000000000e+00 -1.3045207563e-03 -8.7072814141e-03 0.0000000000e+00 -1.2028780507e-03 -8.7356965962e-03 0.0000000000e+00 -1.2133968119e-03 -8.7831816092e-03 0.0000000000e+00 -1.2638485567e-03 -8.8003577204e-03 0.0000000000e+00 -1.2544058096e-03 -8.8243178440e-03 0.0000000000e+00 -1.3000512512e-03 -8.8001906273e-03 0.0000000000e+00 -1.2626603705e-03 -8.7804393218e-03 0.0000000000e+00 -1.4947369404e-03 -8.7188510146e-03 0.0000000000e+00 -1.5831542871e-03 -8.7134723261e-03 0.0000000000e+00 -1.3997538854e-03 -8.7563830909e-03 0.0000000000e+00 -1.4631858498e-03 -8.8187010681e-03 0.0000000000e+00 -1.4541999502e-03 -8.8450185260e-03 0.0000000000e+00 -1.5090184741e-03 -8.8519896956e-03 0.0000000000e+00 -1.4883850345e-03 -8.7912018967e-03 0.0000000000e+00 -1.7355451030e-03 -8.7468957860e-03 0.0000000000e+00 -1.8457401876e-03 -8.7336520671e-03 0.0000000000e+00 -1.5987491687e-03 -8.8091319837e-03 0.0000000000e+00 -1.7085625519e-03 -8.8708904977e-03 0.0000000000e+00 -1.6857572196e-03 -8.8946677553e-03 0.0000000000e+00 -1.7357054300e-03 -8.8215501519e-03 0.0000000000e+00 -1.9862639235e-03 -8.7680366664e-03 0.0000000000e+00 -2.0924747647e-03 -8.7656783711e-03 0.0000000000e+00 -1.8755626818e-03 -8.8482610875e-03 0.0000000000e+00 -1.8774947284e-03 -8.9461951687e-03 0.0000000000e+00 -1.9652085627e-03 -8.8742802248e-03 0.0000000000e+00 -2.1968336947e-03 -8.8053297370e-03 0.0000000000e+00 -2.3713986988e-03 -8.7876249396e-03 0.0000000000e+00 -2.1987009521e-03 -8.8623653036e-03 0.0000000000e+00 -2.0293987362e-03 -9.0155013543e-03 0.0000000000e+00 -2.3799569170e-03 -8.8458923480e-03 0.0000000000e+00 -2.4545422963e-03 -8.8534157486e-03 0.0000000000e+00 -2.8213974791e-03 -8.7854785571e-03 0.0000000000e+00 -2.1570869976e-03 -9.0579433798e-03 0.0000000000e+00 -2.6452691382e-03 -8.9052337463e-03 0.0000000000e+00 -2.7227196567e-03 -8.8760333864e-03 0.0000000000e+00 -3.2601265741e-03 -8.8227436512e-03 0.0000000000e+00 -2.3061366572e-03 -9.0670155550e-03 0.0000000000e+00 -3.1028585042e-03 -8.9871922241e-03 0.0000000000e+00 -3.3960913212e-03 -8.7054429693e-03 0.0000000000e+00 -3.1013154026e-03 -9.2083197652e-03 0.0000000000e+00 -3.1377728418e-03 -8.7086593586e-03 0.0000000000e+00 -3.3082784070e-03 -9.3761928686e-03 0.0000000000e+00 -4.5993511387e-03 -8.1881992676e-03 0.0000000000e+00 -2.1008052650e-03 -9.9996439057e-03 0.0000000000e+00 -5.6616081695e-03 -7.7715682922e-03 0.0000000000e+00 -3.1460826695e-03 -9.7612869660e-03 0.0000000000e+00 -4.3700188770e-03 -8.4359949567e-03 0.0000000000e+00 -5.6212341510e-03 -8.9214157252e-03 0.0000000000e+00 -3.0244207091e-03 -9.2025531819e-03 0.0000000000e+00 -7.3533134285e-03 -8.2822617493e-03 0.0000000000e+00 -3.1791305212e-03 -9.5775339182e-03 0.0000000000e+00 -8.3059362592e-03 -7.7248219151e-03 0.0000000000e+00 -3.5290142265e-03 -1.0242316309e-02 0.0000000000e+00 -1.0265072754e-02 -6.0937070911e-03 0.0000000000e+00 -4.7830576483e-03 -1.0340051287e-02 0.0000000000e+00 -1.0580007626e-02 -4.7026801321e-03 0.0000000000e+00 -8.0149163292e-03 -9.0567486951e-03 0.0000000000e+00 -1.1695078217e-02 -2.7495628362e-03 0.0000000000e+00 -1.0218522502e-02 -3.5213164565e-03 0.0000000000e+00
        </DataArray>
      </PointData>
    </Piece>
  </PolyData>
</VTKFile>
