<?xml version="1.0"?>
<VTKFile type="PolyData" version="0.1" byte_order="LittleEndian">
  <PolyData>
    <FieldData>
      <DataArray type="Float64" Name="TimeValue" NumberOfTuples="1" format="ascii">
        1.999999999999912e+01
      </DataArray>
    </FieldData>
    <Piece NumberOfPoints="398" NumberOfVerts="398" NumberOfLines="0" NumberOfStrips="0" NumberOfPolys="0">
      <Points>
        <DataArray type="Float64" NumberOfComponents="3" format="ascii">
          -4.9726094768e-01 5.2264231634e-02 0.0000000000e+00 -4.9591980461e-01 5.7187521354e-02 0.0000000000e+00 -4.9320742903e-01 6.1518265364e-02 0.0000000000e+00 -4.8960598536e-01 6.5153650837e-02 0.0000000000e+00 -4.8548567450e-01 6.8194643038e-02 0.0000000000e+00 -4.8105786906e-01 7.0770768034e-02 0.0000000000e+00 -4.7643787966e-01 7.2985647804e-02 0.0000000000e+00 -4.7169100133e-01 7.4914697529e-02 0.0000000000e+00 -4.6685629730e-01 7.6612338955e-02 0.0000000000e+00 -4.6195841863e-01 7.8118474475e-02 0.0000000000e+00 -4.5701365804e-01 7.9463020303e-02 0.0000000000e+00 -4.5203321881e-01 8.0668916425e-02 0.0000000000e+00 -4.4702506197e-01 8.1754126178e-02 0.0000000000e+00 -4.4199500846e-01 8.2732982305e-02 0.0000000000e+00 -4.3694742522e-01 8.3617112443e-02 0.0000000000e+00 -4.3188565927e-01 8.4416090884e-02 0.0000000000e+00 -4.2681230400e-01 8.5137908709e-02 0.0000000000e+00 -4.2172941653e-01 8.5789311244e-02 0.0000000000e+00 -4.1663865062e-01 8.6376052829e-02 0.0000000000e+00 -4.1154135992e-01 8.6903088373e-02 0.0000000000e+00 -4.0643863732e-01 8.7374723845e-02 0.0000000000e+00 -4.0133140546e-01 8.7794726707e-02 0.0000000000e+00 -3.9622042424e-01 8.8166419095e-02 0.0000000000e+00 -3.9110634740e-01 8.8492747356e-02 0.0000000000e+00 -3.8598972048e-01 8.8776341615e-02 0.0000000000e+00 -3.8087100981e-01 8.9019561684e-02 0.0000000000e+00 -3.7575063504e-01 8.9224534775e-02 0.0000000000e+00 -3.7062893181e-01 8.9393189274e-02 0.0000000000e+00 -3.6550619075e-01 8.9527279365e-02 0.0000000000e+00 -3.6038270739e-01 8.9628406450e-02 0.0000000000e+00 -3.5525869773e-01 8.9698040036e-02 0.0000000000e+00 -3.5013435246e-01 8.9737531833e-02 0.0000000000e+00 -3.4500987690e-01 8.9748129328e-02 0.0000000000e+00 -3.3988541842e-01 8.9730987908e-02 0.0000000000e+00 -3.3476111444e-01 8.9687180276e-02 0.0000000000e+00 -3.2963709471e-01 8.9617705257e-02 0.0000000000e+00 -3.2451348064e-01 8.9523495400e-02 0.0000000000e+00 -3.1939034143e-01 8.9405422449e-02 0.0000000000e+00 -3.1426779881e-01 8.9264305217e-02 0.0000000000e+00 -3.0914591206e-01 8.9100912041e-02 0.0000000000e+00 -3.0402476307e-01 8.8915967270e-02 0.0000000000e+00 -2.9890440772e-01 8.8710153739e-02 0.0000000000e+00 -2.9378490850e-01 8.8484117338e-02 0.0000000000e+00 -2.8866631015e-01 8.8238469120e-02 0.0000000000e+00 -2.8354865267e-01 8.7973788508e-02 0.0000000000e+00 -2.7843198600e-01 8.7690626604e-02 0.0000000000e+00 -2.7331635766e-01 8.7389507892e-02 0.0000000000e+00 -2.6820177024e-01 8.7070929522e-02 0.0000000000e+00 -2.6308828316e-01 8.6735369256e-02 0.0000000000e+00 -2.5797588368e-01 8.6383278975e-02 0.0000000000e+00 -2.5286463554e-01 8.6015095985e-02 0.0000000000e+00 -2.4775456034e-01 8.5631236490e-02 0.0000000000e+00 -2.4264563136e-01 8.5232095683e-02 0.0000000000e+00 -2.3753787536e-01 8.4818056587e-02 0.0000000000e+00 -2.3243133189e-01 8.4389488400e-02 0.0000000000e+00 -2.2732604551e-01 8.3946746927e-02 0.0000000000e+00 -2.2222190001e-01 8.3490160448e-02 0.0000000000e+00 -2.1711899509e-01 8.3020063562e-02 0.0000000000e+00 -2.1201736213e-01 8.2536773495e-02 0.0000000000e+00 -2.0691697960e-01 8.2040591368e-02 0.0000000000e+00 -2.0181778048e-01 8.1531802906e-02 0.0000000000e+00 -1.9671983644e-01 8.1010697525e-02 0.0000000000e+00 -1.9162315737e-01 8.0477549322e-02 0.0000000000e+00 -1.8652775518e-01 7.9932623721e-02 0.0000000000e+00 -1.8143354438e-01 7.9376166968e-02 0.0000000000e+00 -1.7634058775e-01 7.8808433128e-02 0.0000000000e+00 -1.7124890276e-01 7.8229663908e-02 0.0000000000e+00 -1.6615843046e-01 7.7640084880e-02 0.0000000000e+00 -1.6106919074e-01 7.7039923480e-02 0.0000000000e+00 -1.5598117717e-01 7.6429397432e-02 0.0000000000e+00 -1.5089442149e-01 7.5808722703e-02 0.0000000000e+00 -1.4580891223e-01 7.5178103979e-02 0.0000000000e+00 -1.4072455773e-01 7.4537729809e-02 0.0000000000e+00 -1.3564143273e-01 7.3887803843e-02 0.0000000000e+00 -1.3055953602e-01 7.3228514974e-02 0.0000000000e+00 -1.2547885669e-01 7.2560045603e-02 0.0000000000e+00 -1.2039932696e-01 7.1882565420e-02 0.0000000000e+00 -1.1532097276e-01 7.1196251579e-02 0.0000000000e+00 -1.1024384833e-01 7.0501280681e-02 0.0000000000e+00 -1.0516789419e-01 6.9797809381e-02 0.0000000000e+00 -1.0009305693e-01 6.9085990467e-02 0.0000000000e+00 -9.5019385779e-02 6.8365986871e-02 0.0000000000e+00 -8.9946876275e-02 6.7637950065e-02 0.0000000000e+00 -8.4875512802e-02 6.6902025973e-02 0.0000000000e+00 -7.9805266057e-02 6.6158354627e-02 0.0000000000e+00 -7.4736119229e-02 6.5407074084e-02 0.0000000000e+00 -6.9668110663e-02 6.4648327056e-02 0.0000000000e+00 -6.4601223625e-02 6.3882244673e-02 0.0000000000e+00 -5.9535406374e-02 6.3108949253e-02 0.0000000000e+00 -5.4470657317e-02 6.2328567330e-02 0.0000000000e+00 -4.9407032488e-02 6.1541231275e-02 0.0000000000e+00 -4.4344451672e-02 6.0747049224e-02 0.0000000000e+00 -3.9282923158e-02 5.9946139943e-02 0.0000000000e+00 -3.4222445485e-02 5.9138617762e-02 0.0000000000e+00 -2.9163037454e-02 5.8324597432e-02 0.0000000000e+00 -2.4104648617e-02 5.7504179745e-02 0.0000000000e+00 -1.9047261811e-02 5.6677467985e-02 0.0000000000e+00 -1.3990893842e-02 5.5844568318e-02 0.0000000000e+00 -8.9355444057e-03 5.5005581552e-02 0.0000000000e+00 -3.8812175905e-03 5.4160606701e-02 0.0000000000e+00 1.1721998069e-03 5.3309720494e-02 0.0000000000e+00 6.2245485523e-03 5.2453043054e-02 0.0000000000e+00 1.1275943392e-02 5.1590645938e-02 0.0000000000e+00 1.6326440609e-02 5.0722607920e-02 0.0000000000e+00 2.1375943892e-02 4.9849031720e-02 0.0000000000e+00 2.6424457110e-02 4.8970000753e-02 0.0000000000e+00 3.1472011504e-02 4.8085591397e-02 0.0000000000e+00 3.6518701143e-02 4.7195866621e-02 0.0000000000e+00 4.1564441327e-02 4.6300918671e-02 0.0000000000e+00 4.6609230112e-02 4.5400823257e-02 0.0000000000e+00 5.1653173445e-02 4.4495634621e-02 0.0000000000e+00 5.6696228622e-02 4.3585431459e-02 0.0000000000e+00 6.1738361294e-02 4.2670289132e-02 0.0000000000e+00 6.6779564021e-02 4.1750276257e-02 0.0000000000e+00 7.1819899165e-02 4.0825446710e-02 0.0000000000e+00 7.6859356703e-02 3.9895865608e-02 0.0000000000e+00 8.1898008641e-02 3.8961580986e-02 0.0000000000e+00 8.6935705941e-02 3.8022680059e-02 0.0000000000e+00 9.1972611128e-02 3.7079190280e-02 0.0000000000e+00 9.7008668669e-02 3.6131177844e-02 0.0000000000e+00 1.0204386087e-01 3.5178700202e-02 0.0000000000e+00 1.0707827097e-01 3.4221793894e-02 0.0000000000e+00 1.1211171891e-01 3.3260543822e-02 0.0000000000e+00 1.1714445382e-01 3.2294951292e-02 0.0000000000e+00 1.2217637967e-01 3.1325081711e-02 0.0000000000e+00 1.2720736077e-01 3.0351006860e-02 0.0000000000e+00 1.3223761875e-01 2.9372727682e-02 0.0000000000e+00 1.3726706297e-01 2.8390303861e-02 0.0000000000e+00 1.4229572061e-01 2.7403770609e-02 0.0000000000e+00 1.4732360119e-01 2.6413164931e-02 0.0000000000e+00 1.5235059578e-01 2.5418545708e-02 0.0000000000e+00 1.5737688659e-01 2.4419912645e-02 0.0000000000e+00 1.6240234385e-01 2.3417325663e-02 0.0000000000e+00 1.6742696646e-01 2.2410817741e-02 0.0000000000e+00 1.7245085770e-01 2.1400399305e-02 0.0000000000e+00 1.7747398558e-01 2.0386106299e-02 0.0000000000e+00 1.8249635644e-01 1.9367965495e-02 0.0000000000e+00 1.8751791564e-01 1.8346014588e-02 0.0000000000e+00 1.9253867441e-01 1.7320276492e-02 0.0000000000e+00 1.9755867528e-01 1.6290766192e-02 0.0000000000e+00 2.0257793396e-01 1.5257502622e-02 0.0000000000e+00 2.0759639625e-01 1.4220517707e-02 0.0000000000e+00 2.1261408588e-01 1.3179825911e-02 0.0000000000e+00 2.1763104490e-01 1.2135436390e-02 0.0000000000e+00 2.2264726018e-01 1.1087368318e-02 0.0000000000e+00 2.2766268318e-01 1.0035646948e-02 0.0000000000e+00 2.3267726296e-01 8.9802968007e-03 0.0000000000e+00 2.3769115605e-01 7.9212972708e-03 0.0000000000e+00 2.4270427261e-01 6.8586782309e-03 0.0000000000e+00 2.4771659633e-01 5.7924527911e-03 0.0000000000e+00 2.5272819058e-01 4.7226157199e-03 0.0000000000e+00 2.5773898461e-01 3.6491890353e-03 0.0000000000e+00 2.6274907064e-01 2.5721585331e-03 0.0000000000e+00 2.6775833653e-01 1.4915525741e-03 0.0000000000e+00 2.7276680970e-01 4.0736826173e-04 0.0000000000e+00 2.7777451790e-01 -6.8039875983e-04 0.0000000000e+00 2.8278146879e-01 -1.7717498540e-03 0.0000000000e+00 2.8778759011e-01 -2.8666701914e-03 0.0000000000e+00 2.9279294031e-01 -3.9651747581e-03 0.0000000000e+00 2.9779755351e-01 -5.0672746270e-03 0.0000000000e+00 3.0280135913e-01 -6.1729590882e-03 0.0000000000e+00 3.0780438244e-01 -7.2822397704e-03 0.0000000000e+00 3.1280650594e-01 -8.3950978319e-03 0.0000000000e+00 3.1780794456e-01 -9.5115896717e-03 0.0000000000e+00 3.2280852738e-01 -1.0631687020e-02 0.0000000000e+00 3.2780825022e-01 -1.1755399878e-02 0.0000000000e+00 3.3280721108e-01 -1.2882762556e-02 0.0000000000e+00 3.3780534714e-01 -1.4013774448e-02 0.0000000000e+00 3.4280265335e-01 -1.5148449133e-02 0.0000000000e+00 3.4779915549e-01 -1.6286808434e-02 0.0000000000e+00 3.5279469994e-01 -1.7428834392e-02 0.0000000000e+00 3.5778950179e-01 -1.8574594513e-02 0.0000000000e+00 3.6278342043e-01 -1.9724076172e-02 0.0000000000e+00 3.6777640315e-01 -2.0877287849e-02 0.0000000000e+00 3.7276860129e-01 -2.2034286424e-02 0.0000000000e+00 3.7775992822e-01 -2.3195075031e-02 0.0000000000e+00 3.8275032602e-01 -2.4359664423e-02 0.0000000000e+00 3.8773987974e-01 -2.5528099898e-02 0.0000000000e+00 3.9272844614e-01 -2.6700374472e-02 0.0000000000e+00 3.9771614086e-01 -2.7876543029e-02 0.0000000000e+00 4.0270291178e-01 -2.9056622242e-02 0.0000000000e+00 4.0768869791e-01 -3.0240627667e-02 0.0000000000e+00 4.1267361642e-01 -3.1428618368e-02 0.0000000000e+00 4.1765755604e-01 -3.2620600225e-02 0.0000000000e+00 4.2264052151e-01 -3.3816607805e-02 0.0000000000e+00 4.2762255447e-01 -3.5016685743e-02 0.0000000000e+00 4.3260353408e-01 -3.6220840625e-02 0.0000000000e+00 4.3758354093e-01 -3.7429128723e-02 0.0000000000e+00 4.4256256770e-01 -3.8641586290e-02 0.0000000000e+00 4.4754046411e-01 -3.9858215695e-02 0.0000000000e+00 4.5251740906e-01 -4.1079100795e-02 0.0000000000e+00 4.5749335137e-01 -4.2304270474e-02 0.0000000000e+00 4.6246815394e-01 -4.3533733300e-02 0.0000000000e+00 4.6744192511e-01 -4.4767559442e-02 0.0000000000e+00 4.7241451575e-01 -4.6005756378e-02 0.0000000000e+00 4.7738608692e-01 -4.7248409814e-02 0.0000000000e+00 4.8235650207e-01 -4.8495532369e-02 0.0000000000e+00 4.8732575854e-01 -4.9747171040e-02 0.0000000000e+00 4.9229400251e-01 -5.1003411632e-02 0.0000000000e+00 4.9726094768e-01 -5.2264231634e-02 0.0000000000e+00 4.9214040296e-01 -5.2464813724e-02 0.0000000000e+00 4.8701953993e-01 -5.2660646441e-02 0.0000000000e+00 4.8189864333e-01 -5.2851767290e-02 0.0000000000e+00 4.7677755232e-01 -5.3038229807e-02 0.0000000000e+00 4.7165625973e-01 -5.3220080515e-02 0.0000000000e+00 4.6653489650e-01 -5.3397360149e-02 0.0000000000e+00 4.6141328729e-01 -5.3570119057e-02 0.0000000000e+00 4.5629157639e-01 -5.3738395555e-02 0.0000000000e+00 4.5116964327e-01 -5.3902235761e-02 0.0000000000e+00 4.4604762022e-01 -5.4061676551e-02 0.0000000000e+00 4.4092555131e-01 -5.4216756824e-02 0.0000000000e+00 4.3580324412e-01 -5.4367521411e-02 0.0000000000e+00 4.3068084515e-01 -5.4514003871e-02 0.0000000000e+00 4.2555835402e-01 -5.4656241187e-02 0.0000000000e+00 4.2043568020e-01 -5.4794271646e-02 0.0000000000e+00 4.1531294051e-01 -5.4928126814e-02 0.0000000000e+00 4.1019008497e-01 -5.5057841695e-02 0.0000000000e+00 4.0506710173e-01 -5.5183449112e-02 0.0000000000e+00 3.9994409843e-01 -5.5304977955e-02 0.0000000000e+00 3.9482094815e-01 -5.5422461631e-02 0.0000000000e+00 3.8969770733e-01 -5.5535928040e-02 0.0000000000e+00 3.8457442349e-01 -5.5645404327e-02 0.0000000000e+00 3.7945097209e-01 -5.5750920133e-02 0.0000000000e+00 3.7432749471e-01 -5.5852498408e-02 0.0000000000e+00 3.6920389872e-01 -5.5950165778e-02 0.0000000000e+00 3.6408023857e-01 -5.6043944803e-02 0.0000000000e+00 3.5895659830e-01 -5.6133856558e-02 0.0000000000e+00 3.5383281810e-01 -5.6219925217e-02 0.0000000000e+00 3.4870894773e-01 -5.6302170032e-02 0.0000000000e+00 3.4358512736e-01 -5.6380607890e-02 0.0000000000e+00 3.3846113257e-01 -5.6455260100e-02 0.0000000000e+00 3.3333711736e-01 -5.6526141037e-02 0.0000000000e+00 3.2821305197e-01 -5.6593266688e-02 0.0000000000e+00 3.2308893851e-01 -5.6656651381e-02 0.0000000000e+00 3.1796483857e-01 -5.6716307587e-02 0.0000000000e+00 3.1284064916e-01 -5.6772248492e-02 0.0000000000e+00 3.0771637227e-01 -5.6824484747e-02 0.0000000000e+00 3.0259218097e-01 -5.6873024235e-02 0.0000000000e+00 2.9746785329e-01 -5.6917877437e-02 0.0000000000e+00 2.9234350810e-01 -5.6959050352e-02 0.0000000000e+00 2.8721911827e-01 -5.6996549104e-02 0.0000000000e+00 2.8209475503e-01 -5.7030377886e-02 0.0000000000e+00 2.7697038274e-01 -5.7060540439e-02 0.0000000000e+00 2.7184594108e-01 -5.7087039267e-02 0.0000000000e+00 2.6672150384e-01 -5.7109874891e-02 0.0000000000e+00 2.6159706323e-01 -5.7129047050e-02 0.0000000000e+00 2.5647259122e-01 -5.7144554236e-02 0.0000000000e+00 2.5134806035e-01 -5.7156393579e-02 0.0000000000e+00 2.4622358623e-01 -5.7164560656e-02 0.0000000000e+00 2.4109907571e-01 -5.7169050186e-02 0.0000000000e+00 2.3597460255e-01 -5.7169855343e-02 0.0000000000e+00 2.3085010370e-01 -5.7166968068e-02 0.0000000000e+00 2.2572559782e-01 -5.7160378926e-02 0.0000000000e+00 2.2060117901e-01 -5.7150077380e-02 0.0000000000e+00 2.1547668986e-01 -5.7136051039e-02 0.0000000000e+00 2.1035218532e-01 -5.7118286508e-02 0.0000000000e+00 2.0522771809e-01 -5.7096769179e-02 0.0000000000e+00 2.0010330503e-01 -5.7071483028e-02 0.0000000000e+00 1.9497890690e-01 -5.7042410356e-02 0.0000000000e+00 1.8985450348e-01 -5.7009532077e-02 0.0000000000e+00 1.8473015445e-01 -5.6972828238e-02 0.0000000000e+00 1.7960584836e-01 -5.6932277051e-02 0.0000000000e+00 1.7448154674e-01 -5.6887855015e-02 0.0000000000e+00 1.6935724336e-01 -5.6839537383e-02 0.0000000000e+00 1.6423299950e-01 -5.6787298642e-02 0.0000000000e+00 1.5910881454e-01 -5.6731111290e-02 0.0000000000e+00 1.5398472721e-01 -5.6670946815e-02 0.0000000000e+00 1.4886063870e-01 -5.6606773550e-02 0.0000000000e+00 1.4373655692e-01 -5.6538559464e-02 0.0000000000e+00 1.3861262126e-01 -5.6466272926e-02 0.0000000000e+00 1.3348865342e-01 -5.6389876340e-02 0.0000000000e+00 1.2836477223e-01 -5.6309334762e-02 0.0000000000e+00 1.2324097603e-01 -5.6224610014e-02 0.0000000000e+00 1.1811724558e-01 -5.6135662002e-02 0.0000000000e+00 1.1299368194e-01 -5.6042451195e-02 0.0000000000e+00 1.0787006851e-01 -5.5944930586e-02 0.0000000000e+00 1.0274655297e-01 -5.5843058179e-02 0.0000000000e+00 9.7623242809e-02 -5.5736789958e-02 0.0000000000e+00 9.2499894644e-02 -5.5626072852e-02 0.0000000000e+00 8.7376702232e-02 -5.5510861246e-02 0.0000000000e+00 8.2253591763e-02 -5.5391102098e-02 0.0000000000e+00 7.7130592483e-02 -5.5266742888e-02 0.0000000000e+00 7.2007772477e-02 -5.5137730413e-02 0.0000000000e+00 6.6884978478e-02 -5.5004004031e-02 0.0000000000e+00 6.1762374400e-02 -5.4865509418e-02 0.0000000000e+00 5.6639899797e-02 -5.4722184619e-02 0.0000000000e+00 5.1517578012e-02 -5.4573968022e-02 0.0000000000e+00 4.6395359247e-02 -5.4420793964e-02 0.0000000000e+00 4.1273265047e-02 -5.4262596875e-02 0.0000000000e+00 3.6151344678e-02 -5.4099310180e-02 0.0000000000e+00 3.1029656272e-02 -5.3930865784e-02 0.0000000000e+00 2.5908107476e-02 -5.3757188601e-02 0.0000000000e+00 2.0786715931e-02 -5.3578204980e-02 0.0000000000e+00 1.5665583667e-02 -5.3393842301e-02 0.0000000000e+00 1.0544631760e-02 -5.3204019413e-02 0.0000000000e+00 5.4238455346e-03 -5.3008655112e-02 0.0000000000e+00 3.0323854710e-04 -5.2807667001e-02 0.0000000000e+00 -4.8170736379e-03 -5.2600974629e-02 0.0000000000e+00 -9.9371296962e-03 -5.2388489241e-02 0.0000000000e+00 -1.5057026989e-02 -5.2170116987e-02 0.0000000000e+00 -2.0176584787e-02 -5.1945773477e-02 0.0000000000e+00 -2.5295897865e-02 -5.1715360119e-02 0.0000000000e+00 -3.0414941641e-02 -5.1478780917e-02 0.0000000000e+00 -3.5533695451e-02 -5.1235937199e-02 0.0000000000e+00 -4.0652120784e-02 -5.0986728615e-02 0.0000000000e+00 -4.5770212954e-02 -5.0731050570e-02 0.0000000000e+00 -5.0888000350e-02 -5.0468793984e-02 0.0000000000e+00 -5.6005440725e-02 -5.0199850525e-02 0.0000000000e+00 -6.1122511737e-02 -4.9924108055e-02 0.0000000000e+00 -6.6239180585e-02 -4.9641452129e-02 0.0000000000e+00 -7.1355503248e-02 -4.9351760294e-02 0.0000000000e+00 -7.6471397397e-02 -4.9054914724e-02 0.0000000000e+00 -8.1586838279e-02 -4.8750791317e-02 0.0000000000e+00 -8.6701851077e-02 -4.8439259672e-02 0.0000000000e+00 -9.1816424892e-02 -4.8120188045e-02 0.0000000000e+00 -9.6930492547e-02 -4.7793444814e-02 0.0000000000e+00 -1.0204404178e-01 -4.7458891444e-02 0.0000000000e+00 -1.0715707215e-01 -4.7116384871e-02 0.0000000000e+00 -1.1226956858e-01 -4.6765779115e-02 0.0000000000e+00 -1.1738150394e-01 -4.6406925081e-02 0.0000000000e+00 -1.2249279621e-01 -4.6039673639e-02 0.0000000000e+00 -1.2760346587e-01 -4.5663864229e-02 0.0000000000e+00 -1.3271353851e-01 -4.5279331259e-02 0.0000000000e+00 -1.3782292438e-01 -4.4885913259e-02 0.0000000000e+00 -1.4293156128e-01 -4.4483442340e-02 0.0000000000e+00 -1.4803948021e-01 -4.4071738429e-02 0.0000000000e+00 -1.5314665394e-01 -4.3650620840e-02 0.0000000000e+00 -1.5825304438e-01 -4.3219904557e-02 0.0000000000e+00 -1.6335853606e-01 -4.2779405918e-02 0.0000000000e+00 -1.6846317945e-01 -4.2328921443e-02 0.0000000000e+00 -1.7356694323e-01 -4.1868248527e-02 0.0000000000e+00 -1.7866975142e-01 -4.1397182525e-02 0.0000000000e+00 -1.8377156506e-01 -4.0915509135e-02 0.0000000000e+00 -1.8887231740e-01 -4.0423010023e-02 0.0000000000e+00 -1.9397201921e-01 -3.9919452293e-02 0.0000000000e+00 -1.9907060315e-01 -3.9404603149e-02 0.0000000000e+00 -2.0416795498e-01 -3.8878227134e-02 0.0000000000e+00 -2.0926410713e-01 -3.8340065606e-02 0.0000000000e+00 -2.1435899276e-01 -3.7789861420e-02 0.0000000000e+00 -2.1945254522e-01 -3.7227348521e-02 0.0000000000e+00 -2.2454463421e-01 -3.6652258723e-02 0.0000000000e+00 -2.2963526591e-01 -3.6064298608e-02 0.0000000000e+00 -2.3472439875e-01 -3.5463169159e-02 0.0000000000e+00 -2.3981193609e-01 -3.4848566607e-02 0.0000000000e+00 -2.4489771085e-01 -3.4220184393e-02 0.0000000000e+00 -2.4998176842e-01 -3.3577677250e-02 0.0000000000e+00 -2.5506399126e-01 -3.2920706413e-02 0.0000000000e+00 -2.6014426393e-01 -3.2248918972e-02 0.0000000000e+00 -2.6522248061e-01 -3.1561945841e-02 0.0000000000e+00 -2.7029858526e-01 -3.0859394906e-02 0.0000000000e+00 -2.7537247023e-01 -3.0140863550e-02 0.0000000000e+00 -2.8044398225e-01 -2.9405937276e-02 0.0000000000e+00 -2.8551303983e-01 -2.8654171425e-02 0.0000000000e+00 -2.9057948552e-01 -2.7885111033e-02 0.0000000000e+00 -2.9564321341e-01 -2.7098270352e-02 0.0000000000e+00 -3.0070406800e-01 -2.6293146236e-02 0.0000000000e+00 -3.0576188583e-01 -2.5469210014e-02 0.0000000000e+00 -3.1081650731e-01 -2.4625903240e-02 0.0000000000e+00 -3.1586776165e-01 -2.3762637513e-02 0.0000000000e+00 -3.2091545343e-01 -2.2878794051e-02 0.0000000000e+00 -3.2595938602e-01 -2.1973716558e-02 0.0000000000e+00 -3.3099932872e-01 -2.1046713543e-02 0.0000000000e+00 -3.3603506379e-01 -2.0097045782e-02 0.0000000000e+00 -3.4106630193e-01 -1.9123937664e-02 0.0000000000e+00 -3.4609279420e-01 -1.8126550881e-02 0.0000000000e+00 -3.5111422796e-01 -1.7103998506e-02 0.0000000000e+00 -3.5613026864e-01 -1.6055330517e-02 0.0000000000e+00 -3.6114055876e-01 -1.4979526225e-02 0.0000000000e+00 -3.6614471400e-01 -1.3875486128e-02 0.0000000000e+00 -3.7114227411e-01 -1.2742032692e-02 0.0000000000e+00 -3.7613277157e-01 -1.1577883387e-02 0.0000000000e+00 -3.8111568954e-01 -1.0381645731e-02 0.0000000000e+00 -3.8609040603e-01 -9.1518147596e-03 0.0000000000e+00 -3.9105627202e-01 -7.8867350466e-03 0.0000000000e+00 -3.9601255828e-01 -6.5845901298e-03 0.0000000000e+00 -4.0095841207e-01 -5.2433865304e-03 0.0000000000e+00 -4.0589288660e-01 -3.8609129621e-03 0.0000000000e+00 -4.1081490142e-01 -2.4347101989e-03 0.0000000000e+00 -4.1572320451e-01 -9.6203219494e-04 0.0000000000e+00 -4.2061636185e-01 5.6021259395e-04 0.0000000000e+00 -4.2549268766e-01 2.1355174736e-03 0.0000000000e+00 -4.3035021769e-01 3.7678670960e-03 0.0000000000e+00 -4.3518659767e-01 5.4618266507e-03 0.0000000000e+00 -4.3999901359e-01 7.2226808961e-03 0.0000000000e+00 -4.4478405085e-01 9.0566000589e-03 0.0000000000e+00 -4.4953751130e-01 1.0970861400e-02 0.0000000000e+00 -4.5425413044e-01 1.2974134101e-02 0.0000000000e+00 -4.5892721924e-01 1.5076883774e-02 0.0000000000e+00 -4.6354810402e-01 1.7291919714e-02 0.0000000000e+00 -4.6810526293e-01 1.9635157524e-02 0.0000000000e+00 -4.7258296803e-01 2.2126706606e-02 0.0000000000e+00 -4.7695906267e-01 2.4792441981e-02 0.0000000000e+00 -4.8120113833e-01 2.7666268843e-02 0.0000000000e+00 -4.8525967047e-01 3.0793297982e-02 0.0000000000e+00 -4.8905511125e-01 3.4233720983e-02 0.0000000000e+00 -4.9245312560e-01 3.8064921006e-02 0.0000000000e+00 -4.9522002994e-01 4.2369646827e-02 0.0000000000e+00 -4.9697272129e-01 4.7169688282e-02 0.0000000000e+00
        </DataArray>
      </Points>
      <Verts>
        <DataArray type="Int64" Name="connectivity" format="ascii">
          0 1 2 3 4 5 6 7 8 9 10 11 12 13 14 15 16 17 18 19 20 21 22 23 24 25 26 27 28 29 30 31 32 33 34 35 36 37 38 39 40 41 42 43 44 45 46 47 48 49 50 51 52 53 54 55 56 57 58 59 60 61 62 63 64 65 66 67 68 69 70 71 72 73 74 75 76 77 78 79 80 81 82 83 84 85 86 87 88 89 90 91 92 93 94 95 96 97 98 99 100 101 102 103 104 105 106 107 108 109 110 111 112 113 114 115 116 117 118 119 120 121 122 123 124 125 126 127 128 129 130 131 132 133 134 135 136 137 138 139 140 141 142 143 144 145 146 147 148 149 150 151 152 153 154 155 156 157 158 159 160 161 162 163 164 165 166 167 168 169 170 171 172 173 174 175 176 177 178 179 180 181 182 183 184 185 186 187 188 189 190 191 192 193 194 195 196 197 198 199 200 201 202 203 204 205 206 207 208 209 210 211 212 213 214 215 216 217 218 219 220 221 222 223 224 225 226 227 228 229 230 231 232 233 234 235 236 237 238 239 240 241 242 243 244 245 246 247 248 249 250 251 252 253 254 255 256 257 258 259 260 261 262 263 264 265 266 267 268 269 270 271 272 273 274 275 276 277 278 279 280 281 282 283 284 285 286 287 288 289 290 291 292 293 294 295 296 297 298 299 300 301 302 303 304 305 306 307 308 309 310 311 312 313 314 315 316 317 318 319 320 321 322 323 324 325 326 327 328 329 330 331 332 333 334 335 336 337 338 339 340 341 342 343 344 345 346 347 348 349 350 351 352 353 354 355 356 357 358 359 360 361 362 363 364 365 366 367 368 369 370 371 372 373 374 375 376 377 378 379 380 381 382 383 384 385 386 387 388 389 390 391 392 393 394 395 396 397
        </DataArray>
        <DataArray type="Int64" Name="offsets" format="ascii">
          1 2 3 4 5 6 7 8 9 10 11 12 13 14 15 16 17 18 19 20 21 22 23 24 25 26 27 28 29 30 31 32 33 34 35 36 37 38 39 40 41 42 43 44 45 46 47 48 49 50 51 52 53 54 55 56 57 58 59 60 61 62 63 64 65 66 67 68 69 70 71 72 73 74 75 76 77 78 79 80 81 82 83 84 85 86 87 88 89 90 91 92 93 94 95 96 97 98 99 100 101 102 103 104 105 106 107 108 109 110 111 112 113 114 115 116 117 118 119 120 121 122 123 124 125 126 127 128 129 130 131 132 133 134 135 136 137 138 139 140 141 142 143 144 145 146 147 148 149 150 151 152 153 154 155 156 157 158 159 160 161 162 163 164 165 166 167 168 169 170 171 172 173 174 175 176 177 178 179 180 181 182 183 184 185 186 187 188 189 190 191 192 193 194 195 196 197 198 199 200 201 202 203 204 205 206 207 208 209 210 211 212 213 214 215 216 217 218 219 220 221 222 223 224 225 226 227 228 229 230 231 232 233 234 235 236 237 238 239 240 241 242 243 244 245 246 247 248 249 250 251 252 253 254 255 256 257 258 259 260 261 262 263 264 265 266 267 268 269 270 271 272 273 274 275 276 277 278 279 280 281 282 283 284 285 286 287 288 289 290 291 292 293 294 295 296 297 298 299 300 301 302 303 304 305 306 307 308 309 310 311 312 313 314 315 316 317 318 319 320 321 322 323 324 325 326 327 328 329 330 331 332 333 334 335 336 337 338 339 340 341 342 343 344 345 346 347 348 349 350 351 352 353 354 355 356 357 358 359 360 361 362 363 364 365 366 367 368 369 370 371 372 373 374 375 376 377 378 379 380 381 382 383 384 385 386 387 388 389 390 391 392 393 394 395 396 397 398
        </DataArray>
      </Verts>
      <PointData>
        <DataArray type="Float64" Name="velocity" NumberOfComponents="3" format="ascii">
          0.0000000000e+00 0.0000000000e+00 0.0000000000e+00 0.0000000000e+00 0.0000000000e+00 0.0000000000e+00 0.0000000000e+00 0.0000000000e+00 0.0000000000e+00 0.0000000000e+00 0.0000000000e+00 0.0000000000e+00 0.0000000000e+00 0.0000000000e+00 0.0000000000e+00 0.0000000000e+00 0.0000000000e+00 0.0000000000e+00 0.0000000000e+00 0.0000000000e+00 0.0000000000e+00 0.0000000000e+00 0.0000000000e+00 0.0000000000e+00 0.0000000000e+00 0.0000000000e+00 0.0000000000e+00 0.0000000000e+00 0.0000000000e+00 0.0000000000e+00 0.0000000000e+00 0.0000000000e+00 0.0000000000e+00 0.0000000000e+00 0.0000000000e+00 0.0000000000e+00 0.0000000000e+00 0.0000000000e+00 0.0000000000e+00 0.0000000000e+00 0.0000000000e+00 0.0000000000e+00 0.0000000000e+00 0.0000000000e+00 0.0000000000e+00 0.0000000000e+00 0.0000000000e+00 0.0000000000e+00 0.0000000000e+00 0.0000000000e+00 0.0000000000e+00 0.0000000000e+00 0.0000000000e+00 0.0000000000e+00 0.0000000000e+00 0.0000000000e+00 0.0000000000e+00 0.0000000000e+00 0.0000000000e+00 0.0000000000e+00 0.0000000000e+00 0.0000000000e+00 0.0000000000e+00 0.0000000000e+00 0.0000000000e+00 0.0000000000e+00 0.0000000000e+00 0.0000000000e+00 0.0000000000e+00 0.0000000000e+00 0.0000000000e+00 0.0000000000e+00 0.0000000000e+00 0.0000000000e+00 0.0000000000e+00 0.0000000000e+00 0.0000000000e+00 0.0000000000e+00 0.0000000000e+00 0.0000000000e+00 0.0000000000e+00 0.0000000000e+00 0.0000000000e+00 0.0000000000e+00 0.0000000000e+00 0.0000000000e+00 0.0000000000e+00 0.0000000000e+00 0.0000000000e+00 0.0000000000e+00 0.0000000000e+00 0.0000000000e+00 0.0000000000e+00 0.0000000000e+00 0.0000000000e+00 0.0000000000e+00 0.0000000000e+00 0.0000000000e+00 0.0000000000e+00 0.0000000000e+00 0.0000000000e+00 0.0000000000e+00 0.0000000000e+00 0.0000000000e+00 0.0000000000e+00 0.0000000000e+00 0.0000000000e+00 0.0000000000e+00 0.0000000000e+00 0.0000000000e+00 0.0000000000e+00 0.0000000000e+00 0.0000000000e+00 0.0000000000e+00 0.0000000000e+00 0.0000000000e+00 0.0000000000e+00 0.0000000000e+00 0.0000000000e+00 0.0000000000e+00 0.0000000000e+00 0.0000000000e+00 0.0000000000e+00 0.0000000000e+00 0.0000000000e+00 0.0000000000e+00 0.0000000000e+00 0.0000000000e+00 0.0000000000e+00 0.0000000000e+00 0.0000000000e+00 0.0000000000e+00 0.0000000000e+00 0.0000000000e+00 0.0000000000e+00 0.0000000000e+00 0.0000000000e+00 0.0000000000e+00 0.0000000000e+00 0.0000000000e+00 0.0000000000e+00 0.0000000000e+00 0.0000000000e+00 0.0000000000e+00 0.0000000000e+00 0.0000000000e+00 0.0000000000e+00 0.0000000000e+00 0.0000000000e+00 0.0000000000e+00 0.0000000000e+00 0.0000000000e+00 0.0000000000e+00 0.0000000000e+00 0.0000000000e+00 0.0000000000e+00 0.0000000000e+00 0.0000000000e+00 0.0000000000e+00 0.0000000000e+00 0.0000000000e+00 0.0000000000e+00 0.0000000000e+00 0.0000000000e+00 0.0000000000e+00 0.0000000000e+00 0.0000000000e+00 0.0000000000e+00 0.0000000000e+00 0.0000000000e+00 0.0000000000e+00 0.0000000000e+00 0.0000000000e+00 0.0000000000e+00 0.0000000000e+00 0.0000000000e+00 0.0000000000e+00 0.0000000000e+00 0.0000000000e+00 0.0000000000e+00 0.0000000000e+00 0.0000000000e+00 0.0000000000e+00 0.0000000000e+00 0.0000000000e+00 0.0000000000e+00 0.0000000000e+00 0.0000000000e+00 0.0000000000e+00 0.0000000000e+00 0.0000000000e+00 0.0000000000e+00 0.0000000000e+00 0.0000000000e+00 0.0000000000e+00 0.0000000000e+00 0.0000000000e+00 0.0000000000e+00 0.0000000000e+00 0.0000000000e+00 0.0000000000e+00 0.0000000000e+00 0.0000000000e+00 0.0000000000e+00 0.0000000000e+00 0.0000000000e+00 0.0000000000e+00 0.0000000000e+00 0.0000000000e+00 0.0000000000e+00 0.0000000000e+00 0.0000000000e+00 0.0000000000e+00 0.0000000000e+00 0.0000000000e+00 0.0000000000e+00 0.0000000000e+00 0.0000000000e+00 0.0000000000e+00 0.0000000000e+00 0.0000000000e+00 0.0000000000e+00 0.0000000000e+00 0.0000000000e+00 0.0000000000e+00 0.0000000000e+00 0.0000000000e+00 0.0000000000e+00 0.0000000000e+00 0.0000000000e+00 0.0000000000e+00 0.0000000000e+00 0.0000000000e+00 0.0000000000e+00 0.0000000000e+00 0.0000000000e+00 0.0000000000e+00 0.0000000000e+00 0.0000000000e+00 0.0000000000e+00 0.0000000000e+00 0.0000000000e+00 0.0000000000e+00 0.0000000000e+00 0.0000000000e+00 0.0000000000e+00 0.0000000000e+00 0.0000000000e+00 0.0000000000e+00 0.0000000000e+00 0.0000000000e+00 0.0000000000e+00 0.0000000000e+00 0.0000000000e+00 0.0000000000e+00 0.0000000000e+00 0.0000000000e+00 0.0000000000e+00 0.0000000000e+00 0.0000000000e+00 0.0000000000e+00 0.0000000000e+00 0.0000000000e+00 0.0000000000e+00 0.0000000000e+00 0.0000000000e+00 0.0000000000e+00 0.0000000000e+00 0.0000000000e+00 0.0000000000e+00 0.0000000000e+00 0.0000000000e+00 0.0000000000e+00 0.0000000000e+00 0.0000000000e+00 0.0000000000e+00 0.0000000000e+00 0.0000000000e+00 0.0000000000e+00 0.0000000000e+00 0.0000000000e+00 0.0000000000e+00 0.0000000000e+00 0.0000000000e+00 0.0000000000e+00 0.0000000000e+00 0.0000000000e+00 0.0000000000e+00 0.0000000000e+00 0.0000000000e+00 0.0000000000e+00 0.0000000000e+00 0.0000000000e+00 0.0000000000e+00 0.0000000000e+00 0.0000000000e+00 0.0000000000e+00 0.0000000000e+00 0.0000000000e+00 0.0000000000e+00 0.0000000000e+00 0.0000000000e+00 0.0000000000e+00 0.0000000000e+00 0.0000000000e+00 0.0000000000e+00 0.0000000000e+00 0.0000000000e+00 0.0000000000e+00 0.0000000000e+00 0.0000000000e+00 0.0000000000e+00 0.0000000000e+00 0.0000000000e+00 0.0000000000e+00 0.0000000000e+00 0.0000000000e+00 0.0000000000e+00 0.0000000000e+00 0.0000000000e+00 0.0000000000e+00 0.0000000000e+00 0.0000000000e+00 0.0000000000e+00 0.0000000000e+00 0.0000000000e+00 0.0000000000e+00 0.0000000000e+00 0.0000000000e+00 0.0000000000e+00 0.0000000000e+00 0.0000000000e+00 0.0000000000e+00 0.0000000000e+00 0.0000000000e+00 0.0000000000e+00 0.0000000000e+00 0.0000000000e+00 0.0000000000e+00 0.0000000000e+00 0.0000000000e+00 0.0000000000e+00 0.0000000000e+00 0.0000000000e+00 0.0000000000e+00 0.0000000000e+00 0.0000000000e+00 0.0000000000e+00 0.0000000000e+00 0.0000000000e+00 0.0000000000e+00 0.0000000000e+00 0.0000000000e+00 0.0000000000e+00 0.0000000000e+00 0.0000000000e+00 0.0000000000e+00 0.0000000000e+00 0.0000000000e+00 0.0000000000e+00 0.0000000000e+00 0.0000000000e+00 0.0000000000e+00 0.0000000000e+00 0.0000000000e+00 0.0000000000e+00 0.0000000000e+00 0.0000000000e+00 0.0000000000e+00 0.0000000000e+00 0.0000000000e+00 0.0000000000e+00 0.0000000000e+00 0.0000000000e+00 0.0000000000e+00 0.0000000000e+00 0.0000000000e+00 0.0000000000e+00 0.0000000000e+00 0.0000000000e+00 0.0000000000e+00 0.0000000000e+00 0.0000000000e+00 0.0000000000e+00 0.0000000000e+00 0.0000000000e+00 0.0000000000e+00 0.0000000000e+00 0.0000000000e+00 0.0000000000e+00 0.0000000000e+00 0.0000000000e+00 0.0000000000e+00 0.0000000000e+00 0.0000000000e+00 0.0000000000e+00 0.0000000000e+00 0.0000000000e+00 0.0000000000e+00 0.0000000000e+00 0.0000000000e+00 0.0000000000e+00 0.0000000000e+00 0.0000000000e+00 0.0000000000e+00 0.0000000000e+00 0.0000000000e+00 0.0000000000e+00 0.0000000000e+00 0.0000000000e+00 0.0000000000e+00 0.0000000000e+00 0.0000000000e+00 0.0000000000e+00 0.0000000000e+00 0.0000000000e+00 0.0000000000e+00 0.0000000000e+00 0.0000000000e+00 0.0000000000e+00 0.0000000000e+00 0.0000000000e+00 0.0000000000e+00 0.0000000000e+00 0.0000000000e+00 0.0000000000e+00 0.0000000000e+00 0.0000000000e+00 0.0000000000e+00 0.0000000000e+00 0.0000000000e+00 0.0000000000e+00 0.0000000000e+00 0.0000000000e+00 0.0000000000e+00 0.0000000000e+00 0.0000000000e+00 0.0000000000e+00 0.0000000000e+00 0.0000000000e+00 0.0000000000e+00 0.0000000000e+00 0.0000000000e+00 0.0000000000e+00 0.0000000000e+00 0.0000000000e+00 0.0000000000e+00 0.0000000000e+00 0.0000000000e+00 0.0000000000e+00 0.0000000000e+00 0.0000000000e+00 0.0000000000e+00 0.0000000000e+00 0.0000000000e+00 0.0000000000e+00 0.0000000000e+00 0.0000000000e+00 0.0000000000e+00 0.0000000000e+00 0.0000000000e+00 0.0000000000e+00 0.0000000000e+00 0.0000000000e+00 0.0000000000e+00 0.0000000000e+00 0.0000000000e+00 0.0000000000e+00 0.0000000000e+00 0.0000000000e+00 0.0000000000e+00 0.0000000000e+00 0.0000000000e+00 0.0000000000e+00 0.0000000000e+00 0.0000000000e+00 0.0000000000e+00 0.0000000000e+00 0.0000000000e+00 0.0000000000e+00 0.0000000000e+00 0.0000000000e+00 0.0000000000e+00 0.0000000000e+00 0.0000000000e+00 0.0000000000e+00 0.0000000000e+00 0.0000000000e+00 0.0000000000e+00 0.0000000000e+00 0.0000000000e+00 0.0000000000e+00 0.0000000000e+00 0.0000000000e+00 0.0000000000e+00 0.0000000000e+00 0.0000000000e+00 0.0000000000e+00 0.0000000000e+00 0.0000000000e+00 0.0000000000e+00 0.0000000000e+00 0.0000000000e+00 0.0000000000e+00 0.0000000000e+00 0.0000000000e+00 0.0000000000e+00 0.0000000000e+00 0.0000000000e+00 0.0000000000e+00 0.0000000000e+00 0.0000000000e+00 0.0000000000e+00 0.0000000000e+00 0.0000000000e+00 0.0000000000e+00 0.0000000000e+00 0.0000000000e+00 0.0000000000e+00 0.0000000000e+00 0.0000000000e+00 0.0000000000e+00 0.0000000000e+00 0.0000000000e+00 0.0000000000e+00 0.0000000000e+00 0.0000000000e+00 0.0000000000e+00 0.0000000000e+00 0.0000000000e+00 0.0000000000e+00 0.0000000000e+00 0.0000000000e+00 0.0000000000e+00 0.0000000000e+00 0.0000000000e+00 0.0000000000e+00 0.0000000000e+00 0.0000000000e+00 0.0000000000e+00 0.0000000000e+00 0.0000000000e+00 0.0000000000e+00 0.0000000000e+00 0.0000000000e+00 0.0000000000e+00 0.0000000000e+00 0.0000000000e+00 0.0000000000e+00 0.0000000000e+00 0.0000000000e+00 0.0000000000e+00 0.0000000000e+00 0.0000000000e+00 0.0000000000e+00 0.0000000000e+00 0.0000000000e+00 0.0000000000e+00 0.0000000000e+00 0.0000000000e+00 0.0000000000e+00 0.0000000000e+00 0.0000000000e+00 0.0000000000e+00 0.0000000000e+00 0.0000000000e+00 0.0000000000e+00 0.0000000000e+00 0.0000000000e+00 0.0000000000e+00 0.0000000000e+00 0.0000000000e+00 0.0000000000e+00 0.0000000000e+00 0.0000000000e+00 0.0000000000e+00 0.0000000000e+00 0.0000000000e+00 0.0000000000e+00 0.0000000000e+00 0.0000000000e+00 0.0000000000e+00 0.0000000000e+00 0.0000000000e+00 0.0000000000e+00 0.0000000000e+00 0.0000000000e+00 0.0000000000e+00 0.0000000000e+00 0.0000000000e+00 0.0000000000e+00 0.0000000000e+00 0.0000000000e+00 0.0000000000e+00 0.0000000000e+00 0.0000000000e+00 0.0000000000e+00 0.0000000000e+00 0.0000000000e+00 0.0000000000e+00 0.0000000000e+00 0.0000000000e+00 0.0000000000e+00 0.0000000000e+00 0.0000000000e+00 0.0000000000e+00 0.0000000000e+00 0.0000000000e+00 0.0000000000e+00 0.0000000000e+00 0.0000000000e+00 0.0000000000e+00 0.0000000000e+00 0.0000000000e+00 0.0000000000e+00 0.0000000000e+00 0.0000000000e+00 0.0000000000e+00 0.0000000000e+00 0.0000000000e+00 0.0000000000e+00 0.0000000000e+00 0.0000000000e+00 0.0000000000e+00 0.0000000000e+00 0.0000000000e+00 0.0000000000e+00 0.0000000000e+00 0.0000000000e+00 0.0000000000e+00 0.0000000000e+00 0.0000000000e+00 0.0000000000e+00 0.0000000000e+00 0.0000000000e+00 0.0000000000e+00 0.0000000000e+00 0.0000000000e+00 0.0000000000e+00 0.0000000000e+00 0.0000000000e+00 0.0000000000e+00 0.0000000000e+00 0.0000000000e+00 0.0000000000e+00 0.0000000000e+00 0.0000000000e+00 0.0000000000e+00 0.0000000000e+00 0.0000000000e+00 0.0000000000e+00 0.0000000000e+00 0.0000000000e+00 0.0000000000e+00 0.0000000000e+00 0.0000000000e+00 0.0000000000e+00 0.0000000000e+00 0.0000000000e+00 0.0000000000e+00 0.0000000000e+00 0.0000000000e+00 0.0000000000e+00 0.0000000000e+00 0.0000000000e+00 0.0000000000e+00 0.0000000000e+00 0.0000000000e+00 0.0000000000e+00 0.0000000000e+00 0.0000000000e+00 0.0000000000e+00 0.0000000000e+00 0.0000000000e+00 0.0000000000e+00 0.0000000000e+00 0.0000000000e+00 0.0000000000e+00 0.0000000000e+00 0.0000000000e+00 0.0000000000e+00 0.0000000000e+00 0.0000000000e+00 0.0000000000e+00 0.0000000000e+00 0.0000000000e+00 0.0000000000e+00 0.0000000000e+00 0.0000000000e+00 0.0000000000e+00 0.0000000000e+00 0.0000000000e+00 0.0000000000e+00 0.0000000000e+00 0.0000000000e+00 0.0000000000e+00 0.0000000000e+00 0.0000000000e+00 0.0000000000e+00 0.0000000000e+00 0.0000000000e+00 0.0000000000e+00 0.0000000000e+00 0.0000000000e+00 0.0000000000e+00 0.0000000000e+00 0.0000000000e+00 0.0000000000e+00 0.0000000000e+00 0.0000000000e+00 0.0000000000e+00 0.0000000000e+00 0.0000000000e+00 0.0000000000e+00 0.0000000000e+00 0.0000000000e+00 0.0000000000e+00 0.0000000000e+00 0.0000000000e+00 0.0000000000e+00 0.0000000000e+00 0.0000000000e+00 0.0000000000e+00 0.0000000000e+00 0.0000000000e+00 0.0000000000e+00 0.0000000000e+00 0.0000000000e+00 0.0000000000e+00 0.0000000000e+00 0.0000000000e+00 0.0000000000e+00 0.0000000000e+00 0.0000000000e+00 0.0000000000e+00 0.0000000000e+00 0.0000000000e+00 0.0000000000e+00 0.0000000000e+00 0.0000000000e+00 0.0000000000e+00 0.0000000000e+00 0.0000000000e+00 0.0000000000e+00 0.0000000000e+00 0.0000000000e+00 0.0000000000e+00 0.0000000000e+00 0.0000000000e+00 0.0000000000e+00 0.0000000000e+00 0.0000000000e+00 0.0000000000e+00 0.0000000000e+00 0.0000000000e+00 0.0000000000e+00 0.0000000000e+00 0.0000000000e+00 0.0000000000e+00 0.0000000000e+00 0.0000000000e+00 0.0000000000e+00 0.0000000000e+00 0.0000000000e+00 0.0000000000e+00 0.0000000000e+00 0.0000000000e+00 0.0000000000e+00 0.0000000000e+00 0.0000000000e+00 0.0000000000e+00 0.0000000000e+00 0.0000000000e+00 0.0000000000e+00 0.0000000000e+00 0.0000000000e+00 0.0000000000e+00 0.0000000000e+00 0.0000000000e+00 0.0000000000e+00 0.0000000000e+00 0.0000000000e+00 0.0000000000e+00 0.0000000000e+00 0.0000000000e+00 0.0000000000e+00 0.0000000000e+00 0.0000000000e+00 0.0000000000e+00 0.0000000000e+00 0.0000000000e+00 0.0000000000e+00 0.0000000000e+00 0.0000000000e+00 0.0000000000e+00 0.0000000000e+00 0.0000000000e+00 0.0000000000e+00 0.0000000000e+00 0.0000000000e+00 0.0000000000e+00 0.0000000000e+00 0.0000000000e+00 0.0000000000e+00 0.0000000000e+00 0.0000000000e+00 0.0000000000e+00 0.0000000000e+00 0.0000000000e+00 0.0000000000e+00 0.0000000000e+00 0.0000000000e+00 0.0000000000e+00 0.0000000000e+00 0.0000000000e+00 0.0000000000e+00 0.0000000000e+00 0.0000000000e+00 0.0000000000e+00 0.0000000000e+00 0.0000000000e+00 0.0000000000e+00 0.0000000000e+00 0.0000000000e+00 0.0000000000e+00 0.0000000000e+00 0.0000000000e+00 0.0000000000e+00 0.0000000000e+00 0.0000000000e+00 0.0000000000e+00 0.0000000000e+00 0.0000000000e+00 0.0000000000e+00 0.0000000000e+00 0.0000000000e+00 0.0000000000e+00 0.0000000000e+00 0.0000000000e+00 0.0000000000e+00 0.0000000000e+00 0.0000000000e+00 0.0000000000e+00 0.0000000000e+00 0.0000000000e+00 0.0000000000e+00 0.0000000000e+00 0.0000000000e+00 0.0000000000e+00 0.0000000000e+00 0.0000000000e+00 0.0000000000e+00 0.0000000000e+00 0.0000000000e+00 0.0000000000e+00 0.0000000000e+00 0.0000000000e+00 0.0000000000e+00 0.0000000000e+00 0.0000000000e+00 0.0000000000e+00 0.0000000000e+00 0.0000000000e+00 0.0000000000e+00 0.0000000000e+00 0.0000000000e+00 0.0000000000e+00 0.0000000000e+00 0.0000000000e+00 0.0000000000e+00 0.0000000000e+00 0.0000000000e+00 0.0000000000e+00 0.0000000000e+00 0.0000000000e+00 0.0000000000e+00 0.0000000000e+00 0.0000000000e+00 0.0000000000e+00 0.0000000000e+00 0.0000000000e+00 0.0000000000e+00 0.0000000000e+00 0.0000000000e+00 0.0000000000e+00 0.0000000000e+00 0.0000000000e+00 0.0000000000e+00 0.0000000000e+00 0.0000000000e+00 0.0000000000e+00 0.0000000000e+00 0.0000000000e+00 0.0000000000e+00 0.0000000000e+00 0.0000000000e+00 0.0000000000e+00 0.0000000000e+00 0.0000000000e+00 0.0000000000e+00 0.0000000000e+00 0.0000000000e+00 0.0000000000e+00 0.0000000000e+00 0.0000000000e+00 0.0000000000e+00 0.0000000000e+00 0.0000000000e+00 0.0000000000e+00 0.0000000000e+00 0.0000000000e+00 0.0000000000e+00 0.0000000000e+00 0.0000000000e+00 0.0000000000e+00 0.0000000000e+00 0.0000000000e+00 0.0000000000e+00 0.0000000000e+00 0.0000000000e+00 0.0000000000e+00 0.0000000000e+00 0.0000000000e+00 0.0000000000e+00 0.0000000000e+00 0.0000000000e+00 0.0000000000e+00 0.0000000000e+00 0.0000000000e+00 0.0000000000e+00 0.0000000000e+00 0.0000000000e+00 0.0000000000e+00 0.0000000000e+00 0.0000000000e+00 0.0000000000e+00 0.0000000000e+00 0.0000000000e+00 0.0000000000e+00 0.0000000000e+00 0.0000000000e+00 0.0000000000e+00 0.0000000000e+00 0.0000000000e+00 0.0000000000e+00 0.0000000000e+00 0.0000000000e+00 0.0000000000e+00 0.0000000000e+00 0.0000000000e+00 0.0000000000e+00 0.0000000000e+00 0.0000000000e+00 0.0000000000e+00 0.0000000000e+00 0.0000000000e+00 0.0000000000e+00 0.0000000000e+00 0.0000000000e+00 0.0000000000e+00 0.0000000000e+00 0.0000000000e+00 0.0000000000e+00 0.0000000000e+00 0.0000000000e+00 0.0000000000e+00 0.0000000000e+00 0.0000000000e+00 0.0000000000e+00 0.0000000000e+00 0.0000000000e+00 0.0000000000e+00 0.0000000000e+00 0.0000000000e+00 0.0000000000e+00 0.0000000000e+00 0.0000000000e+00 0.0000000000e+00 0.0000000000e+00 0.0000000000e+00 0.0000000000e+00 0.0000000000e+00 0.0000000000e+00 0.0000000000e+00 0.0000000000e+00 0.0000000000e+00 0.0000000000e+00 0.0000000000e+00 0.0000000000e+00 0.0000000000e+00 0.0000000000e+00 0.0000000000e+00 0.0000000000e+00 0.0000000000e+00 0.0000000000e+00 0.0000000000e+00 0.0000000000e+00 0.0000000000e+00 0.0000000000e+00 0.0000000000e+00 0.0000000000e+00 0.0000000000e+00 0.0000000000e+00 0.0000000000e+00 0.0000000000e+00 0.0000000000e+00 0.0000000000e+00 0.0000000000e+00 0.0000000000e+00 0.0000000000e+00 0.0000000000e+00 0.0000000000e+00 0.0000000000e+00 0.0000000000e+00 0.0000000000e+00 0.0000000000e+00 0.0000000000e+00 0.0000000000e+00 0.0000000000e+00 0.0000000000e+00 0.0000000000e+00 0.0000000000e+00 0.0000000000e+00 0.0000000000e+00 0.0000000000e+00 0.0000000000e+00 0.0000000000e+00 0.0000000000e+00 0.0000000000e+00 0.0000000000e+00 0.0000000000e+00 0.0000000000e+00 0.0000000000e+00 0.0000000000e+00 0.0000000000e+00 0.0000000000e+00 0.0000000000e+00 0.0000000000e+00 0.0000000000e+00 0.0000000000e+00 0.0000000000e+00 0.0000000000e+00 0.0000000000e+00 0.0000000000e+00 0.0000000000e+00 0.0000000000e+00 0.0000000000e+00 0.0000000000e+00 0.0000000000e+00 0.0000000000e+00 0.0000000000e+00 0.0000000000e+00 0.0000000000e+00 0.0000000000e+00 0.0000000000e+00 0.0000000000e+00 0.0000000000e+00 0.0000000000e+00 0.0000000000e+00 0.0000000000e+00 0.0000000000e+00 0.0000000000e+00 0.0000000000e+00 0.0000000000e+00 0.0000000000e+00 0.0000000000e+00 0.0000000000e+00 0.0000000000e+00 0.0000000000e+00 0.0000000000e+00 0.0000000000e+00 0.0000000000e+00 0.0000000000e+00 0.0000000000e+00 0.0000000000e+00 0.0000000000e+00 0.0000000000e+00 0.0000000000e+00 0.0000000000e+00 0.0000000000e+00 0.0000000000e+00 0.0000000000e+00 0.0000000000e+00 0.0000000000e+00 0.0000000000e+00 0.0000000000e+00 0.0000000000e+00 0.0000000000e+00 0.0000000000e+00 0.0000000000e+00 0.0000000000e+00 0.0000000000e+00 0.0000000000e+00 0.0000000000e+00 0.0000000000e+00 0.0000000000e+00 0.0000000000e+00 0.0000000000e+00 0.0000000000e+00 0.0000000000e+00 0.0000000000e+00 0.0000000000e+00 0.0000000000e+00 0.0000000000e+00 0.0000000000e+00 0.0000000000e+00 0.0000000000e+00 0.0000000000e+00 0.0000000000e+00 0.0000000000e+00 0.0000000000e+00 0.0000000000e+00 0.0000000000e+00 0.0000000000e+00 0.0000000000e+00 0.0000000000e+00 0.0000000000e+00 0.0000000000e+00 0.0000000000e+00 0.0000000000e+00 0.0000000000e+00 0.0000000000e+00 0.0000000000e+00 0.0000000000e+00 0.0000000000e+00 0.0000000000e+00 0.0000000000e+00 0.0000000000e+00 0.0000000000e+00 0.0000000000e+00 0.0000000000e+00 0.0000000000e+00 0.0000000000e+00 0.0000000000e+00 0.0000000000e+00 0.0000000000e+00 0.0000000000e+00 0.0000000000e+00 0.0000000000e+00 0.0000000000e+00 0.0000000000e+00 0.0000000000e+00 0.0000000000e+00 0.0000000000e+00 0.0000000000e+00 0.0000000000e+00 0.0000000000e+00 0.0000000000e+00 0.0000000000e+00 0.0000000000e+00 0.0000000000e+00 0.0000000000e+00 0.0000000000e+00 0.0000000000e+00 0.0000000000e+00 0.0000000000e+00 0.0000000000e+00 0.0000000000e+00 0.0000000000e+00 0.0000000000e+00 0.0000000000e+00 0.0000000000e+00 0.0000000000e+00 0.0000000000e+00 0.0000000000e+00 0.0000000000e+00 0.0000000000e+00 0.0000000000e+00 0.0000000000e+00 0.0000000000e+00 0.0000000000e+00 0.0000000000e+00 0.0000000000e+00 0.0000000000e+00 0.0000000000e+00 0.0000000000e+00 0.0000000000e+00 0.0000000000e+00 0.0000000000e+00 0.0000000000e+00 0.0000000000e+00 0.0000000000e+00 0.0000000000e+00 0.0000000000e+00 0.0000000000e+00 0.0000000000e+00 0.0000000000e+00 0.0000000000e+00 0.0000000000e+00 0.0000000000e+00 0.0000000000e+00 0.0000000000e+00 0.0000000000e+00 0.0000000000e+00
        </DataArray>
        <DataArray type="Float64" Name="force" NumberOfComponents="3" format="ascii">
          2.1782436219e-13 -2.9498380071e-14 0.0000000000e+00 2.1530871740e-13 -7.6058133835e-14 0.0000000000e+00 1.6854044214e-13 -1.6222327417e-13 0.0000000000e+00 1.4165910765e-13 -1.7026048208e-13 0.0000000000e+00 1.3876505596e-13 -1.7119572254e-13 0.0000000000e+00 9.6737286497e-14 -2.0681424761e-13 0.0000000000e+00 1.0845439629e-13 -1.9705237229e-13 0.0000000000e+00 6.4881048234e-14 -2.1489164564e-13 0.0000000000e+00 8.5395445103e-14 -2.0821979641e-13 0.0000000000e+00 6.5646674731e-14 -2.1347603350e-13 0.0000000000e+00 5.7168661071e-14 -2.1673193552e-13 0.0000000000e+00 4.6555618667e-14 -2.1970363753e-13 0.0000000000e+00 5.2557285166e-14 -2.1624442251e-13 0.0000000000e+00 5.0157012132e-14 -2.1670699154e-13 0.0000000000e+00 3.7090699671e-14 -2.1952210902e-13 0.0000000000e+00 3.3441239049e-14 -2.2215003727e-13 0.0000000000e+00 3.0287637286e-14 -2.2320462652e-13 0.0000000000e+00 2.6496264757e-14 -2.2272212533e-13 0.0000000000e+00 2.5456950363e-14 -2.2174853143e-13 0.0000000000e+00 2.3919295128e-14 -2.2084252620e-13 0.0000000000e+00 2.6587845784e-14 -2.2018564810e-13 0.0000000000e+00 2.1708966236e-14 -2.2079921865e-13 0.0000000000e+00 1.6814341019e-14 -2.2160897532e-13 0.0000000000e+00 1.3829841408e-14 -2.2250936766e-13 0.0000000000e+00 1.1878299769e-14 -2.2292414019e-13 0.0000000000e+00 9.8846247753e-15 -2.2326463746e-13 0.0000000000e+00 8.3835697868e-15 -2.2334951415e-13 0.0000000000e+00 6.7020572291e-15 -2.2340416675e-13 0.0000000000e+00 5.3086794644e-15 -2.2335554461e-13 0.0000000000e+00 3.9147796707e-15 -2.2323429333e-13 0.0000000000e+00 2.5574573645e-15 -2.2314641333e-13 0.0000000000e+00 1.2169661483e-15 -2.2279033700e-13 0.0000000000e+00 1.2378172397e-16 -2.2308998495e-13 0.0000000000e+00 -1.2652044237e-15 -2.2265601747e-13 0.0000000000e+00 -2.1953345475e-15 -2.2260939995e-13 0.0000000000e+00 -3.5524004833e-15 -2.2257893337e-13 0.0000000000e+00 -4.4220607333e-15 -2.2245450722e-13 0.0000000000e+00 -5.5588697552e-15 -2.2228169166e-13 0.0000000000e+00 -6.4954350659e-15 -2.2211121958e-13 0.0000000000e+00 -7.5563002845e-15 -2.2172629722e-13 0.0000000000e+00 -8.3349002990e-15 -2.2148988868e-13 0.0000000000e+00 -9.4796818185e-15 -2.2100806647e-13 0.0000000000e+00 -1.0497525475e-14 -2.2051369823e-13 0.0000000000e+00 -1.1683440510e-14 -2.1989668572e-13 0.0000000000e+00 -1.3450751485e-14 -2.1915972875e-13 0.0000000000e+00 -1.6015711108e-14 -2.1843098094e-13 0.0000000000e+00 -1.8280416502e-14 -2.1804083587e-13 0.0000000000e+00 -1.5515692560e-14 -2.1827830707e-13 0.0000000000e+00 -1.6256560020e-14 -2.1852625515e-13 0.0000000000e+00 -1.5253735591e-14 -2.1899381831e-13 0.0000000000e+00 -1.6331567940e-14 -2.1929978328e-13 0.0000000000e+00 -1.6320280394e-14 -2.1958182889e-13 0.0000000000e+00 -1.7270912337e-14 -2.1970922543e-13 0.0000000000e+00 -1.8034526727e-14 -2.1949892725e-13 0.0000000000e+00 -1.7996378965e-14 -2.1887974582e-13 0.0000000000e+00 -1.9271094452e-14 -2.1797490634e-13 0.0000000000e+00 -2.0085509740e-14 -2.1683072978e-13 0.0000000000e+00 -2.3298261421e-14 -2.1542880486e-13 0.0000000000e+00 -2.7745616913e-14 -2.1446348034e-13 0.0000000000e+00 -2.5023884752e-14 -2.1475233187e-13 0.0000000000e+00 -2.2651204002e-14 -2.1556590533e-13 0.0000000000e+00 -2.2114000212e-14 -2.1640783310e-13 0.0000000000e+00 -2.2393007640e-14 -2.1699210672e-13 0.0000000000e+00 -2.3623503736e-14 -2.1692679003e-13 0.0000000000e+00 -2.3090197382e-14 -2.1614318818e-13 0.0000000000e+00 -2.4427944331e-14 -2.1474533432e-13 0.0000000000e+00 -2.6010213644e-14 -2.1303690251e-13 0.0000000000e+00 -3.3294921479e-14 -2.1147189609e-13 0.0000000000e+00 -3.0115211668e-14 -2.1185124314e-13 0.0000000000e+00 -2.6338494416e-14 -2.1284876022e-13 0.0000000000e+00 -2.5517307460e-14 -2.1415817548e-13 0.0000000000e+00 -2.6887354607e-14 -2.1450442811e-13 0.0000000000e+00 -2.6729184971e-14 -2.1418449280e-13 0.0000000000e+00 -2.6732440125e-14 -2.1253093107e-13 0.0000000000e+00 -3.0567756728e-14 -2.1055466783e-13 0.0000000000e+00 -3.6590554865e-14 -2.0908601842e-13 0.0000000000e+00 -3.2807939707e-14 -2.0983419600e-13 0.0000000000e+00 -2.8192065955e-14 -2.1110038924e-13 0.0000000000e+00 -2.8655283001e-14 -2.1258092114e-13 0.0000000000e+00 -2.9903979922e-14 -2.1212596503e-13 0.0000000000e+00 -2.8569067341e-14 -2.1126698121e-13 0.0000000000e+00 -3.2173396860e-14 -2.0856230883e-13 0.0000000000e+00 -3.8343235660e-14 -2.0744325786e-13 0.0000000000e+00 -3.6812019802e-14 -2.0717582300e-13 0.0000000000e+00 -2.9330474324e-14 -2.0951210671e-13 0.0000000000e+00 -3.1317697012e-14 -2.1038530215e-13 0.0000000000e+00 -3.1243038576e-14 -2.1048202999e-13 0.0000000000e+00 -3.0679002330e-14 -2.0837479936e-13 0.0000000000e+00 -3.7331752875e-14 -2.0628163937e-13 0.0000000000e+00 -4.1413262159e-14 -2.0513123319e-13 0.0000000000e+00 -3.3253608434e-14 -2.0649884998e-13 0.0000000000e+00 -3.2017339157e-14 -2.0849099713e-13 0.0000000000e+00 -3.3073486319e-14 -2.0882758735e-13 0.0000000000e+00 -3.2206163183e-14 -2.0758415681e-13 0.0000000000e+00 -3.6467049700e-14 -2.0506715279e-13 0.0000000000e+00 -4.2438071919e-14 -2.0362703656e-13 0.0000000000e+00 -3.7602666795e-14 -2.0436666165e-13 0.0000000000e+00 -3.2187429872e-14 -2.0686003004e-13 0.0000000000e+00 -3.4603267788e-14 -2.0743478740e-13 0.0000000000e+00 -3.3343841462e-14 -2.0617189663e-13 0.0000000000e+00 -3.8217057717e-14 -2.0373109081e-13 0.0000000000e+00 -4.4053460249e-14 -2.0214041916e-13 0.0000000000e+00 -3.7727414032e-14 -2.0329474736e-13 0.0000000000e+00 -3.3723789835e-14 -2.0573794531e-13 0.0000000000e+00 -3.6008582775e-14 -2.0588386439e-13 0.0000000000e+00 -3.4277378730e-14 -2.0413634691e-13 0.0000000000e+00 -4.1322602663e-14 -2.0171890449e-13 0.0000000000e+00 -4.6093467498e-14 -2.0045802415e-13 0.0000000000e+00 -3.4163893829e-14 -2.0272239264e-13 0.0000000000e+00 -3.6785296043e-14 -2.0440485732e-13 0.0000000000e+00 -3.5796242669e-14 -2.0388058112e-13 0.0000000000e+00 -3.7360654993e-14 -2.0142181691e-13 0.0000000000e+00 -4.5016100339e-14 -1.9919886190e-13 0.0000000000e+00 -4.3449712070e-14 -1.9956463127e-13 0.0000000000e+00 -3.3842906641e-14 -2.0243772717e-13 0.0000000000e+00 -3.8803832178e-14 -2.0256723658e-13 0.0000000000e+00 -3.5528519415e-14 -2.0095172499e-13 0.0000000000e+00 -4.3695201712e-14 -1.9838541807e-13 0.0000000000e+00 -4.7569942082e-14 -1.9737919841e-13 0.0000000000e+00 -3.4282463907e-14 -2.0028974625e-13 0.0000000000e+00 -3.9612596040e-14 -2.0124869351e-13 0.0000000000e+00 -3.6005523484e-14 -2.0042608017e-13 0.0000000000e+00 -4.2563464197e-14 -1.9768059798e-13 0.0000000000e+00 -4.8904128268e-14 -1.9589550141e-13 0.0000000000e+00 -3.6597780829e-14 -1.9837908281e-13 0.0000000000e+00 -3.9675239121e-14 -1.9988335046e-13 0.0000000000e+00 -3.7089111374e-14 -1.9949129092e-13 0.0000000000e+00 -4.1928958507e-14 -1.9659430724e-13 0.0000000000e+00 -4.9365726591e-14 -1.9462963793e-13 0.0000000000e+00 -3.8573854848e-14 -1.9682968433e-13 0.0000000000e+00 -3.9381724665e-14 -1.9866160506e-13 0.0000000000e+00 -3.8287707401e-14 -1.9824590248e-13 0.0000000000e+00 -4.1764243876e-14 -1.9549935494e-13 0.0000000000e+00 -5.0520178870e-14 -1.9326804051e-13 0.0000000000e+00 -3.8683259447e-14 -1.9568352755e-13 0.0000000000e+00 -4.0434479101e-14 -1.9733178460e-13 0.0000000000e+00 -3.8306509889e-14 -1.9695048726e-13 0.0000000000e+00 -4.3395669862e-14 -1.9407848495e-13 0.0000000000e+00 -5.0986202989e-14 -1.9207050017e-13 0.0000000000e+00 -3.7697380076e-14 -1.9486894717e-13 0.0000000000e+00 -4.2325076082e-14 -1.9591366171e-13 0.0000000000e+00 -3.7339579486e-14 -1.9564002333e-13 0.0000000000e+00 -4.6819860135e-14 -1.9215401481e-13 0.0000000000e+00 -5.0208661549e-14 -1.9116369512e-13 0.0000000000e+00 -3.7050279060e-14 -1.9425738626e-13 0.0000000000e+00 -4.3842689305e-14 -1.9466934458e-13 0.0000000000e+00 -3.6694311958e-14 -1.9408181188e-13 0.0000000000e+00 -5.1437385879e-14 -1.9015024941e-13 0.0000000000e+00 -4.6497210604e-14 -1.9087609200e-13 0.0000000000e+00 -3.9369629543e-14 -1.9345838431e-13 0.0000000000e+00 -4.2253364244e-14 -1.9379151292e-13 0.0000000000e+00 -3.9909949351e-14 -1.9180367969e-13 0.0000000000e+00 -5.3606375822e-14 -1.8864004634e-13 0.0000000000e+00 -4.1514815827e-14 -1.9113038609e-13 0.0000000000e+00 -4.2856921922e-14 -1.9266965886e-13 0.0000000000e+00 -3.8553716823e-14 -1.9295224066e-13 0.0000000000e+00 -4.8753478697e-14 -1.8917501390e-13 0.0000000000e+00 -5.0912301720e-14 -1.8850501133e-13 0.0000000000e+00 -3.9026650438e-14 -1.9164660826e-13 0.0000000000e+00 -4.4737725044e-14 -1.9211513966e-13 0.0000000000e+00 -3.8757885987e-14 -1.9108321197e-13 0.0000000000e+00 -5.4949268748e-14 -1.8708874617e-13 0.0000000000e+00 -4.3978315384e-14 -1.8932406094e-13 0.0000000000e+00 -4.3609705113e-14 -1.9104588009e-13 0.0000000000e+00 -3.9609748491e-14 -1.9147311072e-13 0.0000000000e+00 -4.9870863887e-14 -1.8767336606e-13 0.0000000000e+00 -5.1262119723e-14 -1.8705897099e-13 0.0000000000e+00 -4.0700025430e-14 -1.8998212389e-13 0.0000000000e+00 -4.4769799006e-14 -1.9044979461e-13 0.0000000000e+00 -4.1141370994e-14 -1.8884677171e-13 0.0000000000e+00 -5.6393217042e-14 -1.8513217709e-13 0.0000000000e+00 -4.2479549367e-14 -1.8801829893e-13 0.0000000000e+00 -4.5865696872e-14 -1.8900924602e-13 0.0000000000e+00 -3.9315772945e-14 -1.8917982011e-13 0.0000000000e+00 -5.4599304752e-14 -1.8455995585e-13 0.0000000000e+00 -4.7723843593e-14 -1.8567619642e-13 0.0000000000e+00 -4.4032866285e-14 -1.8771285730e-13 0.0000000000e+00 -4.1016042828e-14 -1.8822887835e-13 0.0000000000e+00 -5.0907282271e-14 -1.8425846305e-13 0.0000000000e+00 -5.1873179586e-14 -1.8340374880e-13 0.0000000000e+00 -4.3026084059e-14 -1.8618084963e-13 0.0000000000e+00 -4.3613914378e-14 -1.8668087133e-13 0.0000000000e+00 -4.6570782139e-14 -1.8397123475e-13 0.0000000000e+00 -5.5035272832e-14 -1.8131800856e-13 0.0000000000e+00 -4.3520158425e-14 -1.8413173978e-13 0.0000000000e+00 -4.5382944005e-14 -1.8477265135e-13 0.0000000000e+00 -4.4224660005e-14 -1.8287745162e-13 0.0000000000e+00 -5.5680060787e-14 -1.7895196253e-13 0.0000000000e+00 -4.6534081432e-14 -1.8071183739e-13 0.0000000000e+00 -4.4233083091e-14 -1.8199535356e-13 0.0000000000e+00 -4.5311901905e-14 -1.7974160161e-13 0.0000000000e+00 -5.5136718568e-14 -1.7418401650e-13 0.0000000000e+00 -5.1786087767e-14 -1.7173936768e-13 0.0000000000e+00 -3.6490835333e-14 -1.7668248338e-13 0.0000000000e+00 -5.2464052496e-14 -1.6802799588e-13 0.0000000000e+00 -3.6880550821e-14 -1.7159240159e-13 0.0000000000e+00 -5.9247386358e-14 -1.7559060804e-13 0.0000000000e+00 -2.0594515184e-14 -2.0050365726e-13 0.0000000000e+00 -9.6799106085e-14 -1.6084923384e-13 0.0000000000e+00 -1.4452608115e-14 2.8431873267e-15 0.0000000000e+00 1.0859212411e-14 1.7200473898e-13 0.0000000000e+00 -1.6469938913e-14 2.0647486282e-13 0.0000000000e+00 -1.4244204959e-16 1.8146511521e-13 0.0000000000e+00 4.8034952250e-15 1.8218115184e-13 0.0000000000e+00 -1.1896566437e-14 1.7915124198e-13 0.0000000000e+00 -2.7528284019e-15 1.8554158051e-13 0.0000000000e+00 -9.7827000771e-15 1.8175367564e-13 0.0000000000e+00 -1.1660910761e-14 1.8879847963e-13 0.0000000000e+00 -7.1122591543e-15 1.9169987866e-13 0.0000000000e+00 -5.4333149403e-15 1.9248266272e-13 0.0000000000e+00 -6.4306083686e-15 1.9300486030e-13 0.0000000000e+00 -7.4592110157e-15 1.9445219564e-13 0.0000000000e+00 -6.1275945175e-15 1.9597022959e-13 0.0000000000e+00 -5.3993937862e-15 1.9663174367e-13 0.0000000000e+00 -5.6493365265e-15 1.9712971639e-13 0.0000000000e+00 -5.6220407013e-15 1.9790596796e-13 0.0000000000e+00 -5.3670463783e-15 1.9837174017e-13 0.0000000000e+00 -4.9217444748e-15 1.9915280962e-13 0.0000000000e+00 -4.9128065494e-15 1.9968492468e-13 0.0000000000e+00 -4.8066326239e-15 1.9980262455e-13 0.0000000000e+00 -4.6919938822e-15 2.0066796518e-13 0.0000000000e+00 -4.4097216377e-15 2.0098103289e-13 0.0000000000e+00 -4.2762734265e-15 2.0152571389e-13 0.0000000000e+00 -4.2100638646e-15 2.0189777422e-13 0.0000000000e+00 -4.0951969171e-15 2.0244382351e-13 0.0000000000e+00 -3.9287885443e-15 2.0283833187e-13 0.0000000000e+00 -3.8286070891e-15 2.0324113074e-13 0.0000000000e+00 -3.6598943237e-15 2.0365770950e-13 0.0000000000e+00 -3.5710172932e-15 2.0402784236e-13 0.0000000000e+00 -3.3644032577e-15 2.0446503576e-13 0.0000000000e+00 -3.2367985837e-15 2.0479688230e-13 0.0000000000e+00 -3.0578398977e-15 2.0515977850e-13 0.0000000000e+00 -2.8933401461e-15 2.0549032005e-13 0.0000000000e+00 -2.8027931836e-15 2.0582045224e-13 0.0000000000e+00 -2.5890039049e-15 2.0609434733e-13 0.0000000000e+00 -2.6363669568e-15 2.0648424420e-13 0.0000000000e+00 -2.3062277127e-15 2.0677725022e-13 0.0000000000e+00 -2.4227951072e-15 2.0714376366e-13 0.0000000000e+00 -1.9427569768e-15 2.0746795860e-13 0.0000000000e+00 -2.0267321871e-15 2.0778228505e-13 0.0000000000e+00 -1.6204429218e-15 2.0811805888e-13 0.0000000000e+00 -1.7614819914e-15 2.0834701633e-13 0.0000000000e+00 -1.2998540107e-15 2.0872314749e-13 0.0000000000e+00 -1.3330506588e-15 2.0893553121e-13 0.0000000000e+00 -1.0286803623e-15 2.0931766266e-13 0.0000000000e+00 -9.3043858017e-16 2.0949086232e-13 0.0000000000e+00 -8.2284265245e-16 2.0983871047e-13 0.0000000000e+00 -4.6249958743e-16 2.1006238202e-13 0.0000000000e+00 -5.9135947689e-16 2.1036338208e-13 0.0000000000e+00 -2.6663957550e-16 2.1058610988e-13 0.0000000000e+00 4.1706855466e-18 2.1098867319e-13 0.0000000000e+00 -9.6273478684e-17 2.1133558180e-13 0.0000000000e+00 3.2842324168e-16 2.1159898560e-13 0.0000000000e+00 4.6274047054e-16 2.1194787571e-13 0.0000000000e+00 5.5102257876e-16 2.1223793089e-13 0.0000000000e+00 9.1916168359e-16 2.1247253055e-13 0.0000000000e+00 1.0804689950e-15 2.1261532205e-13 0.0000000000e+00 9.7492877663e-16 2.1299247284e-13 0.0000000000e+00 1.4391360335e-15 2.1346769985e-13 0.0000000000e+00 1.5356653711e-15 2.1340141336e-13 0.0000000000e+00 1.6234132462e-15 2.1383282964e-13 0.0000000000e+00 2.0030715943e-15 2.1419566014e-13 0.0000000000e+00 2.0104619881e-15 2.1453880903e-13 0.0000000000e+00 2.2810561201e-15 2.1485766395e-13 0.0000000000e+00 2.3366563684e-15 2.1513528058e-13 0.0000000000e+00 2.4971283950e-15 2.1547489997e-13 0.0000000000e+00 2.6838058500e-15 2.1570296185e-13 0.0000000000e+00 2.8674022203e-15 2.1606805991e-13 0.0000000000e+00 3.1022531059e-15 2.1632253296e-13 0.0000000000e+00 3.1381224597e-15 2.1654011411e-13 0.0000000000e+00 3.3506546265e-15 2.1688759005e-13 0.0000000000e+00 3.4626564698e-15 2.1714436569e-13 0.0000000000e+00 3.6363020701e-15 2.1740572027e-13 0.0000000000e+00 3.9149466901e-15 2.1773568160e-13 0.0000000000e+00 3.9690332224e-15 2.1801844183e-13 0.0000000000e+00 4.2128094348e-15 2.1828737782e-13 0.0000000000e+00 4.2860492600e-15 2.1857087467e-13 0.0000000000e+00 4.6128904455e-15 2.1881228489e-13 0.0000000000e+00 4.7465382599e-15 2.1909654165e-13 0.0000000000e+00 4.8788528498e-15 2.1938229503e-13 0.0000000000e+00 4.9834124447e-15 2.1962355110e-13 0.0000000000e+00 5.3851172150e-15 2.1993817480e-13 0.0000000000e+00 5.3226149089e-15 2.2023339877e-13 0.0000000000e+00 5.9246198820e-15 2.2050679634e-13 0.0000000000e+00 5.6386068767e-15 2.2068551786e-13 0.0000000000e+00 6.3003556754e-15 2.2091142512e-13 0.0000000000e+00 6.2704145882e-15 2.2103660211e-13 0.0000000000e+00 6.6799212273e-15 2.2115248255e-13 0.0000000000e+00 6.7841096035e-15 2.2130905983e-13 0.0000000000e+00 7.1798609545e-15 2.2135922799e-13 0.0000000000e+00 7.3001787811e-15 2.2142886493e-13 0.0000000000e+00 7.7029008785e-15 2.2142255183e-13 0.0000000000e+00 7.9569545704e-15 2.2141494142e-13 0.0000000000e+00 8.4935518667e-15 2.2140424873e-13 0.0000000000e+00 8.8098537535e-15 2.2136700379e-13 0.0000000000e+00 9.5341335920e-15 2.2112995406e-13 0.0000000000e+00 1.0429769025e-14 2.2113905882e-13 0.0000000000e+00 1.2278518273e-14 2.2068174809e-13 0.0000000000e+00 1.2559343905e-14 2.2122629945e-13 0.0000000000e+00 1.1290482284e-14 2.2152997105e-13 0.0000000000e+00 1.0946174985e-14 2.2171958100e-13 0.0000000000e+00 1.0804004463e-14 2.2248379233e-13 0.0000000000e+00 1.0762679179e-14 2.2285773666e-13 0.0000000000e+00 1.0720689725e-14 2.2352306140e-13 0.0000000000e+00 1.1093246805e-14 2.2384379236e-13 0.0000000000e+00 1.1128179054e-14 2.2437700868e-13 0.0000000000e+00 1.1490457700e-14 2.2475653104e-13 0.0000000000e+00 1.1593194067e-14 2.2518603039e-13 0.0000000000e+00 1.2217824023e-14 2.2541173794e-13 0.0000000000e+00 1.2207877851e-14 2.2553177969e-13 0.0000000000e+00 1.2801930847e-14 2.2546474288e-13 0.0000000000e+00 1.2989686865e-14 2.2538956987e-13 0.0000000000e+00 1.3600885295e-14 2.2518355282e-13 0.0000000000e+00 1.4425159807e-14 2.2485006703e-13 0.0000000000e+00 1.5417851625e-14 2.2447088702e-13 0.0000000000e+00 1.7792991311e-14 2.2403899586e-13 0.0000000000e+00 2.0309340651e-14 2.2394115135e-13 0.0000000000e+00 1.7893864960e-14 2.2449019815e-13 0.0000000000e+00 1.6650243972e-14 2.2538064311e-13 0.0000000000e+00 1.6307607786e-14 2.2618435863e-13 0.0000000000e+00 1.6563380920e-14 2.2701063127e-13 0.0000000000e+00 1.6282924095e-14 2.2760716627e-13 0.0000000000e+00 1.7349137310e-14 2.2822447574e-13 0.0000000000e+00 1.7237361472e-14 2.2843448981e-13 0.0000000000e+00 1.8012518611e-14 2.2833365661e-13 0.0000000000e+00 1.7817302245e-14 2.2786449884e-13 0.0000000000e+00 1.9827309226e-14 2.2724449009e-13 0.0000000000e+00 1.9606578938e-14 2.2643481911e-13 0.0000000000e+00 2.5974150520e-14 2.2551759795e-13 0.0000000000e+00 2.5981132972e-14 2.2555140774e-13 0.0000000000e+00 2.2628284026e-14 2.2650067964e-13 0.0000000000e+00 2.1687057000e-14 2.2776970424e-13 0.0000000000e+00 2.1440404588e-14 2.2879773816e-13 0.0000000000e+00 2.1873981611e-14 2.2965914959e-13 0.0000000000e+00 2.2807054743e-14 2.3003163598e-13 0.0000000000e+00 2.2706993466e-14 2.2959185145e-13 0.0000000000e+00 2.3862232251e-14 2.2878138988e-13 0.0000000000e+00 2.4639447514e-14 2.2753141010e-13 0.0000000000e+00 3.2531320761e-14 2.2617330624e-13 0.0000000000e+00 3.1955521725e-14 2.2642621737e-13 0.0000000000e+00 2.7376101422e-14 2.2756422498e-13 0.0000000000e+00 2.6271707253e-14 2.2936915506e-13 0.0000000000e+00 2.7209008861e-14 2.3027248053e-13 0.0000000000e+00 2.7850456229e-14 2.3075820012e-13 0.0000000000e+00 2.8147727176e-14 2.2974798086e-13 0.0000000000e+00 2.8854562763e-14 2.2841693845e-13 0.0000000000e+00 3.7070425972e-14 2.2645941383e-13 0.0000000000e+00 3.9119279192e-14 2.2626335795e-13 0.0000000000e+00 3.2078002885e-14 2.2768855009e-13 0.0000000000e+00 3.1108147816e-14 2.3009335173e-13 0.0000000000e+00 3.2953835480e-14 2.3064386968e-13 0.0000000000e+00 3.2843963374e-14 2.3068736618e-13 0.0000000000e+00 3.4050933367e-14 2.2818322917e-13 0.0000000000e+00 4.2751868366e-14 2.2659025921e-13 0.0000000000e+00 4.5447932168e-14 2.2603197414e-13 0.0000000000e+00 3.4990310347e-14 2.2862881619e-13 0.0000000000e+00 3.7857993123e-14 2.3050986877e-13 0.0000000000e+00 3.7954198811e-14 2.3067785810e-13 0.0000000000e+00 3.9063300793e-14 2.2814036440e-13 0.0000000000e+00 4.8346016831e-14 2.2606147946e-13 0.0000000000e+00 5.1424295080e-14 2.2557856060e-13 0.0000000000e+00 3.9067606925e-14 2.2872278688e-13 0.0000000000e+00 4.4328974534e-14 2.3027582457e-13 0.0000000000e+00 4.2784635685e-14 2.2841961905e-13 0.0000000000e+00 5.2296576979e-14 2.2571966630e-13 0.0000000000e+00 5.8621325246e-14 2.2408615637e-13 0.0000000000e+00 4.5079421486e-14 2.2762508305e-13 0.0000000000e+00 4.9632320661e-14 2.2897808241e-13 0.0000000000e+00 5.0058952735e-14 2.2614778244e-13 0.0000000000e+00 6.1633227681e-14 2.2339200617e-13 0.0000000000e+00 6.1263033923e-14 2.2328510311e-13 0.0000000000e+00 5.0326648809e-14 2.2774771783e-13 0.0000000000e+00 5.7004781009e-14 2.2522638637e-13 0.0000000000e+00 6.5932767895e-14 2.2112307471e-13 0.0000000000e+00 6.9380965334e-14 2.2245195530e-13 0.0000000000e+00 5.5758940805e-14 2.2252768557e-13 0.0000000000e+00 6.4799630751e-14 2.2663193259e-13 0.0000000000e+00 8.2386055288e-14 2.0987420213e-13 0.0000000000e+00 5.9944194402e-14 2.3343948899e-13 0.0000000000e+00 8.1056751299e-14 2.0189102401e-13 0.0000000000e+00 5.8018880378e-14 2.4097968720e-13 0.0000000000e+00 1.1426003044e-13 1.8186964602e-13 0.0000000000e+00 3.1958057921e-14 2.5750990710e-13 0.0000000000e+00 1.4110097371e-13 1.6550472887e-13 0.0000000000e+00 4.3715986684e-14 2.5249359569e-13 0.0000000000e+00 1.2384664929e-13 1.7643834946e-13 0.0000000000e+00 8.0976448128e-14 2.2912194241e-13 0.0000000000e+00 1.0031837550e-13 1.9497043244e-13 0.0000000000e+00 1.1182823444e-13 2.0746939774e-13 0.0000000000e+00 1.0084776695e-13 2.0406342497e-13 0.0000000000e+00 1.2726488871e-13 1.9420017839e-13 0.0000000000e+00 1.0827937579e-13 2.0559860229e-13 0.0000000000e+00 1.5905770903e-13 1.6839352778e-13 0.0000000000e+00 1.2860650979e-13 1.8624939586e-13 0.0000000000e+00 1.7182371904e-13 1.4239382131e-13 0.0000000000e+00 1.6988420802e-13 1.6901174632e-13 0.0000000000e+00 2.1339648180e-13 8.3291742460e-14 0.0000000000e+00 2.1495700370e-13 5.6148913355e-14 0.0000000000e+00
        </DataArray>
      </PointData>
    </Piece>
  </PolyData>
</VTKFile>
