<?xml version="1.0"?>
<VTKFile type="PolyData" version="0.1" byte_order="LittleEndian">
  <PolyData>
    <FieldData>
      <DataArray type="Float64" Name="TimeValue" NumberOfTuples="1" format="ascii">
        6.499999999998803e+01
      </DataArray>
    </FieldData>
    <Piece NumberOfPoints="398" NumberOfVerts="398" NumberOfLines="0" NumberOfStrips="0" NumberOfPolys="0">
      <Points>
        <DataArray type="Float64" NumberOfComponents="3" format="ascii">
          -4.9726094768e-01 5.2264231634e-02 0.0000000000e+00 -4.9591980461e-01 5.7187521354e-02 0.0000000000e+00 -4.9320742903e-01 6.1518265364e-02 0.0000000000e+00 -4.8960598536e-01 6.5153650837e-02 0.0000000000e+00 -4.8548567450e-01 6.8194643038e-02 0.0000000000e+00 -4.8105786906e-01 7.0770768034e-02 0.0000000000e+00 -4.7643787966e-01 7.2985647804e-02 0.0000000000e+00 -4.7169100133e-01 7.4914697529e-02 0.0000000000e+00 -4.6685629730e-01 7.6612338955e-02 0.0000000000e+00 -4.6195841863e-01 7.8118474475e-02 0.0000000000e+00 -4.5701365804e-01 7.9463020303e-02 0.0000000000e+00 -4.5203321881e-01 8.0668916425e-02 0.0000000000e+00 -4.4702506197e-01 8.1754126178e-02 0.0000000000e+00 -4.4199500846e-01 8.2732982305e-02 0.0000000000e+00 -4.3694742522e-01 8.3617112443e-02 0.0000000000e+00 -4.3188565927e-01 8.4416090884e-02 0.0000000000e+00 -4.2681230400e-01 8.5137908709e-02 0.0000000000e+00 -4.2172941653e-01 8.5789311244e-02 0.0000000000e+00 -4.1663865062e-01 8.6376052829e-02 0.0000000000e+00 -4.1154135992e-01 8.6903088373e-02 0.0000000000e+00 -4.0643863732e-01 8.7374723845e-02 0.0000000000e+00 -4.0133140546e-01 8.7794726707e-02 0.0000000000e+00 -3.9622042424e-01 8.8166419095e-02 0.0000000000e+00 -3.9110634740e-01 8.8492747356e-02 0.0000000000e+00 -3.8598972048e-01 8.8776341615e-02 0.0000000000e+00 -3.8087100981e-01 8.9019561684e-02 0.0000000000e+00 -3.7575063504e-01 8.9224534775e-02 0.0000000000e+00 -3.7062893181e-01 8.9393189274e-02 0.0000000000e+00 -3.6550619075e-01 8.9527279365e-02 0.0000000000e+00 -3.6038270739e-01 8.9628406450e-02 0.0000000000e+00 -3.5525869773e-01 8.9698040036e-02 0.0000000000e+00 -3.5013435246e-01 8.9737531833e-02 0.0000000000e+00 -3.4500987690e-01 8.9748129328e-02 0.0000000000e+00 -3.3988541842e-01 8.9730987908e-02 0.0000000000e+00 -3.3476111444e-01 8.9687180276e-02 0.0000000000e+00 -3.2963709471e-01 8.9617705257e-02 0.0000000000e+00 -3.2451348064e-01 8.9523495400e-02 0.0000000000e+00 -3.1939034143e-01 8.9405422449e-02 0.0000000000e+00 -3.1426779881e-01 8.9264305217e-02 0.0000000000e+00 -3.0914591206e-01 8.9100912041e-02 0.0000000000e+00 -3.0402476307e-01 8.8915967270e-02 0.0000000000e+00 -2.9890440772e-01 8.8710153739e-02 0.0000000000e+00 -2.9378490850e-01 8.8484117338e-02 0.0000000000e+00 -2.8866631015e-01 8.8238469120e-02 0.0000000000e+00 -2.8354865267e-01 8.7973788508e-02 0.0000000000e+00 -2.7843198600e-01 8.7690626604e-02 0.0000000000e+00 -2.7331635766e-01 8.7389507892e-02 0.0000000000e+00 -2.6820177024e-01 8.7070929522e-02 0.0000000000e+00 -2.6308828316e-01 8.6735369256e-02 0.0000000000e+00 -2.5797588368e-01 8.6383278975e-02 0.0000000000e+00 -2.5286463554e-01 8.6015095985e-02 0.0000000000e+00 -2.4775456034e-01 8.5631236490e-02 0.0000000000e+00 -2.4264563136e-01 8.5232095683e-02 0.0000000000e+00 -2.3753787536e-01 8.4818056587e-02 0.0000000000e+00 -2.3243133189e-01 8.4389488400e-02 0.0000000000e+00 -2.2732604551e-01 8.3946746927e-02 0.0000000000e+00 -2.2222190001e-01 8.3490160448e-02 0.0000000000e+00 -2.1711899509e-01 8.3020063562e-02 0.0000000000e+00 -2.1201736213e-01 8.2536773495e-02 0.0000000000e+00 -2.0691697960e-01 8.2040591368e-02 0.0000000000e+00 -2.0181778048e-01 8.1531802906e-02 0.0000000000e+00 -1.9671983644e-01 8.1010697525e-02 0.0000000000e+00 -1.9162315737e-01 8.0477549322e-02 0.0000000000e+00 -1.8652775518e-01 7.9932623721e-02 0.0000000000e+00 -1.8143354438e-01 7.9376166968e-02 0.0000000000e+00 -1.7634058775e-01 7.8808433128e-02 0.0000000000e+00 -1.7124890276e-01 7.8229663908e-02 0.0000000000e+00 -1.6615843046e-01 7.7640084880e-02 0.0000000000e+00 -1.6106919074e-01 7.7039923480e-02 0.0000000000e+00 -1.5598117717e-01 7.6429397432e-02 0.0000000000e+00 -1.5089442149e-01 7.5808722703e-02 0.0000000000e+00 -1.4580891223e-01 7.5178103979e-02 0.0000000000e+00 -1.4072455773e-01 7.4537729809e-02 0.0000000000e+00 -1.3564143273e-01 7.3887803843e-02 0.0000000000e+00 -1.3055953602e-01 7.3228514974e-02 0.0000000000e+00 -1.2547885669e-01 7.2560045603e-02 0.0000000000e+00 -1.2039932696e-01 7.1882565420e-02 0.0000000000e+00 -1.1532097276e-01 7.1196251579e-02 0.0000000000e+00 -1.1024384833e-01 7.0501280681e-02 0.0000000000e+00 -1.0516789419e-01 6.9797809381e-02 0.0000000000e+00 -1.0009305693e-01 6.9085990467e-02 0.0000000000e+00 -9.5019385779e-02 6.8365986871e-02 0.0000000000e+00 -8.9946876275e-02 6.7637950065e-02 0.0000000000e+00 -8.4875512802e-02 6.6902025973e-02 0.0000000000e+00 -7.9805266057e-02 6.6158354627e-02 0.0000000000e+00 -7.4736119229e-02 6.5407074084e-02 0.0000000000e+00 -6.9668110663e-02 6.4648327056e-02 0.0000000000e+00 -6.4601223625e-02 6.3882244673e-02 0.0000000000e+00 -5.9535406374e-02 6.3108949253e-02 0.0000000000e+00 -5.4470657317e-02 6.2328567330e-02 0.0000000000e+00 -4.9407032488e-02 6.1541231275e-02 0.0000000000e+00 -4.4344451672e-02 6.0747049224e-02 0.0000000000e+00 -3.9282923158e-02 5.9946139943e-02 0.0000000000e+00 -3.4222445485e-02 5.9138617762e-02 0.0000000000e+00 -2.9163037454e-02 5.8324597432e-02 0.0000000000e+00 -2.4104648617e-02 5.7504179745e-02 0.0000000000e+00 -1.9047261811e-02 5.6677467985e-02 0.0000000000e+00 -1.3990893842e-02 5.5844568318e-02 0.0000000000e+00 -8.9355444057e-03 5.5005581552e-02 0.0000000000e+00 -3.8812175905e-03 5.4160606701e-02 0.0000000000e+00 1.1721998069e-03 5.3309720494e-02 0.0000000000e+00 6.2245485523e-03 5.2453043054e-02 0.0000000000e+00 1.1275943392e-02 5.1590645938e-02 0.0000000000e+00 1.6326440609e-02 5.0722607920e-02 0.0000000000e+00 2.1375943892e-02 4.9849031720e-02 0.0000000000e+00 2.6424457110e-02 4.8970000753e-02 0.0000000000e+00 3.1472011504e-02 4.8085591397e-02 0.0000000000e+00 3.6518701143e-02 4.7195866621e-02 0.0000000000e+00 4.1564441327e-02 4.6300918671e-02 0.0000000000e+00 4.6609230112e-02 4.5400823257e-02 0.0000000000e+00 5.1653173445e-02 4.4495634621e-02 0.0000000000e+00 5.6696228622e-02 4.3585431459e-02 0.0000000000e+00 6.1738361294e-02 4.2670289132e-02 0.0000000000e+00 6.6779564021e-02 4.1750276257e-02 0.0000000000e+00 7.1819899165e-02 4.0825446710e-02 0.0000000000e+00 7.6859356703e-02 3.9895865608e-02 0.0000000000e+00 8.1898008641e-02 3.8961580986e-02 0.0000000000e+00 8.6935705941e-02 3.8022680059e-02 0.0000000000e+00 9.1972611128e-02 3.7079190280e-02 0.0000000000e+00 9.7008668669e-02 3.6131177844e-02 0.0000000000e+00 1.0204386087e-01 3.5178700202e-02 0.0000000000e+00 1.0707827097e-01 3.4221793894e-02 0.0000000000e+00 1.1211171891e-01 3.3260543822e-02 0.0000000000e+00 1.1714445382e-01 3.2294951292e-02 0.0000000000e+00 1.2217637967e-01 3.1325081711e-02 0.0000000000e+00 1.2720736077e-01 3.0351006860e-02 0.0000000000e+00 1.3223761875e-01 2.9372727682e-02 0.0000000000e+00 1.3726706297e-01 2.8390303861e-02 0.0000000000e+00 1.4229572061e-01 2.7403770609e-02 0.0000000000e+00 1.4732360119e-01 2.6413164931e-02 0.0000000000e+00 1.5235059578e-01 2.5418545708e-02 0.0000000000e+00 1.5737688659e-01 2.4419912645e-02 0.0000000000e+00 1.6240234385e-01 2.3417325663e-02 0.0000000000e+00 1.6742696646e-01 2.2410817741e-02 0.0000000000e+00 1.7245085770e-01 2.1400399305e-02 0.0000000000e+00 1.7747398558e-01 2.0386106299e-02 0.0000000000e+00 1.8249635644e-01 1.9367965495e-02 0.0000000000e+00 1.8751791564e-01 1.8346014588e-02 0.0000000000e+00 1.9253867441e-01 1.7320276492e-02 0.0000000000e+00 1.9755867528e-01 1.6290766192e-02 0.0000000000e+00 2.0257793396e-01 1.5257502622e-02 0.0000000000e+00 2.0759639625e-01 1.4220517707e-02 0.0000000000e+00 2.1261408588e-01 1.3179825911e-02 0.0000000000e+00 2.1763104490e-01 1.2135436390e-02 0.0000000000e+00 2.2264726018e-01 1.1087368318e-02 0.0000000000e+00 2.2766268318e-01 1.0035646948e-02 0.0000000000e+00 2.3267726296e-01 8.9802968007e-03 0.0000000000e+00 2.3769115605e-01 7.9212972708e-03 0.0000000000e+00 2.4270427261e-01 6.8586782309e-03 0.0000000000e+00 2.4771659633e-01 5.7924527911e-03 0.0000000000e+00 2.5272819058e-01 4.7226157199e-03 0.0000000000e+00 2.5773898461e-01 3.6491890353e-03 0.0000000000e+00 2.6274907064e-01 2.5721585331e-03 0.0000000000e+00 2.6775833653e-01 1.4915525741e-03 0.0000000000e+00 2.7276680970e-01 4.0736826173e-04 0.0000000000e+00 2.7777451790e-01 -6.8039875983e-04 0.0000000000e+00 2.8278146879e-01 -1.7717498540e-03 0.0000000000e+00 2.8778759011e-01 -2.8666701914e-03 0.0000000000e+00 2.9279294031e-01 -3.9651747581e-03 0.0000000000e+00 2.9779755351e-01 -5.0672746270e-03 0.0000000000e+00 3.0280135913e-01 -6.1729590882e-03 0.0000000000e+00 3.0780438244e-01 -7.2822397704e-03 0.0000000000e+00 3.1280650594e-01 -8.3950978319e-03 0.0000000000e+00 3.1780794456e-01 -9.5115896717e-03 0.0000000000e+00 3.2280852738e-01 -1.0631687020e-02 0.0000000000e+00 3.2780825022e-01 -1.1755399878e-02 0.0000000000e+00 3.3280721108e-01 -1.2882762556e-02 0.0000000000e+00 3.3780534714e-01 -1.4013774448e-02 0.0000000000e+00 3.4280265335e-01 -1.5148449133e-02 0.0000000000e+00 3.4779915549e-01 -1.6286808434e-02 0.0000000000e+00 3.5279469994e-01 -1.7428834392e-02 0.0000000000e+00 3.5778950179e-01 -1.8574594513e-02 0.0000000000e+00 3.6278342043e-01 -1.9724076172e-02 0.0000000000e+00 3.6777640315e-01 -2.0877287849e-02 0.0000000000e+00 3.7276860129e-01 -2.2034286424e-02 0.0000000000e+00 3.7775992822e-01 -2.3195075031e-02 0.0000000000e+00 3.8275032602e-01 -2.4359664423e-02 0.0000000000e+00 3.8773987974e-01 -2.5528099898e-02 0.0000000000e+00 3.9272844614e-01 -2.6700374472e-02 0.0000000000e+00 3.9771614086e-01 -2.7876543029e-02 0.0000000000e+00 4.0270291178e-01 -2.9056622242e-02 0.0000000000e+00 4.0768869791e-01 -3.0240627667e-02 0.0000000000e+00 4.1267361642e-01 -3.1428618368e-02 0.0000000000e+00 4.1765755604e-01 -3.2620600225e-02 0.0000000000e+00 4.2264052151e-01 -3.3816607805e-02 0.0000000000e+00 4.2762255447e-01 -3.5016685743e-02 0.0000000000e+00 4.3260353408e-01 -3.6220840625e-02 0.0000000000e+00 4.3758354093e-01 -3.7429128723e-02 0.0000000000e+00 4.4256256770e-01 -3.8641586290e-02 0.0000000000e+00 4.4754046411e-01 -3.9858215695e-02 0.0000000000e+00 4.5251740906e-01 -4.1079100795e-02 0.0000000000e+00 4.5749335137e-01 -4.2304270474e-02 0.0000000000e+00 4.6246815394e-01 -4.3533733300e-02 0.0000000000e+00 4.6744192511e-01 -4.4767559442e-02 0.0000000000e+00 4.7241451575e-01 -4.6005756378e-02 0.0000000000e+00 4.7738608692e-01 -4.7248409814e-02 0.0000000000e+00 4.8235650207e-01 -4.8495532369e-02 0.0000000000e+00 4.8732575854e-01 -4.9747171040e-02 0.0000000000e+00 4.9229400251e-01 -5.1003411632e-02 0.0000000000e+00 4.9726094768e-01 -5.2264231634e-02 0.0000000000e+00 4.9214040296e-01 -5.2464813724e-02 0.0000000000e+00 4.8701953993e-01 -5.2660646441e-02 0.0000000000e+00 4.8189864333e-01 -5.2851767290e-02 0.0000000000e+00 4.7677755232e-01 -5.3038229807e-02 0.0000000000e+00 4.7165625973e-01 -5.3220080515e-02 0.0000000000e+00 4.6653489650e-01 -5.3397360149e-02 0.0000000000e+00 4.6141328729e-01 -5.3570119057e-02 0.0000000000e+00 4.5629157639e-01 -5.3738395555e-02 0.0000000000e+00 4.5116964327e-01 -5.3902235761e-02 0.0000000000e+00 4.4604762022e-01 -5.4061676551e-02 0.0000000000e+00 4.4092555131e-01 -5.4216756824e-02 0.0000000000e+00 4.3580324412e-01 -5.4367521411e-02 0.0000000000e+00 4.3068084515e-01 -5.4514003871e-02 0.0000000000e+00 4.2555835402e-01 -5.4656241187e-02 0.0000000000e+00 4.2043568020e-01 -5.4794271646e-02 0.0000000000e+00 4.1531294051e-01 -5.4928126814e-02 0.0000000000e+00 4.1019008497e-01 -5.5057841695e-02 0.0000000000e+00 4.0506710173e-01 -5.5183449112e-02 0.0000000000e+00 3.9994409843e-01 -5.5304977955e-02 0.0000000000e+00 3.9482094815e-01 -5.5422461631e-02 0.0000000000e+00 3.8969770733e-01 -5.5535928040e-02 0.0000000000e+00 3.8457442349e-01 -5.5645404327e-02 0.0000000000e+00 3.7945097209e-01 -5.5750920133e-02 0.0000000000e+00 3.7432749471e-01 -5.5852498408e-02 0.0000000000e+00 3.6920389872e-01 -5.5950165778e-02 0.0000000000e+00 3.6408023857e-01 -5.6043944803e-02 0.0000000000e+00 3.5895659830e-01 -5.6133856558e-02 0.0000000000e+00 3.5383281810e-01 -5.6219925217e-02 0.0000000000e+00 3.4870894773e-01 -5.6302170032e-02 0.0000000000e+00 3.4358512736e-01 -5.6380607890e-02 0.0000000000e+00 3.3846113257e-01 -5.6455260100e-02 0.0000000000e+00 3.3333711736e-01 -5.6526141037e-02 0.0000000000e+00 3.2821305197e-01 -5.6593266688e-02 0.0000000000e+00 3.2308893851e-01 -5.6656651381e-02 0.0000000000e+00 3.1796483857e-01 -5.6716307587e-02 0.0000000000e+00 3.1284064916e-01 -5.6772248492e-02 0.0000000000e+00 3.0771637227e-01 -5.6824484747e-02 0.0000000000e+00 3.0259218097e-01 -5.6873024235e-02 0.0000000000e+00 2.9746785329e-01 -5.6917877437e-02 0.0000000000e+00 2.9234350810e-01 -5.6959050352e-02 0.0000000000e+00 2.8721911827e-01 -5.6996549104e-02 0.0000000000e+00 2.8209475503e-01 -5.7030377886e-02 0.0000000000e+00 2.7697038274e-01 -5.7060540439e-02 0.0000000000e+00 2.7184594108e-01 -5.7087039267e-02 0.0000000000e+00 2.6672150384e-01 -5.7109874891e-02 0.0000000000e+00 2.6159706323e-01 -5.7129047050e-02 0.0000000000e+00 2.5647259122e-01 -5.7144554236e-02 0.0000000000e+00 2.5134806035e-01 -5.7156393579e-02 0.0000000000e+00 2.4622358623e-01 -5.7164560656e-02 0.0000000000e+00 2.4109907571e-01 -5.7169050186e-02 0.0000000000e+00 2.3597460255e-01 -5.7169855343e-02 0.0000000000e+00 2.3085010370e-01 -5.7166968068e-02 0.0000000000e+00 2.2572559782e-01 -5.7160378926e-02 0.0000000000e+00 2.2060117901e-01 -5.7150077380e-02 0.0000000000e+00 2.1547668986e-01 -5.7136051039e-02 0.0000000000e+00 2.1035218532e-01 -5.7118286508e-02 0.0000000000e+00 2.0522771809e-01 -5.7096769179e-02 0.0000000000e+00 2.0010330503e-01 -5.7071483028e-02 0.0000000000e+00 1.9497890690e-01 -5.7042410356e-02 0.0000000000e+00 1.8985450348e-01 -5.7009532077e-02 0.0000000000e+00 1.8473015445e-01 -5.6972828238e-02 0.0000000000e+00 1.7960584836e-01 -5.6932277051e-02 0.0000000000e+00 1.7448154674e-01 -5.6887855015e-02 0.0000000000e+00 1.6935724336e-01 -5.6839537383e-02 0.0000000000e+00 1.6423299950e-01 -5.6787298642e-02 0.0000000000e+00 1.5910881454e-01 -5.6731111290e-02 0.0000000000e+00 1.5398472721e-01 -5.6670946815e-02 0.0000000000e+00 1.4886063870e-01 -5.6606773550e-02 0.0000000000e+00 1.4373655692e-01 -5.6538559464e-02 0.0000000000e+00 1.3861262126e-01 -5.6466272926e-02 0.0000000000e+00 1.3348865342e-01 -5.6389876340e-02 0.0000000000e+00 1.2836477223e-01 -5.6309334762e-02 0.0000000000e+00 1.2324097603e-01 -5.6224610014e-02 0.0000000000e+00 1.1811724558e-01 -5.6135662002e-02 0.0000000000e+00 1.1299368194e-01 -5.6042451195e-02 0.0000000000e+00 1.0787006851e-01 -5.5944930586e-02 0.0000000000e+00 1.0274655297e-01 -5.5843058179e-02 0.0000000000e+00 9.7623242809e-02 -5.5736789958e-02 0.0000000000e+00 9.2499894644e-02 -5.5626072852e-02 0.0000000000e+00 8.7376702232e-02 -5.5510861246e-02 0.0000000000e+00 8.2253591763e-02 -5.5391102098e-02 0.0000000000e+00 7.7130592483e-02 -5.5266742888e-02 0.0000000000e+00 7.2007772477e-02 -5.5137730413e-02 0.0000000000e+00 6.6884978478e-02 -5.5004004031e-02 0.0000000000e+00 6.1762374400e-02 -5.4865509418e-02 0.0000000000e+00 5.6639899797e-02 -5.4722184619e-02 0.0000000000e+00 5.1517578012e-02 -5.4573968022e-02 0.0000000000e+00 4.6395359247e-02 -5.4420793964e-02 0.0000000000e+00 4.1273265047e-02 -5.4262596875e-02 0.0000000000e+00 3.6151344678e-02 -5.4099310180e-02 0.0000000000e+00 3.1029656272e-02 -5.3930865784e-02 0.0000000000e+00 2.5908107476e-02 -5.3757188601e-02 0.0000000000e+00 2.0786715931e-02 -5.3578204980e-02 0.0000000000e+00 1.5665583667e-02 -5.3393842301e-02 0.0000000000e+00 1.0544631760e-02 -5.3204019413e-02 0.0000000000e+00 5.4238455346e-03 -5.3008655112e-02 0.0000000000e+00 3.0323854710e-04 -5.2807667001e-02 0.0000000000e+00 -4.8170736379e-03 -5.2600974629e-02 0.0000000000e+00 -9.9371296962e-03 -5.2388489241e-02 0.0000000000e+00 -1.5057026989e-02 -5.2170116987e-02 0.0000000000e+00 -2.0176584787e-02 -5.1945773477e-02 0.0000000000e+00 -2.5295897865e-02 -5.1715360119e-02 0.0000000000e+00 -3.0414941641e-02 -5.1478780917e-02 0.0000000000e+00 -3.5533695451e-02 -5.1235937199e-02 0.0000000000e+00 -4.0652120784e-02 -5.0986728615e-02 0.0000000000e+00 -4.5770212954e-02 -5.0731050570e-02 0.0000000000e+00 -5.0888000350e-02 -5.0468793984e-02 0.0000000000e+00 -5.6005440725e-02 -5.0199850525e-02 0.0000000000e+00 -6.1122511737e-02 -4.9924108055e-02 0.0000000000e+00 -6.6239180585e-02 -4.9641452129e-02 0.0000000000e+00 -7.1355503248e-02 -4.9351760294e-02 0.0000000000e+00 -7.6471397397e-02 -4.9054914724e-02 0.0000000000e+00 -8.1586838279e-02 -4.8750791317e-02 0.0000000000e+00 -8.6701851077e-02 -4.8439259672e-02 0.0000000000e+00 -9.1816424892e-02 -4.8120188045e-02 0.0000000000e+00 -9.6930492547e-02 -4.7793444814e-02 0.0000000000e+00 -1.0204404178e-01 -4.7458891444e-02 0.0000000000e+00 -1.0715707215e-01 -4.7116384871e-02 0.0000000000e+00 -1.1226956858e-01 -4.6765779115e-02 0.0000000000e+00 -1.1738150394e-01 -4.6406925081e-02 0.0000000000e+00 -1.2249279621e-01 -4.6039673639e-02 0.0000000000e+00 -1.2760346587e-01 -4.5663864229e-02 0.0000000000e+00 -1.3271353851e-01 -4.5279331259e-02 0.0000000000e+00 -1.3782292438e-01 -4.4885913259e-02 0.0000000000e+00 -1.4293156128e-01 -4.4483442340e-02 0.0000000000e+00 -1.4803948021e-01 -4.4071738429e-02 0.0000000000e+00 -1.5314665394e-01 -4.3650620840e-02 0.0000000000e+00 -1.5825304438e-01 -4.3219904557e-02 0.0000000000e+00 -1.6335853606e-01 -4.2779405918e-02 0.0000000000e+00 -1.6846317945e-01 -4.2328921443e-02 0.0000000000e+00 -1.7356694323e-01 -4.1868248527e-02 0.0000000000e+00 -1.7866975142e-01 -4.1397182525e-02 0.0000000000e+00 -1.8377156506e-01 -4.0915509135e-02 0.0000000000e+00 -1.8887231740e-01 -4.0423010023e-02 0.0000000000e+00 -1.9397201921e-01 -3.9919452293e-02 0.0000000000e+00 -1.9907060315e-01 -3.9404603149e-02 0.0000000000e+00 -2.0416795498e-01 -3.8878227134e-02 0.0000000000e+00 -2.0926410713e-01 -3.8340065606e-02 0.0000000000e+00 -2.1435899276e-01 -3.7789861420e-02 0.0000000000e+00 -2.1945254522e-01 -3.7227348521e-02 0.0000000000e+00 -2.2454463421e-01 -3.6652258723e-02 0.0000000000e+00 -2.2963526591e-01 -3.6064298608e-02 0.0000000000e+00 -2.3472439875e-01 -3.5463169159e-02 0.0000000000e+00 -2.3981193609e-01 -3.4848566607e-02 0.0000000000e+00 -2.4489771085e-01 -3.4220184393e-02 0.0000000000e+00 -2.4998176842e-01 -3.3577677250e-02 0.0000000000e+00 -2.5506399126e-01 -3.2920706413e-02 0.0000000000e+00 -2.6014426393e-01 -3.2248918972e-02 0.0000000000e+00 -2.6522248061e-01 -3.1561945841e-02 0.0000000000e+00 -2.7029858526e-01 -3.0859394906e-02 0.0000000000e+00 -2.7537247023e-01 -3.0140863550e-02 0.0000000000e+00 -2.8044398225e-01 -2.9405937276e-02 0.0000000000e+00 -2.8551303983e-01 -2.8654171425e-02 0.0000000000e+00 -2.9057948552e-01 -2.7885111033e-02 0.0000000000e+00 -2.9564321341e-01 -2.7098270352e-02 0.0000000000e+00 -3.0070406800e-01 -2.6293146236e-02 0.0000000000e+00 -3.0576188583e-01 -2.5469210014e-02 0.0000000000e+00 -3.1081650731e-01 -2.4625903240e-02 0.0000000000e+00 -3.1586776165e-01 -2.3762637513e-02 0.0000000000e+00 -3.2091545343e-01 -2.2878794051e-02 0.0000000000e+00 -3.2595938602e-01 -2.1973716558e-02 0.0000000000e+00 -3.3099932872e-01 -2.1046713543e-02 0.0000000000e+00 -3.3603506379e-01 -2.0097045782e-02 0.0000000000e+00 -3.4106630193e-01 -1.9123937664e-02 0.0000000000e+00 -3.4609279420e-01 -1.8126550881e-02 0.0000000000e+00 -3.5111422796e-01 -1.7103998506e-02 0.0000000000e+00 -3.5613026864e-01 -1.6055330517e-02 0.0000000000e+00 -3.6114055876e-01 -1.4979526225e-02 0.0000000000e+00 -3.6614471400e-01 -1.3875486128e-02 0.0000000000e+00 -3.7114227411e-01 -1.2742032692e-02 0.0000000000e+00 -3.7613277157e-01 -1.1577883387e-02 0.0000000000e+00 -3.8111568954e-01 -1.0381645731e-02 0.0000000000e+00 -3.8609040603e-01 -9.1518147596e-03 0.0000000000e+00 -3.9105627202e-01 -7.8867350466e-03 0.0000000000e+00 -3.9601255828e-01 -6.5845901298e-03 0.0000000000e+00 -4.0095841207e-01 -5.2433865304e-03 0.0000000000e+00 -4.0589288660e-01 -3.8609129621e-03 0.0000000000e+00 -4.1081490142e-01 -2.4347101989e-03 0.0000000000e+00 -4.1572320451e-01 -9.6203219494e-04 0.0000000000e+00 -4.2061636185e-01 5.6021259395e-04 0.0000000000e+00 -4.2549268766e-01 2.1355174736e-03 0.0000000000e+00 -4.3035021769e-01 3.7678670960e-03 0.0000000000e+00 -4.3518659767e-01 5.4618266507e-03 0.0000000000e+00 -4.3999901359e-01 7.2226808961e-03 0.0000000000e+00 -4.4478405085e-01 9.0566000589e-03 0.0000000000e+00 -4.4953751130e-01 1.0970861400e-02 0.0000000000e+00 -4.5425413044e-01 1.2974134101e-02 0.0000000000e+00 -4.5892721924e-01 1.5076883774e-02 0.0000000000e+00 -4.6354810402e-01 1.7291919714e-02 0.0000000000e+00 -4.6810526293e-01 1.9635157524e-02 0.0000000000e+00 -4.7258296803e-01 2.2126706606e-02 0.0000000000e+00 -4.7695906267e-01 2.4792441981e-02 0.0000000000e+00 -4.8120113833e-01 2.7666268843e-02 0.0000000000e+00 -4.8525967047e-01 3.0793297982e-02 0.0000000000e+00 -4.8905511125e-01 3.4233720983e-02 0.0000000000e+00 -4.9245312560e-01 3.8064921006e-02 0.0000000000e+00 -4.9522002994e-01 4.2369646827e-02 0.0000000000e+00 -4.9697272129e-01 4.7169688282e-02 0.0000000000e+00
        </DataArray>
      </Points>
      <Verts>
        <DataArray type="Int64" Name="connectivity" format="ascii">
          0 1 2 3 4 5 6 7 8 9 10 11 12 13 14 15 16 17 18 19 20 21 22 23 24 25 26 27 28 29 30 31 32 33 34 35 36 37 38 39 40 41 42 43 44 45 46 47 48 49 50 51 52 53 54 55 56 57 58 59 60 61 62 63 64 65 66 67 68 69 70 71 72 73 74 75 76 77 78 79 80 81 82 83 84 85 86 87 88 89 90 91 92 93 94 95 96 97 98 99 100 101 102 103 104 105 106 107 108 109 110 111 112 113 114 115 116 117 118 119 120 121 122 123 124 125 126 127 128 129 130 131 132 133 134 135 136 137 138 139 140 141 142 143 144 145 146 147 148 149 150 151 152 153 154 155 156 157 158 159 160 161 162 163 164 165 166 167 168 169 170 171 172 173 174 175 176 177 178 179 180 181 182 183 184 185 186 187 188 189 190 191 192 193 194 195 196 197 198 199 200 201 202 203 204 205 206 207 208 209 210 211 212 213 214 215 216 217 218 219 220 221 222 223 224 225 226 227 228 229 230 231 232 233 234 235 236 237 238 239 240 241 242 243 244 245 246 247 248 249 250 251 252 253 254 255 256 257 258 259 260 261 262 263 264 265 266 267 268 269 270 271 272 273 274 275 276 277 278 279 280 281 282 283 284 285 286 287 288 289 290 291 292 293 294 295 296 297 298 299 300 301 302 303 304 305 306 307 308 309 310 311 312 313 314 315 316 317 318 319 320 321 322 323 324 325 326 327 328 329 330 331 332 333 334 335 336 337 338 339 340 341 342 343 344 345 346 347 348 349 350 351 352 353 354 355 356 357 358 359 360 361 362 363 364 365 366 367 368 369 370 371 372 373 374 375 376 377 378 379 380 381 382 383 384 385 386 387 388 389 390 391 392 393 394 395 396 397
        </DataArray>
        <DataArray type="Int64" Name="offsets" format="ascii">
          1 2 3 4 5 6 7 8 9 10 11 12 13 14 15 16 17 18 19 20 21 22 23 24 25 26 27 28 29 30 31 32 33 34 35 36 37 38 39 40 41 42 43 44 45 46 47 48 49 50 51 52 53 54 55 56 57 58 59 60 61 62 63 64 65 66 67 68 69 70 71 72 73 74 75 76 77 78 79 80 81 82 83 84 85 86 87 88 89 90 91 92 93 94 95 96 97 98 99 100 101 102 103 104 105 106 107 108 109 110 111 112 113 114 115 116 117 118 119 120 121 122 123 124 125 126 127 128 129 130 131 132 133 134 135 136 137 138 139 140 141 142 143 144 145 146 147 148 149 150 151 152 153 154 155 156 157 158 159 160 161 162 163 164 165 166 167 168 169 170 171 172 173 174 175 176 177 178 179 180 181 182 183 184 185 186 187 188 189 190 191 192 193 194 195 196 197 198 199 200 201 202 203 204 205 206 207 208 209 210 211 212 213 214 215 216 217 218 219 220 221 222 223 224 225 226 227 228 229 230 231 232 233 234 235 236 237 238 239 240 241 242 243 244 245 246 247 248 249 250 251 252 253 254 255 256 257 258 259 260 261 262 263 264 265 266 267 268 269 270 271 272 273 274 275 276 277 278 279 280 281 282 283 284 285 286 287 288 289 290 291 292 293 294 295 296 297 298 299 300 301 302 303 304 305 306 307 308 309 310 311 312 313 314 315 316 317 318 319 320 321 322 323 324 325 326 327 328 329 330 331 332 333 334 335 336 337 338 339 340 341 342 343 344 345 346 347 348 349 350 351 352 353 354 355 356 357 358 359 360 361 362 363 364 365 366 367 368 369 370 371 372 373 374 375 376 377 378 379 380 381 382 383 384 385 386 387 388 389 390 391 392 393 394 395 396 397 398
        </DataArray>
      </Verts>
      <PointData>
        <DataArray type="Float64" Name="velocity" NumberOfComponents="3" format="ascii">
          0.0000000000e+00 0.0000000000e+00 0.0000000000e+00 0.0000000000e+00 0.0000000000e+00 0.0000000000e+00 0.0000000000e+00 0.0000000000e+00 0.0000000000e+00 0.0000000000e+00 0.0000000000e+00 0.0000000000e+00 0.0000000000e+00 0.0000000000e+00 0.0000000000e+00 0.0000000000e+00 0.0000000000e+00 0.0000000000e+00 0.0000000000e+00 0.0000000000e+00 0.0000000000e+00 0.0000000000e+00 0.0000000000e+00 0.0000000000e+00 0.0000000000e+00 0.0000000000e+00 0.0000000000e+00 0.0000000000e+00 0.0000000000e+00 0.0000000000e+00 0.0000000000e+00 0.0000000000e+00 0.0000000000e+00 0.0000000000e+00 0.0000000000e+00 0.0000000000e+00 0.0000000000e+00 0.0000000000e+00 0.0000000000e+00 0.0000000000e+00 0.0000000000e+00 0.0000000000e+00 0.0000000000e+00 0.0000000000e+00 0.0000000000e+00 0.0000000000e+00 0.0000000000e+00 0.0000000000e+00 0.0000000000e+00 0.0000000000e+00 0.0000000000e+00 0.0000000000e+00 0.0000000000e+00 0.0000000000e+00 0.0000000000e+00 0.0000000000e+00 0.0000000000e+00 0.0000000000e+00 0.0000000000e+00 0.0000000000e+00 0.0000000000e+00 0.0000000000e+00 0.0000000000e+00 0.0000000000e+00 0.0000000000e+00 0.0000000000e+00 0.0000000000e+00 0.0000000000e+00 0.0000000000e+00 0.0000000000e+00 0.0000000000e+00 0.0000000000e+00 0.0000000000e+00 0.0000000000e+00 0.0000000000e+00 0.0000000000e+00 0.0000000000e+00 0.0000000000e+00 0.0000000000e+00 0.0000000000e+00 0.0000000000e+00 0.0000000000e+00 0.0000000000e+00 0.0000000000e+00 0.0000000000e+00 0.0000000000e+00 0.0000000000e+00 0.0000000000e+00 0.0000000000e+00 0.0000000000e+00 0.0000000000e+00 0.0000000000e+00 0.0000000000e+00 0.0000000000e+00 0.0000000000e+00 0.0000000000e+00 0.0000000000e+00 0.0000000000e+00 0.0000000000e+00 0.0000000000e+00 0.0000000000e+00 0.0000000000e+00 0.0000000000e+00 0.0000000000e+00 0.0000000000e+00 0.0000000000e+00 0.0000000000e+00 0.0000000000e+00 0.0000000000e+00 0.0000000000e+00 0.0000000000e+00 0.0000000000e+00 0.0000000000e+00 0.0000000000e+00 0.0000000000e+00 0.0000000000e+00 0.0000000000e+00 0.0000000000e+00 0.0000000000e+00 0.0000000000e+00 0.0000000000e+00 0.0000000000e+00 0.0000000000e+00 0.0000000000e+00 0.0000000000e+00 0.0000000000e+00 0.0000000000e+00 0.0000000000e+00 0.0000000000e+00 0.0000000000e+00 0.0000000000e+00 0.0000000000e+00 0.0000000000e+00 0.0000000000e+00 0.0000000000e+00 0.0000000000e+00 0.0000000000e+00 0.0000000000e+00 0.0000000000e+00 0.0000000000e+00 0.0000000000e+00 0.0000000000e+00 0.0000000000e+00 0.0000000000e+00 0.0000000000e+00 0.0000000000e+00 0.0000000000e+00 0.0000000000e+00 0.0000000000e+00 0.0000000000e+00 0.0000000000e+00 0.0000000000e+00 0.0000000000e+00 0.0000000000e+00 0.0000000000e+00 0.0000000000e+00 0.0000000000e+00 0.0000000000e+00 0.0000000000e+00 0.0000000000e+00 0.0000000000e+00 0.0000000000e+00 0.0000000000e+00 0.0000000000e+00 0.0000000000e+00 0.0000000000e+00 0.0000000000e+00 0.0000000000e+00 0.0000000000e+00 0.0000000000e+00 0.0000000000e+00 0.0000000000e+00 0.0000000000e+00 0.0000000000e+00 0.0000000000e+00 0.0000000000e+00 0.0000000000e+00 0.0000000000e+00 0.0000000000e+00 0.0000000000e+00 0.0000000000e+00 0.0000000000e+00 0.0000000000e+00 0.0000000000e+00 0.0000000000e+00 0.0000000000e+00 0.0000000000e+00 0.0000000000e+00 0.0000000000e+00 0.0000000000e+00 0.0000000000e+00 0.0000000000e+00 0.0000000000e+00 0.0000000000e+00 0.0000000000e+00 0.0000000000e+00 0.0000000000e+00 0.0000000000e+00 0.0000000000e+00 0.0000000000e+00 0.0000000000e+00 0.0000000000e+00 0.0000000000e+00 0.0000000000e+00 0.0000000000e+00 0.0000000000e+00 0.0000000000e+00 0.0000000000e+00 0.0000000000e+00 0.0000000000e+00 0.0000000000e+00 0.0000000000e+00 0.0000000000e+00 0.0000000000e+00 0.0000000000e+00 0.0000000000e+00 0.0000000000e+00 0.0000000000e+00 0.0000000000e+00 0.0000000000e+00 0.0000000000e+00 0.0000000000e+00 0.0000000000e+00 0.0000000000e+00 0.0000000000e+00 0.0000000000e+00 0.0000000000e+00 0.0000000000e+00 0.0000000000e+00 0.0000000000e+00 0.0000000000e+00 0.0000000000e+00 0.0000000000e+00 0.0000000000e+00 0.0000000000e+00 0.0000000000e+00 0.0000000000e+00 0.0000000000e+00 0.0000000000e+00 0.0000000000e+00 0.0000000000e+00 0.0000000000e+00 0.0000000000e+00 0.0000000000e+00 0.0000000000e+00 0.0000000000e+00 0.0000000000e+00 0.0000000000e+00 0.0000000000e+00 0.0000000000e+00 0.0000000000e+00 0.0000000000e+00 0.0000000000e+00 0.0000000000e+00 0.0000000000e+00 0.0000000000e+00 0.0000000000e+00 0.0000000000e+00 0.0000000000e+00 0.0000000000e+00 0.0000000000e+00 0.0000000000e+00 0.0000000000e+00 0.0000000000e+00 0.0000000000e+00 0.0000000000e+00 0.0000000000e+00 0.0000000000e+00 0.0000000000e+00 0.0000000000e+00 0.0000000000e+00 0.0000000000e+00 0.0000000000e+00 0.0000000000e+00 0.0000000000e+00 0.0000000000e+00 0.0000000000e+00 0.0000000000e+00 0.0000000000e+00 0.0000000000e+00 0.0000000000e+00 0.0000000000e+00 0.0000000000e+00 0.0000000000e+00 0.0000000000e+00 0.0000000000e+00 0.0000000000e+00 0.0000000000e+00 0.0000000000e+00 0.0000000000e+00 0.0000000000e+00 0.0000000000e+00 0.0000000000e+00 0.0000000000e+00 0.0000000000e+00 0.0000000000e+00 0.0000000000e+00 0.0000000000e+00 0.0000000000e+00 0.0000000000e+00 0.0000000000e+00 0.0000000000e+00 0.0000000000e+00 0.0000000000e+00 0.0000000000e+00 0.0000000000e+00 0.0000000000e+00 0.0000000000e+00 0.0000000000e+00 0.0000000000e+00 0.0000000000e+00 0.0000000000e+00 0.0000000000e+00 0.0000000000e+00 0.0000000000e+00 0.0000000000e+00 0.0000000000e+00 0.0000000000e+00 0.0000000000e+00 0.0000000000e+00 0.0000000000e+00 0.0000000000e+00 0.0000000000e+00 0.0000000000e+00 0.0000000000e+00 0.0000000000e+00 0.0000000000e+00 0.0000000000e+00 0.0000000000e+00 0.0000000000e+00 0.0000000000e+00 0.0000000000e+00 0.0000000000e+00 0.0000000000e+00 0.0000000000e+00 0.0000000000e+00 0.0000000000e+00 0.0000000000e+00 0.0000000000e+00 0.0000000000e+00 0.0000000000e+00 0.0000000000e+00 0.0000000000e+00 0.0000000000e+00 0.0000000000e+00 0.0000000000e+00 0.0000000000e+00 0.0000000000e+00 0.0000000000e+00 0.0000000000e+00 0.0000000000e+00 0.0000000000e+00 0.0000000000e+00 0.0000000000e+00 0.0000000000e+00 0.0000000000e+00 0.0000000000e+00 0.0000000000e+00 0.0000000000e+00 0.0000000000e+00 0.0000000000e+00 0.0000000000e+00 0.0000000000e+00 0.0000000000e+00 0.0000000000e+00 0.0000000000e+00 0.0000000000e+00 0.0000000000e+00 0.0000000000e+00 0.0000000000e+00 0.0000000000e+00 0.0000000000e+00 0.0000000000e+00 0.0000000000e+00 0.0000000000e+00 0.0000000000e+00 0.0000000000e+00 0.0000000000e+00 0.0000000000e+00 0.0000000000e+00 0.0000000000e+00 0.0000000000e+00 0.0000000000e+00 0.0000000000e+00 0.0000000000e+00 0.0000000000e+00 0.0000000000e+00 0.0000000000e+00 0.0000000000e+00 0.0000000000e+00 0.0000000000e+00 0.0000000000e+00 0.0000000000e+00 0.0000000000e+00 0.0000000000e+00 0.0000000000e+00 0.0000000000e+00 0.0000000000e+00 0.0000000000e+00 0.0000000000e+00 0.0000000000e+00 0.0000000000e+00 0.0000000000e+00 0.0000000000e+00 0.0000000000e+00 0.0000000000e+00 0.0000000000e+00 0.0000000000e+00 0.0000000000e+00 0.0000000000e+00 0.0000000000e+00 0.0000000000e+00 0.0000000000e+00 0.0000000000e+00 0.0000000000e+00 0.0000000000e+00 0.0000000000e+00 0.0000000000e+00 0.0000000000e+00 0.0000000000e+00 0.0000000000e+00 0.0000000000e+00 0.0000000000e+00 0.0000000000e+00 0.0000000000e+00 0.0000000000e+00 0.0000000000e+00 0.0000000000e+00 0.0000000000e+00 0.0000000000e+00 0.0000000000e+00 0.0000000000e+00 0.0000000000e+00 0.0000000000e+00 0.0000000000e+00 0.0000000000e+00 0.0000000000e+00 0.0000000000e+00 0.0000000000e+00 0.0000000000e+00 0.0000000000e+00 0.0000000000e+00 0.0000000000e+00 0.0000000000e+00 0.0000000000e+00 0.0000000000e+00 0.0000000000e+00 0.0000000000e+00 0.0000000000e+00 0.0000000000e+00 0.0000000000e+00 0.0000000000e+00 0.0000000000e+00 0.0000000000e+00 0.0000000000e+00 0.0000000000e+00 0.0000000000e+00 0.0000000000e+00 0.0000000000e+00 0.0000000000e+00 0.0000000000e+00 0.0000000000e+00 0.0000000000e+00 0.0000000000e+00 0.0000000000e+00 0.0000000000e+00 0.0000000000e+00 0.0000000000e+00 0.0000000000e+00 0.0000000000e+00 0.0000000000e+00 0.0000000000e+00 0.0000000000e+00 0.0000000000e+00 0.0000000000e+00 0.0000000000e+00 0.0000000000e+00 0.0000000000e+00 0.0000000000e+00 0.0000000000e+00 0.0000000000e+00 0.0000000000e+00 0.0000000000e+00 0.0000000000e+00 0.0000000000e+00 0.0000000000e+00 0.0000000000e+00 0.0000000000e+00 0.0000000000e+00 0.0000000000e+00 0.0000000000e+00 0.0000000000e+00 0.0000000000e+00 0.0000000000e+00 0.0000000000e+00 0.0000000000e+00 0.0000000000e+00 0.0000000000e+00 0.0000000000e+00 0.0000000000e+00 0.0000000000e+00 0.0000000000e+00 0.0000000000e+00 0.0000000000e+00 0.0000000000e+00 0.0000000000e+00 0.0000000000e+00 0.0000000000e+00 0.0000000000e+00 0.0000000000e+00 0.0000000000e+00 0.0000000000e+00 0.0000000000e+00 0.0000000000e+00 0.0000000000e+00 0.0000000000e+00 0.0000000000e+00 0.0000000000e+00 0.0000000000e+00 0.0000000000e+00 0.0000000000e+00 0.0000000000e+00 0.0000000000e+00 0.0000000000e+00 0.0000000000e+00 0.0000000000e+00 0.0000000000e+00 0.0000000000e+00 0.0000000000e+00 0.0000000000e+00 0.0000000000e+00 0.0000000000e+00 0.0000000000e+00 0.0000000000e+00 0.0000000000e+00 0.0000000000e+00 0.0000000000e+00 0.0000000000e+00 0.0000000000e+00 0.0000000000e+00 0.0000000000e+00 0.0000000000e+00 0.0000000000e+00 0.0000000000e+00 0.0000000000e+00 0.0000000000e+00 0.0000000000e+00 0.0000000000e+00 0.0000000000e+00 0.0000000000e+00 0.0000000000e+00 0.0000000000e+00 0.0000000000e+00 0.0000000000e+00 0.0000000000e+00 0.0000000000e+00 0.0000000000e+00 0.0000000000e+00 0.0000000000e+00 0.0000000000e+00 0.0000000000e+00 0.0000000000e+00 0.0000000000e+00 0.0000000000e+00 0.0000000000e+00 0.0000000000e+00 0.0000000000e+00 0.0000000000e+00 0.0000000000e+00 0.0000000000e+00 0.0000000000e+00 0.0000000000e+00 0.0000000000e+00 0.0000000000e+00 0.0000000000e+00 0.0000000000e+00 0.0000000000e+00 0.0000000000e+00 0.0000000000e+00 0.0000000000e+00 0.0000000000e+00 0.0000000000e+00 0.0000000000e+00 0.0000000000e+00 0.0000000000e+00 0.0000000000e+00 0.0000000000e+00 0.0000000000e+00 0.0000000000e+00 0.0000000000e+00 0.0000000000e+00 0.0000000000e+00 0.0000000000e+00 0.0000000000e+00 0.0000000000e+00 0.0000000000e+00 0.0000000000e+00 0.0000000000e+00 0.0000000000e+00 0.0000000000e+00 0.0000000000e+00 0.0000000000e+00 0.0000000000e+00 0.0000000000e+00 0.0000000000e+00 0.0000000000e+00 0.0000000000e+00 0.0000000000e+00 0.0000000000e+00 0.0000000000e+00 0.0000000000e+00 0.0000000000e+00 0.0000000000e+00 0.0000000000e+00 0.0000000000e+00 0.0000000000e+00 0.0000000000e+00 0.0000000000e+00 0.0000000000e+00 0.0000000000e+00 0.0000000000e+00 0.0000000000e+00 0.0000000000e+00 0.0000000000e+00 0.0000000000e+00 0.0000000000e+00 0.0000000000e+00 0.0000000000e+00 0.0000000000e+00 0.0000000000e+00 0.0000000000e+00 0.0000000000e+00 0.0000000000e+00 0.0000000000e+00 0.0000000000e+00 0.0000000000e+00 0.0000000000e+00 0.0000000000e+00 0.0000000000e+00 0.0000000000e+00 0.0000000000e+00 0.0000000000e+00 0.0000000000e+00 0.0000000000e+00 0.0000000000e+00 0.0000000000e+00 0.0000000000e+00 0.0000000000e+00 0.0000000000e+00 0.0000000000e+00 0.0000000000e+00 0.0000000000e+00 0.0000000000e+00 0.0000000000e+00 0.0000000000e+00 0.0000000000e+00 0.0000000000e+00 0.0000000000e+00 0.0000000000e+00 0.0000000000e+00 0.0000000000e+00 0.0000000000e+00 0.0000000000e+00 0.0000000000e+00 0.0000000000e+00 0.0000000000e+00 0.0000000000e+00 0.0000000000e+00 0.0000000000e+00 0.0000000000e+00 0.0000000000e+00 0.0000000000e+00 0.0000000000e+00 0.0000000000e+00 0.0000000000e+00 0.0000000000e+00 0.0000000000e+00 0.0000000000e+00 0.0000000000e+00 0.0000000000e+00 0.0000000000e+00 0.0000000000e+00 0.0000000000e+00 0.0000000000e+00 0.0000000000e+00 0.0000000000e+00 0.0000000000e+00 0.0000000000e+00 0.0000000000e+00 0.0000000000e+00 0.0000000000e+00 0.0000000000e+00 0.0000000000e+00 0.0000000000e+00 0.0000000000e+00 0.0000000000e+00 0.0000000000e+00 0.0000000000e+00 0.0000000000e+00 0.0000000000e+00 0.0000000000e+00 0.0000000000e+00 0.0000000000e+00 0.0000000000e+00 0.0000000000e+00 0.0000000000e+00 0.0000000000e+00 0.0000000000e+00 0.0000000000e+00 0.0000000000e+00 0.0000000000e+00 0.0000000000e+00 0.0000000000e+00 0.0000000000e+00 0.0000000000e+00 0.0000000000e+00 0.0000000000e+00 0.0000000000e+00 0.0000000000e+00 0.0000000000e+00 0.0000000000e+00 0.0000000000e+00 0.0000000000e+00 0.0000000000e+00 0.0000000000e+00 0.0000000000e+00 0.0000000000e+00 0.0000000000e+00 0.0000000000e+00 0.0000000000e+00 0.0000000000e+00 0.0000000000e+00 0.0000000000e+00 0.0000000000e+00 0.0000000000e+00 0.0000000000e+00 0.0000000000e+00 0.0000000000e+00 0.0000000000e+00 0.0000000000e+00 0.0000000000e+00 0.0000000000e+00 0.0000000000e+00 0.0000000000e+00 0.0000000000e+00 0.0000000000e+00 0.0000000000e+00 0.0000000000e+00 0.0000000000e+00 0.0000000000e+00 0.0000000000e+00 0.0000000000e+00 0.0000000000e+00 0.0000000000e+00 0.0000000000e+00 0.0000000000e+00 0.0000000000e+00 0.0000000000e+00 0.0000000000e+00 0.0000000000e+00 0.0000000000e+00 0.0000000000e+00 0.0000000000e+00 0.0000000000e+00 0.0000000000e+00 0.0000000000e+00 0.0000000000e+00 0.0000000000e+00 0.0000000000e+00 0.0000000000e+00 0.0000000000e+00 0.0000000000e+00 0.0000000000e+00 0.0000000000e+00 0.0000000000e+00 0.0000000000e+00 0.0000000000e+00 0.0000000000e+00 0.0000000000e+00 0.0000000000e+00 0.0000000000e+00 0.0000000000e+00 0.0000000000e+00 0.0000000000e+00 0.0000000000e+00 0.0000000000e+00 0.0000000000e+00 0.0000000000e+00 0.0000000000e+00 0.0000000000e+00 0.0000000000e+00 0.0000000000e+00 0.0000000000e+00 0.0000000000e+00 0.0000000000e+00 0.0000000000e+00 0.0000000000e+00 0.0000000000e+00 0.0000000000e+00 0.0000000000e+00 0.0000000000e+00 0.0000000000e+00 0.0000000000e+00 0.0000000000e+00 0.0000000000e+00 0.0000000000e+00 0.0000000000e+00 0.0000000000e+00 0.0000000000e+00 0.0000000000e+00 0.0000000000e+00 0.0000000000e+00 0.0000000000e+00 0.0000000000e+00 0.0000000000e+00 0.0000000000e+00 0.0000000000e+00 0.0000000000e+00 0.0000000000e+00 0.0000000000e+00 0.0000000000e+00 0.0000000000e+00 0.0000000000e+00 0.0000000000e+00 0.0000000000e+00 0.0000000000e+00 0.0000000000e+00 0.0000000000e+00 0.0000000000e+00 0.0000000000e+00 0.0000000000e+00 0.0000000000e+00 0.0000000000e+00 0.0000000000e+00 0.0000000000e+00 0.0000000000e+00 0.0000000000e+00 0.0000000000e+00 0.0000000000e+00 0.0000000000e+00 0.0000000000e+00 0.0000000000e+00 0.0000000000e+00 0.0000000000e+00 0.0000000000e+00 0.0000000000e+00 0.0000000000e+00 0.0000000000e+00 0.0000000000e+00 0.0000000000e+00 0.0000000000e+00 0.0000000000e+00 0.0000000000e+00 0.0000000000e+00 0.0000000000e+00 0.0000000000e+00 0.0000000000e+00 0.0000000000e+00 0.0000000000e+00 0.0000000000e+00 0.0000000000e+00 0.0000000000e+00 0.0000000000e+00 0.0000000000e+00 0.0000000000e+00 0.0000000000e+00 0.0000000000e+00 0.0000000000e+00 0.0000000000e+00 0.0000000000e+00 0.0000000000e+00 0.0000000000e+00 0.0000000000e+00 0.0000000000e+00 0.0000000000e+00 0.0000000000e+00 0.0000000000e+00 0.0000000000e+00 0.0000000000e+00 0.0000000000e+00 0.0000000000e+00 0.0000000000e+00 0.0000000000e+00 0.0000000000e+00 0.0000000000e+00 0.0000000000e+00 0.0000000000e+00 0.0000000000e+00 0.0000000000e+00 0.0000000000e+00 0.0000000000e+00 0.0000000000e+00 0.0000000000e+00 0.0000000000e+00 0.0000000000e+00 0.0000000000e+00 0.0000000000e+00 0.0000000000e+00 0.0000000000e+00 0.0000000000e+00 0.0000000000e+00 0.0000000000e+00 0.0000000000e+00 0.0000000000e+00 0.0000000000e+00 0.0000000000e+00 0.0000000000e+00 0.0000000000e+00 0.0000000000e+00 0.0000000000e+00 0.0000000000e+00 0.0000000000e+00 0.0000000000e+00 0.0000000000e+00 0.0000000000e+00 0.0000000000e+00 0.0000000000e+00 0.0000000000e+00 0.0000000000e+00 0.0000000000e+00 0.0000000000e+00 0.0000000000e+00 0.0000000000e+00 0.0000000000e+00 0.0000000000e+00 0.0000000000e+00 0.0000000000e+00 0.0000000000e+00 0.0000000000e+00 0.0000000000e+00 0.0000000000e+00 0.0000000000e+00 0.0000000000e+00 0.0000000000e+00 0.0000000000e+00 0.0000000000e+00 0.0000000000e+00 0.0000000000e+00 0.0000000000e+00 0.0000000000e+00 0.0000000000e+00 0.0000000000e+00 0.0000000000e+00 0.0000000000e+00 0.0000000000e+00 0.0000000000e+00 0.0000000000e+00 0.0000000000e+00 0.0000000000e+00 0.0000000000e+00 0.0000000000e+00 0.0000000000e+00 0.0000000000e+00 0.0000000000e+00 0.0000000000e+00 0.0000000000e+00 0.0000000000e+00 0.0000000000e+00 0.0000000000e+00 0.0000000000e+00 0.0000000000e+00 0.0000000000e+00 0.0000000000e+00 0.0000000000e+00 0.0000000000e+00 0.0000000000e+00 0.0000000000e+00 0.0000000000e+00 0.0000000000e+00 0.0000000000e+00 0.0000000000e+00 0.0000000000e+00 0.0000000000e+00 0.0000000000e+00 0.0000000000e+00 0.0000000000e+00 0.0000000000e+00 0.0000000000e+00 0.0000000000e+00 0.0000000000e+00 0.0000000000e+00 0.0000000000e+00 0.0000000000e+00 0.0000000000e+00 0.0000000000e+00 0.0000000000e+00 0.0000000000e+00 0.0000000000e+00 0.0000000000e+00 0.0000000000e+00 0.0000000000e+00 0.0000000000e+00 0.0000000000e+00 0.0000000000e+00 0.0000000000e+00 0.0000000000e+00 0.0000000000e+00 0.0000000000e+00 0.0000000000e+00 0.0000000000e+00 0.0000000000e+00 0.0000000000e+00 0.0000000000e+00 0.0000000000e+00 0.0000000000e+00 0.0000000000e+00 0.0000000000e+00 0.0000000000e+00 0.0000000000e+00 0.0000000000e+00 0.0000000000e+00 0.0000000000e+00 0.0000000000e+00 0.0000000000e+00 0.0000000000e+00 0.0000000000e+00 0.0000000000e+00 0.0000000000e+00 0.0000000000e+00 0.0000000000e+00 0.0000000000e+00 0.0000000000e+00 0.0000000000e+00 0.0000000000e+00 0.0000000000e+00 0.0000000000e+00 0.0000000000e+00 0.0000000000e+00 0.0000000000e+00 0.0000000000e+00 0.0000000000e+00 0.0000000000e+00 0.0000000000e+00 0.0000000000e+00 0.0000000000e+00 0.0000000000e+00 0.0000000000e+00 0.0000000000e+00 0.0000000000e+00 0.0000000000e+00 0.0000000000e+00 0.0000000000e+00 0.0000000000e+00 0.0000000000e+00 0.0000000000e+00 0.0000000000e+00 0.0000000000e+00 0.0000000000e+00 0.0000000000e+00 0.0000000000e+00 0.0000000000e+00 0.0000000000e+00 0.0000000000e+00 0.0000000000e+00 0.0000000000e+00 0.0000000000e+00 0.0000000000e+00 0.0000000000e+00 0.0000000000e+00 0.0000000000e+00 0.0000000000e+00 0.0000000000e+00 0.0000000000e+00 0.0000000000e+00 0.0000000000e+00 0.0000000000e+00 0.0000000000e+00 0.0000000000e+00 0.0000000000e+00 0.0000000000e+00 0.0000000000e+00 0.0000000000e+00 0.0000000000e+00 0.0000000000e+00 0.0000000000e+00 0.0000000000e+00 0.0000000000e+00 0.0000000000e+00 0.0000000000e+00 0.0000000000e+00 0.0000000000e+00 0.0000000000e+00 0.0000000000e+00 0.0000000000e+00 0.0000000000e+00 0.0000000000e+00 0.0000000000e+00 0.0000000000e+00 0.0000000000e+00 0.0000000000e+00 0.0000000000e+00 0.0000000000e+00 0.0000000000e+00 0.0000000000e+00 0.0000000000e+00 0.0000000000e+00 0.0000000000e+00 0.0000000000e+00 0.0000000000e+00 0.0000000000e+00 0.0000000000e+00 0.0000000000e+00 0.0000000000e+00 0.0000000000e+00 0.0000000000e+00 0.0000000000e+00 0.0000000000e+00 0.0000000000e+00 0.0000000000e+00 0.0000000000e+00 0.0000000000e+00 0.0000000000e+00 0.0000000000e+00 0.0000000000e+00 0.0000000000e+00 0.0000000000e+00 0.0000000000e+00 0.0000000000e+00 0.0000000000e+00 0.0000000000e+00 0.0000000000e+00 0.0000000000e+00 0.0000000000e+00 0.0000000000e+00 0.0000000000e+00 0.0000000000e+00 0.0000000000e+00 0.0000000000e+00 0.0000000000e+00 0.0000000000e+00 0.0000000000e+00 0.0000000000e+00 0.0000000000e+00 0.0000000000e+00 0.0000000000e+00 0.0000000000e+00 0.0000000000e+00 0.0000000000e+00 0.0000000000e+00 0.0000000000e+00 0.0000000000e+00 0.0000000000e+00 0.0000000000e+00 0.0000000000e+00 0.0000000000e+00 0.0000000000e+00 0.0000000000e+00 0.0000000000e+00 0.0000000000e+00 0.0000000000e+00 0.0000000000e+00 0.0000000000e+00 0.0000000000e+00 0.0000000000e+00 0.0000000000e+00 0.0000000000e+00 0.0000000000e+00 0.0000000000e+00 0.0000000000e+00 0.0000000000e+00 0.0000000000e+00 0.0000000000e+00 0.0000000000e+00 0.0000000000e+00 0.0000000000e+00 0.0000000000e+00 0.0000000000e+00 0.0000000000e+00 0.0000000000e+00 0.0000000000e+00 0.0000000000e+00 0.0000000000e+00 0.0000000000e+00 0.0000000000e+00 0.0000000000e+00 0.0000000000e+00 0.0000000000e+00 0.0000000000e+00 0.0000000000e+00 0.0000000000e+00 0.0000000000e+00 0.0000000000e+00 0.0000000000e+00 0.0000000000e+00 0.0000000000e+00 0.0000000000e+00 0.0000000000e+00 0.0000000000e+00 0.0000000000e+00 0.0000000000e+00 0.0000000000e+00 0.0000000000e+00 0.0000000000e+00 0.0000000000e+00
        </DataArray>
        <DataArray type="Float64" Name="force" NumberOfComponents="3" format="ascii">
          -1.0852885939e-02 -1.0839693577e-03 0.0000000000e+00 -8.6026829053e-03 2.1504755584e-03 0.0000000000e+00 -1.2301373098e-02 -6.6906085985e-04 0.0000000000e+00 9.8620155995e-04 1.1776721966e-02 0.0000000000e+00 -1.3365664504e-02 -1.5100061381e-03 0.0000000000e+00 1.7601139911e-03 1.0623082050e-02 0.0000000000e+00 -8.4002284368e-03 3.0569224173e-03 0.0000000000e+00 -3.8808141729e-05 7.8126891451e-03 0.0000000000e+00 -4.8458776586e-03 5.5198198534e-03 0.0000000000e+00 -1.7991206323e-03 6.6362014875e-03 0.0000000000e+00 -2.5853288087e-03 6.4179305374e-03 0.0000000000e+00 -1.6902792116e-03 6.6892484089e-03 0.0000000000e+00 -2.3020147924e-03 6.5269001899e-03 0.0000000000e+00 -1.7286624309e-03 6.6513961124e-03 0.0000000000e+00 -1.6069171218e-03 6.7142419093e-03 0.0000000000e+00 -1.3893753301e-03 6.8412052215e-03 0.0000000000e+00 -1.2452071054e-03 6.8953898464e-03 0.0000000000e+00 -1.2583646042e-03 6.9024664167e-03 0.0000000000e+00 -1.0921840334e-03 6.9241206476e-03 0.0000000000e+00 -1.0548253970e-03 6.9337260263e-03 0.0000000000e+00 -1.0340807245e-03 6.9539961975e-03 0.0000000000e+00 -8.9544255865e-04 7.0004703294e-03 0.0000000000e+00 -7.4809338981e-04 7.0549739029e-03 0.0000000000e+00 -6.8045338248e-04 7.1042693011e-03 0.0000000000e+00 -6.1433063596e-04 7.1417305766e-03 0.0000000000e+00 -5.5399094578e-04 7.1741268405e-03 0.0000000000e+00 -4.9411159764e-04 7.2023942214e-03 0.0000000000e+00 -4.3731052407e-04 7.2275874437e-03 0.0000000000e+00 -3.8231088627e-04 7.2521918376e-03 0.0000000000e+00 -3.2993278955e-04 7.2728478505e-03 0.0000000000e+00 -2.7928509525e-04 7.2954854080e-03 0.0000000000e+00 -2.3076455435e-04 7.3104253180e-03 0.0000000000e+00 -1.8401063016e-04 7.3463224028e-03 0.0000000000e+00 -1.3922180545e-04 7.3559202582e-03 0.0000000000e+00 -9.5618131407e-05 7.3772221807e-03 0.0000000000e+00 -5.4097210921e-05 7.4017963183e-03 0.0000000000e+00 -1.3809359894e-05 7.4208587516e-03 0.0000000000e+00 2.4802706850e-05 7.4412952875e-03 0.0000000000e+00 6.2433779638e-05 7.4589085542e-03 0.0000000000e+00 9.8855711175e-05 7.4766701072e-03 0.0000000000e+00 1.3465952209e-04 7.4928352046e-03 0.0000000000e+00 1.6987063938e-04 7.5086784991e-03 0.0000000000e+00 2.0520500121e-04 7.5232543989e-03 0.0000000000e+00 2.4155908916e-04 7.5373400512e-03 0.0000000000e+00 2.8458764119e-04 7.5486672302e-03 0.0000000000e+00 3.5885939759e-04 7.5603884130e-03 0.0000000000e+00 4.2239854370e-04 7.5763650733e-03 0.0000000000e+00 3.7196115025e-04 7.6033611772e-03 0.0000000000e+00 4.0558364906e-04 7.6293618217e-03 0.0000000000e+00 4.1220219196e-04 7.6526367383e-03 0.0000000000e+00 4.5228040170e-04 7.6716174360e-03 0.0000000000e+00 4.6211066828e-04 7.6891551185e-03 0.0000000000e+00 5.0682666173e-04 7.7040145563e-03 0.0000000000e+00 5.3437666094e-04 7.7150504196e-03 0.0000000000e+00 5.3568046035e-04 7.7227976986e-03 0.0000000000e+00 5.7381781947e-04 7.7270446875e-03 0.0000000000e+00 5.9253363156e-04 7.7289685199e-03 0.0000000000e+00 6.6074124201e-04 7.7234673258e-03 0.0000000000e+00 7.8436371754e-04 7.7223104784e-03 0.0000000000e+00 7.2310209549e-04 7.7517718951e-03 0.0000000000e+00 6.7762381369e-04 7.7882335386e-03 0.0000000000e+00 7.0782620032e-04 7.8160939547e-03 0.0000000000e+00 7.1222685923e-04 7.8377073573e-03 0.0000000000e+00 7.9502350381e-04 7.8460767977e-03 0.0000000000e+00 7.3926594438e-04 7.8525740191e-03 0.0000000000e+00 8.0003175467e-04 7.8452089881e-03 0.0000000000e+00 8.0826831065e-04 7.8316210522e-03 0.0000000000e+00 1.0129812463e-03 7.8144006998e-03 0.0000000000e+00 9.2651475240e-04 7.8451391001e-03 0.0000000000e+00 8.5907244655e-04 7.8843902004e-03 0.0000000000e+00 8.5245153943e-04 7.9241889755e-03 0.0000000000e+00 9.4310958402e-04 7.9351679619e-03 0.0000000000e+00 9.1787637533e-04 7.9457179768e-03 0.0000000000e+00 9.0954758351e-04 7.9322617528e-03 0.0000000000e+00 9.9881310592e-04 7.9058855593e-03 0.0000000000e+00 1.1567505616e-03 7.8870422396e-03 0.0000000000e+00 1.0652581082e-03 7.9244953122e-03 0.0000000000e+00 9.6227295586e-04 7.9694558763e-03 0.0000000000e+00 1.0209033511e-03 8.0106075270e-03 0.0000000000e+00 1.0764130880e-03 8.0065811623e-03 0.0000000000e+00 1.0064652069e-03 8.0127869289e-03 0.0000000000e+00 1.0929843581e-03 7.9673526392e-03 0.0000000000e+00 1.2601827566e-03 7.9554950546e-03 0.0000000000e+00 1.2237097427e-03 7.9676585637e-03 0.0000000000e+00 1.0336940540e-03 8.0416236392e-03 0.0000000000e+00 1.1505589351e-03 8.0672114398e-03 0.0000000000e+00 1.1589859569e-03 8.0800246914e-03 0.0000000000e+00 1.0925990513e-03 8.0562397688e-03 0.0000000000e+00 1.2855036369e-03 8.0153287869e-03 0.0000000000e+00 1.3855537778e-03 8.0055492877e-03 0.0000000000e+00 1.1823800011e-03 8.0531400179e-03 0.0000000000e+00 1.1653399584e-03 8.1226274478e-03 0.0000000000e+00 1.2775437810e-03 8.1229671615e-03 0.0000000000e+00 1.1686169261e-03 8.1262151353e-03 0.0000000000e+00 1.3085591487e-03 8.0684912498e-03 0.0000000000e+00 1.4535112225e-03 8.0481674897e-03 0.0000000000e+00 1.3445487967e-03 8.0831855880e-03 0.0000000000e+00 1.1935225877e-03 8.1628857010e-03 0.0000000000e+00 1.3628782212e-03 8.1709568479e-03 0.0000000000e+00 1.2337733470e-03 8.1680138828e-03 0.0000000000e+00 1.3884344301e-03 8.1124230152e-03 0.0000000000e+00 1.5417169710e-03 8.0830415845e-03 0.0000000000e+00 1.3686029822e-03 8.1330025160e-03 0.0000000000e+00 1.2896961605e-03 8.2082549183e-03 0.0000000000e+00 1.4170401276e-03 8.2148569755e-03 0.0000000000e+00 1.2911254761e-03 8.1937099212e-03 0.0000000000e+00 1.5043225133e-03 8.1402220503e-03 0.0000000000e+00 1.6436747013e-03 8.1195953175e-03 0.0000000000e+00 1.2902856413e-03 8.2020057991e-03 0.0000000000e+00 1.4572645564e-03 8.2488944892e-03 0.0000000000e+00 1.4037120404e-03 8.2522802618e-03 0.0000000000e+00 1.4204963280e-03 8.2025766519e-03 0.0000000000e+00 1.6298742304e-03 8.1526487614e-03 0.0000000000e+00 1.6114541706e-03 8.1801943188e-03 0.0000000000e+00 1.3261570210e-03 8.2751529488e-03 0.0000000000e+00 1.5685967664e-03 8.2801533380e-03 0.0000000000e+00 1.3713206068e-03 8.2618149305e-03 0.0000000000e+00 1.6453052261e-03 8.1954372530e-03 0.0000000000e+00 1.7543794885e-03 8.1819103070e-03 0.0000000000e+00 1.3473641414e-03 8.2804120742e-03 0.0000000000e+00 1.6147415646e-03 8.3082689805e-03 0.0000000000e+00 1.4347645297e-03 8.3039213865e-03 0.0000000000e+00 1.6311459630e-03 8.2359314638e-03 0.0000000000e+00 1.8182363898e-03 8.1959347975e-03 0.0000000000e+00 1.4436030853e-03 8.2860773661e-03 0.0000000000e+00 1.6142106718e-03 8.3343062481e-03 0.0000000000e+00 1.5192280601e-03 8.3331199810e-03 0.0000000000e+00 1.6180942480e-03 8.2699768168e-03 0.0000000000e+00 1.8723856106e-03 8.2141291084e-03 0.0000000000e+00 1.5216449953e-03 8.2996468133e-03 0.0000000000e+00 1.6302402202e-03 8.3570849850e-03 0.0000000000e+00 1.5765573497e-03 8.3568237607e-03 0.0000000000e+00 1.6395334289e-03 8.2940715186e-03 0.0000000000e+00 1.9317664858e-03 8.2320796056e-03 0.0000000000e+00 1.5420742608e-03 8.3239117183e-03 0.0000000000e+00 1.6912343004e-03 8.3759820092e-03 0.0000000000e+00 1.5846516089e-03 8.3789387921e-03 0.0000000000e+00 1.7218583132e-03 8.3049426101e-03 0.0000000000e+00 1.9716093371e-03 8.2527708821e-03 0.0000000000e+00 1.5283909181e-03 8.3561520664e-03 0.0000000000e+00 1.7798193643e-03 8.3925057362e-03 0.0000000000e+00 1.5609178059e-03 8.3972101660e-03 0.0000000000e+00 1.8539672036e-03 8.3030688160e-03 0.0000000000e+00 1.9666434466e-03 8.2816976776e-03 0.0000000000e+00 1.5312044813e-03 8.3922500218e-03 0.0000000000e+00 1.8643066801e-03 8.4072635640e-03 0.0000000000e+00 1.5262264209e-03 8.4070341640e-03 0.0000000000e+00 2.0376308383e-03 8.2898845012e-03 0.0000000000e+00 1.8521062502e-03 8.3284374253e-03 0.0000000000e+00 1.6599272589e-03 8.4173598909e-03 0.0000000000e+00 1.8135277823e-03 8.4321816005e-03 0.0000000000e+00 1.6513760481e-03 8.3878032451e-03 0.0000000000e+00 2.1336439468e-03 8.2883084669e-03 0.0000000000e+00 1.7063112995e-03 8.3833504093e-03 0.0000000000e+00 1.8416479455e-03 8.4351541622e-03 0.0000000000e+00 1.6671711830e-03 8.4498228442e-03 0.0000000000e+00 1.9654747098e-03 8.3440442970e-03 0.0000000000e+00 2.0516647550e-03 8.3243733210e-03 0.0000000000e+00 1.6579334925e-03 8.4342553138e-03 0.0000000000e+00 1.9428662023e-03 8.4513849244e-03 0.0000000000e+00 1.6339637701e-03 8.4344817207e-03 0.0000000000e+00 2.2229731519e-03 8.3079727825e-03 0.0000000000e+00 1.8051297652e-03 8.3953597627e-03 0.0000000000e+00 1.8941515022e-03 8.4525669932e-03 0.0000000000e+00 1.7226189898e-03 8.4753616106e-03 0.0000000000e+00 2.0489232225e-03 8.3609529723e-03 0.0000000000e+00 2.0908420863e-03 8.3459907380e-03 0.0000000000e+00 1.7566370509e-03 8.4523207270e-03 0.0000000000e+00 1.9579637028e-03 8.4749384822e-03 0.0000000000e+00 1.7623410831e-03 8.4360356237e-03 0.0000000000e+00 2.2923179531e-03 8.3195115221e-03 0.0000000000e+00 1.8032114101e-03 8.4292298640e-03 0.0000000000e+00 2.0119275986e-03 8.4694597464e-03 0.0000000000e+00 1.7223965181e-03 8.4830764688e-03 0.0000000000e+00 2.2684027531e-03 8.3401678360e-03 0.0000000000e+00 1.9862063131e-03 8.3920790954e-03 0.0000000000e+00 1.9580003667e-03 8.4662370351e-03 0.0000000000e+00 1.8216384921e-03 8.4964310644e-03 0.0000000000e+00 2.1559735759e-03 8.3757682307e-03 0.0000000000e+00 2.1599677315e-03 8.3567747088e-03 0.0000000000e+00 1.9196933405e-03 8.4566006858e-03 0.0000000000e+00 1.9459752811e-03 8.4906428060e-03 0.0000000000e+00 2.0329986551e-03 8.4072486544e-03 0.0000000000e+00 2.3004358855e-03 8.3234933159e-03 0.0000000000e+00 1.9297160639e-03 8.4314331627e-03 0.0000000000e+00 2.0301401915e-03 8.4727065790e-03 0.0000000000e+00 1.9685526617e-03 8.4181019332e-03 0.0000000000e+00 2.3655038434e-03 8.2851491913e-03 0.0000000000e+00 2.0462190708e-03 8.3650153660e-03 0.0000000000e+00 1.9750848548e-03 8.4451342714e-03 0.0000000000e+00 2.0319403763e-03 8.3980576808e-03 0.0000000000e+00 2.3757151138e-03 8.2137552983e-03 0.0000000000e+00 2.2616851882e-03 8.1667631299e-03 0.0000000000e+00 1.7278730941e-03 8.4576168367e-03 0.0000000000e+00 2.3123764735e-03 8.1823899015e-03 0.0000000000e+00 1.1056825902e-03 9.1768427271e-03 0.0000000000e+00 3.2796521984e-03 9.6772123719e-03 0.0000000000e+00 4.7955997413e-06 1.3752856996e-02 0.0000000000e+00 8.5150850466e-03 1.0134967785e-02 0.0000000000e+00 -2.7118648532e-04 1.3975340120e-04 0.0000000000e+00 -1.6197022137e-03 -1.0870850470e-02 0.0000000000e+00 3.7910242007e-04 -1.3881422881e-02 0.0000000000e+00 -5.0363707925e-04 -9.6914948238e-03 0.0000000000e+00 -8.1218233686e-04 -9.4715822603e-03 0.0000000000e+00 2.3041307855e-04 -8.3550420433e-03 0.0000000000e+00 4.3345213888e-05 -8.6925036079e-03 0.0000000000e+00 2.2321022766e-04 -8.3574222468e-03 0.0000000000e+00 3.2836879334e-04 -8.6021218221e-03 0.0000000000e+00 1.7988072691e-04 -8.6589215371e-03 0.0000000000e+00 9.1698416677e-05 -8.6508612597e-03 0.0000000000e+00 1.5523934369e-04 -8.6069773450e-03 0.0000000000e+00 2.4339810135e-04 -8.6491348932e-03 0.0000000000e+00 1.5933641057e-04 -8.6929851139e-03 0.0000000000e+00 1.1121667605e-04 -8.6875421429e-03 0.0000000000e+00 1.2621679301e-04 -8.6730260936e-03 0.0000000000e+00 1.6392962331e-04 -8.6860429480e-03 0.0000000000e+00 1.3548418062e-04 -8.6935482844e-03 0.0000000000e+00 1.0599655788e-04 -8.7058084955e-03 0.0000000000e+00 1.0307552233e-04 -8.7061813399e-03 0.0000000000e+00 1.1396935475e-04 -8.6930605986e-03 0.0000000000e+00 1.0277889380e-04 -8.7152456540e-03 0.0000000000e+00 8.8317136932e-05 -8.7120614555e-03 0.0000000000e+00 7.9937747155e-05 -8.7189682304e-03 0.0000000000e+00 7.8828952322e-05 -8.7174089397e-03 0.0000000000e+00 7.2561380816e-05 -8.7229988756e-03 0.0000000000e+00 6.3395318832e-05 -8.7236856118e-03 0.0000000000e+00 5.5303748921e-05 -8.7252081741e-03 0.0000000000e+00 5.0187365376e-05 -8.7256691477e-03 0.0000000000e+00 4.4645660183e-05 -8.7268244139e-03 0.0000000000e+00 3.7615519397e-05 -8.7278785770e-03 0.0000000000e+00 3.0432662197e-05 -8.7286360652e-03 0.0000000000e+00 2.4173467733e-05 -8.7289683246e-03 0.0000000000e+00 1.8230309963e-05 -8.7295569520e-03 0.0000000000e+00 1.1765577143e-05 -8.7300774706e-03 0.0000000000e+00 4.9713241359e-06 -8.7304880467e-03 0.0000000000e+00 -1.6719683085e-06 -8.7309343180e-03 0.0000000000e+00 -8.0779313810e-06 -8.7310260192e-03 0.0000000000e+00 -1.4562345874e-05 -8.7312292374e-03 0.0000000000e+00 -2.1231715054e-05 -8.7315221336e-03 0.0000000000e+00 -2.7841577001e-05 -8.7315912054e-03 0.0000000000e+00 -3.4432323695e-05 -8.7316230071e-03 0.0000000000e+00 -4.1005451719e-05 -8.7315715634e-03 0.0000000000e+00 -4.7691305182e-05 -8.7316564840e-03 0.0000000000e+00 -5.4452406541e-05 -8.7316739732e-03 0.0000000000e+00 -6.1258643514e-05 -8.7315340805e-03 0.0000000000e+00 -6.8064123045e-05 -8.7314349196e-03 0.0000000000e+00 -7.4934624277e-05 -8.7313205652e-03 0.0000000000e+00 -8.1831238389e-05 -8.7311262724e-03 0.0000000000e+00 -8.8822978673e-05 -8.7306578141e-03 0.0000000000e+00 -9.5772712283e-05 -8.7305004467e-03 0.0000000000e+00 -1.0286273185e-04 -8.7296068190e-03 0.0000000000e+00 -1.0982599265e-04 -8.7296528142e-03 0.0000000000e+00 -1.1706125878e-04 -8.7277863334e-03 0.0000000000e+00 -1.2398244334e-04 -8.7282382827e-03 0.0000000000e+00 -1.3139890377e-04 -8.7245424359e-03 0.0000000000e+00 -1.3821754016e-04 -8.7260996207e-03 0.0000000000e+00 -1.4589730353e-04 -8.7173907000e-03 0.0000000000e+00 -1.5265701080e-04 -8.7201252560e-03 0.0000000000e+00 -1.5998209673e-04 -8.7311447965e-03 0.0000000000e+00 -1.6728031436e-04 -8.7131497196e-03 0.0000000000e+00 -1.7471472793e-04 -8.7245875914e-03 0.0000000000e+00 -1.8176098354e-04 -8.7224520367e-03 0.0000000000e+00 -1.8927265252e-04 -8.7276508495e-03 0.0000000000e+00 -1.9646251554e-04 -8.7268318203e-03 0.0000000000e+00 -2.0399782235e-04 -8.7292113554e-03 0.0000000000e+00 -2.1134687578e-04 -8.7292082860e-03 0.0000000000e+00 -2.1892620982e-04 -8.7303956275e-03 0.0000000000e+00 -2.2643228723e-04 -8.7310767883e-03 0.0000000000e+00 -2.3408454548e-04 -8.7317658531e-03 0.0000000000e+00 -2.4171557007e-04 -8.7324407528e-03 0.0000000000e+00 -2.4946585171e-04 -8.7332653401e-03 0.0000000000e+00 -2.5720565781e-04 -8.7338916877e-03 0.0000000000e+00 -2.6504394728e-04 -8.7346983138e-03 0.0000000000e+00 -2.7286550364e-04 -8.7353107531e-03 0.0000000000e+00 -2.8077912086e-04 -8.7361503525e-03 0.0000000000e+00 -2.8862695275e-04 -8.7371548509e-03 0.0000000000e+00 -2.9657976562e-04 -8.7377625686e-03 0.0000000000e+00 -3.0426477549e-04 -8.7386571660e-03 0.0000000000e+00 -3.1302051413e-04 -8.7395968411e-03 0.0000000000e+00 -3.2023516435e-04 -8.7403762676e-03 0.0000000000e+00 -3.2879562614e-04 -8.7413020395e-03 0.0000000000e+00 -3.3648060517e-04 -8.7420788107e-03 0.0000000000e+00 -3.4545752507e-04 -8.7430552909e-03 0.0000000000e+00 -3.5285446219e-04 -8.7440150561e-03 0.0000000000e+00 -3.6241304552e-04 -8.7442945744e-03 0.0000000000e+00 -3.7083680308e-04 -8.7444303517e-03 0.0000000000e+00 -3.8015960291e-04 -8.7444612425e-03 0.0000000000e+00 -3.8918181295e-04 -8.7442997119e-03 0.0000000000e+00 -3.9850858209e-04 -8.7438984107e-03 0.0000000000e+00 -4.0770186508e-04 -8.7427799733e-03 0.0000000000e+00 -4.1699762832e-04 -8.7417317046e-03 0.0000000000e+00 -4.2624866081e-04 -8.7392572418e-03 0.0000000000e+00 -4.3548368684e-04 -8.7374585328e-03 0.0000000000e+00 -4.4510432419e-04 -8.7315714218e-03 0.0000000000e+00 -4.5458514034e-04 -8.7290515332e-03 0.0000000000e+00 -4.6791327555e-04 -8.7168167669e-03 0.0000000000e+00 -4.8285000996e-04 -8.7132191944e-03 0.0000000000e+00 -5.4105161787e-04 -8.6912378300e-03 0.0000000000e+00 -5.5131491952e-04 -8.7027753549e-03 0.0000000000e+00 -5.2718190498e-04 -8.7079670997e-03 0.0000000000e+00 -5.3589854159e-04 -8.7008445648e-03 0.0000000000e+00 -5.4419604782e-04 -8.7206687684e-03 0.0000000000e+00 -5.5617565565e-04 -8.7212765967e-03 0.0000000000e+00 -5.6725013926e-04 -8.7325851121e-03 0.0000000000e+00 -5.7835204360e-04 -8.7349774271e-03 0.0000000000e+00 -5.8898597063e-04 -8.7422266822e-03 0.0000000000e+00 -5.9906729406e-04 -8.7455559442e-03 0.0000000000e+00 -6.1128465752e-04 -8.7514107102e-03 0.0000000000e+00 -6.1975338302e-04 -8.7542879615e-03 0.0000000000e+00 -6.3435761460e-04 -8.7550696987e-03 0.0000000000e+00 -6.4410587236e-04 -8.7544821746e-03 0.0000000000e+00 -6.5689163411e-04 -8.7522302550e-03 0.0000000000e+00 -6.6771481887e-04 -8.7473740830e-03 0.0000000000e+00 -6.7980237069e-04 -8.7391069825e-03 0.0000000000e+00 -6.9773207577e-04 -8.7248679027e-03 0.0000000000e+00 -7.5506169903e-04 -8.7071656006e-03 0.0000000000e+00 -8.3623125227e-04 -8.6961675522e-03 0.0000000000e+00 -7.7510925097e-04 -8.7060794505e-03 0.0000000000e+00 -7.7924358652e-04 -8.7225318908e-03 0.0000000000e+00 -7.7933844484e-04 -8.7372762556e-03 0.0000000000e+00 -8.0861409115e-04 -8.7485322945e-03 0.0000000000e+00 -8.0542035488e-04 -8.7591917438e-03 0.0000000000e+00 -8.4121267817e-04 -8.7680763754e-03 0.0000000000e+00 -8.3021138041e-04 -8.7753340931e-03 0.0000000000e+00 -8.7288295146e-04 -8.7720844472e-03 0.0000000000e+00 -8.5106384400e-04 -8.7681803760e-03 0.0000000000e+00 -9.0820474191e-04 -8.7547121457e-03 0.0000000000e+00 -8.6918278386e-04 -8.7341836109e-03 0.0000000000e+00 -1.0532305505e-03 -8.7026608330e-03 0.0000000000e+00 -1.0586971121e-03 -8.6985249896e-03 0.0000000000e+00 -9.9683421248e-04 -8.7189954672e-03 0.0000000000e+00 -1.0000977677e-03 -8.7479092736e-03 0.0000000000e+00 -1.0125705608e-03 -8.7683011945e-03 0.0000000000e+00 -1.0463983171e-03 -8.7844275586e-03 0.0000000000e+00 -1.0490091313e-03 -8.7975777779e-03 0.0000000000e+00 -1.0721164913e-03 -8.7906763507e-03 0.0000000000e+00 -1.0881558314e-03 -8.7783590833e-03 0.0000000000e+00 -1.0763992688e-03 -8.7470149192e-03 0.0000000000e+00 -1.2979330468e-03 -8.7047665842e-03 0.0000000000e+00 -1.3045234374e-03 -8.7072968195e-03 0.0000000000e+00 -1.2028805747e-03 -8.7357121409e-03 0.0000000000e+00 -1.2133993419e-03 -8.7831973450e-03 0.0000000000e+00 -1.2638512260e-03 -8.8003735746e-03 0.0000000000e+00 -1.2544083715e-03 -8.8243338555e-03 0.0000000000e+00 -1.3000539748e-03 -8.8002066557e-03 0.0000000000e+00 -1.2626629690e-03 -8.7804553906e-03 0.0000000000e+00 -1.4947400219e-03 -8.7188670216e-03 0.0000000000e+00 -1.5831575920e-03 -8.7134884117e-03 0.0000000000e+00 -1.3997568454e-03 -8.7563993538e-03 0.0000000000e+00 -1.4631889748e-03 -8.8187175562e-03 0.0000000000e+00 -1.4542029858e-03 -8.8450351809e-03 0.0000000000e+00 -1.5090216374e-03 -8.8520064531e-03 0.0000000000e+00 -1.4883881409e-03 -8.7912186064e-03 0.0000000000e+00 -1.7355487191e-03 -8.7469124809e-03 0.0000000000e+00 -1.8457440805e-03 -8.7336688311e-03 0.0000000000e+00 -1.5987525748e-03 -8.8091490095e-03 0.0000000000e+00 -1.7085662003e-03 -8.8709077651e-03 0.0000000000e+00 -1.6857607286e-03 -8.8946851952e-03 0.0000000000e+00 -1.7357090893e-03 -8.8215675106e-03 0.0000000000e+00 -1.9862680823e-03 -8.7680540060e-03 0.0000000000e+00 -2.0924791912e-03 -8.7656958133e-03 0.0000000000e+00 -1.8755666871e-03 -8.8482788224e-03 0.0000000000e+00 -1.8774986952e-03 -8.9462132491e-03 0.0000000000e+00 -1.9652126826e-03 -8.8742982522e-03 0.0000000000e+00 -2.1968383103e-03 -8.8053477130e-03 0.0000000000e+00 -2.3714037228e-03 -8.7876429908e-03 0.0000000000e+00 -2.1987055793e-03 -8.8623836689e-03 0.0000000000e+00 -2.0294030893e-03 -9.0155201580e-03 0.0000000000e+00 -2.3799618225e-03 -8.8459109498e-03 0.0000000000e+00 -2.4545475598e-03 -8.8534344043e-03 0.0000000000e+00 -2.8214032791e-03 -8.7854973109e-03 0.0000000000e+00 -2.1570917211e-03 -9.0579627446e-03 0.0000000000e+00 -2.6452745163e-03 -8.9052530958e-03 0.0000000000e+00 -2.7227255816e-03 -8.8760525396e-03 0.0000000000e+00 -3.2601330342e-03 -8.8227632305e-03 0.0000000000e+00 -2.3061419458e-03 -9.0670352549e-03 0.0000000000e+00 -3.1028645000e-03 -8.9872127239e-03 0.0000000000e+00 -3.3960989831e-03 -8.7054617976e-03 0.0000000000e+00 -3.1013208908e-03 -9.2083416666e-03 0.0000000000e+00 -3.1377809111e-03 -8.7086776919e-03 0.0000000000e+00 -3.3082830616e-03 -9.3762164514e-03 0.0000000000e+00 -4.5993627820e-03 -8.1882157144e-03 0.0000000000e+00 -2.1008071279e-03 -9.9996702146e-03 0.0000000000e+00 -5.6616228458e-03 -7.7715833200e-03 0.0000000000e+00 -3.1460851071e-03 -9.7613134973e-03 0.0000000000e+00 -4.3700323929e-03 -8.4360118976e-03 0.0000000000e+00 -5.6212394187e-03 -8.9214402222e-03 0.0000000000e+00 -3.0244325442e-03 -9.2025727764e-03 0.0000000000e+00 -7.3533209691e-03 -8.2822844315e-03 0.0000000000e+00 -3.1791423660e-03 -9.5775550100e-03 0.0000000000e+00 -8.3059447916e-03 -7.7248437301e-03 0.0000000000e+00 -3.5290262927e-03 -1.0242337853e-02 0.0000000000e+00 -1.0265083219e-02 -6.0937274299e-03 0.0000000000e+00 -4.7830690899e-03 -1.0340070876e-02 0.0000000000e+00 -1.0580018799e-02 -4.7026960765e-03 0.0000000000e+00 -8.0149216078e-03 -9.0567739041e-03 0.0000000000e+00 -1.1695085280e-02 -2.7495686897e-03 0.0000000000e+00 -1.0218515740e-02 -3.5213461931e-03 0.0000000000e+00
        </DataArray>
      </PointData>
    </Piece>
  </PolyData>
</VTKFile>
