<?xml version="1.0"?>
<VTKFile type="PolyData" version="0.1" byte_order="LittleEndian">
  <PolyData>
    <FieldData>
      <DataArray type="Float64" Name="TimeValue" NumberOfTuples="1" format="ascii">
        3.499999999999081e+01
      </DataArray>
    </FieldData>
    <Piece NumberOfPoints="398" NumberOfVerts="398" NumberOfLines="0" NumberOfStrips="0" NumberOfPolys="0">
      <Points>
        <DataArray type="Float64" NumberOfComponents="3" format="ascii">
          -4.9726094768e-01 5.2264231634e-02 0.0000000000e+00 -4.9591980461e-01 5.7187521354e-02 0.0000000000e+00 -4.9320742903e-01 6.1518265364e-02 0.0000000000e+00 -4.8960598536e-01 6.5153650837e-02 0.0000000000e+00 -4.8548567450e-01 6.8194643038e-02 0.0000000000e+00 -4.8105786906e-01 7.0770768034e-02 0.0000000000e+00 -4.7643787966e-01 7.2985647804e-02 0.0000000000e+00 -4.7169100133e-01 7.4914697529e-02 0.0000000000e+00 -4.6685629730e-01 7.6612338955e-02 0.0000000000e+00 -4.6195841863e-01 7.8118474475e-02 0.0000000000e+00 -4.5701365804e-01 7.9463020303e-02 0.0000000000e+00 -4.5203321881e-01 8.0668916425e-02 0.0000000000e+00 -4.4702506197e-01 8.1754126178e-02 0.0000000000e+00 -4.4199500846e-01 8.2732982305e-02 0.0000000000e+00 -4.3694742522e-01 8.3617112443e-02 0.0000000000e+00 -4.3188565927e-01 8.4416090884e-02 0.0000000000e+00 -4.2681230400e-01 8.5137908709e-02 0.0000000000e+00 -4.2172941653e-01 8.5789311244e-02 0.0000000000e+00 -4.1663865062e-01 8.6376052829e-02 0.0000000000e+00 -4.1154135992e-01 8.6903088373e-02 0.0000000000e+00 -4.0643863732e-01 8.7374723845e-02 0.0000000000e+00 -4.0133140546e-01 8.7794726707e-02 0.0000000000e+00 -3.9622042424e-01 8.8166419095e-02 0.0000000000e+00 -3.9110634740e-01 8.8492747356e-02 0.0000000000e+00 -3.8598972048e-01 8.8776341615e-02 0.0000000000e+00 -3.8087100981e-01 8.9019561684e-02 0.0000000000e+00 -3.7575063504e-01 8.9224534775e-02 0.0000000000e+00 -3.7062893181e-01 8.9393189274e-02 0.0000000000e+00 -3.6550619075e-01 8.9527279365e-02 0.0000000000e+00 -3.6038270739e-01 8.9628406450e-02 0.0000000000e+00 -3.5525869773e-01 8.9698040036e-02 0.0000000000e+00 -3.5013435246e-01 8.9737531833e-02 0.0000000000e+00 -3.4500987690e-01 8.9748129328e-02 0.0000000000e+00 -3.3988541842e-01 8.9730987908e-02 0.0000000000e+00 -3.3476111444e-01 8.9687180276e-02 0.0000000000e+00 -3.2963709471e-01 8.9617705257e-02 0.0000000000e+00 -3.2451348064e-01 8.9523495400e-02 0.0000000000e+00 -3.1939034143e-01 8.9405422449e-02 0.0000000000e+00 -3.1426779881e-01 8.9264305217e-02 0.0000000000e+00 -3.0914591206e-01 8.9100912041e-02 0.0000000000e+00 -3.0402476307e-01 8.8915967270e-02 0.0000000000e+00 -2.9890440772e-01 8.8710153739e-02 0.0000000000e+00 -2.9378490850e-01 8.8484117338e-02 0.0000000000e+00 -2.8866631015e-01 8.8238469120e-02 0.0000000000e+00 -2.8354865267e-01 8.7973788508e-02 0.0000000000e+00 -2.7843198600e-01 8.7690626604e-02 0.0000000000e+00 -2.7331635766e-01 8.7389507892e-02 0.0000000000e+00 -2.6820177024e-01 8.7070929522e-02 0.0000000000e+00 -2.6308828316e-01 8.6735369256e-02 0.0000000000e+00 -2.5797588368e-01 8.6383278975e-02 0.0000000000e+00 -2.5286463554e-01 8.6015095985e-02 0.0000000000e+00 -2.4775456034e-01 8.5631236490e-02 0.0000000000e+00 -2.4264563136e-01 8.5232095683e-02 0.0000000000e+00 -2.3753787536e-01 8.4818056587e-02 0.0000000000e+00 -2.3243133189e-01 8.4389488400e-02 0.0000000000e+00 -2.2732604551e-01 8.3946746927e-02 0.0000000000e+00 -2.2222190001e-01 8.3490160448e-02 0.0000000000e+00 -2.1711899509e-01 8.3020063562e-02 0.0000000000e+00 -2.1201736213e-01 8.2536773495e-02 0.0000000000e+00 -2.0691697960e-01 8.2040591368e-02 0.0000000000e+00 -2.0181778048e-01 8.1531802906e-02 0.0000000000e+00 -1.9671983644e-01 8.1010697525e-02 0.0000000000e+00 -1.9162315737e-01 8.0477549322e-02 0.0000000000e+00 -1.8652775518e-01 7.9932623721e-02 0.0000000000e+00 -1.8143354438e-01 7.9376166968e-02 0.0000000000e+00 -1.7634058775e-01 7.8808433128e-02 0.0000000000e+00 -1.7124890276e-01 7.8229663908e-02 0.0000000000e+00 -1.6615843046e-01 7.7640084880e-02 0.0000000000e+00 -1.6106919074e-01 7.7039923480e-02 0.0000000000e+00 -1.5598117717e-01 7.6429397432e-02 0.0000000000e+00 -1.5089442149e-01 7.5808722703e-02 0.0000000000e+00 -1.4580891223e-01 7.5178103979e-02 0.0000000000e+00 -1.4072455773e-01 7.4537729809e-02 0.0000000000e+00 -1.3564143273e-01 7.3887803843e-02 0.0000000000e+00 -1.3055953602e-01 7.3228514974e-02 0.0000000000e+00 -1.2547885669e-01 7.2560045603e-02 0.0000000000e+00 -1.2039932696e-01 7.1882565420e-02 0.0000000000e+00 -1.1532097276e-01 7.1196251579e-02 0.0000000000e+00 -1.1024384833e-01 7.0501280681e-02 0.0000000000e+00 -1.0516789419e-01 6.9797809381e-02 0.0000000000e+00 -1.0009305693e-01 6.9085990467e-02 0.0000000000e+00 -9.5019385779e-02 6.8365986871e-02 0.0000000000e+00 -8.9946876275e-02 6.7637950065e-02 0.0000000000e+00 -8.4875512802e-02 6.6902025973e-02 0.0000000000e+00 -7.9805266057e-02 6.6158354627e-02 0.0000000000e+00 -7.4736119229e-02 6.5407074084e-02 0.0000000000e+00 -6.9668110663e-02 6.4648327056e-02 0.0000000000e+00 -6.4601223625e-02 6.3882244673e-02 0.0000000000e+00 -5.9535406374e-02 6.3108949253e-02 0.0000000000e+00 -5.4470657317e-02 6.2328567330e-02 0.0000000000e+00 -4.9407032488e-02 6.1541231275e-02 0.0000000000e+00 -4.4344451672e-02 6.0747049224e-02 0.0000000000e+00 -3.9282923158e-02 5.9946139943e-02 0.0000000000e+00 -3.4222445485e-02 5.9138617762e-02 0.0000000000e+00 -2.9163037454e-02 5.8324597432e-02 0.0000000000e+00 -2.4104648617e-02 5.7504179745e-02 0.0000000000e+00 -1.9047261811e-02 5.6677467985e-02 0.0000000000e+00 -1.3990893842e-02 5.5844568318e-02 0.0000000000e+00 -8.9355444057e-03 5.5005581552e-02 0.0000000000e+00 -3.8812175905e-03 5.4160606701e-02 0.0000000000e+00 1.1721998069e-03 5.3309720494e-02 0.0000000000e+00 6.2245485523e-03 5.2453043054e-02 0.0000000000e+00 1.1275943392e-02 5.1590645938e-02 0.0000000000e+00 1.6326440609e-02 5.0722607920e-02 0.0000000000e+00 2.1375943892e-02 4.9849031720e-02 0.0000000000e+00 2.6424457110e-02 4.8970000753e-02 0.0000000000e+00 3.1472011504e-02 4.8085591397e-02 0.0000000000e+00 3.6518701143e-02 4.7195866621e-02 0.0000000000e+00 4.1564441327e-02 4.6300918671e-02 0.0000000000e+00 4.6609230112e-02 4.5400823257e-02 0.0000000000e+00 5.1653173445e-02 4.4495634621e-02 0.0000000000e+00 5.6696228622e-02 4.3585431459e-02 0.0000000000e+00 6.1738361294e-02 4.2670289132e-02 0.0000000000e+00 6.6779564021e-02 4.1750276257e-02 0.0000000000e+00 7.1819899165e-02 4.0825446710e-02 0.0000000000e+00 7.6859356703e-02 3.9895865608e-02 0.0000000000e+00 8.1898008641e-02 3.8961580986e-02 0.0000000000e+00 8.6935705941e-02 3.8022680059e-02 0.0000000000e+00 9.1972611128e-02 3.7079190280e-02 0.0000000000e+00 9.7008668669e-02 3.6131177844e-02 0.0000000000e+00 1.0204386087e-01 3.5178700202e-02 0.0000000000e+00 1.0707827097e-01 3.4221793894e-02 0.0000000000e+00 1.1211171891e-01 3.3260543822e-02 0.0000000000e+00 1.1714445382e-01 3.2294951292e-02 0.0000000000e+00 1.2217637967e-01 3.1325081711e-02 0.0000000000e+00 1.2720736077e-01 3.0351006860e-02 0.0000000000e+00 1.3223761875e-01 2.9372727682e-02 0.0000000000e+00 1.3726706297e-01 2.8390303861e-02 0.0000000000e+00 1.4229572061e-01 2.7403770609e-02 0.0000000000e+00 1.4732360119e-01 2.6413164931e-02 0.0000000000e+00 1.5235059578e-01 2.5418545708e-02 0.0000000000e+00 1.5737688659e-01 2.4419912645e-02 0.0000000000e+00 1.6240234385e-01 2.3417325663e-02 0.0000000000e+00 1.6742696646e-01 2.2410817741e-02 0.0000000000e+00 1.7245085770e-01 2.1400399305e-02 0.0000000000e+00 1.7747398558e-01 2.0386106299e-02 0.0000000000e+00 1.8249635644e-01 1.9367965495e-02 0.0000000000e+00 1.8751791564e-01 1.8346014588e-02 0.0000000000e+00 1.9253867441e-01 1.7320276492e-02 0.0000000000e+00 1.9755867528e-01 1.6290766192e-02 0.0000000000e+00 2.0257793396e-01 1.5257502622e-02 0.0000000000e+00 2.0759639625e-01 1.4220517707e-02 0.0000000000e+00 2.1261408588e-01 1.3179825911e-02 0.0000000000e+00 2.1763104490e-01 1.2135436390e-02 0.0000000000e+00 2.2264726018e-01 1.1087368318e-02 0.0000000000e+00 2.2766268318e-01 1.0035646948e-02 0.0000000000e+00 2.3267726296e-01 8.9802968007e-03 0.0000000000e+00 2.3769115605e-01 7.9212972708e-03 0.0000000000e+00 2.4270427261e-01 6.8586782309e-03 0.0000000000e+00 2.4771659633e-01 5.7924527911e-03 0.0000000000e+00 2.5272819058e-01 4.7226157199e-03 0.0000000000e+00 2.5773898461e-01 3.6491890353e-03 0.0000000000e+00 2.6274907064e-01 2.5721585331e-03 0.0000000000e+00 2.6775833653e-01 1.4915525741e-03 0.0000000000e+00 2.7276680970e-01 4.0736826173e-04 0.0000000000e+00 2.7777451790e-01 -6.8039875983e-04 0.0000000000e+00 2.8278146879e-01 -1.7717498540e-03 0.0000000000e+00 2.8778759011e-01 -2.8666701914e-03 0.0000000000e+00 2.9279294031e-01 -3.9651747581e-03 0.0000000000e+00 2.9779755351e-01 -5.0672746270e-03 0.0000000000e+00 3.0280135913e-01 -6.1729590882e-03 0.0000000000e+00 3.0780438244e-01 -7.2822397704e-03 0.0000000000e+00 3.1280650594e-01 -8.3950978319e-03 0.0000000000e+00 3.1780794456e-01 -9.5115896717e-03 0.0000000000e+00 3.2280852738e-01 -1.0631687020e-02 0.0000000000e+00 3.2780825022e-01 -1.1755399878e-02 0.0000000000e+00 3.3280721108e-01 -1.2882762556e-02 0.0000000000e+00 3.3780534714e-01 -1.4013774448e-02 0.0000000000e+00 3.4280265335e-01 -1.5148449133e-02 0.0000000000e+00 3.4779915549e-01 -1.6286808434e-02 0.0000000000e+00 3.5279469994e-01 -1.7428834392e-02 0.0000000000e+00 3.5778950179e-01 -1.8574594513e-02 0.0000000000e+00 3.6278342043e-01 -1.9724076172e-02 0.0000000000e+00 3.6777640315e-01 -2.0877287849e-02 0.0000000000e+00 3.7276860129e-01 -2.2034286424e-02 0.0000000000e+00 3.7775992822e-01 -2.3195075031e-02 0.0000000000e+00 3.8275032602e-01 -2.4359664423e-02 0.0000000000e+00 3.8773987974e-01 -2.5528099898e-02 0.0000000000e+00 3.9272844614e-01 -2.6700374472e-02 0.0000000000e+00 3.9771614086e-01 -2.7876543029e-02 0.0000000000e+00 4.0270291178e-01 -2.9056622242e-02 0.0000000000e+00 4.0768869791e-01 -3.0240627667e-02 0.0000000000e+00 4.1267361642e-01 -3.1428618368e-02 0.0000000000e+00 4.1765755604e-01 -3.2620600225e-02 0.0000000000e+00 4.2264052151e-01 -3.3816607805e-02 0.0000000000e+00 4.2762255447e-01 -3.5016685743e-02 0.0000000000e+00 4.3260353408e-01 -3.6220840625e-02 0.0000000000e+00 4.3758354093e-01 -3.7429128723e-02 0.0000000000e+00 4.4256256770e-01 -3.8641586290e-02 0.0000000000e+00 4.4754046411e-01 -3.9858215695e-02 0.0000000000e+00 4.5251740906e-01 -4.1079100795e-02 0.0000000000e+00 4.5749335137e-01 -4.2304270474e-02 0.0000000000e+00 4.6246815394e-01 -4.3533733300e-02 0.0000000000e+00 4.6744192511e-01 -4.4767559442e-02 0.0000000000e+00 4.7241451575e-01 -4.6005756378e-02 0.0000000000e+00 4.7738608692e-01 -4.7248409814e-02 0.0000000000e+00 4.8235650207e-01 -4.8495532369e-02 0.0000000000e+00 4.8732575854e-01 -4.9747171040e-02 0.0000000000e+00 4.9229400251e-01 -5.1003411632e-02 0.0000000000e+00 4.9726094768e-01 -5.2264231634e-02 0.0000000000e+00 4.9214040296e-01 -5.2464813724e-02 0.0000000000e+00 4.8701953993e-01 -5.2660646441e-02 0.0000000000e+00 4.8189864333e-01 -5.2851767290e-02 0.0000000000e+00 4.7677755232e-01 -5.3038229807e-02 0.0000000000e+00 4.7165625973e-01 -5.3220080515e-02 0.0000000000e+00 4.6653489650e-01 -5.3397360149e-02 0.0000000000e+00 4.6141328729e-01 -5.3570119057e-02 0.0000000000e+00 4.5629157639e-01 -5.3738395555e-02 0.0000000000e+00 4.5116964327e-01 -5.3902235761e-02 0.0000000000e+00 4.4604762022e-01 -5.4061676551e-02 0.0000000000e+00 4.4092555131e-01 -5.4216756824e-02 0.0000000000e+00 4.3580324412e-01 -5.4367521411e-02 0.0000000000e+00 4.3068084515e-01 -5.4514003871e-02 0.0000000000e+00 4.2555835402e-01 -5.4656241187e-02 0.0000000000e+00 4.2043568020e-01 -5.4794271646e-02 0.0000000000e+00 4.1531294051e-01 -5.4928126814e-02 0.0000000000e+00 4.1019008497e-01 -5.5057841695e-02 0.0000000000e+00 4.0506710173e-01 -5.5183449112e-02 0.0000000000e+00 3.9994409843e-01 -5.5304977955e-02 0.0000000000e+00 3.9482094815e-01 -5.5422461631e-02 0.0000000000e+00 3.8969770733e-01 -5.5535928040e-02 0.0000000000e+00 3.8457442349e-01 -5.5645404327e-02 0.0000000000e+00 3.7945097209e-01 -5.5750920133e-02 0.0000000000e+00 3.7432749471e-01 -5.5852498408e-02 0.0000000000e+00 3.6920389872e-01 -5.5950165778e-02 0.0000000000e+00 3.6408023857e-01 -5.6043944803e-02 0.0000000000e+00 3.5895659830e-01 -5.6133856558e-02 0.0000000000e+00 3.5383281810e-01 -5.6219925217e-02 0.0000000000e+00 3.4870894773e-01 -5.6302170032e-02 0.0000000000e+00 3.4358512736e-01 -5.6380607890e-02 0.0000000000e+00 3.3846113257e-01 -5.6455260100e-02 0.0000000000e+00 3.3333711736e-01 -5.6526141037e-02 0.0000000000e+00 3.2821305197e-01 -5.6593266688e-02 0.0000000000e+00 3.2308893851e-01 -5.6656651381e-02 0.0000000000e+00 3.1796483857e-01 -5.6716307587e-02 0.0000000000e+00 3.1284064916e-01 -5.6772248492e-02 0.0000000000e+00 3.0771637227e-01 -5.6824484747e-02 0.0000000000e+00 3.0259218097e-01 -5.6873024235e-02 0.0000000000e+00 2.9746785329e-01 -5.6917877437e-02 0.0000000000e+00 2.9234350810e-01 -5.6959050352e-02 0.0000000000e+00 2.8721911827e-01 -5.6996549104e-02 0.0000000000e+00 2.8209475503e-01 -5.7030377886e-02 0.0000000000e+00 2.7697038274e-01 -5.7060540439e-02 0.0000000000e+00 2.7184594108e-01 -5.7087039267e-02 0.0000000000e+00 2.6672150384e-01 -5.7109874891e-02 0.0000000000e+00 2.6159706323e-01 -5.7129047050e-02 0.0000000000e+00 2.5647259122e-01 -5.7144554236e-02 0.0000000000e+00 2.5134806035e-01 -5.7156393579e-02 0.0000000000e+00 2.4622358623e-01 -5.7164560656e-02 0.0000000000e+00 2.4109907571e-01 -5.7169050186e-02 0.0000000000e+00 2.3597460255e-01 -5.7169855343e-02 0.0000000000e+00 2.3085010370e-01 -5.7166968068e-02 0.0000000000e+00 2.2572559782e-01 -5.7160378926e-02 0.0000000000e+00 2.2060117901e-01 -5.7150077380e-02 0.0000000000e+00 2.1547668986e-01 -5.7136051039e-02 0.0000000000e+00 2.1035218532e-01 -5.7118286508e-02 0.0000000000e+00 2.0522771809e-01 -5.7096769179e-02 0.0000000000e+00 2.0010330503e-01 -5.7071483028e-02 0.0000000000e+00 1.9497890690e-01 -5.7042410356e-02 0.0000000000e+00 1.8985450348e-01 -5.7009532077e-02 0.0000000000e+00 1.8473015445e-01 -5.6972828238e-02 0.0000000000e+00 1.7960584836e-01 -5.6932277051e-02 0.0000000000e+00 1.7448154674e-01 -5.6887855015e-02 0.0000000000e+00 1.6935724336e-01 -5.6839537383e-02 0.0000000000e+00 1.6423299950e-01 -5.6787298642e-02 0.0000000000e+00 1.5910881454e-01 -5.6731111290e-02 0.0000000000e+00 1.5398472721e-01 -5.6670946815e-02 0.0000000000e+00 1.4886063870e-01 -5.6606773550e-02 0.0000000000e+00 1.4373655692e-01 -5.6538559464e-02 0.0000000000e+00 1.3861262126e-01 -5.6466272926e-02 0.0000000000e+00 1.3348865342e-01 -5.6389876340e-02 0.0000000000e+00 1.2836477223e-01 -5.6309334762e-02 0.0000000000e+00 1.2324097603e-01 -5.6224610014e-02 0.0000000000e+00 1.1811724558e-01 -5.6135662002e-02 0.0000000000e+00 1.1299368194e-01 -5.6042451195e-02 0.0000000000e+00 1.0787006851e-01 -5.5944930586e-02 0.0000000000e+00 1.0274655297e-01 -5.5843058179e-02 0.0000000000e+00 9.7623242809e-02 -5.5736789958e-02 0.0000000000e+00 9.2499894644e-02 -5.5626072852e-02 0.0000000000e+00 8.7376702232e-02 -5.5510861246e-02 0.0000000000e+00 8.2253591763e-02 -5.5391102098e-02 0.0000000000e+00 7.7130592483e-02 -5.5266742888e-02 0.0000000000e+00 7.2007772477e-02 -5.5137730413e-02 0.0000000000e+00 6.6884978478e-02 -5.5004004031e-02 0.0000000000e+00 6.1762374400e-02 -5.4865509418e-02 0.0000000000e+00 5.6639899797e-02 -5.4722184619e-02 0.0000000000e+00 5.1517578012e-02 -5.4573968022e-02 0.0000000000e+00 4.6395359247e-02 -5.4420793964e-02 0.0000000000e+00 4.1273265047e-02 -5.4262596875e-02 0.0000000000e+00 3.6151344678e-02 -5.4099310180e-02 0.0000000000e+00 3.1029656272e-02 -5.3930865784e-02 0.0000000000e+00 2.5908107476e-02 -5.3757188601e-02 0.0000000000e+00 2.0786715931e-02 -5.3578204980e-02 0.0000000000e+00 1.5665583667e-02 -5.3393842301e-02 0.0000000000e+00 1.0544631760e-02 -5.3204019413e-02 0.0000000000e+00 5.4238455346e-03 -5.3008655112e-02 0.0000000000e+00 3.0323854710e-04 -5.2807667001e-02 0.0000000000e+00 -4.8170736379e-03 -5.2600974629e-02 0.0000000000e+00 -9.9371296962e-03 -5.2388489241e-02 0.0000000000e+00 -1.5057026989e-02 -5.2170116987e-02 0.0000000000e+00 -2.0176584787e-02 -5.1945773477e-02 0.0000000000e+00 -2.5295897865e-02 -5.1715360119e-02 0.0000000000e+00 -3.0414941641e-02 -5.1478780917e-02 0.0000000000e+00 -3.5533695451e-02 -5.1235937199e-02 0.0000000000e+00 -4.0652120784e-02 -5.0986728615e-02 0.0000000000e+00 -4.5770212954e-02 -5.0731050570e-02 0.0000000000e+00 -5.0888000350e-02 -5.0468793984e-02 0.0000000000e+00 -5.6005440725e-02 -5.0199850525e-02 0.0000000000e+00 -6.1122511737e-02 -4.9924108055e-02 0.0000000000e+00 -6.6239180585e-02 -4.9641452129e-02 0.0000000000e+00 -7.1355503248e-02 -4.9351760294e-02 0.0000000000e+00 -7.6471397397e-02 -4.9054914724e-02 0.0000000000e+00 -8.1586838279e-02 -4.8750791317e-02 0.0000000000e+00 -8.6701851077e-02 -4.8439259672e-02 0.0000000000e+00 -9.1816424892e-02 -4.8120188045e-02 0.0000000000e+00 -9.6930492547e-02 -4.7793444814e-02 0.0000000000e+00 -1.0204404178e-01 -4.7458891444e-02 0.0000000000e+00 -1.0715707215e-01 -4.7116384871e-02 0.0000000000e+00 -1.1226956858e-01 -4.6765779115e-02 0.0000000000e+00 -1.1738150394e-01 -4.6406925081e-02 0.0000000000e+00 -1.2249279621e-01 -4.6039673639e-02 0.0000000000e+00 -1.2760346587e-01 -4.5663864229e-02 0.0000000000e+00 -1.3271353851e-01 -4.5279331259e-02 0.0000000000e+00 -1.3782292438e-01 -4.4885913259e-02 0.0000000000e+00 -1.4293156128e-01 -4.4483442340e-02 0.0000000000e+00 -1.4803948021e-01 -4.4071738429e-02 0.0000000000e+00 -1.5314665394e-01 -4.3650620840e-02 0.0000000000e+00 -1.5825304438e-01 -4.3219904557e-02 0.0000000000e+00 -1.6335853606e-01 -4.2779405918e-02 0.0000000000e+00 -1.6846317945e-01 -4.2328921443e-02 0.0000000000e+00 -1.7356694323e-01 -4.1868248527e-02 0.0000000000e+00 -1.7866975142e-01 -4.1397182525e-02 0.0000000000e+00 -1.8377156506e-01 -4.0915509135e-02 0.0000000000e+00 -1.8887231740e-01 -4.0423010023e-02 0.0000000000e+00 -1.9397201921e-01 -3.9919452293e-02 0.0000000000e+00 -1.9907060315e-01 -3.9404603149e-02 0.0000000000e+00 -2.0416795498e-01 -3.8878227134e-02 0.0000000000e+00 -2.0926410713e-01 -3.8340065606e-02 0.0000000000e+00 -2.1435899276e-01 -3.7789861420e-02 0.0000000000e+00 -2.1945254522e-01 -3.7227348521e-02 0.0000000000e+00 -2.2454463421e-01 -3.6652258723e-02 0.0000000000e+00 -2.2963526591e-01 -3.6064298608e-02 0.0000000000e+00 -2.3472439875e-01 -3.5463169159e-02 0.0000000000e+00 -2.3981193609e-01 -3.4848566607e-02 0.0000000000e+00 -2.4489771085e-01 -3.4220184393e-02 0.0000000000e+00 -2.4998176842e-01 -3.3577677250e-02 0.0000000000e+00 -2.5506399126e-01 -3.2920706413e-02 0.0000000000e+00 -2.6014426393e-01 -3.2248918972e-02 0.0000000000e+00 -2.6522248061e-01 -3.1561945841e-02 0.0000000000e+00 -2.7029858526e-01 -3.0859394906e-02 0.0000000000e+00 -2.7537247023e-01 -3.0140863550e-02 0.0000000000e+00 -2.8044398225e-01 -2.9405937276e-02 0.0000000000e+00 -2.8551303983e-01 -2.8654171425e-02 0.0000000000e+00 -2.9057948552e-01 -2.7885111033e-02 0.0000000000e+00 -2.9564321341e-01 -2.7098270352e-02 0.0000000000e+00 -3.0070406800e-01 -2.6293146236e-02 0.0000000000e+00 -3.0576188583e-01 -2.5469210014e-02 0.0000000000e+00 -3.1081650731e-01 -2.4625903240e-02 0.0000000000e+00 -3.1586776165e-01 -2.3762637513e-02 0.0000000000e+00 -3.2091545343e-01 -2.2878794051e-02 0.0000000000e+00 -3.2595938602e-01 -2.1973716558e-02 0.0000000000e+00 -3.3099932872e-01 -2.1046713543e-02 0.0000000000e+00 -3.3603506379e-01 -2.0097045782e-02 0.0000000000e+00 -3.4106630193e-01 -1.9123937664e-02 0.0000000000e+00 -3.4609279420e-01 -1.8126550881e-02 0.0000000000e+00 -3.5111422796e-01 -1.7103998506e-02 0.0000000000e+00 -3.5613026864e-01 -1.6055330517e-02 0.0000000000e+00 -3.6114055876e-01 -1.4979526225e-02 0.0000000000e+00 -3.6614471400e-01 -1.3875486128e-02 0.0000000000e+00 -3.7114227411e-01 -1.2742032692e-02 0.0000000000e+00 -3.7613277157e-01 -1.1577883387e-02 0.0000000000e+00 -3.8111568954e-01 -1.0381645731e-02 0.0000000000e+00 -3.8609040603e-01 -9.1518147596e-03 0.0000000000e+00 -3.9105627202e-01 -7.8867350466e-03 0.0000000000e+00 -3.9601255828e-01 -6.5845901298e-03 0.0000000000e+00 -4.0095841207e-01 -5.2433865304e-03 0.0000000000e+00 -4.0589288660e-01 -3.8609129621e-03 0.0000000000e+00 -4.1081490142e-01 -2.4347101989e-03 0.0000000000e+00 -4.1572320451e-01 -9.6203219494e-04 0.0000000000e+00 -4.2061636185e-01 5.6021259395e-04 0.0000000000e+00 -4.2549268766e-01 2.1355174736e-03 0.0000000000e+00 -4.3035021769e-01 3.7678670960e-03 0.0000000000e+00 -4.3518659767e-01 5.4618266507e-03 0.0000000000e+00 -4.3999901359e-01 7.2226808961e-03 0.0000000000e+00 -4.4478405085e-01 9.0566000589e-03 0.0000000000e+00 -4.4953751130e-01 1.0970861400e-02 0.0000000000e+00 -4.5425413044e-01 1.2974134101e-02 0.0000000000e+00 -4.5892721924e-01 1.5076883774e-02 0.0000000000e+00 -4.6354810402e-01 1.7291919714e-02 0.0000000000e+00 -4.6810526293e-01 1.9635157524e-02 0.0000000000e+00 -4.7258296803e-01 2.2126706606e-02 0.0000000000e+00 -4.7695906267e-01 2.4792441981e-02 0.0000000000e+00 -4.8120113833e-01 2.7666268843e-02 0.0000000000e+00 -4.8525967047e-01 3.0793297982e-02 0.0000000000e+00 -4.8905511125e-01 3.4233720983e-02 0.0000000000e+00 -4.9245312560e-01 3.8064921006e-02 0.0000000000e+00 -4.9522002994e-01 4.2369646827e-02 0.0000000000e+00 -4.9697272129e-01 4.7169688282e-02 0.0000000000e+00
        </DataArray>
      </Points>
      <Verts>
        <DataArray type="Int64" Name="connectivity" format="ascii">
          0 1 2 3 4 5 6 7 8 9 10 11 12 13 14 15 16 17 18 19 20 21 22 23 24 25 26 27 28 29 30 31 32 33 34 35 36 37 38 39 40 41 42 43 44 45 46 47 48 49 50 51 52 53 54 55 56 57 58 59 60 61 62 63 64 65 66 67 68 69 70 71 72 73 74 75 76 77 78 79 80 81 82 83 84 85 86 87 88 89 90 91 92 93 94 95 96 97 98 99 100 101 102 103 104 105 106 107 108 109 110 111 112 113 114 115 116 117 118 119 120 121 122 123 124 125 126 127 128 129 130 131 132 133 134 135 136 137 138 139 140 141 142 143 144 145 146 147 148 149 150 151 152 153 154 155 156 157 158 159 160 161 162 163 164 165 166 167 168 169 170 171 172 173 174 175 176 177 178 179 180 181 182 183 184 185 186 187 188 189 190 191 192 193 194 195 196 197 198 199 200 201 202 203 204 205 206 207 208 209 210 211 212 213 214 215 216 217 218 219 220 221 222 223 224 225 226 227 228 229 230 231 232 233 234 235 236 237 238 239 240 241 242 243 244 245 246 247 248 249 250 251 252 253 254 255 256 257 258 259 260 261 262 263 264 265 266 267 268 269 270 271 272 273 274 275 276 277 278 279 280 281 282 283 284 285 286 287 288 289 290 291 292 293 294 295 296 297 298 299 300 301 302 303 304 305 306 307 308 309 310 311 312 313 314 315 316 317 318 319 320 321 322 323 324 325 326 327 328 329 330 331 332 333 334 335 336 337 338 339 340 341 342 343 344 345 346 347 348 349 350 351 352 353 354 355 356 357 358 359 360 361 362 363 364 365 366 367 368 369 370 371 372 373 374 375 376 377 378 379 380 381 382 383 384 385 386 387 388 389 390 391 392 393 394 395 396 397
        </DataArray>
        <DataArray type="Int64" Name="offsets" format="ascii">
          1 2 3 4 5 6 7 8 9 10 11 12 13 14 15 16 17 18 19 20 21 22 23 24 25 26 27 28 29 30 31 32 33 34 35 36 37 38 39 40 41 42 43 44 45 46 47 48 49 50 51 52 53 54 55 56 57 58 59 60 61 62 63 64 65 66 67 68 69 70 71 72 73 74 75 76 77 78 79 80 81 82 83 84 85 86 87 88 89 90 91 92 93 94 95 96 97 98 99 100 101 102 103 104 105 106 107 108 109 110 111 112 113 114 115 116 117 118 119 120 121 122 123 124 125 126 127 128 129 130 131 132 133 134 135 136 137 138 139 140 141 142 143 144 145 146 147 148 149 150 151 152 153 154 155 156 157 158 159 160 161 162 163 164 165 166 167 168 169 170 171 172 173 174 175 176 177 178 179 180 181 182 183 184 185 186 187 188 189 190 191 192 193 194 195 196 197 198 199 200 201 202 203 204 205 206 207 208 209 210 211 212 213 214 215 216 217 218 219 220 221 222 223 224 225 226 227 228 229 230 231 232 233 234 235 236 237 238 239 240 241 242 243 244 245 246 247 248 249 250 251 252 253 254 255 256 257 258 259 260 261 262 263 264 265 266 267 268 269 270 271 272 273 274 275 276 277 278 279 280 281 282 283 284 285 286 287 288 289 290 291 292 293 294 295 296 297 298 299 300 301 302 303 304 305 306 307 308 309 310 311 312 313 314 315 316 317 318 319 320 321 322 323 324 325 326 327 328 329 330 331 332 333 334 335 336 337 338 339 340 341 342 343 344 345 346 347 348 349 350 351 352 353 354 355 356 357 358 359 360 361 362 363 364 365 366 367 368 369 370 371 372 373 374 375 376 377 378 379 380 381 382 383 384 385 386 387 388 389 390 391 392 393 394 395 396 397 398
        </DataArray>
      </Verts>
      <PointData>
        <DataArray type="Float64" Name="velocity" NumberOfComponents="3" format="ascii">
          0.0000000000e+00 0.0000000000e+00 0.0000000000e+00 0.0000000000e+00 0.0000000000e+00 0.0000000000e+00 0.0000000000e+00 0.0000000000e+00 0.0000000000e+00 0.0000000000e+00 0.0000000000e+00 0.0000000000e+00 0.0000000000e+00 0.0000000000e+00 0.0000000000e+00 0.0000000000e+00 0.0000000000e+00 0.0000000000e+00 0.0000000000e+00 0.0000000000e+00 0.0000000000e+00 0.0000000000e+00 0.0000000000e+00 0.0000000000e+00 0.0000000000e+00 0.0000000000e+00 0.0000000000e+00 0.0000000000e+00 0.0000000000e+00 0.0000000000e+00 0.0000000000e+00 0.0000000000e+00 0.0000000000e+00 0.0000000000e+00 0.0000000000e+00 0.0000000000e+00 0.0000000000e+00 0.0000000000e+00 0.0000000000e+00 0.0000000000e+00 0.0000000000e+00 0.0000000000e+00 0.0000000000e+00 0.0000000000e+00 0.0000000000e+00 0.0000000000e+00 0.0000000000e+00 0.0000000000e+00 0.0000000000e+00 0.0000000000e+00 0.0000000000e+00 0.0000000000e+00 0.0000000000e+00 0.0000000000e+00 0.0000000000e+00 0.0000000000e+00 0.0000000000e+00 0.0000000000e+00 0.0000000000e+00 0.0000000000e+00 0.0000000000e+00 0.0000000000e+00 0.0000000000e+00 0.0000000000e+00 0.0000000000e+00 0.0000000000e+00 0.0000000000e+00 0.0000000000e+00 0.0000000000e+00 0.0000000000e+00 0.0000000000e+00 0.0000000000e+00 0.0000000000e+00 0.0000000000e+00 0.0000000000e+00 0.0000000000e+00 0.0000000000e+00 0.0000000000e+00 0.0000000000e+00 0.0000000000e+00 0.0000000000e+00 0.0000000000e+00 0.0000000000e+00 0.0000000000e+00 0.0000000000e+00 0.0000000000e+00 0.0000000000e+00 0.0000000000e+00 0.0000000000e+00 0.0000000000e+00 0.0000000000e+00 0.0000000000e+00 0.0000000000e+00 0.0000000000e+00 0.0000000000e+00 0.0000000000e+00 0.0000000000e+00 0.0000000000e+00 0.0000000000e+00 0.0000000000e+00 0.0000000000e+00 0.0000000000e+00 0.0000000000e+00 0.0000000000e+00 0.0000000000e+00 0.0000000000e+00 0.0000000000e+00 0.0000000000e+00 0.0000000000e+00 0.0000000000e+00 0.0000000000e+00 0.0000000000e+00 0.0000000000e+00 0.0000000000e+00 0.0000000000e+00 0.0000000000e+00 0.0000000000e+00 0.0000000000e+00 0.0000000000e+00 0.0000000000e+00 0.0000000000e+00 0.0000000000e+00 0.0000000000e+00 0.0000000000e+00 0.0000000000e+00 0.0000000000e+00 0.0000000000e+00 0.0000000000e+00 0.0000000000e+00 0.0000000000e+00 0.0000000000e+00 0.0000000000e+00 0.0000000000e+00 0.0000000000e+00 0.0000000000e+00 0.0000000000e+00 0.0000000000e+00 0.0000000000e+00 0.0000000000e+00 0.0000000000e+00 0.0000000000e+00 0.0000000000e+00 0.0000000000e+00 0.0000000000e+00 0.0000000000e+00 0.0000000000e+00 0.0000000000e+00 0.0000000000e+00 0.0000000000e+00 0.0000000000e+00 0.0000000000e+00 0.0000000000e+00 0.0000000000e+00 0.0000000000e+00 0.0000000000e+00 0.0000000000e+00 0.0000000000e+00 0.0000000000e+00 0.0000000000e+00 0.0000000000e+00 0.0000000000e+00 0.0000000000e+00 0.0000000000e+00 0.0000000000e+00 0.0000000000e+00 0.0000000000e+00 0.0000000000e+00 0.0000000000e+00 0.0000000000e+00 0.0000000000e+00 0.0000000000e+00 0.0000000000e+00 0.0000000000e+00 0.0000000000e+00 0.0000000000e+00 0.0000000000e+00 0.0000000000e+00 0.0000000000e+00 0.0000000000e+00 0.0000000000e+00 0.0000000000e+00 0.0000000000e+00 0.0000000000e+00 0.0000000000e+00 0.0000000000e+00 0.0000000000e+00 0.0000000000e+00 0.0000000000e+00 0.0000000000e+00 0.0000000000e+00 0.0000000000e+00 0.0000000000e+00 0.0000000000e+00 0.0000000000e+00 0.0000000000e+00 0.0000000000e+00 0.0000000000e+00 0.0000000000e+00 0.0000000000e+00 0.0000000000e+00 0.0000000000e+00 0.0000000000e+00 0.0000000000e+00 0.0000000000e+00 0.0000000000e+00 0.0000000000e+00 0.0000000000e+00 0.0000000000e+00 0.0000000000e+00 0.0000000000e+00 0.0000000000e+00 0.0000000000e+00 0.0000000000e+00 0.0000000000e+00 0.0000000000e+00 0.0000000000e+00 0.0000000000e+00 0.0000000000e+00 0.0000000000e+00 0.0000000000e+00 0.0000000000e+00 0.0000000000e+00 0.0000000000e+00 0.0000000000e+00 0.0000000000e+00 0.0000000000e+00 0.0000000000e+00 0.0000000000e+00 0.0000000000e+00 0.0000000000e+00 0.0000000000e+00 0.0000000000e+00 0.0000000000e+00 0.0000000000e+00 0.0000000000e+00 0.0000000000e+00 0.0000000000e+00 0.0000000000e+00 0.0000000000e+00 0.0000000000e+00 0.0000000000e+00 0.0000000000e+00 0.0000000000e+00 0.0000000000e+00 0.0000000000e+00 0.0000000000e+00 0.0000000000e+00 0.0000000000e+00 0.0000000000e+00 0.0000000000e+00 0.0000000000e+00 0.0000000000e+00 0.0000000000e+00 0.0000000000e+00 0.0000000000e+00 0.0000000000e+00 0.0000000000e+00 0.0000000000e+00 0.0000000000e+00 0.0000000000e+00 0.0000000000e+00 0.0000000000e+00 0.0000000000e+00 0.0000000000e+00 0.0000000000e+00 0.0000000000e+00 0.0000000000e+00 0.0000000000e+00 0.0000000000e+00 0.0000000000e+00 0.0000000000e+00 0.0000000000e+00 0.0000000000e+00 0.0000000000e+00 0.0000000000e+00 0.0000000000e+00 0.0000000000e+00 0.0000000000e+00 0.0000000000e+00 0.0000000000e+00 0.0000000000e+00 0.0000000000e+00 0.0000000000e+00 0.0000000000e+00 0.0000000000e+00 0.0000000000e+00 0.0000000000e+00 0.0000000000e+00 0.0000000000e+00 0.0000000000e+00 0.0000000000e+00 0.0000000000e+00 0.0000000000e+00 0.0000000000e+00 0.0000000000e+00 0.0000000000e+00 0.0000000000e+00 0.0000000000e+00 0.0000000000e+00 0.0000000000e+00 0.0000000000e+00 0.0000000000e+00 0.0000000000e+00 0.0000000000e+00 0.0000000000e+00 0.0000000000e+00 0.0000000000e+00 0.0000000000e+00 0.0000000000e+00 0.0000000000e+00 0.0000000000e+00 0.0000000000e+00 0.0000000000e+00 0.0000000000e+00 0.0000000000e+00 0.0000000000e+00 0.0000000000e+00 0.0000000000e+00 0.0000000000e+00 0.0000000000e+00 0.0000000000e+00 0.0000000000e+00 0.0000000000e+00 0.0000000000e+00 0.0000000000e+00 0.0000000000e+00 0.0000000000e+00 0.0000000000e+00 0.0000000000e+00 0.0000000000e+00 0.0000000000e+00 0.0000000000e+00 0.0000000000e+00 0.0000000000e+00 0.0000000000e+00 0.0000000000e+00 0.0000000000e+00 0.0000000000e+00 0.0000000000e+00 0.0000000000e+00 0.0000000000e+00 0.0000000000e+00 0.0000000000e+00 0.0000000000e+00 0.0000000000e+00 0.0000000000e+00 0.0000000000e+00 0.0000000000e+00 0.0000000000e+00 0.0000000000e+00 0.0000000000e+00 0.0000000000e+00 0.0000000000e+00 0.0000000000e+00 0.0000000000e+00 0.0000000000e+00 0.0000000000e+00 0.0000000000e+00 0.0000000000e+00 0.0000000000e+00 0.0000000000e+00 0.0000000000e+00 0.0000000000e+00 0.0000000000e+00 0.0000000000e+00 0.0000000000e+00 0.0000000000e+00 0.0000000000e+00 0.0000000000e+00 0.0000000000e+00 0.0000000000e+00 0.0000000000e+00 0.0000000000e+00 0.0000000000e+00 0.0000000000e+00 0.0000000000e+00 0.0000000000e+00 0.0000000000e+00 0.0000000000e+00 0.0000000000e+00 0.0000000000e+00 0.0000000000e+00 0.0000000000e+00 0.0000000000e+00 0.0000000000e+00 0.0000000000e+00 0.0000000000e+00 0.0000000000e+00 0.0000000000e+00 0.0000000000e+00 0.0000000000e+00 0.0000000000e+00 0.0000000000e+00 0.0000000000e+00 0.0000000000e+00 0.0000000000e+00 0.0000000000e+00 0.0000000000e+00 0.0000000000e+00 0.0000000000e+00 0.0000000000e+00 0.0000000000e+00 0.0000000000e+00 0.0000000000e+00 0.0000000000e+00 0.0000000000e+00 0.0000000000e+00 0.0000000000e+00 0.0000000000e+00 0.0000000000e+00 0.0000000000e+00 0.0000000000e+00 0.0000000000e+00 0.0000000000e+00 0.0000000000e+00 0.0000000000e+00 0.0000000000e+00 0.0000000000e+00 0.0000000000e+00 0.0000000000e+00 0.0000000000e+00 0.0000000000e+00 0.0000000000e+00 0.0000000000e+00 0.0000000000e+00 0.0000000000e+00 0.0000000000e+00 0.0000000000e+00 0.0000000000e+00 0.0000000000e+00 0.0000000000e+00 0.0000000000e+00 0.0000000000e+00 0.0000000000e+00 0.0000000000e+00 0.0000000000e+00 0.0000000000e+00 0.0000000000e+00 0.0000000000e+00 0.0000000000e+00 0.0000000000e+00 0.0000000000e+00 0.0000000000e+00 0.0000000000e+00 0.0000000000e+00 0.0000000000e+00 0.0000000000e+00 0.0000000000e+00 0.0000000000e+00 0.0000000000e+00 0.0000000000e+00 0.0000000000e+00 0.0000000000e+00 0.0000000000e+00 0.0000000000e+00 0.0000000000e+00 0.0000000000e+00 0.0000000000e+00 0.0000000000e+00 0.0000000000e+00 0.0000000000e+00 0.0000000000e+00 0.0000000000e+00 0.0000000000e+00 0.0000000000e+00 0.0000000000e+00 0.0000000000e+00 0.0000000000e+00 0.0000000000e+00 0.0000000000e+00 0.0000000000e+00 0.0000000000e+00 0.0000000000e+00 0.0000000000e+00 0.0000000000e+00 0.0000000000e+00 0.0000000000e+00 0.0000000000e+00 0.0000000000e+00 0.0000000000e+00 0.0000000000e+00 0.0000000000e+00 0.0000000000e+00 0.0000000000e+00 0.0000000000e+00 0.0000000000e+00 0.0000000000e+00 0.0000000000e+00 0.0000000000e+00 0.0000000000e+00 0.0000000000e+00 0.0000000000e+00 0.0000000000e+00 0.0000000000e+00 0.0000000000e+00 0.0000000000e+00 0.0000000000e+00 0.0000000000e+00 0.0000000000e+00 0.0000000000e+00 0.0000000000e+00 0.0000000000e+00 0.0000000000e+00 0.0000000000e+00 0.0000000000e+00 0.0000000000e+00 0.0000000000e+00 0.0000000000e+00 0.0000000000e+00 0.0000000000e+00 0.0000000000e+00 0.0000000000e+00 0.0000000000e+00 0.0000000000e+00 0.0000000000e+00 0.0000000000e+00 0.0000000000e+00 0.0000000000e+00 0.0000000000e+00 0.0000000000e+00 0.0000000000e+00 0.0000000000e+00 0.0000000000e+00 0.0000000000e+00 0.0000000000e+00 0.0000000000e+00 0.0000000000e+00 0.0000000000e+00 0.0000000000e+00 0.0000000000e+00 0.0000000000e+00 0.0000000000e+00 0.0000000000e+00 0.0000000000e+00 0.0000000000e+00 0.0000000000e+00 0.0000000000e+00 0.0000000000e+00 0.0000000000e+00 0.0000000000e+00 0.0000000000e+00 0.0000000000e+00 0.0000000000e+00 0.0000000000e+00 0.0000000000e+00 0.0000000000e+00 0.0000000000e+00 0.0000000000e+00 0.0000000000e+00 0.0000000000e+00 0.0000000000e+00 0.0000000000e+00 0.0000000000e+00 0.0000000000e+00 0.0000000000e+00 0.0000000000e+00 0.0000000000e+00 0.0000000000e+00 0.0000000000e+00 0.0000000000e+00 0.0000000000e+00 0.0000000000e+00 0.0000000000e+00 0.0000000000e+00 0.0000000000e+00 0.0000000000e+00 0.0000000000e+00 0.0000000000e+00 0.0000000000e+00 0.0000000000e+00 0.0000000000e+00 0.0000000000e+00 0.0000000000e+00 0.0000000000e+00 0.0000000000e+00 0.0000000000e+00 0.0000000000e+00 0.0000000000e+00 0.0000000000e+00 0.0000000000e+00 0.0000000000e+00 0.0000000000e+00 0.0000000000e+00 0.0000000000e+00 0.0000000000e+00 0.0000000000e+00 0.0000000000e+00 0.0000000000e+00 0.0000000000e+00 0.0000000000e+00 0.0000000000e+00 0.0000000000e+00 0.0000000000e+00 0.0000000000e+00 0.0000000000e+00 0.0000000000e+00 0.0000000000e+00 0.0000000000e+00 0.0000000000e+00 0.0000000000e+00 0.0000000000e+00 0.0000000000e+00 0.0000000000e+00 0.0000000000e+00 0.0000000000e+00 0.0000000000e+00 0.0000000000e+00 0.0000000000e+00 0.0000000000e+00 0.0000000000e+00 0.0000000000e+00 0.0000000000e+00 0.0000000000e+00 0.0000000000e+00 0.0000000000e+00 0.0000000000e+00 0.0000000000e+00 0.0000000000e+00 0.0000000000e+00 0.0000000000e+00 0.0000000000e+00 0.0000000000e+00 0.0000000000e+00 0.0000000000e+00 0.0000000000e+00 0.0000000000e+00 0.0000000000e+00 0.0000000000e+00 0.0000000000e+00 0.0000000000e+00 0.0000000000e+00 0.0000000000e+00 0.0000000000e+00 0.0000000000e+00 0.0000000000e+00 0.0000000000e+00 0.0000000000e+00 0.0000000000e+00 0.0000000000e+00 0.0000000000e+00 0.0000000000e+00 0.0000000000e+00 0.0000000000e+00 0.0000000000e+00 0.0000000000e+00 0.0000000000e+00 0.0000000000e+00 0.0000000000e+00 0.0000000000e+00 0.0000000000e+00 0.0000000000e+00 0.0000000000e+00 0.0000000000e+00 0.0000000000e+00 0.0000000000e+00 0.0000000000e+00 0.0000000000e+00 0.0000000000e+00 0.0000000000e+00 0.0000000000e+00 0.0000000000e+00 0.0000000000e+00 0.0000000000e+00 0.0000000000e+00 0.0000000000e+00 0.0000000000e+00 0.0000000000e+00 0.0000000000e+00 0.0000000000e+00 0.0000000000e+00 0.0000000000e+00 0.0000000000e+00 0.0000000000e+00 0.0000000000e+00 0.0000000000e+00 0.0000000000e+00 0.0000000000e+00 0.0000000000e+00 0.0000000000e+00 0.0000000000e+00 0.0000000000e+00 0.0000000000e+00 0.0000000000e+00 0.0000000000e+00 0.0000000000e+00 0.0000000000e+00 0.0000000000e+00 0.0000000000e+00 0.0000000000e+00 0.0000000000e+00 0.0000000000e+00 0.0000000000e+00 0.0000000000e+00 0.0000000000e+00 0.0000000000e+00 0.0000000000e+00 0.0000000000e+00 0.0000000000e+00 0.0000000000e+00 0.0000000000e+00 0.0000000000e+00 0.0000000000e+00 0.0000000000e+00 0.0000000000e+00 0.0000000000e+00 0.0000000000e+00 0.0000000000e+00 0.0000000000e+00 0.0000000000e+00 0.0000000000e+00 0.0000000000e+00 0.0000000000e+00 0.0000000000e+00 0.0000000000e+00 0.0000000000e+00 0.0000000000e+00 0.0000000000e+00 0.0000000000e+00 0.0000000000e+00 0.0000000000e+00 0.0000000000e+00 0.0000000000e+00 0.0000000000e+00 0.0000000000e+00 0.0000000000e+00 0.0000000000e+00 0.0000000000e+00 0.0000000000e+00 0.0000000000e+00 0.0000000000e+00 0.0000000000e+00 0.0000000000e+00 0.0000000000e+00 0.0000000000e+00 0.0000000000e+00 0.0000000000e+00 0.0000000000e+00 0.0000000000e+00 0.0000000000e+00 0.0000000000e+00 0.0000000000e+00 0.0000000000e+00 0.0000000000e+00 0.0000000000e+00 0.0000000000e+00 0.0000000000e+00 0.0000000000e+00 0.0000000000e+00 0.0000000000e+00 0.0000000000e+00 0.0000000000e+00 0.0000000000e+00 0.0000000000e+00 0.0000000000e+00 0.0000000000e+00 0.0000000000e+00 0.0000000000e+00 0.0000000000e+00 0.0000000000e+00 0.0000000000e+00 0.0000000000e+00 0.0000000000e+00 0.0000000000e+00 0.0000000000e+00 0.0000000000e+00 0.0000000000e+00 0.0000000000e+00 0.0000000000e+00 0.0000000000e+00 0.0000000000e+00 0.0000000000e+00 0.0000000000e+00 0.0000000000e+00 0.0000000000e+00 0.0000000000e+00 0.0000000000e+00 0.0000000000e+00 0.0000000000e+00 0.0000000000e+00 0.0000000000e+00 0.0000000000e+00 0.0000000000e+00 0.0000000000e+00 0.0000000000e+00 0.0000000000e+00 0.0000000000e+00 0.0000000000e+00 0.0000000000e+00 0.0000000000e+00 0.0000000000e+00 0.0000000000e+00 0.0000000000e+00 0.0000000000e+00 0.0000000000e+00 0.0000000000e+00 0.0000000000e+00 0.0000000000e+00 0.0000000000e+00 0.0000000000e+00 0.0000000000e+00 0.0000000000e+00 0.0000000000e+00 0.0000000000e+00 0.0000000000e+00 0.0000000000e+00 0.0000000000e+00 0.0000000000e+00 0.0000000000e+00 0.0000000000e+00 0.0000000000e+00 0.0000000000e+00 0.0000000000e+00 0.0000000000e+00 0.0000000000e+00 0.0000000000e+00 0.0000000000e+00 0.0000000000e+00 0.0000000000e+00 0.0000000000e+00 0.0000000000e+00 0.0000000000e+00 0.0000000000e+00 0.0000000000e+00 0.0000000000e+00 0.0000000000e+00 0.0000000000e+00 0.0000000000e+00 0.0000000000e+00 0.0000000000e+00 0.0000000000e+00 0.0000000000e+00 0.0000000000e+00 0.0000000000e+00 0.0000000000e+00 0.0000000000e+00 0.0000000000e+00 0.0000000000e+00 0.0000000000e+00 0.0000000000e+00 0.0000000000e+00 0.0000000000e+00 0.0000000000e+00 0.0000000000e+00 0.0000000000e+00 0.0000000000e+00 0.0000000000e+00 0.0000000000e+00 0.0000000000e+00 0.0000000000e+00 0.0000000000e+00 0.0000000000e+00 0.0000000000e+00 0.0000000000e+00 0.0000000000e+00 0.0000000000e+00 0.0000000000e+00 0.0000000000e+00 0.0000000000e+00 0.0000000000e+00 0.0000000000e+00 0.0000000000e+00 0.0000000000e+00 0.0000000000e+00 0.0000000000e+00 0.0000000000e+00 0.0000000000e+00 0.0000000000e+00 0.0000000000e+00 0.0000000000e+00 0.0000000000e+00 0.0000000000e+00 0.0000000000e+00 0.0000000000e+00 0.0000000000e+00 0.0000000000e+00 0.0000000000e+00 0.0000000000e+00 0.0000000000e+00 0.0000000000e+00 0.0000000000e+00 0.0000000000e+00 0.0000000000e+00 0.0000000000e+00 0.0000000000e+00 0.0000000000e+00 0.0000000000e+00 0.0000000000e+00 0.0000000000e+00 0.0000000000e+00 0.0000000000e+00 0.0000000000e+00 0.0000000000e+00 0.0000000000e+00 0.0000000000e+00 0.0000000000e+00 0.0000000000e+00 0.0000000000e+00 0.0000000000e+00 0.0000000000e+00 0.0000000000e+00 0.0000000000e+00 0.0000000000e+00 0.0000000000e+00 0.0000000000e+00 0.0000000000e+00 0.0000000000e+00 0.0000000000e+00 0.0000000000e+00 0.0000000000e+00 0.0000000000e+00 0.0000000000e+00 0.0000000000e+00 0.0000000000e+00 0.0000000000e+00 0.0000000000e+00 0.0000000000e+00 0.0000000000e+00 0.0000000000e+00 0.0000000000e+00 0.0000000000e+00 0.0000000000e+00 0.0000000000e+00 0.0000000000e+00 0.0000000000e+00 0.0000000000e+00 0.0000000000e+00 0.0000000000e+00 0.0000000000e+00 0.0000000000e+00 0.0000000000e+00 0.0000000000e+00 0.0000000000e+00 0.0000000000e+00 0.0000000000e+00 0.0000000000e+00 0.0000000000e+00 0.0000000000e+00 0.0000000000e+00 0.0000000000e+00 0.0000000000e+00 0.0000000000e+00 0.0000000000e+00 0.0000000000e+00 0.0000000000e+00 0.0000000000e+00 0.0000000000e+00 0.0000000000e+00 0.0000000000e+00 0.0000000000e+00 0.0000000000e+00 0.0000000000e+00 0.0000000000e+00 0.0000000000e+00 0.0000000000e+00 0.0000000000e+00 0.0000000000e+00 0.0000000000e+00 0.0000000000e+00 0.0000000000e+00 0.0000000000e+00 0.0000000000e+00 0.0000000000e+00 0.0000000000e+00 0.0000000000e+00 0.0000000000e+00 0.0000000000e+00 0.0000000000e+00 0.0000000000e+00 0.0000000000e+00 0.0000000000e+00 0.0000000000e+00 0.0000000000e+00 0.0000000000e+00 0.0000000000e+00 0.0000000000e+00 0.0000000000e+00 0.0000000000e+00 0.0000000000e+00 0.0000000000e+00 0.0000000000e+00 0.0000000000e+00 0.0000000000e+00 0.0000000000e+00 0.0000000000e+00 0.0000000000e+00 0.0000000000e+00 0.0000000000e+00 0.0000000000e+00 0.0000000000e+00 0.0000000000e+00 0.0000000000e+00 0.0000000000e+00 0.0000000000e+00 0.0000000000e+00 0.0000000000e+00 0.0000000000e+00 0.0000000000e+00 0.0000000000e+00 0.0000000000e+00 0.0000000000e+00 0.0000000000e+00 0.0000000000e+00 0.0000000000e+00 0.0000000000e+00 0.0000000000e+00 0.0000000000e+00 0.0000000000e+00 0.0000000000e+00 0.0000000000e+00 0.0000000000e+00 0.0000000000e+00 0.0000000000e+00 0.0000000000e+00 0.0000000000e+00 0.0000000000e+00 0.0000000000e+00 0.0000000000e+00 0.0000000000e+00 0.0000000000e+00 0.0000000000e+00 0.0000000000e+00 0.0000000000e+00 0.0000000000e+00 0.0000000000e+00 0.0000000000e+00 0.0000000000e+00 0.0000000000e+00 0.0000000000e+00 0.0000000000e+00 0.0000000000e+00 0.0000000000e+00 0.0000000000e+00 0.0000000000e+00 0.0000000000e+00 0.0000000000e+00 0.0000000000e+00 0.0000000000e+00 0.0000000000e+00 0.0000000000e+00 0.0000000000e+00 0.0000000000e+00 0.0000000000e+00 0.0000000000e+00 0.0000000000e+00 0.0000000000e+00 0.0000000000e+00 0.0000000000e+00 0.0000000000e+00 0.0000000000e+00 0.0000000000e+00 0.0000000000e+00 0.0000000000e+00 0.0000000000e+00 0.0000000000e+00 0.0000000000e+00 0.0000000000e+00 0.0000000000e+00 0.0000000000e+00 0.0000000000e+00 0.0000000000e+00 0.0000000000e+00 0.0000000000e+00 0.0000000000e+00 0.0000000000e+00 0.0000000000e+00 0.0000000000e+00 0.0000000000e+00 0.0000000000e+00 0.0000000000e+00 0.0000000000e+00 0.0000000000e+00 0.0000000000e+00 0.0000000000e+00 0.0000000000e+00 0.0000000000e+00 0.0000000000e+00 0.0000000000e+00 0.0000000000e+00 0.0000000000e+00 0.0000000000e+00 0.0000000000e+00 0.0000000000e+00 0.0000000000e+00 0.0000000000e+00 0.0000000000e+00 0.0000000000e+00 0.0000000000e+00 0.0000000000e+00 0.0000000000e+00 0.0000000000e+00 0.0000000000e+00 0.0000000000e+00 0.0000000000e+00 0.0000000000e+00 0.0000000000e+00 0.0000000000e+00 0.0000000000e+00 0.0000000000e+00 0.0000000000e+00 0.0000000000e+00 0.0000000000e+00 0.0000000000e+00 0.0000000000e+00 0.0000000000e+00 0.0000000000e+00 0.0000000000e+00 0.0000000000e+00 0.0000000000e+00 0.0000000000e+00 0.0000000000e+00 0.0000000000e+00 0.0000000000e+00 0.0000000000e+00 0.0000000000e+00 0.0000000000e+00 0.0000000000e+00 0.0000000000e+00 0.0000000000e+00 0.0000000000e+00 0.0000000000e+00 0.0000000000e+00 0.0000000000e+00 0.0000000000e+00 0.0000000000e+00 0.0000000000e+00 0.0000000000e+00 0.0000000000e+00 0.0000000000e+00 0.0000000000e+00 0.0000000000e+00 0.0000000000e+00 0.0000000000e+00 0.0000000000e+00 0.0000000000e+00 0.0000000000e+00 0.0000000000e+00 0.0000000000e+00 0.0000000000e+00 0.0000000000e+00 0.0000000000e+00 0.0000000000e+00 0.0000000000e+00 0.0000000000e+00 0.0000000000e+00 0.0000000000e+00 0.0000000000e+00 0.0000000000e+00 0.0000000000e+00 0.0000000000e+00 0.0000000000e+00 0.0000000000e+00 0.0000000000e+00 0.0000000000e+00 0.0000000000e+00 0.0000000000e+00 0.0000000000e+00 0.0000000000e+00 0.0000000000e+00 0.0000000000e+00 0.0000000000e+00 0.0000000000e+00 0.0000000000e+00 0.0000000000e+00 0.0000000000e+00 0.0000000000e+00 0.0000000000e+00 0.0000000000e+00 0.0000000000e+00 0.0000000000e+00 0.0000000000e+00 0.0000000000e+00 0.0000000000e+00 0.0000000000e+00 0.0000000000e+00 0.0000000000e+00 0.0000000000e+00 0.0000000000e+00 0.0000000000e+00 0.0000000000e+00 0.0000000000e+00 0.0000000000e+00 0.0000000000e+00 0.0000000000e+00 0.0000000000e+00 0.0000000000e+00 0.0000000000e+00 0.0000000000e+00 0.0000000000e+00 0.0000000000e+00 0.0000000000e+00 0.0000000000e+00 0.0000000000e+00 0.0000000000e+00 0.0000000000e+00
        </DataArray>
        <DataArray type="Float64" Name="force" NumberOfComponents="3" format="ascii">
          -1.0852933726e-02 -1.0839020109e-03 0.0000000000e+00 -8.6027606618e-03 2.1505157437e-03 0.0000000000e+00 -1.2301397971e-02 -6.6894344199e-04 0.0000000000e+00 9.8609146232e-04 1.1776721657e-02 0.0000000000e+00 -1.3365660891e-02 -1.5098938704e-03 0.0000000000e+00 1.7600424008e-03 1.0623113778e-02 0.0000000000e+00 -8.4002490020e-03 3.0569974003e-03 0.0000000000e+00 -3.8838769294e-05 7.8127413933e-03 0.0000000000e+00 -4.8459047546e-03 5.5198763424e-03 0.0000000000e+00 -1.7991440927e-03 6.6362518419e-03 0.0000000000e+00 -2.5853461903e-03 6.4179814456e-03 0.0000000000e+00 -1.6902974292e-03 6.6892957996e-03 0.0000000000e+00 -2.3020307671e-03 6.5269450948e-03 0.0000000000e+00 -1.7286780953e-03 6.6514387771e-03 0.0000000000e+00 -1.6069293587e-03 6.7142832828e-03 0.0000000000e+00 -1.3893869937e-03 6.8412453125e-03 0.0000000000e+00 -1.2452175027e-03 6.8954284239e-03 0.0000000000e+00 -1.2583751778e-03 6.9025031759e-03 0.0000000000e+00 -1.0921931859e-03 6.9241559324e-03 0.0000000000e+00 -1.0548345229e-03 6.9337598570e-03 0.0000000000e+00 -1.0340894021e-03 6.9540287396e-03 0.0000000000e+00 -8.9545040295e-04 7.0005018154e-03 0.0000000000e+00 -7.4810034781e-04 7.0550044923e-03 0.0000000000e+00 -6.8045999668e-04 7.1042990255e-03 0.0000000000e+00 -6.1433689333e-04 7.1417594233e-03 0.0000000000e+00 -5.5399688981e-04 7.1741548315e-03 0.0000000000e+00 -4.9411722948e-04 7.2024213812e-03 0.0000000000e+00 -4.3731586937e-04 7.2276138074e-03 0.0000000000e+00 -3.8231596460e-04 7.2522174440e-03 0.0000000000e+00 -3.2993762342e-04 7.2728727294e-03 0.0000000000e+00 -2.7928970286e-04 7.2955096024e-03 0.0000000000e+00 -2.3076895196e-04 7.3104488424e-03 0.0000000000e+00 -1.8401483375e-04 7.3463453531e-03 0.0000000000e+00 -1.3922582784e-04 7.3559425825e-03 0.0000000000e+00 -9.5621987220e-05 7.3772439454e-03 0.0000000000e+00 -5.4100914062e-05 7.4018175557e-03 0.0000000000e+00 -1.3812924608e-05 7.4208794671e-03 0.0000000000e+00 2.4799268222e-05 7.4413155040e-03 0.0000000000e+00 6.2430455298e-05 7.4589282809e-03 0.0000000000e+00 9.8852492557e-05 7.4766893602e-03 0.0000000000e+00 1.3465640358e-04 7.4928539948e-03 0.0000000000e+00 1.6986762276e-04 7.5086968417e-03 0.0000000000e+00 2.0520209521e-04 7.5232723113e-03 0.0000000000e+00 2.4155632069e-04 7.5373575618e-03 0.0000000000e+00 2.8458504341e-04 7.5486843716e-03 0.0000000000e+00 3.5885702811e-04 7.5604052359e-03 0.0000000000e+00 4.2239630335e-04 7.5763816019e-03 0.0000000000e+00 3.7195878588e-04 7.6033774374e-03 0.0000000000e+00 4.0558133396e-04 7.6293777990e-03 0.0000000000e+00 4.1219992961e-04 7.6526524246e-03 0.0000000000e+00 4.5227817590e-04 7.6716328200e-03 0.0000000000e+00 4.6210855621e-04 7.6891701891e-03 0.0000000000e+00 5.0682451220e-04 7.7040293075e-03 0.0000000000e+00 5.3437491935e-04 7.7150648130e-03 0.0000000000e+00 5.3567819475e-04 7.7228117811e-03 0.0000000000e+00 5.7381602432e-04 7.7270584223e-03 0.0000000000e+00 5.9253164828e-04 7.7289819814e-03 0.0000000000e+00 6.6073970777e-04 7.7234805479e-03 0.0000000000e+00 7.8436220568e-04 7.7223235205e-03 0.0000000000e+00 7.2310058948e-04 7.7517847925e-03 0.0000000000e+00 6.7762197676e-04 7.7882462821e-03 0.0000000000e+00 7.0782469490e-04 7.8161064617e-03 0.0000000000e+00 7.1222488950e-04 7.8377196487e-03 0.0000000000e+00 7.9502249649e-04 7.8460887255e-03 0.0000000000e+00 7.3926399332e-04 7.8525857369e-03 0.0000000000e+00 8.0003041984e-04 7.8452203846e-03 0.0000000000e+00 8.0826684427e-04 7.8316322798e-03 0.0000000000e+00 1.0129802621e-03 7.8144117372e-03 0.0000000000e+00 9.2651337324e-04 7.8451500785e-03 0.0000000000e+00 8.5907113010e-04 7.8844010067e-03 0.0000000000e+00 8.5244982669e-04 7.9241996532e-03 0.0000000000e+00 9.4310862972e-04 7.9351782991e-03 0.0000000000e+00 9.1787498105e-04 7.9457281289e-03 0.0000000000e+00 9.0954622262e-04 7.9322716151e-03 0.0000000000e+00 9.9881201714e-04 7.9058952835e-03 0.0000000000e+00 1.1567496357e-03 7.8870517715e-03 0.0000000000e+00 1.0652569230e-03 7.9245048360e-03 0.0000000000e+00 9.6227162883e-04 7.9694651970e-03 0.0000000000e+00 1.0209019616e-03 8.0106167393e-03 0.0000000000e+00 1.0764124058e-03 8.0065899778e-03 0.0000000000e+00 1.0064636628e-03 8.0127956750e-03 0.0000000000e+00 1.0929834628e-03 7.9673610896e-03 0.0000000000e+00 1.2601818186e-03 7.9555034443e-03 0.0000000000e+00 1.2237087611e-03 7.9676668228e-03 0.0000000000e+00 1.0336926286e-03 8.0416318299e-03 0.0000000000e+00 1.1505578856e-03 8.0672193946e-03 0.0000000000e+00 1.1589851464e-03 8.0800323837e-03 0.0000000000e+00 1.0925976727e-03 8.0562473252e-03 0.0000000000e+00 1.2855028749e-03 8.0153361361e-03 0.0000000000e+00 1.3855527753e-03 8.0055565548e-03 0.0000000000e+00 1.1823789527e-03 8.0531471587e-03 0.0000000000e+00 1.1653383666e-03 8.1226345278e-03 0.0000000000e+00 1.2775434419e-03 8.1229738307e-03 0.0000000000e+00 1.1686153602e-03 8.1262217787e-03 0.0000000000e+00 1.3085583911e-03 8.0684976215e-03 0.0000000000e+00 1.4535101516e-03 8.0481737840e-03 0.0000000000e+00 1.3445478812e-03 8.0831917493e-03 0.0000000000e+00 1.1935208529e-03 8.1628918191e-03 0.0000000000e+00 1.3628779360e-03 8.1709625543e-03 0.0000000000e+00 1.2337717396e-03 8.1680195599e-03 0.0000000000e+00 1.3884336490e-03 8.1124284463e-03 0.0000000000e+00 1.5417158262e-03 8.0830469061e-03 0.0000000000e+00 1.3686019428e-03 8.1330077284e-03 0.0000000000e+00 1.2896944871e-03 8.2082600340e-03 0.0000000000e+00 1.4170397710e-03 8.2148616969e-03 0.0000000000e+00 1.2911237831e-03 8.1937146237e-03 0.0000000000e+00 1.5043216660e-03 8.1402265203e-03 0.0000000000e+00 1.6436735748e-03 8.1195996620e-03 0.0000000000e+00 1.2902840585e-03 8.2020100840e-03 0.0000000000e+00 1.4572635419e-03 8.2488984935e-03 0.0000000000e+00 1.4037109353e-03 8.2522840543e-03 0.0000000000e+00 1.4204949733e-03 8.2025803292e-03 0.0000000000e+00 1.6298730072e-03 8.1526522516e-03 0.0000000000e+00 1.6114530466e-03 8.1801976958e-03 0.0000000000e+00 1.3261549962e-03 8.2751562511e-03 0.0000000000e+00 1.5685963616e-03 8.2801561939e-03 0.0000000000e+00 1.3713186458e-03 8.2618178134e-03 0.0000000000e+00 1.6453041131e-03 8.1954398889e-03 0.0000000000e+00 1.7543781824e-03 8.1819128061e-03 0.0000000000e+00 1.3473620336e-03 8.2804145301e-03 0.0000000000e+00 1.6147408193e-03 8.3082710172e-03 0.0000000000e+00 1.4347627271e-03 8.3039233679e-03 0.0000000000e+00 1.6311445032e-03 8.2359332696e-03 0.0000000000e+00 1.8182349814e-03 8.1959364065e-03 0.0000000000e+00 1.4436009736e-03 8.2860789416e-03 0.0000000000e+00 1.6142094241e-03 8.3343074621e-03 0.0000000000e+00 1.5192264956e-03 8.3331210269e-03 0.0000000000e+00 1.6180923364e-03 8.2699777808e-03 0.0000000000e+00 1.8723841774e-03 8.2141298134e-03 0.0000000000e+00 1.5216426941e-03 8.2996475080e-03 0.0000000000e+00 1.6302386992e-03 8.3570853209e-03 0.0000000000e+00 1.5765557685e-03 8.3568238863e-03 0.0000000000e+00 1.6395311815e-03 8.2940716100e-03 0.0000000000e+00 1.9317649772e-03 8.2320793998e-03 0.0000000000e+00 1.5420716357e-03 8.3239115303e-03 0.0000000000e+00 1.6912327226e-03 8.3759814084e-03 0.0000000000e+00 1.5846497685e-03 8.3789380200e-03 0.0000000000e+00 1.7218558375e-03 8.3049417995e-03 0.0000000000e+00 1.9716076889e-03 8.2527697614e-03 0.0000000000e+00 1.5283878651e-03 8.3561509910e-03 0.0000000000e+00 1.7798179298e-03 8.3925041435e-03 0.0000000000e+00 1.5609154566e-03 8.3972085275e-03 0.0000000000e+00 1.8539646196e-03 8.3030670686e-03 0.0000000000e+00 1.9666415670e-03 8.2816956511e-03 0.0000000000e+00 1.5312009466e-03 8.3922480436e-03 0.0000000000e+00 1.8643055946e-03 8.4072609323e-03 0.0000000000e+00 1.5262231477e-03 8.4070317169e-03 0.0000000000e+00 2.0376286228e-03 8.2898817424e-03 0.0000000000e+00 1.8521034888e-03 8.3284345817e-03 0.0000000000e+00 1.6599240084e-03 8.4173568811e-03 0.0000000000e+00 1.8135263346e-03 8.4321780480e-03 0.0000000000e+00 1.6513722142e-03 8.3877999461e-03 0.0000000000e+00 2.1336419867e-03 8.2883047114e-03 0.0000000000e+00 1.7063073924e-03 8.3833467941e-03 0.0000000000e+00 1.8416456561e-03 8.4351500014e-03 0.0000000000e+00 1.6671685092e-03 8.4498185641e-03 0.0000000000e+00 1.9654710046e-03 8.3440400479e-03 0.0000000000e+00 2.0516624142e-03 8.3243687050e-03 0.0000000000e+00 1.6579288421e-03 8.4342508391e-03 0.0000000000e+00 1.9428649435e-03 8.4513796232e-03 0.0000000000e+00 1.6339590949e-03 8.4344768598e-03 0.0000000000e+00 2.2229708347e-03 8.3079674175e-03 0.0000000000e+00 1.8051252703e-03 8.3953545802e-03 0.0000000000e+00 1.8941485845e-03 8.4525612789e-03 0.0000000000e+00 1.7226160678e-03 8.4753557275e-03 0.0000000000e+00 2.0489187010e-03 8.3609472383e-03 0.0000000000e+00 2.0908394372e-03 8.3459845877e-03 0.0000000000e+00 1.7566315521e-03 8.4523148088e-03 0.0000000000e+00 1.9579624466e-03 8.4749316184e-03 0.0000000000e+00 1.7623351469e-03 8.4360294510e-03 0.0000000000e+00 2.2923159060e-03 8.3195046491e-03 0.0000000000e+00 1.8032052450e-03 8.4292234899e-03 0.0000000000e+00 2.0119255999e-03 8.4694524391e-03 0.0000000000e+00 1.7223915581e-03 8.4830695700e-03 0.0000000000e+00 2.2683990443e-03 8.3401606871e-03 0.0000000000e+00 1.9862016003e-03 8.3920720229e-03 0.0000000000e+00 1.9579958527e-03 8.4662297273e-03 0.0000000000e+00 1.8216357536e-03 8.4964233657e-03 0.0000000000e+00 2.1559672672e-03 8.3757611019e-03 0.0000000000e+00 2.1599652020e-03 8.3567670240e-03 0.0000000000e+00 1.9196859805e-03 8.4565936350e-03 0.0000000000e+00 1.9459747136e-03 8.4906345749e-03 0.0000000000e+00 2.0329899546e-03 8.4072418182e-03 0.0000000000e+00 2.3004353063e-03 8.3234854191e-03 0.0000000000e+00 1.9297062678e-03 8.4314267185e-03 0.0000000000e+00 2.0301412668e-03 8.4726984502e-03 0.0000000000e+00 1.9685420527e-03 8.4180959911e-03 0.0000000000e+00 2.3655049081e-03 8.2851419411e-03 0.0000000000e+00 2.0462070723e-03 8.3650105891e-03 0.0000000000e+00 1.9750877906e-03 8.4451274717e-03 0.0000000000e+00 2.0319269122e-03 8.3980548360e-03 0.0000000000e+00 2.3757198529e-03 8.2137502071e-03 0.0000000000e+00 2.2616678456e-03 8.1667652238e-03 0.0000000000e+00 1.7278852971e-03 8.4576120810e-03 0.0000000000e+00 2.3123474263e-03 8.1824024580e-03 0.0000000000e+00 1.1056971434e-03 9.1768569256e-03 0.0000000000e+00 3.2796238613e-03 9.6772573227e-03 0.0000000000e+00 4.8215929547e-06 1.3752956608e-02 0.0000000000e+00 8.5150937678e-03 1.0134974395e-02 0.0000000000e+00 -2.7121481592e-04 1.3976754121e-04 0.0000000000e+00 -1.6196571531e-03 -1.0870860817e-02 0.0000000000e+00 3.7909183326e-04 -1.3881516456e-02 0.0000000000e+00 -5.0365658029e-04 -9.6915297071e-03 0.0000000000e+00 -8.1218725463e-04 -9.4715909466e-03 0.0000000000e+00 2.3039720961e-04 -8.3550451193e-03 0.0000000000e+00 4.3347974916e-05 -8.6924923747e-03 0.0000000000e+00 2.2320306226e-04 -8.3574162893e-03 0.0000000000e+00 3.2836739391e-04 -8.6021083710e-03 0.0000000000e+00 1.7987612112e-04 -8.6589098081e-03 0.0000000000e+00 9.1696494643e-05 -8.6508459529e-03 0.0000000000e+00 1.5523585379e-04 -8.6069625758e-03 0.0000000000e+00 2.4339567636e-04 -8.6491181021e-03 0.0000000000e+00 1.5933355184e-04 -8.6929682741e-03 0.0000000000e+00 1.1121435096e-04 -8.6875240877e-03 0.0000000000e+00 1.2621419861e-04 -8.6730078816e-03 0.0000000000e+00 1.6392721127e-04 -8.6860238659e-03 0.0000000000e+00 1.3548177821e-04 -8.6935289475e-03 0.0000000000e+00 1.0599427016e-04 -8.7057885105e-03 0.0000000000e+00 1.0307320363e-04 -8.7061610624e-03 0.0000000000e+00 1.1396707031e-04 -8.6930398668e-03 0.0000000000e+00 1.0277663514e-04 -8.7152245755e-03 0.0000000000e+00 8.8314926950e-05 -8.7120399900e-03 0.0000000000e+00 7.9935548267e-05 -8.7189464479e-03 0.0000000000e+00 7.8826775135e-05 -8.7173868230e-03 0.0000000000e+00 7.2559227131e-05 -8.7229764573e-03 0.0000000000e+00 6.3393194553e-05 -8.7236628945e-03 0.0000000000e+00 5.5301646250e-05 -8.7251851778e-03 0.0000000000e+00 5.0185283514e-05 -8.7256458781e-03 0.0000000000e+00 4.4643600914e-05 -8.7268008833e-03 0.0000000000e+00 3.7613484685e-05 -8.7278547924e-03 0.0000000000e+00 3.0430651153e-05 -8.7286120358e-03 0.0000000000e+00 2.4171479101e-05 -8.7289440582e-03 0.0000000000e+00 1.8228344717e-05 -8.7295324553e-03 0.0000000000e+00 1.1763635460e-05 -8.7300527503e-03 0.0000000000e+00 4.9694075895e-06 -8.7304631089e-03 0.0000000000e+00 -1.6738618936e-06 -8.7309091680e-03 0.0000000000e+00 -8.0797987230e-06 -8.7310006634e-03 0.0000000000e+00 -1.4564190422e-05 -8.7312036805e-03 0.0000000000e+00 -2.1233536708e-05 -8.7314963800e-03 0.0000000000e+00 -2.7843370138e-05 -8.7315652602e-03 0.0000000000e+00 -3.4434094790e-05 -8.7315968747e-03 0.0000000000e+00 -4.1007196641e-05 -8.7315452482e-03 0.0000000000e+00 -4.7693025736e-05 -8.7316299895e-03 0.0000000000e+00 -5.4454100710e-05 -8.7316473033e-03 0.0000000000e+00 -6.1260311972e-05 -8.7315072390e-03 0.0000000000e+00 -6.8065764805e-05 -8.7314079101e-03 0.0000000000e+00 -7.4936239415e-05 -8.7312933907e-03 0.0000000000e+00 -8.1832826281e-05 -8.7310989364e-03 0.0000000000e+00 -8.8824539195e-05 -8.7306303204e-03 0.0000000000e+00 -9.5774245040e-05 -8.7304727973e-03 0.0000000000e+00 -1.0286423666e-04 -8.7295790190e-03 0.0000000000e+00 -1.0982746916e-04 -8.7296248632e-03 0.0000000000e+00 -1.1706270677e-04 -8.7277582402e-03 0.0000000000e+00 -1.2398386259e-04 -8.7282100422e-03 0.0000000000e+00 -1.3140029390e-04 -8.7245140642e-03 0.0000000000e+00 -1.3821890125e-04 -8.7260711031e-03 0.0000000000e+00 -1.4589863449e-04 -8.7173620724e-03 0.0000000000e+00 -1.5265831253e-04 -8.7200964835e-03 0.0000000000e+00 -1.5998336917e-04 -8.7311158528e-03 0.0000000000e+00 -1.6728155570e-04 -8.7131207035e-03 0.0000000000e+00 -1.7471593902e-04 -8.7245584074e-03 0.0000000000e+00 -1.8176216439e-04 -8.7224227316e-03 0.0000000000e+00 -1.8927380228e-04 -8.7276214006e-03 0.0000000000e+00 -1.9646363455e-04 -8.7268022495e-03 0.0000000000e+00 -2.0399890962e-04 -8.7291816538e-03 0.0000000000e+00 -2.1134793155e-04 -8.7291784633e-03 0.0000000000e+00 -2.1892723324e-04 -8.7303656814e-03 0.0000000000e+00 -2.2643327828e-04 -8.7310467221e-03 0.0000000000e+00 -2.3408550345e-04 -8.7317356684e-03 0.0000000000e+00 -2.4171649466e-04 -8.7324104511e-03 0.0000000000e+00 -2.4946674240e-04 -8.7332349224e-03 0.0000000000e+00 -2.5720651394e-04 -8.7338611561e-03 0.0000000000e+00 -2.6504476861e-04 -8.7346676690e-03 0.0000000000e+00 -2.7286628893e-04 -8.7352799970e-03 0.0000000000e+00 -2.8077987051e-04 -8.7361194856e-03 0.0000000000e+00 -2.8862766448e-04 -8.7371238736e-03 0.0000000000e+00 -2.9658044099e-04 -8.7377314832e-03 0.0000000000e+00 -3.0426541031e-04 -8.7386259723e-03 0.0000000000e+00 -3.1302111372e-04 -8.7395655396e-03 0.0000000000e+00 -3.2023571903e-04 -8.7403448597e-03 0.0000000000e+00 -3.2879614596e-04 -8.7412705250e-03 0.0000000000e+00 -3.3648107576e-04 -8.7420471910e-03 0.0000000000e+00 -3.4545796424e-04 -8.7430235657e-03 0.0000000000e+00 -3.5285483842e-04 -8.7439832260e-03 0.0000000000e+00 -3.6241340206e-04 -8.7442626382e-03 0.0000000000e+00 -3.7083711042e-04 -8.7443983092e-03 0.0000000000e+00 -3.8015987697e-04 -8.7444290934e-03 0.0000000000e+00 -3.8918204419e-04 -8.7442674564e-03 0.0000000000e+00 -3.9850877508e-04 -8.7438660487e-03 0.0000000000e+00 -4.0770201702e-04 -8.7427475065e-03 0.0000000000e+00 -4.1699773957e-04 -8.7416991315e-03 0.0000000000e+00 -4.2624873074e-04 -8.7392245662e-03 0.0000000000e+00 -4.3548371447e-04 -8.7374257499e-03 0.0000000000e+00 -4.4510430840e-04 -8.7315385449e-03 0.0000000000e+00 -4.5458508021e-04 -8.7290185461e-03 0.0000000000e+00 -4.6791315947e-04 -8.7167837045e-03 0.0000000000e+00 -4.8284983404e-04 -8.7131860221e-03 0.0000000000e+00 -5.4105123879e-04 -8.6912046248e-03 0.0000000000e+00 -5.5131452550e-04 -8.7027420017e-03 0.0000000000e+00 -5.2718161631e-04 -8.7079336354e-03 0.0000000000e+00 -5.3589821901e-04 -8.7008110423e-03 0.0000000000e+00 -5.4419568885e-04 -8.7206350854e-03 0.0000000000e+00 -5.5617524085e-04 -8.7212428272e-03 0.0000000000e+00 -5.6724966884e-04 -8.7325512145e-03 0.0000000000e+00 -5.7835151514e-04 -8.7349434347e-03 0.0000000000e+00 -5.8898537799e-04 -8.7421925757e-03 0.0000000000e+00 -5.9906664602e-04 -8.7455217364e-03 0.0000000000e+00 -6.1128393349e-04 -8.7513763934e-03 0.0000000000e+00 -6.1975254780e-04 -8.7542535427e-03 0.0000000000e+00 -6.3435680727e-04 -8.7550351672e-03 0.0000000000e+00 -6.4410497397e-04 -8.7544475371e-03 0.0000000000e+00 -6.5689070552e-04 -8.7521955084e-03 0.0000000000e+00 -6.6771382770e-04 -8.7473392324e-03 0.0000000000e+00 -6.7980132975e-04 -8.7390720332e-03 0.0000000000e+00 -6.9773095657e-04 -8.7248328720e-03 0.0000000000e+00 -7.5506036526e-04 -8.7071305043e-03 0.0000000000e+00 -8.3622964658e-04 -8.6961323842e-03 0.0000000000e+00 -7.7510791423e-04 -8.7060441456e-03 0.0000000000e+00 -7.7924225487e-04 -8.7224964379e-03 0.0000000000e+00 -7.7933707368e-04 -8.7372406628e-03 0.0000000000e+00 -8.0861261629e-04 -8.7484965736e-03 0.0000000000e+00 -8.0541880953e-04 -8.7591558966e-03 0.0000000000e+00 -8.4121103212e-04 -8.7680404055e-03 0.0000000000e+00 -8.3020952329e-04 -8.7752980126e-03 0.0000000000e+00 -8.7288121615e-04 -8.7720482417e-03 0.0000000000e+00 -8.5106199119e-04 -8.7681440650e-03 0.0000000000e+00 -9.0820277820e-04 -8.7546757395e-03 0.0000000000e+00 -8.6918089382e-04 -8.7341471323e-03 0.0000000000e+00 -1.0532279859e-03 -8.7026243338e-03 0.0000000000e+00 -1.0586945782e-03 -8.6984883864e-03 0.0000000000e+00 -9.9683197145e-04 -8.7189586804e-03 0.0000000000e+00 -1.0000955144e-03 -8.7478722808e-03 0.0000000000e+00 -1.0125681741e-03 -8.7682640350e-03 0.0000000000e+00 -1.0463958757e-03 -8.7843902336e-03 0.0000000000e+00 -1.0490062242e-03 -8.7975403441e-03 0.0000000000e+00 -1.0721139575e-03 -8.7906387597e-03 0.0000000000e+00 -1.0881529827e-03 -8.7783214136e-03 0.0000000000e+00 -1.0763965697e-03 -8.7469771863e-03 0.0000000000e+00 -1.2979294212e-03 -8.7047288729e-03 0.0000000000e+00 -1.3045199127e-03 -8.7072589638e-03 0.0000000000e+00 -1.2028774887e-03 -8.7356740512e-03 0.0000000000e+00 -1.2133961909e-03 -8.7831589755e-03 0.0000000000e+00 -1.2638478584e-03 -8.8003350173e-03 0.0000000000e+00 -1.2544045006e-03 -8.8242951679e-03 0.0000000000e+00 -1.3000505493e-03 -8.8001678172e-03 0.0000000000e+00 -1.2626593758e-03 -8.7804164832e-03 0.0000000000e+00 -1.4947355904e-03 -8.7188281799e-03 0.0000000000e+00 -1.5831529522e-03 -8.7134494345e-03 0.0000000000e+00 -1.3997528180e-03 -8.7563601065e-03 0.0000000000e+00 -1.4631851912e-03 -8.8186778431e-03 0.0000000000e+00 -1.4541980111e-03 -8.8449954469e-03 0.0000000000e+00 -1.5090173406e-03 -8.8519663666e-03 0.0000000000e+00 -1.4883836396e-03 -8.7911786260e-03 0.0000000000e+00 -1.7355433648e-03 -8.7468724646e-03 0.0000000000e+00 -1.8457382011e-03 -8.7336287498e-03 0.0000000000e+00 -1.5987481903e-03 -8.8091083985e-03 0.0000000000e+00 -1.7085607101e-03 -8.8708668698e-03 0.0000000000e+00 -1.6857550112e-03 -8.8946441102e-03 0.0000000000e+00 -1.7357039656e-03 -8.8215263429e-03 0.0000000000e+00 -1.9862616648e-03 -8.7680129513e-03 0.0000000000e+00 -2.0924721066e-03 -8.7656546228e-03 0.0000000000e+00 -1.8755619234e-03 -8.8482369103e-03 0.0000000000e+00 -1.8774911205e-03 -8.9461712803e-03 0.0000000000e+00 -1.9652069914e-03 -8.8742559383e-03 0.0000000000e+00 -2.1968310702e-03 -8.8053055597e-03 0.0000000000e+00 -2.3713953187e-03 -8.7876009013e-03 0.0000000000e+00 -2.1987001585e-03 -8.8623405624e-03 0.0000000000e+00 -2.0293938502e-03 -9.0154773039e-03 0.0000000000e+00 -2.3799558457e-03 -8.8458673422e-03 0.0000000000e+00 -2.4545376901e-03 -8.8533916009e-03 0.0000000000e+00 -2.8213960598e-03 -8.7854534485e-03 0.0000000000e+00 -2.1570823733e-03 -9.0579189994e-03 0.0000000000e+00 -2.6452667935e-03 -8.9052083940e-03 0.0000000000e+00 -2.7227150002e-03 -8.8760089905e-03 0.0000000000e+00 -3.2601249448e-03 -8.8227178698e-03 0.0000000000e+00 -2.3061308430e-03 -9.0669914569e-03 0.0000000000e+00 -3.1028560958e-03 -8.9871658262e-03 0.0000000000e+00 -3.3960861690e-03 -8.7054191441e-03 0.0000000000e+00 -3.1013134182e-03 -9.2082925399e-03 0.0000000000e+00 -3.1377650473e-03 -8.7086365918e-03 0.0000000000e+00 -3.3082780224e-03 -9.3761642858e-03 0.0000000000e+00 -4.5993440174e-03 -8.1881773667e-03 0.0000000000e+00 -2.1008022337e-03 -9.9996146452e-03 0.0000000000e+00 -5.6616005615e-03 -7.7715475405e-03 0.0000000000e+00 -3.1460838094e-03 -9.7612565778e-03 0.0000000000e+00 -4.3700031731e-03 -8.4359755137e-03 0.0000000000e+00 -5.6212449239e-03 -8.9213842501e-03 0.0000000000e+00 -3.0243978335e-03 -9.2025349678e-03 0.0000000000e+00 -7.3533297055e-03 -8.2822303773e-03 0.0000000000e+00 -3.1791062247e-03 -9.5775164655e-03 0.0000000000e+00 -8.3059543060e-03 -7.7247904872e-03 0.0000000000e+00 -3.5289909080e-03 -1.0242302839e-02 0.0000000000e+00 -1.0265092434e-02 -6.0936732093e-03 0.0000000000e+00 -4.7830417218e-03 -1.0340045517e-02 0.0000000000e+00 -1.0580023873e-02 -4.7026530998e-03 0.0000000000e+00 -8.0149305361e-03 -9.0567233569e-03 0.0000000000e+00 -1.1695103528e-02 -2.7495573811e-03 0.0000000000e+00 -1.0218571835e-02 -3.5212626891e-03 0.0000000000e+00
        </DataArray>
      </PointData>
    </Piece>
  </PolyData>
</VTKFile>
