<?xml version="1.0"?>
<VTKFile type="PolyData" version="0.1" byte_order="LittleEndian">
  <PolyData>
    <FieldData>
      <DataArray type="Float64" Name="TimeValue" NumberOfTuples="1" format="ascii">
        2.499999999999635e+01
      </DataArray>
    </FieldData>
    <Piece NumberOfPoints="398" NumberOfVerts="398" NumberOfLines="0" NumberOfStrips="0" NumberOfPolys="0">
      <Points>
        <DataArray type="Float64" NumberOfComponents="3" format="ascii">
          -4.9726094768e-01 5.2264231634e-02 0.0000000000e+00 -4.9591980461e-01 5.7187521354e-02 0.0000000000e+00 -4.9320742903e-01 6.1518265364e-02 0.0000000000e+00 -4.8960598536e-01 6.5153650837e-02 0.0000000000e+00 -4.8548567450e-01 6.8194643038e-02 0.0000000000e+00 -4.8105786906e-01 7.0770768034e-02 0.0000000000e+00 -4.7643787966e-01 7.2985647804e-02 0.0000000000e+00 -4.7169100133e-01 7.4914697529e-02 0.0000000000e+00 -4.6685629730e-01 7.6612338955e-02 0.0000000000e+00 -4.6195841863e-01 7.8118474475e-02 0.0000000000e+00 -4.5701365804e-01 7.9463020303e-02 0.0000000000e+00 -4.5203321881e-01 8.0668916425e-02 0.0000000000e+00 -4.4702506197e-01 8.1754126178e-02 0.0000000000e+00 -4.4199500846e-01 8.2732982305e-02 0.0000000000e+00 -4.3694742522e-01 8.3617112443e-02 0.0000000000e+00 -4.3188565927e-01 8.4416090884e-02 0.0000000000e+00 -4.2681230400e-01 8.5137908709e-02 0.0000000000e+00 -4.2172941653e-01 8.5789311244e-02 0.0000000000e+00 -4.1663865062e-01 8.6376052829e-02 0.0000000000e+00 -4.1154135992e-01 8.6903088373e-02 0.0000000000e+00 -4.0643863732e-01 8.7374723845e-02 0.0000000000e+00 -4.0133140546e-01 8.7794726707e-02 0.0000000000e+00 -3.9622042424e-01 8.8166419095e-02 0.0000000000e+00 -3.9110634740e-01 8.8492747356e-02 0.0000000000e+00 -3.8598972048e-01 8.8776341615e-02 0.0000000000e+00 -3.8087100981e-01 8.9019561684e-02 0.0000000000e+00 -3.7575063504e-01 8.9224534775e-02 0.0000000000e+00 -3.7062893181e-01 8.9393189274e-02 0.0000000000e+00 -3.6550619075e-01 8.9527279365e-02 0.0000000000e+00 -3.6038270739e-01 8.9628406450e-02 0.0000000000e+00 -3.5525869773e-01 8.9698040036e-02 0.0000000000e+00 -3.5013435246e-01 8.9737531833e-02 0.0000000000e+00 -3.4500987690e-01 8.9748129328e-02 0.0000000000e+00 -3.3988541842e-01 8.9730987908e-02 0.0000000000e+00 -3.3476111444e-01 8.9687180276e-02 0.0000000000e+00 -3.2963709471e-01 8.9617705257e-02 0.0000000000e+00 -3.2451348064e-01 8.9523495400e-02 0.0000000000e+00 -3.1939034143e-01 8.9405422449e-02 0.0000000000e+00 -3.1426779881e-01 8.9264305217e-02 0.0000000000e+00 -3.0914591206e-01 8.9100912041e-02 0.0000000000e+00 -3.0402476307e-01 8.8915967270e-02 0.0000000000e+00 -2.9890440772e-01 8.8710153739e-02 0.0000000000e+00 -2.9378490850e-01 8.8484117338e-02 0.0000000000e+00 -2.8866631015e-01 8.8238469120e-02 0.0000000000e+00 -2.8354865267e-01 8.7973788508e-02 0.0000000000e+00 -2.7843198600e-01 8.7690626604e-02 0.0000000000e+00 -2.7331635766e-01 8.7389507892e-02 0.0000000000e+00 -2.6820177024e-01 8.7070929522e-02 0.0000000000e+00 -2.6308828316e-01 8.6735369256e-02 0.0000000000e+00 -2.5797588368e-01 8.6383278975e-02 0.0000000000e+00 -2.5286463554e-01 8.6015095985e-02 0.0000000000e+00 -2.4775456034e-01 8.5631236490e-02 0.0000000000e+00 -2.4264563136e-01 8.5232095683e-02 0.0000000000e+00 -2.3753787536e-01 8.4818056587e-02 0.0000000000e+00 -2.3243133189e-01 8.4389488400e-02 0.0000000000e+00 -2.2732604551e-01 8.3946746927e-02 0.0000000000e+00 -2.2222190001e-01 8.3490160448e-02 0.0000000000e+00 -2.1711899509e-01 8.3020063562e-02 0.0000000000e+00 -2.1201736213e-01 8.2536773495e-02 0.0000000000e+00 -2.0691697960e-01 8.2040591368e-02 0.0000000000e+00 -2.0181778048e-01 8.1531802906e-02 0.0000000000e+00 -1.9671983644e-01 8.1010697525e-02 0.0000000000e+00 -1.9162315737e-01 8.0477549322e-02 0.0000000000e+00 -1.8652775518e-01 7.9932623721e-02 0.0000000000e+00 -1.8143354438e-01 7.9376166968e-02 0.0000000000e+00 -1.7634058775e-01 7.8808433128e-02 0.0000000000e+00 -1.7124890276e-01 7.8229663908e-02 0.0000000000e+00 -1.6615843046e-01 7.7640084880e-02 0.0000000000e+00 -1.6106919074e-01 7.7039923480e-02 0.0000000000e+00 -1.5598117717e-01 7.6429397432e-02 0.0000000000e+00 -1.5089442149e-01 7.5808722703e-02 0.0000000000e+00 -1.4580891223e-01 7.5178103979e-02 0.0000000000e+00 -1.4072455773e-01 7.4537729809e-02 0.0000000000e+00 -1.3564143273e-01 7.3887803843e-02 0.0000000000e+00 -1.3055953602e-01 7.3228514974e-02 0.0000000000e+00 -1.2547885669e-01 7.2560045603e-02 0.0000000000e+00 -1.2039932696e-01 7.1882565420e-02 0.0000000000e+00 -1.1532097276e-01 7.1196251579e-02 0.0000000000e+00 -1.1024384833e-01 7.0501280681e-02 0.0000000000e+00 -1.0516789419e-01 6.9797809381e-02 0.0000000000e+00 -1.0009305693e-01 6.9085990467e-02 0.0000000000e+00 -9.5019385779e-02 6.8365986871e-02 0.0000000000e+00 -8.9946876275e-02 6.7637950065e-02 0.0000000000e+00 -8.4875512802e-02 6.6902025973e-02 0.0000000000e+00 -7.9805266057e-02 6.6158354627e-02 0.0000000000e+00 -7.4736119229e-02 6.5407074084e-02 0.0000000000e+00 -6.9668110663e-02 6.4648327056e-02 0.0000000000e+00 -6.4601223625e-02 6.3882244673e-02 0.0000000000e+00 -5.9535406374e-02 6.3108949253e-02 0.0000000000e+00 -5.4470657317e-02 6.2328567330e-02 0.0000000000e+00 -4.9407032488e-02 6.1541231275e-02 0.0000000000e+00 -4.4344451672e-02 6.0747049224e-02 0.0000000000e+00 -3.9282923158e-02 5.9946139943e-02 0.0000000000e+00 -3.4222445485e-02 5.9138617762e-02 0.0000000000e+00 -2.9163037454e-02 5.8324597432e-02 0.0000000000e+00 -2.4104648617e-02 5.7504179745e-02 0.0000000000e+00 -1.9047261811e-02 5.6677467985e-02 0.0000000000e+00 -1.3990893842e-02 5.5844568318e-02 0.0000000000e+00 -8.9355444057e-03 5.5005581552e-02 0.0000000000e+00 -3.8812175905e-03 5.4160606701e-02 0.0000000000e+00 1.1721998069e-03 5.3309720494e-02 0.0000000000e+00 6.2245485523e-03 5.2453043054e-02 0.0000000000e+00 1.1275943392e-02 5.1590645938e-02 0.0000000000e+00 1.6326440609e-02 5.0722607920e-02 0.0000000000e+00 2.1375943892e-02 4.9849031720e-02 0.0000000000e+00 2.6424457110e-02 4.8970000753e-02 0.0000000000e+00 3.1472011504e-02 4.8085591397e-02 0.0000000000e+00 3.6518701143e-02 4.7195866621e-02 0.0000000000e+00 4.1564441327e-02 4.6300918671e-02 0.0000000000e+00 4.6609230112e-02 4.5400823257e-02 0.0000000000e+00 5.1653173445e-02 4.4495634621e-02 0.0000000000e+00 5.6696228622e-02 4.3585431459e-02 0.0000000000e+00 6.1738361294e-02 4.2670289132e-02 0.0000000000e+00 6.6779564021e-02 4.1750276257e-02 0.0000000000e+00 7.1819899165e-02 4.0825446710e-02 0.0000000000e+00 7.6859356703e-02 3.9895865608e-02 0.0000000000e+00 8.1898008641e-02 3.8961580986e-02 0.0000000000e+00 8.6935705941e-02 3.8022680059e-02 0.0000000000e+00 9.1972611128e-02 3.7079190280e-02 0.0000000000e+00 9.7008668669e-02 3.6131177844e-02 0.0000000000e+00 1.0204386087e-01 3.5178700202e-02 0.0000000000e+00 1.0707827097e-01 3.4221793894e-02 0.0000000000e+00 1.1211171891e-01 3.3260543822e-02 0.0000000000e+00 1.1714445382e-01 3.2294951292e-02 0.0000000000e+00 1.2217637967e-01 3.1325081711e-02 0.0000000000e+00 1.2720736077e-01 3.0351006860e-02 0.0000000000e+00 1.3223761875e-01 2.9372727682e-02 0.0000000000e+00 1.3726706297e-01 2.8390303861e-02 0.0000000000e+00 1.4229572061e-01 2.7403770609e-02 0.0000000000e+00 1.4732360119e-01 2.6413164931e-02 0.0000000000e+00 1.5235059578e-01 2.5418545708e-02 0.0000000000e+00 1.5737688659e-01 2.4419912645e-02 0.0000000000e+00 1.6240234385e-01 2.3417325663e-02 0.0000000000e+00 1.6742696646e-01 2.2410817741e-02 0.0000000000e+00 1.7245085770e-01 2.1400399305e-02 0.0000000000e+00 1.7747398558e-01 2.0386106299e-02 0.0000000000e+00 1.8249635644e-01 1.9367965495e-02 0.0000000000e+00 1.8751791564e-01 1.8346014588e-02 0.0000000000e+00 1.9253867441e-01 1.7320276492e-02 0.0000000000e+00 1.9755867528e-01 1.6290766192e-02 0.0000000000e+00 2.0257793396e-01 1.5257502622e-02 0.0000000000e+00 2.0759639625e-01 1.4220517707e-02 0.0000000000e+00 2.1261408588e-01 1.3179825911e-02 0.0000000000e+00 2.1763104490e-01 1.2135436390e-02 0.0000000000e+00 2.2264726018e-01 1.1087368318e-02 0.0000000000e+00 2.2766268318e-01 1.0035646948e-02 0.0000000000e+00 2.3267726296e-01 8.9802968007e-03 0.0000000000e+00 2.3769115605e-01 7.9212972708e-03 0.0000000000e+00 2.4270427261e-01 6.8586782309e-03 0.0000000000e+00 2.4771659633e-01 5.7924527911e-03 0.0000000000e+00 2.5272819058e-01 4.7226157199e-03 0.0000000000e+00 2.5773898461e-01 3.6491890353e-03 0.0000000000e+00 2.6274907064e-01 2.5721585331e-03 0.0000000000e+00 2.6775833653e-01 1.4915525741e-03 0.0000000000e+00 2.7276680970e-01 4.0736826173e-04 0.0000000000e+00 2.7777451790e-01 -6.8039875983e-04 0.0000000000e+00 2.8278146879e-01 -1.7717498540e-03 0.0000000000e+00 2.8778759011e-01 -2.8666701914e-03 0.0000000000e+00 2.9279294031e-01 -3.9651747581e-03 0.0000000000e+00 2.9779755351e-01 -5.0672746270e-03 0.0000000000e+00 3.0280135913e-01 -6.1729590882e-03 0.0000000000e+00 3.0780438244e-01 -7.2822397704e-03 0.0000000000e+00 3.1280650594e-01 -8.3950978319e-03 0.0000000000e+00 3.1780794456e-01 -9.5115896717e-03 0.0000000000e+00 3.2280852738e-01 -1.0631687020e-02 0.0000000000e+00 3.2780825022e-01 -1.1755399878e-02 0.0000000000e+00 3.3280721108e-01 -1.2882762556e-02 0.0000000000e+00 3.3780534714e-01 -1.4013774448e-02 0.0000000000e+00 3.4280265335e-01 -1.5148449133e-02 0.0000000000e+00 3.4779915549e-01 -1.6286808434e-02 0.0000000000e+00 3.5279469994e-01 -1.7428834392e-02 0.0000000000e+00 3.5778950179e-01 -1.8574594513e-02 0.0000000000e+00 3.6278342043e-01 -1.9724076172e-02 0.0000000000e+00 3.6777640315e-01 -2.0877287849e-02 0.0000000000e+00 3.7276860129e-01 -2.2034286424e-02 0.0000000000e+00 3.7775992822e-01 -2.3195075031e-02 0.0000000000e+00 3.8275032602e-01 -2.4359664423e-02 0.0000000000e+00 3.8773987974e-01 -2.5528099898e-02 0.0000000000e+00 3.9272844614e-01 -2.6700374472e-02 0.0000000000e+00 3.9771614086e-01 -2.7876543029e-02 0.0000000000e+00 4.0270291178e-01 -2.9056622242e-02 0.0000000000e+00 4.0768869791e-01 -3.0240627667e-02 0.0000000000e+00 4.1267361642e-01 -3.1428618368e-02 0.0000000000e+00 4.1765755604e-01 -3.2620600225e-02 0.0000000000e+00 4.2264052151e-01 -3.3816607805e-02 0.0000000000e+00 4.2762255447e-01 -3.5016685743e-02 0.0000000000e+00 4.3260353408e-01 -3.6220840625e-02 0.0000000000e+00 4.3758354093e-01 -3.7429128723e-02 0.0000000000e+00 4.4256256770e-01 -3.8641586290e-02 0.0000000000e+00 4.4754046411e-01 -3.9858215695e-02 0.0000000000e+00 4.5251740906e-01 -4.1079100795e-02 0.0000000000e+00 4.5749335137e-01 -4.2304270474e-02 0.0000000000e+00 4.6246815394e-01 -4.3533733300e-02 0.0000000000e+00 4.6744192511e-01 -4.4767559442e-02 0.0000000000e+00 4.7241451575e-01 -4.6005756378e-02 0.0000000000e+00 4.7738608692e-01 -4.7248409814e-02 0.0000000000e+00 4.8235650207e-01 -4.8495532369e-02 0.0000000000e+00 4.8732575854e-01 -4.9747171040e-02 0.0000000000e+00 4.9229400251e-01 -5.1003411632e-02 0.0000000000e+00 4.9726094768e-01 -5.2264231634e-02 0.0000000000e+00 4.9214040296e-01 -5.2464813724e-02 0.0000000000e+00 4.8701953993e-01 -5.2660646441e-02 0.0000000000e+00 4.8189864333e-01 -5.2851767290e-02 0.0000000000e+00 4.7677755232e-01 -5.3038229807e-02 0.0000000000e+00 4.7165625973e-01 -5.3220080515e-02 0.0000000000e+00 4.6653489650e-01 -5.3397360149e-02 0.0000000000e+00 4.6141328729e-01 -5.3570119057e-02 0.0000000000e+00 4.5629157639e-01 -5.3738395555e-02 0.0000000000e+00 4.5116964327e-01 -5.3902235761e-02 0.0000000000e+00 4.4604762022e-01 -5.4061676551e-02 0.0000000000e+00 4.4092555131e-01 -5.4216756824e-02 0.0000000000e+00 4.3580324412e-01 -5.4367521411e-02 0.0000000000e+00 4.3068084515e-01 -5.4514003871e-02 0.0000000000e+00 4.2555835402e-01 -5.4656241187e-02 0.0000000000e+00 4.2043568020e-01 -5.4794271646e-02 0.0000000000e+00 4.1531294051e-01 -5.4928126814e-02 0.0000000000e+00 4.1019008497e-01 -5.5057841695e-02 0.0000000000e+00 4.0506710173e-01 -5.5183449112e-02 0.0000000000e+00 3.9994409843e-01 -5.5304977955e-02 0.0000000000e+00 3.9482094815e-01 -5.5422461631e-02 0.0000000000e+00 3.8969770733e-01 -5.5535928040e-02 0.0000000000e+00 3.8457442349e-01 -5.5645404327e-02 0.0000000000e+00 3.7945097209e-01 -5.5750920133e-02 0.0000000000e+00 3.7432749471e-01 -5.5852498408e-02 0.0000000000e+00 3.6920389872e-01 -5.5950165778e-02 0.0000000000e+00 3.6408023857e-01 -5.6043944803e-02 0.0000000000e+00 3.5895659830e-01 -5.6133856558e-02 0.0000000000e+00 3.5383281810e-01 -5.6219925217e-02 0.0000000000e+00 3.4870894773e-01 -5.6302170032e-02 0.0000000000e+00 3.4358512736e-01 -5.6380607890e-02 0.0000000000e+00 3.3846113257e-01 -5.6455260100e-02 0.0000000000e+00 3.3333711736e-01 -5.6526141037e-02 0.0000000000e+00 3.2821305197e-01 -5.6593266688e-02 0.0000000000e+00 3.2308893851e-01 -5.6656651381e-02 0.0000000000e+00 3.1796483857e-01 -5.6716307587e-02 0.0000000000e+00 3.1284064916e-01 -5.6772248492e-02 0.0000000000e+00 3.0771637227e-01 -5.6824484747e-02 0.0000000000e+00 3.0259218097e-01 -5.6873024235e-02 0.0000000000e+00 2.9746785329e-01 -5.6917877437e-02 0.0000000000e+00 2.9234350810e-01 -5.6959050352e-02 0.0000000000e+00 2.8721911827e-01 -5.6996549104e-02 0.0000000000e+00 2.8209475503e-01 -5.7030377886e-02 0.0000000000e+00 2.7697038274e-01 -5.7060540439e-02 0.0000000000e+00 2.7184594108e-01 -5.7087039267e-02 0.0000000000e+00 2.6672150384e-01 -5.7109874891e-02 0.0000000000e+00 2.6159706323e-01 -5.7129047050e-02 0.0000000000e+00 2.5647259122e-01 -5.7144554236e-02 0.0000000000e+00 2.5134806035e-01 -5.7156393579e-02 0.0000000000e+00 2.4622358623e-01 -5.7164560656e-02 0.0000000000e+00 2.4109907571e-01 -5.7169050186e-02 0.0000000000e+00 2.3597460255e-01 -5.7169855343e-02 0.0000000000e+00 2.3085010370e-01 -5.7166968068e-02 0.0000000000e+00 2.2572559782e-01 -5.7160378926e-02 0.0000000000e+00 2.2060117901e-01 -5.7150077380e-02 0.0000000000e+00 2.1547668986e-01 -5.7136051039e-02 0.0000000000e+00 2.1035218532e-01 -5.7118286508e-02 0.0000000000e+00 2.0522771809e-01 -5.7096769179e-02 0.0000000000e+00 2.0010330503e-01 -5.7071483028e-02 0.0000000000e+00 1.9497890690e-01 -5.7042410356e-02 0.0000000000e+00 1.8985450348e-01 -5.7009532077e-02 0.0000000000e+00 1.8473015445e-01 -5.6972828238e-02 0.0000000000e+00 1.7960584836e-01 -5.6932277051e-02 0.0000000000e+00 1.7448154674e-01 -5.6887855015e-02 0.0000000000e+00 1.6935724336e-01 -5.6839537383e-02 0.0000000000e+00 1.6423299950e-01 -5.6787298642e-02 0.0000000000e+00 1.5910881454e-01 -5.6731111290e-02 0.0000000000e+00 1.5398472721e-01 -5.6670946815e-02 0.0000000000e+00 1.4886063870e-01 -5.6606773550e-02 0.0000000000e+00 1.4373655692e-01 -5.6538559464e-02 0.0000000000e+00 1.3861262126e-01 -5.6466272926e-02 0.0000000000e+00 1.3348865342e-01 -5.6389876340e-02 0.0000000000e+00 1.2836477223e-01 -5.6309334762e-02 0.0000000000e+00 1.2324097603e-01 -5.6224610014e-02 0.0000000000e+00 1.1811724558e-01 -5.6135662002e-02 0.0000000000e+00 1.1299368194e-01 -5.6042451195e-02 0.0000000000e+00 1.0787006851e-01 -5.5944930586e-02 0.0000000000e+00 1.0274655297e-01 -5.5843058179e-02 0.0000000000e+00 9.7623242809e-02 -5.5736789958e-02 0.0000000000e+00 9.2499894644e-02 -5.5626072852e-02 0.0000000000e+00 8.7376702232e-02 -5.5510861246e-02 0.0000000000e+00 8.2253591763e-02 -5.5391102098e-02 0.0000000000e+00 7.7130592483e-02 -5.5266742888e-02 0.0000000000e+00 7.2007772477e-02 -5.5137730413e-02 0.0000000000e+00 6.6884978478e-02 -5.5004004031e-02 0.0000000000e+00 6.1762374400e-02 -5.4865509418e-02 0.0000000000e+00 5.6639899797e-02 -5.4722184619e-02 0.0000000000e+00 5.1517578012e-02 -5.4573968022e-02 0.0000000000e+00 4.6395359247e-02 -5.4420793964e-02 0.0000000000e+00 4.1273265047e-02 -5.4262596875e-02 0.0000000000e+00 3.6151344678e-02 -5.4099310180e-02 0.0000000000e+00 3.1029656272e-02 -5.3930865784e-02 0.0000000000e+00 2.5908107476e-02 -5.3757188601e-02 0.0000000000e+00 2.0786715931e-02 -5.3578204980e-02 0.0000000000e+00 1.5665583667e-02 -5.3393842301e-02 0.0000000000e+00 1.0544631760e-02 -5.3204019413e-02 0.0000000000e+00 5.4238455346e-03 -5.3008655112e-02 0.0000000000e+00 3.0323854710e-04 -5.2807667001e-02 0.0000000000e+00 -4.8170736379e-03 -5.2600974629e-02 0.0000000000e+00 -9.9371296962e-03 -5.2388489241e-02 0.0000000000e+00 -1.5057026989e-02 -5.2170116987e-02 0.0000000000e+00 -2.0176584787e-02 -5.1945773477e-02 0.0000000000e+00 -2.5295897865e-02 -5.1715360119e-02 0.0000000000e+00 -3.0414941641e-02 -5.1478780917e-02 0.0000000000e+00 -3.5533695451e-02 -5.1235937199e-02 0.0000000000e+00 -4.0652120784e-02 -5.0986728615e-02 0.0000000000e+00 -4.5770212954e-02 -5.0731050570e-02 0.0000000000e+00 -5.0888000350e-02 -5.0468793984e-02 0.0000000000e+00 -5.6005440725e-02 -5.0199850525e-02 0.0000000000e+00 -6.1122511737e-02 -4.9924108055e-02 0.0000000000e+00 -6.6239180585e-02 -4.9641452129e-02 0.0000000000e+00 -7.1355503248e-02 -4.9351760294e-02 0.0000000000e+00 -7.6471397397e-02 -4.9054914724e-02 0.0000000000e+00 -8.1586838279e-02 -4.8750791317e-02 0.0000000000e+00 -8.6701851077e-02 -4.8439259672e-02 0.0000000000e+00 -9.1816424892e-02 -4.8120188045e-02 0.0000000000e+00 -9.6930492547e-02 -4.7793444814e-02 0.0000000000e+00 -1.0204404178e-01 -4.7458891444e-02 0.0000000000e+00 -1.0715707215e-01 -4.7116384871e-02 0.0000000000e+00 -1.1226956858e-01 -4.6765779115e-02 0.0000000000e+00 -1.1738150394e-01 -4.6406925081e-02 0.0000000000e+00 -1.2249279621e-01 -4.6039673639e-02 0.0000000000e+00 -1.2760346587e-01 -4.5663864229e-02 0.0000000000e+00 -1.3271353851e-01 -4.5279331259e-02 0.0000000000e+00 -1.3782292438e-01 -4.4885913259e-02 0.0000000000e+00 -1.4293156128e-01 -4.4483442340e-02 0.0000000000e+00 -1.4803948021e-01 -4.4071738429e-02 0.0000000000e+00 -1.5314665394e-01 -4.3650620840e-02 0.0000000000e+00 -1.5825304438e-01 -4.3219904557e-02 0.0000000000e+00 -1.6335853606e-01 -4.2779405918e-02 0.0000000000e+00 -1.6846317945e-01 -4.2328921443e-02 0.0000000000e+00 -1.7356694323e-01 -4.1868248527e-02 0.0000000000e+00 -1.7866975142e-01 -4.1397182525e-02 0.0000000000e+00 -1.8377156506e-01 -4.0915509135e-02 0.0000000000e+00 -1.8887231740e-01 -4.0423010023e-02 0.0000000000e+00 -1.9397201921e-01 -3.9919452293e-02 0.0000000000e+00 -1.9907060315e-01 -3.9404603149e-02 0.0000000000e+00 -2.0416795498e-01 -3.8878227134e-02 0.0000000000e+00 -2.0926410713e-01 -3.8340065606e-02 0.0000000000e+00 -2.1435899276e-01 -3.7789861420e-02 0.0000000000e+00 -2.1945254522e-01 -3.7227348521e-02 0.0000000000e+00 -2.2454463421e-01 -3.6652258723e-02 0.0000000000e+00 -2.2963526591e-01 -3.6064298608e-02 0.0000000000e+00 -2.3472439875e-01 -3.5463169159e-02 0.0000000000e+00 -2.3981193609e-01 -3.4848566607e-02 0.0000000000e+00 -2.4489771085e-01 -3.4220184393e-02 0.0000000000e+00 -2.4998176842e-01 -3.3577677250e-02 0.0000000000e+00 -2.5506399126e-01 -3.2920706413e-02 0.0000000000e+00 -2.6014426393e-01 -3.2248918972e-02 0.0000000000e+00 -2.6522248061e-01 -3.1561945841e-02 0.0000000000e+00 -2.7029858526e-01 -3.0859394906e-02 0.0000000000e+00 -2.7537247023e-01 -3.0140863550e-02 0.0000000000e+00 -2.8044398225e-01 -2.9405937276e-02 0.0000000000e+00 -2.8551303983e-01 -2.8654171425e-02 0.0000000000e+00 -2.9057948552e-01 -2.7885111033e-02 0.0000000000e+00 -2.9564321341e-01 -2.7098270352e-02 0.0000000000e+00 -3.0070406800e-01 -2.6293146236e-02 0.0000000000e+00 -3.0576188583e-01 -2.5469210014e-02 0.0000000000e+00 -3.1081650731e-01 -2.4625903240e-02 0.0000000000e+00 -3.1586776165e-01 -2.3762637513e-02 0.0000000000e+00 -3.2091545343e-01 -2.2878794051e-02 0.0000000000e+00 -3.2595938602e-01 -2.1973716558e-02 0.0000000000e+00 -3.3099932872e-01 -2.1046713543e-02 0.0000000000e+00 -3.3603506379e-01 -2.0097045782e-02 0.0000000000e+00 -3.4106630193e-01 -1.9123937664e-02 0.0000000000e+00 -3.4609279420e-01 -1.8126550881e-02 0.0000000000e+00 -3.5111422796e-01 -1.7103998506e-02 0.0000000000e+00 -3.5613026864e-01 -1.6055330517e-02 0.0000000000e+00 -3.6114055876e-01 -1.4979526225e-02 0.0000000000e+00 -3.6614471400e-01 -1.3875486128e-02 0.0000000000e+00 -3.7114227411e-01 -1.2742032692e-02 0.0000000000e+00 -3.7613277157e-01 -1.1577883387e-02 0.0000000000e+00 -3.8111568954e-01 -1.0381645731e-02 0.0000000000e+00 -3.8609040603e-01 -9.1518147596e-03 0.0000000000e+00 -3.9105627202e-01 -7.8867350466e-03 0.0000000000e+00 -3.9601255828e-01 -6.5845901298e-03 0.0000000000e+00 -4.0095841207e-01 -5.2433865304e-03 0.0000000000e+00 -4.0589288660e-01 -3.8609129621e-03 0.0000000000e+00 -4.1081490142e-01 -2.4347101989e-03 0.0000000000e+00 -4.1572320451e-01 -9.6203219494e-04 0.0000000000e+00 -4.2061636185e-01 5.6021259395e-04 0.0000000000e+00 -4.2549268766e-01 2.1355174736e-03 0.0000000000e+00 -4.3035021769e-01 3.7678670960e-03 0.0000000000e+00 -4.3518659767e-01 5.4618266507e-03 0.0000000000e+00 -4.3999901359e-01 7.2226808961e-03 0.0000000000e+00 -4.4478405085e-01 9.0566000589e-03 0.0000000000e+00 -4.4953751130e-01 1.0970861400e-02 0.0000000000e+00 -4.5425413044e-01 1.2974134101e-02 0.0000000000e+00 -4.5892721924e-01 1.5076883774e-02 0.0000000000e+00 -4.6354810402e-01 1.7291919714e-02 0.0000000000e+00 -4.6810526293e-01 1.9635157524e-02 0.0000000000e+00 -4.7258296803e-01 2.2126706606e-02 0.0000000000e+00 -4.7695906267e-01 2.4792441981e-02 0.0000000000e+00 -4.8120113833e-01 2.7666268843e-02 0.0000000000e+00 -4.8525967047e-01 3.0793297982e-02 0.0000000000e+00 -4.8905511125e-01 3.4233720983e-02 0.0000000000e+00 -4.9245312560e-01 3.8064921006e-02 0.0000000000e+00 -4.9522002994e-01 4.2369646827e-02 0.0000000000e+00 -4.9697272129e-01 4.7169688282e-02 0.0000000000e+00
        </DataArray>
      </Points>
      <Verts>
        <DataArray type="Int64" Name="connectivity" format="ascii">
          0 1 2 3 4 5 6 7 8 9 10 11 12 13 14 15 16 17 18 19 20 21 22 23 24 25 26 27 28 29 30 31 32 33 34 35 36 37 38 39 40 41 42 43 44 45 46 47 48 49 50 51 52 53 54 55 56 57 58 59 60 61 62 63 64 65 66 67 68 69 70 71 72 73 74 75 76 77 78 79 80 81 82 83 84 85 86 87 88 89 90 91 92 93 94 95 96 97 98 99 100 101 102 103 104 105 106 107 108 109 110 111 112 113 114 115 116 117 118 119 120 121 122 123 124 125 126 127 128 129 130 131 132 133 134 135 136 137 138 139 140 141 142 143 144 145 146 147 148 149 150 151 152 153 154 155 156 157 158 159 160 161 162 163 164 165 166 167 168 169 170 171 172 173 174 175 176 177 178 179 180 181 182 183 184 185 186 187 188 189 190 191 192 193 194 195 196 197 198 199 200 201 202 203 204 205 206 207 208 209 210 211 212 213 214 215 216 217 218 219 220 221 222 223 224 225 226 227 228 229 230 231 232 233 234 235 236 237 238 239 240 241 242 243 244 245 246 247 248 249 250 251 252 253 254 255 256 257 258 259 260 261 262 263 264 265 266 267 268 269 270 271 272 273 274 275 276 277 278 279 280 281 282 283 284 285 286 287 288 289 290 291 292 293 294 295 296 297 298 299 300 301 302 303 304 305 306 307 308 309 310 311 312 313 314 315 316 317 318 319 320 321 322 323 324 325 326 327 328 329 330 331 332 333 334 335 336 337 338 339 340 341 342 343 344 345 346 347 348 349 350 351 352 353 354 355 356 357 358 359 360 361 362 363 364 365 366 367 368 369 370 371 372 373 374 375 376 377 378 379 380 381 382 383 384 385 386 387 388 389 390 391 392 393 394 395 396 397
        </DataArray>
        <DataArray type="Int64" Name="offsets" format="ascii">
          1 2 3 4 5 6 7 8 9 10 11 12 13 14 15 16 17 18 19 20 21 22 23 24 25 26 27 28 29 30 31 32 33 34 35 36 37 38 39 40 41 42 43 44 45 46 47 48 49 50 51 52 53 54 55 56 57 58 59 60 61 62 63 64 65 66 67 68 69 70 71 72 73 74 75 76 77 78 79 80 81 82 83 84 85 86 87 88 89 90 91 92 93 94 95 96 97 98 99 100 101 102 103 104 105 106 107 108 109 110 111 112 113 114 115 116 117 118 119 120 121 122 123 124 125 126 127 128 129 130 131 132 133 134 135 136 137 138 139 140 141 142 143 144 145 146 147 148 149 150 151 152 153 154 155 156 157 158 159 160 161 162 163 164 165 166 167 168 169 170 171 172 173 174 175 176 177 178 179 180 181 182 183 184 185 186 187 188 189 190 191 192 193 194 195 196 197 198 199 200 201 202 203 204 205 206 207 208 209 210 211 212 213 214 215 216 217 218 219 220 221 222 223 224 225 226 227 228 229 230 231 232 233 234 235 236 237 238 239 240 241 242 243 244 245 246 247 248 249 250 251 252 253 254 255 256 257 258 259 260 261 262 263 264 265 266 267 268 269 270 271 272 273 274 275 276 277 278 279 280 281 282 283 284 285 286 287 288 289 290 291 292 293 294 295 296 297 298 299 300 301 302 303 304 305 306 307 308 309 310 311 312 313 314 315 316 317 318 319 320 321 322 323 324 325 326 327 328 329 330 331 332 333 334 335 336 337 338 339 340 341 342 343 344 345 346 347 348 349 350 351 352 353 354 355 356 357 358 359 360 361 362 363 364 365 366 367 368 369 370 371 372 373 374 375 376 377 378 379 380 381 382 383 384 385 386 387 388 389 390 391 392 393 394 395 396 397 398
        </DataArray>
      </Verts>
      <PointData>
        <DataArray type="Float64" Name="velocity" NumberOfComponents="3" format="ascii">
          0.0000000000e+00 0.0000000000e+00 0.0000000000e+00 0.0000000000e+00 0.0000000000e+00 0.0000000000e+00 0.0000000000e+00 0.0000000000e+00 0.0000000000e+00 0.0000000000e+00 0.0000000000e+00 0.0000000000e+00 0.0000000000e+00 0.0000000000e+00 0.0000000000e+00 0.0000000000e+00 0.0000000000e+00 0.0000000000e+00 0.0000000000e+00 0.0000000000e+00 0.0000000000e+00 0.0000000000e+00 0.0000000000e+00 0.0000000000e+00 0.0000000000e+00 0.0000000000e+00 0.0000000000e+00 0.0000000000e+00 0.0000000000e+00 0.0000000000e+00 0.0000000000e+00 0.0000000000e+00 0.0000000000e+00 0.0000000000e+00 0.0000000000e+00 0.0000000000e+00 0.0000000000e+00 0.0000000000e+00 0.0000000000e+00 0.0000000000e+00 0.0000000000e+00 0.0000000000e+00 0.0000000000e+00 0.0000000000e+00 0.0000000000e+00 0.0000000000e+00 0.0000000000e+00 0.0000000000e+00 0.0000000000e+00 0.0000000000e+00 0.0000000000e+00 0.0000000000e+00 0.0000000000e+00 0.0000000000e+00 0.0000000000e+00 0.0000000000e+00 0.0000000000e+00 0.0000000000e+00 0.0000000000e+00 0.0000000000e+00 0.0000000000e+00 0.0000000000e+00 0.0000000000e+00 0.0000000000e+00 0.0000000000e+00 0.0000000000e+00 0.0000000000e+00 0.0000000000e+00 0.0000000000e+00 0.0000000000e+00 0.0000000000e+00 0.0000000000e+00 0.0000000000e+00 0.0000000000e+00 0.0000000000e+00 0.0000000000e+00 0.0000000000e+00 0.0000000000e+00 0.0000000000e+00 0.0000000000e+00 0.0000000000e+00 0.0000000000e+00 0.0000000000e+00 0.0000000000e+00 0.0000000000e+00 0.0000000000e+00 0.0000000000e+00 0.0000000000e+00 0.0000000000e+00 0.0000000000e+00 0.0000000000e+00 0.0000000000e+00 0.0000000000e+00 0.0000000000e+00 0.0000000000e+00 0.0000000000e+00 0.0000000000e+00 0.0000000000e+00 0.0000000000e+00 0.0000000000e+00 0.0000000000e+00 0.0000000000e+00 0.0000000000e+00 0.0000000000e+00 0.0000000000e+00 0.0000000000e+00 0.0000000000e+00 0.0000000000e+00 0.0000000000e+00 0.0000000000e+00 0.0000000000e+00 0.0000000000e+00 0.0000000000e+00 0.0000000000e+00 0.0000000000e+00 0.0000000000e+00 0.0000000000e+00 0.0000000000e+00 0.0000000000e+00 0.0000000000e+00 0.0000000000e+00 0.0000000000e+00 0.0000000000e+00 0.0000000000e+00 0.0000000000e+00 0.0000000000e+00 0.0000000000e+00 0.0000000000e+00 0.0000000000e+00 0.0000000000e+00 0.0000000000e+00 0.0000000000e+00 0.0000000000e+00 0.0000000000e+00 0.0000000000e+00 0.0000000000e+00 0.0000000000e+00 0.0000000000e+00 0.0000000000e+00 0.0000000000e+00 0.0000000000e+00 0.0000000000e+00 0.0000000000e+00 0.0000000000e+00 0.0000000000e+00 0.0000000000e+00 0.0000000000e+00 0.0000000000e+00 0.0000000000e+00 0.0000000000e+00 0.0000000000e+00 0.0000000000e+00 0.0000000000e+00 0.0000000000e+00 0.0000000000e+00 0.0000000000e+00 0.0000000000e+00 0.0000000000e+00 0.0000000000e+00 0.0000000000e+00 0.0000000000e+00 0.0000000000e+00 0.0000000000e+00 0.0000000000e+00 0.0000000000e+00 0.0000000000e+00 0.0000000000e+00 0.0000000000e+00 0.0000000000e+00 0.0000000000e+00 0.0000000000e+00 0.0000000000e+00 0.0000000000e+00 0.0000000000e+00 0.0000000000e+00 0.0000000000e+00 0.0000000000e+00 0.0000000000e+00 0.0000000000e+00 0.0000000000e+00 0.0000000000e+00 0.0000000000e+00 0.0000000000e+00 0.0000000000e+00 0.0000000000e+00 0.0000000000e+00 0.0000000000e+00 0.0000000000e+00 0.0000000000e+00 0.0000000000e+00 0.0000000000e+00 0.0000000000e+00 0.0000000000e+00 0.0000000000e+00 0.0000000000e+00 0.0000000000e+00 0.0000000000e+00 0.0000000000e+00 0.0000000000e+00 0.0000000000e+00 0.0000000000e+00 0.0000000000e+00 0.0000000000e+00 0.0000000000e+00 0.0000000000e+00 0.0000000000e+00 0.0000000000e+00 0.0000000000e+00 0.0000000000e+00 0.0000000000e+00 0.0000000000e+00 0.0000000000e+00 0.0000000000e+00 0.0000000000e+00 0.0000000000e+00 0.0000000000e+00 0.0000000000e+00 0.0000000000e+00 0.0000000000e+00 0.0000000000e+00 0.0000000000e+00 0.0000000000e+00 0.0000000000e+00 0.0000000000e+00 0.0000000000e+00 0.0000000000e+00 0.0000000000e+00 0.0000000000e+00 0.0000000000e+00 0.0000000000e+00 0.0000000000e+00 0.0000000000e+00 0.0000000000e+00 0.0000000000e+00 0.0000000000e+00 0.0000000000e+00 0.0000000000e+00 0.0000000000e+00 0.0000000000e+00 0.0000000000e+00 0.0000000000e+00 0.0000000000e+00 0.0000000000e+00 0.0000000000e+00 0.0000000000e+00 0.0000000000e+00 0.0000000000e+00 0.0000000000e+00 0.0000000000e+00 0.0000000000e+00 0.0000000000e+00 0.0000000000e+00 0.0000000000e+00 0.0000000000e+00 0.0000000000e+00 0.0000000000e+00 0.0000000000e+00 0.0000000000e+00 0.0000000000e+00 0.0000000000e+00 0.0000000000e+00 0.0000000000e+00 0.0000000000e+00 0.0000000000e+00 0.0000000000e+00 0.0000000000e+00 0.0000000000e+00 0.0000000000e+00 0.0000000000e+00 0.0000000000e+00 0.0000000000e+00 0.0000000000e+00 0.0000000000e+00 0.0000000000e+00 0.0000000000e+00 0.0000000000e+00 0.0000000000e+00 0.0000000000e+00 0.0000000000e+00 0.0000000000e+00 0.0000000000e+00 0.0000000000e+00 0.0000000000e+00 0.0000000000e+00 0.0000000000e+00 0.0000000000e+00 0.0000000000e+00 0.0000000000e+00 0.0000000000e+00 0.0000000000e+00 0.0000000000e+00 0.0000000000e+00 0.0000000000e+00 0.0000000000e+00 0.0000000000e+00 0.0000000000e+00 0.0000000000e+00 0.0000000000e+00 0.0000000000e+00 0.0000000000e+00 0.0000000000e+00 0.0000000000e+00 0.0000000000e+00 0.0000000000e+00 0.0000000000e+00 0.0000000000e+00 0.0000000000e+00 0.0000000000e+00 0.0000000000e+00 0.0000000000e+00 0.0000000000e+00 0.0000000000e+00 0.0000000000e+00 0.0000000000e+00 0.0000000000e+00 0.0000000000e+00 0.0000000000e+00 0.0000000000e+00 0.0000000000e+00 0.0000000000e+00 0.0000000000e+00 0.0000000000e+00 0.0000000000e+00 0.0000000000e+00 0.0000000000e+00 0.0000000000e+00 0.0000000000e+00 0.0000000000e+00 0.0000000000e+00 0.0000000000e+00 0.0000000000e+00 0.0000000000e+00 0.0000000000e+00 0.0000000000e+00 0.0000000000e+00 0.0000000000e+00 0.0000000000e+00 0.0000000000e+00 0.0000000000e+00 0.0000000000e+00 0.0000000000e+00 0.0000000000e+00 0.0000000000e+00 0.0000000000e+00 0.0000000000e+00 0.0000000000e+00 0.0000000000e+00 0.0000000000e+00 0.0000000000e+00 0.0000000000e+00 0.0000000000e+00 0.0000000000e+00 0.0000000000e+00 0.0000000000e+00 0.0000000000e+00 0.0000000000e+00 0.0000000000e+00 0.0000000000e+00 0.0000000000e+00 0.0000000000e+00 0.0000000000e+00 0.0000000000e+00 0.0000000000e+00 0.0000000000e+00 0.0000000000e+00 0.0000000000e+00 0.0000000000e+00 0.0000000000e+00 0.0000000000e+00 0.0000000000e+00 0.0000000000e+00 0.0000000000e+00 0.0000000000e+00 0.0000000000e+00 0.0000000000e+00 0.0000000000e+00 0.0000000000e+00 0.0000000000e+00 0.0000000000e+00 0.0000000000e+00 0.0000000000e+00 0.0000000000e+00 0.0000000000e+00 0.0000000000e+00 0.0000000000e+00 0.0000000000e+00 0.0000000000e+00 0.0000000000e+00 0.0000000000e+00 0.0000000000e+00 0.0000000000e+00 0.0000000000e+00 0.0000000000e+00 0.0000000000e+00 0.0000000000e+00 0.0000000000e+00 0.0000000000e+00 0.0000000000e+00 0.0000000000e+00 0.0000000000e+00 0.0000000000e+00 0.0000000000e+00 0.0000000000e+00 0.0000000000e+00 0.0000000000e+00 0.0000000000e+00 0.0000000000e+00 0.0000000000e+00 0.0000000000e+00 0.0000000000e+00 0.0000000000e+00 0.0000000000e+00 0.0000000000e+00 0.0000000000e+00 0.0000000000e+00 0.0000000000e+00 0.0000000000e+00 0.0000000000e+00 0.0000000000e+00 0.0000000000e+00 0.0000000000e+00 0.0000000000e+00 0.0000000000e+00 0.0000000000e+00 0.0000000000e+00 0.0000000000e+00 0.0000000000e+00 0.0000000000e+00 0.0000000000e+00 0.0000000000e+00 0.0000000000e+00 0.0000000000e+00 0.0000000000e+00 0.0000000000e+00 0.0000000000e+00 0.0000000000e+00 0.0000000000e+00 0.0000000000e+00 0.0000000000e+00 0.0000000000e+00 0.0000000000e+00 0.0000000000e+00 0.0000000000e+00 0.0000000000e+00 0.0000000000e+00 0.0000000000e+00 0.0000000000e+00 0.0000000000e+00 0.0000000000e+00 0.0000000000e+00 0.0000000000e+00 0.0000000000e+00 0.0000000000e+00 0.0000000000e+00 0.0000000000e+00 0.0000000000e+00 0.0000000000e+00 0.0000000000e+00 0.0000000000e+00 0.0000000000e+00 0.0000000000e+00 0.0000000000e+00 0.0000000000e+00 0.0000000000e+00 0.0000000000e+00 0.0000000000e+00 0.0000000000e+00 0.0000000000e+00 0.0000000000e+00 0.0000000000e+00 0.0000000000e+00 0.0000000000e+00 0.0000000000e+00 0.0000000000e+00 0.0000000000e+00 0.0000000000e+00 0.0000000000e+00 0.0000000000e+00 0.0000000000e+00 0.0000000000e+00 0.0000000000e+00 0.0000000000e+00 0.0000000000e+00 0.0000000000e+00 0.0000000000e+00 0.0000000000e+00 0.0000000000e+00 0.0000000000e+00 0.0000000000e+00 0.0000000000e+00 0.0000000000e+00 0.0000000000e+00 0.0000000000e+00 0.0000000000e+00 0.0000000000e+00 0.0000000000e+00 0.0000000000e+00 0.0000000000e+00 0.0000000000e+00 0.0000000000e+00 0.0000000000e+00 0.0000000000e+00 0.0000000000e+00 0.0000000000e+00 0.0000000000e+00 0.0000000000e+00 0.0000000000e+00 0.0000000000e+00 0.0000000000e+00 0.0000000000e+00 0.0000000000e+00 0.0000000000e+00 0.0000000000e+00 0.0000000000e+00 0.0000000000e+00 0.0000000000e+00 0.0000000000e+00 0.0000000000e+00 0.0000000000e+00 0.0000000000e+00 0.0000000000e+00 0.0000000000e+00 0.0000000000e+00 0.0000000000e+00 0.0000000000e+00 0.0000000000e+00 0.0000000000e+00 0.0000000000e+00 0.0000000000e+00 0.0000000000e+00 0.0000000000e+00 0.0000000000e+00 0.0000000000e+00 0.0000000000e+00 0.0000000000e+00 0.0000000000e+00 0.0000000000e+00 0.0000000000e+00 0.0000000000e+00 0.0000000000e+00 0.0000000000e+00 0.0000000000e+00 0.0000000000e+00 0.0000000000e+00 0.0000000000e+00 0.0000000000e+00 0.0000000000e+00 0.0000000000e+00 0.0000000000e+00 0.0000000000e+00 0.0000000000e+00 0.0000000000e+00 0.0000000000e+00 0.0000000000e+00 0.0000000000e+00 0.0000000000e+00 0.0000000000e+00 0.0000000000e+00 0.0000000000e+00 0.0000000000e+00 0.0000000000e+00 0.0000000000e+00 0.0000000000e+00 0.0000000000e+00 0.0000000000e+00 0.0000000000e+00 0.0000000000e+00 0.0000000000e+00 0.0000000000e+00 0.0000000000e+00 0.0000000000e+00 0.0000000000e+00 0.0000000000e+00 0.0000000000e+00 0.0000000000e+00 0.0000000000e+00 0.0000000000e+00 0.0000000000e+00 0.0000000000e+00 0.0000000000e+00 0.0000000000e+00 0.0000000000e+00 0.0000000000e+00 0.0000000000e+00 0.0000000000e+00 0.0000000000e+00 0.0000000000e+00 0.0000000000e+00 0.0000000000e+00 0.0000000000e+00 0.0000000000e+00 0.0000000000e+00 0.0000000000e+00 0.0000000000e+00 0.0000000000e+00 0.0000000000e+00 0.0000000000e+00 0.0000000000e+00 0.0000000000e+00 0.0000000000e+00 0.0000000000e+00 0.0000000000e+00 0.0000000000e+00 0.0000000000e+00 0.0000000000e+00 0.0000000000e+00 0.0000000000e+00 0.0000000000e+00 0.0000000000e+00 0.0000000000e+00 0.0000000000e+00 0.0000000000e+00 0.0000000000e+00 0.0000000000e+00 0.0000000000e+00 0.0000000000e+00 0.0000000000e+00 0.0000000000e+00 0.0000000000e+00 0.0000000000e+00 0.0000000000e+00 0.0000000000e+00 0.0000000000e+00 0.0000000000e+00 0.0000000000e+00 0.0000000000e+00 0.0000000000e+00 0.0000000000e+00 0.0000000000e+00 0.0000000000e+00 0.0000000000e+00 0.0000000000e+00 0.0000000000e+00 0.0000000000e+00 0.0000000000e+00 0.0000000000e+00 0.0000000000e+00 0.0000000000e+00 0.0000000000e+00 0.0000000000e+00 0.0000000000e+00 0.0000000000e+00 0.0000000000e+00 0.0000000000e+00 0.0000000000e+00 0.0000000000e+00 0.0000000000e+00 0.0000000000e+00 0.0000000000e+00 0.0000000000e+00 0.0000000000e+00 0.0000000000e+00 0.0000000000e+00 0.0000000000e+00 0.0000000000e+00 0.0000000000e+00 0.0000000000e+00 0.0000000000e+00 0.0000000000e+00 0.0000000000e+00 0.0000000000e+00 0.0000000000e+00 0.0000000000e+00 0.0000000000e+00 0.0000000000e+00 0.0000000000e+00 0.0000000000e+00 0.0000000000e+00 0.0000000000e+00 0.0000000000e+00 0.0000000000e+00 0.0000000000e+00 0.0000000000e+00 0.0000000000e+00 0.0000000000e+00 0.0000000000e+00 0.0000000000e+00 0.0000000000e+00 0.0000000000e+00 0.0000000000e+00 0.0000000000e+00 0.0000000000e+00 0.0000000000e+00 0.0000000000e+00 0.0000000000e+00 0.0000000000e+00 0.0000000000e+00 0.0000000000e+00 0.0000000000e+00 0.0000000000e+00 0.0000000000e+00 0.0000000000e+00 0.0000000000e+00 0.0000000000e+00 0.0000000000e+00 0.0000000000e+00 0.0000000000e+00 0.0000000000e+00 0.0000000000e+00 0.0000000000e+00 0.0000000000e+00 0.0000000000e+00 0.0000000000e+00 0.0000000000e+00 0.0000000000e+00 0.0000000000e+00 0.0000000000e+00 0.0000000000e+00 0.0000000000e+00 0.0000000000e+00 0.0000000000e+00 0.0000000000e+00 0.0000000000e+00 0.0000000000e+00 0.0000000000e+00 0.0000000000e+00 0.0000000000e+00 0.0000000000e+00 0.0000000000e+00 0.0000000000e+00 0.0000000000e+00 0.0000000000e+00 0.0000000000e+00 0.0000000000e+00 0.0000000000e+00 0.0000000000e+00 0.0000000000e+00 0.0000000000e+00 0.0000000000e+00 0.0000000000e+00 0.0000000000e+00 0.0000000000e+00 0.0000000000e+00 0.0000000000e+00 0.0000000000e+00 0.0000000000e+00 0.0000000000e+00 0.0000000000e+00 0.0000000000e+00 0.0000000000e+00 0.0000000000e+00 0.0000000000e+00 0.0000000000e+00 0.0000000000e+00 0.0000000000e+00 0.0000000000e+00 0.0000000000e+00 0.0000000000e+00 0.0000000000e+00 0.0000000000e+00 0.0000000000e+00 0.0000000000e+00 0.0000000000e+00 0.0000000000e+00 0.0000000000e+00 0.0000000000e+00 0.0000000000e+00 0.0000000000e+00 0.0000000000e+00 0.0000000000e+00 0.0000000000e+00 0.0000000000e+00 0.0000000000e+00 0.0000000000e+00 0.0000000000e+00 0.0000000000e+00 0.0000000000e+00 0.0000000000e+00 0.0000000000e+00 0.0000000000e+00 0.0000000000e+00 0.0000000000e+00 0.0000000000e+00 0.0000000000e+00 0.0000000000e+00 0.0000000000e+00 0.0000000000e+00 0.0000000000e+00 0.0000000000e+00 0.0000000000e+00 0.0000000000e+00 0.0000000000e+00 0.0000000000e+00 0.0000000000e+00 0.0000000000e+00 0.0000000000e+00 0.0000000000e+00 0.0000000000e+00 0.0000000000e+00 0.0000000000e+00 0.0000000000e+00 0.0000000000e+00 0.0000000000e+00 0.0000000000e+00 0.0000000000e+00 0.0000000000e+00 0.0000000000e+00 0.0000000000e+00 0.0000000000e+00 0.0000000000e+00 0.0000000000e+00 0.0000000000e+00 0.0000000000e+00 0.0000000000e+00 0.0000000000e+00 0.0000000000e+00 0.0000000000e+00 0.0000000000e+00 0.0000000000e+00 0.0000000000e+00 0.0000000000e+00 0.0000000000e+00 0.0000000000e+00 0.0000000000e+00 0.0000000000e+00 0.0000000000e+00 0.0000000000e+00 0.0000000000e+00 0.0000000000e+00 0.0000000000e+00 0.0000000000e+00 0.0000000000e+00 0.0000000000e+00 0.0000000000e+00 0.0000000000e+00 0.0000000000e+00 0.0000000000e+00 0.0000000000e+00 0.0000000000e+00 0.0000000000e+00 0.0000000000e+00 0.0000000000e+00 0.0000000000e+00 0.0000000000e+00 0.0000000000e+00 0.0000000000e+00 0.0000000000e+00 0.0000000000e+00 0.0000000000e+00 0.0000000000e+00 0.0000000000e+00 0.0000000000e+00 0.0000000000e+00 0.0000000000e+00 0.0000000000e+00 0.0000000000e+00 0.0000000000e+00 0.0000000000e+00 0.0000000000e+00 0.0000000000e+00 0.0000000000e+00 0.0000000000e+00 0.0000000000e+00 0.0000000000e+00 0.0000000000e+00 0.0000000000e+00 0.0000000000e+00 0.0000000000e+00 0.0000000000e+00 0.0000000000e+00 0.0000000000e+00 0.0000000000e+00 0.0000000000e+00 0.0000000000e+00 0.0000000000e+00 0.0000000000e+00 0.0000000000e+00 0.0000000000e+00 0.0000000000e+00 0.0000000000e+00 0.0000000000e+00 0.0000000000e+00 0.0000000000e+00 0.0000000000e+00 0.0000000000e+00 0.0000000000e+00 0.0000000000e+00 0.0000000000e+00 0.0000000000e+00 0.0000000000e+00 0.0000000000e+00 0.0000000000e+00 0.0000000000e+00 0.0000000000e+00 0.0000000000e+00 0.0000000000e+00 0.0000000000e+00 0.0000000000e+00 0.0000000000e+00 0.0000000000e+00 0.0000000000e+00 0.0000000000e+00 0.0000000000e+00 0.0000000000e+00 0.0000000000e+00 0.0000000000e+00 0.0000000000e+00 0.0000000000e+00 0.0000000000e+00 0.0000000000e+00 0.0000000000e+00 0.0000000000e+00 0.0000000000e+00 0.0000000000e+00 0.0000000000e+00 0.0000000000e+00 0.0000000000e+00 0.0000000000e+00 0.0000000000e+00 0.0000000000e+00 0.0000000000e+00 0.0000000000e+00 0.0000000000e+00 0.0000000000e+00 0.0000000000e+00 0.0000000000e+00 0.0000000000e+00 0.0000000000e+00 0.0000000000e+00 0.0000000000e+00 0.0000000000e+00 0.0000000000e+00 0.0000000000e+00 0.0000000000e+00 0.0000000000e+00 0.0000000000e+00 0.0000000000e+00 0.0000000000e+00 0.0000000000e+00 0.0000000000e+00 0.0000000000e+00 0.0000000000e+00 0.0000000000e+00 0.0000000000e+00 0.0000000000e+00 0.0000000000e+00 0.0000000000e+00 0.0000000000e+00 0.0000000000e+00 0.0000000000e+00 0.0000000000e+00 0.0000000000e+00 0.0000000000e+00 0.0000000000e+00 0.0000000000e+00 0.0000000000e+00 0.0000000000e+00 0.0000000000e+00 0.0000000000e+00 0.0000000000e+00 0.0000000000e+00 0.0000000000e+00 0.0000000000e+00 0.0000000000e+00 0.0000000000e+00 0.0000000000e+00 0.0000000000e+00 0.0000000000e+00 0.0000000000e+00 0.0000000000e+00 0.0000000000e+00 0.0000000000e+00 0.0000000000e+00 0.0000000000e+00 0.0000000000e+00 0.0000000000e+00 0.0000000000e+00 0.0000000000e+00 0.0000000000e+00 0.0000000000e+00 0.0000000000e+00 0.0000000000e+00 0.0000000000e+00 0.0000000000e+00 0.0000000000e+00 0.0000000000e+00 0.0000000000e+00 0.0000000000e+00 0.0000000000e+00 0.0000000000e+00 0.0000000000e+00 0.0000000000e+00 0.0000000000e+00 0.0000000000e+00 0.0000000000e+00 0.0000000000e+00 0.0000000000e+00 0.0000000000e+00 0.0000000000e+00 0.0000000000e+00 0.0000000000e+00 0.0000000000e+00 0.0000000000e+00 0.0000000000e+00 0.0000000000e+00 0.0000000000e+00 0.0000000000e+00 0.0000000000e+00 0.0000000000e+00 0.0000000000e+00 0.0000000000e+00 0.0000000000e+00 0.0000000000e+00 0.0000000000e+00 0.0000000000e+00 0.0000000000e+00 0.0000000000e+00 0.0000000000e+00 0.0000000000e+00 0.0000000000e+00 0.0000000000e+00 0.0000000000e+00 0.0000000000e+00 0.0000000000e+00 0.0000000000e+00 0.0000000000e+00 0.0000000000e+00 0.0000000000e+00 0.0000000000e+00 0.0000000000e+00 0.0000000000e+00 0.0000000000e+00 0.0000000000e+00 0.0000000000e+00 0.0000000000e+00 0.0000000000e+00 0.0000000000e+00 0.0000000000e+00 0.0000000000e+00 0.0000000000e+00 0.0000000000e+00 0.0000000000e+00 0.0000000000e+00 0.0000000000e+00 0.0000000000e+00 0.0000000000e+00 0.0000000000e+00 0.0000000000e+00 0.0000000000e+00 0.0000000000e+00 0.0000000000e+00 0.0000000000e+00 0.0000000000e+00 0.0000000000e+00 0.0000000000e+00 0.0000000000e+00 0.0000000000e+00 0.0000000000e+00 0.0000000000e+00 0.0000000000e+00 0.0000000000e+00 0.0000000000e+00 0.0000000000e+00 0.0000000000e+00 0.0000000000e+00 0.0000000000e+00 0.0000000000e+00 0.0000000000e+00 0.0000000000e+00 0.0000000000e+00 0.0000000000e+00 0.0000000000e+00 0.0000000000e+00 0.0000000000e+00 0.0000000000e+00 0.0000000000e+00 0.0000000000e+00 0.0000000000e+00 0.0000000000e+00 0.0000000000e+00 0.0000000000e+00 0.0000000000e+00 0.0000000000e+00 0.0000000000e+00 0.0000000000e+00 0.0000000000e+00 0.0000000000e+00 0.0000000000e+00 0.0000000000e+00 0.0000000000e+00 0.0000000000e+00 0.0000000000e+00 0.0000000000e+00 0.0000000000e+00 0.0000000000e+00 0.0000000000e+00 0.0000000000e+00 0.0000000000e+00 0.0000000000e+00 0.0000000000e+00 0.0000000000e+00 0.0000000000e+00 0.0000000000e+00 0.0000000000e+00 0.0000000000e+00 0.0000000000e+00 0.0000000000e+00 0.0000000000e+00 0.0000000000e+00 0.0000000000e+00 0.0000000000e+00 0.0000000000e+00 0.0000000000e+00 0.0000000000e+00 0.0000000000e+00 0.0000000000e+00 0.0000000000e+00 0.0000000000e+00 0.0000000000e+00 0.0000000000e+00 0.0000000000e+00 0.0000000000e+00 0.0000000000e+00 0.0000000000e+00 0.0000000000e+00 0.0000000000e+00 0.0000000000e+00 0.0000000000e+00 0.0000000000e+00 0.0000000000e+00 0.0000000000e+00 0.0000000000e+00 0.0000000000e+00 0.0000000000e+00 0.0000000000e+00 0.0000000000e+00 0.0000000000e+00 0.0000000000e+00 0.0000000000e+00 0.0000000000e+00 0.0000000000e+00 0.0000000000e+00 0.0000000000e+00 0.0000000000e+00 0.0000000000e+00 0.0000000000e+00 0.0000000000e+00 0.0000000000e+00 0.0000000000e+00 0.0000000000e+00 0.0000000000e+00 0.0000000000e+00 0.0000000000e+00 0.0000000000e+00 0.0000000000e+00 0.0000000000e+00 0.0000000000e+00 0.0000000000e+00 0.0000000000e+00 0.0000000000e+00 0.0000000000e+00 0.0000000000e+00 0.0000000000e+00 0.0000000000e+00 0.0000000000e+00 0.0000000000e+00 0.0000000000e+00 0.0000000000e+00 0.0000000000e+00 0.0000000000e+00 0.0000000000e+00 0.0000000000e+00 0.0000000000e+00 0.0000000000e+00 0.0000000000e+00 0.0000000000e+00 0.0000000000e+00 0.0000000000e+00 0.0000000000e+00 0.0000000000e+00 0.0000000000e+00 0.0000000000e+00 0.0000000000e+00 0.0000000000e+00 0.0000000000e+00 0.0000000000e+00 0.0000000000e+00 0.0000000000e+00 0.0000000000e+00 0.0000000000e+00 0.0000000000e+00 0.0000000000e+00 0.0000000000e+00 0.0000000000e+00 0.0000000000e+00 0.0000000000e+00 0.0000000000e+00 0.0000000000e+00 0.0000000000e+00 0.0000000000e+00 0.0000000000e+00 0.0000000000e+00 0.0000000000e+00 0.0000000000e+00
        </DataArray>
        <DataArray type="Float64" Name="force" NumberOfComponents="3" format="ascii">
          -1.0849981743e-02 -1.1075829960e-03 0.0000000000e+00 -8.5849653188e-03 2.1386007436e-03 0.0000000000e+00 -1.2311538900e-02 -7.1733001533e-04 0.0000000000e+00 1.0325149120e-03 1.1794181661e-02 0.0000000000e+00 -1.3390091959e-02 -1.5612730288e-03 0.0000000000e+00 1.7936950694e-03 1.0624935603e-02 0.0000000000e+00 -8.4071846896e-03 3.0263057668e-03 0.0000000000e+00 -2.4835362136e-05 7.8000160236e-03 0.0000000000e+00 -4.8433527615e-03 5.5002178862e-03 0.0000000000e+00 -1.7920360778e-03 6.6206876115e-03 0.0000000000e+00 -2.5821398612e-03 6.4015419951e-03 0.0000000000e+00 -1.6856483295e-03 6.6742075204e-03 0.0000000000e+00 -2.2991848653e-03 6.5123184497e-03 0.0000000000e+00 -1.7249652303e-03 6.6376303692e-03 0.0000000000e+00 -1.6046430497e-03 6.7007855032e-03 0.0000000000e+00 -1.3870002361e-03 6.8282295412e-03 0.0000000000e+00 -1.2429564193e-03 6.8829163716e-03 0.0000000000e+00 -1.2565552016e-03 6.8904655967e-03 0.0000000000e+00 -1.0904581814e-03 6.9125823414e-03 0.0000000000e+00 -1.0532992642e-03 6.9226139389e-03 0.0000000000e+00 -1.0325330964e-03 6.9432727262e-03 0.0000000000e+00 -8.9415030160e-04 6.9900719786e-03 0.0000000000e+00 -7.4700351336e-04 7.0448672523e-03 0.0000000000e+00 -6.7946757819e-04 7.0944507228e-03 0.0000000000e+00 -6.1343318545e-04 7.1321981829e-03 0.0000000000e+00 -5.5317950771e-04 7.1648712871e-03 0.0000000000e+00 -4.9338127179e-04 7.1934042992e-03 0.0000000000e+00 -4.3665658836e-04 7.2188512864e-03 0.0000000000e+00 -3.8172808386e-04 7.2436959620e-03 0.0000000000e+00 -3.2941572435e-04 7.2645829128e-03 0.0000000000e+00 -2.7882925317e-04 7.2874373636e-03 0.0000000000e+00 -2.3036543473e-04 7.3025902017e-03 0.0000000000e+00 -1.8366419619e-04 7.3386687094e-03 0.0000000000e+00 -1.3892424152e-04 7.3484659383e-03 0.0000000000e+00 -9.5366376831e-05 7.3699453653e-03 0.0000000000e+00 -5.3887611296e-05 7.3946862632e-03 0.0000000000e+00 -1.3639100875e-05 7.4139133168e-03 0.0000000000e+00 2.4936609030e-05 7.4345062692e-03 0.0000000000e+00 6.2533706258e-05 7.4522721283e-03 0.0000000000e+00 9.8924036678e-05 7.4701801239e-03 0.0000000000e+00 1.3469823090e-04 7.4864875731e-03 0.0000000000e+00 1.6988122676e-04 7.5024684335e-03 0.0000000000e+00 2.0518894215e-04 7.5171783216e-03 0.0000000000e+00 2.4151528342e-04 7.5313939649e-03 0.0000000000e+00 2.8451332641e-04 7.5428492419e-03 0.0000000000e+00 3.5873020793e-04 7.5546936359e-03 0.0000000000e+00 4.2223167275e-04 7.5707878716e-03 0.0000000000e+00 3.7183039059e-04 7.5978900906e-03 0.0000000000e+00 4.0544037186e-04 7.6239945374e-03 0.0000000000e+00 4.1204041162e-04 7.6473724034e-03 0.0000000000e+00 4.5211619707e-04 7.6664548191e-03 0.0000000000e+00 4.6190691050e-04 7.6840940169e-03 0.0000000000e+00 5.0664739064e-04 7.6990496068e-03 0.0000000000e+00 5.3412305189e-04 7.7101868749e-03 0.0000000000e+00 5.3547426303e-04 7.7180287326e-03 0.0000000000e+00 5.7355863776e-04 7.7223744615e-03 0.0000000000e+00 5.9229196434e-04 7.7243934372e-03 0.0000000000e+00 6.6044423786e-04 7.7189915875e-03 0.0000000000e+00 7.8402002753e-04 7.7179283411e-03 0.0000000000e+00 7.2278631151e-04 7.7474681455e-03 0.0000000000e+00 6.7735007253e-04 7.7839995312e-03 0.0000000000e+00 7.0752155105e-04 7.8119358229e-03 0.0000000000e+00 7.1194631512e-04 7.8336232383e-03 0.0000000000e+00 7.9468913896e-04 7.8420749301e-03 0.0000000000e+00 7.3896075735e-04 7.8486518781e-03 0.0000000000e+00 7.9970713875e-04 7.8413717814e-03 0.0000000000e+00 8.0794040464e-04 7.8278721414e-03 0.0000000000e+00 1.0125704945e-03 7.8107390294e-03 0.0000000000e+00 9.2614642085e-04 7.8415467687e-03 0.0000000000e+00 8.5874663492e-04 7.8808566506e-03 0.0000000000e+00 8.5211447003e-04 7.9207182121e-03 0.0000000000e+00 9.4277799801e-04 7.9317626776e-03 0.0000000000e+00 9.1751400729e-04 7.9423888180e-03 0.0000000000e+00 9.0922118555e-04 7.9290069954e-03 0.0000000000e+00 9.9844688788e-04 7.9027183665e-03 0.0000000000e+00 1.1563364932e-03 7.8839545566e-03 0.0000000000e+00 1.0648886115e-03 7.9214705685e-03 0.0000000000e+00 9.6193225441e-04 7.9664862622e-03 0.0000000000e+00 1.0205743816e-03 8.0076910594e-03 0.0000000000e+00 1.0760542462e-03 8.0037377334e-03 0.0000000000e+00 1.0061319710e-03 8.0100096833e-03 0.0000000000e+00 1.0926381403e-03 7.9646618468e-03 0.0000000000e+00 1.2597875754e-03 7.9528785483e-03 0.0000000000e+00 1.2233414796e-03 7.9651121885e-03 0.0000000000e+00 1.0333679855e-03 8.0391245132e-03 0.0000000000e+00 1.1502495512e-03 8.0647670518e-03 0.0000000000e+00 1.1586456279e-03 8.0776477257e-03 0.0000000000e+00 1.0922943414e-03 8.0539357109e-03 0.0000000000e+00 1.2851578990e-03 8.0131051787e-03 0.0000000000e+00 1.3851909598e-03 8.0034004141e-03 0.0000000000e+00 1.1820738472e-03 8.0510485390e-03 0.0000000000e+00 1.1650439379e-03 8.1205858857e-03 0.0000000000e+00 1.2772640522e-03 8.1209853589e-03 0.0000000000e+00 1.1683189802e-03 8.1243063542e-03 0.0000000000e+00 1.3082763440e-03 8.0666590456e-03 0.0000000000e+00 1.4531904291e-03 8.0464127299e-03 0.0000000000e+00 1.3442691067e-03 8.0814938613e-03 0.0000000000e+00 1.1932606901e-03 8.1612469287e-03 0.0000000000e+00 1.3626554097e-03 8.1693731920e-03 0.0000000000e+00 1.2335086603e-03 8.1665077680e-03 0.0000000000e+00 1.3882016918e-03 8.1109898208e-03 0.0000000000e+00 1.5414519690e-03 8.0816868055e-03 0.0000000000e+00 1.3683720649e-03 8.1317127526e-03 0.0000000000e+00 1.2894968996e-03 8.2070187036e-03 0.0000000000e+00 1.4168581101e-03 8.2136825451e-03 0.0000000000e+00 1.2909272733e-03 8.1926128030e-03 0.0000000000e+00 1.5041349618e-03 8.1391986971e-03 0.0000000000e+00 1.6434905766e-03 8.1186476216e-03 0.0000000000e+00 1.2901041581e-03 8.2011252781e-03 0.0000000000e+00 1.4571674793e-03 8.2480644587e-03 0.0000000000e+00 1.4035564732e-03 8.2515273745e-03 0.0000000000e+00 1.4203873178e-03 8.2018948713e-03 0.0000000000e+00 1.6297525027e-03 8.1520426333e-03 0.0000000000e+00 1.6113466513e-03 8.1796635361e-03 0.0000000000e+00 1.3260750564e-03 8.2746846443e-03 0.0000000000e+00 1.5685612553e-03 8.2797467227e-03 0.0000000000e+00 1.3712444402e-03 8.2614887989e-03 0.0000000000e+00 1.6452681644e-03 8.1951805221e-03 0.0000000000e+00 1.7543623637e-03 8.1817303088e-03 0.0000000000e+00 1.3473098859e-03 8.2803091293e-03 0.0000000000e+00 1.6148170378e-03 8.3082193783e-03 0.0000000000e+00 1.4347352350e-03 8.3039602903e-03 0.0000000000e+00 1.6311994147e-03 8.2360340565e-03 0.0000000000e+00 1.8183012871e-03 8.1961145181e-03 0.0000000000e+00 1.4436228674e-03 8.2863414823e-03 0.0000000000e+00 1.6143579350e-03 8.3346285591e-03 0.0000000000e+00 1.5192883837e-03 8.3335298152e-03 0.0000000000e+00 1.6182183367e-03 8.2704518195e-03 0.0000000000e+00 1.8725531471e-03 8.2146771401e-03 0.0000000000e+00 1.5217425885e-03 8.3002872954e-03 0.0000000000e+00 1.6304719237e-03 8.3577880124e-03 0.0000000000e+00 1.5767055168e-03 8.3576164582e-03 0.0000000000e+00 1.6397419265e-03 8.2949283653e-03 0.0000000000e+00 1.9320414583e-03 8.2330074913e-03 0.0000000000e+00 1.5422536238e-03 8.3249392834e-03 0.0000000000e+00 1.6915685131e-03 8.3770748928e-03 0.0000000000e+00 1.5848777857e-03 8.3801269466e-03 0.0000000000e+00 1.7221770650e-03 8.3061887655e-03 0.0000000000e+00 1.9719893707e-03 8.2540915107e-03 0.0000000000e+00 1.5286580541e-03 8.3575779725e-03 0.0000000000e+00 1.7802712579e-03 8.3939987836e-03 0.0000000000e+00 1.5612100062e-03 8.3988052453e-03 0.0000000000e+00 1.8544355211e-03 8.3047094935e-03 0.0000000000e+00 1.9671022627e-03 8.2834271160e-03 0.0000000000e+00 1.5315986274e-03 8.3940824238e-03 0.0000000000e+00 1.8648551921e-03 8.4091724955e-03 0.0000000000e+00 1.5266025215e-03 8.4090413033e-03 0.0000000000e+00 2.0382771778e-03 8.2919270925e-03 0.0000000000e+00 1.8526031890e-03 8.3305942204e-03 0.0000000000e+00 1.6605250761e-03 8.4196036860e-03 0.0000000000e+00 1.8140898918e-03 8.4345302651e-03 0.0000000000e+00 1.6519470804e-03 8.3902152507e-03 0.0000000000e+00 2.1344013948e-03 8.2907755947e-03 0.0000000000e+00 1.7068936743e-03 8.3859426047e-03 0.0000000000e+00 1.8424241794e-03 8.4378302237e-03 0.0000000000e+00 1.6677442444e-03 8.4526170451e-03 0.0000000000e+00 1.9663302505e-03 8.3468622598e-03 0.0000000000e+00 2.0524353488e-03 8.3272963007e-03 0.0000000000e+00 1.6587204120e-03 8.4372844723e-03 0.0000000000e+00 1.9436823506e-03 8.4545283121e-03 0.0000000000e+00 1.6347120343e-03 8.4376997594e-03 0.0000000000e+00 2.2240116594e-03 8.3112277766e-03 0.0000000000e+00 1.8059463547e-03 8.3987521151e-03 0.0000000000e+00 1.8951778371e-03 8.4560540029e-03 0.0000000000e+00 1.7233795043e-03 8.4789858214e-03 0.0000000000e+00 2.0500878263e-03 8.3645797202e-03 0.0000000000e+00 2.0918166918e-03 8.3497426265e-03 0.0000000000e+00 1.7577478341e-03 8.4561745044e-03 0.0000000000e+00 1.9589255508e-03 8.4789470357e-03 0.0000000000e+00 1.7634400094e-03 8.4400831375e-03 0.0000000000e+00 2.2935759069e-03 8.3236223990e-03 0.0000000000e+00 1.8043380287e-03 8.4334785345e-03 0.0000000000e+00 2.0131786766e-03 8.4738375823e-03 0.0000000000e+00 1.7234035370e-03 8.4875787405e-03 0.0000000000e+00 2.2699523278e-03 8.3446627111e-03 0.0000000000e+00 1.9873581140e-03 8.3967459133e-03 0.0000000000e+00 1.9595403728e-03 8.4709982848e-03 0.0000000000e+00 1.8226051849e-03 8.5014043435e-03 0.0000000000e+00 2.1577876672e-03 8.3806822459e-03 0.0000000000e+00 2.1611470014e-03 8.3618898946e-03 0.0000000000e+00 1.9215460804e-03 8.4617748859e-03 0.0000000000e+00 1.9469362599e-03 8.4961156416e-03 0.0000000000e+00 2.0350558775e-03 8.4126309383e-03 0.0000000000e+00 2.3016566473e-03 8.3291075360e-03 0.0000000000e+00 1.9319114286e-03 8.4370805117e-03 0.0000000000e+00 2.0310997542e-03 8.4787512862e-03 0.0000000000e+00 1.9708817124e-03 8.4240506819e-03 0.0000000000e+00 2.3667036056e-03 8.2913974090e-03 0.0000000000e+00 2.0489510660e-03 8.3712675394e-03 0.0000000000e+00 1.9758181993e-03 8.4520195660e-03 0.0000000000e+00 2.0348773793e-03 8.4048123407e-03 0.0000000000e+00 2.3764254911e-03 8.2212255194e-03 0.0000000000e+00 2.2660084166e-03 8.1737995909e-03 0.0000000000e+00 1.7270603414e-03 8.4670531011e-03 0.0000000000e+00 2.3187371507e-03 8.1897778133e-03 0.0000000000e+00 1.0985341365e-03 9.1925589957e-03 0.0000000000e+00 3.2927599740e-03 9.6951059761e-03 0.0000000000e+00 -8.3233944238e-06 1.3796675768e-02 0.0000000000e+00 8.5681859160e-03 1.0167286524e-02 0.0000000000e+00 -2.7633360197e-04 1.3918332755e-04 0.0000000000e+00 -1.6441353189e-03 -1.0906788592e-02 0.0000000000e+00 3.7917951170e-04 -1.3926633588e-02 0.0000000000e+00 -5.0997525793e-04 -9.7094892368e-03 0.0000000000e+00 -8.1895271376e-04 -9.4890900140e-03 0.0000000000e+00 2.2975553156e-04 -8.3636961038e-03 0.0000000000e+00 4.1031741209e-05 -8.7042415138e-03 0.0000000000e+00 2.2241408478e-04 -8.3664300472e-03 0.0000000000e+00 3.2704625062e-04 -8.6122894934e-03 0.0000000000e+00 1.7897273471e-04 -8.6681943350e-03 0.0000000000e+00 9.0534884892e-05 -8.6604409393e-03 0.0000000000e+00 1.5438565945e-04 -8.6161746123e-03 0.0000000000e+00 2.4253723816e-04 -8.6585168104e-03 0.0000000000e+00 1.5853425524e-04 -8.7022416777e-03 0.0000000000e+00 1.1036661941e-04 -8.6968722155e-03 0.0000000000e+00 1.2543807427e-04 -8.6822854709e-03 0.0000000000e+00 1.6318940196e-04 -8.6953772475e-03 0.0000000000e+00 1.3475819313e-04 -8.7028642686e-03 0.0000000000e+00 1.0525738154e-04 -8.7151851568e-03 0.0000000000e+00 1.0235538779e-04 -8.7155671261e-03 0.0000000000e+00 1.1326795729e-04 -8.7024774478e-03 0.0000000000e+00 1.0208482002e-04 -8.7247050830e-03 0.0000000000e+00 8.7624692490e-05 -8.7215570615e-03 0.0000000000e+00 7.9251552169e-05 -8.7285022989e-03 0.0000000000e+00 7.8151868031e-05 -8.7269822998e-03 0.0000000000e+00 7.1890329160e-05 -8.7326140744e-03 0.0000000000e+00 6.2727706528e-05 -8.7333416066e-03 0.0000000000e+00 5.4640037021e-05 -8.7349057170e-03 0.0000000000e+00 4.9528511010e-05 -8.7354093998e-03 0.0000000000e+00 4.3991189758e-05 -8.7366079324e-03 0.0000000000e+00 3.6964164167e-05 -8.7377060048e-03 0.0000000000e+00 2.9784102527e-05 -8.7385076999e-03 0.0000000000e+00 2.3527716658e-05 -8.7388844923e-03 0.0000000000e+00 1.7587346953e-05 -8.7395182813e-03 0.0000000000e+00 1.1124577721e-05 -8.7400841733e-03 0.0000000000e+00 4.3322900782e-06 -8.7405403585e-03 0.0000000000e+00 -2.3099009344e-06 -8.7410327390e-03 0.0000000000e+00 -8.7138854689e-06 -8.7411704546e-03 0.0000000000e+00 -1.5197944582e-05 -8.7414200897e-03 0.0000000000e+00 -2.1867420934e-05 -8.7417597282e-03 0.0000000000e+00 -2.8475752427e-05 -8.7418755462e-03 0.0000000000e+00 -3.5067509284e-05 -8.7419542658e-03 0.0000000000e+00 -4.1640627898e-05 -8.7419498122e-03 0.0000000000e+00 -4.8327525512e-05 -8.7420820132e-03 0.0000000000e+00 -5.5089371680e-05 -8.7421468532e-03 0.0000000000e+00 -6.1896962531e-05 -8.7420542615e-03 0.0000000000e+00 -6.8703786218e-05 -8.7420025810e-03 0.0000000000e+00 -7.5576080640e-05 -8.7419357907e-03 0.0000000000e+00 -8.2474560717e-05 -8.7417890706e-03 0.0000000000e+00 -8.9468596089e-05 -8.7413679344e-03 0.0000000000e+00 -9.6420635476e-05 -8.7412583800e-03 0.0000000000e+00 -1.0351350165e-04 -8.7404117070e-03 0.0000000000e+00 -1.1047939418e-04 -8.7405059441e-03 0.0000000000e+00 -1.1771812216e-04 -8.7386853203e-03 0.0000000000e+00 -1.2464214097e-04 -8.7391861970e-03 0.0000000000e+00 -1.3206277943e-04 -8.7355339809e-03 0.0000000000e+00 -1.3888438694e-04 -8.7371416358e-03 0.0000000000e+00 -1.4656906933e-04 -8.7284700213e-03 0.0000000000e+00 -1.5333197950e-04 -8.7312565830e-03 0.0000000000e+00 -1.6066182408e-04 -8.7423388884e-03 0.0000000000e+00 -1.6796433437e-04 -8.7243695624e-03 0.0000000000e+00 -1.7540386166e-04 -8.7358707499e-03 0.0000000000e+00 -1.8245451364e-04 -8.7337815118e-03 0.0000000000e+00 -1.8997158173e-04 -8.7390360111e-03 0.0000000000e+00 -1.9716640358e-04 -8.7382652180e-03 0.0000000000e+00 -2.0470734845e-04 -8.7406971375e-03 0.0000000000e+00 -2.1206188172e-04 -8.7407435947e-03 0.0000000000e+00 -2.1964714974e-04 -8.7419820964e-03 0.0000000000e+00 -2.2715918785e-04 -8.7427139573e-03 0.0000000000e+00 -2.3481771421e-04 -8.7434538596e-03 0.0000000000e+00 -2.4245507879e-04 -8.7441797599e-03 0.0000000000e+00 -2.5021200358e-04 -8.7450557118e-03 0.0000000000e+00 -2.5795846158e-04 -8.7457333317e-03 0.0000000000e+00 -2.6580373412e-04 -8.7465916551e-03 0.0000000000e+00 -2.7363214555e-04 -8.7472557004e-03 0.0000000000e+00 -2.8155308214e-04 -8.7481474056e-03 0.0000000000e+00 -2.8940777514e-04 -8.7492044119e-03 0.0000000000e+00 -2.9736821176e-04 -8.7498642781e-03 0.0000000000e+00 -3.0505953827e-04 -8.7508115942e-03 0.0000000000e+00 -3.1382527647e-04 -8.7518042114e-03 0.0000000000e+00 -3.2104468680e-04 -8.7526365764e-03 0.0000000000e+00 -3.2961526221e-04 -8.7536156493e-03 0.0000000000e+00 -3.3730555221e-04 -8.7544457891e-03 0.0000000000e+00 -3.4629474747e-04 -8.7554761337e-03 0.0000000000e+00 -3.5369493593e-04 -8.7564900771e-03 0.0000000000e+00 -3.6326635129e-04 -8.7568222878e-03 0.0000000000e+00 -3.7169930224e-04 -8.7570104088e-03 0.0000000000e+00 -3.8103339483e-04 -8.7570935118e-03 0.0000000000e+00 -3.9006628895e-04 -8.7569839333e-03 0.0000000000e+00 -3.9940432568e-04 -8.7566340973e-03 0.0000000000e+00 -4.0860864562e-04 -8.7555662177e-03 0.0000000000e+00 -4.1791537834e-04 -8.7545679717e-03 0.0000000000e+00 -4.2717736102e-04 -8.7521419962e-03 0.0000000000e+00 -4.3642283737e-04 -8.7503907488e-03 0.0000000000e+00 -4.4605458575e-04 -8.7445470116e-03 0.0000000000e+00 -4.5554592650e-04 -8.7420702026e-03 0.0000000000e+00 -4.6889066074e-04 -8.7298698691e-03 0.0000000000e+00 -4.8384803325e-04 -8.7263082932e-03 0.0000000000e+00 -5.4214062649e-04 -8.7043513494e-03 0.0000000000e+00 -5.5242818755e-04 -8.7159449456e-03 0.0000000000e+00 -5.2826011807e-04 -8.7212162110e-03 0.0000000000e+00 -5.3698685888e-04 -8.7141359078e-03 0.0000000000e+00 -5.4529372534e-04 -8.7340408028e-03 0.0000000000e+00 -5.5729242318e-04 -8.7347156927e-03 0.0000000000e+00 -5.6838151846e-04 -8.7460955994e-03 0.0000000000e+00 -5.7949768143e-04 -8.7485536831e-03 0.0000000000e+00 -5.9014663093e-04 -8.7558714373e-03 0.0000000000e+00 -6.0023796145e-04 -8.7592665499e-03 0.0000000000e+00 -6.1247989197e-04 -8.7651898148e-03 0.0000000000e+00 -6.2094560162e-04 -8.7681327818e-03 0.0000000000e+00 -6.3558236719e-04 -8.7689738389e-03 0.0000000000e+00 -6.4533864260e-04 -8.7684438932e-03 0.0000000000e+00 -6.5814432883e-04 -8.7662453760e-03 0.0000000000e+00 -6.6898035939e-04 -8.7614373426e-03 0.0000000000e+00 -6.8108309269e-04 -8.7532110576e-03 0.0000000000e+00 -6.9903932782e-04 -8.7390011389e-03 0.0000000000e+00 -7.5646279622e-04 -8.7213215445e-03 0.0000000000e+00 -8.3777979765e-04 -8.7103614013e-03 0.0000000000e+00 -7.7655956939e-04 -8.7203517010e-03 0.0000000000e+00 -7.8071019620e-04 -8.7368972690e-03 0.0000000000e+00 -7.8079270714e-04 -8.7517334854e-03 0.0000000000e+00 -8.1013107308e-04 -8.7630749127e-03 0.0000000000e+00 -8.0690770321e-04 -8.7738202312e-03 0.0000000000e+00 -8.4279040584e-04 -8.7827858665e-03 0.0000000000e+00 -8.3173264298e-04 -8.7901261704e-03 0.0000000000e+00 -8.7450141113e-04 -8.7869349190e-03 0.0000000000e+00 -8.5262047517e-04 -8.7830888287e-03 0.0000000000e+00 -9.0986580527e-04 -8.7696578440e-03 0.0000000000e+00 -8.7076224530e-04 -8.7491525460e-03 0.0000000000e+00 -1.0551400659e-03 -8.7176321178e-03 0.0000000000e+00 -1.0606293543e-03 -8.7135539005e-03 0.0000000000e+00 -9.9866350646e-04 -8.7341316981e-03 0.0000000000e+00 -1.0019380233e-03 -8.7631711109e-03 0.0000000000e+00 -1.0144221577e-03 -8.7836747412e-03 0.0000000000e+00 -1.0483282715e-03 -8.7999032033e-03 0.0000000000e+00 -1.0509328879e-03 -8.8131537319e-03 0.0000000000e+00 -1.0740720351e-03 -8.8063134513e-03 0.0000000000e+00 -1.0901341479e-03 -8.7940428327e-03 0.0000000000e+00 -1.0783425333e-03 -8.7627094445e-03 0.0000000000e+00 -1.3002911976e-03 -8.7204464286e-03 0.0000000000e+00 -1.3069049908e-03 -8.7230571687e-03 0.0000000000e+00 -1.2050886146e-03 -8.7516022059e-03 0.0000000000e+00 -1.2156125384e-03 -8.7992618790e-03 0.0000000000e+00 -1.2661874045e-03 -8.8165466676e-03 0.0000000000e+00 -1.2567260507e-03 -8.8406389594e-03 0.0000000000e+00 -1.3024234644e-03 -8.8165443108e-03 0.0000000000e+00 -1.2649562340e-03 -8.7968365202e-03 0.0000000000e+00 -1.4974767121e-03 -8.7351971106e-03 0.0000000000e+00 -1.5860684927e-03 -8.7298970918e-03 0.0000000000e+00 -1.4023456069e-03 -8.7729686846e-03 0.0000000000e+00 -1.4658500557e-03 -8.8355105073e-03 0.0000000000e+00 -1.4569749675e-03 -8.8619466068e-03 0.0000000000e+00 -1.5117759623e-03 -8.8690426300e-03 0.0000000000e+00 -1.4911307362e-03 -8.8082120559e-03 0.0000000000e+00 -1.7387512298e-03 -8.7639053313e-03 0.0000000000e+00 -1.8492075076e-03 -8.7507222035e-03 0.0000000000e+00 -1.6016692126e-03 -8.8264586762e-03 0.0000000000e+00 -1.7118139316e-03 -8.8884233402e-03 0.0000000000e+00 -1.6889446342e-03 -8.9123484529e-03 0.0000000000e+00 -1.7389052936e-03 -8.8391939108e-03 0.0000000000e+00 -1.9899858793e-03 -8.7856555356e-03 0.0000000000e+00 -2.0964755929e-03 -8.7833900607e-03 0.0000000000e+00 -1.8789431296e-03 -8.8662779046e-03 0.0000000000e+00 -1.8812751696e-03 -8.9644529990e-03 0.0000000000e+00 -1.9688041679e-03 -8.8925602473e-03 0.0000000000e+00 -2.2010018005e-03 -8.8235537976e-03 0.0000000000e+00 -2.3760050659e-03 -8.8058968808e-03 0.0000000000e+00 -2.2026307180e-03 -8.8809943226e-03 0.0000000000e+00 -2.0336895109e-03 -9.0343982381e-03 0.0000000000e+00 -2.3841640582e-03 -8.8647582394e-03 0.0000000000e+00 -2.4595485362e-03 -8.8722173183e-03 0.0000000000e+00 -2.8264270477e-03 -8.8044833337e-03 0.0000000000e+00 -2.1616703502e-03 -9.0773758709e-03 0.0000000000e+00 -2.6501049636e-03 -8.9247553835e-03 0.0000000000e+00 -2.7282908115e-03 -8.8953284433e-03 0.0000000000e+00 -3.2658685414e-03 -8.8424711505e-03 0.0000000000e+00 -2.3113100442e-03 -9.0868068589e-03 0.0000000000e+00 -3.1084205198e-03 -9.0076617134e-03 0.0000000000e+00 -3.4030556161e-03 -8.7246563238e-03 0.0000000000e+00 -3.1067087313e-03 -9.2298021129e-03 0.0000000000e+00 -3.1451000191e-03 -8.7277129851e-03 0.0000000000e+00 -3.3133033660e-03 -9.3988123809e-03 0.0000000000e+00 -4.6093260200e-03 -8.2060827925e-03 0.0000000000e+00 -2.1041847469e-03 -1.0024175549e-02 0.0000000000e+00 -5.6737967926e-03 -7.7884877170e-03 0.0000000000e+00 -3.1499938554e-03 -9.7860505876e-03 0.0000000000e+00 -4.3821379754e-03 -8.4542181122e-03 0.0000000000e+00 -5.6267526333e-03 -8.9450212766e-03 0.0000000000e+00 -3.0361420521e-03 -9.2224557322e-03 0.0000000000e+00 -7.3602871947e-03 -8.3047945419e-03 0.0000000000e+00 -3.1913763734e-03 -9.5984335020e-03 0.0000000000e+00 -8.3140207578e-03 -7.7466617620e-03 0.0000000000e+00 -3.5413863529e-03 -1.0263721125e-02 0.0000000000e+00 -1.0275839184e-02 -6.1137705187e-03 0.0000000000e+00 -4.7946167495e-03 -1.0359873696e-02 0.0000000000e+00 -1.0592077226e-02 -4.7180642273e-03 0.0000000000e+00 -8.0207543075e-03 -9.0821157715e-03 0.0000000000e+00 -1.1703555141e-02 -2.7546831713e-03 0.0000000000e+00 -1.0212214745e-02 -3.5509332960e-03 0.0000000000e+00
        </DataArray>
      </PointData>
    </Piece>
  </PolyData>
</VTKFile>
