<?xml version="1.0"?>
<VTKFile type="PolyData" version="0.1" byte_order="LittleEndian">
  <PolyData>
    <FieldData>
      <DataArray type="Float64" Name="TimeValue" NumberOfTuples="1" format="ascii">
        8.499999999998803e+01
      </DataArray>
    </FieldData>
    <Piece NumberOfPoints="398" NumberOfVerts="398" NumberOfLines="0" NumberOfStrips="0" NumberOfPolys="0">
      <Points>
        <DataArray type="Float64" NumberOfComponents="3" format="ascii">
          -4.9726094768e-01 5.2264231634e-02 0.0000000000e+00 -4.9591980461e-01 5.7187521354e-02 0.0000000000e+00 -4.9320742903e-01 6.1518265364e-02 0.0000000000e+00 -4.8960598536e-01 6.5153650837e-02 0.0000000000e+00 -4.8548567450e-01 6.8194643038e-02 0.0000000000e+00 -4.8105786906e-01 7.0770768034e-02 0.0000000000e+00 -4.7643787966e-01 7.2985647804e-02 0.0000000000e+00 -4.7169100133e-01 7.4914697529e-02 0.0000000000e+00 -4.6685629730e-01 7.6612338955e-02 0.0000000000e+00 -4.6195841863e-01 7.8118474475e-02 0.0000000000e+00 -4.5701365804e-01 7.9463020303e-02 0.0000000000e+00 -4.5203321881e-01 8.0668916425e-02 0.0000000000e+00 -4.4702506197e-01 8.1754126178e-02 0.0000000000e+00 -4.4199500846e-01 8.2732982305e-02 0.0000000000e+00 -4.3694742522e-01 8.3617112443e-02 0.0000000000e+00 -4.3188565927e-01 8.4416090884e-02 0.0000000000e+00 -4.2681230400e-01 8.5137908709e-02 0.0000000000e+00 -4.2172941653e-01 8.5789311244e-02 0.0000000000e+00 -4.1663865062e-01 8.6376052829e-02 0.0000000000e+00 -4.1154135992e-01 8.6903088373e-02 0.0000000000e+00 -4.0643863732e-01 8.7374723845e-02 0.0000000000e+00 -4.0133140546e-01 8.7794726707e-02 0.0000000000e+00 -3.9622042424e-01 8.8166419095e-02 0.0000000000e+00 -3.9110634740e-01 8.8492747356e-02 0.0000000000e+00 -3.8598972048e-01 8.8776341615e-02 0.0000000000e+00 -3.8087100981e-01 8.9019561684e-02 0.0000000000e+00 -3.7575063504e-01 8.9224534775e-02 0.0000000000e+00 -3.7062893181e-01 8.9393189274e-02 0.0000000000e+00 -3.6550619075e-01 8.9527279365e-02 0.0000000000e+00 -3.6038270739e-01 8.9628406450e-02 0.0000000000e+00 -3.5525869773e-01 8.9698040036e-02 0.0000000000e+00 -3.5013435246e-01 8.9737531833e-02 0.0000000000e+00 -3.4500987690e-01 8.9748129328e-02 0.0000000000e+00 -3.3988541842e-01 8.9730987908e-02 0.0000000000e+00 -3.3476111444e-01 8.9687180276e-02 0.0000000000e+00 -3.2963709471e-01 8.9617705257e-02 0.0000000000e+00 -3.2451348064e-01 8.9523495400e-02 0.0000000000e+00 -3.1939034143e-01 8.9405422449e-02 0.0000000000e+00 -3.1426779881e-01 8.9264305217e-02 0.0000000000e+00 -3.0914591206e-01 8.9100912041e-02 0.0000000000e+00 -3.0402476307e-01 8.8915967270e-02 0.0000000000e+00 -2.9890440772e-01 8.8710153739e-02 0.0000000000e+00 -2.9378490850e-01 8.8484117338e-02 0.0000000000e+00 -2.8866631015e-01 8.8238469120e-02 0.0000000000e+00 -2.8354865267e-01 8.7973788508e-02 0.0000000000e+00 -2.7843198600e-01 8.7690626604e-02 0.0000000000e+00 -2.7331635766e-01 8.7389507892e-02 0.0000000000e+00 -2.6820177024e-01 8.7070929522e-02 0.0000000000e+00 -2.6308828316e-01 8.6735369256e-02 0.0000000000e+00 -2.5797588368e-01 8.6383278975e-02 0.0000000000e+00 -2.5286463554e-01 8.6015095985e-02 0.0000000000e+00 -2.4775456034e-01 8.5631236490e-02 0.0000000000e+00 -2.4264563136e-01 8.5232095683e-02 0.0000000000e+00 -2.3753787536e-01 8.4818056587e-02 0.0000000000e+00 -2.3243133189e-01 8.4389488400e-02 0.0000000000e+00 -2.2732604551e-01 8.3946746927e-02 0.0000000000e+00 -2.2222190001e-01 8.3490160448e-02 0.0000000000e+00 -2.1711899509e-01 8.3020063562e-02 0.0000000000e+00 -2.1201736213e-01 8.2536773495e-02 0.0000000000e+00 -2.0691697960e-01 8.2040591368e-02 0.0000000000e+00 -2.0181778048e-01 8.1531802906e-02 0.0000000000e+00 -1.9671983644e-01 8.1010697525e-02 0.0000000000e+00 -1.9162315737e-01 8.0477549322e-02 0.0000000000e+00 -1.8652775518e-01 7.9932623721e-02 0.0000000000e+00 -1.8143354438e-01 7.9376166968e-02 0.0000000000e+00 -1.7634058775e-01 7.8808433128e-02 0.0000000000e+00 -1.7124890276e-01 7.8229663908e-02 0.0000000000e+00 -1.6615843046e-01 7.7640084880e-02 0.0000000000e+00 -1.6106919074e-01 7.7039923480e-02 0.0000000000e+00 -1.5598117717e-01 7.6429397432e-02 0.0000000000e+00 -1.5089442149e-01 7.5808722703e-02 0.0000000000e+00 -1.4580891223e-01 7.5178103979e-02 0.0000000000e+00 -1.4072455773e-01 7.4537729809e-02 0.0000000000e+00 -1.3564143273e-01 7.3887803843e-02 0.0000000000e+00 -1.3055953602e-01 7.3228514974e-02 0.0000000000e+00 -1.2547885669e-01 7.2560045603e-02 0.0000000000e+00 -1.2039932696e-01 7.1882565420e-02 0.0000000000e+00 -1.1532097276e-01 7.1196251579e-02 0.0000000000e+00 -1.1024384833e-01 7.0501280681e-02 0.0000000000e+00 -1.0516789419e-01 6.9797809381e-02 0.0000000000e+00 -1.0009305693e-01 6.9085990467e-02 0.0000000000e+00 -9.5019385779e-02 6.8365986871e-02 0.0000000000e+00 -8.9946876275e-02 6.7637950065e-02 0.0000000000e+00 -8.4875512802e-02 6.6902025973e-02 0.0000000000e+00 -7.9805266057e-02 6.6158354627e-02 0.0000000000e+00 -7.4736119229e-02 6.5407074084e-02 0.0000000000e+00 -6.9668110663e-02 6.4648327056e-02 0.0000000000e+00 -6.4601223625e-02 6.3882244673e-02 0.0000000000e+00 -5.9535406374e-02 6.3108949253e-02 0.0000000000e+00 -5.4470657317e-02 6.2328567330e-02 0.0000000000e+00 -4.9407032488e-02 6.1541231275e-02 0.0000000000e+00 -4.4344451672e-02 6.0747049224e-02 0.0000000000e+00 -3.9282923158e-02 5.9946139943e-02 0.0000000000e+00 -3.4222445485e-02 5.9138617762e-02 0.0000000000e+00 -2.9163037454e-02 5.8324597432e-02 0.0000000000e+00 -2.4104648617e-02 5.7504179745e-02 0.0000000000e+00 -1.9047261811e-02 5.6677467985e-02 0.0000000000e+00 -1.3990893842e-02 5.5844568318e-02 0.0000000000e+00 -8.9355444057e-03 5.5005581552e-02 0.0000000000e+00 -3.8812175905e-03 5.4160606701e-02 0.0000000000e+00 1.1721998069e-03 5.3309720494e-02 0.0000000000e+00 6.2245485523e-03 5.2453043054e-02 0.0000000000e+00 1.1275943392e-02 5.1590645938e-02 0.0000000000e+00 1.6326440609e-02 5.0722607920e-02 0.0000000000e+00 2.1375943892e-02 4.9849031720e-02 0.0000000000e+00 2.6424457110e-02 4.8970000753e-02 0.0000000000e+00 3.1472011504e-02 4.8085591397e-02 0.0000000000e+00 3.6518701143e-02 4.7195866621e-02 0.0000000000e+00 4.1564441327e-02 4.6300918671e-02 0.0000000000e+00 4.6609230112e-02 4.5400823257e-02 0.0000000000e+00 5.1653173445e-02 4.4495634621e-02 0.0000000000e+00 5.6696228622e-02 4.3585431459e-02 0.0000000000e+00 6.1738361294e-02 4.2670289132e-02 0.0000000000e+00 6.6779564021e-02 4.1750276257e-02 0.0000000000e+00 7.1819899165e-02 4.0825446710e-02 0.0000000000e+00 7.6859356703e-02 3.9895865608e-02 0.0000000000e+00 8.1898008641e-02 3.8961580986e-02 0.0000000000e+00 8.6935705941e-02 3.8022680059e-02 0.0000000000e+00 9.1972611128e-02 3.7079190280e-02 0.0000000000e+00 9.7008668669e-02 3.6131177844e-02 0.0000000000e+00 1.0204386087e-01 3.5178700202e-02 0.0000000000e+00 1.0707827097e-01 3.4221793894e-02 0.0000000000e+00 1.1211171891e-01 3.3260543822e-02 0.0000000000e+00 1.1714445382e-01 3.2294951292e-02 0.0000000000e+00 1.2217637967e-01 3.1325081711e-02 0.0000000000e+00 1.2720736077e-01 3.0351006860e-02 0.0000000000e+00 1.3223761875e-01 2.9372727682e-02 0.0000000000e+00 1.3726706297e-01 2.8390303861e-02 0.0000000000e+00 1.4229572061e-01 2.7403770609e-02 0.0000000000e+00 1.4732360119e-01 2.6413164931e-02 0.0000000000e+00 1.5235059578e-01 2.5418545708e-02 0.0000000000e+00 1.5737688659e-01 2.4419912645e-02 0.0000000000e+00 1.6240234385e-01 2.3417325663e-02 0.0000000000e+00 1.6742696646e-01 2.2410817741e-02 0.0000000000e+00 1.7245085770e-01 2.1400399305e-02 0.0000000000e+00 1.7747398558e-01 2.0386106299e-02 0.0000000000e+00 1.8249635644e-01 1.9367965495e-02 0.0000000000e+00 1.8751791564e-01 1.8346014588e-02 0.0000000000e+00 1.9253867441e-01 1.7320276492e-02 0.0000000000e+00 1.9755867528e-01 1.6290766192e-02 0.0000000000e+00 2.0257793396e-01 1.5257502622e-02 0.0000000000e+00 2.0759639625e-01 1.4220517707e-02 0.0000000000e+00 2.1261408588e-01 1.3179825911e-02 0.0000000000e+00 2.1763104490e-01 1.2135436390e-02 0.0000000000e+00 2.2264726018e-01 1.1087368318e-02 0.0000000000e+00 2.2766268318e-01 1.0035646948e-02 0.0000000000e+00 2.3267726296e-01 8.9802968007e-03 0.0000000000e+00 2.3769115605e-01 7.9212972708e-03 0.0000000000e+00 2.4270427261e-01 6.8586782309e-03 0.0000000000e+00 2.4771659633e-01 5.7924527911e-03 0.0000000000e+00 2.5272819058e-01 4.7226157199e-03 0.0000000000e+00 2.5773898461e-01 3.6491890353e-03 0.0000000000e+00 2.6274907064e-01 2.5721585331e-03 0.0000000000e+00 2.6775833653e-01 1.4915525741e-03 0.0000000000e+00 2.7276680970e-01 4.0736826173e-04 0.0000000000e+00 2.7777451790e-01 -6.8039875983e-04 0.0000000000e+00 2.8278146879e-01 -1.7717498540e-03 0.0000000000e+00 2.8778759011e-01 -2.8666701914e-03 0.0000000000e+00 2.9279294031e-01 -3.9651747581e-03 0.0000000000e+00 2.9779755351e-01 -5.0672746270e-03 0.0000000000e+00 3.0280135913e-01 -6.1729590882e-03 0.0000000000e+00 3.0780438244e-01 -7.2822397704e-03 0.0000000000e+00 3.1280650594e-01 -8.3950978319e-03 0.0000000000e+00 3.1780794456e-01 -9.5115896717e-03 0.0000000000e+00 3.2280852738e-01 -1.0631687020e-02 0.0000000000e+00 3.2780825022e-01 -1.1755399878e-02 0.0000000000e+00 3.3280721108e-01 -1.2882762556e-02 0.0000000000e+00 3.3780534714e-01 -1.4013774448e-02 0.0000000000e+00 3.4280265335e-01 -1.5148449133e-02 0.0000000000e+00 3.4779915549e-01 -1.6286808434e-02 0.0000000000e+00 3.5279469994e-01 -1.7428834392e-02 0.0000000000e+00 3.5778950179e-01 -1.8574594513e-02 0.0000000000e+00 3.6278342043e-01 -1.9724076172e-02 0.0000000000e+00 3.6777640315e-01 -2.0877287849e-02 0.0000000000e+00 3.7276860129e-01 -2.2034286424e-02 0.0000000000e+00 3.7775992822e-01 -2.3195075031e-02 0.0000000000e+00 3.8275032602e-01 -2.4359664423e-02 0.0000000000e+00 3.8773987974e-01 -2.5528099898e-02 0.0000000000e+00 3.9272844614e-01 -2.6700374472e-02 0.0000000000e+00 3.9771614086e-01 -2.7876543029e-02 0.0000000000e+00 4.0270291178e-01 -2.9056622242e-02 0.0000000000e+00 4.0768869791e-01 -3.0240627667e-02 0.0000000000e+00 4.1267361642e-01 -3.1428618368e-02 0.0000000000e+00 4.1765755604e-01 -3.2620600225e-02 0.0000000000e+00 4.2264052151e-01 -3.3816607805e-02 0.0000000000e+00 4.2762255447e-01 -3.5016685743e-02 0.0000000000e+00 4.3260353408e-01 -3.6220840625e-02 0.0000000000e+00 4.3758354093e-01 -3.7429128723e-02 0.0000000000e+00 4.4256256770e-01 -3.8641586290e-02 0.0000000000e+00 4.4754046411e-01 -3.9858215695e-02 0.0000000000e+00 4.5251740906e-01 -4.1079100795e-02 0.0000000000e+00 4.5749335137e-01 -4.2304270474e-02 0.0000000000e+00 4.6246815394e-01 -4.3533733300e-02 0.0000000000e+00 4.6744192511e-01 -4.4767559442e-02 0.0000000000e+00 4.7241451575e-01 -4.6005756378e-02 0.0000000000e+00 4.7738608692e-01 -4.7248409814e-02 0.0000000000e+00 4.8235650207e-01 -4.8495532369e-02 0.0000000000e+00 4.8732575854e-01 -4.9747171040e-02 0.0000000000e+00 4.9229400251e-01 -5.1003411632e-02 0.0000000000e+00 4.9726094768e-01 -5.2264231634e-02 0.0000000000e+00 4.9214040296e-01 -5.2464813724e-02 0.0000000000e+00 4.8701953993e-01 -5.2660646441e-02 0.0000000000e+00 4.8189864333e-01 -5.2851767290e-02 0.0000000000e+00 4.7677755232e-01 -5.3038229807e-02 0.0000000000e+00 4.7165625973e-01 -5.3220080515e-02 0.0000000000e+00 4.6653489650e-01 -5.3397360149e-02 0.0000000000e+00 4.6141328729e-01 -5.3570119057e-02 0.0000000000e+00 4.5629157639e-01 -5.3738395555e-02 0.0000000000e+00 4.5116964327e-01 -5.3902235761e-02 0.0000000000e+00 4.4604762022e-01 -5.4061676551e-02 0.0000000000e+00 4.4092555131e-01 -5.4216756824e-02 0.0000000000e+00 4.3580324412e-01 -5.4367521411e-02 0.0000000000e+00 4.3068084515e-01 -5.4514003871e-02 0.0000000000e+00 4.2555835402e-01 -5.4656241187e-02 0.0000000000e+00 4.2043568020e-01 -5.4794271646e-02 0.0000000000e+00 4.1531294051e-01 -5.4928126814e-02 0.0000000000e+00 4.1019008497e-01 -5.5057841695e-02 0.0000000000e+00 4.0506710173e-01 -5.5183449112e-02 0.0000000000e+00 3.9994409843e-01 -5.5304977955e-02 0.0000000000e+00 3.9482094815e-01 -5.5422461631e-02 0.0000000000e+00 3.8969770733e-01 -5.5535928040e-02 0.0000000000e+00 3.8457442349e-01 -5.5645404327e-02 0.0000000000e+00 3.7945097209e-01 -5.5750920133e-02 0.0000000000e+00 3.7432749471e-01 -5.5852498408e-02 0.0000000000e+00 3.6920389872e-01 -5.5950165778e-02 0.0000000000e+00 3.6408023857e-01 -5.6043944803e-02 0.0000000000e+00 3.5895659830e-01 -5.6133856558e-02 0.0000000000e+00 3.5383281810e-01 -5.6219925217e-02 0.0000000000e+00 3.4870894773e-01 -5.6302170032e-02 0.0000000000e+00 3.4358512736e-01 -5.6380607890e-02 0.0000000000e+00 3.3846113257e-01 -5.6455260100e-02 0.0000000000e+00 3.3333711736e-01 -5.6526141037e-02 0.0000000000e+00 3.2821305197e-01 -5.6593266688e-02 0.0000000000e+00 3.2308893851e-01 -5.6656651381e-02 0.0000000000e+00 3.1796483857e-01 -5.6716307587e-02 0.0000000000e+00 3.1284064916e-01 -5.6772248492e-02 0.0000000000e+00 3.0771637227e-01 -5.6824484747e-02 0.0000000000e+00 3.0259218097e-01 -5.6873024235e-02 0.0000000000e+00 2.9746785329e-01 -5.6917877437e-02 0.0000000000e+00 2.9234350810e-01 -5.6959050352e-02 0.0000000000e+00 2.8721911827e-01 -5.6996549104e-02 0.0000000000e+00 2.8209475503e-01 -5.7030377886e-02 0.0000000000e+00 2.7697038274e-01 -5.7060540439e-02 0.0000000000e+00 2.7184594108e-01 -5.7087039267e-02 0.0000000000e+00 2.6672150384e-01 -5.7109874891e-02 0.0000000000e+00 2.6159706323e-01 -5.7129047050e-02 0.0000000000e+00 2.5647259122e-01 -5.7144554236e-02 0.0000000000e+00 2.5134806035e-01 -5.7156393579e-02 0.0000000000e+00 2.4622358623e-01 -5.7164560656e-02 0.0000000000e+00 2.4109907571e-01 -5.7169050186e-02 0.0000000000e+00 2.3597460255e-01 -5.7169855343e-02 0.0000000000e+00 2.3085010370e-01 -5.7166968068e-02 0.0000000000e+00 2.2572559782e-01 -5.7160378926e-02 0.0000000000e+00 2.2060117901e-01 -5.7150077380e-02 0.0000000000e+00 2.1547668986e-01 -5.7136051039e-02 0.0000000000e+00 2.1035218532e-01 -5.7118286508e-02 0.0000000000e+00 2.0522771809e-01 -5.7096769179e-02 0.0000000000e+00 2.0010330503e-01 -5.7071483028e-02 0.0000000000e+00 1.9497890690e-01 -5.7042410356e-02 0.0000000000e+00 1.8985450348e-01 -5.7009532077e-02 0.0000000000e+00 1.8473015445e-01 -5.6972828238e-02 0.0000000000e+00 1.7960584836e-01 -5.6932277051e-02 0.0000000000e+00 1.7448154674e-01 -5.6887855015e-02 0.0000000000e+00 1.6935724336e-01 -5.6839537383e-02 0.0000000000e+00 1.6423299950e-01 -5.6787298642e-02 0.0000000000e+00 1.5910881454e-01 -5.6731111290e-02 0.0000000000e+00 1.5398472721e-01 -5.6670946815e-02 0.0000000000e+00 1.4886063870e-01 -5.6606773550e-02 0.0000000000e+00 1.4373655692e-01 -5.6538559464e-02 0.0000000000e+00 1.3861262126e-01 -5.6466272926e-02 0.0000000000e+00 1.3348865342e-01 -5.6389876340e-02 0.0000000000e+00 1.2836477223e-01 -5.6309334762e-02 0.0000000000e+00 1.2324097603e-01 -5.6224610014e-02 0.0000000000e+00 1.1811724558e-01 -5.6135662002e-02 0.0000000000e+00 1.1299368194e-01 -5.6042451195e-02 0.0000000000e+00 1.0787006851e-01 -5.5944930586e-02 0.0000000000e+00 1.0274655297e-01 -5.5843058179e-02 0.0000000000e+00 9.7623242809e-02 -5.5736789958e-02 0.0000000000e+00 9.2499894644e-02 -5.5626072852e-02 0.0000000000e+00 8.7376702232e-02 -5.5510861246e-02 0.0000000000e+00 8.2253591763e-02 -5.5391102098e-02 0.0000000000e+00 7.7130592483e-02 -5.5266742888e-02 0.0000000000e+00 7.2007772477e-02 -5.5137730413e-02 0.0000000000e+00 6.6884978478e-02 -5.5004004031e-02 0.0000000000e+00 6.1762374400e-02 -5.4865509418e-02 0.0000000000e+00 5.6639899797e-02 -5.4722184619e-02 0.0000000000e+00 5.1517578012e-02 -5.4573968022e-02 0.0000000000e+00 4.6395359247e-02 -5.4420793964e-02 0.0000000000e+00 4.1273265047e-02 -5.4262596875e-02 0.0000000000e+00 3.6151344678e-02 -5.4099310180e-02 0.0000000000e+00 3.1029656272e-02 -5.3930865784e-02 0.0000000000e+00 2.5908107476e-02 -5.3757188601e-02 0.0000000000e+00 2.0786715931e-02 -5.3578204980e-02 0.0000000000e+00 1.5665583667e-02 -5.3393842301e-02 0.0000000000e+00 1.0544631760e-02 -5.3204019413e-02 0.0000000000e+00 5.4238455346e-03 -5.3008655112e-02 0.0000000000e+00 3.0323854710e-04 -5.2807667001e-02 0.0000000000e+00 -4.8170736379e-03 -5.2600974629e-02 0.0000000000e+00 -9.9371296962e-03 -5.2388489241e-02 0.0000000000e+00 -1.5057026989e-02 -5.2170116987e-02 0.0000000000e+00 -2.0176584787e-02 -5.1945773477e-02 0.0000000000e+00 -2.5295897865e-02 -5.1715360119e-02 0.0000000000e+00 -3.0414941641e-02 -5.1478780917e-02 0.0000000000e+00 -3.5533695451e-02 -5.1235937199e-02 0.0000000000e+00 -4.0652120784e-02 -5.0986728615e-02 0.0000000000e+00 -4.5770212954e-02 -5.0731050570e-02 0.0000000000e+00 -5.0888000350e-02 -5.0468793984e-02 0.0000000000e+00 -5.6005440725e-02 -5.0199850525e-02 0.0000000000e+00 -6.1122511737e-02 -4.9924108055e-02 0.0000000000e+00 -6.6239180585e-02 -4.9641452129e-02 0.0000000000e+00 -7.1355503248e-02 -4.9351760294e-02 0.0000000000e+00 -7.6471397397e-02 -4.9054914724e-02 0.0000000000e+00 -8.1586838279e-02 -4.8750791317e-02 0.0000000000e+00 -8.6701851077e-02 -4.8439259672e-02 0.0000000000e+00 -9.1816424892e-02 -4.8120188045e-02 0.0000000000e+00 -9.6930492547e-02 -4.7793444814e-02 0.0000000000e+00 -1.0204404178e-01 -4.7458891444e-02 0.0000000000e+00 -1.0715707215e-01 -4.7116384871e-02 0.0000000000e+00 -1.1226956858e-01 -4.6765779115e-02 0.0000000000e+00 -1.1738150394e-01 -4.6406925081e-02 0.0000000000e+00 -1.2249279621e-01 -4.6039673639e-02 0.0000000000e+00 -1.2760346587e-01 -4.5663864229e-02 0.0000000000e+00 -1.3271353851e-01 -4.5279331259e-02 0.0000000000e+00 -1.3782292438e-01 -4.4885913259e-02 0.0000000000e+00 -1.4293156128e-01 -4.4483442340e-02 0.0000000000e+00 -1.4803948021e-01 -4.4071738429e-02 0.0000000000e+00 -1.5314665394e-01 -4.3650620840e-02 0.0000000000e+00 -1.5825304438e-01 -4.3219904557e-02 0.0000000000e+00 -1.6335853606e-01 -4.2779405918e-02 0.0000000000e+00 -1.6846317945e-01 -4.2328921443e-02 0.0000000000e+00 -1.7356694323e-01 -4.1868248527e-02 0.0000000000e+00 -1.7866975142e-01 -4.1397182525e-02 0.0000000000e+00 -1.8377156506e-01 -4.0915509135e-02 0.0000000000e+00 -1.8887231740e-01 -4.0423010023e-02 0.0000000000e+00 -1.9397201921e-01 -3.9919452293e-02 0.0000000000e+00 -1.9907060315e-01 -3.9404603149e-02 0.0000000000e+00 -2.0416795498e-01 -3.8878227134e-02 0.0000000000e+00 -2.0926410713e-01 -3.8340065606e-02 0.0000000000e+00 -2.1435899276e-01 -3.7789861420e-02 0.0000000000e+00 -2.1945254522e-01 -3.7227348521e-02 0.0000000000e+00 -2.2454463421e-01 -3.6652258723e-02 0.0000000000e+00 -2.2963526591e-01 -3.6064298608e-02 0.0000000000e+00 -2.3472439875e-01 -3.5463169159e-02 0.0000000000e+00 -2.3981193609e-01 -3.4848566607e-02 0.0000000000e+00 -2.4489771085e-01 -3.4220184393e-02 0.0000000000e+00 -2.4998176842e-01 -3.3577677250e-02 0.0000000000e+00 -2.5506399126e-01 -3.2920706413e-02 0.0000000000e+00 -2.6014426393e-01 -3.2248918972e-02 0.0000000000e+00 -2.6522248061e-01 -3.1561945841e-02 0.0000000000e+00 -2.7029858526e-01 -3.0859394906e-02 0.0000000000e+00 -2.7537247023e-01 -3.0140863550e-02 0.0000000000e+00 -2.8044398225e-01 -2.9405937276e-02 0.0000000000e+00 -2.8551303983e-01 -2.8654171425e-02 0.0000000000e+00 -2.9057948552e-01 -2.7885111033e-02 0.0000000000e+00 -2.9564321341e-01 -2.7098270352e-02 0.0000000000e+00 -3.0070406800e-01 -2.6293146236e-02 0.0000000000e+00 -3.0576188583e-01 -2.5469210014e-02 0.0000000000e+00 -3.1081650731e-01 -2.4625903240e-02 0.0000000000e+00 -3.1586776165e-01 -2.3762637513e-02 0.0000000000e+00 -3.2091545343e-01 -2.2878794051e-02 0.0000000000e+00 -3.2595938602e-01 -2.1973716558e-02 0.0000000000e+00 -3.3099932872e-01 -2.1046713543e-02 0.0000000000e+00 -3.3603506379e-01 -2.0097045782e-02 0.0000000000e+00 -3.4106630193e-01 -1.9123937664e-02 0.0000000000e+00 -3.4609279420e-01 -1.8126550881e-02 0.0000000000e+00 -3.5111422796e-01 -1.7103998506e-02 0.0000000000e+00 -3.5613026864e-01 -1.6055330517e-02 0.0000000000e+00 -3.6114055876e-01 -1.4979526225e-02 0.0000000000e+00 -3.6614471400e-01 -1.3875486128e-02 0.0000000000e+00 -3.7114227411e-01 -1.2742032692e-02 0.0000000000e+00 -3.7613277157e-01 -1.1577883387e-02 0.0000000000e+00 -3.8111568954e-01 -1.0381645731e-02 0.0000000000e+00 -3.8609040603e-01 -9.1518147596e-03 0.0000000000e+00 -3.9105627202e-01 -7.8867350466e-03 0.0000000000e+00 -3.9601255828e-01 -6.5845901298e-03 0.0000000000e+00 -4.0095841207e-01 -5.2433865304e-03 0.0000000000e+00 -4.0589288660e-01 -3.8609129621e-03 0.0000000000e+00 -4.1081490142e-01 -2.4347101989e-03 0.0000000000e+00 -4.1572320451e-01 -9.6203219494e-04 0.0000000000e+00 -4.2061636185e-01 5.6021259395e-04 0.0000000000e+00 -4.2549268766e-01 2.1355174736e-03 0.0000000000e+00 -4.3035021769e-01 3.7678670960e-03 0.0000000000e+00 -4.3518659767e-01 5.4618266507e-03 0.0000000000e+00 -4.3999901359e-01 7.2226808961e-03 0.0000000000e+00 -4.4478405085e-01 9.0566000589e-03 0.0000000000e+00 -4.4953751130e-01 1.0970861400e-02 0.0000000000e+00 -4.5425413044e-01 1.2974134101e-02 0.0000000000e+00 -4.5892721924e-01 1.5076883774e-02 0.0000000000e+00 -4.6354810402e-01 1.7291919714e-02 0.0000000000e+00 -4.6810526293e-01 1.9635157524e-02 0.0000000000e+00 -4.7258296803e-01 2.2126706606e-02 0.0000000000e+00 -4.7695906267e-01 2.4792441981e-02 0.0000000000e+00 -4.8120113833e-01 2.7666268843e-02 0.0000000000e+00 -4.8525967047e-01 3.0793297982e-02 0.0000000000e+00 -4.8905511125e-01 3.4233720983e-02 0.0000000000e+00 -4.9245312560e-01 3.8064921006e-02 0.0000000000e+00 -4.9522002994e-01 4.2369646827e-02 0.0000000000e+00 -4.9697272129e-01 4.7169688282e-02 0.0000000000e+00
        </DataArray>
      </Points>
      <Verts>
        <DataArray type="Int64" Name="connectivity" format="ascii">
          0 1 2 3 4 5 6 7 8 9 10 11 12 13 14 15 16 17 18 19 20 21 22 23 24 25 26 27 28 29 30 31 32 33 34 35 36 37 38 39 40 41 42 43 44 45 46 47 48 49 50 51 52 53 54 55 56 57 58 59 60 61 62 63 64 65 66 67 68 69 70 71 72 73 74 75 76 77 78 79 80 81 82 83 84 85 86 87 88 89 90 91 92 93 94 95 96 97 98 99 100 101 102 103 104 105 106 107 108 109 110 111 112 113 114 115 116 117 118 119 120 121 122 123 124 125 126 127 128 129 130 131 132 133 134 135 136 137 138 139 140 141 142 143 144 145 146 147 148 149 150 151 152 153 154 155 156 157 158 159 160 161 162 163 164 165 166 167 168 169 170 171 172 173 174 175 176 177 178 179 180 181 182 183 184 185 186 187 188 189 190 191 192 193 194 195 196 197 198 199 200 201 202 203 204 205 206 207 208 209 210 211 212 213 214 215 216 217 218 219 220 221 222 223 224 225 226 227 228 229 230 231 232 233 234 235 236 237 238 239 240 241 242 243 244 245 246 247 248 249 250 251 252 253 254 255 256 257 258 259 260 261 262 263 264 265 266 267 268 269 270 271 272 273 274 275 276 277 278 279 280 281 282 283 284 285 286 287 288 289 290 291 292 293 294 295 296 297 298 299 300 301 302 303 304 305 306 307 308 309 310 311 312 313 314 315 316 317 318 319 320 321 322 323 324 325 326 327 328 329 330 331 332 333 334 335 336 337 338 339 340 341 342 343 344 345 346 347 348 349 350 351 352 353 354 355 356 357 358 359 360 361 362 363 364 365 366 367 368 369 370 371 372 373 374 375 376 377 378 379 380 381 382 383 384 385 386 387 388 389 390 391 392 393 394 395 396 397
        </DataArray>
        <DataArray type="Int64" Name="offsets" format="ascii">
          1 2 3 4 5 6 7 8 9 10 11 12 13 14 15 16 17 18 19 20 21 22 23 24 25 26 27 28 29 30 31 32 33 34 35 36 37 38 39 40 41 42 43 44 45 46 47 48 49 50 51 52 53 54 55 56 57 58 59 60 61 62 63 64 65 66 67 68 69 70 71 72 73 74 75 76 77 78 79 80 81 82 83 84 85 86 87 88 89 90 91 92 93 94 95 96 97 98 99 100 101 102 103 104 105 106 107 108 109 110 111 112 113 114 115 116 117 118 119 120 121 122 123 124 125 126 127 128 129 130 131 132 133 134 135 136 137 138 139 140 141 142 143 144 145 146 147 148 149 150 151 152 153 154 155 156 157 158 159 160 161 162 163 164 165 166 167 168 169 170 171 172 173 174 175 176 177 178 179 180 181 182 183 184 185 186 187 188 189 190 191 192 193 194 195 196 197 198 199 200 201 202 203 204 205 206 207 208 209 210 211 212 213 214 215 216 217 218 219 220 221 222 223 224 225 226 227 228 229 230 231 232 233 234 235 236 237 238 239 240 241 242 243 244 245 246 247 248 249 250 251 252 253 254 255 256 257 258 259 260 261 262 263 264 265 266 267 268 269 270 271 272 273 274 275 276 277 278 279 280 281 282 283 284 285 286 287 288 289 290 291 292 293 294 295 296 297 298 299 300 301 302 303 304 305 306 307 308 309 310 311 312 313 314 315 316 317 318 319 320 321 322 323 324 325 326 327 328 329 330 331 332 333 334 335 336 337 338 339 340 341 342 343 344 345 346 347 348 349 350 351 352 353 354 355 356 357 358 359 360 361 362 363 364 365 366 367 368 369 370 371 372 373 374 375 376 377 378 379 380 381 382 383 384 385 386 387 388 389 390 391 392 393 394 395 396 397 398
        </DataArray>
      </Verts>
      <PointData>
        <DataArray type="Float64" Name="velocity" NumberOfComponents="3" format="ascii">
          0.0000000000e+00 0.0000000000e+00 0.0000000000e+00 0.0000000000e+00 0.0000000000e+00 0.0000000000e+00 0.0000000000e+00 0.0000000000e+00 0.0000000000e+00 0.0000000000e+00 0.0000000000e+00 0.0000000000e+00 0.0000000000e+00 0.0000000000e+00 0.0000000000e+00 0.0000000000e+00 0.0000000000e+00 0.0000000000e+00 0.0000000000e+00 0.0000000000e+00 0.0000000000e+00 0.0000000000e+00 0.0000000000e+00 0.0000000000e+00 0.0000000000e+00 0.0000000000e+00 0.0000000000e+00 0.0000000000e+00 0.0000000000e+00 0.0000000000e+00 0.0000000000e+00 0.0000000000e+00 0.0000000000e+00 0.0000000000e+00 0.0000000000e+00 0.0000000000e+00 0.0000000000e+00 0.0000000000e+00 0.0000000000e+00 0.0000000000e+00 0.0000000000e+00 0.0000000000e+00 0.0000000000e+00 0.0000000000e+00 0.0000000000e+00 0.0000000000e+00 0.0000000000e+00 0.0000000000e+00 0.0000000000e+00 0.0000000000e+00 0.0000000000e+00 0.0000000000e+00 0.0000000000e+00 0.0000000000e+00 0.0000000000e+00 0.0000000000e+00 0.0000000000e+00 0.0000000000e+00 0.0000000000e+00 0.0000000000e+00 0.0000000000e+00 0.0000000000e+00 0.0000000000e+00 0.0000000000e+00 0.0000000000e+00 0.0000000000e+00 0.0000000000e+00 0.0000000000e+00 0.0000000000e+00 0.0000000000e+00 0.0000000000e+00 0.0000000000e+00 0.0000000000e+00 0.0000000000e+00 0.0000000000e+00 0.0000000000e+00 0.0000000000e+00 0.0000000000e+00 0.0000000000e+00 0.0000000000e+00 0.0000000000e+00 0.0000000000e+00 0.0000000000e+00 0.0000000000e+00 0.0000000000e+00 0.0000000000e+00 0.0000000000e+00 0.0000000000e+00 0.0000000000e+00 0.0000000000e+00 0.0000000000e+00 0.0000000000e+00 0.0000000000e+00 0.0000000000e+00 0.0000000000e+00 0.0000000000e+00 0.0000000000e+00 0.0000000000e+00 0.0000000000e+00 0.0000000000e+00 0.0000000000e+00 0.0000000000e+00 0.0000000000e+00 0.0000000000e+00 0.0000000000e+00 0.0000000000e+00 0.0000000000e+00 0.0000000000e+00 0.0000000000e+00 0.0000000000e+00 0.0000000000e+00 0.0000000000e+00 0.0000000000e+00 0.0000000000e+00 0.0000000000e+00 0.0000000000e+00 0.0000000000e+00 0.0000000000e+00 0.0000000000e+00 0.0000000000e+00 0.0000000000e+00 0.0000000000e+00 0.0000000000e+00 0.0000000000e+00 0.0000000000e+00 0.0000000000e+00 0.0000000000e+00 0.0000000000e+00 0.0000000000e+00 0.0000000000e+00 0.0000000000e+00 0.0000000000e+00 0.0000000000e+00 0.0000000000e+00 0.0000000000e+00 0.0000000000e+00 0.0000000000e+00 0.0000000000e+00 0.0000000000e+00 0.0000000000e+00 0.0000000000e+00 0.0000000000e+00 0.0000000000e+00 0.0000000000e+00 0.0000000000e+00 0.0000000000e+00 0.0000000000e+00 0.0000000000e+00 0.0000000000e+00 0.0000000000e+00 0.0000000000e+00 0.0000000000e+00 0.0000000000e+00 0.0000000000e+00 0.0000000000e+00 0.0000000000e+00 0.0000000000e+00 0.0000000000e+00 0.0000000000e+00 0.0000000000e+00 0.0000000000e+00 0.0000000000e+00 0.0000000000e+00 0.0000000000e+00 0.0000000000e+00 0.0000000000e+00 0.0000000000e+00 0.0000000000e+00 0.0000000000e+00 0.0000000000e+00 0.0000000000e+00 0.0000000000e+00 0.0000000000e+00 0.0000000000e+00 0.0000000000e+00 0.0000000000e+00 0.0000000000e+00 0.0000000000e+00 0.0000000000e+00 0.0000000000e+00 0.0000000000e+00 0.0000000000e+00 0.0000000000e+00 0.0000000000e+00 0.0000000000e+00 0.0000000000e+00 0.0000000000e+00 0.0000000000e+00 0.0000000000e+00 0.0000000000e+00 0.0000000000e+00 0.0000000000e+00 0.0000000000e+00 0.0000000000e+00 0.0000000000e+00 0.0000000000e+00 0.0000000000e+00 0.0000000000e+00 0.0000000000e+00 0.0000000000e+00 0.0000000000e+00 0.0000000000e+00 0.0000000000e+00 0.0000000000e+00 0.0000000000e+00 0.0000000000e+00 0.0000000000e+00 0.0000000000e+00 0.0000000000e+00 0.0000000000e+00 0.0000000000e+00 0.0000000000e+00 0.0000000000e+00 0.0000000000e+00 0.0000000000e+00 0.0000000000e+00 0.0000000000e+00 0.0000000000e+00 0.0000000000e+00 0.0000000000e+00 0.0000000000e+00 0.0000000000e+00 0.0000000000e+00 0.0000000000e+00 0.0000000000e+00 0.0000000000e+00 0.0000000000e+00 0.0000000000e+00 0.0000000000e+00 0.0000000000e+00 0.0000000000e+00 0.0000000000e+00 0.0000000000e+00 0.0000000000e+00 0.0000000000e+00 0.0000000000e+00 0.0000000000e+00 0.0000000000e+00 0.0000000000e+00 0.0000000000e+00 0.0000000000e+00 0.0000000000e+00 0.0000000000e+00 0.0000000000e+00 0.0000000000e+00 0.0000000000e+00 0.0000000000e+00 0.0000000000e+00 0.0000000000e+00 0.0000000000e+00 0.0000000000e+00 0.0000000000e+00 0.0000000000e+00 0.0000000000e+00 0.0000000000e+00 0.0000000000e+00 0.0000000000e+00 0.0000000000e+00 0.0000000000e+00 0.0000000000e+00 0.0000000000e+00 0.0000000000e+00 0.0000000000e+00 0.0000000000e+00 0.0000000000e+00 0.0000000000e+00 0.0000000000e+00 0.0000000000e+00 0.0000000000e+00 0.0000000000e+00 0.0000000000e+00 0.0000000000e+00 0.0000000000e+00 0.0000000000e+00 0.0000000000e+00 0.0000000000e+00 0.0000000000e+00 0.0000000000e+00 0.0000000000e+00 0.0000000000e+00 0.0000000000e+00 0.0000000000e+00 0.0000000000e+00 0.0000000000e+00 0.0000000000e+00 0.0000000000e+00 0.0000000000e+00 0.0000000000e+00 0.0000000000e+00 0.0000000000e+00 0.0000000000e+00 0.0000000000e+00 0.0000000000e+00 0.0000000000e+00 0.0000000000e+00 0.0000000000e+00 0.0000000000e+00 0.0000000000e+00 0.0000000000e+00 0.0000000000e+00 0.0000000000e+00 0.0000000000e+00 0.0000000000e+00 0.0000000000e+00 0.0000000000e+00 0.0000000000e+00 0.0000000000e+00 0.0000000000e+00 0.0000000000e+00 0.0000000000e+00 0.0000000000e+00 0.0000000000e+00 0.0000000000e+00 0.0000000000e+00 0.0000000000e+00 0.0000000000e+00 0.0000000000e+00 0.0000000000e+00 0.0000000000e+00 0.0000000000e+00 0.0000000000e+00 0.0000000000e+00 0.0000000000e+00 0.0000000000e+00 0.0000000000e+00 0.0000000000e+00 0.0000000000e+00 0.0000000000e+00 0.0000000000e+00 0.0000000000e+00 0.0000000000e+00 0.0000000000e+00 0.0000000000e+00 0.0000000000e+00 0.0000000000e+00 0.0000000000e+00 0.0000000000e+00 0.0000000000e+00 0.0000000000e+00 0.0000000000e+00 0.0000000000e+00 0.0000000000e+00 0.0000000000e+00 0.0000000000e+00 0.0000000000e+00 0.0000000000e+00 0.0000000000e+00 0.0000000000e+00 0.0000000000e+00 0.0000000000e+00 0.0000000000e+00 0.0000000000e+00 0.0000000000e+00 0.0000000000e+00 0.0000000000e+00 0.0000000000e+00 0.0000000000e+00 0.0000000000e+00 0.0000000000e+00 0.0000000000e+00 0.0000000000e+00 0.0000000000e+00 0.0000000000e+00 0.0000000000e+00 0.0000000000e+00 0.0000000000e+00 0.0000000000e+00 0.0000000000e+00 0.0000000000e+00 0.0000000000e+00 0.0000000000e+00 0.0000000000e+00 0.0000000000e+00 0.0000000000e+00 0.0000000000e+00 0.0000000000e+00 0.0000000000e+00 0.0000000000e+00 0.0000000000e+00 0.0000000000e+00 0.0000000000e+00 0.0000000000e+00 0.0000000000e+00 0.0000000000e+00 0.0000000000e+00 0.0000000000e+00 0.0000000000e+00 0.0000000000e+00 0.0000000000e+00 0.0000000000e+00 0.0000000000e+00 0.0000000000e+00 0.0000000000e+00 0.0000000000e+00 0.0000000000e+00 0.0000000000e+00 0.0000000000e+00 0.0000000000e+00 0.0000000000e+00 0.0000000000e+00 0.0000000000e+00 0.0000000000e+00 0.0000000000e+00 0.0000000000e+00 0.0000000000e+00 0.0000000000e+00 0.0000000000e+00 0.0000000000e+00 0.0000000000e+00 0.0000000000e+00 0.0000000000e+00 0.0000000000e+00 0.0000000000e+00 0.0000000000e+00 0.0000000000e+00 0.0000000000e+00 0.0000000000e+00 0.0000000000e+00 0.0000000000e+00 0.0000000000e+00 0.0000000000e+00 0.0000000000e+00 0.0000000000e+00 0.0000000000e+00 0.0000000000e+00 0.0000000000e+00 0.0000000000e+00 0.0000000000e+00 0.0000000000e+00 0.0000000000e+00 0.0000000000e+00 0.0000000000e+00 0.0000000000e+00 0.0000000000e+00 0.0000000000e+00 0.0000000000e+00 0.0000000000e+00 0.0000000000e+00 0.0000000000e+00 0.0000000000e+00 0.0000000000e+00 0.0000000000e+00 0.0000000000e+00 0.0000000000e+00 0.0000000000e+00 0.0000000000e+00 0.0000000000e+00 0.0000000000e+00 0.0000000000e+00 0.0000000000e+00 0.0000000000e+00 0.0000000000e+00 0.0000000000e+00 0.0000000000e+00 0.0000000000e+00 0.0000000000e+00 0.0000000000e+00 0.0000000000e+00 0.0000000000e+00 0.0000000000e+00 0.0000000000e+00 0.0000000000e+00 0.0000000000e+00 0.0000000000e+00 0.0000000000e+00 0.0000000000e+00 0.0000000000e+00 0.0000000000e+00 0.0000000000e+00 0.0000000000e+00 0.0000000000e+00 0.0000000000e+00 0.0000000000e+00 0.0000000000e+00 0.0000000000e+00 0.0000000000e+00 0.0000000000e+00 0.0000000000e+00 0.0000000000e+00 0.0000000000e+00 0.0000000000e+00 0.0000000000e+00 0.0000000000e+00 0.0000000000e+00 0.0000000000e+00 0.0000000000e+00 0.0000000000e+00 0.0000000000e+00 0.0000000000e+00 0.0000000000e+00 0.0000000000e+00 0.0000000000e+00 0.0000000000e+00 0.0000000000e+00 0.0000000000e+00 0.0000000000e+00 0.0000000000e+00 0.0000000000e+00 0.0000000000e+00 0.0000000000e+00 0.0000000000e+00 0.0000000000e+00 0.0000000000e+00 0.0000000000e+00 0.0000000000e+00 0.0000000000e+00 0.0000000000e+00 0.0000000000e+00 0.0000000000e+00 0.0000000000e+00 0.0000000000e+00 0.0000000000e+00 0.0000000000e+00 0.0000000000e+00 0.0000000000e+00 0.0000000000e+00 0.0000000000e+00 0.0000000000e+00 0.0000000000e+00 0.0000000000e+00 0.0000000000e+00 0.0000000000e+00 0.0000000000e+00 0.0000000000e+00 0.0000000000e+00 0.0000000000e+00 0.0000000000e+00 0.0000000000e+00 0.0000000000e+00 0.0000000000e+00 0.0000000000e+00 0.0000000000e+00 0.0000000000e+00 0.0000000000e+00 0.0000000000e+00 0.0000000000e+00 0.0000000000e+00 0.0000000000e+00 0.0000000000e+00 0.0000000000e+00 0.0000000000e+00 0.0000000000e+00 0.0000000000e+00 0.0000000000e+00 0.0000000000e+00 0.0000000000e+00 0.0000000000e+00 0.0000000000e+00 0.0000000000e+00 0.0000000000e+00 0.0000000000e+00 0.0000000000e+00 0.0000000000e+00 0.0000000000e+00 0.0000000000e+00 0.0000000000e+00 0.0000000000e+00 0.0000000000e+00 0.0000000000e+00 0.0000000000e+00 0.0000000000e+00 0.0000000000e+00 0.0000000000e+00 0.0000000000e+00 0.0000000000e+00 0.0000000000e+00 0.0000000000e+00 0.0000000000e+00 0.0000000000e+00 0.0000000000e+00 0.0000000000e+00 0.0000000000e+00 0.0000000000e+00 0.0000000000e+00 0.0000000000e+00 0.0000000000e+00 0.0000000000e+00 0.0000000000e+00 0.0000000000e+00 0.0000000000e+00 0.0000000000e+00 0.0000000000e+00 0.0000000000e+00 0.0000000000e+00 0.0000000000e+00 0.0000000000e+00 0.0000000000e+00 0.0000000000e+00 0.0000000000e+00 0.0000000000e+00 0.0000000000e+00 0.0000000000e+00 0.0000000000e+00 0.0000000000e+00 0.0000000000e+00 0.0000000000e+00 0.0000000000e+00 0.0000000000e+00 0.0000000000e+00 0.0000000000e+00 0.0000000000e+00 0.0000000000e+00 0.0000000000e+00 0.0000000000e+00 0.0000000000e+00 0.0000000000e+00 0.0000000000e+00 0.0000000000e+00 0.0000000000e+00 0.0000000000e+00 0.0000000000e+00 0.0000000000e+00 0.0000000000e+00 0.0000000000e+00 0.0000000000e+00 0.0000000000e+00 0.0000000000e+00 0.0000000000e+00 0.0000000000e+00 0.0000000000e+00 0.0000000000e+00 0.0000000000e+00 0.0000000000e+00 0.0000000000e+00 0.0000000000e+00 0.0000000000e+00 0.0000000000e+00 0.0000000000e+00 0.0000000000e+00 0.0000000000e+00 0.0000000000e+00 0.0000000000e+00 0.0000000000e+00 0.0000000000e+00 0.0000000000e+00 0.0000000000e+00 0.0000000000e+00 0.0000000000e+00 0.0000000000e+00 0.0000000000e+00 0.0000000000e+00 0.0000000000e+00 0.0000000000e+00 0.0000000000e+00 0.0000000000e+00 0.0000000000e+00 0.0000000000e+00 0.0000000000e+00 0.0000000000e+00 0.0000000000e+00 0.0000000000e+00 0.0000000000e+00 0.0000000000e+00 0.0000000000e+00 0.0000000000e+00 0.0000000000e+00 0.0000000000e+00 0.0000000000e+00 0.0000000000e+00 0.0000000000e+00 0.0000000000e+00 0.0000000000e+00 0.0000000000e+00 0.0000000000e+00 0.0000000000e+00 0.0000000000e+00 0.0000000000e+00 0.0000000000e+00 0.0000000000e+00 0.0000000000e+00 0.0000000000e+00 0.0000000000e+00 0.0000000000e+00 0.0000000000e+00 0.0000000000e+00 0.0000000000e+00 0.0000000000e+00 0.0000000000e+00 0.0000000000e+00 0.0000000000e+00 0.0000000000e+00 0.0000000000e+00 0.0000000000e+00 0.0000000000e+00 0.0000000000e+00 0.0000000000e+00 0.0000000000e+00 0.0000000000e+00 0.0000000000e+00 0.0000000000e+00 0.0000000000e+00 0.0000000000e+00 0.0000000000e+00 0.0000000000e+00 0.0000000000e+00 0.0000000000e+00 0.0000000000e+00 0.0000000000e+00 0.0000000000e+00 0.0000000000e+00 0.0000000000e+00 0.0000000000e+00 0.0000000000e+00 0.0000000000e+00 0.0000000000e+00 0.0000000000e+00 0.0000000000e+00 0.0000000000e+00 0.0000000000e+00 0.0000000000e+00 0.0000000000e+00 0.0000000000e+00 0.0000000000e+00 0.0000000000e+00 0.0000000000e+00 0.0000000000e+00 0.0000000000e+00 0.0000000000e+00 0.0000000000e+00 0.0000000000e+00 0.0000000000e+00 0.0000000000e+00 0.0000000000e+00 0.0000000000e+00 0.0000000000e+00 0.0000000000e+00 0.0000000000e+00 0.0000000000e+00 0.0000000000e+00 0.0000000000e+00 0.0000000000e+00 0.0000000000e+00 0.0000000000e+00 0.0000000000e+00 0.0000000000e+00 0.0000000000e+00 0.0000000000e+00 0.0000000000e+00 0.0000000000e+00 0.0000000000e+00 0.0000000000e+00 0.0000000000e+00 0.0000000000e+00 0.0000000000e+00 0.0000000000e+00 0.0000000000e+00 0.0000000000e+00 0.0000000000e+00 0.0000000000e+00 0.0000000000e+00 0.0000000000e+00 0.0000000000e+00 0.0000000000e+00 0.0000000000e+00 0.0000000000e+00 0.0000000000e+00 0.0000000000e+00 0.0000000000e+00 0.0000000000e+00 0.0000000000e+00 0.0000000000e+00 0.0000000000e+00 0.0000000000e+00 0.0000000000e+00 0.0000000000e+00 0.0000000000e+00 0.0000000000e+00 0.0000000000e+00 0.0000000000e+00 0.0000000000e+00 0.0000000000e+00 0.0000000000e+00 0.0000000000e+00 0.0000000000e+00 0.0000000000e+00 0.0000000000e+00 0.0000000000e+00 0.0000000000e+00 0.0000000000e+00 0.0000000000e+00 0.0000000000e+00 0.0000000000e+00 0.0000000000e+00 0.0000000000e+00 0.0000000000e+00 0.0000000000e+00 0.0000000000e+00 0.0000000000e+00 0.0000000000e+00 0.0000000000e+00 0.0000000000e+00 0.0000000000e+00 0.0000000000e+00 0.0000000000e+00 0.0000000000e+00 0.0000000000e+00 0.0000000000e+00 0.0000000000e+00 0.0000000000e+00 0.0000000000e+00 0.0000000000e+00 0.0000000000e+00 0.0000000000e+00 0.0000000000e+00 0.0000000000e+00 0.0000000000e+00 0.0000000000e+00 0.0000000000e+00 0.0000000000e+00 0.0000000000e+00 0.0000000000e+00 0.0000000000e+00 0.0000000000e+00 0.0000000000e+00 0.0000000000e+00 0.0000000000e+00 0.0000000000e+00 0.0000000000e+00 0.0000000000e+00 0.0000000000e+00 0.0000000000e+00 0.0000000000e+00 0.0000000000e+00 0.0000000000e+00 0.0000000000e+00 0.0000000000e+00 0.0000000000e+00 0.0000000000e+00 0.0000000000e+00 0.0000000000e+00 0.0000000000e+00 0.0000000000e+00 0.0000000000e+00 0.0000000000e+00 0.0000000000e+00 0.0000000000e+00 0.0000000000e+00 0.0000000000e+00 0.0000000000e+00 0.0000000000e+00 0.0000000000e+00 0.0000000000e+00 0.0000000000e+00 0.0000000000e+00 0.0000000000e+00 0.0000000000e+00 0.0000000000e+00 0.0000000000e+00 0.0000000000e+00 0.0000000000e+00 0.0000000000e+00 0.0000000000e+00 0.0000000000e+00 0.0000000000e+00 0.0000000000e+00 0.0000000000e+00 0.0000000000e+00 0.0000000000e+00 0.0000000000e+00 0.0000000000e+00 0.0000000000e+00 0.0000000000e+00 0.0000000000e+00 0.0000000000e+00 0.0000000000e+00 0.0000000000e+00 0.0000000000e+00 0.0000000000e+00 0.0000000000e+00 0.0000000000e+00 0.0000000000e+00 0.0000000000e+00 0.0000000000e+00 0.0000000000e+00 0.0000000000e+00 0.0000000000e+00 0.0000000000e+00 0.0000000000e+00 0.0000000000e+00 0.0000000000e+00 0.0000000000e+00 0.0000000000e+00 0.0000000000e+00 0.0000000000e+00 0.0000000000e+00 0.0000000000e+00 0.0000000000e+00 0.0000000000e+00 0.0000000000e+00 0.0000000000e+00 0.0000000000e+00 0.0000000000e+00 0.0000000000e+00 0.0000000000e+00 0.0000000000e+00 0.0000000000e+00 0.0000000000e+00 0.0000000000e+00 0.0000000000e+00 0.0000000000e+00 0.0000000000e+00 0.0000000000e+00 0.0000000000e+00 0.0000000000e+00 0.0000000000e+00 0.0000000000e+00 0.0000000000e+00 0.0000000000e+00 0.0000000000e+00 0.0000000000e+00 0.0000000000e+00 0.0000000000e+00 0.0000000000e+00 0.0000000000e+00 0.0000000000e+00 0.0000000000e+00 0.0000000000e+00 0.0000000000e+00 0.0000000000e+00 0.0000000000e+00 0.0000000000e+00 0.0000000000e+00 0.0000000000e+00 0.0000000000e+00 0.0000000000e+00 0.0000000000e+00 0.0000000000e+00 0.0000000000e+00 0.0000000000e+00 0.0000000000e+00 0.0000000000e+00 0.0000000000e+00 0.0000000000e+00 0.0000000000e+00 0.0000000000e+00 0.0000000000e+00 0.0000000000e+00 0.0000000000e+00 0.0000000000e+00 0.0000000000e+00 0.0000000000e+00 0.0000000000e+00 0.0000000000e+00 0.0000000000e+00 0.0000000000e+00 0.0000000000e+00 0.0000000000e+00 0.0000000000e+00 0.0000000000e+00 0.0000000000e+00 0.0000000000e+00 0.0000000000e+00 0.0000000000e+00 0.0000000000e+00 0.0000000000e+00 0.0000000000e+00 0.0000000000e+00 0.0000000000e+00 0.0000000000e+00 0.0000000000e+00 0.0000000000e+00 0.0000000000e+00 0.0000000000e+00 0.0000000000e+00 0.0000000000e+00 0.0000000000e+00 0.0000000000e+00 0.0000000000e+00 0.0000000000e+00 0.0000000000e+00 0.0000000000e+00 0.0000000000e+00 0.0000000000e+00 0.0000000000e+00 0.0000000000e+00 0.0000000000e+00 0.0000000000e+00 0.0000000000e+00 0.0000000000e+00 0.0000000000e+00 0.0000000000e+00 0.0000000000e+00 0.0000000000e+00 0.0000000000e+00 0.0000000000e+00 0.0000000000e+00 0.0000000000e+00 0.0000000000e+00 0.0000000000e+00 0.0000000000e+00 0.0000000000e+00 0.0000000000e+00 0.0000000000e+00 0.0000000000e+00 0.0000000000e+00 0.0000000000e+00 0.0000000000e+00 0.0000000000e+00 0.0000000000e+00 0.0000000000e+00 0.0000000000e+00 0.0000000000e+00 0.0000000000e+00 0.0000000000e+00 0.0000000000e+00 0.0000000000e+00 0.0000000000e+00 0.0000000000e+00 0.0000000000e+00 0.0000000000e+00 0.0000000000e+00 0.0000000000e+00 0.0000000000e+00 0.0000000000e+00 0.0000000000e+00 0.0000000000e+00 0.0000000000e+00 0.0000000000e+00 0.0000000000e+00 0.0000000000e+00 0.0000000000e+00 0.0000000000e+00 0.0000000000e+00 0.0000000000e+00 0.0000000000e+00 0.0000000000e+00 0.0000000000e+00 0.0000000000e+00 0.0000000000e+00 0.0000000000e+00 0.0000000000e+00 0.0000000000e+00 0.0000000000e+00 0.0000000000e+00 0.0000000000e+00 0.0000000000e+00 0.0000000000e+00 0.0000000000e+00 0.0000000000e+00 0.0000000000e+00 0.0000000000e+00 0.0000000000e+00 0.0000000000e+00 0.0000000000e+00 0.0000000000e+00 0.0000000000e+00 0.0000000000e+00 0.0000000000e+00 0.0000000000e+00 0.0000000000e+00 0.0000000000e+00 0.0000000000e+00 0.0000000000e+00 0.0000000000e+00 0.0000000000e+00 0.0000000000e+00 0.0000000000e+00 0.0000000000e+00 0.0000000000e+00 0.0000000000e+00 0.0000000000e+00 0.0000000000e+00 0.0000000000e+00 0.0000000000e+00 0.0000000000e+00 0.0000000000e+00 0.0000000000e+00 0.0000000000e+00 0.0000000000e+00 0.0000000000e+00 0.0000000000e+00 0.0000000000e+00 0.0000000000e+00 0.0000000000e+00 0.0000000000e+00 0.0000000000e+00 0.0000000000e+00 0.0000000000e+00 0.0000000000e+00 0.0000000000e+00 0.0000000000e+00 0.0000000000e+00 0.0000000000e+00 0.0000000000e+00 0.0000000000e+00 0.0000000000e+00 0.0000000000e+00 0.0000000000e+00 0.0000000000e+00 0.0000000000e+00 0.0000000000e+00 0.0000000000e+00 0.0000000000e+00 0.0000000000e+00 0.0000000000e+00 0.0000000000e+00 0.0000000000e+00 0.0000000000e+00 0.0000000000e+00 0.0000000000e+00 0.0000000000e+00 0.0000000000e+00 0.0000000000e+00 0.0000000000e+00 0.0000000000e+00 0.0000000000e+00 0.0000000000e+00 0.0000000000e+00 0.0000000000e+00 0.0000000000e+00 0.0000000000e+00 0.0000000000e+00 0.0000000000e+00 0.0000000000e+00 0.0000000000e+00 0.0000000000e+00 0.0000000000e+00 0.0000000000e+00 0.0000000000e+00 0.0000000000e+00 0.0000000000e+00 0.0000000000e+00 0.0000000000e+00 0.0000000000e+00 0.0000000000e+00 0.0000000000e+00 0.0000000000e+00 0.0000000000e+00 0.0000000000e+00 0.0000000000e+00 0.0000000000e+00 0.0000000000e+00 0.0000000000e+00 0.0000000000e+00 0.0000000000e+00 0.0000000000e+00 0.0000000000e+00 0.0000000000e+00 0.0000000000e+00 0.0000000000e+00 0.0000000000e+00 0.0000000000e+00 0.0000000000e+00 0.0000000000e+00 0.0000000000e+00 0.0000000000e+00 0.0000000000e+00 0.0000000000e+00 0.0000000000e+00 0.0000000000e+00 0.0000000000e+00 0.0000000000e+00 0.0000000000e+00 0.0000000000e+00 0.0000000000e+00 0.0000000000e+00 0.0000000000e+00 0.0000000000e+00 0.0000000000e+00 0.0000000000e+00 0.0000000000e+00 0.0000000000e+00 0.0000000000e+00 0.0000000000e+00 0.0000000000e+00 0.0000000000e+00 0.0000000000e+00 0.0000000000e+00 0.0000000000e+00 0.0000000000e+00 0.0000000000e+00 0.0000000000e+00 0.0000000000e+00 0.0000000000e+00 0.0000000000e+00 0.0000000000e+00 0.0000000000e+00 0.0000000000e+00 0.0000000000e+00 0.0000000000e+00 0.0000000000e+00 0.0000000000e+00 0.0000000000e+00 0.0000000000e+00 0.0000000000e+00 0.0000000000e+00 0.0000000000e+00 0.0000000000e+00 0.0000000000e+00 0.0000000000e+00 0.0000000000e+00 0.0000000000e+00 0.0000000000e+00 0.0000000000e+00
        </DataArray>
        <DataArray type="Float64" Name="force" NumberOfComponents="3" format="ascii">
          -1.0852885960e-02 -1.0839693527e-03 0.0000000000e+00 -8.6026829219e-03 2.1504755720e-03 0.0000000000e+00 -1.2301373132e-02 -6.6906086004e-04 0.0000000000e+00 9.8620156605e-04 1.1776722009e-02 0.0000000000e+00 -1.3365664548e-02 -1.5100061414e-03 0.0000000000e+00 1.7601139987e-03 1.0623082091e-02 0.0000000000e+00 -8.4002284674e-03 3.0569224311e-03 0.0000000000e+00 -3.8808141315e-05 7.8126891777e-03 0.0000000000e+00 -4.8458776766e-03 5.5198198780e-03 0.0000000000e+00 -1.7991206396e-03 6.6362015168e-03 0.0000000000e+00 -2.5853288189e-03 6.4179305667e-03 0.0000000000e+00 -1.6902792178e-03 6.6892484400e-03 0.0000000000e+00 -2.3020148022e-03 6.5269002207e-03 0.0000000000e+00 -1.7286624379e-03 6.6513961444e-03 0.0000000000e+00 -1.6069171283e-03 6.7142419422e-03 0.0000000000e+00 -1.3893753358e-03 6.8412052556e-03 0.0000000000e+00 -1.2452071103e-03 6.8953898814e-03 0.0000000000e+00 -1.2583646093e-03 6.9024664522e-03 0.0000000000e+00 -1.0921840377e-03 6.9241206837e-03 0.0000000000e+00 -1.0548254011e-03 6.9337260629e-03 0.0000000000e+00 -1.0340807286e-03 6.9539962346e-03 0.0000000000e+00 -8.9544256187e-04 7.0004703673e-03 0.0000000000e+00 -7.4809339220e-04 7.0549739415e-03 0.0000000000e+00 -6.8045338447e-04 7.1042693403e-03 0.0000000000e+00 -6.1433063755e-04 7.1417306165e-03 0.0000000000e+00 -5.5399094699e-04 7.1741268810e-03 0.0000000000e+00 -4.9411159847e-04 7.2023942624e-03 0.0000000000e+00 -4.3731052452e-04 7.2275874852e-03 0.0000000000e+00 -3.8231088637e-04 7.2521918796e-03 0.0000000000e+00 -3.2993278929e-04 7.2728478929e-03 0.0000000000e+00 -2.7928509464e-04 7.2954854508e-03 0.0000000000e+00 -2.3076455339e-04 7.3104253612e-03 0.0000000000e+00 -1.8401062886e-04 7.3463224464e-03 0.0000000000e+00 -1.3922180383e-04 7.3559203021e-03 0.0000000000e+00 -9.5618129470e-05 7.3772222249e-03 0.0000000000e+00 -5.4097208676e-05 7.4017963629e-03 0.0000000000e+00 -1.3809357345e-05 7.4208587965e-03 0.0000000000e+00 2.4802709696e-05 7.4412953327e-03 0.0000000000e+00 6.2433782778e-05 7.4589085997e-03 0.0000000000e+00 9.8855714603e-05 7.4766701529e-03 0.0000000000e+00 1.3465952581e-04 7.4928352505e-03 0.0000000000e+00 1.6987064338e-04 7.5086785452e-03 0.0000000000e+00 2.0520500547e-04 7.5232544452e-03 0.0000000000e+00 2.4155909368e-04 7.5373400977e-03 0.0000000000e+00 2.8458764600e-04 7.5486672768e-03 0.0000000000e+00 3.5885940287e-04 7.5603884597e-03 0.0000000000e+00 4.2239854941e-04 7.5763651201e-03 0.0000000000e+00 3.7196115570e-04 7.6033612242e-03 0.0000000000e+00 4.0558365477e-04 7.6293618689e-03 0.0000000000e+00 4.1220219773e-04 7.6526367855e-03 0.0000000000e+00 4.5228040776e-04 7.6716174834e-03 0.0000000000e+00 4.6211067439e-04 7.6891551660e-03 0.0000000000e+00 5.0682666820e-04 7.7040146038e-03 0.0000000000e+00 5.3437666728e-04 7.7150504673e-03 0.0000000000e+00 5.3568046729e-04 7.7227977463e-03 0.0000000000e+00 5.7381782626e-04 7.7270447351e-03 0.0000000000e+00 5.9253363873e-04 7.7289685675e-03 0.0000000000e+00 6.6074124926e-04 7.7234673732e-03 0.0000000000e+00 7.8436372574e-04 7.7223105256e-03 0.0000000000e+00 7.2310210317e-04 7.7517719423e-03 0.0000000000e+00 6.7762382140e-04 7.7882335859e-03 0.0000000000e+00 7.0782620789e-04 7.8160940021e-03 0.0000000000e+00 7.1222686742e-04 7.8377074047e-03 0.0000000000e+00 7.9502351135e-04 7.8460768452e-03 0.0000000000e+00 7.3926595282e-04 7.8525740664e-03 0.0000000000e+00 8.0003176271e-04 7.8452090353e-03 0.0000000000e+00 8.0826831898e-04 7.8316210990e-03 0.0000000000e+00 1.0129812555e-03 7.8144007464e-03 0.0000000000e+00 9.2651476145e-04 7.8451391465e-03 0.0000000000e+00 8.5907245490e-04 7.8843902470e-03 0.0000000000e+00 8.5245154841e-04 7.9241890220e-03 0.0000000000e+00 9.4310959236e-04 7.9351680085e-03 0.0000000000e+00 9.1787638433e-04 7.9457180232e-03 0.0000000000e+00 9.0954759225e-04 7.9322617991e-03 0.0000000000e+00 9.9881311497e-04 7.9058856052e-03 0.0000000000e+00 1.1567505715e-03 7.8870422851e-03 0.0000000000e+00 1.0652581177e-03 7.9244953575e-03 0.0000000000e+00 9.6227296486e-04 7.9694559218e-03 0.0000000000e+00 1.0209033604e-03 8.0106075725e-03 0.0000000000e+00 1.0764130967e-03 8.0065812079e-03 0.0000000000e+00 1.0064652165e-03 8.0127869742e-03 0.0000000000e+00 1.0929843672e-03 7.9673526841e-03 0.0000000000e+00 1.2601827669e-03 7.9554950991e-03 0.0000000000e+00 1.2237097527e-03 7.9676586079e-03 0.0000000000e+00 1.0336940634e-03 8.0416236836e-03 0.0000000000e+00 1.1505589444e-03 8.0672114843e-03 0.0000000000e+00 1.1589859661e-03 8.0800247359e-03 0.0000000000e+00 1.0925990608e-03 8.0562398129e-03 0.0000000000e+00 1.2855036467e-03 8.0153288306e-03 0.0000000000e+00 1.3855537885e-03 8.0055493310e-03 0.0000000000e+00 1.1823800105e-03 8.0531400613e-03 0.0000000000e+00 1.1653399685e-03 8.1226274913e-03 0.0000000000e+00 1.2775437897e-03 8.1229672052e-03 0.0000000000e+00 1.1686169361e-03 8.1262151786e-03 0.0000000000e+00 1.3085591582e-03 8.0684912927e-03 0.0000000000e+00 1.4535112334e-03 8.0481675321e-03 0.0000000000e+00 1.3445488065e-03 8.0831856304e-03 0.0000000000e+00 1.1935225978e-03 8.1628857436e-03 0.0000000000e+00 1.3628782299e-03 8.1709568907e-03 0.0000000000e+00 1.2337733572e-03 8.1680139253e-03 0.0000000000e+00 1.3884344396e-03 8.1124230572e-03 0.0000000000e+00 1.5417169820e-03 8.0830416261e-03 0.0000000000e+00 1.3686029919e-03 8.1330025577e-03 0.0000000000e+00 1.2896961706e-03 8.2082549603e-03 0.0000000000e+00 1.4170401364e-03 8.2148570177e-03 0.0000000000e+00 1.2911254863e-03 8.1937099629e-03 0.0000000000e+00 1.5043225233e-03 8.1402220917e-03 0.0000000000e+00 1.6436747123e-03 8.1195953585e-03 0.0000000000e+00 1.2902856511e-03 8.2020058403e-03 0.0000000000e+00 1.4572645659e-03 8.2488945308e-03 0.0000000000e+00 1.4037120500e-03 8.2522803033e-03 0.0000000000e+00 1.4204963379e-03 8.2025766929e-03 0.0000000000e+00 1.6298742412e-03 8.1526488021e-03 0.0000000000e+00 1.6114541810e-03 8.1801943595e-03 0.0000000000e+00 1.3261570311e-03 8.2751529898e-03 0.0000000000e+00 1.5685967753e-03 8.2801533793e-03 0.0000000000e+00 1.3713206170e-03 8.2618149713e-03 0.0000000000e+00 1.6453052364e-03 8.1954372935e-03 0.0000000000e+00 1.7543794995e-03 8.1819103472e-03 0.0000000000e+00 1.3473641514e-03 8.2804121147e-03 0.0000000000e+00 1.6147415737e-03 8.3082690216e-03 0.0000000000e+00 1.4347645397e-03 8.3039214273e-03 0.0000000000e+00 1.6311459732e-03 8.2359315041e-03 0.0000000000e+00 1.8182364008e-03 8.1959348376e-03 0.0000000000e+00 1.4436030954e-03 8.2860774064e-03 0.0000000000e+00 1.6142106813e-03 8.3343062889e-03 0.0000000000e+00 1.5192280698e-03 8.3331200217e-03 0.0000000000e+00 1.6180942585e-03 8.2699768571e-03 0.0000000000e+00 1.8723856215e-03 8.2141291484e-03 0.0000000000e+00 1.5216450057e-03 8.2996468535e-03 0.0000000000e+00 1.6302402298e-03 8.3570850257e-03 0.0000000000e+00 1.5765573593e-03 8.3568238014e-03 0.0000000000e+00 1.6395334394e-03 8.2940715588e-03 0.0000000000e+00 1.9317664967e-03 8.2320796456e-03 0.0000000000e+00 1.5420742713e-03 8.3239117584e-03 0.0000000000e+00 1.6912343100e-03 8.3759820499e-03 0.0000000000e+00 1.5846516185e-03 8.3789388328e-03 0.0000000000e+00 1.7218583239e-03 8.3049426502e-03 0.0000000000e+00 1.9716093480e-03 8.2527709222e-03 0.0000000000e+00 1.5283909286e-03 8.3561521066e-03 0.0000000000e+00 1.7798193737e-03 8.3925057771e-03 0.0000000000e+00 1.5609178157e-03 8.3972102067e-03 0.0000000000e+00 1.8539672146e-03 8.3030688561e-03 0.0000000000e+00 1.9666434574e-03 8.2816977177e-03 0.0000000000e+00 1.5312044917e-03 8.3922500621e-03 0.0000000000e+00 1.8643066893e-03 8.4072636049e-03 0.0000000000e+00 1.5262264311e-03 8.4070342045e-03 0.0000000000e+00 2.0376308492e-03 8.2898845413e-03 0.0000000000e+00 1.8521062611e-03 8.3284374654e-03 0.0000000000e+00 1.6599272690e-03 8.4173599315e-03 0.0000000000e+00 1.8135277915e-03 8.4321816415e-03 0.0000000000e+00 1.6513760588e-03 8.3878032854e-03 0.0000000000e+00 2.1336439576e-03 8.2883085070e-03 0.0000000000e+00 1.7063113104e-03 8.3833504495e-03 0.0000000000e+00 1.8416479550e-03 8.4351542030e-03 0.0000000000e+00 1.6671711925e-03 8.4498228849e-03 0.0000000000e+00 1.9654747209e-03 8.3440443371e-03 0.0000000000e+00 2.0516647656e-03 8.3243733610e-03 0.0000000000e+00 1.6579335029e-03 8.4342553542e-03 0.0000000000e+00 1.9428662113e-03 8.4513849653e-03 0.0000000000e+00 1.6339637804e-03 8.4344817609e-03 0.0000000000e+00 2.2229731626e-03 8.3079728224e-03 0.0000000000e+00 1.8051297759e-03 8.3953598026e-03 0.0000000000e+00 1.8941515115e-03 8.4525670337e-03 0.0000000000e+00 1.7226189991e-03 8.4753616510e-03 0.0000000000e+00 2.0489232335e-03 8.3609530121e-03 0.0000000000e+00 2.0908420967e-03 8.3459907777e-03 0.0000000000e+00 1.7566370608e-03 8.4523207670e-03 0.0000000000e+00 1.9579637116e-03 8.4749385226e-03 0.0000000000e+00 1.7623410933e-03 8.4360356635e-03 0.0000000000e+00 2.2923179635e-03 8.3195115615e-03 0.0000000000e+00 1.8032114203e-03 8.4292299035e-03 0.0000000000e+00 2.0119276073e-03 8.4694597864e-03 0.0000000000e+00 1.7223965274e-03 8.4830765084e-03 0.0000000000e+00 2.2684027634e-03 8.3401678751e-03 0.0000000000e+00 1.9862063233e-03 8.3920791344e-03 0.0000000000e+00 1.9580003755e-03 8.4662370745e-03 0.0000000000e+00 1.8216385009e-03 8.4964311038e-03 0.0000000000e+00 2.1559735858e-03 8.3757682695e-03 0.0000000000e+00 2.1599677417e-03 8.3567747473e-03 0.0000000000e+00 1.9196933491e-03 8.4566007247e-03 0.0000000000e+00 1.9459752899e-03 8.4906428450e-03 0.0000000000e+00 2.0329986640e-03 8.4072486929e-03 0.0000000000e+00 2.3004358961e-03 8.3234933539e-03 0.0000000000e+00 1.9297160716e-03 8.4314332012e-03 0.0000000000e+00 2.0301402010e-03 8.4727066175e-03 0.0000000000e+00 1.9685526688e-03 8.4181019717e-03 0.0000000000e+00 2.3655038552e-03 8.2851492288e-03 0.0000000000e+00 2.0462190768e-03 8.3650154045e-03 0.0000000000e+00 1.9750848660e-03 8.4451343094e-03 0.0000000000e+00 2.0319403802e-03 8.3980577203e-03 0.0000000000e+00 2.3757151297e-03 8.2137553350e-03 0.0000000000e+00 2.2616851884e-03 8.1667631708e-03 0.0000000000e+00 1.7278731136e-03 8.4576168721e-03 0.0000000000e+00 2.3123764607e-03 8.1823899504e-03 0.0000000000e+00 1.1056826229e-03 9.1768427683e-03 0.0000000000e+00 3.2796521779e-03 9.6772124282e-03 0.0000000000e+00 4.7956386945e-06 1.3752857091e-02 0.0000000000e+00 8.5150850151e-03 1.0134967833e-02 0.0000000000e+00 -2.7118648982e-04 1.3975343737e-04 0.0000000000e+00 -1.6197021422e-03 -1.0870850520e-02 0.0000000000e+00 3.7910240226e-04 -1.3881422956e-02 0.0000000000e+00 -5.0363708521e-04 -9.6914948663e-03 0.0000000000e+00 -8.1218233269e-04 -9.4715822875e-03 0.0000000000e+00 2.3041306927e-04 -8.3550420763e-03 0.0000000000e+00 4.3345217848e-05 -8.6925036268e-03 0.0000000000e+00 2.2321022506e-04 -8.3574222715e-03 0.0000000000e+00 3.2836879505e-04 -8.6021218414e-03 0.0000000000e+00 1.7988072549e-04 -8.6589215588e-03 0.0000000000e+00 9.1698416071e-05 -8.6508612784e-03 0.0000000000e+00 1.5523934256e-04 -8.6069773640e-03 0.0000000000e+00 2.4339810099e-04 -8.6491349108e-03 0.0000000000e+00 1.5933640952e-04 -8.6929851315e-03 0.0000000000e+00 1.1121667482e-04 -8.6875421595e-03 0.0000000000e+00 1.2621679171e-04 -8.6730261098e-03 0.0000000000e+00 1.6392962217e-04 -8.6860429635e-03 0.0000000000e+00 1.3548417929e-04 -8.6935482996e-03 0.0000000000e+00 1.0599655635e-04 -8.7058085101e-03 0.0000000000e+00 1.0307552072e-04 -8.7061813541e-03 0.0000000000e+00 1.1396935313e-04 -8.6930606123e-03 0.0000000000e+00 1.0277889208e-04 -8.7152456674e-03 0.0000000000e+00 8.8317135091e-05 -8.7120614684e-03 0.0000000000e+00 7.9937745226e-05 -8.7189682430e-03 0.0000000000e+00 7.8828950346e-05 -8.7174089519e-03 0.0000000000e+00 7.2561378770e-05 -8.7229988875e-03 0.0000000000e+00 6.3395316702e-05 -8.7236856234e-03 0.0000000000e+00 5.5303746716e-05 -8.7252081855e-03 0.0000000000e+00 5.0187363115e-05 -8.7256691587e-03 0.0000000000e+00 4.4645657864e-05 -8.7268244246e-03 0.0000000000e+00 3.7615517015e-05 -8.7278785875e-03 0.0000000000e+00 3.0432659754e-05 -8.7286360754e-03 0.0000000000e+00 2.4173465237e-05 -8.7289683346e-03 0.0000000000e+00 1.8230307417e-05 -8.7295569617e-03 0.0000000000e+00 1.1765574545e-05 -8.7300774801e-03 0.0000000000e+00 4.9713214890e-06 -8.7304880560e-03 0.0000000000e+00 -1.6719710046e-06 -8.7309343270e-03 0.0000000000e+00 -8.0779341185e-06 -8.7310260281e-03 0.0000000000e+00 -1.4562348657e-05 -8.7312292460e-03 0.0000000000e+00 -2.1231717883e-05 -8.7315221420e-03 0.0000000000e+00 -2.7841579864e-05 -8.7315912137e-03 0.0000000000e+00 -3.4432326601e-05 -8.7316230152e-03 0.0000000000e+00 -4.1005454661e-05 -8.7315715714e-03 0.0000000000e+00 -4.7691308162e-05 -8.7316564918e-03 0.0000000000e+00 -5.4452409555e-05 -8.7316739808e-03 0.0000000000e+00 -6.1258646561e-05 -8.7315340879e-03 0.0000000000e+00 -6.8064126124e-05 -8.7314349269e-03 0.0000000000e+00 -7.4934627386e-05 -8.7313205723e-03 0.0000000000e+00 -8.1831241526e-05 -8.7311262794e-03 0.0000000000e+00 -8.8822981837e-05 -8.7306578209e-03 0.0000000000e+00 -9.5772715473e-05 -8.7305004534e-03 0.0000000000e+00 -1.0286273507e-04 -8.7296068256e-03 0.0000000000e+00 -1.0982599588e-04 -8.7296528207e-03 0.0000000000e+00 -1.1706126204e-04 -8.7277863397e-03 0.0000000000e+00 -1.2398244662e-04 -8.7282382889e-03 0.0000000000e+00 -1.3139890707e-04 -8.7245424419e-03 0.0000000000e+00 -1.3821754348e-04 -8.7260996266e-03 0.0000000000e+00 -1.4589730686e-04 -8.7173907058e-03 0.0000000000e+00 -1.5265701415e-04 -8.7201252617e-03 0.0000000000e+00 -1.5998210009e-04 -8.7311448021e-03 0.0000000000e+00 -1.6728031774e-04 -8.7131497250e-03 0.0000000000e+00 -1.7471473132e-04 -8.7245875967e-03 0.0000000000e+00 -1.8176098693e-04 -8.7224520420e-03 0.0000000000e+00 -1.8927265592e-04 -8.7276508546e-03 0.0000000000e+00 -1.9646251895e-04 -8.7268318253e-03 0.0000000000e+00 -2.0399782576e-04 -8.7292113603e-03 0.0000000000e+00 -2.1134687920e-04 -8.7292082909e-03 0.0000000000e+00 -2.1892621325e-04 -8.7303956323e-03 0.0000000000e+00 -2.2643229066e-04 -8.7310767930e-03 0.0000000000e+00 -2.3408454891e-04 -8.7317658577e-03 0.0000000000e+00 -2.4171557349e-04 -8.7324407572e-03 0.0000000000e+00 -2.4946585513e-04 -8.7332653445e-03 0.0000000000e+00 -2.5720566123e-04 -8.7338916920e-03 0.0000000000e+00 -2.6504395070e-04 -8.7346983180e-03 0.0000000000e+00 -2.7286550704e-04 -8.7353107572e-03 0.0000000000e+00 -2.8077912425e-04 -8.7361503566e-03 0.0000000000e+00 -2.8862695613e-04 -8.7371548549e-03 0.0000000000e+00 -2.9657976899e-04 -8.7377625724e-03 0.0000000000e+00 -3.0426477883e-04 -8.7386571698e-03 0.0000000000e+00 -3.1302051746e-04 -8.7395968448e-03 0.0000000000e+00 -3.2023516764e-04 -8.7403762712e-03 0.0000000000e+00 -3.2879562942e-04 -8.7413020430e-03 0.0000000000e+00 -3.3648060840e-04 -8.7420788141e-03 0.0000000000e+00 -3.4545752830e-04 -8.7430552943e-03 0.0000000000e+00 -3.5285446535e-04 -8.7440150594e-03 0.0000000000e+00 -3.6241304868e-04 -8.7442945776e-03 0.0000000000e+00 -3.7083680620e-04 -8.7444303549e-03 0.0000000000e+00 -3.8015960600e-04 -8.7444612455e-03 0.0000000000e+00 -3.8918181601e-04 -8.7442997149e-03 0.0000000000e+00 -3.9850858512e-04 -8.7438984136e-03 0.0000000000e+00 -4.0770186808e-04 -8.7427799761e-03 0.0000000000e+00 -4.1699763127e-04 -8.7417317073e-03 0.0000000000e+00 -4.2624866373e-04 -8.7392572445e-03 0.0000000000e+00 -4.3548368970e-04 -8.7374585354e-03 0.0000000000e+00 -4.4510432701e-04 -8.7315714243e-03 0.0000000000e+00 -4.5458514309e-04 -8.7290515356e-03 0.0000000000e+00 -4.6791327826e-04 -8.7168167692e-03 0.0000000000e+00 -4.8285001261e-04 -8.7132191966e-03 0.0000000000e+00 -5.4105162054e-04 -8.6912378322e-03 0.0000000000e+00 -5.5131492220e-04 -8.7027753570e-03 0.0000000000e+00 -5.2718190764e-04 -8.7079671017e-03 0.0000000000e+00 -5.3589854423e-04 -8.7008445668e-03 0.0000000000e+00 -5.4419605041e-04 -8.7206687704e-03 0.0000000000e+00 -5.5617565819e-04 -8.7212765987e-03 0.0000000000e+00 -5.6725014176e-04 -8.7325851140e-03 0.0000000000e+00 -5.7835204603e-04 -8.7349774291e-03 0.0000000000e+00 -5.8898597300e-04 -8.7422266841e-03 0.0000000000e+00 -5.9906729635e-04 -8.7455559461e-03 0.0000000000e+00 -6.1128465975e-04 -8.7514107121e-03 0.0000000000e+00 -6.1975338508e-04 -8.7542879634e-03 0.0000000000e+00 -6.3435761672e-04 -8.7550697006e-03 0.0000000000e+00 -6.4410587434e-04 -8.7544821765e-03 0.0000000000e+00 -6.5689163605e-04 -8.7522302569e-03 0.0000000000e+00 -6.6771482071e-04 -8.7473740849e-03 0.0000000000e+00 -6.7980237245e-04 -8.7391069843e-03 0.0000000000e+00 -6.9773207744e-04 -8.7248679046e-03 0.0000000000e+00 -7.5506170064e-04 -8.7071656024e-03 0.0000000000e+00 -8.3623125389e-04 -8.6961675539e-03 0.0000000000e+00 -7.7510925253e-04 -8.7060794523e-03 0.0000000000e+00 -7.7924358807e-04 -8.7225318927e-03 0.0000000000e+00 -7.7933844629e-04 -8.7372762576e-03 0.0000000000e+00 -8.0861409259e-04 -8.7485322965e-03 0.0000000000e+00 -8.0542035615e-04 -8.7591917459e-03 0.0000000000e+00 -8.4121267949e-04 -8.7680763775e-03 0.0000000000e+00 -8.3021138146e-04 -8.7753340953e-03 0.0000000000e+00 -8.7288295263e-04 -8.7720844495e-03 0.0000000000e+00 -8.5106384494e-04 -8.7681803783e-03 0.0000000000e+00 -9.0820474285e-04 -8.7547121481e-03 0.0000000000e+00 -8.6918278462e-04 -8.7341836134e-03 0.0000000000e+00 -1.0532305512e-03 -8.7026608356e-03 0.0000000000e+00 -1.0586971128e-03 -8.6985249922e-03 0.0000000000e+00 -9.9683421309e-04 -8.7189954699e-03 0.0000000000e+00 -1.0000977682e-03 -8.7479092765e-03 0.0000000000e+00 -1.0125705613e-03 -8.7683011974e-03 0.0000000000e+00 -1.0463983176e-03 -8.7844275616e-03 0.0000000000e+00 -1.0490091317e-03 -8.7975777811e-03 0.0000000000e+00 -1.0721164916e-03 -8.7906763540e-03 0.0000000000e+00 -1.0881558316e-03 -8.7783590867e-03 0.0000000000e+00 -1.0763992689e-03 -8.7470149228e-03 0.0000000000e+00 -1.2979330469e-03 -8.7047665879e-03 0.0000000000e+00 -1.3045234373e-03 -8.7072968234e-03 0.0000000000e+00 -1.2028805746e-03 -8.7357121450e-03 0.0000000000e+00 -1.2133993417e-03 -8.7831973492e-03 0.0000000000e+00 -1.2638512258e-03 -8.8003735790e-03 0.0000000000e+00 -1.2544083714e-03 -8.8243338600e-03 0.0000000000e+00 -1.3000539744e-03 -8.8002066604e-03 0.0000000000e+00 -1.2626629687e-03 -8.7804553956e-03 0.0000000000e+00 -1.4947400215e-03 -8.7188670267e-03 0.0000000000e+00 -1.5831575914e-03 -8.7134884171e-03 0.0000000000e+00 -1.3997568448e-03 -8.7563993593e-03 0.0000000000e+00 -1.4631889738e-03 -8.8187175620e-03 0.0000000000e+00 -1.4542029857e-03 -8.8450351867e-03 0.0000000000e+00 -1.5090216365e-03 -8.8520064593e-03 0.0000000000e+00 -1.4883881402e-03 -8.7912186127e-03 0.0000000000e+00 -1.7355487183e-03 -8.7469124875e-03 0.0000000000e+00 -1.8457440797e-03 -8.7336688379e-03 0.0000000000e+00 -1.5987525734e-03 -8.8091490166e-03 0.0000000000e+00 -1.7085661996e-03 -8.8709077723e-03 0.0000000000e+00 -1.6857607282e-03 -8.8946852026e-03 0.0000000000e+00 -1.7357090882e-03 -8.8215675184e-03 0.0000000000e+00 -1.9862680814e-03 -8.7680540140e-03 0.0000000000e+00 -2.0924791904e-03 -8.7656958215e-03 0.0000000000e+00 -1.8755666849e-03 -8.8482788311e-03 0.0000000000e+00 -1.8774986959e-03 -8.9462132575e-03 0.0000000000e+00 -1.9652126809e-03 -8.8742982613e-03 0.0000000000e+00 -2.1968383093e-03 -8.8053477222e-03 0.0000000000e+00 -2.3714037222e-03 -8.7876430002e-03 0.0000000000e+00 -2.1987055765e-03 -8.8623836790e-03 0.0000000000e+00 -2.0294030911e-03 -9.0155201673e-03 0.0000000000e+00 -2.3799618197e-03 -8.8459109606e-03 0.0000000000e+00 -2.4545475605e-03 -8.8534344144e-03 0.0000000000e+00 -2.8214032758e-03 -8.7854973223e-03 0.0000000000e+00 -2.1570917226e-03 -9.0579627549e-03 0.0000000000e+00 -2.6452745145e-03 -8.9052531075e-03 0.0000000000e+00 -2.7227255821e-03 -8.8760525507e-03 0.0000000000e+00 -3.2601330310e-03 -8.8227632428e-03 0.0000000000e+00 -2.3061419482e-03 -9.0670352662e-03 0.0000000000e+00 -3.1028644988e-03 -8.9872127362e-03 0.0000000000e+00 -3.3960989821e-03 -8.7054618107e-03 0.0000000000e+00 -3.1013208910e-03 -9.2083416780e-03 0.0000000000e+00 -3.1377809115e-03 -8.7086777067e-03 0.0000000000e+00 -3.3082830631e-03 -9.3762164615e-03 0.0000000000e+00 -4.5993627775e-03 -8.1882157327e-03 0.0000000000e+00 -2.1008071369e-03 -9.9996702216e-03 0.0000000000e+00 -5.6616228375e-03 -7.7715833404e-03 0.0000000000e+00 -3.1460851138e-03 -9.7613135056e-03 0.0000000000e+00 -4.3700323953e-03 -8.4360119147e-03 0.0000000000e+00 -5.6212394138e-03 -8.9214402361e-03 0.0000000000e+00 -3.0244325579e-03 -9.2025727884e-03 0.0000000000e+00 -7.3533209572e-03 -8.2822844497e-03 0.0000000000e+00 -3.1791423843e-03 -9.5775550194e-03 0.0000000000e+00 -8.3059447801e-03 -7.7248437501e-03 0.0000000000e+00 -3.5290263114e-03 -1.0242337861e-02 0.0000000000e+00 -1.0265083213e-02 -6.0937274509e-03 0.0000000000e+00 -4.7830691076e-03 -1.0340070881e-02 0.0000000000e+00 -1.0580018800e-02 -4.7026960951e-03 0.0000000000e+00 -8.0149216209e-03 -9.0567739146e-03 0.0000000000e+00 -1.1695085294e-02 -2.7495686958e-03 0.0000000000e+00 -1.0218515757e-02 -3.5213461971e-03 0.0000000000e+00
        </DataArray>
      </PointData>
    </Piece>
  </PolyData>
</VTKFile>
