<?xml version="1.0"?>
<VTKFile type="PolyData" version="0.1" byte_order="LittleEndian">
  <PolyData>
    <FieldData>
      <DataArray type="Float64" Name="TimeValue" NumberOfTuples="1" format="ascii">
        5.999999999998803e+01
      </DataArray>
    </FieldData>
    <Piece NumberOfPoints="398" NumberOfVerts="398" NumberOfLines="0" NumberOfStrips="0" NumberOfPolys="0">
      <Points>
        <DataArray type="Float64" NumberOfComponents="3" format="ascii">
          -4.9726094768e-01 5.2264231634e-02 0.0000000000e+00 -4.9591980461e-01 5.7187521354e-02 0.0000000000e+00 -4.9320742903e-01 6.1518265364e-02 0.0000000000e+00 -4.8960598536e-01 6.5153650837e-02 0.0000000000e+00 -4.8548567450e-01 6.8194643038e-02 0.0000000000e+00 -4.8105786906e-01 7.0770768034e-02 0.0000000000e+00 -4.7643787966e-01 7.2985647804e-02 0.0000000000e+00 -4.7169100133e-01 7.4914697529e-02 0.0000000000e+00 -4.6685629730e-01 7.6612338955e-02 0.0000000000e+00 -4.6195841863e-01 7.8118474475e-02 0.0000000000e+00 -4.5701365804e-01 7.9463020303e-02 0.0000000000e+00 -4.5203321881e-01 8.0668916425e-02 0.0000000000e+00 -4.4702506197e-01 8.1754126178e-02 0.0000000000e+00 -4.4199500846e-01 8.2732982305e-02 0.0000000000e+00 -4.3694742522e-01 8.3617112443e-02 0.0000000000e+00 -4.3188565927e-01 8.4416090884e-02 0.0000000000e+00 -4.2681230400e-01 8.5137908709e-02 0.0000000000e+00 -4.2172941653e-01 8.5789311244e-02 0.0000000000e+00 -4.1663865062e-01 8.6376052829e-02 0.0000000000e+00 -4.1154135992e-01 8.6903088373e-02 0.0000000000e+00 -4.0643863732e-01 8.7374723845e-02 0.0000000000e+00 -4.0133140546e-01 8.7794726707e-02 0.0000000000e+00 -3.9622042424e-01 8.8166419095e-02 0.0000000000e+00 -3.9110634740e-01 8.8492747356e-02 0.0000000000e+00 -3.8598972048e-01 8.8776341615e-02 0.0000000000e+00 -3.8087100981e-01 8.9019561684e-02 0.0000000000e+00 -3.7575063504e-01 8.9224534775e-02 0.0000000000e+00 -3.7062893181e-01 8.9393189274e-02 0.0000000000e+00 -3.6550619075e-01 8.9527279365e-02 0.0000000000e+00 -3.6038270739e-01 8.9628406450e-02 0.0000000000e+00 -3.5525869773e-01 8.9698040036e-02 0.0000000000e+00 -3.5013435246e-01 8.9737531833e-02 0.0000000000e+00 -3.4500987690e-01 8.9748129328e-02 0.0000000000e+00 -3.3988541842e-01 8.9730987908e-02 0.0000000000e+00 -3.3476111444e-01 8.9687180276e-02 0.0000000000e+00 -3.2963709471e-01 8.9617705257e-02 0.0000000000e+00 -3.2451348064e-01 8.9523495400e-02 0.0000000000e+00 -3.1939034143e-01 8.9405422449e-02 0.0000000000e+00 -3.1426779881e-01 8.9264305217e-02 0.0000000000e+00 -3.0914591206e-01 8.9100912041e-02 0.0000000000e+00 -3.0402476307e-01 8.8915967270e-02 0.0000000000e+00 -2.9890440772e-01 8.8710153739e-02 0.0000000000e+00 -2.9378490850e-01 8.8484117338e-02 0.0000000000e+00 -2.8866631015e-01 8.8238469120e-02 0.0000000000e+00 -2.8354865267e-01 8.7973788508e-02 0.0000000000e+00 -2.7843198600e-01 8.7690626604e-02 0.0000000000e+00 -2.7331635766e-01 8.7389507892e-02 0.0000000000e+00 -2.6820177024e-01 8.7070929522e-02 0.0000000000e+00 -2.6308828316e-01 8.6735369256e-02 0.0000000000e+00 -2.5797588368e-01 8.6383278975e-02 0.0000000000e+00 -2.5286463554e-01 8.6015095985e-02 0.0000000000e+00 -2.4775456034e-01 8.5631236490e-02 0.0000000000e+00 -2.4264563136e-01 8.5232095683e-02 0.0000000000e+00 -2.3753787536e-01 8.4818056587e-02 0.0000000000e+00 -2.3243133189e-01 8.4389488400e-02 0.0000000000e+00 -2.2732604551e-01 8.3946746927e-02 0.0000000000e+00 -2.2222190001e-01 8.3490160448e-02 0.0000000000e+00 -2.1711899509e-01 8.3020063562e-02 0.0000000000e+00 -2.1201736213e-01 8.2536773495e-02 0.0000000000e+00 -2.0691697960e-01 8.2040591368e-02 0.0000000000e+00 -2.0181778048e-01 8.1531802906e-02 0.0000000000e+00 -1.9671983644e-01 8.1010697525e-02 0.0000000000e+00 -1.9162315737e-01 8.0477549322e-02 0.0000000000e+00 -1.8652775518e-01 7.9932623721e-02 0.0000000000e+00 -1.8143354438e-01 7.9376166968e-02 0.0000000000e+00 -1.7634058775e-01 7.8808433128e-02 0.0000000000e+00 -1.7124890276e-01 7.8229663908e-02 0.0000000000e+00 -1.6615843046e-01 7.7640084880e-02 0.0000000000e+00 -1.6106919074e-01 7.7039923480e-02 0.0000000000e+00 -1.5598117717e-01 7.6429397432e-02 0.0000000000e+00 -1.5089442149e-01 7.5808722703e-02 0.0000000000e+00 -1.4580891223e-01 7.5178103979e-02 0.0000000000e+00 -1.4072455773e-01 7.4537729809e-02 0.0000000000e+00 -1.3564143273e-01 7.3887803843e-02 0.0000000000e+00 -1.3055953602e-01 7.3228514974e-02 0.0000000000e+00 -1.2547885669e-01 7.2560045603e-02 0.0000000000e+00 -1.2039932696e-01 7.1882565420e-02 0.0000000000e+00 -1.1532097276e-01 7.1196251579e-02 0.0000000000e+00 -1.1024384833e-01 7.0501280681e-02 0.0000000000e+00 -1.0516789419e-01 6.9797809381e-02 0.0000000000e+00 -1.0009305693e-01 6.9085990467e-02 0.0000000000e+00 -9.5019385779e-02 6.8365986871e-02 0.0000000000e+00 -8.9946876275e-02 6.7637950065e-02 0.0000000000e+00 -8.4875512802e-02 6.6902025973e-02 0.0000000000e+00 -7.9805266057e-02 6.6158354627e-02 0.0000000000e+00 -7.4736119229e-02 6.5407074084e-02 0.0000000000e+00 -6.9668110663e-02 6.4648327056e-02 0.0000000000e+00 -6.4601223625e-02 6.3882244673e-02 0.0000000000e+00 -5.9535406374e-02 6.3108949253e-02 0.0000000000e+00 -5.4470657317e-02 6.2328567330e-02 0.0000000000e+00 -4.9407032488e-02 6.1541231275e-02 0.0000000000e+00 -4.4344451672e-02 6.0747049224e-02 0.0000000000e+00 -3.9282923158e-02 5.9946139943e-02 0.0000000000e+00 -3.4222445485e-02 5.9138617762e-02 0.0000000000e+00 -2.9163037454e-02 5.8324597432e-02 0.0000000000e+00 -2.4104648617e-02 5.7504179745e-02 0.0000000000e+00 -1.9047261811e-02 5.6677467985e-02 0.0000000000e+00 -1.3990893842e-02 5.5844568318e-02 0.0000000000e+00 -8.9355444057e-03 5.5005581552e-02 0.0000000000e+00 -3.8812175905e-03 5.4160606701e-02 0.0000000000e+00 1.1721998069e-03 5.3309720494e-02 0.0000000000e+00 6.2245485523e-03 5.2453043054e-02 0.0000000000e+00 1.1275943392e-02 5.1590645938e-02 0.0000000000e+00 1.6326440609e-02 5.0722607920e-02 0.0000000000e+00 2.1375943892e-02 4.9849031720e-02 0.0000000000e+00 2.6424457110e-02 4.8970000753e-02 0.0000000000e+00 3.1472011504e-02 4.8085591397e-02 0.0000000000e+00 3.6518701143e-02 4.7195866621e-02 0.0000000000e+00 4.1564441327e-02 4.6300918671e-02 0.0000000000e+00 4.6609230112e-02 4.5400823257e-02 0.0000000000e+00 5.1653173445e-02 4.4495634621e-02 0.0000000000e+00 5.6696228622e-02 4.3585431459e-02 0.0000000000e+00 6.1738361294e-02 4.2670289132e-02 0.0000000000e+00 6.6779564021e-02 4.1750276257e-02 0.0000000000e+00 7.1819899165e-02 4.0825446710e-02 0.0000000000e+00 7.6859356703e-02 3.9895865608e-02 0.0000000000e+00 8.1898008641e-02 3.8961580986e-02 0.0000000000e+00 8.6935705941e-02 3.8022680059e-02 0.0000000000e+00 9.1972611128e-02 3.7079190280e-02 0.0000000000e+00 9.7008668669e-02 3.6131177844e-02 0.0000000000e+00 1.0204386087e-01 3.5178700202e-02 0.0000000000e+00 1.0707827097e-01 3.4221793894e-02 0.0000000000e+00 1.1211171891e-01 3.3260543822e-02 0.0000000000e+00 1.1714445382e-01 3.2294951292e-02 0.0000000000e+00 1.2217637967e-01 3.1325081711e-02 0.0000000000e+00 1.2720736077e-01 3.0351006860e-02 0.0000000000e+00 1.3223761875e-01 2.9372727682e-02 0.0000000000e+00 1.3726706297e-01 2.8390303861e-02 0.0000000000e+00 1.4229572061e-01 2.7403770609e-02 0.0000000000e+00 1.4732360119e-01 2.6413164931e-02 0.0000000000e+00 1.5235059578e-01 2.5418545708e-02 0.0000000000e+00 1.5737688659e-01 2.4419912645e-02 0.0000000000e+00 1.6240234385e-01 2.3417325663e-02 0.0000000000e+00 1.6742696646e-01 2.2410817741e-02 0.0000000000e+00 1.7245085770e-01 2.1400399305e-02 0.0000000000e+00 1.7747398558e-01 2.0386106299e-02 0.0000000000e+00 1.8249635644e-01 1.9367965495e-02 0.0000000000e+00 1.8751791564e-01 1.8346014588e-02 0.0000000000e+00 1.9253867441e-01 1.7320276492e-02 0.0000000000e+00 1.9755867528e-01 1.6290766192e-02 0.0000000000e+00 2.0257793396e-01 1.5257502622e-02 0.0000000000e+00 2.0759639625e-01 1.4220517707e-02 0.0000000000e+00 2.1261408588e-01 1.3179825911e-02 0.0000000000e+00 2.1763104490e-01 1.2135436390e-02 0.0000000000e+00 2.2264726018e-01 1.1087368318e-02 0.0000000000e+00 2.2766268318e-01 1.0035646948e-02 0.0000000000e+00 2.3267726296e-01 8.9802968007e-03 0.0000000000e+00 2.3769115605e-01 7.9212972708e-03 0.0000000000e+00 2.4270427261e-01 6.8586782309e-03 0.0000000000e+00 2.4771659633e-01 5.7924527911e-03 0.0000000000e+00 2.5272819058e-01 4.7226157199e-03 0.0000000000e+00 2.5773898461e-01 3.6491890353e-03 0.0000000000e+00 2.6274907064e-01 2.5721585331e-03 0.0000000000e+00 2.6775833653e-01 1.4915525741e-03 0.0000000000e+00 2.7276680970e-01 4.0736826173e-04 0.0000000000e+00 2.7777451790e-01 -6.8039875983e-04 0.0000000000e+00 2.8278146879e-01 -1.7717498540e-03 0.0000000000e+00 2.8778759011e-01 -2.8666701914e-03 0.0000000000e+00 2.9279294031e-01 -3.9651747581e-03 0.0000000000e+00 2.9779755351e-01 -5.0672746270e-03 0.0000000000e+00 3.0280135913e-01 -6.1729590882e-03 0.0000000000e+00 3.0780438244e-01 -7.2822397704e-03 0.0000000000e+00 3.1280650594e-01 -8.3950978319e-03 0.0000000000e+00 3.1780794456e-01 -9.5115896717e-03 0.0000000000e+00 3.2280852738e-01 -1.0631687020e-02 0.0000000000e+00 3.2780825022e-01 -1.1755399878e-02 0.0000000000e+00 3.3280721108e-01 -1.2882762556e-02 0.0000000000e+00 3.3780534714e-01 -1.4013774448e-02 0.0000000000e+00 3.4280265335e-01 -1.5148449133e-02 0.0000000000e+00 3.4779915549e-01 -1.6286808434e-02 0.0000000000e+00 3.5279469994e-01 -1.7428834392e-02 0.0000000000e+00 3.5778950179e-01 -1.8574594513e-02 0.0000000000e+00 3.6278342043e-01 -1.9724076172e-02 0.0000000000e+00 3.6777640315e-01 -2.0877287849e-02 0.0000000000e+00 3.7276860129e-01 -2.2034286424e-02 0.0000000000e+00 3.7775992822e-01 -2.3195075031e-02 0.0000000000e+00 3.8275032602e-01 -2.4359664423e-02 0.0000000000e+00 3.8773987974e-01 -2.5528099898e-02 0.0000000000e+00 3.9272844614e-01 -2.6700374472e-02 0.0000000000e+00 3.9771614086e-01 -2.7876543029e-02 0.0000000000e+00 4.0270291178e-01 -2.9056622242e-02 0.0000000000e+00 4.0768869791e-01 -3.0240627667e-02 0.0000000000e+00 4.1267361642e-01 -3.1428618368e-02 0.0000000000e+00 4.1765755604e-01 -3.2620600225e-02 0.0000000000e+00 4.2264052151e-01 -3.3816607805e-02 0.0000000000e+00 4.2762255447e-01 -3.5016685743e-02 0.0000000000e+00 4.3260353408e-01 -3.6220840625e-02 0.0000000000e+00 4.3758354093e-01 -3.7429128723e-02 0.0000000000e+00 4.4256256770e-01 -3.8641586290e-02 0.0000000000e+00 4.4754046411e-01 -3.9858215695e-02 0.0000000000e+00 4.5251740906e-01 -4.1079100795e-02 0.0000000000e+00 4.5749335137e-01 -4.2304270474e-02 0.0000000000e+00 4.6246815394e-01 -4.3533733300e-02 0.0000000000e+00 4.6744192511e-01 -4.4767559442e-02 0.0000000000e+00 4.7241451575e-01 -4.6005756378e-02 0.0000000000e+00 4.7738608692e-01 -4.7248409814e-02 0.0000000000e+00 4.8235650207e-01 -4.8495532369e-02 0.0000000000e+00 4.8732575854e-01 -4.9747171040e-02 0.0000000000e+00 4.9229400251e-01 -5.1003411632e-02 0.0000000000e+00 4.9726094768e-01 -5.2264231634e-02 0.0000000000e+00 4.9214040296e-01 -5.2464813724e-02 0.0000000000e+00 4.8701953993e-01 -5.2660646441e-02 0.0000000000e+00 4.8189864333e-01 -5.2851767290e-02 0.0000000000e+00 4.7677755232e-01 -5.3038229807e-02 0.0000000000e+00 4.7165625973e-01 -5.3220080515e-02 0.0000000000e+00 4.6653489650e-01 -5.3397360149e-02 0.0000000000e+00 4.6141328729e-01 -5.3570119057e-02 0.0000000000e+00 4.5629157639e-01 -5.3738395555e-02 0.0000000000e+00 4.5116964327e-01 -5.3902235761e-02 0.0000000000e+00 4.4604762022e-01 -5.4061676551e-02 0.0000000000e+00 4.4092555131e-01 -5.4216756824e-02 0.0000000000e+00 4.3580324412e-01 -5.4367521411e-02 0.0000000000e+00 4.3068084515e-01 -5.4514003871e-02 0.0000000000e+00 4.2555835402e-01 -5.4656241187e-02 0.0000000000e+00 4.2043568020e-01 -5.4794271646e-02 0.0000000000e+00 4.1531294051e-01 -5.4928126814e-02 0.0000000000e+00 4.1019008497e-01 -5.5057841695e-02 0.0000000000e+00 4.0506710173e-01 -5.5183449112e-02 0.0000000000e+00 3.9994409843e-01 -5.5304977955e-02 0.0000000000e+00 3.9482094815e-01 -5.5422461631e-02 0.0000000000e+00 3.8969770733e-01 -5.5535928040e-02 0.0000000000e+00 3.8457442349e-01 -5.5645404327e-02 0.0000000000e+00 3.7945097209e-01 -5.5750920133e-02 0.0000000000e+00 3.7432749471e-01 -5.5852498408e-02 0.0000000000e+00 3.6920389872e-01 -5.5950165778e-02 0.0000000000e+00 3.6408023857e-01 -5.6043944803e-02 0.0000000000e+00 3.5895659830e-01 -5.6133856558e-02 0.0000000000e+00 3.5383281810e-01 -5.6219925217e-02 0.0000000000e+00 3.4870894773e-01 -5.6302170032e-02 0.0000000000e+00 3.4358512736e-01 -5.6380607890e-02 0.0000000000e+00 3.3846113257e-01 -5.6455260100e-02 0.0000000000e+00 3.3333711736e-01 -5.6526141037e-02 0.0000000000e+00 3.2821305197e-01 -5.6593266688e-02 0.0000000000e+00 3.2308893851e-01 -5.6656651381e-02 0.0000000000e+00 3.1796483857e-01 -5.6716307587e-02 0.0000000000e+00 3.1284064916e-01 -5.6772248492e-02 0.0000000000e+00 3.0771637227e-01 -5.6824484747e-02 0.0000000000e+00 3.0259218097e-01 -5.6873024235e-02 0.0000000000e+00 2.9746785329e-01 -5.6917877437e-02 0.0000000000e+00 2.9234350810e-01 -5.6959050352e-02 0.0000000000e+00 2.8721911827e-01 -5.6996549104e-02 0.0000000000e+00 2.8209475503e-01 -5.7030377886e-02 0.0000000000e+00 2.7697038274e-01 -5.7060540439e-02 0.0000000000e+00 2.7184594108e-01 -5.7087039267e-02 0.0000000000e+00 2.6672150384e-01 -5.7109874891e-02 0.0000000000e+00 2.6159706323e-01 -5.7129047050e-02 0.0000000000e+00 2.5647259122e-01 -5.7144554236e-02 0.0000000000e+00 2.5134806035e-01 -5.7156393579e-02 0.0000000000e+00 2.4622358623e-01 -5.7164560656e-02 0.0000000000e+00 2.4109907571e-01 -5.7169050186e-02 0.0000000000e+00 2.3597460255e-01 -5.7169855343e-02 0.0000000000e+00 2.3085010370e-01 -5.7166968068e-02 0.0000000000e+00 2.2572559782e-01 -5.7160378926e-02 0.0000000000e+00 2.2060117901e-01 -5.7150077380e-02 0.0000000000e+00 2.1547668986e-01 -5.7136051039e-02 0.0000000000e+00 2.1035218532e-01 -5.7118286508e-02 0.0000000000e+00 2.0522771809e-01 -5.7096769179e-02 0.0000000000e+00 2.0010330503e-01 -5.7071483028e-02 0.0000000000e+00 1.9497890690e-01 -5.7042410356e-02 0.0000000000e+00 1.8985450348e-01 -5.7009532077e-02 0.0000000000e+00 1.8473015445e-01 -5.6972828238e-02 0.0000000000e+00 1.7960584836e-01 -5.6932277051e-02 0.0000000000e+00 1.7448154674e-01 -5.6887855015e-02 0.0000000000e+00 1.6935724336e-01 -5.6839537383e-02 0.0000000000e+00 1.6423299950e-01 -5.6787298642e-02 0.0000000000e+00 1.5910881454e-01 -5.6731111290e-02 0.0000000000e+00 1.5398472721e-01 -5.6670946815e-02 0.0000000000e+00 1.4886063870e-01 -5.6606773550e-02 0.0000000000e+00 1.4373655692e-01 -5.6538559464e-02 0.0000000000e+00 1.3861262126e-01 -5.6466272926e-02 0.0000000000e+00 1.3348865342e-01 -5.6389876340e-02 0.0000000000e+00 1.2836477223e-01 -5.6309334762e-02 0.0000000000e+00 1.2324097603e-01 -5.6224610014e-02 0.0000000000e+00 1.1811724558e-01 -5.6135662002e-02 0.0000000000e+00 1.1299368194e-01 -5.6042451195e-02 0.0000000000e+00 1.0787006851e-01 -5.5944930586e-02 0.0000000000e+00 1.0274655297e-01 -5.5843058179e-02 0.0000000000e+00 9.7623242809e-02 -5.5736789958e-02 0.0000000000e+00 9.2499894644e-02 -5.5626072852e-02 0.0000000000e+00 8.7376702232e-02 -5.5510861246e-02 0.0000000000e+00 8.2253591763e-02 -5.5391102098e-02 0.0000000000e+00 7.7130592483e-02 -5.5266742888e-02 0.0000000000e+00 7.2007772477e-02 -5.5137730413e-02 0.0000000000e+00 6.6884978478e-02 -5.5004004031e-02 0.0000000000e+00 6.1762374400e-02 -5.4865509418e-02 0.0000000000e+00 5.6639899797e-02 -5.4722184619e-02 0.0000000000e+00 5.1517578012e-02 -5.4573968022e-02 0.0000000000e+00 4.6395359247e-02 -5.4420793964e-02 0.0000000000e+00 4.1273265047e-02 -5.4262596875e-02 0.0000000000e+00 3.6151344678e-02 -5.4099310180e-02 0.0000000000e+00 3.1029656272e-02 -5.3930865784e-02 0.0000000000e+00 2.5908107476e-02 -5.3757188601e-02 0.0000000000e+00 2.0786715931e-02 -5.3578204980e-02 0.0000000000e+00 1.5665583667e-02 -5.3393842301e-02 0.0000000000e+00 1.0544631760e-02 -5.3204019413e-02 0.0000000000e+00 5.4238455346e-03 -5.3008655112e-02 0.0000000000e+00 3.0323854710e-04 -5.2807667001e-02 0.0000000000e+00 -4.8170736379e-03 -5.2600974629e-02 0.0000000000e+00 -9.9371296962e-03 -5.2388489241e-02 0.0000000000e+00 -1.5057026989e-02 -5.2170116987e-02 0.0000000000e+00 -2.0176584787e-02 -5.1945773477e-02 0.0000000000e+00 -2.5295897865e-02 -5.1715360119e-02 0.0000000000e+00 -3.0414941641e-02 -5.1478780917e-02 0.0000000000e+00 -3.5533695451e-02 -5.1235937199e-02 0.0000000000e+00 -4.0652120784e-02 -5.0986728615e-02 0.0000000000e+00 -4.5770212954e-02 -5.0731050570e-02 0.0000000000e+00 -5.0888000350e-02 -5.0468793984e-02 0.0000000000e+00 -5.6005440725e-02 -5.0199850525e-02 0.0000000000e+00 -6.1122511737e-02 -4.9924108055e-02 0.0000000000e+00 -6.6239180585e-02 -4.9641452129e-02 0.0000000000e+00 -7.1355503248e-02 -4.9351760294e-02 0.0000000000e+00 -7.6471397397e-02 -4.9054914724e-02 0.0000000000e+00 -8.1586838279e-02 -4.8750791317e-02 0.0000000000e+00 -8.6701851077e-02 -4.8439259672e-02 0.0000000000e+00 -9.1816424892e-02 -4.8120188045e-02 0.0000000000e+00 -9.6930492547e-02 -4.7793444814e-02 0.0000000000e+00 -1.0204404178e-01 -4.7458891444e-02 0.0000000000e+00 -1.0715707215e-01 -4.7116384871e-02 0.0000000000e+00 -1.1226956858e-01 -4.6765779115e-02 0.0000000000e+00 -1.1738150394e-01 -4.6406925081e-02 0.0000000000e+00 -1.2249279621e-01 -4.6039673639e-02 0.0000000000e+00 -1.2760346587e-01 -4.5663864229e-02 0.0000000000e+00 -1.3271353851e-01 -4.5279331259e-02 0.0000000000e+00 -1.3782292438e-01 -4.4885913259e-02 0.0000000000e+00 -1.4293156128e-01 -4.4483442340e-02 0.0000000000e+00 -1.4803948021e-01 -4.4071738429e-02 0.0000000000e+00 -1.5314665394e-01 -4.3650620840e-02 0.0000000000e+00 -1.5825304438e-01 -4.3219904557e-02 0.0000000000e+00 -1.6335853606e-01 -4.2779405918e-02 0.0000000000e+00 -1.6846317945e-01 -4.2328921443e-02 0.0000000000e+00 -1.7356694323e-01 -4.1868248527e-02 0.0000000000e+00 -1.7866975142e-01 -4.1397182525e-02 0.0000000000e+00 -1.8377156506e-01 -4.0915509135e-02 0.0000000000e+00 -1.8887231740e-01 -4.0423010023e-02 0.0000000000e+00 -1.9397201921e-01 -3.9919452293e-02 0.0000000000e+00 -1.9907060315e-01 -3.9404603149e-02 0.0000000000e+00 -2.0416795498e-01 -3.8878227134e-02 0.0000000000e+00 -2.0926410713e-01 -3.8340065606e-02 0.0000000000e+00 -2.1435899276e-01 -3.7789861420e-02 0.0000000000e+00 -2.1945254522e-01 -3.7227348521e-02 0.0000000000e+00 -2.2454463421e-01 -3.6652258723e-02 0.0000000000e+00 -2.2963526591e-01 -3.6064298608e-02 0.0000000000e+00 -2.3472439875e-01 -3.5463169159e-02 0.0000000000e+00 -2.3981193609e-01 -3.4848566607e-02 0.0000000000e+00 -2.4489771085e-01 -3.4220184393e-02 0.0000000000e+00 -2.4998176842e-01 -3.3577677250e-02 0.0000000000e+00 -2.5506399126e-01 -3.2920706413e-02 0.0000000000e+00 -2.6014426393e-01 -3.2248918972e-02 0.0000000000e+00 -2.6522248061e-01 -3.1561945841e-02 0.0000000000e+00 -2.7029858526e-01 -3.0859394906e-02 0.0000000000e+00 -2.7537247023e-01 -3.0140863550e-02 0.0000000000e+00 -2.8044398225e-01 -2.9405937276e-02 0.0000000000e+00 -2.8551303983e-01 -2.8654171425e-02 0.0000000000e+00 -2.9057948552e-01 -2.7885111033e-02 0.0000000000e+00 -2.9564321341e-01 -2.7098270352e-02 0.0000000000e+00 -3.0070406800e-01 -2.6293146236e-02 0.0000000000e+00 -3.0576188583e-01 -2.5469210014e-02 0.0000000000e+00 -3.1081650731e-01 -2.4625903240e-02 0.0000000000e+00 -3.1586776165e-01 -2.3762637513e-02 0.0000000000e+00 -3.2091545343e-01 -2.2878794051e-02 0.0000000000e+00 -3.2595938602e-01 -2.1973716558e-02 0.0000000000e+00 -3.3099932872e-01 -2.1046713543e-02 0.0000000000e+00 -3.3603506379e-01 -2.0097045782e-02 0.0000000000e+00 -3.4106630193e-01 -1.9123937664e-02 0.0000000000e+00 -3.4609279420e-01 -1.8126550881e-02 0.0000000000e+00 -3.5111422796e-01 -1.7103998506e-02 0.0000000000e+00 -3.5613026864e-01 -1.6055330517e-02 0.0000000000e+00 -3.6114055876e-01 -1.4979526225e-02 0.0000000000e+00 -3.6614471400e-01 -1.3875486128e-02 0.0000000000e+00 -3.7114227411e-01 -1.2742032692e-02 0.0000000000e+00 -3.7613277157e-01 -1.1577883387e-02 0.0000000000e+00 -3.8111568954e-01 -1.0381645731e-02 0.0000000000e+00 -3.8609040603e-01 -9.1518147596e-03 0.0000000000e+00 -3.9105627202e-01 -7.8867350466e-03 0.0000000000e+00 -3.9601255828e-01 -6.5845901298e-03 0.0000000000e+00 -4.0095841207e-01 -5.2433865304e-03 0.0000000000e+00 -4.0589288660e-01 -3.8609129621e-03 0.0000000000e+00 -4.1081490142e-01 -2.4347101989e-03 0.0000000000e+00 -4.1572320451e-01 -9.6203219494e-04 0.0000000000e+00 -4.2061636185e-01 5.6021259395e-04 0.0000000000e+00 -4.2549268766e-01 2.1355174736e-03 0.0000000000e+00 -4.3035021769e-01 3.7678670960e-03 0.0000000000e+00 -4.3518659767e-01 5.4618266507e-03 0.0000000000e+00 -4.3999901359e-01 7.2226808961e-03 0.0000000000e+00 -4.4478405085e-01 9.0566000589e-03 0.0000000000e+00 -4.4953751130e-01 1.0970861400e-02 0.0000000000e+00 -4.5425413044e-01 1.2974134101e-02 0.0000000000e+00 -4.5892721924e-01 1.5076883774e-02 0.0000000000e+00 -4.6354810402e-01 1.7291919714e-02 0.0000000000e+00 -4.6810526293e-01 1.9635157524e-02 0.0000000000e+00 -4.7258296803e-01 2.2126706606e-02 0.0000000000e+00 -4.7695906267e-01 2.4792441981e-02 0.0000000000e+00 -4.8120113833e-01 2.7666268843e-02 0.0000000000e+00 -4.8525967047e-01 3.0793297982e-02 0.0000000000e+00 -4.8905511125e-01 3.4233720983e-02 0.0000000000e+00 -4.9245312560e-01 3.8064921006e-02 0.0000000000e+00 -4.9522002994e-01 4.2369646827e-02 0.0000000000e+00 -4.9697272129e-01 4.7169688282e-02 0.0000000000e+00
        </DataArray>
      </Points>
      <Verts>
        <DataArray type="Int64" Name="connectivity" format="ascii">
          0 1 2 3 4 5 6 7 8 9 10 11 12 13 14 15 16 17 18 19 20 21 22 23 24 25 26 27 28 29 30 31 32 33 34 35 36 37 38 39 40 41 42 43 44 45 46 47 48 49 50 51 52 53 54 55 56 57 58 59 60 61 62 63 64 65 66 67 68 69 70 71 72 73 74 75 76 77 78 79 80 81 82 83 84 85 86 87 88 89 90 91 92 93 94 95 96 97 98 99 100 101 102 103 104 105 106 107 108 109 110 111 112 113 114 115 116 117 118 119 120 121 122 123 124 125 126 127 128 129 130 131 132 133 134 135 136 137 138 139 140 141 142 143 144 145 146 147 148 149 150 151 152 153 154 155 156 157 158 159 160 161 162 163 164 165 166 167 168 169 170 171 172 173 174 175 176 177 178 179 180 181 182 183 184 185 186 187 188 189 190 191 192 193 194 195 196 197 198 199 200 201 202 203 204 205 206 207 208 209 210 211 212 213 214 215 216 217 218 219 220 221 222 223 224 225 226 227 228 229 230 231 232 233 234 235 236 237 238 239 240 241 242 243 244 245 246 247 248 249 250 251 252 253 254 255 256 257 258 259 260 261 262 263 264 265 266 267 268 269 270 271 272 273 274 275 276 277 278 279 280 281 282 283 284 285 286 287 288 289 290 291 292 293 294 295 296 297 298 299 300 301 302 303 304 305 306 307 308 309 310 311 312 313 314 315 316 317 318 319 320 321 322 323 324 325 326 327 328 329 330 331 332 333 334 335 336 337 338 339 340 341 342 343 344 345 346 347 348 349 350 351 352 353 354 355 356 357 358 359 360 361 362 363 364 365 366 367 368 369 370 371 372 373 374 375 376 377 378 379 380 381 382 383 384 385 386 387 388 389 390 391 392 393 394 395 396 397
        </DataArray>
        <DataArray type="Int64" Name="offsets" format="ascii">
          1 2 3 4 5 6 7 8 9 10 11 12 13 14 15 16 17 18 19 20 21 22 23 24 25 26 27 28 29 30 31 32 33 34 35 36 37 38 39 40 41 42 43 44 45 46 47 48 49 50 51 52 53 54 55 56 57 58 59 60 61 62 63 64 65 66 67 68 69 70 71 72 73 74 75 76 77 78 79 80 81 82 83 84 85 86 87 88 89 90 91 92 93 94 95 96 97 98 99 100 101 102 103 104 105 106 107 108 109 110 111 112 113 114 115 116 117 118 119 120 121 122 123 124 125 126 127 128 129 130 131 132 133 134 135 136 137 138 139 140 141 142 143 144 145 146 147 148 149 150 151 152 153 154 155 156 157 158 159 160 161 162 163 164 165 166 167 168 169 170 171 172 173 174 175 176 177 178 179 180 181 182 183 184 185 186 187 188 189 190 191 192 193 194 195 196 197 198 199 200 201 202 203 204 205 206 207 208 209 210 211 212 213 214 215 216 217 218 219 220 221 222 223 224 225 226 227 228 229 230 231 232 233 234 235 236 237 238 239 240 241 242 243 244 245 246 247 248 249 250 251 252 253 254 255 256 257 258 259 260 261 262 263 264 265 266 267 268 269 270 271 272 273 274 275 276 277 278 279 280 281 282 283 284 285 286 287 288 289 290 291 292 293 294 295 296 297 298 299 300 301 302 303 304 305 306 307 308 309 310 311 312 313 314 315 316 317 318 319 320 321 322 323 324 325 326 327 328 329 330 331 332 333 334 335 336 337 338 339 340 341 342 343 344 345 346 347 348 349 350 351 352 353 354 355 356 357 358 359 360 361 362 363 364 365 366 367 368 369 370 371 372 373 374 375 376 377 378 379 380 381 382 383 384 385 386 387 388 389 390 391 392 393 394 395 396 397 398
        </DataArray>
      </Verts>
      <PointData>
        <DataArray type="Float64" Name="velocity" NumberOfComponents="3" format="ascii">
          0.0000000000e+00 0.0000000000e+00 0.0000000000e+00 0.0000000000e+00 0.0000000000e+00 0.0000000000e+00 0.0000000000e+00 0.0000000000e+00 0.0000000000e+00 0.0000000000e+00 0.0000000000e+00 0.0000000000e+00 0.0000000000e+00 0.0000000000e+00 0.0000000000e+00 0.0000000000e+00 0.0000000000e+00 0.0000000000e+00 0.0000000000e+00 0.0000000000e+00 0.0000000000e+00 0.0000000000e+00 0.0000000000e+00 0.0000000000e+00 0.0000000000e+00 0.0000000000e+00 0.0000000000e+00 0.0000000000e+00 0.0000000000e+00 0.0000000000e+00 0.0000000000e+00 0.0000000000e+00 0.0000000000e+00 0.0000000000e+00 0.0000000000e+00 0.0000000000e+00 0.0000000000e+00 0.0000000000e+00 0.0000000000e+00 0.0000000000e+00 0.0000000000e+00 0.0000000000e+00 0.0000000000e+00 0.0000000000e+00 0.0000000000e+00 0.0000000000e+00 0.0000000000e+00 0.0000000000e+00 0.0000000000e+00 0.0000000000e+00 0.0000000000e+00 0.0000000000e+00 0.0000000000e+00 0.0000000000e+00 0.0000000000e+00 0.0000000000e+00 0.0000000000e+00 0.0000000000e+00 0.0000000000e+00 0.0000000000e+00 0.0000000000e+00 0.0000000000e+00 0.0000000000e+00 0.0000000000e+00 0.0000000000e+00 0.0000000000e+00 0.0000000000e+00 0.0000000000e+00 0.0000000000e+00 0.0000000000e+00 0.0000000000e+00 0.0000000000e+00 0.0000000000e+00 0.0000000000e+00 0.0000000000e+00 0.0000000000e+00 0.0000000000e+00 0.0000000000e+00 0.0000000000e+00 0.0000000000e+00 0.0000000000e+00 0.0000000000e+00 0.0000000000e+00 0.0000000000e+00 0.0000000000e+00 0.0000000000e+00 0.0000000000e+00 0.0000000000e+00 0.0000000000e+00 0.0000000000e+00 0.0000000000e+00 0.0000000000e+00 0.0000000000e+00 0.0000000000e+00 0.0000000000e+00 0.0000000000e+00 0.0000000000e+00 0.0000000000e+00 0.0000000000e+00 0.0000000000e+00 0.0000000000e+00 0.0000000000e+00 0.0000000000e+00 0.0000000000e+00 0.0000000000e+00 0.0000000000e+00 0.0000000000e+00 0.0000000000e+00 0.0000000000e+00 0.0000000000e+00 0.0000000000e+00 0.0000000000e+00 0.0000000000e+00 0.0000000000e+00 0.0000000000e+00 0.0000000000e+00 0.0000000000e+00 0.0000000000e+00 0.0000000000e+00 0.0000000000e+00 0.0000000000e+00 0.0000000000e+00 0.0000000000e+00 0.0000000000e+00 0.0000000000e+00 0.0000000000e+00 0.0000000000e+00 0.0000000000e+00 0.0000000000e+00 0.0000000000e+00 0.0000000000e+00 0.0000000000e+00 0.0000000000e+00 0.0000000000e+00 0.0000000000e+00 0.0000000000e+00 0.0000000000e+00 0.0000000000e+00 0.0000000000e+00 0.0000000000e+00 0.0000000000e+00 0.0000000000e+00 0.0000000000e+00 0.0000000000e+00 0.0000000000e+00 0.0000000000e+00 0.0000000000e+00 0.0000000000e+00 0.0000000000e+00 0.0000000000e+00 0.0000000000e+00 0.0000000000e+00 0.0000000000e+00 0.0000000000e+00 0.0000000000e+00 0.0000000000e+00 0.0000000000e+00 0.0000000000e+00 0.0000000000e+00 0.0000000000e+00 0.0000000000e+00 0.0000000000e+00 0.0000000000e+00 0.0000000000e+00 0.0000000000e+00 0.0000000000e+00 0.0000000000e+00 0.0000000000e+00 0.0000000000e+00 0.0000000000e+00 0.0000000000e+00 0.0000000000e+00 0.0000000000e+00 0.0000000000e+00 0.0000000000e+00 0.0000000000e+00 0.0000000000e+00 0.0000000000e+00 0.0000000000e+00 0.0000000000e+00 0.0000000000e+00 0.0000000000e+00 0.0000000000e+00 0.0000000000e+00 0.0000000000e+00 0.0000000000e+00 0.0000000000e+00 0.0000000000e+00 0.0000000000e+00 0.0000000000e+00 0.0000000000e+00 0.0000000000e+00 0.0000000000e+00 0.0000000000e+00 0.0000000000e+00 0.0000000000e+00 0.0000000000e+00 0.0000000000e+00 0.0000000000e+00 0.0000000000e+00 0.0000000000e+00 0.0000000000e+00 0.0000000000e+00 0.0000000000e+00 0.0000000000e+00 0.0000000000e+00 0.0000000000e+00 0.0000000000e+00 0.0000000000e+00 0.0000000000e+00 0.0000000000e+00 0.0000000000e+00 0.0000000000e+00 0.0000000000e+00 0.0000000000e+00 0.0000000000e+00 0.0000000000e+00 0.0000000000e+00 0.0000000000e+00 0.0000000000e+00 0.0000000000e+00 0.0000000000e+00 0.0000000000e+00 0.0000000000e+00 0.0000000000e+00 0.0000000000e+00 0.0000000000e+00 0.0000000000e+00 0.0000000000e+00 0.0000000000e+00 0.0000000000e+00 0.0000000000e+00 0.0000000000e+00 0.0000000000e+00 0.0000000000e+00 0.0000000000e+00 0.0000000000e+00 0.0000000000e+00 0.0000000000e+00 0.0000000000e+00 0.0000000000e+00 0.0000000000e+00 0.0000000000e+00 0.0000000000e+00 0.0000000000e+00 0.0000000000e+00 0.0000000000e+00 0.0000000000e+00 0.0000000000e+00 0.0000000000e+00 0.0000000000e+00 0.0000000000e+00 0.0000000000e+00 0.0000000000e+00 0.0000000000e+00 0.0000000000e+00 0.0000000000e+00 0.0000000000e+00 0.0000000000e+00 0.0000000000e+00 0.0000000000e+00 0.0000000000e+00 0.0000000000e+00 0.0000000000e+00 0.0000000000e+00 0.0000000000e+00 0.0000000000e+00 0.0000000000e+00 0.0000000000e+00 0.0000000000e+00 0.0000000000e+00 0.0000000000e+00 0.0000000000e+00 0.0000000000e+00 0.0000000000e+00 0.0000000000e+00 0.0000000000e+00 0.0000000000e+00 0.0000000000e+00 0.0000000000e+00 0.0000000000e+00 0.0000000000e+00 0.0000000000e+00 0.0000000000e+00 0.0000000000e+00 0.0000000000e+00 0.0000000000e+00 0.0000000000e+00 0.0000000000e+00 0.0000000000e+00 0.0000000000e+00 0.0000000000e+00 0.0000000000e+00 0.0000000000e+00 0.0000000000e+00 0.0000000000e+00 0.0000000000e+00 0.0000000000e+00 0.0000000000e+00 0.0000000000e+00 0.0000000000e+00 0.0000000000e+00 0.0000000000e+00 0.0000000000e+00 0.0000000000e+00 0.0000000000e+00 0.0000000000e+00 0.0000000000e+00 0.0000000000e+00 0.0000000000e+00 0.0000000000e+00 0.0000000000e+00 0.0000000000e+00 0.0000000000e+00 0.0000000000e+00 0.0000000000e+00 0.0000000000e+00 0.0000000000e+00 0.0000000000e+00 0.0000000000e+00 0.0000000000e+00 0.0000000000e+00 0.0000000000e+00 0.0000000000e+00 0.0000000000e+00 0.0000000000e+00 0.0000000000e+00 0.0000000000e+00 0.0000000000e+00 0.0000000000e+00 0.0000000000e+00 0.0000000000e+00 0.0000000000e+00 0.0000000000e+00 0.0000000000e+00 0.0000000000e+00 0.0000000000e+00 0.0000000000e+00 0.0000000000e+00 0.0000000000e+00 0.0000000000e+00 0.0000000000e+00 0.0000000000e+00 0.0000000000e+00 0.0000000000e+00 0.0000000000e+00 0.0000000000e+00 0.0000000000e+00 0.0000000000e+00 0.0000000000e+00 0.0000000000e+00 0.0000000000e+00 0.0000000000e+00 0.0000000000e+00 0.0000000000e+00 0.0000000000e+00 0.0000000000e+00 0.0000000000e+00 0.0000000000e+00 0.0000000000e+00 0.0000000000e+00 0.0000000000e+00 0.0000000000e+00 0.0000000000e+00 0.0000000000e+00 0.0000000000e+00 0.0000000000e+00 0.0000000000e+00 0.0000000000e+00 0.0000000000e+00 0.0000000000e+00 0.0000000000e+00 0.0000000000e+00 0.0000000000e+00 0.0000000000e+00 0.0000000000e+00 0.0000000000e+00 0.0000000000e+00 0.0000000000e+00 0.0000000000e+00 0.0000000000e+00 0.0000000000e+00 0.0000000000e+00 0.0000000000e+00 0.0000000000e+00 0.0000000000e+00 0.0000000000e+00 0.0000000000e+00 0.0000000000e+00 0.0000000000e+00 0.0000000000e+00 0.0000000000e+00 0.0000000000e+00 0.0000000000e+00 0.0000000000e+00 0.0000000000e+00 0.0000000000e+00 0.0000000000e+00 0.0000000000e+00 0.0000000000e+00 0.0000000000e+00 0.0000000000e+00 0.0000000000e+00 0.0000000000e+00 0.0000000000e+00 0.0000000000e+00 0.0000000000e+00 0.0000000000e+00 0.0000000000e+00 0.0000000000e+00 0.0000000000e+00 0.0000000000e+00 0.0000000000e+00 0.0000000000e+00 0.0000000000e+00 0.0000000000e+00 0.0000000000e+00 0.0000000000e+00 0.0000000000e+00 0.0000000000e+00 0.0000000000e+00 0.0000000000e+00 0.0000000000e+00 0.0000000000e+00 0.0000000000e+00 0.0000000000e+00 0.0000000000e+00 0.0000000000e+00 0.0000000000e+00 0.0000000000e+00 0.0000000000e+00 0.0000000000e+00 0.0000000000e+00 0.0000000000e+00 0.0000000000e+00 0.0000000000e+00 0.0000000000e+00 0.0000000000e+00 0.0000000000e+00 0.0000000000e+00 0.0000000000e+00 0.0000000000e+00 0.0000000000e+00 0.0000000000e+00 0.0000000000e+00 0.0000000000e+00 0.0000000000e+00 0.0000000000e+00 0.0000000000e+00 0.0000000000e+00 0.0000000000e+00 0.0000000000e+00 0.0000000000e+00 0.0000000000e+00 0.0000000000e+00 0.0000000000e+00 0.0000000000e+00 0.0000000000e+00 0.0000000000e+00 0.0000000000e+00 0.0000000000e+00 0.0000000000e+00 0.0000000000e+00 0.0000000000e+00 0.0000000000e+00 0.0000000000e+00 0.0000000000e+00 0.0000000000e+00 0.0000000000e+00 0.0000000000e+00 0.0000000000e+00 0.0000000000e+00 0.0000000000e+00 0.0000000000e+00 0.0000000000e+00 0.0000000000e+00 0.0000000000e+00 0.0000000000e+00 0.0000000000e+00 0.0000000000e+00 0.0000000000e+00 0.0000000000e+00 0.0000000000e+00 0.0000000000e+00 0.0000000000e+00 0.0000000000e+00 0.0000000000e+00 0.0000000000e+00 0.0000000000e+00 0.0000000000e+00 0.0000000000e+00 0.0000000000e+00 0.0000000000e+00 0.0000000000e+00 0.0000000000e+00 0.0000000000e+00 0.0000000000e+00 0.0000000000e+00 0.0000000000e+00 0.0000000000e+00 0.0000000000e+00 0.0000000000e+00 0.0000000000e+00 0.0000000000e+00 0.0000000000e+00 0.0000000000e+00 0.0000000000e+00 0.0000000000e+00 0.0000000000e+00 0.0000000000e+00 0.0000000000e+00 0.0000000000e+00 0.0000000000e+00 0.0000000000e+00 0.0000000000e+00 0.0000000000e+00 0.0000000000e+00 0.0000000000e+00 0.0000000000e+00 0.0000000000e+00 0.0000000000e+00 0.0000000000e+00 0.0000000000e+00 0.0000000000e+00 0.0000000000e+00 0.0000000000e+00 0.0000000000e+00 0.0000000000e+00 0.0000000000e+00 0.0000000000e+00 0.0000000000e+00 0.0000000000e+00 0.0000000000e+00 0.0000000000e+00 0.0000000000e+00 0.0000000000e+00 0.0000000000e+00 0.0000000000e+00 0.0000000000e+00 0.0000000000e+00 0.0000000000e+00 0.0000000000e+00 0.0000000000e+00 0.0000000000e+00 0.0000000000e+00 0.0000000000e+00 0.0000000000e+00 0.0000000000e+00 0.0000000000e+00 0.0000000000e+00 0.0000000000e+00 0.0000000000e+00 0.0000000000e+00 0.0000000000e+00 0.0000000000e+00 0.0000000000e+00 0.0000000000e+00 0.0000000000e+00 0.0000000000e+00 0.0000000000e+00 0.0000000000e+00 0.0000000000e+00 0.0000000000e+00 0.0000000000e+00 0.0000000000e+00 0.0000000000e+00 0.0000000000e+00 0.0000000000e+00 0.0000000000e+00 0.0000000000e+00 0.0000000000e+00 0.0000000000e+00 0.0000000000e+00 0.0000000000e+00 0.0000000000e+00 0.0000000000e+00 0.0000000000e+00 0.0000000000e+00 0.0000000000e+00 0.0000000000e+00 0.0000000000e+00 0.0000000000e+00 0.0000000000e+00 0.0000000000e+00 0.0000000000e+00 0.0000000000e+00 0.0000000000e+00 0.0000000000e+00 0.0000000000e+00 0.0000000000e+00 0.0000000000e+00 0.0000000000e+00 0.0000000000e+00 0.0000000000e+00 0.0000000000e+00 0.0000000000e+00 0.0000000000e+00 0.0000000000e+00 0.0000000000e+00 0.0000000000e+00 0.0000000000e+00 0.0000000000e+00 0.0000000000e+00 0.0000000000e+00 0.0000000000e+00 0.0000000000e+00 0.0000000000e+00 0.0000000000e+00 0.0000000000e+00 0.0000000000e+00 0.0000000000e+00 0.0000000000e+00 0.0000000000e+00 0.0000000000e+00 0.0000000000e+00 0.0000000000e+00 0.0000000000e+00 0.0000000000e+00 0.0000000000e+00 0.0000000000e+00 0.0000000000e+00 0.0000000000e+00 0.0000000000e+00 0.0000000000e+00 0.0000000000e+00 0.0000000000e+00 0.0000000000e+00 0.0000000000e+00 0.0000000000e+00 0.0000000000e+00 0.0000000000e+00 0.0000000000e+00 0.0000000000e+00 0.0000000000e+00 0.0000000000e+00 0.0000000000e+00 0.0000000000e+00 0.0000000000e+00 0.0000000000e+00 0.0000000000e+00 0.0000000000e+00 0.0000000000e+00 0.0000000000e+00 0.0000000000e+00 0.0000000000e+00 0.0000000000e+00 0.0000000000e+00 0.0000000000e+00 0.0000000000e+00 0.0000000000e+00 0.0000000000e+00 0.0000000000e+00 0.0000000000e+00 0.0000000000e+00 0.0000000000e+00 0.0000000000e+00 0.0000000000e+00 0.0000000000e+00 0.0000000000e+00 0.0000000000e+00 0.0000000000e+00 0.0000000000e+00 0.0000000000e+00 0.0000000000e+00 0.0000000000e+00 0.0000000000e+00 0.0000000000e+00 0.0000000000e+00 0.0000000000e+00 0.0000000000e+00 0.0000000000e+00 0.0000000000e+00 0.0000000000e+00 0.0000000000e+00 0.0000000000e+00 0.0000000000e+00 0.0000000000e+00 0.0000000000e+00 0.0000000000e+00 0.0000000000e+00 0.0000000000e+00 0.0000000000e+00 0.0000000000e+00 0.0000000000e+00 0.0000000000e+00 0.0000000000e+00 0.0000000000e+00 0.0000000000e+00 0.0000000000e+00 0.0000000000e+00 0.0000000000e+00 0.0000000000e+00 0.0000000000e+00 0.0000000000e+00 0.0000000000e+00 0.0000000000e+00 0.0000000000e+00 0.0000000000e+00 0.0000000000e+00 0.0000000000e+00 0.0000000000e+00 0.0000000000e+00 0.0000000000e+00 0.0000000000e+00 0.0000000000e+00 0.0000000000e+00 0.0000000000e+00 0.0000000000e+00 0.0000000000e+00 0.0000000000e+00 0.0000000000e+00 0.0000000000e+00 0.0000000000e+00 0.0000000000e+00 0.0000000000e+00 0.0000000000e+00 0.0000000000e+00 0.0000000000e+00 0.0000000000e+00 0.0000000000e+00 0.0000000000e+00 0.0000000000e+00 0.0000000000e+00 0.0000000000e+00 0.0000000000e+00 0.0000000000e+00 0.0000000000e+00 0.0000000000e+00 0.0000000000e+00 0.0000000000e+00 0.0000000000e+00 0.0000000000e+00 0.0000000000e+00 0.0000000000e+00 0.0000000000e+00 0.0000000000e+00 0.0000000000e+00 0.0000000000e+00 0.0000000000e+00 0.0000000000e+00 0.0000000000e+00 0.0000000000e+00 0.0000000000e+00 0.0000000000e+00 0.0000000000e+00 0.0000000000e+00 0.0000000000e+00 0.0000000000e+00 0.0000000000e+00 0.0000000000e+00 0.0000000000e+00 0.0000000000e+00 0.0000000000e+00 0.0000000000e+00 0.0000000000e+00 0.0000000000e+00 0.0000000000e+00 0.0000000000e+00 0.0000000000e+00 0.0000000000e+00 0.0000000000e+00 0.0000000000e+00 0.0000000000e+00 0.0000000000e+00 0.0000000000e+00 0.0000000000e+00 0.0000000000e+00 0.0000000000e+00 0.0000000000e+00 0.0000000000e+00 0.0000000000e+00 0.0000000000e+00 0.0000000000e+00 0.0000000000e+00 0.0000000000e+00 0.0000000000e+00 0.0000000000e+00 0.0000000000e+00 0.0000000000e+00 0.0000000000e+00 0.0000000000e+00 0.0000000000e+00 0.0000000000e+00 0.0000000000e+00 0.0000000000e+00 0.0000000000e+00 0.0000000000e+00 0.0000000000e+00 0.0000000000e+00 0.0000000000e+00 0.0000000000e+00 0.0000000000e+00 0.0000000000e+00 0.0000000000e+00 0.0000000000e+00 0.0000000000e+00 0.0000000000e+00 0.0000000000e+00 0.0000000000e+00 0.0000000000e+00 0.0000000000e+00 0.0000000000e+00 0.0000000000e+00 0.0000000000e+00 0.0000000000e+00 0.0000000000e+00 0.0000000000e+00 0.0000000000e+00 0.0000000000e+00 0.0000000000e+00 0.0000000000e+00 0.0000000000e+00 0.0000000000e+00 0.0000000000e+00 0.0000000000e+00 0.0000000000e+00 0.0000000000e+00 0.0000000000e+00 0.0000000000e+00 0.0000000000e+00 0.0000000000e+00 0.0000000000e+00 0.0000000000e+00 0.0000000000e+00 0.0000000000e+00 0.0000000000e+00 0.0000000000e+00 0.0000000000e+00 0.0000000000e+00 0.0000000000e+00 0.0000000000e+00 0.0000000000e+00 0.0000000000e+00 0.0000000000e+00 0.0000000000e+00 0.0000000000e+00 0.0000000000e+00 0.0000000000e+00 0.0000000000e+00 0.0000000000e+00 0.0000000000e+00 0.0000000000e+00 0.0000000000e+00 0.0000000000e+00 0.0000000000e+00 0.0000000000e+00 0.0000000000e+00 0.0000000000e+00 0.0000000000e+00 0.0000000000e+00 0.0000000000e+00 0.0000000000e+00 0.0000000000e+00 0.0000000000e+00 0.0000000000e+00 0.0000000000e+00 0.0000000000e+00 0.0000000000e+00 0.0000000000e+00 0.0000000000e+00 0.0000000000e+00 0.0000000000e+00 0.0000000000e+00 0.0000000000e+00 0.0000000000e+00 0.0000000000e+00 0.0000000000e+00 0.0000000000e+00 0.0000000000e+00 0.0000000000e+00 0.0000000000e+00 0.0000000000e+00 0.0000000000e+00 0.0000000000e+00 0.0000000000e+00 0.0000000000e+00 0.0000000000e+00 0.0000000000e+00 0.0000000000e+00 0.0000000000e+00 0.0000000000e+00 0.0000000000e+00 0.0000000000e+00 0.0000000000e+00 0.0000000000e+00 0.0000000000e+00 0.0000000000e+00 0.0000000000e+00 0.0000000000e+00 0.0000000000e+00 0.0000000000e+00 0.0000000000e+00 0.0000000000e+00 0.0000000000e+00 0.0000000000e+00 0.0000000000e+00 0.0000000000e+00 0.0000000000e+00 0.0000000000e+00 0.0000000000e+00 0.0000000000e+00 0.0000000000e+00 0.0000000000e+00 0.0000000000e+00 0.0000000000e+00 0.0000000000e+00 0.0000000000e+00 0.0000000000e+00 0.0000000000e+00 0.0000000000e+00 0.0000000000e+00 0.0000000000e+00 0.0000000000e+00 0.0000000000e+00 0.0000000000e+00 0.0000000000e+00 0.0000000000e+00 0.0000000000e+00 0.0000000000e+00 0.0000000000e+00 0.0000000000e+00 0.0000000000e+00 0.0000000000e+00 0.0000000000e+00 0.0000000000e+00 0.0000000000e+00 0.0000000000e+00 0.0000000000e+00 0.0000000000e+00 0.0000000000e+00 0.0000000000e+00 0.0000000000e+00 0.0000000000e+00 0.0000000000e+00 0.0000000000e+00 0.0000000000e+00 0.0000000000e+00 0.0000000000e+00 0.0000000000e+00 0.0000000000e+00 0.0000000000e+00 0.0000000000e+00 0.0000000000e+00 0.0000000000e+00 0.0000000000e+00 0.0000000000e+00 0.0000000000e+00 0.0000000000e+00 0.0000000000e+00 0.0000000000e+00 0.0000000000e+00 0.0000000000e+00 0.0000000000e+00 0.0000000000e+00 0.0000000000e+00 0.0000000000e+00 0.0000000000e+00 0.0000000000e+00 0.0000000000e+00 0.0000000000e+00 0.0000000000e+00 0.0000000000e+00 0.0000000000e+00 0.0000000000e+00 0.0000000000e+00 0.0000000000e+00 0.0000000000e+00 0.0000000000e+00 0.0000000000e+00 0.0000000000e+00 0.0000000000e+00 0.0000000000e+00 0.0000000000e+00 0.0000000000e+00 0.0000000000e+00 0.0000000000e+00 0.0000000000e+00 0.0000000000e+00 0.0000000000e+00 0.0000000000e+00 0.0000000000e+00 0.0000000000e+00 0.0000000000e+00 0.0000000000e+00 0.0000000000e+00 0.0000000000e+00 0.0000000000e+00 0.0000000000e+00 0.0000000000e+00 0.0000000000e+00 0.0000000000e+00 0.0000000000e+00 0.0000000000e+00 0.0000000000e+00 0.0000000000e+00 0.0000000000e+00 0.0000000000e+00 0.0000000000e+00 0.0000000000e+00 0.0000000000e+00 0.0000000000e+00 0.0000000000e+00 0.0000000000e+00 0.0000000000e+00 0.0000000000e+00 0.0000000000e+00 0.0000000000e+00 0.0000000000e+00 0.0000000000e+00 0.0000000000e+00 0.0000000000e+00 0.0000000000e+00 0.0000000000e+00 0.0000000000e+00 0.0000000000e+00 0.0000000000e+00 0.0000000000e+00 0.0000000000e+00 0.0000000000e+00 0.0000000000e+00 0.0000000000e+00 0.0000000000e+00 0.0000000000e+00 0.0000000000e+00 0.0000000000e+00 0.0000000000e+00 0.0000000000e+00 0.0000000000e+00 0.0000000000e+00 0.0000000000e+00 0.0000000000e+00 0.0000000000e+00 0.0000000000e+00 0.0000000000e+00 0.0000000000e+00 0.0000000000e+00 0.0000000000e+00 0.0000000000e+00 0.0000000000e+00 0.0000000000e+00 0.0000000000e+00 0.0000000000e+00 0.0000000000e+00 0.0000000000e+00 0.0000000000e+00 0.0000000000e+00 0.0000000000e+00 0.0000000000e+00 0.0000000000e+00 0.0000000000e+00 0.0000000000e+00 0.0000000000e+00 0.0000000000e+00 0.0000000000e+00 0.0000000000e+00 0.0000000000e+00 0.0000000000e+00 0.0000000000e+00 0.0000000000e+00 0.0000000000e+00 0.0000000000e+00 0.0000000000e+00 0.0000000000e+00 0.0000000000e+00 0.0000000000e+00 0.0000000000e+00 0.0000000000e+00 0.0000000000e+00 0.0000000000e+00 0.0000000000e+00 0.0000000000e+00 0.0000000000e+00 0.0000000000e+00 0.0000000000e+00 0.0000000000e+00 0.0000000000e+00 0.0000000000e+00 0.0000000000e+00 0.0000000000e+00 0.0000000000e+00 0.0000000000e+00 0.0000000000e+00 0.0000000000e+00 0.0000000000e+00 0.0000000000e+00 0.0000000000e+00 0.0000000000e+00 0.0000000000e+00 0.0000000000e+00 0.0000000000e+00 0.0000000000e+00 0.0000000000e+00 0.0000000000e+00 0.0000000000e+00 0.0000000000e+00 0.0000000000e+00 0.0000000000e+00 0.0000000000e+00 0.0000000000e+00 0.0000000000e+00 0.0000000000e+00 0.0000000000e+00 0.0000000000e+00 0.0000000000e+00 0.0000000000e+00 0.0000000000e+00 0.0000000000e+00 0.0000000000e+00 0.0000000000e+00 0.0000000000e+00 0.0000000000e+00 0.0000000000e+00 0.0000000000e+00 0.0000000000e+00 0.0000000000e+00 0.0000000000e+00 0.0000000000e+00 0.0000000000e+00 0.0000000000e+00 0.0000000000e+00 0.0000000000e+00 0.0000000000e+00 0.0000000000e+00 0.0000000000e+00 0.0000000000e+00 0.0000000000e+00 0.0000000000e+00 0.0000000000e+00 0.0000000000e+00 0.0000000000e+00 0.0000000000e+00 0.0000000000e+00 0.0000000000e+00 0.0000000000e+00 0.0000000000e+00 0.0000000000e+00 0.0000000000e+00 0.0000000000e+00 0.0000000000e+00 0.0000000000e+00 0.0000000000e+00 0.0000000000e+00 0.0000000000e+00 0.0000000000e+00 0.0000000000e+00 0.0000000000e+00 0.0000000000e+00 0.0000000000e+00 0.0000000000e+00 0.0000000000e+00 0.0000000000e+00 0.0000000000e+00 0.0000000000e+00 0.0000000000e+00 0.0000000000e+00 0.0000000000e+00 0.0000000000e+00 0.0000000000e+00 0.0000000000e+00 0.0000000000e+00 0.0000000000e+00 0.0000000000e+00 0.0000000000e+00 0.0000000000e+00 0.0000000000e+00 0.0000000000e+00 0.0000000000e+00 0.0000000000e+00 0.0000000000e+00 0.0000000000e+00 0.0000000000e+00 0.0000000000e+00 0.0000000000e+00 0.0000000000e+00 0.0000000000e+00 0.0000000000e+00 0.0000000000e+00 0.0000000000e+00 0.0000000000e+00 0.0000000000e+00 0.0000000000e+00 0.0000000000e+00 0.0000000000e+00 0.0000000000e+00 0.0000000000e+00 0.0000000000e+00 0.0000000000e+00 0.0000000000e+00 0.0000000000e+00 0.0000000000e+00 0.0000000000e+00 0.0000000000e+00 0.0000000000e+00 0.0000000000e+00
        </DataArray>
        <DataArray type="Float64" Name="force" NumberOfComponents="3" format="ascii">
          -1.0852885631e-02 -1.0839698810e-03 0.0000000000e+00 -8.6026823694e-03 2.1504752527e-03 0.0000000000e+00 -1.2301373012e-02 -6.6906177596e-04 0.0000000000e+00 9.8620241646e-04 1.1776722101e-02 0.0000000000e+00 -1.3365664662e-02 -1.5100069781e-03 0.0000000000e+00 1.7601145470e-03 1.0623081961e-02 0.0000000000e+00 -8.4002283657e-03 3.0569219509e-03 0.0000000000e+00 -3.8807918151e-05 7.8126889098e-03 0.0000000000e+00 -4.8458775092e-03 5.5198195842e-03 0.0000000000e+00 -1.7991204782e-03 6.6362012922e-03 0.0000000000e+00 -2.5853287170e-03 6.4179303477e-03 0.0000000000e+00 -1.6902790866e-03 6.6892482680e-03 0.0000000000e+00 -2.3020147073e-03 6.5269000752e-03 0.0000000000e+00 -1.7286623343e-03 6.6513960296e-03 0.0000000000e+00 -1.6069170466e-03 6.7142418495e-03 0.0000000000e+00 -1.3893752565e-03 6.8412051848e-03 0.0000000000e+00 -1.2452070401e-03 6.8953898325e-03 0.0000000000e+00 -1.2583645308e-03 6.9024664273e-03 0.0000000000e+00 -1.0921839718e-03 6.9241206782e-03 0.0000000000e+00 -1.0548253306e-03 6.9337260765e-03 0.0000000000e+00 -1.0340806644e-03 6.9539962657e-03 0.0000000000e+00 -8.9544249892e-04 7.0004704149e-03 0.0000000000e+00 -7.4809333193e-04 7.0549740042e-03 0.0000000000e+00 -6.8045332434e-04 7.1042694174e-03 0.0000000000e+00 -6.1433057814e-04 7.1417307074e-03 0.0000000000e+00 -5.5399088795e-04 7.1741269851e-03 0.0000000000e+00 -4.9411153986e-04 7.2023943793e-03 0.0000000000e+00 -4.3731046616e-04 7.2275876143e-03 0.0000000000e+00 -3.8231082809e-04 7.2521920203e-03 0.0000000000e+00 -3.2993273096e-04 7.2728480447e-03 0.0000000000e+00 -2.7928503613e-04 7.2954856132e-03 0.0000000000e+00 -2.3076449462e-04 7.3104255336e-03 0.0000000000e+00 -1.8401056974e-04 7.3463226290e-03 0.0000000000e+00 -1.3922174432e-04 7.3559204938e-03 0.0000000000e+00 -9.5618069444e-05 7.3772224258e-03 0.0000000000e+00 -5.4097148085e-05 7.4017965727e-03 0.0000000000e+00 -1.3809296073e-05 7.4208590148e-03 0.0000000000e+00 2.4802771711e-05 7.4412955593e-03 0.0000000000e+00 6.2433845640e-05 7.4589088344e-03 0.0000000000e+00 9.8855778354e-05 7.4766703955e-03 0.0000000000e+00 1.3465959049e-04 7.4928355009e-03 0.0000000000e+00 1.6987070892e-04 7.5086788031e-03 0.0000000000e+00 2.0520507178e-04 7.5232547103e-03 0.0000000000e+00 2.4155916044e-04 7.5373403696e-03 0.0000000000e+00 2.8458771319e-04 7.5486675549e-03 0.0000000000e+00 3.5885947184e-04 7.5603887435e-03 0.0000000000e+00 4.2239862075e-04 7.5763654095e-03 0.0000000000e+00 3.7196122506e-04 7.6033615196e-03 0.0000000000e+00 4.0558372556e-04 7.6293621706e-03 0.0000000000e+00 4.1220226792e-04 7.6526370935e-03 0.0000000000e+00 4.5228048002e-04 7.6716177973e-03 0.0000000000e+00 4.6211074531e-04 7.6891554862e-03 0.0000000000e+00 5.0682674270e-04 7.7040149300e-03 0.0000000000e+00 5.3437673684e-04 7.7150507998e-03 0.0000000000e+00 5.3568054568e-04 7.7227980842e-03 0.0000000000e+00 5.7381789961e-04 7.7270450788e-03 0.0000000000e+00 5.9253371684e-04 7.7289689158e-03 0.0000000000e+00 6.6074132517e-04 7.7234677252e-03 0.0000000000e+00 7.8436381037e-04 7.7223108808e-03 0.0000000000e+00 7.2310218265e-04 7.7517723024e-03 0.0000000000e+00 6.7762390268e-04 7.7882339515e-03 0.0000000000e+00 7.0782628558e-04 7.8160943738e-03 0.0000000000e+00 7.1222695283e-04 7.8377077816e-03 0.0000000000e+00 7.9502358680e-04 7.8460772287e-03 0.0000000000e+00 7.3926603964e-04 7.8525744538e-03 0.0000000000e+00 8.0003184411e-04 7.8452094276e-03 0.0000000000e+00 8.0826840348e-04 7.8316214936e-03 0.0000000000e+00 1.0129813473e-03 7.8144011433e-03 0.0000000000e+00 9.2651485257e-04 7.8451395473e-03 0.0000000000e+00 8.5907253975e-04 7.8843906539e-03 0.0000000000e+00 8.5245163867e-04 7.9241894344e-03 0.0000000000e+00 9.4310967724e-04 7.9351684274e-03 0.0000000000e+00 9.1787647400e-04 7.9457184461e-03 0.0000000000e+00 9.0954768116e-04 7.9322622259e-03 0.0000000000e+00 9.9881320639e-04 7.9058860329e-03 0.0000000000e+00 1.1567506718e-03 7.8870427151e-03 0.0000000000e+00 1.0652582147e-03 7.9244957912e-03 0.0000000000e+00 9.6227305603e-04 7.9694563625e-03 0.0000000000e+00 1.0209034568e-03 8.0106080183e-03 0.0000000000e+00 1.0764131861e-03 8.0065816598e-03 0.0000000000e+00 1.0064653140e-03 8.0127874279e-03 0.0000000000e+00 1.0929844615e-03 7.9673531397e-03 0.0000000000e+00 1.2601828740e-03 7.9554955553e-03 0.0000000000e+00 1.2237098569e-03 7.9676590679e-03 0.0000000000e+00 1.0336941598e-03 8.0416241504e-03 0.0000000000e+00 1.1505590439e-03 8.0672119570e-03 0.0000000000e+00 1.1589860625e-03 8.0800252135e-03 0.0000000000e+00 1.0925991606e-03 8.0562402912e-03 0.0000000000e+00 1.2855037519e-03 8.0153293094e-03 0.0000000000e+00 1.3855539038e-03 8.0055498109e-03 0.0000000000e+00 1.1823801109e-03 8.0531405469e-03 0.0000000000e+00 1.1653400748e-03 8.1226279832e-03 0.0000000000e+00 1.2775438870e-03 8.1229677030e-03 0.0000000000e+00 1.1686170421e-03 8.1262156771e-03 0.0000000000e+00 1.3085592634e-03 8.0684917912e-03 0.0000000000e+00 1.4535113527e-03 8.0481680305e-03 0.0000000000e+00 1.3445489151e-03 8.0831861335e-03 0.0000000000e+00 1.1935227055e-03 8.1628862532e-03 0.0000000000e+00 1.3628783314e-03 8.1709574062e-03 0.0000000000e+00 1.2337734659e-03 8.1680144408e-03 0.0000000000e+00 1.3884345490e-03 8.1124235720e-03 0.0000000000e+00 1.5417171061e-03 8.0830421402e-03 0.0000000000e+00 1.3686031016e-03 8.1330030768e-03 0.0000000000e+00 1.2896962814e-03 8.2082554858e-03 0.0000000000e+00 1.4170402410e-03 8.2148575480e-03 0.0000000000e+00 1.2911255970e-03 8.1937104916e-03 0.0000000000e+00 1.5043226390e-03 8.1402226190e-03 0.0000000000e+00 1.6436748402e-03 8.1195958856e-03 0.0000000000e+00 1.2902857579e-03 8.2020063736e-03 0.0000000000e+00 1.4572646777e-03 8.2488950700e-03 0.0000000000e+00 1.4037121593e-03 8.2522808441e-03 0.0000000000e+00 1.4204964502e-03 8.2025772310e-03 0.0000000000e+00 1.6298743658e-03 8.1526493379e-03 0.0000000000e+00 1.6114543028e-03 8.1801948977e-03 0.0000000000e+00 1.3261571395e-03 8.2751535348e-03 0.0000000000e+00 1.5685968862e-03 8.2801539276e-03 0.0000000000e+00 1.3713207277e-03 8.2618155173e-03 0.0000000000e+00 1.6453053572e-03 8.1954378362e-03 0.0000000000e+00 1.7543796288e-03 8.1819108891e-03 0.0000000000e+00 1.3473642576e-03 8.2804126628e-03 0.0000000000e+00 1.6147416867e-03 8.3082695737e-03 0.0000000000e+00 1.4347646490e-03 8.3039219780e-03 0.0000000000e+00 1.6311460913e-03 8.2359320504e-03 0.0000000000e+00 1.8182365306e-03 8.1959353810e-03 0.0000000000e+00 1.4436032031e-03 8.2860779549e-03 0.0000000000e+00 1.6142107930e-03 8.3343068416e-03 0.0000000000e+00 1.5192281786e-03 8.3331205731e-03 0.0000000000e+00 1.6180943732e-03 8.2699774034e-03 0.0000000000e+00 1.8723857498e-03 8.2141296905e-03 0.0000000000e+00 1.5216451140e-03 8.2996473996e-03 0.0000000000e+00 1.6302403384e-03 8.3570855756e-03 0.0000000000e+00 1.5765574673e-03 8.3568243495e-03 0.0000000000e+00 1.6395335506e-03 8.2940721012e-03 0.0000000000e+00 1.9317666236e-03 8.2320801826e-03 0.0000000000e+00 1.5420743754e-03 8.3239122992e-03 0.0000000000e+00 1.6912344168e-03 8.3759825932e-03 0.0000000000e+00 1.5846517226e-03 8.3789393734e-03 0.0000000000e+00 1.7218584335e-03 8.3049431842e-03 0.0000000000e+00 1.9716094718e-03 8.2527714503e-03 0.0000000000e+00 1.5283910246e-03 8.3561526387e-03 0.0000000000e+00 1.7798194798e-03 8.3925063094e-03 0.0000000000e+00 1.5609179131e-03 8.3972107355e-03 0.0000000000e+00 1.8539673233e-03 8.3030693768e-03 0.0000000000e+00 1.9666435758e-03 8.2816982331e-03 0.0000000000e+00 1.5312045770e-03 8.3922505818e-03 0.0000000000e+00 1.8643067965e-03 8.4072641214e-03 0.0000000000e+00 1.5262265172e-03 8.4070347172e-03 0.0000000000e+00 2.0376309606e-03 8.2898850434e-03 0.0000000000e+00 1.8521063649e-03 8.3284379651e-03 0.0000000000e+00 1.6599273499e-03 8.4173604335e-03 0.0000000000e+00 1.8135278927e-03 8.4321821377e-03 0.0000000000e+00 1.6513761380e-03 8.3878037763e-03 0.0000000000e+00 2.1336440694e-03 8.2883089861e-03 0.0000000000e+00 1.7063113908e-03 8.3833509301e-03 0.0000000000e+00 1.8416480406e-03 8.4351546809e-03 0.0000000000e+00 1.6671712755e-03 8.4498233568e-03 0.0000000000e+00 1.9654748041e-03 8.3440447999e-03 0.0000000000e+00 2.0516648673e-03 8.3243738145e-03 0.0000000000e+00 1.6579335590e-03 8.4342558111e-03 0.0000000000e+00 1.9428663066e-03 8.4513854123e-03 0.0000000000e+00 1.6339638364e-03 8.4344822044e-03 0.0000000000e+00 2.2229732594e-03 8.3079732507e-03 0.0000000000e+00 1.8051298403e-03 8.3953602303e-03 0.0000000000e+00 1.8941515775e-03 8.4525674568e-03 0.0000000000e+00 1.7226190695e-03 8.4753620657e-03 0.0000000000e+00 2.0489232923e-03 8.3609534180e-03 0.0000000000e+00 2.0908421833e-03 8.3459911712e-03 0.0000000000e+00 1.7566370908e-03 8.4523211638e-03 0.0000000000e+00 1.9579637965e-03 8.4749389040e-03 0.0000000000e+00 1.7623411210e-03 8.4360360431e-03 0.0000000000e+00 2.2923180494e-03 8.3195119219e-03 0.0000000000e+00 1.8032114458e-03 8.4292302664e-03 0.0000000000e+00 2.0119276695e-03 8.4694601366e-03 0.0000000000e+00 1.7223965620e-03 8.4830768532e-03 0.0000000000e+00 2.2684028137e-03 8.3401682058e-03 0.0000000000e+00 1.9862063695e-03 8.3920794572e-03 0.0000000000e+00 1.9580003935e-03 8.4662373944e-03 0.0000000000e+00 1.8216385589e-03 8.4964314078e-03 0.0000000000e+00 2.1559735887e-03 8.3757685704e-03 0.0000000000e+00 2.1599678124e-03 8.3567750282e-03 0.0000000000e+00 1.9196933215e-03 8.4566010130e-03 0.0000000000e+00 1.9459753699e-03 8.4906431071e-03 0.0000000000e+00 2.0329986226e-03 8.4072489630e-03 0.0000000000e+00 2.3004359859e-03 8.3234935943e-03 0.0000000000e+00 1.9297160043e-03 8.4314334577e-03 0.0000000000e+00 2.0301402966e-03 8.4727068401e-03 0.0000000000e+00 1.9685525881e-03 8.4181022126e-03 0.0000000000e+00 2.3655039642e-03 8.2851494324e-03 0.0000000000e+00 2.0462189651e-03 8.3650156354e-03 0.0000000000e+00 1.9750849904e-03 8.4451344953e-03 0.0000000000e+00 2.0319402322e-03 8.3980579511e-03 0.0000000000e+00 2.3757153171e-03 8.2137554926e-03 0.0000000000e+00 2.2616849366e-03 8.1667634330e-03 0.0000000000e+00 1.7278734349e-03 8.4576169499e-03 0.0000000000e+00 2.3123759221e-03 8.1823903523e-03 0.0000000000e+00 1.1056833006e-03 9.1768428463e-03 0.0000000000e+00 3.2796513747e-03 9.6772127699e-03 0.0000000000e+00 4.7966249067e-06 1.3752857435e-02 0.0000000000e+00 8.5150830636e-03 1.0134967466e-02 0.0000000000e+00 -2.7118653994e-04 1.3975411852e-04 0.0000000000e+00 -1.6197002904e-03 -1.0870850068e-02 0.0000000000e+00 3.7910211311e-04 -1.3881422894e-02 0.0000000000e+00 -5.0363706565e-04 -9.6914949186e-03 0.0000000000e+00 -8.1218211157e-04 -9.4715820281e-03 0.0000000000e+00 2.3041287809e-04 -8.3550421045e-03 0.0000000000e+00 4.3345351783e-05 -8.6925033055e-03 0.0000000000e+00 2.2321017370e-04 -8.3574221286e-03 0.0000000000e+00 3.2836884624e-04 -8.6021215503e-03 0.0000000000e+00 1.7988070755e-04 -8.6589213293e-03 0.0000000000e+00 9.1698433940e-05 -8.6508609785e-03 0.0000000000e+00 1.5523933407e-04 -8.6069770777e-03 0.0000000000e+00 2.4339810989e-04 -8.6491345866e-03 0.0000000000e+00 1.5933640557e-04 -8.6929848081e-03 0.0000000000e+00 1.1121667477e-04 -8.6875418107e-03 0.0000000000e+00 1.2621678685e-04 -8.6730257547e-03 0.0000000000e+00 1.6392962003e-04 -8.6860425895e-03 0.0000000000e+00 1.3548417485e-04 -8.6935479184e-03 0.0000000000e+00 1.0599655133e-04 -8.7058081133e-03 0.0000000000e+00 1.0307551437e-04 -8.7061809481e-03 0.0000000000e+00 1.1396934701e-04 -8.6930601944e-03 0.0000000000e+00 1.0277888517e-04 -8.7152452398e-03 0.0000000000e+00 8.8317127572e-05 -8.7120610303e-03 0.0000000000e+00 7.9937737028e-05 -8.7189677955e-03 0.0000000000e+00 7.8828941967e-05 -8.7174084949e-03 0.0000000000e+00 7.2561370031e-05 -8.7229984218e-03 0.0000000000e+00 6.3395307558e-05 -8.7236851491e-03 0.0000000000e+00 5.5303737184e-05 -8.7252077029e-03 0.0000000000e+00 5.0187353371e-05 -8.7256686683e-03 0.0000000000e+00 4.4645647938e-05 -8.7268239265e-03 0.0000000000e+00 3.7615506877e-05 -8.7278780821e-03 0.0000000000e+00 3.0432649417e-05 -8.7286355630e-03 0.0000000000e+00 2.4173454767e-05 -8.7289678154e-03 0.0000000000e+00 1.8230296865e-05 -8.7295564361e-03 0.0000000000e+00 1.1765563909e-05 -8.7300769483e-03 0.0000000000e+00 4.9713107842e-06 -8.7304875181e-03 0.0000000000e+00 -1.6719817602e-06 -8.7309337834e-03 0.0000000000e+00 -8.0779448720e-06 -8.7310254789e-03 0.0000000000e+00 -1.4562359412e-05 -8.7312286915e-03 0.0000000000e+00 -2.1231728627e-05 -8.7315215824e-03 0.0000000000e+00 -2.7841590546e-05 -8.7315906492e-03 0.0000000000e+00 -3.4432337235e-05 -8.7316224461e-03 0.0000000000e+00 -4.1005465206e-05 -8.7315709977e-03 0.0000000000e+00 -4.7691318615e-05 -8.7316559138e-03 0.0000000000e+00 -5.4452419894e-05 -8.7316733988e-03 0.0000000000e+00 -6.1258656775e-05 -8.7315335020e-03 0.0000000000e+00 -6.8064136193e-05 -8.7314343373e-03 0.0000000000e+00 -7.4934637299e-05 -8.7313199791e-03 0.0000000000e+00 -8.1831251270e-05 -8.7311256828e-03 0.0000000000e+00 -8.8822991400e-05 -8.7306572211e-03 0.0000000000e+00 -9.5772724845e-05 -8.7304998506e-03 0.0000000000e+00 -1.0286274424e-04 -8.7296062200e-03 0.0000000000e+00 -1.0982600484e-04 -8.7296522123e-03 0.0000000000e+00 -1.1706127077e-04 -8.7277857289e-03 0.0000000000e+00 -1.2398245514e-04 -8.7282376756e-03 0.0000000000e+00 -1.3139891534e-04 -8.7245418267e-03 0.0000000000e+00 -1.3821755151e-04 -8.7260990091e-03 0.0000000000e+00 -1.4589731463e-04 -8.7173900869e-03 0.0000000000e+00 -1.5265702168e-04 -8.7201246408e-03 0.0000000000e+00 -1.5998210737e-04 -8.7311441787e-03 0.0000000000e+00 -1.6728032474e-04 -8.7131491014e-03 0.0000000000e+00 -1.7471473805e-04 -8.7245869709e-03 0.0000000000e+00 -1.8176099342e-04 -8.7224514150e-03 0.0000000000e+00 -1.8927266213e-04 -8.7276502261e-03 0.0000000000e+00 -1.9646252489e-04 -8.7268311958e-03 0.0000000000e+00 -2.0399783142e-04 -8.7292107297e-03 0.0000000000e+00 -2.1134688459e-04 -8.7292076595e-03 0.0000000000e+00 -2.1892621834e-04 -8.7303950001e-03 0.0000000000e+00 -2.2643229547e-04 -8.7310761602e-03 0.0000000000e+00 -2.3408455342e-04 -8.7317652245e-03 0.0000000000e+00 -2.4171557772e-04 -8.7324401237e-03 0.0000000000e+00 -2.4946585905e-04 -8.7332647107e-03 0.0000000000e+00 -2.5720566485e-04 -8.7338910581e-03 0.0000000000e+00 -2.6504395401e-04 -8.7346976840e-03 0.0000000000e+00 -2.7286551004e-04 -8.7353101233e-03 0.0000000000e+00 -2.8077912694e-04 -8.7361497229e-03 0.0000000000e+00 -2.8862695848e-04 -8.7371542215e-03 0.0000000000e+00 -2.9657977103e-04 -8.7377619396e-03 0.0000000000e+00 -3.0426478051e-04 -8.7386565374e-03 0.0000000000e+00 -3.1302051885e-04 -8.7395962130e-03 0.0000000000e+00 -3.2023516863e-04 -8.7403756402e-03 0.0000000000e+00 -3.2879563014e-04 -8.7413014128e-03 0.0000000000e+00 -3.3648060865e-04 -8.7420781849e-03 0.0000000000e+00 -3.4545752835e-04 -8.7430546662e-03 0.0000000000e+00 -3.5285446477e-04 -8.7440144324e-03 0.0000000000e+00 -3.6241304794e-04 -8.7442939518e-03 0.0000000000e+00 -3.7083680508e-04 -8.7444297304e-03 0.0000000000e+00 -3.8015960460e-04 -8.7444606226e-03 0.0000000000e+00 -3.8918181428e-04 -8.7442990935e-03 0.0000000000e+00 -3.9850858308e-04 -8.7438977938e-03 0.0000000000e+00 -4.0770186572e-04 -8.7427793581e-03 0.0000000000e+00 -4.1699762860e-04 -8.7417310912e-03 0.0000000000e+00 -4.2624866073e-04 -8.7392566304e-03 0.0000000000e+00 -4.3548368638e-04 -8.7374579234e-03 0.0000000000e+00 -4.4510432333e-04 -8.7315708147e-03 0.0000000000e+00 -4.5458513905e-04 -8.7290509282e-03 0.0000000000e+00 -4.6791327361e-04 -8.7168161647e-03 0.0000000000e+00 -4.8285000727e-04 -8.7132185945e-03 0.0000000000e+00 -5.4105161186e-04 -8.6912372339e-03 0.0000000000e+00 -5.5131491360e-04 -8.7027747604e-03 0.0000000000e+00 -5.2718190136e-04 -8.7079665075e-03 0.0000000000e+00 -5.3589853785e-04 -8.7008439759e-03 0.0000000000e+00 -5.4419604395e-04 -8.7206681811e-03 0.0000000000e+00 -5.5617565133e-04 -8.7212760124e-03 0.0000000000e+00 -5.6725013454e-04 -8.7325845300e-03 0.0000000000e+00 -5.7835203836e-04 -8.7349768481e-03 0.0000000000e+00 -5.8898596498e-04 -8.7422261059e-03 0.0000000000e+00 -5.9906728773e-04 -8.7455553711e-03 0.0000000000e+00 -6.1128465111e-04 -8.7514101402e-03 0.0000000000e+00 -6.1975337458e-04 -8.7542873949e-03 0.0000000000e+00 -6.3435760742e-04 -8.7550691354e-03 0.0000000000e+00 -6.4410586415e-04 -8.7544816150e-03 0.0000000000e+00 -6.5689162594e-04 -8.7522296990e-03 0.0000000000e+00 -6.6771481020e-04 -8.7473735309e-03 0.0000000000e+00 -6.7980236159e-04 -8.7391064344e-03 0.0000000000e+00 -6.9773206597e-04 -8.7248673591e-03 0.0000000000e+00 -7.5506168613e-04 -8.7071650617e-03 0.0000000000e+00 -8.3623123613e-04 -8.6961670179e-03 0.0000000000e+00 -7.7510923903e-04 -8.7060789199e-03 0.0000000000e+00 -7.7924357600e-04 -8.7225313637e-03 0.0000000000e+00 -7.7933843331e-04 -8.7372757324e-03 0.0000000000e+00 -8.0861408023e-04 -8.7485317753e-03 0.0000000000e+00 -8.0542034153e-04 -8.7591912290e-03 0.0000000000e+00 -8.4121266695e-04 -8.7680758649e-03 0.0000000000e+00 -8.3021136363e-04 -8.7753335877e-03 0.0000000000e+00 -8.7288293937e-04 -8.7720839464e-03 0.0000000000e+00 -8.5106382936e-04 -8.7681798804e-03 0.0000000000e+00 -9.0820472731e-04 -8.7547116555e-03 0.0000000000e+00 -8.6918276998e-04 -8.7341831265e-03 0.0000000000e+00 -1.0532305288e-03 -8.7026603551e-03 0.0000000000e+00 -1.0586970917e-03 -8.6985245172e-03 0.0000000000e+00 -9.9683419638e-04 -8.7189949994e-03 0.0000000000e+00 -1.0000977527e-03 -8.7479088102e-03 0.0000000000e+00 -1.0125705437e-03 -8.7683007362e-03 0.0000000000e+00 -1.0463983026e-03 -8.7844271054e-03 0.0000000000e+00 -1.0490091092e-03 -8.7975773313e-03 0.0000000000e+00 -1.0721164758e-03 -8.7906759096e-03 0.0000000000e+00 -1.0881558124e-03 -8.7783586490e-03 0.0000000000e+00 -1.0763992520e-03 -8.7470144919e-03 0.0000000000e+00 -1.2979330208e-03 -8.7047661646e-03 0.0000000000e+00 -1.3045234134e-03 -8.7072964066e-03 0.0000000000e+00 -1.2028805572e-03 -8.7357117330e-03 0.0000000000e+00 -1.2133993228e-03 -8.7831969429e-03 0.0000000000e+00 -1.2638512092e-03 -8.8003731781e-03 0.0000000000e+00 -1.2544083460e-03 -8.8243334673e-03 0.0000000000e+00 -1.3000539576e-03 -8.8002062735e-03 0.0000000000e+00 -1.2626629492e-03 -8.7804550173e-03 0.0000000000e+00 -1.4947399961e-03 -8.7188666566e-03 0.0000000000e+00 -1.5831575654e-03 -8.7134880551e-03 0.0000000000e+00 -1.3997568256e-03 -8.7563990031e-03 0.0000000000e+00 -1.4631889584e-03 -8.8187172111e-03 0.0000000000e+00 -1.4542029616e-03 -8.8450348446e-03 0.0000000000e+00 -1.5090216165e-03 -8.8520061241e-03 0.0000000000e+00 -1.4883881221e-03 -8.7912182871e-03 0.0000000000e+00 -1.7355486932e-03 -8.7469121711e-03 0.0000000000e+00 -1.8457440541e-03 -8.7336685306e-03 0.0000000000e+00 -1.5987525578e-03 -8.8091487153e-03 0.0000000000e+00 -1.7085661828e-03 -8.8709074785e-03 0.0000000000e+00 -1.6857607032e-03 -8.8946849190e-03 0.0000000000e+00 -1.7357090743e-03 -8.8215672432e-03 0.0000000000e+00 -1.9862680582e-03 -8.7680537500e-03 0.0000000000e+00 -2.0924791656e-03 -8.7656955675e-03 0.0000000000e+00 -1.8755666769e-03 -8.8482785832e-03 0.0000000000e+00 -1.8774986726e-03 -8.9462130209e-03 0.0000000000e+00 -1.9652126671e-03 -8.8742980343e-03 0.0000000000e+00 -2.1968382931e-03 -8.8053475060e-03 0.0000000000e+00 -2.3714036981e-03 -8.7876427969e-03 0.0000000000e+00 -2.1987055740e-03 -8.8623834817e-03 0.0000000000e+00 -2.0294030687e-03 -9.0155199844e-03 0.0000000000e+00 -2.3799618137e-03 -8.8459107865e-03 0.0000000000e+00 -2.4545475441e-03 -8.8534342542e-03 0.0000000000e+00 -2.8214032659e-03 -8.7854971734e-03 0.0000000000e+00 -2.1570917179e-03 -9.0579626162e-03 0.0000000000e+00 -2.6452745041e-03 -8.9052529838e-03 0.0000000000e+00 -2.7227255788e-03 -8.8760524372e-03 0.0000000000e+00 -3.2601330240e-03 -8.8227631458e-03 0.0000000000e+00 -2.3061419518e-03 -9.0670351782e-03 0.0000000000e+00 -3.1028644958e-03 -8.9872126675e-03 0.0000000000e+00 -3.3960989864e-03 -8.7054617487e-03 0.0000000000e+00 -3.1013208954e-03 -9.2083416418e-03 0.0000000000e+00 -3.1377809275e-03 -8.7086776688e-03 0.0000000000e+00 -3.3082830596e-03 -9.3762164640e-03 0.0000000000e+00 -4.5993628120e-03 -8.1882157145e-03 0.0000000000e+00 -2.1008071343e-03 -9.9996702682e-03 0.0000000000e+00 -5.6616228864e-03 -7.7715833460e-03 0.0000000000e+00 -3.1460851109e-03 -9.7613135865e-03 0.0000000000e+00 -4.3700324680e-03 -8.4360119589e-03 0.0000000000e+00 -5.6212393976e-03 -8.9214403439e-03 0.0000000000e+00 -3.0244326600e-03 -9.2025728739e-03 0.0000000000e+00 -7.3533209336e-03 -8.2822845870e-03 0.0000000000e+00 -3.1791425027e-03 -9.5775551428e-03 0.0000000000e+00 -8.3059447620e-03 -7.7248439206e-03 0.0000000000e+00 -3.5290264345e-03 -1.0242338015e-02 0.0000000000e+00 -1.0265083211e-02 -6.0937276535e-03 0.0000000000e+00 -4.7830691955e-03 -1.0340071046e-02 0.0000000000e+00 -1.0580018822e-02 -4.7026962552e-03 0.0000000000e+00 -8.0149215177e-03 -9.0567742812e-03 0.0000000000e+00 -1.1695085196e-02 -2.7495687110e-03 0.0000000000e+00 -1.0218515345e-02 -3.5213468314e-03 0.0000000000e+00
        </DataArray>
      </PointData>
    </Piece>
  </PolyData>
</VTKFile>
