<?xml version="1.0"?>
<VTKFile type="PolyData" version="0.1" byte_order="LittleEndian">
  <PolyData>
    <FieldData>
      <DataArray type="Float64" Name="TimeValue" NumberOfTuples="1" format="ascii">
        2.999999999999358e+01
      </DataArray>
    </FieldData>
    <Piece NumberOfPoints="398" NumberOfVerts="398" NumberOfLines="0" NumberOfStrips="0" NumberOfPolys="0">
      <Points>
        <DataArray type="Float64" NumberOfComponents="3" format="ascii">
          -4.9726094768e-01 5.2264231634e-02 0.0000000000e+00 -4.9591980461e-01 5.7187521354e-02 0.0000000000e+00 -4.9320742903e-01 6.1518265364e-02 0.0000000000e+00 -4.8960598536e-01 6.5153650837e-02 0.0000000000e+00 -4.8548567450e-01 6.8194643038e-02 0.0000000000e+00 -4.8105786906e-01 7.0770768034e-02 0.0000000000e+00 -4.7643787966e-01 7.2985647804e-02 0.0000000000e+00 -4.7169100133e-01 7.4914697529e-02 0.0000000000e+00 -4.6685629730e-01 7.6612338955e-02 0.0000000000e+00 -4.6195841863e-01 7.8118474475e-02 0.0000000000e+00 -4.5701365804e-01 7.9463020303e-02 0.0000000000e+00 -4.5203321881e-01 8.0668916425e-02 0.0000000000e+00 -4.4702506197e-01 8.1754126178e-02 0.0000000000e+00 -4.4199500846e-01 8.2732982305e-02 0.0000000000e+00 -4.3694742522e-01 8.3617112443e-02 0.0000000000e+00 -4.3188565927e-01 8.4416090884e-02 0.0000000000e+00 -4.2681230400e-01 8.5137908709e-02 0.0000000000e+00 -4.2172941653e-01 8.5789311244e-02 0.0000000000e+00 -4.1663865062e-01 8.6376052829e-02 0.0000000000e+00 -4.1154135992e-01 8.6903088373e-02 0.0000000000e+00 -4.0643863732e-01 8.7374723845e-02 0.0000000000e+00 -4.0133140546e-01 8.7794726707e-02 0.0000000000e+00 -3.9622042424e-01 8.8166419095e-02 0.0000000000e+00 -3.9110634740e-01 8.8492747356e-02 0.0000000000e+00 -3.8598972048e-01 8.8776341615e-02 0.0000000000e+00 -3.8087100981e-01 8.9019561684e-02 0.0000000000e+00 -3.7575063504e-01 8.9224534775e-02 0.0000000000e+00 -3.7062893181e-01 8.9393189274e-02 0.0000000000e+00 -3.6550619075e-01 8.9527279365e-02 0.0000000000e+00 -3.6038270739e-01 8.9628406450e-02 0.0000000000e+00 -3.5525869773e-01 8.9698040036e-02 0.0000000000e+00 -3.5013435246e-01 8.9737531833e-02 0.0000000000e+00 -3.4500987690e-01 8.9748129328e-02 0.0000000000e+00 -3.3988541842e-01 8.9730987908e-02 0.0000000000e+00 -3.3476111444e-01 8.9687180276e-02 0.0000000000e+00 -3.2963709471e-01 8.9617705257e-02 0.0000000000e+00 -3.2451348064e-01 8.9523495400e-02 0.0000000000e+00 -3.1939034143e-01 8.9405422449e-02 0.0000000000e+00 -3.1426779881e-01 8.9264305217e-02 0.0000000000e+00 -3.0914591206e-01 8.9100912041e-02 0.0000000000e+00 -3.0402476307e-01 8.8915967270e-02 0.0000000000e+00 -2.9890440772e-01 8.8710153739e-02 0.0000000000e+00 -2.9378490850e-01 8.8484117338e-02 0.0000000000e+00 -2.8866631015e-01 8.8238469120e-02 0.0000000000e+00 -2.8354865267e-01 8.7973788508e-02 0.0000000000e+00 -2.7843198600e-01 8.7690626604e-02 0.0000000000e+00 -2.7331635766e-01 8.7389507892e-02 0.0000000000e+00 -2.6820177024e-01 8.7070929522e-02 0.0000000000e+00 -2.6308828316e-01 8.6735369256e-02 0.0000000000e+00 -2.5797588368e-01 8.6383278975e-02 0.0000000000e+00 -2.5286463554e-01 8.6015095985e-02 0.0000000000e+00 -2.4775456034e-01 8.5631236490e-02 0.0000000000e+00 -2.4264563136e-01 8.5232095683e-02 0.0000000000e+00 -2.3753787536e-01 8.4818056587e-02 0.0000000000e+00 -2.3243133189e-01 8.4389488400e-02 0.0000000000e+00 -2.2732604551e-01 8.3946746927e-02 0.0000000000e+00 -2.2222190001e-01 8.3490160448e-02 0.0000000000e+00 -2.1711899509e-01 8.3020063562e-02 0.0000000000e+00 -2.1201736213e-01 8.2536773495e-02 0.0000000000e+00 -2.0691697960e-01 8.2040591368e-02 0.0000000000e+00 -2.0181778048e-01 8.1531802906e-02 0.0000000000e+00 -1.9671983644e-01 8.1010697525e-02 0.0000000000e+00 -1.9162315737e-01 8.0477549322e-02 0.0000000000e+00 -1.8652775518e-01 7.9932623721e-02 0.0000000000e+00 -1.8143354438e-01 7.9376166968e-02 0.0000000000e+00 -1.7634058775e-01 7.8808433128e-02 0.0000000000e+00 -1.7124890276e-01 7.8229663908e-02 0.0000000000e+00 -1.6615843046e-01 7.7640084880e-02 0.0000000000e+00 -1.6106919074e-01 7.7039923480e-02 0.0000000000e+00 -1.5598117717e-01 7.6429397432e-02 0.0000000000e+00 -1.5089442149e-01 7.5808722703e-02 0.0000000000e+00 -1.4580891223e-01 7.5178103979e-02 0.0000000000e+00 -1.4072455773e-01 7.4537729809e-02 0.0000000000e+00 -1.3564143273e-01 7.3887803843e-02 0.0000000000e+00 -1.3055953602e-01 7.3228514974e-02 0.0000000000e+00 -1.2547885669e-01 7.2560045603e-02 0.0000000000e+00 -1.2039932696e-01 7.1882565420e-02 0.0000000000e+00 -1.1532097276e-01 7.1196251579e-02 0.0000000000e+00 -1.1024384833e-01 7.0501280681e-02 0.0000000000e+00 -1.0516789419e-01 6.9797809381e-02 0.0000000000e+00 -1.0009305693e-01 6.9085990467e-02 0.0000000000e+00 -9.5019385779e-02 6.8365986871e-02 0.0000000000e+00 -8.9946876275e-02 6.7637950065e-02 0.0000000000e+00 -8.4875512802e-02 6.6902025973e-02 0.0000000000e+00 -7.9805266057e-02 6.6158354627e-02 0.0000000000e+00 -7.4736119229e-02 6.5407074084e-02 0.0000000000e+00 -6.9668110663e-02 6.4648327056e-02 0.0000000000e+00 -6.4601223625e-02 6.3882244673e-02 0.0000000000e+00 -5.9535406374e-02 6.3108949253e-02 0.0000000000e+00 -5.4470657317e-02 6.2328567330e-02 0.0000000000e+00 -4.9407032488e-02 6.1541231275e-02 0.0000000000e+00 -4.4344451672e-02 6.0747049224e-02 0.0000000000e+00 -3.9282923158e-02 5.9946139943e-02 0.0000000000e+00 -3.4222445485e-02 5.9138617762e-02 0.0000000000e+00 -2.9163037454e-02 5.8324597432e-02 0.0000000000e+00 -2.4104648617e-02 5.7504179745e-02 0.0000000000e+00 -1.9047261811e-02 5.6677467985e-02 0.0000000000e+00 -1.3990893842e-02 5.5844568318e-02 0.0000000000e+00 -8.9355444057e-03 5.5005581552e-02 0.0000000000e+00 -3.8812175905e-03 5.4160606701e-02 0.0000000000e+00 1.1721998069e-03 5.3309720494e-02 0.0000000000e+00 6.2245485523e-03 5.2453043054e-02 0.0000000000e+00 1.1275943392e-02 5.1590645938e-02 0.0000000000e+00 1.6326440609e-02 5.0722607920e-02 0.0000000000e+00 2.1375943892e-02 4.9849031720e-02 0.0000000000e+00 2.6424457110e-02 4.8970000753e-02 0.0000000000e+00 3.1472011504e-02 4.8085591397e-02 0.0000000000e+00 3.6518701143e-02 4.7195866621e-02 0.0000000000e+00 4.1564441327e-02 4.6300918671e-02 0.0000000000e+00 4.6609230112e-02 4.5400823257e-02 0.0000000000e+00 5.1653173445e-02 4.4495634621e-02 0.0000000000e+00 5.6696228622e-02 4.3585431459e-02 0.0000000000e+00 6.1738361294e-02 4.2670289132e-02 0.0000000000e+00 6.6779564021e-02 4.1750276257e-02 0.0000000000e+00 7.1819899165e-02 4.0825446710e-02 0.0000000000e+00 7.6859356703e-02 3.9895865608e-02 0.0000000000e+00 8.1898008641e-02 3.8961580986e-02 0.0000000000e+00 8.6935705941e-02 3.8022680059e-02 0.0000000000e+00 9.1972611128e-02 3.7079190280e-02 0.0000000000e+00 9.7008668669e-02 3.6131177844e-02 0.0000000000e+00 1.0204386087e-01 3.5178700202e-02 0.0000000000e+00 1.0707827097e-01 3.4221793894e-02 0.0000000000e+00 1.1211171891e-01 3.3260543822e-02 0.0000000000e+00 1.1714445382e-01 3.2294951292e-02 0.0000000000e+00 1.2217637967e-01 3.1325081711e-02 0.0000000000e+00 1.2720736077e-01 3.0351006860e-02 0.0000000000e+00 1.3223761875e-01 2.9372727682e-02 0.0000000000e+00 1.3726706297e-01 2.8390303861e-02 0.0000000000e+00 1.4229572061e-01 2.7403770609e-02 0.0000000000e+00 1.4732360119e-01 2.6413164931e-02 0.0000000000e+00 1.5235059578e-01 2.5418545708e-02 0.0000000000e+00 1.5737688659e-01 2.4419912645e-02 0.0000000000e+00 1.6240234385e-01 2.3417325663e-02 0.0000000000e+00 1.6742696646e-01 2.2410817741e-02 0.0000000000e+00 1.7245085770e-01 2.1400399305e-02 0.0000000000e+00 1.7747398558e-01 2.0386106299e-02 0.0000000000e+00 1.8249635644e-01 1.9367965495e-02 0.0000000000e+00 1.8751791564e-01 1.8346014588e-02 0.0000000000e+00 1.9253867441e-01 1.7320276492e-02 0.0000000000e+00 1.9755867528e-01 1.6290766192e-02 0.0000000000e+00 2.0257793396e-01 1.5257502622e-02 0.0000000000e+00 2.0759639625e-01 1.4220517707e-02 0.0000000000e+00 2.1261408588e-01 1.3179825911e-02 0.0000000000e+00 2.1763104490e-01 1.2135436390e-02 0.0000000000e+00 2.2264726018e-01 1.1087368318e-02 0.0000000000e+00 2.2766268318e-01 1.0035646948e-02 0.0000000000e+00 2.3267726296e-01 8.9802968007e-03 0.0000000000e+00 2.3769115605e-01 7.9212972708e-03 0.0000000000e+00 2.4270427261e-01 6.8586782309e-03 0.0000000000e+00 2.4771659633e-01 5.7924527911e-03 0.0000000000e+00 2.5272819058e-01 4.7226157199e-03 0.0000000000e+00 2.5773898461e-01 3.6491890353e-03 0.0000000000e+00 2.6274907064e-01 2.5721585331e-03 0.0000000000e+00 2.6775833653e-01 1.4915525741e-03 0.0000000000e+00 2.7276680970e-01 4.0736826173e-04 0.0000000000e+00 2.7777451790e-01 -6.8039875983e-04 0.0000000000e+00 2.8278146879e-01 -1.7717498540e-03 0.0000000000e+00 2.8778759011e-01 -2.8666701914e-03 0.0000000000e+00 2.9279294031e-01 -3.9651747581e-03 0.0000000000e+00 2.9779755351e-01 -5.0672746270e-03 0.0000000000e+00 3.0280135913e-01 -6.1729590882e-03 0.0000000000e+00 3.0780438244e-01 -7.2822397704e-03 0.0000000000e+00 3.1280650594e-01 -8.3950978319e-03 0.0000000000e+00 3.1780794456e-01 -9.5115896717e-03 0.0000000000e+00 3.2280852738e-01 -1.0631687020e-02 0.0000000000e+00 3.2780825022e-01 -1.1755399878e-02 0.0000000000e+00 3.3280721108e-01 -1.2882762556e-02 0.0000000000e+00 3.3780534714e-01 -1.4013774448e-02 0.0000000000e+00 3.4280265335e-01 -1.5148449133e-02 0.0000000000e+00 3.4779915549e-01 -1.6286808434e-02 0.0000000000e+00 3.5279469994e-01 -1.7428834392e-02 0.0000000000e+00 3.5778950179e-01 -1.8574594513e-02 0.0000000000e+00 3.6278342043e-01 -1.9724076172e-02 0.0000000000e+00 3.6777640315e-01 -2.0877287849e-02 0.0000000000e+00 3.7276860129e-01 -2.2034286424e-02 0.0000000000e+00 3.7775992822e-01 -2.3195075031e-02 0.0000000000e+00 3.8275032602e-01 -2.4359664423e-02 0.0000000000e+00 3.8773987974e-01 -2.5528099898e-02 0.0000000000e+00 3.9272844614e-01 -2.6700374472e-02 0.0000000000e+00 3.9771614086e-01 -2.7876543029e-02 0.0000000000e+00 4.0270291178e-01 -2.9056622242e-02 0.0000000000e+00 4.0768869791e-01 -3.0240627667e-02 0.0000000000e+00 4.1267361642e-01 -3.1428618368e-02 0.0000000000e+00 4.1765755604e-01 -3.2620600225e-02 0.0000000000e+00 4.2264052151e-01 -3.3816607805e-02 0.0000000000e+00 4.2762255447e-01 -3.5016685743e-02 0.0000000000e+00 4.3260353408e-01 -3.6220840625e-02 0.0000000000e+00 4.3758354093e-01 -3.7429128723e-02 0.0000000000e+00 4.4256256770e-01 -3.8641586290e-02 0.0000000000e+00 4.4754046411e-01 -3.9858215695e-02 0.0000000000e+00 4.5251740906e-01 -4.1079100795e-02 0.0000000000e+00 4.5749335137e-01 -4.2304270474e-02 0.0000000000e+00 4.6246815394e-01 -4.3533733300e-02 0.0000000000e+00 4.6744192511e-01 -4.4767559442e-02 0.0000000000e+00 4.7241451575e-01 -4.6005756378e-02 0.0000000000e+00 4.7738608692e-01 -4.7248409814e-02 0.0000000000e+00 4.8235650207e-01 -4.8495532369e-02 0.0000000000e+00 4.8732575854e-01 -4.9747171040e-02 0.0000000000e+00 4.9229400251e-01 -5.1003411632e-02 0.0000000000e+00 4.9726094768e-01 -5.2264231634e-02 0.0000000000e+00 4.9214040296e-01 -5.2464813724e-02 0.0000000000e+00 4.8701953993e-01 -5.2660646441e-02 0.0000000000e+00 4.8189864333e-01 -5.2851767290e-02 0.0000000000e+00 4.7677755232e-01 -5.3038229807e-02 0.0000000000e+00 4.7165625973e-01 -5.3220080515e-02 0.0000000000e+00 4.6653489650e-01 -5.3397360149e-02 0.0000000000e+00 4.6141328729e-01 -5.3570119057e-02 0.0000000000e+00 4.5629157639e-01 -5.3738395555e-02 0.0000000000e+00 4.5116964327e-01 -5.3902235761e-02 0.0000000000e+00 4.4604762022e-01 -5.4061676551e-02 0.0000000000e+00 4.4092555131e-01 -5.4216756824e-02 0.0000000000e+00 4.3580324412e-01 -5.4367521411e-02 0.0000000000e+00 4.3068084515e-01 -5.4514003871e-02 0.0000000000e+00 4.2555835402e-01 -5.4656241187e-02 0.0000000000e+00 4.2043568020e-01 -5.4794271646e-02 0.0000000000e+00 4.1531294051e-01 -5.4928126814e-02 0.0000000000e+00 4.1019008497e-01 -5.5057841695e-02 0.0000000000e+00 4.0506710173e-01 -5.5183449112e-02 0.0000000000e+00 3.9994409843e-01 -5.5304977955e-02 0.0000000000e+00 3.9482094815e-01 -5.5422461631e-02 0.0000000000e+00 3.8969770733e-01 -5.5535928040e-02 0.0000000000e+00 3.8457442349e-01 -5.5645404327e-02 0.0000000000e+00 3.7945097209e-01 -5.5750920133e-02 0.0000000000e+00 3.7432749471e-01 -5.5852498408e-02 0.0000000000e+00 3.6920389872e-01 -5.5950165778e-02 0.0000000000e+00 3.6408023857e-01 -5.6043944803e-02 0.0000000000e+00 3.5895659830e-01 -5.6133856558e-02 0.0000000000e+00 3.5383281810e-01 -5.6219925217e-02 0.0000000000e+00 3.4870894773e-01 -5.6302170032e-02 0.0000000000e+00 3.4358512736e-01 -5.6380607890e-02 0.0000000000e+00 3.3846113257e-01 -5.6455260100e-02 0.0000000000e+00 3.3333711736e-01 -5.6526141037e-02 0.0000000000e+00 3.2821305197e-01 -5.6593266688e-02 0.0000000000e+00 3.2308893851e-01 -5.6656651381e-02 0.0000000000e+00 3.1796483857e-01 -5.6716307587e-02 0.0000000000e+00 3.1284064916e-01 -5.6772248492e-02 0.0000000000e+00 3.0771637227e-01 -5.6824484747e-02 0.0000000000e+00 3.0259218097e-01 -5.6873024235e-02 0.0000000000e+00 2.9746785329e-01 -5.6917877437e-02 0.0000000000e+00 2.9234350810e-01 -5.6959050352e-02 0.0000000000e+00 2.8721911827e-01 -5.6996549104e-02 0.0000000000e+00 2.8209475503e-01 -5.7030377886e-02 0.0000000000e+00 2.7697038274e-01 -5.7060540439e-02 0.0000000000e+00 2.7184594108e-01 -5.7087039267e-02 0.0000000000e+00 2.6672150384e-01 -5.7109874891e-02 0.0000000000e+00 2.6159706323e-01 -5.7129047050e-02 0.0000000000e+00 2.5647259122e-01 -5.7144554236e-02 0.0000000000e+00 2.5134806035e-01 -5.7156393579e-02 0.0000000000e+00 2.4622358623e-01 -5.7164560656e-02 0.0000000000e+00 2.4109907571e-01 -5.7169050186e-02 0.0000000000e+00 2.3597460255e-01 -5.7169855343e-02 0.0000000000e+00 2.3085010370e-01 -5.7166968068e-02 0.0000000000e+00 2.2572559782e-01 -5.7160378926e-02 0.0000000000e+00 2.2060117901e-01 -5.7150077380e-02 0.0000000000e+00 2.1547668986e-01 -5.7136051039e-02 0.0000000000e+00 2.1035218532e-01 -5.7118286508e-02 0.0000000000e+00 2.0522771809e-01 -5.7096769179e-02 0.0000000000e+00 2.0010330503e-01 -5.7071483028e-02 0.0000000000e+00 1.9497890690e-01 -5.7042410356e-02 0.0000000000e+00 1.8985450348e-01 -5.7009532077e-02 0.0000000000e+00 1.8473015445e-01 -5.6972828238e-02 0.0000000000e+00 1.7960584836e-01 -5.6932277051e-02 0.0000000000e+00 1.7448154674e-01 -5.6887855015e-02 0.0000000000e+00 1.6935724336e-01 -5.6839537383e-02 0.0000000000e+00 1.6423299950e-01 -5.6787298642e-02 0.0000000000e+00 1.5910881454e-01 -5.6731111290e-02 0.0000000000e+00 1.5398472721e-01 -5.6670946815e-02 0.0000000000e+00 1.4886063870e-01 -5.6606773550e-02 0.0000000000e+00 1.4373655692e-01 -5.6538559464e-02 0.0000000000e+00 1.3861262126e-01 -5.6466272926e-02 0.0000000000e+00 1.3348865342e-01 -5.6389876340e-02 0.0000000000e+00 1.2836477223e-01 -5.6309334762e-02 0.0000000000e+00 1.2324097603e-01 -5.6224610014e-02 0.0000000000e+00 1.1811724558e-01 -5.6135662002e-02 0.0000000000e+00 1.1299368194e-01 -5.6042451195e-02 0.0000000000e+00 1.0787006851e-01 -5.5944930586e-02 0.0000000000e+00 1.0274655297e-01 -5.5843058179e-02 0.0000000000e+00 9.7623242809e-02 -5.5736789958e-02 0.0000000000e+00 9.2499894644e-02 -5.5626072852e-02 0.0000000000e+00 8.7376702232e-02 -5.5510861246e-02 0.0000000000e+00 8.2253591763e-02 -5.5391102098e-02 0.0000000000e+00 7.7130592483e-02 -5.5266742888e-02 0.0000000000e+00 7.2007772477e-02 -5.5137730413e-02 0.0000000000e+00 6.6884978478e-02 -5.5004004031e-02 0.0000000000e+00 6.1762374400e-02 -5.4865509418e-02 0.0000000000e+00 5.6639899797e-02 -5.4722184619e-02 0.0000000000e+00 5.1517578012e-02 -5.4573968022e-02 0.0000000000e+00 4.6395359247e-02 -5.4420793964e-02 0.0000000000e+00 4.1273265047e-02 -5.4262596875e-02 0.0000000000e+00 3.6151344678e-02 -5.4099310180e-02 0.0000000000e+00 3.1029656272e-02 -5.3930865784e-02 0.0000000000e+00 2.5908107476e-02 -5.3757188601e-02 0.0000000000e+00 2.0786715931e-02 -5.3578204980e-02 0.0000000000e+00 1.5665583667e-02 -5.3393842301e-02 0.0000000000e+00 1.0544631760e-02 -5.3204019413e-02 0.0000000000e+00 5.4238455346e-03 -5.3008655112e-02 0.0000000000e+00 3.0323854710e-04 -5.2807667001e-02 0.0000000000e+00 -4.8170736379e-03 -5.2600974629e-02 0.0000000000e+00 -9.9371296962e-03 -5.2388489241e-02 0.0000000000e+00 -1.5057026989e-02 -5.2170116987e-02 0.0000000000e+00 -2.0176584787e-02 -5.1945773477e-02 0.0000000000e+00 -2.5295897865e-02 -5.1715360119e-02 0.0000000000e+00 -3.0414941641e-02 -5.1478780917e-02 0.0000000000e+00 -3.5533695451e-02 -5.1235937199e-02 0.0000000000e+00 -4.0652120784e-02 -5.0986728615e-02 0.0000000000e+00 -4.5770212954e-02 -5.0731050570e-02 0.0000000000e+00 -5.0888000350e-02 -5.0468793984e-02 0.0000000000e+00 -5.6005440725e-02 -5.0199850525e-02 0.0000000000e+00 -6.1122511737e-02 -4.9924108055e-02 0.0000000000e+00 -6.6239180585e-02 -4.9641452129e-02 0.0000000000e+00 -7.1355503248e-02 -4.9351760294e-02 0.0000000000e+00 -7.6471397397e-02 -4.9054914724e-02 0.0000000000e+00 -8.1586838279e-02 -4.8750791317e-02 0.0000000000e+00 -8.6701851077e-02 -4.8439259672e-02 0.0000000000e+00 -9.1816424892e-02 -4.8120188045e-02 0.0000000000e+00 -9.6930492547e-02 -4.7793444814e-02 0.0000000000e+00 -1.0204404178e-01 -4.7458891444e-02 0.0000000000e+00 -1.0715707215e-01 -4.7116384871e-02 0.0000000000e+00 -1.1226956858e-01 -4.6765779115e-02 0.0000000000e+00 -1.1738150394e-01 -4.6406925081e-02 0.0000000000e+00 -1.2249279621e-01 -4.6039673639e-02 0.0000000000e+00 -1.2760346587e-01 -4.5663864229e-02 0.0000000000e+00 -1.3271353851e-01 -4.5279331259e-02 0.0000000000e+00 -1.3782292438e-01 -4.4885913259e-02 0.0000000000e+00 -1.4293156128e-01 -4.4483442340e-02 0.0000000000e+00 -1.4803948021e-01 -4.4071738429e-02 0.0000000000e+00 -1.5314665394e-01 -4.3650620840e-02 0.0000000000e+00 -1.5825304438e-01 -4.3219904557e-02 0.0000000000e+00 -1.6335853606e-01 -4.2779405918e-02 0.0000000000e+00 -1.6846317945e-01 -4.2328921443e-02 0.0000000000e+00 -1.7356694323e-01 -4.1868248527e-02 0.0000000000e+00 -1.7866975142e-01 -4.1397182525e-02 0.0000000000e+00 -1.8377156506e-01 -4.0915509135e-02 0.0000000000e+00 -1.8887231740e-01 -4.0423010023e-02 0.0000000000e+00 -1.9397201921e-01 -3.9919452293e-02 0.0000000000e+00 -1.9907060315e-01 -3.9404603149e-02 0.0000000000e+00 -2.0416795498e-01 -3.8878227134e-02 0.0000000000e+00 -2.0926410713e-01 -3.8340065606e-02 0.0000000000e+00 -2.1435899276e-01 -3.7789861420e-02 0.0000000000e+00 -2.1945254522e-01 -3.7227348521e-02 0.0000000000e+00 -2.2454463421e-01 -3.6652258723e-02 0.0000000000e+00 -2.2963526591e-01 -3.6064298608e-02 0.0000000000e+00 -2.3472439875e-01 -3.5463169159e-02 0.0000000000e+00 -2.3981193609e-01 -3.4848566607e-02 0.0000000000e+00 -2.4489771085e-01 -3.4220184393e-02 0.0000000000e+00 -2.4998176842e-01 -3.3577677250e-02 0.0000000000e+00 -2.5506399126e-01 -3.2920706413e-02 0.0000000000e+00 -2.6014426393e-01 -3.2248918972e-02 0.0000000000e+00 -2.6522248061e-01 -3.1561945841e-02 0.0000000000e+00 -2.7029858526e-01 -3.0859394906e-02 0.0000000000e+00 -2.7537247023e-01 -3.0140863550e-02 0.0000000000e+00 -2.8044398225e-01 -2.9405937276e-02 0.0000000000e+00 -2.8551303983e-01 -2.8654171425e-02 0.0000000000e+00 -2.9057948552e-01 -2.7885111033e-02 0.0000000000e+00 -2.9564321341e-01 -2.7098270352e-02 0.0000000000e+00 -3.0070406800e-01 -2.6293146236e-02 0.0000000000e+00 -3.0576188583e-01 -2.5469210014e-02 0.0000000000e+00 -3.1081650731e-01 -2.4625903240e-02 0.0000000000e+00 -3.1586776165e-01 -2.3762637513e-02 0.0000000000e+00 -3.2091545343e-01 -2.2878794051e-02 0.0000000000e+00 -3.2595938602e-01 -2.1973716558e-02 0.0000000000e+00 -3.3099932872e-01 -2.1046713543e-02 0.0000000000e+00 -3.3603506379e-01 -2.0097045782e-02 0.0000000000e+00 -3.4106630193e-01 -1.9123937664e-02 0.0000000000e+00 -3.4609279420e-01 -1.8126550881e-02 0.0000000000e+00 -3.5111422796e-01 -1.7103998506e-02 0.0000000000e+00 -3.5613026864e-01 -1.6055330517e-02 0.0000000000e+00 -3.6114055876e-01 -1.4979526225e-02 0.0000000000e+00 -3.6614471400e-01 -1.3875486128e-02 0.0000000000e+00 -3.7114227411e-01 -1.2742032692e-02 0.0000000000e+00 -3.7613277157e-01 -1.1577883387e-02 0.0000000000e+00 -3.8111568954e-01 -1.0381645731e-02 0.0000000000e+00 -3.8609040603e-01 -9.1518147596e-03 0.0000000000e+00 -3.9105627202e-01 -7.8867350466e-03 0.0000000000e+00 -3.9601255828e-01 -6.5845901298e-03 0.0000000000e+00 -4.0095841207e-01 -5.2433865304e-03 0.0000000000e+00 -4.0589288660e-01 -3.8609129621e-03 0.0000000000e+00 -4.1081490142e-01 -2.4347101989e-03 0.0000000000e+00 -4.1572320451e-01 -9.6203219494e-04 0.0000000000e+00 -4.2061636185e-01 5.6021259395e-04 0.0000000000e+00 -4.2549268766e-01 2.1355174736e-03 0.0000000000e+00 -4.3035021769e-01 3.7678670960e-03 0.0000000000e+00 -4.3518659767e-01 5.4618266507e-03 0.0000000000e+00 -4.3999901359e-01 7.2226808961e-03 0.0000000000e+00 -4.4478405085e-01 9.0566000589e-03 0.0000000000e+00 -4.4953751130e-01 1.0970861400e-02 0.0000000000e+00 -4.5425413044e-01 1.2974134101e-02 0.0000000000e+00 -4.5892721924e-01 1.5076883774e-02 0.0000000000e+00 -4.6354810402e-01 1.7291919714e-02 0.0000000000e+00 -4.6810526293e-01 1.9635157524e-02 0.0000000000e+00 -4.7258296803e-01 2.2126706606e-02 0.0000000000e+00 -4.7695906267e-01 2.4792441981e-02 0.0000000000e+00 -4.8120113833e-01 2.7666268843e-02 0.0000000000e+00 -4.8525967047e-01 3.0793297982e-02 0.0000000000e+00 -4.8905511125e-01 3.4233720983e-02 0.0000000000e+00 -4.9245312560e-01 3.8064921006e-02 0.0000000000e+00 -4.9522002994e-01 4.2369646827e-02 0.0000000000e+00 -4.9697272129e-01 4.7169688282e-02 0.0000000000e+00
        </DataArray>
      </Points>
      <Verts>
        <DataArray type="Int64" Name="connectivity" format="ascii">
          0 1 2 3 4 5 6 7 8 9 10 11 12 13 14 15 16 17 18 19 20 21 22 23 24 25 26 27 28 29 30 31 32 33 34 35 36 37 38 39 40 41 42 43 44 45 46 47 48 49 50 51 52 53 54 55 56 57 58 59 60 61 62 63 64 65 66 67 68 69 70 71 72 73 74 75 76 77 78 79 80 81 82 83 84 85 86 87 88 89 90 91 92 93 94 95 96 97 98 99 100 101 102 103 104 105 106 107 108 109 110 111 112 113 114 115 116 117 118 119 120 121 122 123 124 125 126 127 128 129 130 131 132 133 134 135 136 137 138 139 140 141 142 143 144 145 146 147 148 149 150 151 152 153 154 155 156 157 158 159 160 161 162 163 164 165 166 167 168 169 170 171 172 173 174 175 176 177 178 179 180 181 182 183 184 185 186 187 188 189 190 191 192 193 194 195 196 197 198 199 200 201 202 203 204 205 206 207 208 209 210 211 212 213 214 215 216 217 218 219 220 221 222 223 224 225 226 227 228 229 230 231 232 233 234 235 236 237 238 239 240 241 242 243 244 245 246 247 248 249 250 251 252 253 254 255 256 257 258 259 260 261 262 263 264 265 266 267 268 269 270 271 272 273 274 275 276 277 278 279 280 281 282 283 284 285 286 287 288 289 290 291 292 293 294 295 296 297 298 299 300 301 302 303 304 305 306 307 308 309 310 311 312 313 314 315 316 317 318 319 320 321 322 323 324 325 326 327 328 329 330 331 332 333 334 335 336 337 338 339 340 341 342 343 344 345 346 347 348 349 350 351 352 353 354 355 356 357 358 359 360 361 362 363 364 365 366 367 368 369 370 371 372 373 374 375 376 377 378 379 380 381 382 383 384 385 386 387 388 389 390 391 392 393 394 395 396 397
        </DataArray>
        <DataArray type="Int64" Name="offsets" format="ascii">
          1 2 3 4 5 6 7 8 9 10 11 12 13 14 15 16 17 18 19 20 21 22 23 24 25 26 27 28 29 30 31 32 33 34 35 36 37 38 39 40 41 42 43 44 45 46 47 48 49 50 51 52 53 54 55 56 57 58 59 60 61 62 63 64 65 66 67 68 69 70 71 72 73 74 75 76 77 78 79 80 81 82 83 84 85 86 87 88 89 90 91 92 93 94 95 96 97 98 99 100 101 102 103 104 105 106 107 108 109 110 111 112 113 114 115 116 117 118 119 120 121 122 123 124 125 126 127 128 129 130 131 132 133 134 135 136 137 138 139 140 141 142 143 144 145 146 147 148 149 150 151 152 153 154 155 156 157 158 159 160 161 162 163 164 165 166 167 168 169 170 171 172 173 174 175 176 177 178 179 180 181 182 183 184 185 186 187 188 189 190 191 192 193 194 195 196 197 198 199 200 201 202 203 204 205 206 207 208 209 210 211 212 213 214 215 216 217 218 219 220 221 222 223 224 225 226 227 228 229 230 231 232 233 234 235 236 237 238 239 240 241 242 243 244 245 246 247 248 249 250 251 252 253 254 255 256 257 258 259 260 261 262 263 264 265 266 267 268 269 270 271 272 273 274 275 276 277 278 279 280 281 282 283 284 285 286 287 288 289 290 291 292 293 294 295 296 297 298 299 300 301 302 303 304 305 306 307 308 309 310 311 312 313 314 315 316 317 318 319 320 321 322 323 324 325 326 327 328 329 330 331 332 333 334 335 336 337 338 339 340 341 342 343 344 345 346 347 348 349 350 351 352 353 354 355 356 357 358 359 360 361 362 363 364 365 366 367 368 369 370 371 372 373 374 375 376 377 378 379 380 381 382 383 384 385 386 387 388 389 390 391 392 393 394 395 396 397 398
        </DataArray>
      </Verts>
      <PointData>
        <DataArray type="Float64" Name="velocity" NumberOfComponents="3" format="ascii">
          0.0000000000e+00 0.0000000000e+00 0.0000000000e+00 0.0000000000e+00 0.0000000000e+00 0.0000000000e+00 0.0000000000e+00 0.0000000000e+00 0.0000000000e+00 0.0000000000e+00 0.0000000000e+00 0.0000000000e+00 0.0000000000e+00 0.0000000000e+00 0.0000000000e+00 0.0000000000e+00 0.0000000000e+00 0.0000000000e+00 0.0000000000e+00 0.0000000000e+00 0.0000000000e+00 0.0000000000e+00 0.0000000000e+00 0.0000000000e+00 0.0000000000e+00 0.0000000000e+00 0.0000000000e+00 0.0000000000e+00 0.0000000000e+00 0.0000000000e+00 0.0000000000e+00 0.0000000000e+00 0.0000000000e+00 0.0000000000e+00 0.0000000000e+00 0.0000000000e+00 0.0000000000e+00 0.0000000000e+00 0.0000000000e+00 0.0000000000e+00 0.0000000000e+00 0.0000000000e+00 0.0000000000e+00 0.0000000000e+00 0.0000000000e+00 0.0000000000e+00 0.0000000000e+00 0.0000000000e+00 0.0000000000e+00 0.0000000000e+00 0.0000000000e+00 0.0000000000e+00 0.0000000000e+00 0.0000000000e+00 0.0000000000e+00 0.0000000000e+00 0.0000000000e+00 0.0000000000e+00 0.0000000000e+00 0.0000000000e+00 0.0000000000e+00 0.0000000000e+00 0.0000000000e+00 0.0000000000e+00 0.0000000000e+00 0.0000000000e+00 0.0000000000e+00 0.0000000000e+00 0.0000000000e+00 0.0000000000e+00 0.0000000000e+00 0.0000000000e+00 0.0000000000e+00 0.0000000000e+00 0.0000000000e+00 0.0000000000e+00 0.0000000000e+00 0.0000000000e+00 0.0000000000e+00 0.0000000000e+00 0.0000000000e+00 0.0000000000e+00 0.0000000000e+00 0.0000000000e+00 0.0000000000e+00 0.0000000000e+00 0.0000000000e+00 0.0000000000e+00 0.0000000000e+00 0.0000000000e+00 0.0000000000e+00 0.0000000000e+00 0.0000000000e+00 0.0000000000e+00 0.0000000000e+00 0.0000000000e+00 0.0000000000e+00 0.0000000000e+00 0.0000000000e+00 0.0000000000e+00 0.0000000000e+00 0.0000000000e+00 0.0000000000e+00 0.0000000000e+00 0.0000000000e+00 0.0000000000e+00 0.0000000000e+00 0.0000000000e+00 0.0000000000e+00 0.0000000000e+00 0.0000000000e+00 0.0000000000e+00 0.0000000000e+00 0.0000000000e+00 0.0000000000e+00 0.0000000000e+00 0.0000000000e+00 0.0000000000e+00 0.0000000000e+00 0.0000000000e+00 0.0000000000e+00 0.0000000000e+00 0.0000000000e+00 0.0000000000e+00 0.0000000000e+00 0.0000000000e+00 0.0000000000e+00 0.0000000000e+00 0.0000000000e+00 0.0000000000e+00 0.0000000000e+00 0.0000000000e+00 0.0000000000e+00 0.0000000000e+00 0.0000000000e+00 0.0000000000e+00 0.0000000000e+00 0.0000000000e+00 0.0000000000e+00 0.0000000000e+00 0.0000000000e+00 0.0000000000e+00 0.0000000000e+00 0.0000000000e+00 0.0000000000e+00 0.0000000000e+00 0.0000000000e+00 0.0000000000e+00 0.0000000000e+00 0.0000000000e+00 0.0000000000e+00 0.0000000000e+00 0.0000000000e+00 0.0000000000e+00 0.0000000000e+00 0.0000000000e+00 0.0000000000e+00 0.0000000000e+00 0.0000000000e+00 0.0000000000e+00 0.0000000000e+00 0.0000000000e+00 0.0000000000e+00 0.0000000000e+00 0.0000000000e+00 0.0000000000e+00 0.0000000000e+00 0.0000000000e+00 0.0000000000e+00 0.0000000000e+00 0.0000000000e+00 0.0000000000e+00 0.0000000000e+00 0.0000000000e+00 0.0000000000e+00 0.0000000000e+00 0.0000000000e+00 0.0000000000e+00 0.0000000000e+00 0.0000000000e+00 0.0000000000e+00 0.0000000000e+00 0.0000000000e+00 0.0000000000e+00 0.0000000000e+00 0.0000000000e+00 0.0000000000e+00 0.0000000000e+00 0.0000000000e+00 0.0000000000e+00 0.0000000000e+00 0.0000000000e+00 0.0000000000e+00 0.0000000000e+00 0.0000000000e+00 0.0000000000e+00 0.0000000000e+00 0.0000000000e+00 0.0000000000e+00 0.0000000000e+00 0.0000000000e+00 0.0000000000e+00 0.0000000000e+00 0.0000000000e+00 0.0000000000e+00 0.0000000000e+00 0.0000000000e+00 0.0000000000e+00 0.0000000000e+00 0.0000000000e+00 0.0000000000e+00 0.0000000000e+00 0.0000000000e+00 0.0000000000e+00 0.0000000000e+00 0.0000000000e+00 0.0000000000e+00 0.0000000000e+00 0.0000000000e+00 0.0000000000e+00 0.0000000000e+00 0.0000000000e+00 0.0000000000e+00 0.0000000000e+00 0.0000000000e+00 0.0000000000e+00 0.0000000000e+00 0.0000000000e+00 0.0000000000e+00 0.0000000000e+00 0.0000000000e+00 0.0000000000e+00 0.0000000000e+00 0.0000000000e+00 0.0000000000e+00 0.0000000000e+00 0.0000000000e+00 0.0000000000e+00 0.0000000000e+00 0.0000000000e+00 0.0000000000e+00 0.0000000000e+00 0.0000000000e+00 0.0000000000e+00 0.0000000000e+00 0.0000000000e+00 0.0000000000e+00 0.0000000000e+00 0.0000000000e+00 0.0000000000e+00 0.0000000000e+00 0.0000000000e+00 0.0000000000e+00 0.0000000000e+00 0.0000000000e+00 0.0000000000e+00 0.0000000000e+00 0.0000000000e+00 0.0000000000e+00 0.0000000000e+00 0.0000000000e+00 0.0000000000e+00 0.0000000000e+00 0.0000000000e+00 0.0000000000e+00 0.0000000000e+00 0.0000000000e+00 0.0000000000e+00 0.0000000000e+00 0.0000000000e+00 0.0000000000e+00 0.0000000000e+00 0.0000000000e+00 0.0000000000e+00 0.0000000000e+00 0.0000000000e+00 0.0000000000e+00 0.0000000000e+00 0.0000000000e+00 0.0000000000e+00 0.0000000000e+00 0.0000000000e+00 0.0000000000e+00 0.0000000000e+00 0.0000000000e+00 0.0000000000e+00 0.0000000000e+00 0.0000000000e+00 0.0000000000e+00 0.0000000000e+00 0.0000000000e+00 0.0000000000e+00 0.0000000000e+00 0.0000000000e+00 0.0000000000e+00 0.0000000000e+00 0.0000000000e+00 0.0000000000e+00 0.0000000000e+00 0.0000000000e+00 0.0000000000e+00 0.0000000000e+00 0.0000000000e+00 0.0000000000e+00 0.0000000000e+00 0.0000000000e+00 0.0000000000e+00 0.0000000000e+00 0.0000000000e+00 0.0000000000e+00 0.0000000000e+00 0.0000000000e+00 0.0000000000e+00 0.0000000000e+00 0.0000000000e+00 0.0000000000e+00 0.0000000000e+00 0.0000000000e+00 0.0000000000e+00 0.0000000000e+00 0.0000000000e+00 0.0000000000e+00 0.0000000000e+00 0.0000000000e+00 0.0000000000e+00 0.0000000000e+00 0.0000000000e+00 0.0000000000e+00 0.0000000000e+00 0.0000000000e+00 0.0000000000e+00 0.0000000000e+00 0.0000000000e+00 0.0000000000e+00 0.0000000000e+00 0.0000000000e+00 0.0000000000e+00 0.0000000000e+00 0.0000000000e+00 0.0000000000e+00 0.0000000000e+00 0.0000000000e+00 0.0000000000e+00 0.0000000000e+00 0.0000000000e+00 0.0000000000e+00 0.0000000000e+00 0.0000000000e+00 0.0000000000e+00 0.0000000000e+00 0.0000000000e+00 0.0000000000e+00 0.0000000000e+00 0.0000000000e+00 0.0000000000e+00 0.0000000000e+00 0.0000000000e+00 0.0000000000e+00 0.0000000000e+00 0.0000000000e+00 0.0000000000e+00 0.0000000000e+00 0.0000000000e+00 0.0000000000e+00 0.0000000000e+00 0.0000000000e+00 0.0000000000e+00 0.0000000000e+00 0.0000000000e+00 0.0000000000e+00 0.0000000000e+00 0.0000000000e+00 0.0000000000e+00 0.0000000000e+00 0.0000000000e+00 0.0000000000e+00 0.0000000000e+00 0.0000000000e+00 0.0000000000e+00 0.0000000000e+00 0.0000000000e+00 0.0000000000e+00 0.0000000000e+00 0.0000000000e+00 0.0000000000e+00 0.0000000000e+00 0.0000000000e+00 0.0000000000e+00 0.0000000000e+00 0.0000000000e+00 0.0000000000e+00 0.0000000000e+00 0.0000000000e+00 0.0000000000e+00 0.0000000000e+00 0.0000000000e+00 0.0000000000e+00 0.0000000000e+00 0.0000000000e+00 0.0000000000e+00 0.0000000000e+00 0.0000000000e+00 0.0000000000e+00 0.0000000000e+00 0.0000000000e+00 0.0000000000e+00 0.0000000000e+00 0.0000000000e+00 0.0000000000e+00 0.0000000000e+00 0.0000000000e+00 0.0000000000e+00 0.0000000000e+00 0.0000000000e+00 0.0000000000e+00 0.0000000000e+00 0.0000000000e+00 0.0000000000e+00 0.0000000000e+00 0.0000000000e+00 0.0000000000e+00 0.0000000000e+00 0.0000000000e+00 0.0000000000e+00 0.0000000000e+00 0.0000000000e+00 0.0000000000e+00 0.0000000000e+00 0.0000000000e+00 0.0000000000e+00 0.0000000000e+00 0.0000000000e+00 0.0000000000e+00 0.0000000000e+00 0.0000000000e+00 0.0000000000e+00 0.0000000000e+00 0.0000000000e+00 0.0000000000e+00 0.0000000000e+00 0.0000000000e+00 0.0000000000e+00 0.0000000000e+00 0.0000000000e+00 0.0000000000e+00 0.0000000000e+00 0.0000000000e+00 0.0000000000e+00 0.0000000000e+00 0.0000000000e+00 0.0000000000e+00 0.0000000000e+00 0.0000000000e+00 0.0000000000e+00 0.0000000000e+00 0.0000000000e+00 0.0000000000e+00 0.0000000000e+00 0.0000000000e+00 0.0000000000e+00 0.0000000000e+00 0.0000000000e+00 0.0000000000e+00 0.0000000000e+00 0.0000000000e+00 0.0000000000e+00 0.0000000000e+00 0.0000000000e+00 0.0000000000e+00 0.0000000000e+00 0.0000000000e+00 0.0000000000e+00 0.0000000000e+00 0.0000000000e+00 0.0000000000e+00 0.0000000000e+00 0.0000000000e+00 0.0000000000e+00 0.0000000000e+00 0.0000000000e+00 0.0000000000e+00 0.0000000000e+00 0.0000000000e+00 0.0000000000e+00 0.0000000000e+00 0.0000000000e+00 0.0000000000e+00 0.0000000000e+00 0.0000000000e+00 0.0000000000e+00 0.0000000000e+00 0.0000000000e+00 0.0000000000e+00 0.0000000000e+00 0.0000000000e+00 0.0000000000e+00 0.0000000000e+00 0.0000000000e+00 0.0000000000e+00 0.0000000000e+00 0.0000000000e+00 0.0000000000e+00 0.0000000000e+00 0.0000000000e+00 0.0000000000e+00 0.0000000000e+00 0.0000000000e+00 0.0000000000e+00 0.0000000000e+00 0.0000000000e+00 0.0000000000e+00 0.0000000000e+00 0.0000000000e+00 0.0000000000e+00 0.0000000000e+00 0.0000000000e+00 0.0000000000e+00 0.0000000000e+00 0.0000000000e+00 0.0000000000e+00 0.0000000000e+00 0.0000000000e+00 0.0000000000e+00 0.0000000000e+00 0.0000000000e+00 0.0000000000e+00 0.0000000000e+00 0.0000000000e+00 0.0000000000e+00 0.0000000000e+00 0.0000000000e+00 0.0000000000e+00 0.0000000000e+00 0.0000000000e+00 0.0000000000e+00 0.0000000000e+00 0.0000000000e+00 0.0000000000e+00 0.0000000000e+00 0.0000000000e+00 0.0000000000e+00 0.0000000000e+00 0.0000000000e+00 0.0000000000e+00 0.0000000000e+00 0.0000000000e+00 0.0000000000e+00 0.0000000000e+00 0.0000000000e+00 0.0000000000e+00 0.0000000000e+00 0.0000000000e+00 0.0000000000e+00 0.0000000000e+00 0.0000000000e+00 0.0000000000e+00 0.0000000000e+00 0.0000000000e+00 0.0000000000e+00 0.0000000000e+00 0.0000000000e+00 0.0000000000e+00 0.0000000000e+00 0.0000000000e+00 0.0000000000e+00 0.0000000000e+00 0.0000000000e+00 0.0000000000e+00 0.0000000000e+00 0.0000000000e+00 0.0000000000e+00 0.0000000000e+00 0.0000000000e+00 0.0000000000e+00 0.0000000000e+00 0.0000000000e+00 0.0000000000e+00 0.0000000000e+00 0.0000000000e+00 0.0000000000e+00 0.0000000000e+00 0.0000000000e+00 0.0000000000e+00 0.0000000000e+00 0.0000000000e+00 0.0000000000e+00 0.0000000000e+00 0.0000000000e+00 0.0000000000e+00 0.0000000000e+00 0.0000000000e+00 0.0000000000e+00 0.0000000000e+00 0.0000000000e+00 0.0000000000e+00 0.0000000000e+00 0.0000000000e+00 0.0000000000e+00 0.0000000000e+00 0.0000000000e+00 0.0000000000e+00 0.0000000000e+00 0.0000000000e+00 0.0000000000e+00 0.0000000000e+00 0.0000000000e+00 0.0000000000e+00 0.0000000000e+00 0.0000000000e+00 0.0000000000e+00 0.0000000000e+00 0.0000000000e+00 0.0000000000e+00 0.0000000000e+00 0.0000000000e+00 0.0000000000e+00 0.0000000000e+00 0.0000000000e+00 0.0000000000e+00 0.0000000000e+00 0.0000000000e+00 0.0000000000e+00 0.0000000000e+00 0.0000000000e+00 0.0000000000e+00 0.0000000000e+00 0.0000000000e+00 0.0000000000e+00 0.0000000000e+00 0.0000000000e+00 0.0000000000e+00 0.0000000000e+00 0.0000000000e+00 0.0000000000e+00 0.0000000000e+00 0.0000000000e+00 0.0000000000e+00 0.0000000000e+00 0.0000000000e+00 0.0000000000e+00 0.0000000000e+00 0.0000000000e+00 0.0000000000e+00 0.0000000000e+00 0.0000000000e+00 0.0000000000e+00 0.0000000000e+00 0.0000000000e+00 0.0000000000e+00 0.0000000000e+00 0.0000000000e+00 0.0000000000e+00 0.0000000000e+00 0.0000000000e+00 0.0000000000e+00 0.0000000000e+00 0.0000000000e+00 0.0000000000e+00 0.0000000000e+00 0.0000000000e+00 0.0000000000e+00 0.0000000000e+00 0.0000000000e+00 0.0000000000e+00 0.0000000000e+00 0.0000000000e+00 0.0000000000e+00 0.0000000000e+00 0.0000000000e+00 0.0000000000e+00 0.0000000000e+00 0.0000000000e+00 0.0000000000e+00 0.0000000000e+00 0.0000000000e+00 0.0000000000e+00 0.0000000000e+00 0.0000000000e+00 0.0000000000e+00 0.0000000000e+00 0.0000000000e+00 0.0000000000e+00 0.0000000000e+00 0.0000000000e+00 0.0000000000e+00 0.0000000000e+00 0.0000000000e+00 0.0000000000e+00 0.0000000000e+00 0.0000000000e+00 0.0000000000e+00 0.0000000000e+00 0.0000000000e+00 0.0000000000e+00 0.0000000000e+00 0.0000000000e+00 0.0000000000e+00 0.0000000000e+00 0.0000000000e+00 0.0000000000e+00 0.0000000000e+00 0.0000000000e+00 0.0000000000e+00 0.0000000000e+00 0.0000000000e+00 0.0000000000e+00 0.0000000000e+00 0.0000000000e+00 0.0000000000e+00 0.0000000000e+00 0.0000000000e+00 0.0000000000e+00 0.0000000000e+00 0.0000000000e+00 0.0000000000e+00 0.0000000000e+00 0.0000000000e+00 0.0000000000e+00 0.0000000000e+00 0.0000000000e+00 0.0000000000e+00 0.0000000000e+00 0.0000000000e+00 0.0000000000e+00 0.0000000000e+00 0.0000000000e+00 0.0000000000e+00 0.0000000000e+00 0.0000000000e+00 0.0000000000e+00 0.0000000000e+00 0.0000000000e+00 0.0000000000e+00 0.0000000000e+00 0.0000000000e+00 0.0000000000e+00 0.0000000000e+00 0.0000000000e+00 0.0000000000e+00 0.0000000000e+00 0.0000000000e+00 0.0000000000e+00 0.0000000000e+00 0.0000000000e+00 0.0000000000e+00 0.0000000000e+00 0.0000000000e+00 0.0000000000e+00 0.0000000000e+00 0.0000000000e+00 0.0000000000e+00 0.0000000000e+00 0.0000000000e+00 0.0000000000e+00 0.0000000000e+00 0.0000000000e+00 0.0000000000e+00 0.0000000000e+00 0.0000000000e+00 0.0000000000e+00 0.0000000000e+00 0.0000000000e+00 0.0000000000e+00 0.0000000000e+00 0.0000000000e+00 0.0000000000e+00 0.0000000000e+00 0.0000000000e+00 0.0000000000e+00 0.0000000000e+00 0.0000000000e+00 0.0000000000e+00 0.0000000000e+00 0.0000000000e+00 0.0000000000e+00 0.0000000000e+00 0.0000000000e+00 0.0000000000e+00 0.0000000000e+00 0.0000000000e+00 0.0000000000e+00 0.0000000000e+00 0.0000000000e+00 0.0000000000e+00 0.0000000000e+00 0.0000000000e+00 0.0000000000e+00 0.0000000000e+00 0.0000000000e+00 0.0000000000e+00 0.0000000000e+00 0.0000000000e+00 0.0000000000e+00 0.0000000000e+00 0.0000000000e+00 0.0000000000e+00 0.0000000000e+00 0.0000000000e+00 0.0000000000e+00 0.0000000000e+00 0.0000000000e+00 0.0000000000e+00 0.0000000000e+00 0.0000000000e+00 0.0000000000e+00 0.0000000000e+00 0.0000000000e+00 0.0000000000e+00 0.0000000000e+00 0.0000000000e+00 0.0000000000e+00 0.0000000000e+00 0.0000000000e+00 0.0000000000e+00 0.0000000000e+00 0.0000000000e+00 0.0000000000e+00 0.0000000000e+00 0.0000000000e+00 0.0000000000e+00 0.0000000000e+00 0.0000000000e+00 0.0000000000e+00 0.0000000000e+00 0.0000000000e+00 0.0000000000e+00 0.0000000000e+00 0.0000000000e+00 0.0000000000e+00 0.0000000000e+00 0.0000000000e+00 0.0000000000e+00 0.0000000000e+00 0.0000000000e+00 0.0000000000e+00 0.0000000000e+00 0.0000000000e+00 0.0000000000e+00 0.0000000000e+00 0.0000000000e+00 0.0000000000e+00 0.0000000000e+00 0.0000000000e+00 0.0000000000e+00 0.0000000000e+00 0.0000000000e+00 0.0000000000e+00 0.0000000000e+00 0.0000000000e+00 0.0000000000e+00 0.0000000000e+00 0.0000000000e+00 0.0000000000e+00 0.0000000000e+00 0.0000000000e+00 0.0000000000e+00 0.0000000000e+00 0.0000000000e+00 0.0000000000e+00 0.0000000000e+00 0.0000000000e+00 0.0000000000e+00 0.0000000000e+00 0.0000000000e+00 0.0000000000e+00 0.0000000000e+00 0.0000000000e+00 0.0000000000e+00 0.0000000000e+00 0.0000000000e+00 0.0000000000e+00 0.0000000000e+00 0.0000000000e+00 0.0000000000e+00 0.0000000000e+00 0.0000000000e+00 0.0000000000e+00 0.0000000000e+00 0.0000000000e+00 0.0000000000e+00 0.0000000000e+00 0.0000000000e+00 0.0000000000e+00 0.0000000000e+00 0.0000000000e+00 0.0000000000e+00 0.0000000000e+00 0.0000000000e+00 0.0000000000e+00 0.0000000000e+00 0.0000000000e+00 0.0000000000e+00 0.0000000000e+00 0.0000000000e+00 0.0000000000e+00 0.0000000000e+00 0.0000000000e+00 0.0000000000e+00 0.0000000000e+00 0.0000000000e+00 0.0000000000e+00 0.0000000000e+00 0.0000000000e+00 0.0000000000e+00 0.0000000000e+00 0.0000000000e+00 0.0000000000e+00 0.0000000000e+00 0.0000000000e+00 0.0000000000e+00 0.0000000000e+00 0.0000000000e+00 0.0000000000e+00 0.0000000000e+00 0.0000000000e+00 0.0000000000e+00 0.0000000000e+00 0.0000000000e+00 0.0000000000e+00 0.0000000000e+00 0.0000000000e+00 0.0000000000e+00 0.0000000000e+00 0.0000000000e+00 0.0000000000e+00 0.0000000000e+00 0.0000000000e+00 0.0000000000e+00 0.0000000000e+00 0.0000000000e+00 0.0000000000e+00 0.0000000000e+00 0.0000000000e+00 0.0000000000e+00 0.0000000000e+00 0.0000000000e+00 0.0000000000e+00 0.0000000000e+00 0.0000000000e+00 0.0000000000e+00 0.0000000000e+00 0.0000000000e+00 0.0000000000e+00 0.0000000000e+00 0.0000000000e+00 0.0000000000e+00 0.0000000000e+00 0.0000000000e+00 0.0000000000e+00 0.0000000000e+00 0.0000000000e+00 0.0000000000e+00 0.0000000000e+00 0.0000000000e+00 0.0000000000e+00 0.0000000000e+00 0.0000000000e+00 0.0000000000e+00 0.0000000000e+00 0.0000000000e+00 0.0000000000e+00 0.0000000000e+00 0.0000000000e+00 0.0000000000e+00 0.0000000000e+00 0.0000000000e+00 0.0000000000e+00 0.0000000000e+00 0.0000000000e+00 0.0000000000e+00 0.0000000000e+00 0.0000000000e+00 0.0000000000e+00 0.0000000000e+00 0.0000000000e+00 0.0000000000e+00 0.0000000000e+00 0.0000000000e+00 0.0000000000e+00 0.0000000000e+00 0.0000000000e+00 0.0000000000e+00 0.0000000000e+00 0.0000000000e+00 0.0000000000e+00 0.0000000000e+00 0.0000000000e+00 0.0000000000e+00 0.0000000000e+00 0.0000000000e+00 0.0000000000e+00 0.0000000000e+00 0.0000000000e+00 0.0000000000e+00 0.0000000000e+00 0.0000000000e+00 0.0000000000e+00 0.0000000000e+00 0.0000000000e+00 0.0000000000e+00 0.0000000000e+00 0.0000000000e+00 0.0000000000e+00 0.0000000000e+00 0.0000000000e+00 0.0000000000e+00 0.0000000000e+00 0.0000000000e+00 0.0000000000e+00 0.0000000000e+00 0.0000000000e+00 0.0000000000e+00 0.0000000000e+00 0.0000000000e+00 0.0000000000e+00 0.0000000000e+00 0.0000000000e+00 0.0000000000e+00 0.0000000000e+00 0.0000000000e+00 0.0000000000e+00 0.0000000000e+00 0.0000000000e+00 0.0000000000e+00 0.0000000000e+00 0.0000000000e+00 0.0000000000e+00 0.0000000000e+00 0.0000000000e+00 0.0000000000e+00 0.0000000000e+00 0.0000000000e+00 0.0000000000e+00 0.0000000000e+00 0.0000000000e+00 0.0000000000e+00 0.0000000000e+00 0.0000000000e+00 0.0000000000e+00 0.0000000000e+00 0.0000000000e+00 0.0000000000e+00 0.0000000000e+00 0.0000000000e+00 0.0000000000e+00 0.0000000000e+00 0.0000000000e+00 0.0000000000e+00 0.0000000000e+00 0.0000000000e+00 0.0000000000e+00 0.0000000000e+00 0.0000000000e+00 0.0000000000e+00 0.0000000000e+00 0.0000000000e+00 0.0000000000e+00 0.0000000000e+00 0.0000000000e+00 0.0000000000e+00 0.0000000000e+00 0.0000000000e+00 0.0000000000e+00 0.0000000000e+00 0.0000000000e+00 0.0000000000e+00 0.0000000000e+00 0.0000000000e+00 0.0000000000e+00 0.0000000000e+00 0.0000000000e+00 0.0000000000e+00 0.0000000000e+00 0.0000000000e+00 0.0000000000e+00 0.0000000000e+00 0.0000000000e+00 0.0000000000e+00 0.0000000000e+00 0.0000000000e+00 0.0000000000e+00 0.0000000000e+00 0.0000000000e+00 0.0000000000e+00 0.0000000000e+00 0.0000000000e+00 0.0000000000e+00 0.0000000000e+00 0.0000000000e+00 0.0000000000e+00 0.0000000000e+00 0.0000000000e+00 0.0000000000e+00 0.0000000000e+00 0.0000000000e+00 0.0000000000e+00 0.0000000000e+00 0.0000000000e+00 0.0000000000e+00 0.0000000000e+00 0.0000000000e+00 0.0000000000e+00 0.0000000000e+00 0.0000000000e+00 0.0000000000e+00 0.0000000000e+00 0.0000000000e+00 0.0000000000e+00 0.0000000000e+00 0.0000000000e+00 0.0000000000e+00 0.0000000000e+00 0.0000000000e+00 0.0000000000e+00 0.0000000000e+00 0.0000000000e+00 0.0000000000e+00 0.0000000000e+00 0.0000000000e+00 0.0000000000e+00 0.0000000000e+00 0.0000000000e+00 0.0000000000e+00 0.0000000000e+00 0.0000000000e+00 0.0000000000e+00 0.0000000000e+00 0.0000000000e+00 0.0000000000e+00 0.0000000000e+00 0.0000000000e+00 0.0000000000e+00 0.0000000000e+00 0.0000000000e+00 0.0000000000e+00 0.0000000000e+00 0.0000000000e+00 0.0000000000e+00 0.0000000000e+00 0.0000000000e+00 0.0000000000e+00 0.0000000000e+00 0.0000000000e+00 0.0000000000e+00 0.0000000000e+00 0.0000000000e+00 0.0000000000e+00 0.0000000000e+00 0.0000000000e+00 0.0000000000e+00 0.0000000000e+00 0.0000000000e+00 0.0000000000e+00 0.0000000000e+00 0.0000000000e+00 0.0000000000e+00 0.0000000000e+00 0.0000000000e+00 0.0000000000e+00 0.0000000000e+00 0.0000000000e+00 0.0000000000e+00 0.0000000000e+00 0.0000000000e+00 0.0000000000e+00 0.0000000000e+00 0.0000000000e+00 0.0000000000e+00 0.0000000000e+00 0.0000000000e+00 0.0000000000e+00 0.0000000000e+00 0.0000000000e+00 0.0000000000e+00 0.0000000000e+00 0.0000000000e+00 0.0000000000e+00 0.0000000000e+00 0.0000000000e+00 0.0000000000e+00 0.0000000000e+00 0.0000000000e+00 0.0000000000e+00 0.0000000000e+00 0.0000000000e+00 0.0000000000e+00 0.0000000000e+00 0.0000000000e+00 0.0000000000e+00 0.0000000000e+00 0.0000000000e+00 0.0000000000e+00 0.0000000000e+00 0.0000000000e+00
        </DataArray>
        <DataArray type="Float64" Name="force" NumberOfComponents="3" format="ascii">
          -1.0854137681e-02 -1.0854797547e-03 0.0000000000e+00 -8.6029440392e-03 2.1500608981e-03 0.0000000000e+00 -1.2303041803e-02 -6.7115034451e-04 0.0000000000e+00 9.8825361020e-04 1.1778910671e-02 0.0000000000e+00 -1.3367975331e-02 -1.5120600253e-03 0.0000000000e+00 1.7615842662e-03 1.0624561114e-02 0.0000000000e+00 -8.4012347762e-03 3.0564107669e-03 0.0000000000e+00 -3.8369402350e-05 7.8133794619e-03 0.0000000000e+00 -4.8461939227e-03 5.5201054086e-03 0.0000000000e+00 -1.7990576171e-03 6.6367881255e-03 0.0000000000e+00 -2.5854758557e-03 6.4185012026e-03 0.0000000000e+00 -1.6902530188e-03 6.6899516647e-03 0.0000000000e+00 -2.3021420360e-03 6.5276308843e-03 0.0000000000e+00 -1.7286990192e-03 6.6522022197e-03 0.0000000000e+00 -1.6069701793e-03 6.7151026459e-03 0.0000000000e+00 -1.3894082732e-03 6.8421266580e-03 0.0000000000e+00 -1.2452435077e-03 6.8963605526e-03 0.0000000000e+00 -1.2583798775e-03 6.9034836772e-03 0.0000000000e+00 -1.0922055591e-03 6.9251764247e-03 0.0000000000e+00 -1.0548304215e-03 6.9348179768e-03 0.0000000000e+00 -1.0340974661e-03 6.9551226716e-03 0.0000000000e+00 -8.9543959132e-04 7.0016340869e-03 0.0000000000e+00 -7.4807449014e-04 7.0561734073e-03 0.0000000000e+00 -6.8042564681e-04 7.1055022578e-03 0.0000000000e+00 -6.1429572352e-04 7.1429938259e-03 0.0000000000e+00 -5.5394863247e-04 7.1754183373e-03 0.0000000000e+00 -4.9406197260e-04 7.2037121412e-03 0.0000000000e+00 -4.3725349907e-04 7.2289300554e-03 0.0000000000e+00 -3.8224635891e-04 7.2535580153e-03 0.0000000000e+00 -3.2986077478e-04 7.2742357891e-03 0.0000000000e+00 -2.7920554771e-04 7.2968945957e-03 0.0000000000e+00 -2.3067759146e-04 7.3118532963e-03 0.0000000000e+00 -1.8391631588e-04 7.3477725487e-03 0.0000000000e+00 -1.3912032795e-04 7.3573866163e-03 0.0000000000e+00 -9.5509426866e-05 7.3787063170e-03 0.0000000000e+00 -5.3981461238e-05 7.4032982969e-03 0.0000000000e+00 -1.3686518272e-05 7.4223769044e-03 0.0000000000e+00 2.4932537062e-05 7.4428293936e-03 0.0000000000e+00 6.2570659391e-05 7.4604575890e-03 0.0000000000e+00 9.8999565068e-05 7.4782336910e-03 0.0000000000e+00 1.3481034914e-04 7.4944126187e-03 0.0000000000e+00 1.7002826752e-04 7.5102692779e-03 0.0000000000e+00 2.0536925132e-04 7.5248577824e-03 0.0000000000e+00 2.4172956508e-04 7.5389552257e-03 0.0000000000e+00 2.8476519935e-04 7.5502926698e-03 0.0000000000e+00 3.5905109240e-04 7.5620229325e-03 0.0000000000e+00 4.2260345607e-04 7.5780091788e-03 0.0000000000e+00 3.7215513542e-04 7.6050171099e-03 0.0000000000e+00 4.0578483265e-04 7.6310296441e-03 0.0000000000e+00 4.1240388438e-04 7.6543157172e-03 0.0000000000e+00 4.5249076556e-04 7.6733065732e-03 0.0000000000e+00 4.6232119426e-04 7.6908540757e-03 0.0000000000e+00 5.0704813962e-04 7.7057228479e-03 0.0000000000e+00 5.3459368288e-04 7.7167679009e-03 0.0000000000e+00 5.3591489557e-04 7.7245219768e-03 0.0000000000e+00 5.7404768638e-04 7.7287761967e-03 0.0000000000e+00 5.9277515195e-04 7.7307045294e-03 0.0000000000e+00 6.6098736418e-04 7.7252049716e-03 0.0000000000e+00 7.8464301630e-04 7.7240492575e-03 0.0000000000e+00 7.2336252176e-04 7.7535188851e-03 0.0000000000e+00 6.7788207110e-04 7.7899909808e-03 0.0000000000e+00 7.0808117630e-04 7.8178618310e-03 0.0000000000e+00 7.1249857676e-04 7.8394828151e-03 0.0000000000e+00 7.9528254097e-04 7.8478611792e-03 0.0000000000e+00 7.3954508901e-04 7.8543610400e-03 0.0000000000e+00 8.0030458337e-04 7.8469994047e-03 0.0000000000e+00 8.0854935811e-04 7.8334079901e-03 0.0000000000e+00 1.0133004842e-03 7.8161844599e-03 0.0000000000e+00 9.2682271731e-04 7.8469277106e-03 0.0000000000e+00 8.5935751009e-04 7.8861903369e-03 0.0000000000e+00 8.5275084313e-04 7.9259982647e-03 0.0000000000e+00 9.4340143516e-04 7.9369864921e-03 0.0000000000e+00 9.1818118599e-04 7.9475386881e-03 0.0000000000e+00 9.0984676592e-04 7.9340831036e-03 0.0000000000e+00 9.9912766582e-04 7.9076983760e-03 0.0000000000e+00 1.1571004859e-03 7.8888512053e-03 0.0000000000e+00 1.0655899863e-03 7.9263083524e-03 0.0000000000e+00 9.6258259434e-04 7.9712822972e-03 0.0000000000e+00 1.0212282829e-03 8.0124424604e-03 0.0000000000e+00 1.0767272945e-03 8.0084222685e-03 0.0000000000e+00 1.0067930305e-03 8.0146250816e-03 0.0000000000e+00 1.0933103140e-03 7.9691828462e-03 0.0000000000e+00 1.2605540538e-03 7.9573178059e-03 0.0000000000e+00 1.2240693469e-03 7.9694825637e-03 0.0000000000e+00 1.0340208064e-03 8.0434628431e-03 0.0000000000e+00 1.1508978146e-03 8.0690595068e-03 0.0000000000e+00 1.1593210839e-03 8.0818776165e-03 0.0000000000e+00 1.0929362998e-03 8.0580842328e-03 0.0000000000e+00 1.2858678442e-03 8.0171630453e-03 0.0000000000e+00 1.3859502361e-03 8.0073767174e-03 0.0000000000e+00 1.1827234114e-03 8.0549772507e-03 0.0000000000e+00 1.1656982536e-03 8.1244776058e-03 0.0000000000e+00 1.2778812860e-03 8.1248250543e-03 0.0000000000e+00 1.1689754040e-03 8.1280662002e-03 0.0000000000e+00 1.3089196396e-03 8.0703303259e-03 0.0000000000e+00 1.4539193846e-03 8.0499963312e-03 0.0000000000e+00 1.3449199462e-03 8.0850204959e-03 0.0000000000e+00 1.1938858737e-03 8.1647346465e-03 0.0000000000e+00 1.3632255468e-03 8.1728153700e-03 0.0000000000e+00 1.2341420606e-03 8.1698634778e-03 0.0000000000e+00 1.3888063372e-03 8.1142601540e-03 0.0000000000e+00 1.5421390725e-03 8.0848670093e-03 0.0000000000e+00 1.3689761489e-03 8.1348359839e-03 0.0000000000e+00 1.2900697383e-03 8.2101028125e-03 0.0000000000e+00 1.4173961286e-03 8.2167121307e-03 0.0000000000e+00 1.2915003054e-03 8.1955515236e-03 0.0000000000e+00 1.5047158617e-03 8.1420507489e-03 0.0000000000e+00 1.6441073791e-03 8.1214147613e-03 0.0000000000e+00 1.2906512641e-03 8.2038384524e-03 0.0000000000e+00 1.4576404077e-03 8.2507410487e-03 0.0000000000e+00 1.4040854817e-03 8.2541249159e-03 0.0000000000e+00 1.4208766703e-03 8.2044051599e-03 0.0000000000e+00 1.6302984120e-03 8.1544631111e-03 0.0000000000e+00 1.6118676045e-03 8.1820097960e-03 0.0000000000e+00 1.3265314485e-03 8.2769851849e-03 0.0000000000e+00 1.5689691073e-03 8.2819933042e-03 0.0000000000e+00 1.3717032034e-03 8.2636398994e-03 0.0000000000e+00 1.6457175405e-03 8.1972467328e-03 0.0000000000e+00 1.7548190532e-03 8.1837119122e-03 0.0000000000e+00 1.3477395893e-03 8.2822285461e-03 0.0000000000e+00 1.6151206032e-03 8.3100983380e-03 0.0000000000e+00 1.4351482070e-03 8.3057405173e-03 0.0000000000e+00 1.6315532703e-03 8.2377329491e-03 0.0000000000e+00 1.8186819248e-03 8.1977241544e-03 0.0000000000e+00 1.4439889111e-03 8.2878785189e-03 0.0000000000e+00 1.6145946697e-03 8.3361224536e-03 0.0000000000e+00 1.5196105698e-03 8.3349302613e-03 0.0000000000e+00 1.6185017290e-03 8.2717674718e-03 0.0000000000e+00 1.8728300567e-03 8.2159063396e-03 0.0000000000e+00 1.5220423696e-03 8.3014332219e-03 0.0000000000e+00 1.6306240506e-03 8.3588878393e-03 0.0000000000e+00 1.5769410686e-03 8.3586219339e-03 0.0000000000e+00 1.6399432282e-03 8.2958489593e-03 0.0000000000e+00 1.9322122751e-03 8.2338434882e-03 0.0000000000e+00 1.5424733380e-03 8.3256847748e-03 0.0000000000e+00 1.6916200311e-03 8.3777713782e-03 0.0000000000e+00 1.5850336860e-03 8.3807225362e-03 0.0000000000e+00 1.7222779922e-03 8.3067040656e-03 0.0000000000e+00 1.9720543564e-03 8.2545209208e-03 0.0000000000e+00 1.5287859081e-03 8.3579128572e-03 0.0000000000e+00 1.7802065771e-03 8.3942817598e-03 0.0000000000e+00 1.5612991517e-03 8.3989769365e-03 0.0000000000e+00 1.8544002846e-03 8.3048122885e-03 0.0000000000e+00 1.9670833700e-03 8.2834342584e-03 0.0000000000e+00 1.5315956752e-03 8.3939997047e-03 0.0000000000e+00 1.8646925605e-03 8.4090258913e-03 0.0000000000e+00 1.5266125056e-03 8.4087809655e-03 0.0000000000e+00 2.0380742657e-03 8.2916093953e-03 0.0000000000e+00 1.8525371749e-03 8.3301614191e-03 0.0000000000e+00 1.6603154209e-03 8.4190998689e-03 0.0000000000e+00 1.8139098825e-03 8.4339280059e-03 0.0000000000e+00 1.6517805071e-03 8.3895268882e-03 0.0000000000e+00 2.1340896859e-03 8.2900158913e-03 0.0000000000e+00 1.7067259011e-03 8.3850636740e-03 0.0000000000e+00 1.8420333505e-03 8.4368849944e-03 0.0000000000e+00 1.6675483918e-03 8.4515484406e-03 0.0000000000e+00 1.9659144989e-03 8.3457434802e-03 0.0000000000e+00 2.0520989893e-03 8.3260673935e-03 0.0000000000e+00 1.6583308273e-03 8.4359616415e-03 0.0000000000e+00 1.9432463333e-03 8.4531045716e-03 0.0000000000e+00 1.6343603592e-03 8.4361810670e-03 0.0000000000e+00 2.2234193292e-03 8.3096528538e-03 0.0000000000e+00 1.8055510878e-03 8.3970439634e-03 0.0000000000e+00 1.8945381412e-03 8.4542689837e-03 0.0000000000e+00 1.7229918964e-03 8.4770616336e-03 0.0000000000e+00 2.0493680326e-03 8.3626250867e-03 0.0000000000e+00 2.0912710394e-03 8.3476596658e-03 0.0000000000e+00 1.7570398128e-03 8.4540017801e-03 0.0000000000e+00 1.9583352260e-03 8.4766339375e-03 0.0000000000e+00 1.7627544924e-03 8.4377069402e-03 0.0000000000e+00 2.2927576113e-03 8.3211684295e-03 0.0000000000e+00 1.8036318748e-03 8.4308934690e-03 0.0000000000e+00 2.0123065895e-03 8.4711435955e-03 0.0000000000e+00 1.7227816798e-03 8.4847503190e-03 0.0000000000e+00 2.2688533975e-03 8.3418175504e-03 0.0000000000e+00 1.9866303001e-03 8.3937324084e-03 0.0000000000e+00 1.9584006276e-03 8.4679071732e-03 0.0000000000e+00 1.8219983843e-03 8.4981088601e-03 0.0000000000e+00 2.1564368258e-03 8.3774153129e-03 0.0000000000e+00 2.1603815936e-03 8.3584248872e-03 0.0000000000e+00 1.9201240104e-03 8.4582611862e-03 0.0000000000e+00 1.9463169809e-03 8.4923273335e-03 0.0000000000e+00 2.0334689575e-03 8.4089007301e-03 0.0000000000e+00 2.3008403842e-03 8.3251492745e-03 0.0000000000e+00 1.9301793965e-03 8.4330946265e-03 0.0000000000e+00 2.0304681583e-03 8.4744084543e-03 0.0000000000e+00 1.9690297114e-03 8.4197756894e-03 0.0000000000e+00 2.3658976653e-03 8.2868324648e-03 0.0000000000e+00 2.0467325235e-03 8.3667025622e-03 0.0000000000e+00 1.9753793407e-03 8.4468940817e-03 0.0000000000e+00 2.0324491549e-03 8.3998035891e-03 0.0000000000e+00 2.3760803584e-03 8.2155457064e-03 0.0000000000e+00 2.2623300380e-03 8.1685393624e-03 0.0000000000e+00 1.7280550184e-03 8.4596431944e-03 0.0000000000e+00 2.3130933225e-03 8.1843259442e-03 0.0000000000e+00 1.1051568211e-03 9.1798463206e-03 0.0000000000e+00 3.2812122308e-03 9.6807647787e-03 0.0000000000e+00 3.5260801968e-06 1.3760719538e-02 0.0000000000e+00 8.5221774005e-03 1.0140050370e-02 0.0000000000e+00 -2.7218704560e-04 1.4019843418e-04 0.0000000000e+00 -1.6219746411e-03 -1.0876460407e-02 0.0000000000e+00 3.7887570102e-04 -1.3889175562e-02 0.0000000000e+00 -5.0463735308e-04 -9.6948208881e-03 0.0000000000e+00 -8.1308891255e-04 -9.4745967374e-03 0.0000000000e+00 2.3017753621e-04 -8.3568738095e-03 0.0000000000e+00 4.3080149818e-05 -8.6945547622e-03 0.0000000000e+00 2.2307198601e-04 -8.3591744919e-03 0.0000000000e+00 3.2822111436e-04 -8.6039664966e-03 0.0000000000e+00 1.7974591368e-04 -8.6606822507e-03 0.0000000000e+00 9.1535611249e-05 -8.6526255099e-03 0.0000000000e+00 1.5511728291e-04 -8.6086924659e-03 0.0000000000e+00 2.4328982947e-04 -8.6508618020e-03 0.0000000000e+00 1.5922522133e-04 -8.6946997393e-03 0.0000000000e+00 1.1109510069e-04 -8.6892557038e-03 0.0000000000e+00 1.2610611012e-04 -8.6747264652e-03 0.0000000000e+00 1.6382930254e-04 -8.6877477519e-03 0.0000000000e+00 1.3538279649e-04 -8.6952493835e-03 0.0000000000e+00 1.0589038218e-04 -8.7075131267e-03 0.0000000000e+00 1.0297184813e-04 -8.7078840737e-03 0.0000000000e+00 1.1386991737e-04 -8.6947629009e-03 0.0000000000e+00 1.0267945298e-04 -8.7169523960e-03 0.0000000000e+00 8.8216516632e-05 -8.7137695390e-03 0.0000000000e+00 7.9837357702e-05 -8.7206790084e-03 0.0000000000e+00 7.8730110308e-05 -8.7191220044e-03 0.0000000000e+00 7.2462986848e-05 -8.7247153989e-03 0.0000000000e+00 6.3296648821e-05 -8.7254050976e-03 0.0000000000e+00 5.5205031825e-05 -8.7269308602e-03 0.0000000000e+00 5.0089148904e-05 -8.7273952063e-03 0.0000000000e+00 4.4547813646e-05 -8.7285541283e-03 0.0000000000e+00 3.7517669286e-05 -8.7296120929e-03 0.0000000000e+00 3.0334758729e-05 -8.7303734528e-03 0.0000000000e+00 2.4075665079e-05 -8.7307096704e-03 0.0000000000e+00 1.8132654231e-05 -8.7313024452e-03 0.0000000000e+00 1.1667880493e-05 -8.7318272084e-03 0.0000000000e+00 4.8735563324e-06 -8.7322421015e-03 0.0000000000e+00 -1.7698967125e-06 -8.7326928040e-03 0.0000000000e+00 -8.1758393117e-06 -8.7327889633e-03 0.0000000000e+00 -1.4660480301e-05 -8.7329967555e-03 0.0000000000e+00 -2.1330156329e-05 -8.7332943199e-03 0.0000000000e+00 -2.7940054111e-05 -8.7333680931e-03 0.0000000000e+00 -3.4531199840e-05 -8.7334046635e-03 0.0000000000e+00 -4.1104554772e-05 -8.7333580425e-03 0.0000000000e+00 -4.7790797433e-05 -8.7334478746e-03 0.0000000000e+00 -5.4552238533e-05 -8.7334703207e-03 0.0000000000e+00 -6.1358896846e-05 -8.7333354083e-03 0.0000000000e+00 -6.8164781516e-05 -8.7332412916e-03 0.0000000000e+00 -7.5035749249e-05 -8.7331320289e-03 0.0000000000e+00 -8.1932834005e-05 -8.7329428604e-03 0.0000000000e+00 -8.8925105046e-05 -8.7324795138e-03 0.0000000000e+00 -9.5875358265e-05 -8.7323273702e-03 0.0000000000e+00 -1.0296597607e-04 -8.7314388506e-03 0.0000000000e+00 -1.0992978889e-04 -8.7314901986e-03 0.0000000000e+00 -1.1716573636e-04 -8.7296286965e-03 0.0000000000e+00 -1.2408748529e-04 -8.7300861665e-03 0.0000000000e+00 -1.3150472355e-04 -8.7263949775e-03 0.0000000000e+00 -1.3832392463e-04 -8.7279579948e-03 0.0000000000e+00 -1.4600456974e-04 -8.7192527226e-03 0.0000000000e+00 -1.5276486181e-04 -8.7219934238e-03 0.0000000000e+00 -1.6009078319e-04 -8.7330209245e-03 0.0000000000e+00 -1.6738974973e-04 -8.7150276284e-03 0.0000000000e+00 -1.7482503932e-04 -8.7264736045e-03 0.0000000000e+00 -1.8187204408e-04 -8.7243433154e-03 0.0000000000e+00 -1.8938462020e-04 -8.7295489856e-03 0.0000000000e+00 -1.9657530986e-04 -8.7287355792e-03 0.0000000000e+00 -2.0411154745e-04 -8.7311214511e-03 0.0000000000e+00 -2.1146149819e-04 -8.7311242546e-03 0.0000000000e+00 -2.1904179671e-04 -8.7323177589e-03 0.0000000000e+00 -2.2654883564e-04 -8.7330050188e-03 0.0000000000e+00 -2.3420209831e-04 -8.7337002207e-03 0.0000000000e+00 -2.4183413174e-04 -8.7343812971e-03 0.0000000000e+00 -2.4958546405e-04 -8.7352121343e-03 0.0000000000e+00 -2.5732631533e-04 -8.7358447282e-03 0.0000000000e+00 -2.6516569578e-04 -8.7366576817e-03 0.0000000000e+00 -2.7298831585e-04 -8.7372764436e-03 0.0000000000e+00 -2.8090306305e-04 -8.7381224570e-03 0.0000000000e+00 -2.8875194536e-04 -8.7391334437e-03 0.0000000000e+00 -2.9670592161e-04 -8.7397475978e-03 0.0000000000e+00 -3.0439188060e-04 -8.7406487311e-03 0.0000000000e+00 -3.1314914654e-04 -8.7415949836e-03 0.0000000000e+00 -3.2036448270e-04 -8.7423809898e-03 0.0000000000e+00 -3.2892647401e-04 -8.7433134027e-03 0.0000000000e+00 -3.3661221265e-04 -8.7440968255e-03 0.0000000000e+00 -3.4559099062e-04 -8.7450800368e-03 0.0000000000e+00 -3.5298832537e-04 -8.7460465803e-03 0.0000000000e+00 -3.6254891043e-04 -8.7463326330e-03 0.0000000000e+00 -3.7097397530e-04 -8.7464748854e-03 0.0000000000e+00 -3.8029847942e-04 -8.7465122264e-03 0.0000000000e+00 -3.8932224579e-04 -8.7463570870e-03 0.0000000000e+00 -3.9865068207e-04 -8.7459621098e-03 0.0000000000e+00 -4.0784557007e-04 -8.7448497970e-03 0.0000000000e+00 -4.1714293169e-04 -8.7438076365e-03 0.0000000000e+00 -4.2639554161e-04 -8.7413388700e-03 0.0000000000e+00 -4.3563206195e-04 -8.7395459461e-03 0.0000000000e+00 -4.4525430212e-04 -8.7336634911e-03 0.0000000000e+00 -4.5473658508e-04 -8.7311489453e-03 0.0000000000e+00 -4.6806725593e-04 -8.7189169566e-03 0.0000000000e+00 -4.8300698082e-04 -8.7153241899e-03 0.0000000000e+00 -5.4122322293e-04 -8.6933432453e-03 0.0000000000e+00 -5.5148979492e-04 -8.7048900784e-03 0.0000000000e+00 -5.2735118199e-04 -8.7100901491e-03 0.0000000000e+00 -5.3606972036e-04 -8.7029732626e-03 0.0000000000e+00 -5.4436893852e-04 -8.7228097024e-03 0.0000000000e+00 -5.5635099024e-04 -8.7234251485e-03 0.0000000000e+00 -5.6742771360e-04 -8.7347438778e-03 0.0000000000e+00 -5.7853168799e-04 -8.7371442455e-03 0.0000000000e+00 -5.8916778006e-04 -8.7444027527e-03 0.0000000000e+00 -5.9925057840e-04 -8.7477403098e-03 0.0000000000e+00 -6.1147138793e-04 -8.7536040492e-03 0.0000000000e+00 -6.1993965685e-04 -8.7564896025e-03 0.0000000000e+00 -6.3454866897e-04 -8.7572787022e-03 0.0000000000e+00 -6.4429791554e-04 -8.7566981699e-03 0.0000000000e+00 -6.5708650966e-04 -8.7544525619e-03 0.0000000000e+00 -6.6791138625e-04 -8.7496018151e-03 0.0000000000e+00 -6.8000103243e-04 -8.7413389488e-03 0.0000000000e+00 -6.9793455783e-04 -8.7271022391e-03 0.0000000000e+00 -7.5527879302e-04 -8.7094012988e-03 0.0000000000e+00 -8.3647123860e-04 -8.6984070911e-03 0.0000000000e+00 -7.7533369571e-04 -8.7083293114e-03 0.0000000000e+00 -7.7947021229e-04 -8.7247944151e-03 0.0000000000e+00 -7.7956336442e-04 -8.7395511577e-03 0.0000000000e+00 -8.0884818327e-04 -8.7508184927e-03 0.0000000000e+00 -8.0565027344e-04 -8.7614891663e-03 0.0000000000e+00 -8.4145552490e-04 -8.7703842347e-03 0.0000000000e+00 -8.3044609992e-04 -8.7776524271e-03 0.0000000000e+00 -8.7313180810e-04 -8.7744095139e-03 0.0000000000e+00 -8.5130301109e-04 -8.7705119760e-03 0.0000000000e+00 -9.0845951831e-04 -8.7570469981e-03 0.0000000000e+00 -8.6942454707e-04 -8.7365194663e-03 0.0000000000e+00 -1.0535233333e-03 -8.7049944675e-03 0.0000000000e+00 -1.0589930547e-03 -8.7008651021e-03 0.0000000000e+00 -9.9711396856e-04 -8.7213499037e-03 0.0000000000e+00 -1.0003788663e-03 -8.7502808349e-03 0.0000000000e+00 -1.0128536412e-03 -8.7706875262e-03 0.0000000000e+00 -1.0466924688e-03 -8.7868270920e-03 0.0000000000e+00 -1.0493026773e-03 -8.7999899387e-03 0.0000000000e+00 -1.0724142469e-03 -8.7930950600e-03 0.0000000000e+00 -1.0884565158e-03 -8.7807820058e-03 0.0000000000e+00 -1.0766940975e-03 -8.7494363523e-03 0.0000000000e+00 -1.2982912563e-03 -8.7071827507e-03 0.0000000000e+00 -1.3048849803e-03 -8.7097222782e-03 0.0000000000e+00 -1.2032147974e-03 -8.7381548571e-03 0.0000000000e+00 -1.2137348070e-03 -8.7856637004e-03 0.0000000000e+00 -1.2642038992e-03 -8.8028537149e-03 0.0000000000e+00 -1.2547589472e-03 -8.8268304942e-03 0.0000000000e+00 -1.3004113607e-03 -8.8027050465e-03 0.0000000000e+00 -1.2630082200e-03 -8.7829564948e-03 0.0000000000e+00 -1.4951522104e-03 -8.7213569333e-03 0.0000000000e+00 -1.5835960342e-03 -8.7159864129e-03 0.0000000000e+00 -1.4001454993e-03 -8.7589186755e-03 0.0000000000e+00 -1.4635889688e-03 -8.8212670014e-03 0.0000000000e+00 -1.4546171864e-03 -8.8475992045e-03 0.0000000000e+00 -1.5094350739e-03 -8.8545847400e-03 0.0000000000e+00 -1.4887972797e-03 -8.7937864471e-03 0.0000000000e+00 -1.7360277533e-03 -8.7494757244e-03 0.0000000000e+00 -1.8462609698e-03 -8.7362370474e-03 0.0000000000e+00 -1.5991883924e-03 -8.8117515388e-03 0.0000000000e+00 -1.7090477872e-03 -8.8735374029e-03 0.0000000000e+00 -1.6862346791e-03 -8.8973318336e-03 0.0000000000e+00 -1.7361830628e-03 -8.8242035759e-03 0.0000000000e+00 -1.9868201111e-03 -8.7706812545e-03 0.0000000000e+00 -2.0930713709e-03 -8.7683318004e-03 0.0000000000e+00 -1.8760685177e-03 -8.8509549889e-03 0.0000000000e+00 -1.8780522617e-03 -8.9489211936e-03 0.0000000000e+00 -1.9657450438e-03 -8.8770020649e-03 0.0000000000e+00 -2.1974512383e-03 -8.8080378879e-03 0.0000000000e+00 -2.3720816153e-03 -8.7903341053e-03 0.0000000000e+00 -2.1992867195e-03 -8.8651205503e-03 0.0000000000e+00 -2.0300238850e-03 -9.0182933322e-03 0.0000000000e+00 -2.3805848079e-03 -8.8486680564e-03 0.0000000000e+00 -2.4552731105e-03 -8.8561793320e-03 0.0000000000e+00 -2.8221500356e-03 -8.7882593569e-03 0.0000000000e+00 -2.1577469673e-03 -9.0607876943e-03 0.0000000000e+00 -2.6459866412e-03 -8.9080751865e-03 0.0000000000e+00 -2.7235272448e-03 -8.8788406447e-03 0.0000000000e+00 -3.2609849923e-03 -8.8255960179e-03 0.0000000000e+00 -2.3068717580e-03 -9.0698826473e-03 0.0000000000e+00 -3.1036800760e-03 -8.9901343597e-03 0.0000000000e+00 -3.3971045676e-03 -8.7082043396e-03 0.0000000000e+00 -3.1021089795e-03 -9.2113894770e-03 0.0000000000e+00 -3.1388156334e-03 -8.7113825639e-03 0.0000000000e+00 -3.3090280476e-03 -9.3794022013e-03 0.0000000000e+00 -4.6007997147e-03 -8.1907287573e-03 0.0000000000e+00 -2.1012754449e-03 -1.0003111497e-02 0.0000000000e+00 -5.6633853175e-03 -7.7739375876e-03 0.0000000000e+00 -3.1466775633e-03 -9.7647523797e-03 0.0000000000e+00 -4.3716864462e-03 -8.4385468201e-03 0.0000000000e+00 -5.6221899485e-03 -8.9246646150e-03 0.0000000000e+00 -3.0259345490e-03 -9.2053450352e-03 0.0000000000e+00 -7.3545613975e-03 -8.2853160777e-03 0.0000000000e+00 -3.1807157661e-03 -9.5804507765e-03 0.0000000000e+00 -8.3073684402e-03 -7.7277511130e-03 0.0000000000e+00 -3.5306657080e-03 -1.0245293924e-02 0.0000000000e+00 -1.0266916825e-02 -6.0963562797e-03 0.0000000000e+00 -4.7848012723e-03 -1.0342795974e-02 0.0000000000e+00 -1.0582037639e-02 -4.7048115021e-03 0.0000000000e+00 -8.0164869383e-03 -9.0598148140e-03 0.0000000000e+00 -1.1697133261e-02 -2.7505049997e-03 0.0000000000e+00 -1.0219513180e-02 -3.5239574721e-03 0.0000000000e+00
        </DataArray>
      </PointData>
    </Piece>
  </PolyData>
</VTKFile>
