<?xml version="1.0"?>
<VTKFile type="PolyData" version="0.1" byte_order="LittleEndian">
  <PolyData>
    <FieldData>
      <DataArray type="Float64" Name="TimeValue" NumberOfTuples="1" format="ascii">
        3.999999999998803e+01
      </DataArray>
    </FieldData>
    <Piece NumberOfPoints="398" NumberOfVerts="398" NumberOfLines="0" NumberOfStrips="0" NumberOfPolys="0">
      <Points>
        <DataArray type="Float64" NumberOfComponents="3" format="ascii">
          -4.9726094768e-01 5.2264231634e-02 0.0000000000e+00 -4.9591980461e-01 5.7187521354e-02 0.0000000000e+00 -4.9320742903e-01 6.1518265364e-02 0.0000000000e+00 -4.8960598536e-01 6.5153650837e-02 0.0000000000e+00 -4.8548567450e-01 6.8194643038e-02 0.0000000000e+00 -4.8105786906e-01 7.0770768034e-02 0.0000000000e+00 -4.7643787966e-01 7.2985647804e-02 0.0000000000e+00 -4.7169100133e-01 7.4914697529e-02 0.0000000000e+00 -4.6685629730e-01 7.6612338955e-02 0.0000000000e+00 -4.6195841863e-01 7.8118474475e-02 0.0000000000e+00 -4.5701365804e-01 7.9463020303e-02 0.0000000000e+00 -4.5203321881e-01 8.0668916425e-02 0.0000000000e+00 -4.4702506197e-01 8.1754126178e-02 0.0000000000e+00 -4.4199500846e-01 8.2732982305e-02 0.0000000000e+00 -4.3694742522e-01 8.3617112443e-02 0.0000000000e+00 -4.3188565927e-01 8.4416090884e-02 0.0000000000e+00 -4.2681230400e-01 8.5137908709e-02 0.0000000000e+00 -4.2172941653e-01 8.5789311244e-02 0.0000000000e+00 -4.1663865062e-01 8.6376052829e-02 0.0000000000e+00 -4.1154135992e-01 8.6903088373e-02 0.0000000000e+00 -4.0643863732e-01 8.7374723845e-02 0.0000000000e+00 -4.0133140546e-01 8.7794726707e-02 0.0000000000e+00 -3.9622042424e-01 8.8166419095e-02 0.0000000000e+00 -3.9110634740e-01 8.8492747356e-02 0.0000000000e+00 -3.8598972048e-01 8.8776341615e-02 0.0000000000e+00 -3.8087100981e-01 8.9019561684e-02 0.0000000000e+00 -3.7575063504e-01 8.9224534775e-02 0.0000000000e+00 -3.7062893181e-01 8.9393189274e-02 0.0000000000e+00 -3.6550619075e-01 8.9527279365e-02 0.0000000000e+00 -3.6038270739e-01 8.9628406450e-02 0.0000000000e+00 -3.5525869773e-01 8.9698040036e-02 0.0000000000e+00 -3.5013435246e-01 8.9737531833e-02 0.0000000000e+00 -3.4500987690e-01 8.9748129328e-02 0.0000000000e+00 -3.3988541842e-01 8.9730987908e-02 0.0000000000e+00 -3.3476111444e-01 8.9687180276e-02 0.0000000000e+00 -3.2963709471e-01 8.9617705257e-02 0.0000000000e+00 -3.2451348064e-01 8.9523495400e-02 0.0000000000e+00 -3.1939034143e-01 8.9405422449e-02 0.0000000000e+00 -3.1426779881e-01 8.9264305217e-02 0.0000000000e+00 -3.0914591206e-01 8.9100912041e-02 0.0000000000e+00 -3.0402476307e-01 8.8915967270e-02 0.0000000000e+00 -2.9890440772e-01 8.8710153739e-02 0.0000000000e+00 -2.9378490850e-01 8.8484117338e-02 0.0000000000e+00 -2.8866631015e-01 8.8238469120e-02 0.0000000000e+00 -2.8354865267e-01 8.7973788508e-02 0.0000000000e+00 -2.7843198600e-01 8.7690626604e-02 0.0000000000e+00 -2.7331635766e-01 8.7389507892e-02 0.0000000000e+00 -2.6820177024e-01 8.7070929522e-02 0.0000000000e+00 -2.6308828316e-01 8.6735369256e-02 0.0000000000e+00 -2.5797588368e-01 8.6383278975e-02 0.0000000000e+00 -2.5286463554e-01 8.6015095985e-02 0.0000000000e+00 -2.4775456034e-01 8.5631236490e-02 0.0000000000e+00 -2.4264563136e-01 8.5232095683e-02 0.0000000000e+00 -2.3753787536e-01 8.4818056587e-02 0.0000000000e+00 -2.3243133189e-01 8.4389488400e-02 0.0000000000e+00 -2.2732604551e-01 8.3946746927e-02 0.0000000000e+00 -2.2222190001e-01 8.3490160448e-02 0.0000000000e+00 -2.1711899509e-01 8.3020063562e-02 0.0000000000e+00 -2.1201736213e-01 8.2536773495e-02 0.0000000000e+00 -2.0691697960e-01 8.2040591368e-02 0.0000000000e+00 -2.0181778048e-01 8.1531802906e-02 0.0000000000e+00 -1.9671983644e-01 8.1010697525e-02 0.0000000000e+00 -1.9162315737e-01 8.0477549322e-02 0.0000000000e+00 -1.8652775518e-01 7.9932623721e-02 0.0000000000e+00 -1.8143354438e-01 7.9376166968e-02 0.0000000000e+00 -1.7634058775e-01 7.8808433128e-02 0.0000000000e+00 -1.7124890276e-01 7.8229663908e-02 0.0000000000e+00 -1.6615843046e-01 7.7640084880e-02 0.0000000000e+00 -1.6106919074e-01 7.7039923480e-02 0.0000000000e+00 -1.5598117717e-01 7.6429397432e-02 0.0000000000e+00 -1.5089442149e-01 7.5808722703e-02 0.0000000000e+00 -1.4580891223e-01 7.5178103979e-02 0.0000000000e+00 -1.4072455773e-01 7.4537729809e-02 0.0000000000e+00 -1.3564143273e-01 7.3887803843e-02 0.0000000000e+00 -1.3055953602e-01 7.3228514974e-02 0.0000000000e+00 -1.2547885669e-01 7.2560045603e-02 0.0000000000e+00 -1.2039932696e-01 7.1882565420e-02 0.0000000000e+00 -1.1532097276e-01 7.1196251579e-02 0.0000000000e+00 -1.1024384833e-01 7.0501280681e-02 0.0000000000e+00 -1.0516789419e-01 6.9797809381e-02 0.0000000000e+00 -1.0009305693e-01 6.9085990467e-02 0.0000000000e+00 -9.5019385779e-02 6.8365986871e-02 0.0000000000e+00 -8.9946876275e-02 6.7637950065e-02 0.0000000000e+00 -8.4875512802e-02 6.6902025973e-02 0.0000000000e+00 -7.9805266057e-02 6.6158354627e-02 0.0000000000e+00 -7.4736119229e-02 6.5407074084e-02 0.0000000000e+00 -6.9668110663e-02 6.4648327056e-02 0.0000000000e+00 -6.4601223625e-02 6.3882244673e-02 0.0000000000e+00 -5.9535406374e-02 6.3108949253e-02 0.0000000000e+00 -5.4470657317e-02 6.2328567330e-02 0.0000000000e+00 -4.9407032488e-02 6.1541231275e-02 0.0000000000e+00 -4.4344451672e-02 6.0747049224e-02 0.0000000000e+00 -3.9282923158e-02 5.9946139943e-02 0.0000000000e+00 -3.4222445485e-02 5.9138617762e-02 0.0000000000e+00 -2.9163037454e-02 5.8324597432e-02 0.0000000000e+00 -2.4104648617e-02 5.7504179745e-02 0.0000000000e+00 -1.9047261811e-02 5.6677467985e-02 0.0000000000e+00 -1.3990893842e-02 5.5844568318e-02 0.0000000000e+00 -8.9355444057e-03 5.5005581552e-02 0.0000000000e+00 -3.8812175905e-03 5.4160606701e-02 0.0000000000e+00 1.1721998069e-03 5.3309720494e-02 0.0000000000e+00 6.2245485523e-03 5.2453043054e-02 0.0000000000e+00 1.1275943392e-02 5.1590645938e-02 0.0000000000e+00 1.6326440609e-02 5.0722607920e-02 0.0000000000e+00 2.1375943892e-02 4.9849031720e-02 0.0000000000e+00 2.6424457110e-02 4.8970000753e-02 0.0000000000e+00 3.1472011504e-02 4.8085591397e-02 0.0000000000e+00 3.6518701143e-02 4.7195866621e-02 0.0000000000e+00 4.1564441327e-02 4.6300918671e-02 0.0000000000e+00 4.6609230112e-02 4.5400823257e-02 0.0000000000e+00 5.1653173445e-02 4.4495634621e-02 0.0000000000e+00 5.6696228622e-02 4.3585431459e-02 0.0000000000e+00 6.1738361294e-02 4.2670289132e-02 0.0000000000e+00 6.6779564021e-02 4.1750276257e-02 0.0000000000e+00 7.1819899165e-02 4.0825446710e-02 0.0000000000e+00 7.6859356703e-02 3.9895865608e-02 0.0000000000e+00 8.1898008641e-02 3.8961580986e-02 0.0000000000e+00 8.6935705941e-02 3.8022680059e-02 0.0000000000e+00 9.1972611128e-02 3.7079190280e-02 0.0000000000e+00 9.7008668669e-02 3.6131177844e-02 0.0000000000e+00 1.0204386087e-01 3.5178700202e-02 0.0000000000e+00 1.0707827097e-01 3.4221793894e-02 0.0000000000e+00 1.1211171891e-01 3.3260543822e-02 0.0000000000e+00 1.1714445382e-01 3.2294951292e-02 0.0000000000e+00 1.2217637967e-01 3.1325081711e-02 0.0000000000e+00 1.2720736077e-01 3.0351006860e-02 0.0000000000e+00 1.3223761875e-01 2.9372727682e-02 0.0000000000e+00 1.3726706297e-01 2.8390303861e-02 0.0000000000e+00 1.4229572061e-01 2.7403770609e-02 0.0000000000e+00 1.4732360119e-01 2.6413164931e-02 0.0000000000e+00 1.5235059578e-01 2.5418545708e-02 0.0000000000e+00 1.5737688659e-01 2.4419912645e-02 0.0000000000e+00 1.6240234385e-01 2.3417325663e-02 0.0000000000e+00 1.6742696646e-01 2.2410817741e-02 0.0000000000e+00 1.7245085770e-01 2.1400399305e-02 0.0000000000e+00 1.7747398558e-01 2.0386106299e-02 0.0000000000e+00 1.8249635644e-01 1.9367965495e-02 0.0000000000e+00 1.8751791564e-01 1.8346014588e-02 0.0000000000e+00 1.9253867441e-01 1.7320276492e-02 0.0000000000e+00 1.9755867528e-01 1.6290766192e-02 0.0000000000e+00 2.0257793396e-01 1.5257502622e-02 0.0000000000e+00 2.0759639625e-01 1.4220517707e-02 0.0000000000e+00 2.1261408588e-01 1.3179825911e-02 0.0000000000e+00 2.1763104490e-01 1.2135436390e-02 0.0000000000e+00 2.2264726018e-01 1.1087368318e-02 0.0000000000e+00 2.2766268318e-01 1.0035646948e-02 0.0000000000e+00 2.3267726296e-01 8.9802968007e-03 0.0000000000e+00 2.3769115605e-01 7.9212972708e-03 0.0000000000e+00 2.4270427261e-01 6.8586782309e-03 0.0000000000e+00 2.4771659633e-01 5.7924527911e-03 0.0000000000e+00 2.5272819058e-01 4.7226157199e-03 0.0000000000e+00 2.5773898461e-01 3.6491890353e-03 0.0000000000e+00 2.6274907064e-01 2.5721585331e-03 0.0000000000e+00 2.6775833653e-01 1.4915525741e-03 0.0000000000e+00 2.7276680970e-01 4.0736826173e-04 0.0000000000e+00 2.7777451790e-01 -6.8039875983e-04 0.0000000000e+00 2.8278146879e-01 -1.7717498540e-03 0.0000000000e+00 2.8778759011e-01 -2.8666701914e-03 0.0000000000e+00 2.9279294031e-01 -3.9651747581e-03 0.0000000000e+00 2.9779755351e-01 -5.0672746270e-03 0.0000000000e+00 3.0280135913e-01 -6.1729590882e-03 0.0000000000e+00 3.0780438244e-01 -7.2822397704e-03 0.0000000000e+00 3.1280650594e-01 -8.3950978319e-03 0.0000000000e+00 3.1780794456e-01 -9.5115896717e-03 0.0000000000e+00 3.2280852738e-01 -1.0631687020e-02 0.0000000000e+00 3.2780825022e-01 -1.1755399878e-02 0.0000000000e+00 3.3280721108e-01 -1.2882762556e-02 0.0000000000e+00 3.3780534714e-01 -1.4013774448e-02 0.0000000000e+00 3.4280265335e-01 -1.5148449133e-02 0.0000000000e+00 3.4779915549e-01 -1.6286808434e-02 0.0000000000e+00 3.5279469994e-01 -1.7428834392e-02 0.0000000000e+00 3.5778950179e-01 -1.8574594513e-02 0.0000000000e+00 3.6278342043e-01 -1.9724076172e-02 0.0000000000e+00 3.6777640315e-01 -2.0877287849e-02 0.0000000000e+00 3.7276860129e-01 -2.2034286424e-02 0.0000000000e+00 3.7775992822e-01 -2.3195075031e-02 0.0000000000e+00 3.8275032602e-01 -2.4359664423e-02 0.0000000000e+00 3.8773987974e-01 -2.5528099898e-02 0.0000000000e+00 3.9272844614e-01 -2.6700374472e-02 0.0000000000e+00 3.9771614086e-01 -2.7876543029e-02 0.0000000000e+00 4.0270291178e-01 -2.9056622242e-02 0.0000000000e+00 4.0768869791e-01 -3.0240627667e-02 0.0000000000e+00 4.1267361642e-01 -3.1428618368e-02 0.0000000000e+00 4.1765755604e-01 -3.2620600225e-02 0.0000000000e+00 4.2264052151e-01 -3.3816607805e-02 0.0000000000e+00 4.2762255447e-01 -3.5016685743e-02 0.0000000000e+00 4.3260353408e-01 -3.6220840625e-02 0.0000000000e+00 4.3758354093e-01 -3.7429128723e-02 0.0000000000e+00 4.4256256770e-01 -3.8641586290e-02 0.0000000000e+00 4.4754046411e-01 -3.9858215695e-02 0.0000000000e+00 4.5251740906e-01 -4.1079100795e-02 0.0000000000e+00 4.5749335137e-01 -4.2304270474e-02 0.0000000000e+00 4.6246815394e-01 -4.3533733300e-02 0.0000000000e+00 4.6744192511e-01 -4.4767559442e-02 0.0000000000e+00 4.7241451575e-01 -4.6005756378e-02 0.0000000000e+00 4.7738608692e-01 -4.7248409814e-02 0.0000000000e+00 4.8235650207e-01 -4.8495532369e-02 0.0000000000e+00 4.8732575854e-01 -4.9747171040e-02 0.0000000000e+00 4.9229400251e-01 -5.1003411632e-02 0.0000000000e+00 4.9726094768e-01 -5.2264231634e-02 0.0000000000e+00 4.9214040296e-01 -5.2464813724e-02 0.0000000000e+00 4.8701953993e-01 -5.2660646441e-02 0.0000000000e+00 4.8189864333e-01 -5.2851767290e-02 0.0000000000e+00 4.7677755232e-01 -5.3038229807e-02 0.0000000000e+00 4.7165625973e-01 -5.3220080515e-02 0.0000000000e+00 4.6653489650e-01 -5.3397360149e-02 0.0000000000e+00 4.6141328729e-01 -5.3570119057e-02 0.0000000000e+00 4.5629157639e-01 -5.3738395555e-02 0.0000000000e+00 4.5116964327e-01 -5.3902235761e-02 0.0000000000e+00 4.4604762022e-01 -5.4061676551e-02 0.0000000000e+00 4.4092555131e-01 -5.4216756824e-02 0.0000000000e+00 4.3580324412e-01 -5.4367521411e-02 0.0000000000e+00 4.3068084515e-01 -5.4514003871e-02 0.0000000000e+00 4.2555835402e-01 -5.4656241187e-02 0.0000000000e+00 4.2043568020e-01 -5.4794271646e-02 0.0000000000e+00 4.1531294051e-01 -5.4928126814e-02 0.0000000000e+00 4.1019008497e-01 -5.5057841695e-02 0.0000000000e+00 4.0506710173e-01 -5.5183449112e-02 0.0000000000e+00 3.9994409843e-01 -5.5304977955e-02 0.0000000000e+00 3.9482094815e-01 -5.5422461631e-02 0.0000000000e+00 3.8969770733e-01 -5.5535928040e-02 0.0000000000e+00 3.8457442349e-01 -5.5645404327e-02 0.0000000000e+00 3.7945097209e-01 -5.5750920133e-02 0.0000000000e+00 3.7432749471e-01 -5.5852498408e-02 0.0000000000e+00 3.6920389872e-01 -5.5950165778e-02 0.0000000000e+00 3.6408023857e-01 -5.6043944803e-02 0.0000000000e+00 3.5895659830e-01 -5.6133856558e-02 0.0000000000e+00 3.5383281810e-01 -5.6219925217e-02 0.0000000000e+00 3.4870894773e-01 -5.6302170032e-02 0.0000000000e+00 3.4358512736e-01 -5.6380607890e-02 0.0000000000e+00 3.3846113257e-01 -5.6455260100e-02 0.0000000000e+00 3.3333711736e-01 -5.6526141037e-02 0.0000000000e+00 3.2821305197e-01 -5.6593266688e-02 0.0000000000e+00 3.2308893851e-01 -5.6656651381e-02 0.0000000000e+00 3.1796483857e-01 -5.6716307587e-02 0.0000000000e+00 3.1284064916e-01 -5.6772248492e-02 0.0000000000e+00 3.0771637227e-01 -5.6824484747e-02 0.0000000000e+00 3.0259218097e-01 -5.6873024235e-02 0.0000000000e+00 2.9746785329e-01 -5.6917877437e-02 0.0000000000e+00 2.9234350810e-01 -5.6959050352e-02 0.0000000000e+00 2.8721911827e-01 -5.6996549104e-02 0.0000000000e+00 2.8209475503e-01 -5.7030377886e-02 0.0000000000e+00 2.7697038274e-01 -5.7060540439e-02 0.0000000000e+00 2.7184594108e-01 -5.7087039267e-02 0.0000000000e+00 2.6672150384e-01 -5.7109874891e-02 0.0000000000e+00 2.6159706323e-01 -5.7129047050e-02 0.0000000000e+00 2.5647259122e-01 -5.7144554236e-02 0.0000000000e+00 2.5134806035e-01 -5.7156393579e-02 0.0000000000e+00 2.4622358623e-01 -5.7164560656e-02 0.0000000000e+00 2.4109907571e-01 -5.7169050186e-02 0.0000000000e+00 2.3597460255e-01 -5.7169855343e-02 0.0000000000e+00 2.3085010370e-01 -5.7166968068e-02 0.0000000000e+00 2.2572559782e-01 -5.7160378926e-02 0.0000000000e+00 2.2060117901e-01 -5.7150077380e-02 0.0000000000e+00 2.1547668986e-01 -5.7136051039e-02 0.0000000000e+00 2.1035218532e-01 -5.7118286508e-02 0.0000000000e+00 2.0522771809e-01 -5.7096769179e-02 0.0000000000e+00 2.0010330503e-01 -5.7071483028e-02 0.0000000000e+00 1.9497890690e-01 -5.7042410356e-02 0.0000000000e+00 1.8985450348e-01 -5.7009532077e-02 0.0000000000e+00 1.8473015445e-01 -5.6972828238e-02 0.0000000000e+00 1.7960584836e-01 -5.6932277051e-02 0.0000000000e+00 1.7448154674e-01 -5.6887855015e-02 0.0000000000e+00 1.6935724336e-01 -5.6839537383e-02 0.0000000000e+00 1.6423299950e-01 -5.6787298642e-02 0.0000000000e+00 1.5910881454e-01 -5.6731111290e-02 0.0000000000e+00 1.5398472721e-01 -5.6670946815e-02 0.0000000000e+00 1.4886063870e-01 -5.6606773550e-02 0.0000000000e+00 1.4373655692e-01 -5.6538559464e-02 0.0000000000e+00 1.3861262126e-01 -5.6466272926e-02 0.0000000000e+00 1.3348865342e-01 -5.6389876340e-02 0.0000000000e+00 1.2836477223e-01 -5.6309334762e-02 0.0000000000e+00 1.2324097603e-01 -5.6224610014e-02 0.0000000000e+00 1.1811724558e-01 -5.6135662002e-02 0.0000000000e+00 1.1299368194e-01 -5.6042451195e-02 0.0000000000e+00 1.0787006851e-01 -5.5944930586e-02 0.0000000000e+00 1.0274655297e-01 -5.5843058179e-02 0.0000000000e+00 9.7623242809e-02 -5.5736789958e-02 0.0000000000e+00 9.2499894644e-02 -5.5626072852e-02 0.0000000000e+00 8.7376702232e-02 -5.5510861246e-02 0.0000000000e+00 8.2253591763e-02 -5.5391102098e-02 0.0000000000e+00 7.7130592483e-02 -5.5266742888e-02 0.0000000000e+00 7.2007772477e-02 -5.5137730413e-02 0.0000000000e+00 6.6884978478e-02 -5.5004004031e-02 0.0000000000e+00 6.1762374400e-02 -5.4865509418e-02 0.0000000000e+00 5.6639899797e-02 -5.4722184619e-02 0.0000000000e+00 5.1517578012e-02 -5.4573968022e-02 0.0000000000e+00 4.6395359247e-02 -5.4420793964e-02 0.0000000000e+00 4.1273265047e-02 -5.4262596875e-02 0.0000000000e+00 3.6151344678e-02 -5.4099310180e-02 0.0000000000e+00 3.1029656272e-02 -5.3930865784e-02 0.0000000000e+00 2.5908107476e-02 -5.3757188601e-02 0.0000000000e+00 2.0786715931e-02 -5.3578204980e-02 0.0000000000e+00 1.5665583667e-02 -5.3393842301e-02 0.0000000000e+00 1.0544631760e-02 -5.3204019413e-02 0.0000000000e+00 5.4238455346e-03 -5.3008655112e-02 0.0000000000e+00 3.0323854710e-04 -5.2807667001e-02 0.0000000000e+00 -4.8170736379e-03 -5.2600974629e-02 0.0000000000e+00 -9.9371296962e-03 -5.2388489241e-02 0.0000000000e+00 -1.5057026989e-02 -5.2170116987e-02 0.0000000000e+00 -2.0176584787e-02 -5.1945773477e-02 0.0000000000e+00 -2.5295897865e-02 -5.1715360119e-02 0.0000000000e+00 -3.0414941641e-02 -5.1478780917e-02 0.0000000000e+00 -3.5533695451e-02 -5.1235937199e-02 0.0000000000e+00 -4.0652120784e-02 -5.0986728615e-02 0.0000000000e+00 -4.5770212954e-02 -5.0731050570e-02 0.0000000000e+00 -5.0888000350e-02 -5.0468793984e-02 0.0000000000e+00 -5.6005440725e-02 -5.0199850525e-02 0.0000000000e+00 -6.1122511737e-02 -4.9924108055e-02 0.0000000000e+00 -6.6239180585e-02 -4.9641452129e-02 0.0000000000e+00 -7.1355503248e-02 -4.9351760294e-02 0.0000000000e+00 -7.6471397397e-02 -4.9054914724e-02 0.0000000000e+00 -8.1586838279e-02 -4.8750791317e-02 0.0000000000e+00 -8.6701851077e-02 -4.8439259672e-02 0.0000000000e+00 -9.1816424892e-02 -4.8120188045e-02 0.0000000000e+00 -9.6930492547e-02 -4.7793444814e-02 0.0000000000e+00 -1.0204404178e-01 -4.7458891444e-02 0.0000000000e+00 -1.0715707215e-01 -4.7116384871e-02 0.0000000000e+00 -1.1226956858e-01 -4.6765779115e-02 0.0000000000e+00 -1.1738150394e-01 -4.6406925081e-02 0.0000000000e+00 -1.2249279621e-01 -4.6039673639e-02 0.0000000000e+00 -1.2760346587e-01 -4.5663864229e-02 0.0000000000e+00 -1.3271353851e-01 -4.5279331259e-02 0.0000000000e+00 -1.3782292438e-01 -4.4885913259e-02 0.0000000000e+00 -1.4293156128e-01 -4.4483442340e-02 0.0000000000e+00 -1.4803948021e-01 -4.4071738429e-02 0.0000000000e+00 -1.5314665394e-01 -4.3650620840e-02 0.0000000000e+00 -1.5825304438e-01 -4.3219904557e-02 0.0000000000e+00 -1.6335853606e-01 -4.2779405918e-02 0.0000000000e+00 -1.6846317945e-01 -4.2328921443e-02 0.0000000000e+00 -1.7356694323e-01 -4.1868248527e-02 0.0000000000e+00 -1.7866975142e-01 -4.1397182525e-02 0.0000000000e+00 -1.8377156506e-01 -4.0915509135e-02 0.0000000000e+00 -1.8887231740e-01 -4.0423010023e-02 0.0000000000e+00 -1.9397201921e-01 -3.9919452293e-02 0.0000000000e+00 -1.9907060315e-01 -3.9404603149e-02 0.0000000000e+00 -2.0416795498e-01 -3.8878227134e-02 0.0000000000e+00 -2.0926410713e-01 -3.8340065606e-02 0.0000000000e+00 -2.1435899276e-01 -3.7789861420e-02 0.0000000000e+00 -2.1945254522e-01 -3.7227348521e-02 0.0000000000e+00 -2.2454463421e-01 -3.6652258723e-02 0.0000000000e+00 -2.2963526591e-01 -3.6064298608e-02 0.0000000000e+00 -2.3472439875e-01 -3.5463169159e-02 0.0000000000e+00 -2.3981193609e-01 -3.4848566607e-02 0.0000000000e+00 -2.4489771085e-01 -3.4220184393e-02 0.0000000000e+00 -2.4998176842e-01 -3.3577677250e-02 0.0000000000e+00 -2.5506399126e-01 -3.2920706413e-02 0.0000000000e+00 -2.6014426393e-01 -3.2248918972e-02 0.0000000000e+00 -2.6522248061e-01 -3.1561945841e-02 0.0000000000e+00 -2.7029858526e-01 -3.0859394906e-02 0.0000000000e+00 -2.7537247023e-01 -3.0140863550e-02 0.0000000000e+00 -2.8044398225e-01 -2.9405937276e-02 0.0000000000e+00 -2.8551303983e-01 -2.8654171425e-02 0.0000000000e+00 -2.9057948552e-01 -2.7885111033e-02 0.0000000000e+00 -2.9564321341e-01 -2.7098270352e-02 0.0000000000e+00 -3.0070406800e-01 -2.6293146236e-02 0.0000000000e+00 -3.0576188583e-01 -2.5469210014e-02 0.0000000000e+00 -3.1081650731e-01 -2.4625903240e-02 0.0000000000e+00 -3.1586776165e-01 -2.3762637513e-02 0.0000000000e+00 -3.2091545343e-01 -2.2878794051e-02 0.0000000000e+00 -3.2595938602e-01 -2.1973716558e-02 0.0000000000e+00 -3.3099932872e-01 -2.1046713543e-02 0.0000000000e+00 -3.3603506379e-01 -2.0097045782e-02 0.0000000000e+00 -3.4106630193e-01 -1.9123937664e-02 0.0000000000e+00 -3.4609279420e-01 -1.8126550881e-02 0.0000000000e+00 -3.5111422796e-01 -1.7103998506e-02 0.0000000000e+00 -3.5613026864e-01 -1.6055330517e-02 0.0000000000e+00 -3.6114055876e-01 -1.4979526225e-02 0.0000000000e+00 -3.6614471400e-01 -1.3875486128e-02 0.0000000000e+00 -3.7114227411e-01 -1.2742032692e-02 0.0000000000e+00 -3.7613277157e-01 -1.1577883387e-02 0.0000000000e+00 -3.8111568954e-01 -1.0381645731e-02 0.0000000000e+00 -3.8609040603e-01 -9.1518147596e-03 0.0000000000e+00 -3.9105627202e-01 -7.8867350466e-03 0.0000000000e+00 -3.9601255828e-01 -6.5845901298e-03 0.0000000000e+00 -4.0095841207e-01 -5.2433865304e-03 0.0000000000e+00 -4.0589288660e-01 -3.8609129621e-03 0.0000000000e+00 -4.1081490142e-01 -2.4347101989e-03 0.0000000000e+00 -4.1572320451e-01 -9.6203219494e-04 0.0000000000e+00 -4.2061636185e-01 5.6021259395e-04 0.0000000000e+00 -4.2549268766e-01 2.1355174736e-03 0.0000000000e+00 -4.3035021769e-01 3.7678670960e-03 0.0000000000e+00 -4.3518659767e-01 5.4618266507e-03 0.0000000000e+00 -4.3999901359e-01 7.2226808961e-03 0.0000000000e+00 -4.4478405085e-01 9.0566000589e-03 0.0000000000e+00 -4.4953751130e-01 1.0970861400e-02 0.0000000000e+00 -4.5425413044e-01 1.2974134101e-02 0.0000000000e+00 -4.5892721924e-01 1.5076883774e-02 0.0000000000e+00 -4.6354810402e-01 1.7291919714e-02 0.0000000000e+00 -4.6810526293e-01 1.9635157524e-02 0.0000000000e+00 -4.7258296803e-01 2.2126706606e-02 0.0000000000e+00 -4.7695906267e-01 2.4792441981e-02 0.0000000000e+00 -4.8120113833e-01 2.7666268843e-02 0.0000000000e+00 -4.8525967047e-01 3.0793297982e-02 0.0000000000e+00 -4.8905511125e-01 3.4233720983e-02 0.0000000000e+00 -4.9245312560e-01 3.8064921006e-02 0.0000000000e+00 -4.9522002994e-01 4.2369646827e-02 0.0000000000e+00 -4.9697272129e-01 4.7169688282e-02 0.0000000000e+00
        </DataArray>
      </Points>
      <Verts>
        <DataArray type="Int64" Name="connectivity" format="ascii">
          0 1 2 3 4 5 6 7 8 9 10 11 12 13 14 15 16 17 18 19 20 21 22 23 24 25 26 27 28 29 30 31 32 33 34 35 36 37 38 39 40 41 42 43 44 45 46 47 48 49 50 51 52 53 54 55 56 57 58 59 60 61 62 63 64 65 66 67 68 69 70 71 72 73 74 75 76 77 78 79 80 81 82 83 84 85 86 87 88 89 90 91 92 93 94 95 96 97 98 99 100 101 102 103 104 105 106 107 108 109 110 111 112 113 114 115 116 117 118 119 120 121 122 123 124 125 126 127 128 129 130 131 132 133 134 135 136 137 138 139 140 141 142 143 144 145 146 147 148 149 150 151 152 153 154 155 156 157 158 159 160 161 162 163 164 165 166 167 168 169 170 171 172 173 174 175 176 177 178 179 180 181 182 183 184 185 186 187 188 189 190 191 192 193 194 195 196 197 198 199 200 201 202 203 204 205 206 207 208 209 210 211 212 213 214 215 216 217 218 219 220 221 222 223 224 225 226 227 228 229 230 231 232 233 234 235 236 237 238 239 240 241 242 243 244 245 246 247 248 249 250 251 252 253 254 255 256 257 258 259 260 261 262 263 264 265 266 267 268 269 270 271 272 273 274 275 276 277 278 279 280 281 282 283 284 285 286 287 288 289 290 291 292 293 294 295 296 297 298 299 300 301 302 303 304 305 306 307 308 309 310 311 312 313 314 315 316 317 318 319 320 321 322 323 324 325 326 327 328 329 330 331 332 333 334 335 336 337 338 339 340 341 342 343 344 345 346 347 348 349 350 351 352 353 354 355 356 357 358 359 360 361 362 363 364 365 366 367 368 369 370 371 372 373 374 375 376 377 378 379 380 381 382 383 384 385 386 387 388 389 390 391 392 393 394 395 396 397
        </DataArray>
        <DataArray type="Int64" Name="offsets" format="ascii">
          1 2 3 4 5 6 7 8 9 10 11 12 13 14 15 16 17 18 19 20 21 22 23 24 25 26 27 28 29 30 31 32 33 34 35 36 37 38 39 40 41 42 43 44 45 46 47 48 49 50 51 52 53 54 55 56 57 58 59 60 61 62 63 64 65 66 67 68 69 70 71 72 73 74 75 76 77 78 79 80 81 82 83 84 85 86 87 88 89 90 91 92 93 94 95 96 97 98 99 100 101 102 103 104 105 106 107 108 109 110 111 112 113 114 115 116 117 118 119 120 121 122 123 124 125 126 127 128 129 130 131 132 133 134 135 136 137 138 139 140 141 142 143 144 145 146 147 148 149 150 151 152 153 154 155 156 157 158 159 160 161 162 163 164 165 166 167 168 169 170 171 172 173 174 175 176 177 178 179 180 181 182 183 184 185 186 187 188 189 190 191 192 193 194 195 196 197 198 199 200 201 202 203 204 205 206 207 208 209 210 211 212 213 214 215 216 217 218 219 220 221 222 223 224 225 226 227 228 229 230 231 232 233 234 235 236 237 238 239 240 241 242 243 244 245 246 247 248 249 250 251 252 253 254 255 256 257 258 259 260 261 262 263 264 265 266 267 268 269 270 271 272 273 274 275 276 277 278 279 280 281 282 283 284 285 286 287 288 289 290 291 292 293 294 295 296 297 298 299 300 301 302 303 304 305 306 307 308 309 310 311 312 313 314 315 316 317 318 319 320 321 322 323 324 325 326 327 328 329 330 331 332 333 334 335 336 337 338 339 340 341 342 343 344 345 346 347 348 349 350 351 352 353 354 355 356 357 358 359 360 361 362 363 364 365 366 367 368 369 370 371 372 373 374 375 376 377 378 379 380 381 382 383 384 385 386 387 388 389 390 391 392 393 394 395 396 397 398
        </DataArray>
      </Verts>
      <PointData>
        <DataArray type="Float64" Name="velocity" NumberOfComponents="3" format="ascii">
          0.0000000000e+00 0.0000000000e+00 0.0000000000e+00 0.0000000000e+00 0.0000000000e+00 0.0000000000e+00 0.0000000000e+00 0.0000000000e+00 0.0000000000e+00 0.0000000000e+00 0.0000000000e+00 0.0000000000e+00 0.0000000000e+00 0.0000000000e+00 0.0000000000e+00 0.0000000000e+00 0.0000000000e+00 0.0000000000e+00 0.0000000000e+00 0.0000000000e+00 0.0000000000e+00 0.0000000000e+00 0.0000000000e+00 0.0000000000e+00 0.0000000000e+00 0.0000000000e+00 0.0000000000e+00 0.0000000000e+00 0.0000000000e+00 0.0000000000e+00 0.0000000000e+00 0.0000000000e+00 0.0000000000e+00 0.0000000000e+00 0.0000000000e+00 0.0000000000e+00 0.0000000000e+00 0.0000000000e+00 0.0000000000e+00 0.0000000000e+00 0.0000000000e+00 0.0000000000e+00 0.0000000000e+00 0.0000000000e+00 0.0000000000e+00 0.0000000000e+00 0.0000000000e+00 0.0000000000e+00 0.0000000000e+00 0.0000000000e+00 0.0000000000e+00 0.0000000000e+00 0.0000000000e+00 0.0000000000e+00 0.0000000000e+00 0.0000000000e+00 0.0000000000e+00 0.0000000000e+00 0.0000000000e+00 0.0000000000e+00 0.0000000000e+00 0.0000000000e+00 0.0000000000e+00 0.0000000000e+00 0.0000000000e+00 0.0000000000e+00 0.0000000000e+00 0.0000000000e+00 0.0000000000e+00 0.0000000000e+00 0.0000000000e+00 0.0000000000e+00 0.0000000000e+00 0.0000000000e+00 0.0000000000e+00 0.0000000000e+00 0.0000000000e+00 0.0000000000e+00 0.0000000000e+00 0.0000000000e+00 0.0000000000e+00 0.0000000000e+00 0.0000000000e+00 0.0000000000e+00 0.0000000000e+00 0.0000000000e+00 0.0000000000e+00 0.0000000000e+00 0.0000000000e+00 0.0000000000e+00 0.0000000000e+00 0.0000000000e+00 0.0000000000e+00 0.0000000000e+00 0.0000000000e+00 0.0000000000e+00 0.0000000000e+00 0.0000000000e+00 0.0000000000e+00 0.0000000000e+00 0.0000000000e+00 0.0000000000e+00 0.0000000000e+00 0.0000000000e+00 0.0000000000e+00 0.0000000000e+00 0.0000000000e+00 0.0000000000e+00 0.0000000000e+00 0.0000000000e+00 0.0000000000e+00 0.0000000000e+00 0.0000000000e+00 0.0000000000e+00 0.0000000000e+00 0.0000000000e+00 0.0000000000e+00 0.0000000000e+00 0.0000000000e+00 0.0000000000e+00 0.0000000000e+00 0.0000000000e+00 0.0000000000e+00 0.0000000000e+00 0.0000000000e+00 0.0000000000e+00 0.0000000000e+00 0.0000000000e+00 0.0000000000e+00 0.0000000000e+00 0.0000000000e+00 0.0000000000e+00 0.0000000000e+00 0.0000000000e+00 0.0000000000e+00 0.0000000000e+00 0.0000000000e+00 0.0000000000e+00 0.0000000000e+00 0.0000000000e+00 0.0000000000e+00 0.0000000000e+00 0.0000000000e+00 0.0000000000e+00 0.0000000000e+00 0.0000000000e+00 0.0000000000e+00 0.0000000000e+00 0.0000000000e+00 0.0000000000e+00 0.0000000000e+00 0.0000000000e+00 0.0000000000e+00 0.0000000000e+00 0.0000000000e+00 0.0000000000e+00 0.0000000000e+00 0.0000000000e+00 0.0000000000e+00 0.0000000000e+00 0.0000000000e+00 0.0000000000e+00 0.0000000000e+00 0.0000000000e+00 0.0000000000e+00 0.0000000000e+00 0.0000000000e+00 0.0000000000e+00 0.0000000000e+00 0.0000000000e+00 0.0000000000e+00 0.0000000000e+00 0.0000000000e+00 0.0000000000e+00 0.0000000000e+00 0.0000000000e+00 0.0000000000e+00 0.0000000000e+00 0.0000000000e+00 0.0000000000e+00 0.0000000000e+00 0.0000000000e+00 0.0000000000e+00 0.0000000000e+00 0.0000000000e+00 0.0000000000e+00 0.0000000000e+00 0.0000000000e+00 0.0000000000e+00 0.0000000000e+00 0.0000000000e+00 0.0000000000e+00 0.0000000000e+00 0.0000000000e+00 0.0000000000e+00 0.0000000000e+00 0.0000000000e+00 0.0000000000e+00 0.0000000000e+00 0.0000000000e+00 0.0000000000e+00 0.0000000000e+00 0.0000000000e+00 0.0000000000e+00 0.0000000000e+00 0.0000000000e+00 0.0000000000e+00 0.0000000000e+00 0.0000000000e+00 0.0000000000e+00 0.0000000000e+00 0.0000000000e+00 0.0000000000e+00 0.0000000000e+00 0.0000000000e+00 0.0000000000e+00 0.0000000000e+00 0.0000000000e+00 0.0000000000e+00 0.0000000000e+00 0.0000000000e+00 0.0000000000e+00 0.0000000000e+00 0.0000000000e+00 0.0000000000e+00 0.0000000000e+00 0.0000000000e+00 0.0000000000e+00 0.0000000000e+00 0.0000000000e+00 0.0000000000e+00 0.0000000000e+00 0.0000000000e+00 0.0000000000e+00 0.0000000000e+00 0.0000000000e+00 0.0000000000e+00 0.0000000000e+00 0.0000000000e+00 0.0000000000e+00 0.0000000000e+00 0.0000000000e+00 0.0000000000e+00 0.0000000000e+00 0.0000000000e+00 0.0000000000e+00 0.0000000000e+00 0.0000000000e+00 0.0000000000e+00 0.0000000000e+00 0.0000000000e+00 0.0000000000e+00 0.0000000000e+00 0.0000000000e+00 0.0000000000e+00 0.0000000000e+00 0.0000000000e+00 0.0000000000e+00 0.0000000000e+00 0.0000000000e+00 0.0000000000e+00 0.0000000000e+00 0.0000000000e+00 0.0000000000e+00 0.0000000000e+00 0.0000000000e+00 0.0000000000e+00 0.0000000000e+00 0.0000000000e+00 0.0000000000e+00 0.0000000000e+00 0.0000000000e+00 0.0000000000e+00 0.0000000000e+00 0.0000000000e+00 0.0000000000e+00 0.0000000000e+00 0.0000000000e+00 0.0000000000e+00 0.0000000000e+00 0.0000000000e+00 0.0000000000e+00 0.0000000000e+00 0.0000000000e+00 0.0000000000e+00 0.0000000000e+00 0.0000000000e+00 0.0000000000e+00 0.0000000000e+00 0.0000000000e+00 0.0000000000e+00 0.0000000000e+00 0.0000000000e+00 0.0000000000e+00 0.0000000000e+00 0.0000000000e+00 0.0000000000e+00 0.0000000000e+00 0.0000000000e+00 0.0000000000e+00 0.0000000000e+00 0.0000000000e+00 0.0000000000e+00 0.0000000000e+00 0.0000000000e+00 0.0000000000e+00 0.0000000000e+00 0.0000000000e+00 0.0000000000e+00 0.0000000000e+00 0.0000000000e+00 0.0000000000e+00 0.0000000000e+00 0.0000000000e+00 0.0000000000e+00 0.0000000000e+00 0.0000000000e+00 0.0000000000e+00 0.0000000000e+00 0.0000000000e+00 0.0000000000e+00 0.0000000000e+00 0.0000000000e+00 0.0000000000e+00 0.0000000000e+00 0.0000000000e+00 0.0000000000e+00 0.0000000000e+00 0.0000000000e+00 0.0000000000e+00 0.0000000000e+00 0.0000000000e+00 0.0000000000e+00 0.0000000000e+00 0.0000000000e+00 0.0000000000e+00 0.0000000000e+00 0.0000000000e+00 0.0000000000e+00 0.0000000000e+00 0.0000000000e+00 0.0000000000e+00 0.0000000000e+00 0.0000000000e+00 0.0000000000e+00 0.0000000000e+00 0.0000000000e+00 0.0000000000e+00 0.0000000000e+00 0.0000000000e+00 0.0000000000e+00 0.0000000000e+00 0.0000000000e+00 0.0000000000e+00 0.0000000000e+00 0.0000000000e+00 0.0000000000e+00 0.0000000000e+00 0.0000000000e+00 0.0000000000e+00 0.0000000000e+00 0.0000000000e+00 0.0000000000e+00 0.0000000000e+00 0.0000000000e+00 0.0000000000e+00 0.0000000000e+00 0.0000000000e+00 0.0000000000e+00 0.0000000000e+00 0.0000000000e+00 0.0000000000e+00 0.0000000000e+00 0.0000000000e+00 0.0000000000e+00 0.0000000000e+00 0.0000000000e+00 0.0000000000e+00 0.0000000000e+00 0.0000000000e+00 0.0000000000e+00 0.0000000000e+00 0.0000000000e+00 0.0000000000e+00 0.0000000000e+00 0.0000000000e+00 0.0000000000e+00 0.0000000000e+00 0.0000000000e+00 0.0000000000e+00 0.0000000000e+00 0.0000000000e+00 0.0000000000e+00 0.0000000000e+00 0.0000000000e+00 0.0000000000e+00 0.0000000000e+00 0.0000000000e+00 0.0000000000e+00 0.0000000000e+00 0.0000000000e+00 0.0000000000e+00 0.0000000000e+00 0.0000000000e+00 0.0000000000e+00 0.0000000000e+00 0.0000000000e+00 0.0000000000e+00 0.0000000000e+00 0.0000000000e+00 0.0000000000e+00 0.0000000000e+00 0.0000000000e+00 0.0000000000e+00 0.0000000000e+00 0.0000000000e+00 0.0000000000e+00 0.0000000000e+00 0.0000000000e+00 0.0000000000e+00 0.0000000000e+00 0.0000000000e+00 0.0000000000e+00 0.0000000000e+00 0.0000000000e+00 0.0000000000e+00 0.0000000000e+00 0.0000000000e+00 0.0000000000e+00 0.0000000000e+00 0.0000000000e+00 0.0000000000e+00 0.0000000000e+00 0.0000000000e+00 0.0000000000e+00 0.0000000000e+00 0.0000000000e+00 0.0000000000e+00 0.0000000000e+00 0.0000000000e+00 0.0000000000e+00 0.0000000000e+00 0.0000000000e+00 0.0000000000e+00 0.0000000000e+00 0.0000000000e+00 0.0000000000e+00 0.0000000000e+00 0.0000000000e+00 0.0000000000e+00 0.0000000000e+00 0.0000000000e+00 0.0000000000e+00 0.0000000000e+00 0.0000000000e+00 0.0000000000e+00 0.0000000000e+00 0.0000000000e+00 0.0000000000e+00 0.0000000000e+00 0.0000000000e+00 0.0000000000e+00 0.0000000000e+00 0.0000000000e+00 0.0000000000e+00 0.0000000000e+00 0.0000000000e+00 0.0000000000e+00 0.0000000000e+00 0.0000000000e+00 0.0000000000e+00 0.0000000000e+00 0.0000000000e+00 0.0000000000e+00 0.0000000000e+00 0.0000000000e+00 0.0000000000e+00 0.0000000000e+00 0.0000000000e+00 0.0000000000e+00 0.0000000000e+00 0.0000000000e+00 0.0000000000e+00 0.0000000000e+00 0.0000000000e+00 0.0000000000e+00 0.0000000000e+00 0.0000000000e+00 0.0000000000e+00 0.0000000000e+00 0.0000000000e+00 0.0000000000e+00 0.0000000000e+00 0.0000000000e+00 0.0000000000e+00 0.0000000000e+00 0.0000000000e+00 0.0000000000e+00 0.0000000000e+00 0.0000000000e+00 0.0000000000e+00 0.0000000000e+00 0.0000000000e+00 0.0000000000e+00 0.0000000000e+00 0.0000000000e+00 0.0000000000e+00 0.0000000000e+00 0.0000000000e+00 0.0000000000e+00 0.0000000000e+00 0.0000000000e+00 0.0000000000e+00 0.0000000000e+00 0.0000000000e+00 0.0000000000e+00 0.0000000000e+00 0.0000000000e+00 0.0000000000e+00 0.0000000000e+00 0.0000000000e+00 0.0000000000e+00 0.0000000000e+00 0.0000000000e+00 0.0000000000e+00 0.0000000000e+00 0.0000000000e+00 0.0000000000e+00 0.0000000000e+00 0.0000000000e+00 0.0000000000e+00 0.0000000000e+00 0.0000000000e+00 0.0000000000e+00 0.0000000000e+00 0.0000000000e+00 0.0000000000e+00 0.0000000000e+00 0.0000000000e+00 0.0000000000e+00 0.0000000000e+00 0.0000000000e+00 0.0000000000e+00 0.0000000000e+00 0.0000000000e+00 0.0000000000e+00 0.0000000000e+00 0.0000000000e+00 0.0000000000e+00 0.0000000000e+00 0.0000000000e+00 0.0000000000e+00 0.0000000000e+00 0.0000000000e+00 0.0000000000e+00 0.0000000000e+00 0.0000000000e+00 0.0000000000e+00 0.0000000000e+00 0.0000000000e+00 0.0000000000e+00 0.0000000000e+00 0.0000000000e+00 0.0000000000e+00 0.0000000000e+00 0.0000000000e+00 0.0000000000e+00 0.0000000000e+00 0.0000000000e+00 0.0000000000e+00 0.0000000000e+00 0.0000000000e+00 0.0000000000e+00 0.0000000000e+00 0.0000000000e+00 0.0000000000e+00 0.0000000000e+00 0.0000000000e+00 0.0000000000e+00 0.0000000000e+00 0.0000000000e+00 0.0000000000e+00 0.0000000000e+00 0.0000000000e+00 0.0000000000e+00 0.0000000000e+00 0.0000000000e+00 0.0000000000e+00 0.0000000000e+00 0.0000000000e+00 0.0000000000e+00 0.0000000000e+00 0.0000000000e+00 0.0000000000e+00 0.0000000000e+00 0.0000000000e+00 0.0000000000e+00 0.0000000000e+00 0.0000000000e+00 0.0000000000e+00 0.0000000000e+00 0.0000000000e+00 0.0000000000e+00 0.0000000000e+00 0.0000000000e+00 0.0000000000e+00 0.0000000000e+00 0.0000000000e+00 0.0000000000e+00 0.0000000000e+00 0.0000000000e+00 0.0000000000e+00 0.0000000000e+00 0.0000000000e+00 0.0000000000e+00 0.0000000000e+00 0.0000000000e+00 0.0000000000e+00 0.0000000000e+00 0.0000000000e+00 0.0000000000e+00 0.0000000000e+00 0.0000000000e+00 0.0000000000e+00 0.0000000000e+00 0.0000000000e+00 0.0000000000e+00 0.0000000000e+00 0.0000000000e+00 0.0000000000e+00 0.0000000000e+00 0.0000000000e+00 0.0000000000e+00 0.0000000000e+00 0.0000000000e+00 0.0000000000e+00 0.0000000000e+00 0.0000000000e+00 0.0000000000e+00 0.0000000000e+00 0.0000000000e+00 0.0000000000e+00 0.0000000000e+00 0.0000000000e+00 0.0000000000e+00 0.0000000000e+00 0.0000000000e+00 0.0000000000e+00 0.0000000000e+00 0.0000000000e+00 0.0000000000e+00 0.0000000000e+00 0.0000000000e+00 0.0000000000e+00 0.0000000000e+00 0.0000000000e+00 0.0000000000e+00 0.0000000000e+00 0.0000000000e+00 0.0000000000e+00 0.0000000000e+00 0.0000000000e+00 0.0000000000e+00 0.0000000000e+00 0.0000000000e+00 0.0000000000e+00 0.0000000000e+00 0.0000000000e+00 0.0000000000e+00 0.0000000000e+00 0.0000000000e+00 0.0000000000e+00 0.0000000000e+00 0.0000000000e+00 0.0000000000e+00 0.0000000000e+00 0.0000000000e+00 0.0000000000e+00 0.0000000000e+00 0.0000000000e+00 0.0000000000e+00 0.0000000000e+00 0.0000000000e+00 0.0000000000e+00 0.0000000000e+00 0.0000000000e+00 0.0000000000e+00 0.0000000000e+00 0.0000000000e+00 0.0000000000e+00 0.0000000000e+00 0.0000000000e+00 0.0000000000e+00 0.0000000000e+00 0.0000000000e+00 0.0000000000e+00 0.0000000000e+00 0.0000000000e+00 0.0000000000e+00 0.0000000000e+00 0.0000000000e+00 0.0000000000e+00 0.0000000000e+00 0.0000000000e+00 0.0000000000e+00 0.0000000000e+00 0.0000000000e+00 0.0000000000e+00 0.0000000000e+00 0.0000000000e+00 0.0000000000e+00 0.0000000000e+00 0.0000000000e+00 0.0000000000e+00 0.0000000000e+00 0.0000000000e+00 0.0000000000e+00 0.0000000000e+00 0.0000000000e+00 0.0000000000e+00 0.0000000000e+00 0.0000000000e+00 0.0000000000e+00 0.0000000000e+00 0.0000000000e+00 0.0000000000e+00 0.0000000000e+00 0.0000000000e+00 0.0000000000e+00 0.0000000000e+00 0.0000000000e+00 0.0000000000e+00 0.0000000000e+00 0.0000000000e+00 0.0000000000e+00 0.0000000000e+00 0.0000000000e+00 0.0000000000e+00 0.0000000000e+00 0.0000000000e+00 0.0000000000e+00 0.0000000000e+00 0.0000000000e+00 0.0000000000e+00 0.0000000000e+00 0.0000000000e+00 0.0000000000e+00 0.0000000000e+00 0.0000000000e+00 0.0000000000e+00 0.0000000000e+00 0.0000000000e+00 0.0000000000e+00 0.0000000000e+00 0.0000000000e+00 0.0000000000e+00 0.0000000000e+00 0.0000000000e+00 0.0000000000e+00 0.0000000000e+00 0.0000000000e+00 0.0000000000e+00 0.0000000000e+00 0.0000000000e+00 0.0000000000e+00 0.0000000000e+00 0.0000000000e+00 0.0000000000e+00 0.0000000000e+00 0.0000000000e+00 0.0000000000e+00 0.0000000000e+00 0.0000000000e+00 0.0000000000e+00 0.0000000000e+00 0.0000000000e+00 0.0000000000e+00 0.0000000000e+00 0.0000000000e+00 0.0000000000e+00 0.0000000000e+00 0.0000000000e+00 0.0000000000e+00 0.0000000000e+00 0.0000000000e+00 0.0000000000e+00 0.0000000000e+00 0.0000000000e+00 0.0000000000e+00 0.0000000000e+00 0.0000000000e+00 0.0000000000e+00 0.0000000000e+00 0.0000000000e+00 0.0000000000e+00 0.0000000000e+00 0.0000000000e+00 0.0000000000e+00 0.0000000000e+00 0.0000000000e+00 0.0000000000e+00 0.0000000000e+00 0.0000000000e+00 0.0000000000e+00 0.0000000000e+00 0.0000000000e+00 0.0000000000e+00 0.0000000000e+00 0.0000000000e+00 0.0000000000e+00 0.0000000000e+00 0.0000000000e+00 0.0000000000e+00 0.0000000000e+00 0.0000000000e+00 0.0000000000e+00 0.0000000000e+00 0.0000000000e+00 0.0000000000e+00 0.0000000000e+00 0.0000000000e+00 0.0000000000e+00 0.0000000000e+00 0.0000000000e+00 0.0000000000e+00 0.0000000000e+00 0.0000000000e+00 0.0000000000e+00 0.0000000000e+00 0.0000000000e+00 0.0000000000e+00 0.0000000000e+00 0.0000000000e+00 0.0000000000e+00 0.0000000000e+00 0.0000000000e+00 0.0000000000e+00 0.0000000000e+00 0.0000000000e+00 0.0000000000e+00 0.0000000000e+00 0.0000000000e+00 0.0000000000e+00 0.0000000000e+00 0.0000000000e+00 0.0000000000e+00 0.0000000000e+00 0.0000000000e+00 0.0000000000e+00 0.0000000000e+00 0.0000000000e+00 0.0000000000e+00 0.0000000000e+00 0.0000000000e+00 0.0000000000e+00 0.0000000000e+00 0.0000000000e+00 0.0000000000e+00 0.0000000000e+00 0.0000000000e+00 0.0000000000e+00 0.0000000000e+00 0.0000000000e+00 0.0000000000e+00 0.0000000000e+00 0.0000000000e+00 0.0000000000e+00 0.0000000000e+00 0.0000000000e+00 0.0000000000e+00 0.0000000000e+00 0.0000000000e+00 0.0000000000e+00 0.0000000000e+00 0.0000000000e+00 0.0000000000e+00 0.0000000000e+00 0.0000000000e+00 0.0000000000e+00 0.0000000000e+00 0.0000000000e+00 0.0000000000e+00 0.0000000000e+00 0.0000000000e+00 0.0000000000e+00 0.0000000000e+00 0.0000000000e+00 0.0000000000e+00 0.0000000000e+00 0.0000000000e+00 0.0000000000e+00 0.0000000000e+00 0.0000000000e+00 0.0000000000e+00 0.0000000000e+00 0.0000000000e+00 0.0000000000e+00 0.0000000000e+00 0.0000000000e+00 0.0000000000e+00 0.0000000000e+00 0.0000000000e+00 0.0000000000e+00 0.0000000000e+00 0.0000000000e+00 0.0000000000e+00 0.0000000000e+00 0.0000000000e+00 0.0000000000e+00 0.0000000000e+00 0.0000000000e+00 0.0000000000e+00 0.0000000000e+00 0.0000000000e+00 0.0000000000e+00 0.0000000000e+00 0.0000000000e+00 0.0000000000e+00 0.0000000000e+00 0.0000000000e+00 0.0000000000e+00 0.0000000000e+00 0.0000000000e+00 0.0000000000e+00 0.0000000000e+00 0.0000000000e+00 0.0000000000e+00 0.0000000000e+00 0.0000000000e+00 0.0000000000e+00 0.0000000000e+00 0.0000000000e+00 0.0000000000e+00 0.0000000000e+00 0.0000000000e+00 0.0000000000e+00 0.0000000000e+00 0.0000000000e+00 0.0000000000e+00 0.0000000000e+00 0.0000000000e+00 0.0000000000e+00 0.0000000000e+00 0.0000000000e+00 0.0000000000e+00 0.0000000000e+00 0.0000000000e+00 0.0000000000e+00 0.0000000000e+00 0.0000000000e+00 0.0000000000e+00 0.0000000000e+00 0.0000000000e+00 0.0000000000e+00 0.0000000000e+00 0.0000000000e+00 0.0000000000e+00 0.0000000000e+00 0.0000000000e+00 0.0000000000e+00 0.0000000000e+00 0.0000000000e+00 0.0000000000e+00 0.0000000000e+00 0.0000000000e+00 0.0000000000e+00 0.0000000000e+00 0.0000000000e+00 0.0000000000e+00 0.0000000000e+00 0.0000000000e+00 0.0000000000e+00 0.0000000000e+00 0.0000000000e+00 0.0000000000e+00 0.0000000000e+00 0.0000000000e+00 0.0000000000e+00 0.0000000000e+00 0.0000000000e+00 0.0000000000e+00 0.0000000000e+00 0.0000000000e+00 0.0000000000e+00 0.0000000000e+00 0.0000000000e+00 0.0000000000e+00 0.0000000000e+00 0.0000000000e+00 0.0000000000e+00 0.0000000000e+00 0.0000000000e+00 0.0000000000e+00 0.0000000000e+00 0.0000000000e+00 0.0000000000e+00 0.0000000000e+00 0.0000000000e+00 0.0000000000e+00 0.0000000000e+00 0.0000000000e+00 0.0000000000e+00 0.0000000000e+00 0.0000000000e+00 0.0000000000e+00 0.0000000000e+00 0.0000000000e+00 0.0000000000e+00 0.0000000000e+00 0.0000000000e+00 0.0000000000e+00 0.0000000000e+00 0.0000000000e+00 0.0000000000e+00 0.0000000000e+00 0.0000000000e+00 0.0000000000e+00 0.0000000000e+00 0.0000000000e+00 0.0000000000e+00 0.0000000000e+00 0.0000000000e+00 0.0000000000e+00 0.0000000000e+00 0.0000000000e+00 0.0000000000e+00 0.0000000000e+00 0.0000000000e+00 0.0000000000e+00 0.0000000000e+00 0.0000000000e+00 0.0000000000e+00 0.0000000000e+00 0.0000000000e+00 0.0000000000e+00 0.0000000000e+00 0.0000000000e+00 0.0000000000e+00 0.0000000000e+00 0.0000000000e+00 0.0000000000e+00 0.0000000000e+00 0.0000000000e+00 0.0000000000e+00 0.0000000000e+00 0.0000000000e+00 0.0000000000e+00 0.0000000000e+00 0.0000000000e+00 0.0000000000e+00 0.0000000000e+00 0.0000000000e+00 0.0000000000e+00 0.0000000000e+00 0.0000000000e+00 0.0000000000e+00 0.0000000000e+00 0.0000000000e+00 0.0000000000e+00 0.0000000000e+00 0.0000000000e+00 0.0000000000e+00 0.0000000000e+00 0.0000000000e+00 0.0000000000e+00 0.0000000000e+00 0.0000000000e+00 0.0000000000e+00 0.0000000000e+00 0.0000000000e+00 0.0000000000e+00 0.0000000000e+00 0.0000000000e+00 0.0000000000e+00 0.0000000000e+00 0.0000000000e+00 0.0000000000e+00 0.0000000000e+00 0.0000000000e+00 0.0000000000e+00 0.0000000000e+00 0.0000000000e+00 0.0000000000e+00 0.0000000000e+00 0.0000000000e+00 0.0000000000e+00 0.0000000000e+00 0.0000000000e+00 0.0000000000e+00 0.0000000000e+00 0.0000000000e+00 0.0000000000e+00 0.0000000000e+00 0.0000000000e+00 0.0000000000e+00 0.0000000000e+00 0.0000000000e+00 0.0000000000e+00 0.0000000000e+00 0.0000000000e+00 0.0000000000e+00 0.0000000000e+00 0.0000000000e+00 0.0000000000e+00 0.0000000000e+00 0.0000000000e+00 0.0000000000e+00 0.0000000000e+00 0.0000000000e+00 0.0000000000e+00 0.0000000000e+00 0.0000000000e+00 0.0000000000e+00 0.0000000000e+00 0.0000000000e+00 0.0000000000e+00 0.0000000000e+00 0.0000000000e+00 0.0000000000e+00 0.0000000000e+00 0.0000000000e+00 0.0000000000e+00 0.0000000000e+00 0.0000000000e+00 0.0000000000e+00 0.0000000000e+00 0.0000000000e+00 0.0000000000e+00 0.0000000000e+00 0.0000000000e+00 0.0000000000e+00 0.0000000000e+00 0.0000000000e+00 0.0000000000e+00 0.0000000000e+00 0.0000000000e+00 0.0000000000e+00 0.0000000000e+00 0.0000000000e+00 0.0000000000e+00 0.0000000000e+00 0.0000000000e+00 0.0000000000e+00 0.0000000000e+00 0.0000000000e+00 0.0000000000e+00 0.0000000000e+00 0.0000000000e+00 0.0000000000e+00 0.0000000000e+00 0.0000000000e+00 0.0000000000e+00 0.0000000000e+00 0.0000000000e+00 0.0000000000e+00 0.0000000000e+00 0.0000000000e+00 0.0000000000e+00 0.0000000000e+00 0.0000000000e+00 0.0000000000e+00 0.0000000000e+00 0.0000000000e+00 0.0000000000e+00 0.0000000000e+00 0.0000000000e+00 0.0000000000e+00 0.0000000000e+00 0.0000000000e+00 0.0000000000e+00 0.0000000000e+00 0.0000000000e+00 0.0000000000e+00 0.0000000000e+00 0.0000000000e+00 0.0000000000e+00 0.0000000000e+00 0.0000000000e+00 0.0000000000e+00 0.0000000000e+00 0.0000000000e+00 0.0000000000e+00 0.0000000000e+00 0.0000000000e+00 0.0000000000e+00 0.0000000000e+00 0.0000000000e+00 0.0000000000e+00 0.0000000000e+00 0.0000000000e+00 0.0000000000e+00 0.0000000000e+00 0.0000000000e+00 0.0000000000e+00
        </DataArray>
        <DataArray type="Float64" Name="force" NumberOfComponents="3" format="ascii">
          -1.0852884867e-02 -1.0840011114e-03 0.0000000000e+00 -8.6026526435e-03 2.1504601392e-03 0.0000000000e+00 -1.2301398852e-02 -6.6915084122e-04 0.0000000000e+00 9.8629014789e-04 1.1776751364e-02 0.0000000000e+00 -1.3365718629e-02 -1.5101175092e-03 0.0000000000e+00 1.7601844109e-03 1.0623074851e-02 0.0000000000e+00 -8.4002485263e-03 3.0568405625e-03 0.0000000000e+00 -3.8775582822e-05 7.8126441169e-03 0.0000000000e+00 -4.8458748963e-03 5.5197540152e-03 0.0000000000e+00 -1.7991053408e-03 6.6361412095e-03 0.0000000000e+00 -2.5853206665e-03 6.4178660208e-03 0.0000000000e+00 -1.6902713427e-03 6.6891826060e-03 0.0000000000e+00 -2.3020079943e-03 6.5268333522e-03 0.0000000000e+00 -1.7286547727e-03 6.6513283497e-03 0.0000000000e+00 -1.6069133305e-03 6.7141722926e-03 0.0000000000e+00 -1.3893713729e-03 6.8411343807e-03 0.0000000000e+00 -1.2452028277e-03 6.8953181471e-03 0.0000000000e+00 -1.2583634885e-03 6.9023936065e-03 0.0000000000e+00 -1.0921820189e-03 6.9240472899e-03 0.0000000000e+00 -1.0548250613e-03 6.9336520630e-03 0.0000000000e+00 -1.0340794852e-03 6.9539216485e-03 0.0000000000e+00 -8.9544277548e-04 7.0003949616e-03 0.0000000000e+00 -7.4809461592e-04 7.0548977633e-03 0.0000000000e+00 -6.8045526689e-04 7.1041924997e-03 0.0000000000e+00 -6.1433301562e-04 7.1416532360e-03 0.0000000000e+00 -5.5399384296e-04 7.1740490273e-03 0.0000000000e+00 -4.9411497802e-04 7.2023159874e-03 0.0000000000e+00 -4.3731438154e-04 7.2275088424e-03 0.0000000000e+00 -3.8231520939e-04 7.2521128921e-03 0.0000000000e+00 -3.2993756414e-04 7.2727686249e-03 0.0000000000e+00 -2.7929031055e-04 7.2954058997e-03 0.0000000000e+00 -2.3077019142e-04 7.3103456314e-03 0.0000000000e+00 -1.8401667476e-04 7.3462423276e-03 0.0000000000e+00 -1.3922823660e-04 7.3558400994e-03 0.0000000000e+00 -9.5624944663e-05 7.3771418255e-03 0.0000000000e+00 -5.4104387859e-05 7.4017157446e-03 0.0000000000e+00 -1.3816896773e-05 7.4207780296e-03 0.0000000000e+00 2.4794822778e-05 7.4412144103e-03 0.0000000000e+00 6.2425551237e-05 7.4588275586e-03 0.0000000000e+00 9.8847149902e-05 7.4765889965e-03 0.0000000000e+00 1.3465063680e-04 7.4927540017e-03 0.0000000000e+00 1.6986145001e-04 7.5085972161e-03 0.0000000000e+00 2.0519553473e-04 7.5231730675e-03 0.0000000000e+00 2.4154938419e-04 7.5372587133e-03 0.0000000000e+00 2.8457768424e-04 7.5485859697e-03 0.0000000000e+00 3.5884882697e-04 7.5603073022e-03 0.0000000000e+00 4.2238740707e-04 7.5762840808e-03 0.0000000000e+00 3.7195058104e-04 7.6032801740e-03 0.0000000000e+00 4.0557282450e-04 7.6292807794e-03 0.0000000000e+00 4.1219133957e-04 7.6525556764e-03 0.0000000000e+00 4.5226928648e-04 7.6715363798e-03 0.0000000000e+00 4.6209947235e-04 7.6890740747e-03 0.0000000000e+00 5.0681520462e-04 7.7039335119e-03 0.0000000000e+00 5.3436536337e-04 7.7149693787e-03 0.0000000000e+00 5.3566834239e-04 7.7227167569e-03 0.0000000000e+00 5.7380605262e-04 7.7269638192e-03 0.0000000000e+00 5.9252140211e-04 7.7288878742e-03 0.0000000000e+00 6.6072896800e-04 7.7233870614e-03 0.0000000000e+00 7.8434999419e-04 7.7222306315e-03 0.0000000000e+00 7.2308931500e-04 7.7516921268e-03 0.0000000000e+00 6.7761115467e-04 7.7881537114e-03 0.0000000000e+00 7.0781380628e-04 7.8160140362e-03 0.0000000000e+00 7.1221368653e-04 7.8376274625e-03 0.0000000000e+00 7.9501127543e-04 7.8459968136e-03 0.0000000000e+00 7.3925247196e-04 7.8524942774e-03 0.0000000000e+00 8.0001893018e-04 7.8451294048e-03 0.0000000000e+00 8.0825511706e-04 7.8315420018e-03 0.0000000000e+00 1.0129665738e-03 7.8143221564e-03 0.0000000000e+00 9.2650054215e-04 7.8450607294e-03 0.0000000000e+00 8.5905940342e-04 7.8843116402e-03 0.0000000000e+00 8.5243775722e-04 7.9241103465e-03 0.0000000000e+00 9.4309657996e-04 7.9350891639e-03 0.0000000000e+00 9.1786253259e-04 7.9456394012e-03 0.0000000000e+00 9.0953420638e-04 7.9321833931e-03 0.0000000000e+00 9.9879916274e-04 7.9058078806e-03 0.0000000000e+00 1.1567352103e-03 7.8869650164e-03 0.0000000000e+00 1.0652435888e-03 7.9244182242e-03 0.0000000000e+00 9.6225940225e-04 7.9693784716e-03 0.0000000000e+00 1.0208893166e-03 8.0105300108e-03 0.0000000000e+00 1.0763996180e-03 8.0065035903e-03 0.0000000000e+00 1.0064510706e-03 8.0127097453e-03 0.0000000000e+00 1.0929705312e-03 7.9672759896e-03 0.0000000000e+00 1.2601670589e-03 7.9554189970e-03 0.0000000000e+00 1.2236946555e-03 7.9675826607e-03 0.0000000000e+00 1.0336803166e-03 8.0415473564e-03 0.0000000000e+00 1.1505449395e-03 8.0671349527e-03 0.0000000000e+00 1.1589720517e-03 8.0799482350e-03 0.0000000000e+00 1.0925851553e-03 8.0561638336e-03 0.0000000000e+00 1.2854887322e-03 8.0152534797e-03 0.0000000000e+00 1.3855376428e-03 8.0054744482e-03 0.0000000000e+00 1.1823660904e-03 8.0530649698e-03 0.0000000000e+00 1.1653255815e-03 8.1225520446e-03 0.0000000000e+00 1.2775302664e-03 8.1228916255e-03 0.0000000000e+00 1.1686026087e-03 8.1261400479e-03 0.0000000000e+00 1.3085448485e-03 8.0684167997e-03 0.0000000000e+00 1.4534950874e-03 8.0480936230e-03 0.0000000000e+00 1.3445342050e-03 8.0831116270e-03 0.0000000000e+00 1.1935085229e-03 8.1628113290e-03 0.0000000000e+00 1.3628646439e-03 8.1708822837e-03 0.0000000000e+00 1.2337591195e-03 8.1679398156e-03 0.0000000000e+00 1.3884200688e-03 8.1123495871e-03 0.0000000000e+00 1.5417007665e-03 8.0829687692e-03 0.0000000000e+00 1.3685887370e-03 8.1329295159e-03 0.0000000000e+00 1.2896822171e-03 8.2081814849e-03 0.0000000000e+00 1.4170264837e-03 8.2147834840e-03 0.0000000000e+00 1.2911115586e-03 8.1936370538e-03 0.0000000000e+00 1.5043077271e-03 8.1401498431e-03 0.0000000000e+00 1.6436585432e-03 8.1195236013e-03 0.0000000000e+00 1.2902723526e-03 8.2019336755e-03 0.0000000000e+00 1.4572507548e-03 8.2488220251e-03 0.0000000000e+00 1.4036983323e-03 8.2522080544e-03 0.0000000000e+00 1.4204825920e-03 8.2025051605e-03 0.0000000000e+00 1.6298588629e-03 8.1525779731e-03 0.0000000000e+00 1.6114391871e-03 8.1801235960e-03 0.0000000000e+00 1.3261442309e-03 8.2750816821e-03 0.0000000000e+00 1.5685830384e-03 8.2800821158e-03 0.0000000000e+00 1.3713075228e-03 8.2617442958e-03 0.0000000000e+00 1.6452906401e-03 8.1953673962e-03 0.0000000000e+00 1.7543639733e-03 8.1818408860e-03 0.0000000000e+00 1.3473518580e-03 8.2803421458e-03 0.0000000000e+00 1.6147280804e-03 8.3081989451e-03 0.0000000000e+00 1.4347517296e-03 8.3038518133e-03 0.0000000000e+00 1.6311321775e-03 8.2358627024e-03 0.0000000000e+00 1.8182211143e-03 8.1958667017e-03 0.0000000000e+00 1.4435908677e-03 8.2860088640e-03 0.0000000000e+00 1.6141977593e-03 8.3342375693e-03 0.0000000000e+00 1.5192154638e-03 8.3330517271e-03 0.0000000000e+00 1.6180812816e-03 8.2699093663e-03 0.0000000000e+00 1.8723707624e-03 8.2140624717e-03 0.0000000000e+00 1.5216330019e-03 8.2995798436e-03 0.0000000000e+00 1.6302279668e-03 8.3570178488e-03 0.0000000000e+00 1.5765450488e-03 8.3567570952e-03 0.0000000000e+00 1.6395212397e-03 8.2940056421e-03 0.0000000000e+00 1.9317519913e-03 8.2320146546e-03 0.0000000000e+00 1.5420631350e-03 8.3238463966e-03 0.0000000000e+00 1.6912223917e-03 8.3759166808e-03 0.0000000000e+00 1.5846400414e-03 8.3788739659e-03 0.0000000000e+00 1.7218466022e-03 8.3048786409e-03 0.0000000000e+00 1.9715953516e-03 8.2527078558e-03 0.0000000000e+00 1.5283811945e-03 8.3560885658e-03 0.0000000000e+00 1.7798074702e-03 8.3924425445e-03 0.0000000000e+00 1.5609074345e-03 8.3971474501e-03 0.0000000000e+00 1.8539557549e-03 8.3030071278e-03 0.0000000000e+00 1.9666302612e-03 8.2816368076e-03 0.0000000000e+00 1.5311965173e-03 8.3921885698e-03 0.0000000000e+00 1.8642943245e-03 8.4072029344e-03 0.0000000000e+00 1.5262181345e-03 8.4069738070e-03 0.0000000000e+00 2.0376187796e-03 8.2898255804e-03 0.0000000000e+00 1.8520954357e-03 8.3283787963e-03 0.0000000000e+00 1.6599196692e-03 8.4173010088e-03 0.0000000000e+00 1.8135162740e-03 8.4321237631e-03 0.0000000000e+00 1.6513691002e-03 8.3877457344e-03 0.0000000000e+00 2.1336314588e-03 8.2882526625e-03 0.0000000000e+00 1.7063042769e-03 8.3832941572e-03 0.0000000000e+00 1.8416388774e-03 8.4350985637e-03 0.0000000000e+00 1.6671627644e-03 8.4497679191e-03 0.0000000000e+00 1.9654671103e-03 8.3439903143e-03 0.0000000000e+00 2.0516536227e-03 8.3243206309e-03 0.0000000000e+00 1.6579300755e-03 8.4342018875e-03 0.0000000000e+00 1.9428547816e-03 8.4513332999e-03 0.0000000000e+00 1.6339603969e-03 8.4344299083e-03 0.0000000000e+00 2.2229623126e-03 8.3079231606e-03 0.0000000000e+00 1.8051251417e-03 8.3953097758e-03 0.0000000000e+00 1.8941449954e-03 8.4525178916e-03 0.0000000000e+00 1.7226120410e-03 8.4753134660e-03 0.0000000000e+00 2.0489190995e-03 8.3609055815e-03 0.0000000000e+00 2.0908325765e-03 8.3459450741e-03 0.0000000000e+00 1.7566375860e-03 8.4522741556e-03 0.0000000000e+00 1.9579528363e-03 8.4748945699e-03 0.0000000000e+00 1.7623423631e-03 8.4359909658e-03 0.0000000000e+00 2.2923074198e-03 8.3194698537e-03 0.0000000000e+00 1.8032131960e-03 8.4291870235e-03 0.0000000000e+00 2.0119199451e-03 8.4694193039e-03 0.0000000000e+00 1.7223957727e-03 8.4830360110e-03 0.0000000000e+00 2.2683982952e-03 8.3401292909e-03 0.0000000000e+00 1.9862035195e-03 8.3920412189e-03 0.0000000000e+00 1.9580010621e-03 8.4661995660e-03 0.0000000000e+00 1.8216317242e-03 8.4963959257e-03 0.0000000000e+00 2.1559782895e-03 8.3757326722e-03 0.0000000000e+00 2.1599585820e-03 8.3567423542e-03 0.0000000000e+00 1.9197035012e-03 8.4565663720e-03 0.0000000000e+00 1.9459622614e-03 8.4906134389e-03 0.0000000000e+00 2.0330122897e-03 8.4072164776e-03 0.0000000000e+00 2.3004211127e-03 8.3234666805e-03 0.0000000000e+00 1.9297346695e-03 8.4314026196e-03 0.0000000000e+00 2.0301223245e-03 8.4726832134e-03 0.0000000000e+00 1.9685736969e-03 8.4180739124e-03 0.0000000000e+00 2.3654842236e-03 8.2851288602e-03 0.0000000000e+00 2.0462461666e-03 8.3649894585e-03 0.0000000000e+00 1.9750609024e-03 8.4451187778e-03 0.0000000000e+00 2.0319720566e-03 8.3980343380e-03 0.0000000000e+00 2.3756821785e-03 8.2137474948e-03 0.0000000000e+00 2.2617370618e-03 8.1667389628e-03 0.0000000000e+00 1.7278170890e-03 8.4576310632e-03 0.0000000000e+00 2.3124702919e-03 8.1823562335e-03 0.0000000000e+00 1.1055440387e-03 9.1769064767e-03 0.0000000000e+00 3.2798182505e-03 9.6772647376e-03 0.0000000000e+00 4.5760455086e-06 1.3753157630e-02 0.0000000000e+00 8.5157017292e-03 1.0135208314e-02 0.0000000000e+00 -2.7125509280e-04 1.3970741471e-04 0.0000000000e+00 -1.6200659715e-03 -1.0871124162e-02 0.0000000000e+00 3.7911236767e-04 -1.3881756359e-02 0.0000000000e+00 -5.0370064238e-04 -9.6915619862e-03 0.0000000000e+00 -8.1225873447e-04 -9.4716786785e-03 0.0000000000e+00 2.3042135503e-04 -8.3550403824e-03 0.0000000000e+00 4.3307762783e-05 -8.6925597426e-03 0.0000000000e+00 2.2320609085e-04 -8.3574392218e-03 0.0000000000e+00 3.2834754752e-04 -8.6021632075e-03 0.0000000000e+00 1.7987246362e-04 -8.6589485743e-03 0.0000000000e+00 9.1683921583e-05 -8.6508991878e-03 0.0000000000e+00 1.5523095776e-04 -8.6070110081e-03 0.0000000000e+00 2.4338682693e-04 -8.6491747549e-03 0.0000000000e+00 1.5932799951e-04 -8.6930238661e-03 0.0000000000e+00 1.1120756216e-04 -8.6875849957e-03 0.0000000000e+00 1.2620904580e-04 -8.6730694720e-03 0.0000000000e+00 1.6392170667e-04 -8.6860895728e-03 0.0000000000e+00 1.3547691849e-04 -8.6935959377e-03 0.0000000000e+00 1.0598947489e-04 -8.7058588219e-03 0.0000000000e+00 1.0306890084e-04 -8.7062331801e-03 0.0000000000e+00 1.1396288860e-04 -8.6931146383e-03 0.0000000000e+00 1.0277273320e-04 -8.7153014022e-03 0.0000000000e+00 8.8311210354e-05 -8.7121191871e-03 0.0000000000e+00 7.9932092750e-05 -8.7190277044e-03 0.0000000000e+00 7.8823486979e-05 -8.7174702671e-03 0.0000000000e+00 7.2556123590e-05 -8.7230619175e-03 0.0000000000e+00 6.3390260824e-05 -8.7237503833e-03 0.0000000000e+00 5.5298890870e-05 -8.7252746124e-03 0.0000000000e+00 5.0182678838e-05 -8.7257372416e-03 0.0000000000e+00 4.4641137192e-05 -8.7268941118e-03 0.0000000000e+00 3.7611156384e-05 -8.7279498497e-03 0.0000000000e+00 3.0428454937e-05 -8.7287088773e-03 0.0000000000e+00 2.4169403963e-05 -8.7290426443e-03 0.0000000000e+00 1.8226380415e-05 -8.7296327457e-03 0.0000000000e+00 1.1761775474e-05 -8.7301547040e-03 0.0000000000e+00 4.9676480782e-06 -8.7305666878e-03 0.0000000000e+00 -1.6755289841e-06 -8.7310143381e-03 0.0000000000e+00 -8.0813788231e-06 -8.7311073847e-03 0.0000000000e+00 -1.4565693194e-05 -8.7313119187e-03 0.0000000000e+00 -2.1234967573e-05 -8.7316061019e-03 0.0000000000e+00 -2.7844730729e-05 -8.7316764300e-03 0.0000000000e+00 -3.4435396694e-05 -8.7317094589e-03 0.0000000000e+00 -4.1008442793e-05 -8.7316592128e-03 0.0000000000e+00 -4.7694223130e-05 -8.7317453039e-03 0.0000000000e+00 -5.4455252923e-05 -8.7317639355e-03 0.0000000000e+00 -6.1261424996e-05 -8.7316251565e-03 0.0000000000e+00 -6.8066843096e-05 -8.7315270832e-03 0.0000000000e+00 -7.4937288422e-05 -8.7314137896e-03 0.0000000000e+00 -8.1833849878e-05 -8.7312205309e-03 0.0000000000e+00 -8.8825542650e-05 -8.7307530781e-03 0.0000000000e+00 -9.5775231564e-05 -8.7305966947e-03 0.0000000000e+00 -1.0286521200e-04 -8.7297040176e-03 0.0000000000e+00 -1.0982843483e-04 -8.7297509500e-03 0.0000000000e+00 -1.1706366996e-04 -8.7278853597e-03 0.0000000000e+00 -1.2398482221e-04 -8.7283382032e-03 0.0000000000e+00 -1.3140126031e-04 -8.7246431778e-03 0.0000000000e+00 -1.3821986919e-04 -8.7262012230e-03 0.0000000000e+00 -1.4589961896e-04 -8.7174930178e-03 0.0000000000e+00 -1.5265930338e-04 -8.7202284009e-03 0.0000000000e+00 -1.5998437641e-04 -8.7312488481e-03 0.0000000000e+00 -1.6728258266e-04 -8.7132543100e-03 0.0000000000e+00 -1.7471698923e-04 -8.7246930477e-03 0.0000000000e+00 -1.8176323504e-04 -8.7225581794e-03 0.0000000000e+00 -1.8927490197e-04 -8.7277577442e-03 0.0000000000e+00 -1.9646476101e-04 -8.7269393762e-03 0.0000000000e+00 -2.0400006987e-04 -8.7293195899e-03 0.0000000000e+00 -2.1134912498e-04 -8.7293171515e-03 0.0000000000e+00 -2.1892846518e-04 -8.7305051182e-03 0.0000000000e+00 -2.2643454962e-04 -8.7311868792e-03 0.0000000000e+00 -2.3408681828e-04 -8.7318765250e-03 0.0000000000e+00 -2.4171785478e-04 -8.7325519867e-03 0.0000000000e+00 -2.4946815120e-04 -8.7333771194e-03 0.0000000000e+00 -2.5720797396e-04 -8.7340039915e-03 0.0000000000e+00 -2.6504628231e-04 -8.7348111261e-03 0.0000000000e+00 -2.7286786002e-04 -8.7354240537e-03 0.0000000000e+00 -2.8078149988e-04 -8.7362641266e-03 0.0000000000e+00 -2.8862935779e-04 -8.7372690832e-03 0.0000000000e+00 -2.9658219644e-04 -8.7378772366e-03 0.0000000000e+00 -3.0426723617e-04 -8.7387722565e-03 0.0000000000e+00 -3.1302300932e-04 -8.7397123381e-03 0.0000000000e+00 -3.2023769180e-04 -8.7404921523e-03 0.0000000000e+00 -3.2879818771e-04 -8.7414182976e-03 0.0000000000e+00 -3.3648321171e-04 -8.7421954236e-03 0.0000000000e+00 -3.4546016702e-04 -8.7431722454e-03 0.0000000000e+00 -3.5285716743e-04 -8.7441323354e-03 0.0000000000e+00 -3.6241577467e-04 -8.7444121584e-03 0.0000000000e+00 -3.7083958879e-04 -8.7445482237e-03 0.0000000000e+00 -3.8016242963e-04 -8.7445793865e-03 0.0000000000e+00 -3.8918469226e-04 -8.7444181108e-03 0.0000000000e+00 -3.9851150979e-04 -8.7440170467e-03 0.0000000000e+00 -4.0770484407e-04 -8.7428988226e-03 0.0000000000e+00 -4.1700065888e-04 -8.7418507545e-03 0.0000000000e+00 -4.2625174362e-04 -8.7393764594e-03 0.0000000000e+00 -4.3548682324e-04 -8.7375779153e-03 0.0000000000e+00 -4.4510751987e-04 -8.7316909003e-03 0.0000000000e+00 -4.5458839630e-04 -8.7291711449e-03 0.0000000000e+00 -4.6791664235e-04 -8.7169363645e-03 0.0000000000e+00 -4.8285350855e-04 -8.7133388877e-03 0.0000000000e+00 -5.4105581436e-04 -8.6913573394e-03 0.0000000000e+00 -5.5131914726e-04 -8.7028951160e-03 0.0000000000e+00 -5.2718570501e-04 -8.7080869918e-03 0.0000000000e+00 -5.3590238250e-04 -8.7009644033e-03 0.0000000000e+00 -5.4419992745e-04 -8.7207889086e-03 0.0000000000e+00 -5.5617963194e-04 -8.7213967630e-03 0.0000000000e+00 -5.6725420312e-04 -8.7327054374e-03 0.0000000000e+00 -5.7835620288e-04 -8.7350977775e-03 0.0000000000e+00 -5.8899022301e-04 -8.7423471092e-03 0.0000000000e+00 -5.9907164458e-04 -8.7456763826e-03 0.0000000000e+00 -6.1128910006e-04 -8.7515311744e-03 0.0000000000e+00 -6.1975807119e-04 -8.7544083982e-03 0.0000000000e+00 -6.3436220248e-04 -8.7551901060e-03 0.0000000000e+00 -6.4411061671e-04 -8.7546025105e-03 0.0000000000e+00 -6.5689641363e-04 -8.7523504979e-03 0.0000000000e+00 -6.6771969234e-04 -8.7474941901e-03 0.0000000000e+00 -6.7980733183e-04 -8.7392269062e-03 0.0000000000e+00 -6.9773720012e-04 -8.7249875610e-03 0.0000000000e+00 -7.5506751932e-04 -8.7072849276e-03 0.0000000000e+00 -8.3623795353e-04 -8.6962865869e-03 0.0000000000e+00 -7.7511504159e-04 -8.7061984344e-03 0.0000000000e+00 -7.7924922983e-04 -8.7226508747e-03 0.0000000000e+00 -7.7934418876e-04 -8.7373951988e-03 0.0000000000e+00 -8.0861995679e-04 -8.7486511464e-03 0.0000000000e+00 -8.0542646010e-04 -8.7593104649e-03 0.0000000000e+00 -8.4121878381e-04 -8.7681949498e-03 0.0000000000e+00 -8.3021813485e-04 -8.7754524279e-03 0.0000000000e+00 -8.7288925717e-04 -8.7722025502e-03 0.0000000000e+00 -8.5107036709e-04 -8.7682981555e-03 0.0000000000e+00 -9.0821154653e-04 -8.7548295300e-03 0.0000000000e+00 -8.6918923894e-04 -8.7343004980e-03 0.0000000000e+00 -1.0532391221e-03 -8.7027770535e-03 0.0000000000e+00 -1.0587055370e-03 -8.6986408200e-03 0.0000000000e+00 -9.9684167633e-04 -8.7191111814e-03 0.0000000000e+00 -1.0001051102e-03 -8.7480249440e-03 0.0000000000e+00 -1.0125782781e-03 -8.7684166676e-03 0.0000000000e+00 -1.0464058965e-03 -8.7845428206e-03 0.0000000000e+00 -1.0490179784e-03 -8.7976926049e-03 0.0000000000e+00 -1.0721242678e-03 -8.7907908184e-03 0.0000000000e+00 -1.0881643052e-03 -8.7784729571e-03 0.0000000000e+00 -1.0764072698e-03 -8.7471280730e-03 0.0000000000e+00 -1.2979436870e-03 -8.7048788116e-03 0.0000000000e+00 -1.3045337909e-03 -8.7074085514e-03 0.0000000000e+00 -1.2028894442e-03 -8.7358237427e-03 0.0000000000e+00 -1.2134084646e-03 -8.7833088354e-03 0.0000000000e+00 -1.2638604336e-03 -8.8004847934e-03 0.0000000000e+00 -1.2544190514e-03 -8.8244444274e-03 0.0000000000e+00 -1.3000633195e-03 -8.8003167271e-03 0.0000000000e+00 -1.2626726282e-03 -8.7805645576e-03 0.0000000000e+00 -1.4947519040e-03 -8.7189750491e-03 0.0000000000e+00 -1.5831700577e-03 -8.7135956733e-03 0.0000000000e+00 -1.3997673768e-03 -8.7565064327e-03 0.0000000000e+00 -1.4631989982e-03 -8.8188247494e-03 0.0000000000e+00 -1.4542151794e-03 -8.8451415261e-03 0.0000000000e+00 -1.5090327941e-03 -8.8521124218e-03 0.0000000000e+00 -1.4883991672e-03 -8.7913232294e-03 0.0000000000e+00 -1.7355621676e-03 -8.7470159593e-03 0.0000000000e+00 -1.8457584929e-03 -8.7337713113e-03 0.0000000000e+00 -1.5987635790e-03 -8.8092515942e-03 0.0000000000e+00 -1.7085787502e-03 -8.8710100018e-03 0.0000000000e+00 -1.6857744090e-03 -8.8947865176e-03 0.0000000000e+00 -1.7357209090e-03 -8.8216677388e-03 0.0000000000e+00 -1.9862830825e-03 -8.7681526443e-03 0.0000000000e+00 -2.0924954303e-03 -8.7657934209e-03 0.0000000000e+00 -1.8755778984e-03 -8.8483767216e-03 0.0000000000e+00 -1.8775145782e-03 -8.9463101810e-03 0.0000000000e+00 -1.9652257402e-03 -8.8743941883e-03 0.0000000000e+00 -2.1968538382e-03 -8.8054420090e-03 0.0000000000e+00 -2.3714220064e-03 -8.7877355973e-03 0.0000000000e+00 -2.1987176469e-03 -8.8624768636e-03 0.0000000000e+00 -2.0294209724e-03 -9.0156118097e-03 0.0000000000e+00 -2.3799753244e-03 -8.8460018167e-03 0.0000000000e+00 -2.4545665368e-03 -8.8535227748e-03 0.0000000000e+00 -2.8214198789e-03 -8.7855852025e-03 0.0000000000e+00 -2.1571078770e-03 -9.0580501006e-03 0.0000000000e+00 -2.6452910795e-03 -8.9053391419e-03 0.0000000000e+00 -2.7227443968e-03 -8.8761360576e-03 0.0000000000e+00 -3.2601513448e-03 -8.8228464572e-03 0.0000000000e+00 -2.3061592683e-03 -9.0671164639e-03 0.0000000000e+00 -3.1028820336e-03 -8.9872945518e-03 0.0000000000e+00 -3.3961211101e-03 -8.7055375025e-03 0.0000000000e+00 -3.1013364671e-03 -9.2084224996e-03 0.0000000000e+00 -3.1378039885e-03 -8.7087487920e-03 0.0000000000e+00 -3.3082975473e-03 -9.3762961324e-03 0.0000000000e+00 -4.5993906759e-03 -8.1882799569e-03 0.0000000000e+00 -2.1008178361e-03 -9.9997498626e-03 0.0000000000e+00 -5.6616555993e-03 -7.7716406552e-03 0.0000000000e+00 -3.1460947877e-03 -9.7613896710e-03 0.0000000000e+00 -4.3700658177e-03 -8.4360669953e-03 0.0000000000e+00 -5.6212502600e-03 -8.9215095989e-03 0.0000000000e+00 -3.0244642048e-03 -9.2026265539e-03 0.0000000000e+00 -7.3533339986e-03 -8.2823461989e-03 0.0000000000e+00 -3.1791734345e-03 -9.5776061216e-03 0.0000000000e+00 -8.3059589420e-03 -7.7248986751e-03 0.0000000000e+00 -3.5290559791e-03 -1.0242383879e-02 0.0000000000e+00 -1.0265101034e-02 -6.0937741055e-03 0.0000000000e+00 -4.7830957220e-03 -1.0340106713e-02 0.0000000000e+00 -1.0580037948e-02 -4.7027306502e-03 0.0000000000e+00 -8.0149377750e-03 -9.0568105828e-03 0.0000000000e+00 -1.1695100944e-02 -2.7495817972e-03 0.0000000000e+00 -1.0218512485e-02 -3.5213812350e-03 0.0000000000e+00
        </DataArray>
      </PointData>
    </Piece>
  </PolyData>
</VTKFile>
