<?xml version="1.0"?>
<VTKFile type="PolyData" version="0.1" byte_order="LittleEndian">
  <PolyData>
    <FieldData>
      <DataArray type="Float64" Name="TimeValue" NumberOfTuples="1" format="ascii">
        6.999999999998803e+01
      </DataArray>
    </FieldData>
    <Piece NumberOfPoints="398" NumberOfVerts="398" NumberOfLines="0" NumberOfStrips="0" NumberOfPolys="0">
      <Points>
        <DataArray type="Float64" NumberOfComponents="3" format="ascii">
          -4.9726094768e-01 5.2264231634e-02 0.0000000000e+00 -4.9591980461e-01 5.7187521354e-02 0.0000000000e+00 -4.9320742903e-01 6.1518265364e-02 0.0000000000e+00 -4.8960598536e-01 6.5153650837e-02 0.0000000000e+00 -4.8548567450e-01 6.8194643038e-02 0.0000000000e+00 -4.8105786906e-01 7.0770768034e-02 0.0000000000e+00 -4.7643787966e-01 7.2985647804e-02 0.0000000000e+00 -4.7169100133e-01 7.4914697529e-02 0.0000000000e+00 -4.6685629730e-01 7.6612338955e-02 0.0000000000e+00 -4.6195841863e-01 7.8118474475e-02 0.0000000000e+00 -4.5701365804e-01 7.9463020303e-02 0.0000000000e+00 -4.5203321881e-01 8.0668916425e-02 0.0000000000e+00 -4.4702506197e-01 8.1754126178e-02 0.0000000000e+00 -4.4199500846e-01 8.2732982305e-02 0.0000000000e+00 -4.3694742522e-01 8.3617112443e-02 0.0000000000e+00 -4.3188565927e-01 8.4416090884e-02 0.0000000000e+00 -4.2681230400e-01 8.5137908709e-02 0.0000000000e+00 -4.2172941653e-01 8.5789311244e-02 0.0000000000e+00 -4.1663865062e-01 8.6376052829e-02 0.0000000000e+00 -4.1154135992e-01 8.6903088373e-02 0.0000000000e+00 -4.0643863732e-01 8.7374723845e-02 0.0000000000e+00 -4.0133140546e-01 8.7794726707e-02 0.0000000000e+00 -3.9622042424e-01 8.8166419095e-02 0.0000000000e+00 -3.9110634740e-01 8.8492747356e-02 0.0000000000e+00 -3.8598972048e-01 8.8776341615e-02 0.0000000000e+00 -3.8087100981e-01 8.9019561684e-02 0.0000000000e+00 -3.7575063504e-01 8.9224534775e-02 0.0000000000e+00 -3.7062893181e-01 8.9393189274e-02 0.0000000000e+00 -3.6550619075e-01 8.9527279365e-02 0.0000000000e+00 -3.6038270739e-01 8.9628406450e-02 0.0000000000e+00 -3.5525869773e-01 8.9698040036e-02 0.0000000000e+00 -3.5013435246e-01 8.9737531833e-02 0.0000000000e+00 -3.4500987690e-01 8.9748129328e-02 0.0000000000e+00 -3.3988541842e-01 8.9730987908e-02 0.0000000000e+00 -3.3476111444e-01 8.9687180276e-02 0.0000000000e+00 -3.2963709471e-01 8.9617705257e-02 0.0000000000e+00 -3.2451348064e-01 8.9523495400e-02 0.0000000000e+00 -3.1939034143e-01 8.9405422449e-02 0.0000000000e+00 -3.1426779881e-01 8.9264305217e-02 0.0000000000e+00 -3.0914591206e-01 8.9100912041e-02 0.0000000000e+00 -3.0402476307e-01 8.8915967270e-02 0.0000000000e+00 -2.9890440772e-01 8.8710153739e-02 0.0000000000e+00 -2.9378490850e-01 8.8484117338e-02 0.0000000000e+00 -2.8866631015e-01 8.8238469120e-02 0.0000000000e+00 -2.8354865267e-01 8.7973788508e-02 0.0000000000e+00 -2.7843198600e-01 8.7690626604e-02 0.0000000000e+00 -2.7331635766e-01 8.7389507892e-02 0.0000000000e+00 -2.6820177024e-01 8.7070929522e-02 0.0000000000e+00 -2.6308828316e-01 8.6735369256e-02 0.0000000000e+00 -2.5797588368e-01 8.6383278975e-02 0.0000000000e+00 -2.5286463554e-01 8.6015095985e-02 0.0000000000e+00 -2.4775456034e-01 8.5631236490e-02 0.0000000000e+00 -2.4264563136e-01 8.5232095683e-02 0.0000000000e+00 -2.3753787536e-01 8.4818056587e-02 0.0000000000e+00 -2.3243133189e-01 8.4389488400e-02 0.0000000000e+00 -2.2732604551e-01 8.3946746927e-02 0.0000000000e+00 -2.2222190001e-01 8.3490160448e-02 0.0000000000e+00 -2.1711899509e-01 8.3020063562e-02 0.0000000000e+00 -2.1201736213e-01 8.2536773495e-02 0.0000000000e+00 -2.0691697960e-01 8.2040591368e-02 0.0000000000e+00 -2.0181778048e-01 8.1531802906e-02 0.0000000000e+00 -1.9671983644e-01 8.1010697525e-02 0.0000000000e+00 -1.9162315737e-01 8.0477549322e-02 0.0000000000e+00 -1.8652775518e-01 7.9932623721e-02 0.0000000000e+00 -1.8143354438e-01 7.9376166968e-02 0.0000000000e+00 -1.7634058775e-01 7.8808433128e-02 0.0000000000e+00 -1.7124890276e-01 7.8229663908e-02 0.0000000000e+00 -1.6615843046e-01 7.7640084880e-02 0.0000000000e+00 -1.6106919074e-01 7.7039923480e-02 0.0000000000e+00 -1.5598117717e-01 7.6429397432e-02 0.0000000000e+00 -1.5089442149e-01 7.5808722703e-02 0.0000000000e+00 -1.4580891223e-01 7.5178103979e-02 0.0000000000e+00 -1.4072455773e-01 7.4537729809e-02 0.0000000000e+00 -1.3564143273e-01 7.3887803843e-02 0.0000000000e+00 -1.3055953602e-01 7.3228514974e-02 0.0000000000e+00 -1.2547885669e-01 7.2560045603e-02 0.0000000000e+00 -1.2039932696e-01 7.1882565420e-02 0.0000000000e+00 -1.1532097276e-01 7.1196251579e-02 0.0000000000e+00 -1.1024384833e-01 7.0501280681e-02 0.0000000000e+00 -1.0516789419e-01 6.9797809381e-02 0.0000000000e+00 -1.0009305693e-01 6.9085990467e-02 0.0000000000e+00 -9.5019385779e-02 6.8365986871e-02 0.0000000000e+00 -8.9946876275e-02 6.7637950065e-02 0.0000000000e+00 -8.4875512802e-02 6.6902025973e-02 0.0000000000e+00 -7.9805266057e-02 6.6158354627e-02 0.0000000000e+00 -7.4736119229e-02 6.5407074084e-02 0.0000000000e+00 -6.9668110663e-02 6.4648327056e-02 0.0000000000e+00 -6.4601223625e-02 6.3882244673e-02 0.0000000000e+00 -5.9535406374e-02 6.3108949253e-02 0.0000000000e+00 -5.4470657317e-02 6.2328567330e-02 0.0000000000e+00 -4.9407032488e-02 6.1541231275e-02 0.0000000000e+00 -4.4344451672e-02 6.0747049224e-02 0.0000000000e+00 -3.9282923158e-02 5.9946139943e-02 0.0000000000e+00 -3.4222445485e-02 5.9138617762e-02 0.0000000000e+00 -2.9163037454e-02 5.8324597432e-02 0.0000000000e+00 -2.4104648617e-02 5.7504179745e-02 0.0000000000e+00 -1.9047261811e-02 5.6677467985e-02 0.0000000000e+00 -1.3990893842e-02 5.5844568318e-02 0.0000000000e+00 -8.9355444057e-03 5.5005581552e-02 0.0000000000e+00 -3.8812175905e-03 5.4160606701e-02 0.0000000000e+00 1.1721998069e-03 5.3309720494e-02 0.0000000000e+00 6.2245485523e-03 5.2453043054e-02 0.0000000000e+00 1.1275943392e-02 5.1590645938e-02 0.0000000000e+00 1.6326440609e-02 5.0722607920e-02 0.0000000000e+00 2.1375943892e-02 4.9849031720e-02 0.0000000000e+00 2.6424457110e-02 4.8970000753e-02 0.0000000000e+00 3.1472011504e-02 4.8085591397e-02 0.0000000000e+00 3.6518701143e-02 4.7195866621e-02 0.0000000000e+00 4.1564441327e-02 4.6300918671e-02 0.0000000000e+00 4.6609230112e-02 4.5400823257e-02 0.0000000000e+00 5.1653173445e-02 4.4495634621e-02 0.0000000000e+00 5.6696228622e-02 4.3585431459e-02 0.0000000000e+00 6.1738361294e-02 4.2670289132e-02 0.0000000000e+00 6.6779564021e-02 4.1750276257e-02 0.0000000000e+00 7.1819899165e-02 4.0825446710e-02 0.0000000000e+00 7.6859356703e-02 3.9895865608e-02 0.0000000000e+00 8.1898008641e-02 3.8961580986e-02 0.0000000000e+00 8.6935705941e-02 3.8022680059e-02 0.0000000000e+00 9.1972611128e-02 3.7079190280e-02 0.0000000000e+00 9.7008668669e-02 3.6131177844e-02 0.0000000000e+00 1.0204386087e-01 3.5178700202e-02 0.0000000000e+00 1.0707827097e-01 3.4221793894e-02 0.0000000000e+00 1.1211171891e-01 3.3260543822e-02 0.0000000000e+00 1.1714445382e-01 3.2294951292e-02 0.0000000000e+00 1.2217637967e-01 3.1325081711e-02 0.0000000000e+00 1.2720736077e-01 3.0351006860e-02 0.0000000000e+00 1.3223761875e-01 2.9372727682e-02 0.0000000000e+00 1.3726706297e-01 2.8390303861e-02 0.0000000000e+00 1.4229572061e-01 2.7403770609e-02 0.0000000000e+00 1.4732360119e-01 2.6413164931e-02 0.0000000000e+00 1.5235059578e-01 2.5418545708e-02 0.0000000000e+00 1.5737688659e-01 2.4419912645e-02 0.0000000000e+00 1.6240234385e-01 2.3417325663e-02 0.0000000000e+00 1.6742696646e-01 2.2410817741e-02 0.0000000000e+00 1.7245085770e-01 2.1400399305e-02 0.0000000000e+00 1.7747398558e-01 2.0386106299e-02 0.0000000000e+00 1.8249635644e-01 1.9367965495e-02 0.0000000000e+00 1.8751791564e-01 1.8346014588e-02 0.0000000000e+00 1.9253867441e-01 1.7320276492e-02 0.0000000000e+00 1.9755867528e-01 1.6290766192e-02 0.0000000000e+00 2.0257793396e-01 1.5257502622e-02 0.0000000000e+00 2.0759639625e-01 1.4220517707e-02 0.0000000000e+00 2.1261408588e-01 1.3179825911e-02 0.0000000000e+00 2.1763104490e-01 1.2135436390e-02 0.0000000000e+00 2.2264726018e-01 1.1087368318e-02 0.0000000000e+00 2.2766268318e-01 1.0035646948e-02 0.0000000000e+00 2.3267726296e-01 8.9802968007e-03 0.0000000000e+00 2.3769115605e-01 7.9212972708e-03 0.0000000000e+00 2.4270427261e-01 6.8586782309e-03 0.0000000000e+00 2.4771659633e-01 5.7924527911e-03 0.0000000000e+00 2.5272819058e-01 4.7226157199e-03 0.0000000000e+00 2.5773898461e-01 3.6491890353e-03 0.0000000000e+00 2.6274907064e-01 2.5721585331e-03 0.0000000000e+00 2.6775833653e-01 1.4915525741e-03 0.0000000000e+00 2.7276680970e-01 4.0736826173e-04 0.0000000000e+00 2.7777451790e-01 -6.8039875983e-04 0.0000000000e+00 2.8278146879e-01 -1.7717498540e-03 0.0000000000e+00 2.8778759011e-01 -2.8666701914e-03 0.0000000000e+00 2.9279294031e-01 -3.9651747581e-03 0.0000000000e+00 2.9779755351e-01 -5.0672746270e-03 0.0000000000e+00 3.0280135913e-01 -6.1729590882e-03 0.0000000000e+00 3.0780438244e-01 -7.2822397704e-03 0.0000000000e+00 3.1280650594e-01 -8.3950978319e-03 0.0000000000e+00 3.1780794456e-01 -9.5115896717e-03 0.0000000000e+00 3.2280852738e-01 -1.0631687020e-02 0.0000000000e+00 3.2780825022e-01 -1.1755399878e-02 0.0000000000e+00 3.3280721108e-01 -1.2882762556e-02 0.0000000000e+00 3.3780534714e-01 -1.4013774448e-02 0.0000000000e+00 3.4280265335e-01 -1.5148449133e-02 0.0000000000e+00 3.4779915549e-01 -1.6286808434e-02 0.0000000000e+00 3.5279469994e-01 -1.7428834392e-02 0.0000000000e+00 3.5778950179e-01 -1.8574594513e-02 0.0000000000e+00 3.6278342043e-01 -1.9724076172e-02 0.0000000000e+00 3.6777640315e-01 -2.0877287849e-02 0.0000000000e+00 3.7276860129e-01 -2.2034286424e-02 0.0000000000e+00 3.7775992822e-01 -2.3195075031e-02 0.0000000000e+00 3.8275032602e-01 -2.4359664423e-02 0.0000000000e+00 3.8773987974e-01 -2.5528099898e-02 0.0000000000e+00 3.9272844614e-01 -2.6700374472e-02 0.0000000000e+00 3.9771614086e-01 -2.7876543029e-02 0.0000000000e+00 4.0270291178e-01 -2.9056622242e-02 0.0000000000e+00 4.0768869791e-01 -3.0240627667e-02 0.0000000000e+00 4.1267361642e-01 -3.1428618368e-02 0.0000000000e+00 4.1765755604e-01 -3.2620600225e-02 0.0000000000e+00 4.2264052151e-01 -3.3816607805e-02 0.0000000000e+00 4.2762255447e-01 -3.5016685743e-02 0.0000000000e+00 4.3260353408e-01 -3.6220840625e-02 0.0000000000e+00 4.3758354093e-01 -3.7429128723e-02 0.0000000000e+00 4.4256256770e-01 -3.8641586290e-02 0.0000000000e+00 4.4754046411e-01 -3.9858215695e-02 0.0000000000e+00 4.5251740906e-01 -4.1079100795e-02 0.0000000000e+00 4.5749335137e-01 -4.2304270474e-02 0.0000000000e+00 4.6246815394e-01 -4.3533733300e-02 0.0000000000e+00 4.6744192511e-01 -4.4767559442e-02 0.0000000000e+00 4.7241451575e-01 -4.6005756378e-02 0.0000000000e+00 4.7738608692e-01 -4.7248409814e-02 0.0000000000e+00 4.8235650207e-01 -4.8495532369e-02 0.0000000000e+00 4.8732575854e-01 -4.9747171040e-02 0.0000000000e+00 4.9229400251e-01 -5.1003411632e-02 0.0000000000e+00 4.9726094768e-01 -5.2264231634e-02 0.0000000000e+00 4.9214040296e-01 -5.2464813724e-02 0.0000000000e+00 4.8701953993e-01 -5.2660646441e-02 0.0000000000e+00 4.8189864333e-01 -5.2851767290e-02 0.0000000000e+00 4.7677755232e-01 -5.3038229807e-02 0.0000000000e+00 4.7165625973e-01 -5.3220080515e-02 0.0000000000e+00 4.6653489650e-01 -5.3397360149e-02 0.0000000000e+00 4.6141328729e-01 -5.3570119057e-02 0.0000000000e+00 4.5629157639e-01 -5.3738395555e-02 0.0000000000e+00 4.5116964327e-01 -5.3902235761e-02 0.0000000000e+00 4.4604762022e-01 -5.4061676551e-02 0.0000000000e+00 4.4092555131e-01 -5.4216756824e-02 0.0000000000e+00 4.3580324412e-01 -5.4367521411e-02 0.0000000000e+00 4.3068084515e-01 -5.4514003871e-02 0.0000000000e+00 4.2555835402e-01 -5.4656241187e-02 0.0000000000e+00 4.2043568020e-01 -5.4794271646e-02 0.0000000000e+00 4.1531294051e-01 -5.4928126814e-02 0.0000000000e+00 4.1019008497e-01 -5.5057841695e-02 0.0000000000e+00 4.0506710173e-01 -5.5183449112e-02 0.0000000000e+00 3.9994409843e-01 -5.5304977955e-02 0.0000000000e+00 3.9482094815e-01 -5.5422461631e-02 0.0000000000e+00 3.8969770733e-01 -5.5535928040e-02 0.0000000000e+00 3.8457442349e-01 -5.5645404327e-02 0.0000000000e+00 3.7945097209e-01 -5.5750920133e-02 0.0000000000e+00 3.7432749471e-01 -5.5852498408e-02 0.0000000000e+00 3.6920389872e-01 -5.5950165778e-02 0.0000000000e+00 3.6408023857e-01 -5.6043944803e-02 0.0000000000e+00 3.5895659830e-01 -5.6133856558e-02 0.0000000000e+00 3.5383281810e-01 -5.6219925217e-02 0.0000000000e+00 3.4870894773e-01 -5.6302170032e-02 0.0000000000e+00 3.4358512736e-01 -5.6380607890e-02 0.0000000000e+00 3.3846113257e-01 -5.6455260100e-02 0.0000000000e+00 3.3333711736e-01 -5.6526141037e-02 0.0000000000e+00 3.2821305197e-01 -5.6593266688e-02 0.0000000000e+00 3.2308893851e-01 -5.6656651381e-02 0.0000000000e+00 3.1796483857e-01 -5.6716307587e-02 0.0000000000e+00 3.1284064916e-01 -5.6772248492e-02 0.0000000000e+00 3.0771637227e-01 -5.6824484747e-02 0.0000000000e+00 3.0259218097e-01 -5.6873024235e-02 0.0000000000e+00 2.9746785329e-01 -5.6917877437e-02 0.0000000000e+00 2.9234350810e-01 -5.6959050352e-02 0.0000000000e+00 2.8721911827e-01 -5.6996549104e-02 0.0000000000e+00 2.8209475503e-01 -5.7030377886e-02 0.0000000000e+00 2.7697038274e-01 -5.7060540439e-02 0.0000000000e+00 2.7184594108e-01 -5.7087039267e-02 0.0000000000e+00 2.6672150384e-01 -5.7109874891e-02 0.0000000000e+00 2.6159706323e-01 -5.7129047050e-02 0.0000000000e+00 2.5647259122e-01 -5.7144554236e-02 0.0000000000e+00 2.5134806035e-01 -5.7156393579e-02 0.0000000000e+00 2.4622358623e-01 -5.7164560656e-02 0.0000000000e+00 2.4109907571e-01 -5.7169050186e-02 0.0000000000e+00 2.3597460255e-01 -5.7169855343e-02 0.0000000000e+00 2.3085010370e-01 -5.7166968068e-02 0.0000000000e+00 2.2572559782e-01 -5.7160378926e-02 0.0000000000e+00 2.2060117901e-01 -5.7150077380e-02 0.0000000000e+00 2.1547668986e-01 -5.7136051039e-02 0.0000000000e+00 2.1035218532e-01 -5.7118286508e-02 0.0000000000e+00 2.0522771809e-01 -5.7096769179e-02 0.0000000000e+00 2.0010330503e-01 -5.7071483028e-02 0.0000000000e+00 1.9497890690e-01 -5.7042410356e-02 0.0000000000e+00 1.8985450348e-01 -5.7009532077e-02 0.0000000000e+00 1.8473015445e-01 -5.6972828238e-02 0.0000000000e+00 1.7960584836e-01 -5.6932277051e-02 0.0000000000e+00 1.7448154674e-01 -5.6887855015e-02 0.0000000000e+00 1.6935724336e-01 -5.6839537383e-02 0.0000000000e+00 1.6423299950e-01 -5.6787298642e-02 0.0000000000e+00 1.5910881454e-01 -5.6731111290e-02 0.0000000000e+00 1.5398472721e-01 -5.6670946815e-02 0.0000000000e+00 1.4886063870e-01 -5.6606773550e-02 0.0000000000e+00 1.4373655692e-01 -5.6538559464e-02 0.0000000000e+00 1.3861262126e-01 -5.6466272926e-02 0.0000000000e+00 1.3348865342e-01 -5.6389876340e-02 0.0000000000e+00 1.2836477223e-01 -5.6309334762e-02 0.0000000000e+00 1.2324097603e-01 -5.6224610014e-02 0.0000000000e+00 1.1811724558e-01 -5.6135662002e-02 0.0000000000e+00 1.1299368194e-01 -5.6042451195e-02 0.0000000000e+00 1.0787006851e-01 -5.5944930586e-02 0.0000000000e+00 1.0274655297e-01 -5.5843058179e-02 0.0000000000e+00 9.7623242809e-02 -5.5736789958e-02 0.0000000000e+00 9.2499894644e-02 -5.5626072852e-02 0.0000000000e+00 8.7376702232e-02 -5.5510861246e-02 0.0000000000e+00 8.2253591763e-02 -5.5391102098e-02 0.0000000000e+00 7.7130592483e-02 -5.5266742888e-02 0.0000000000e+00 7.2007772477e-02 -5.5137730413e-02 0.0000000000e+00 6.6884978478e-02 -5.5004004031e-02 0.0000000000e+00 6.1762374400e-02 -5.4865509418e-02 0.0000000000e+00 5.6639899797e-02 -5.4722184619e-02 0.0000000000e+00 5.1517578012e-02 -5.4573968022e-02 0.0000000000e+00 4.6395359247e-02 -5.4420793964e-02 0.0000000000e+00 4.1273265047e-02 -5.4262596875e-02 0.0000000000e+00 3.6151344678e-02 -5.4099310180e-02 0.0000000000e+00 3.1029656272e-02 -5.3930865784e-02 0.0000000000e+00 2.5908107476e-02 -5.3757188601e-02 0.0000000000e+00 2.0786715931e-02 -5.3578204980e-02 0.0000000000e+00 1.5665583667e-02 -5.3393842301e-02 0.0000000000e+00 1.0544631760e-02 -5.3204019413e-02 0.0000000000e+00 5.4238455346e-03 -5.3008655112e-02 0.0000000000e+00 3.0323854710e-04 -5.2807667001e-02 0.0000000000e+00 -4.8170736379e-03 -5.2600974629e-02 0.0000000000e+00 -9.9371296962e-03 -5.2388489241e-02 0.0000000000e+00 -1.5057026989e-02 -5.2170116987e-02 0.0000000000e+00 -2.0176584787e-02 -5.1945773477e-02 0.0000000000e+00 -2.5295897865e-02 -5.1715360119e-02 0.0000000000e+00 -3.0414941641e-02 -5.1478780917e-02 0.0000000000e+00 -3.5533695451e-02 -5.1235937199e-02 0.0000000000e+00 -4.0652120784e-02 -5.0986728615e-02 0.0000000000e+00 -4.5770212954e-02 -5.0731050570e-02 0.0000000000e+00 -5.0888000350e-02 -5.0468793984e-02 0.0000000000e+00 -5.6005440725e-02 -5.0199850525e-02 0.0000000000e+00 -6.1122511737e-02 -4.9924108055e-02 0.0000000000e+00 -6.6239180585e-02 -4.9641452129e-02 0.0000000000e+00 -7.1355503248e-02 -4.9351760294e-02 0.0000000000e+00 -7.6471397397e-02 -4.9054914724e-02 0.0000000000e+00 -8.1586838279e-02 -4.8750791317e-02 0.0000000000e+00 -8.6701851077e-02 -4.8439259672e-02 0.0000000000e+00 -9.1816424892e-02 -4.8120188045e-02 0.0000000000e+00 -9.6930492547e-02 -4.7793444814e-02 0.0000000000e+00 -1.0204404178e-01 -4.7458891444e-02 0.0000000000e+00 -1.0715707215e-01 -4.7116384871e-02 0.0000000000e+00 -1.1226956858e-01 -4.6765779115e-02 0.0000000000e+00 -1.1738150394e-01 -4.6406925081e-02 0.0000000000e+00 -1.2249279621e-01 -4.6039673639e-02 0.0000000000e+00 -1.2760346587e-01 -4.5663864229e-02 0.0000000000e+00 -1.3271353851e-01 -4.5279331259e-02 0.0000000000e+00 -1.3782292438e-01 -4.4885913259e-02 0.0000000000e+00 -1.4293156128e-01 -4.4483442340e-02 0.0000000000e+00 -1.4803948021e-01 -4.4071738429e-02 0.0000000000e+00 -1.5314665394e-01 -4.3650620840e-02 0.0000000000e+00 -1.5825304438e-01 -4.3219904557e-02 0.0000000000e+00 -1.6335853606e-01 -4.2779405918e-02 0.0000000000e+00 -1.6846317945e-01 -4.2328921443e-02 0.0000000000e+00 -1.7356694323e-01 -4.1868248527e-02 0.0000000000e+00 -1.7866975142e-01 -4.1397182525e-02 0.0000000000e+00 -1.8377156506e-01 -4.0915509135e-02 0.0000000000e+00 -1.8887231740e-01 -4.0423010023e-02 0.0000000000e+00 -1.9397201921e-01 -3.9919452293e-02 0.0000000000e+00 -1.9907060315e-01 -3.9404603149e-02 0.0000000000e+00 -2.0416795498e-01 -3.8878227134e-02 0.0000000000e+00 -2.0926410713e-01 -3.8340065606e-02 0.0000000000e+00 -2.1435899276e-01 -3.7789861420e-02 0.0000000000e+00 -2.1945254522e-01 -3.7227348521e-02 0.0000000000e+00 -2.2454463421e-01 -3.6652258723e-02 0.0000000000e+00 -2.2963526591e-01 -3.6064298608e-02 0.0000000000e+00 -2.3472439875e-01 -3.5463169159e-02 0.0000000000e+00 -2.3981193609e-01 -3.4848566607e-02 0.0000000000e+00 -2.4489771085e-01 -3.4220184393e-02 0.0000000000e+00 -2.4998176842e-01 -3.3577677250e-02 0.0000000000e+00 -2.5506399126e-01 -3.2920706413e-02 0.0000000000e+00 -2.6014426393e-01 -3.2248918972e-02 0.0000000000e+00 -2.6522248061e-01 -3.1561945841e-02 0.0000000000e+00 -2.7029858526e-01 -3.0859394906e-02 0.0000000000e+00 -2.7537247023e-01 -3.0140863550e-02 0.0000000000e+00 -2.8044398225e-01 -2.9405937276e-02 0.0000000000e+00 -2.8551303983e-01 -2.8654171425e-02 0.0000000000e+00 -2.9057948552e-01 -2.7885111033e-02 0.0000000000e+00 -2.9564321341e-01 -2.7098270352e-02 0.0000000000e+00 -3.0070406800e-01 -2.6293146236e-02 0.0000000000e+00 -3.0576188583e-01 -2.5469210014e-02 0.0000000000e+00 -3.1081650731e-01 -2.4625903240e-02 0.0000000000e+00 -3.1586776165e-01 -2.3762637513e-02 0.0000000000e+00 -3.2091545343e-01 -2.2878794051e-02 0.0000000000e+00 -3.2595938602e-01 -2.1973716558e-02 0.0000000000e+00 -3.3099932872e-01 -2.1046713543e-02 0.0000000000e+00 -3.3603506379e-01 -2.0097045782e-02 0.0000000000e+00 -3.4106630193e-01 -1.9123937664e-02 0.0000000000e+00 -3.4609279420e-01 -1.8126550881e-02 0.0000000000e+00 -3.5111422796e-01 -1.7103998506e-02 0.0000000000e+00 -3.5613026864e-01 -1.6055330517e-02 0.0000000000e+00 -3.6114055876e-01 -1.4979526225e-02 0.0000000000e+00 -3.6614471400e-01 -1.3875486128e-02 0.0000000000e+00 -3.7114227411e-01 -1.2742032692e-02 0.0000000000e+00 -3.7613277157e-01 -1.1577883387e-02 0.0000000000e+00 -3.8111568954e-01 -1.0381645731e-02 0.0000000000e+00 -3.8609040603e-01 -9.1518147596e-03 0.0000000000e+00 -3.9105627202e-01 -7.8867350466e-03 0.0000000000e+00 -3.9601255828e-01 -6.5845901298e-03 0.0000000000e+00 -4.0095841207e-01 -5.2433865304e-03 0.0000000000e+00 -4.0589288660e-01 -3.8609129621e-03 0.0000000000e+00 -4.1081490142e-01 -2.4347101989e-03 0.0000000000e+00 -4.1572320451e-01 -9.6203219494e-04 0.0000000000e+00 -4.2061636185e-01 5.6021259395e-04 0.0000000000e+00 -4.2549268766e-01 2.1355174736e-03 0.0000000000e+00 -4.3035021769e-01 3.7678670960e-03 0.0000000000e+00 -4.3518659767e-01 5.4618266507e-03 0.0000000000e+00 -4.3999901359e-01 7.2226808961e-03 0.0000000000e+00 -4.4478405085e-01 9.0566000589e-03 0.0000000000e+00 -4.4953751130e-01 1.0970861400e-02 0.0000000000e+00 -4.5425413044e-01 1.2974134101e-02 0.0000000000e+00 -4.5892721924e-01 1.5076883774e-02 0.0000000000e+00 -4.6354810402e-01 1.7291919714e-02 0.0000000000e+00 -4.6810526293e-01 1.9635157524e-02 0.0000000000e+00 -4.7258296803e-01 2.2126706606e-02 0.0000000000e+00 -4.7695906267e-01 2.4792441981e-02 0.0000000000e+00 -4.8120113833e-01 2.7666268843e-02 0.0000000000e+00 -4.8525967047e-01 3.0793297982e-02 0.0000000000e+00 -4.8905511125e-01 3.4233720983e-02 0.0000000000e+00 -4.9245312560e-01 3.8064921006e-02 0.0000000000e+00 -4.9522002994e-01 4.2369646827e-02 0.0000000000e+00 -4.9697272129e-01 4.7169688282e-02 0.0000000000e+00
        </DataArray>
      </Points>
      <Verts>
        <DataArray type="Int64" Name="connectivity" format="ascii">
          0 1 2 3 4 5 6 7 8 9 10 11 12 13 14 15 16 17 18 19 20 21 22 23 24 25 26 27 28 29 30 31 32 33 34 35 36 37 38 39 40 41 42 43 44 45 46 47 48 49 50 51 52 53 54 55 56 57 58 59 60 61 62 63 64 65 66 67 68 69 70 71 72 73 74 75 76 77 78 79 80 81 82 83 84 85 86 87 88 89 90 91 92 93 94 95 96 97 98 99 100 101 102 103 104 105 106 107 108 109 110 111 112 113 114 115 116 117 118 119 120 121 122 123 124 125 126 127 128 129 130 131 132 133 134 135 136 137 138 139 140 141 142 143 144 145 146 147 148 149 150 151 152 153 154 155 156 157 158 159 160 161 162 163 164 165 166 167 168 169 170 171 172 173 174 175 176 177 178 179 180 181 182 183 184 185 186 187 188 189 190 191 192 193 194 195 196 197 198 199 200 201 202 203 204 205 206 207 208 209 210 211 212 213 214 215 216 217 218 219 220 221 222 223 224 225 226 227 228 229 230 231 232 233 234 235 236 237 238 239 240 241 242 243 244 245 246 247 248 249 250 251 252 253 254 255 256 257 258 259 260 261 262 263 264 265 266 267 268 269 270 271 272 273 274 275 276 277 278 279 280 281 282 283 284 285 286 287 288 289 290 291 292 293 294 295 296 297 298 299 300 301 302 303 304 305 306 307 308 309 310 311 312 313 314 315 316 317 318 319 320 321 322 323 324 325 326 327 328 329 330 331 332 333 334 335 336 337 338 339 340 341 342 343 344 345 346 347 348 349 350 351 352 353 354 355 356 357 358 359 360 361 362 363 364 365 366 367 368 369 370 371 372 373 374 375 376 377 378 379 380 381 382 383 384 385 386 387 388 389 390 391 392 393 394 395 396 397
        </DataArray>
        <DataArray type="Int64" Name="offsets" format="ascii">
          1 2 3 4 5 6 7 8 9 10 11 12 13 14 15 16 17 18 19 20 21 22 23 24 25 26 27 28 29 30 31 32 33 34 35 36 37 38 39 40 41 42 43 44 45 46 47 48 49 50 51 52 53 54 55 56 57 58 59 60 61 62 63 64 65 66 67 68 69 70 71 72 73 74 75 76 77 78 79 80 81 82 83 84 85 86 87 88 89 90 91 92 93 94 95 96 97 98 99 100 101 102 103 104 105 106 107 108 109 110 111 112 113 114 115 116 117 118 119 120 121 122 123 124 125 126 127 128 129 130 131 132 133 134 135 136 137 138 139 140 141 142 143 144 145 146 147 148 149 150 151 152 153 154 155 156 157 158 159 160 161 162 163 164 165 166 167 168 169 170 171 172 173 174 175 176 177 178 179 180 181 182 183 184 185 186 187 188 189 190 191 192 193 194 195 196 197 198 199 200 201 202 203 204 205 206 207 208 209 210 211 212 213 214 215 216 217 218 219 220 221 222 223 224 225 226 227 228 229 230 231 232 233 234 235 236 237 238 239 240 241 242 243 244 245 246 247 248 249 250 251 252 253 254 255 256 257 258 259 260 261 262 263 264 265 266 267 268 269 270 271 272 273 274 275 276 277 278 279 280 281 282 283 284 285 286 287 288 289 290 291 292 293 294 295 296 297 298 299 300 301 302 303 304 305 306 307 308 309 310 311 312 313 314 315 316 317 318 319 320 321 322 323 324 325 326 327 328 329 330 331 332 333 334 335 336 337 338 339 340 341 342 343 344 345 346 347 348 349 350 351 352 353 354 355 356 357 358 359 360 361 362 363 364 365 366 367 368 369 370 371 372 373 374 375 376 377 378 379 380 381 382 383 384 385 386 387 388 389 390 391 392 393 394 395 396 397 398
        </DataArray>
      </Verts>
      <PointData>
        <DataArray type="Float64" Name="velocity" NumberOfComponents="3" format="ascii">
          0.0000000000e+00 0.0000000000e+00 0.0000000000e+00 0.0000000000e+00 0.0000000000e+00 0.0000000000e+00 0.0000000000e+00 0.0000000000e+00 0.0000000000e+00 0.0000000000e+00 0.0000000000e+00 0.0000000000e+00 0.0000000000e+00 0.0000000000e+00 0.0000000000e+00 0.0000000000e+00 0.0000000000e+00 0.0000000000e+00 0.0000000000e+00 0.0000000000e+00 0.0000000000e+00 0.0000000000e+00 0.0000000000e+00 0.0000000000e+00 0.0000000000e+00 0.0000000000e+00 0.0000000000e+00 0.0000000000e+00 0.0000000000e+00 0.0000000000e+00 0.0000000000e+00 0.0000000000e+00 0.0000000000e+00 0.0000000000e+00 0.0000000000e+00 0.0000000000e+00 0.0000000000e+00 0.0000000000e+00 0.0000000000e+00 0.0000000000e+00 0.0000000000e+00 0.0000000000e+00 0.0000000000e+00 0.0000000000e+00 0.0000000000e+00 0.0000000000e+00 0.0000000000e+00 0.0000000000e+00 0.0000000000e+00 0.0000000000e+00 0.0000000000e+00 0.0000000000e+00 0.0000000000e+00 0.0000000000e+00 0.0000000000e+00 0.0000000000e+00 0.0000000000e+00 0.0000000000e+00 0.0000000000e+00 0.0000000000e+00 0.0000000000e+00 0.0000000000e+00 0.0000000000e+00 0.0000000000e+00 0.0000000000e+00 0.0000000000e+00 0.0000000000e+00 0.0000000000e+00 0.0000000000e+00 0.0000000000e+00 0.0000000000e+00 0.0000000000e+00 0.0000000000e+00 0.0000000000e+00 0.0000000000e+00 0.0000000000e+00 0.0000000000e+00 0.0000000000e+00 0.0000000000e+00 0.0000000000e+00 0.0000000000e+00 0.0000000000e+00 0.0000000000e+00 0.0000000000e+00 0.0000000000e+00 0.0000000000e+00 0.0000000000e+00 0.0000000000e+00 0.0000000000e+00 0.0000000000e+00 0.0000000000e+00 0.0000000000e+00 0.0000000000e+00 0.0000000000e+00 0.0000000000e+00 0.0000000000e+00 0.0000000000e+00 0.0000000000e+00 0.0000000000e+00 0.0000000000e+00 0.0000000000e+00 0.0000000000e+00 0.0000000000e+00 0.0000000000e+00 0.0000000000e+00 0.0000000000e+00 0.0000000000e+00 0.0000000000e+00 0.0000000000e+00 0.0000000000e+00 0.0000000000e+00 0.0000000000e+00 0.0000000000e+00 0.0000000000e+00 0.0000000000e+00 0.0000000000e+00 0.0000000000e+00 0.0000000000e+00 0.0000000000e+00 0.0000000000e+00 0.0000000000e+00 0.0000000000e+00 0.0000000000e+00 0.0000000000e+00 0.0000000000e+00 0.0000000000e+00 0.0000000000e+00 0.0000000000e+00 0.0000000000e+00 0.0000000000e+00 0.0000000000e+00 0.0000000000e+00 0.0000000000e+00 0.0000000000e+00 0.0000000000e+00 0.0000000000e+00 0.0000000000e+00 0.0000000000e+00 0.0000000000e+00 0.0000000000e+00 0.0000000000e+00 0.0000000000e+00 0.0000000000e+00 0.0000000000e+00 0.0000000000e+00 0.0000000000e+00 0.0000000000e+00 0.0000000000e+00 0.0000000000e+00 0.0000000000e+00 0.0000000000e+00 0.0000000000e+00 0.0000000000e+00 0.0000000000e+00 0.0000000000e+00 0.0000000000e+00 0.0000000000e+00 0.0000000000e+00 0.0000000000e+00 0.0000000000e+00 0.0000000000e+00 0.0000000000e+00 0.0000000000e+00 0.0000000000e+00 0.0000000000e+00 0.0000000000e+00 0.0000000000e+00 0.0000000000e+00 0.0000000000e+00 0.0000000000e+00 0.0000000000e+00 0.0000000000e+00 0.0000000000e+00 0.0000000000e+00 0.0000000000e+00 0.0000000000e+00 0.0000000000e+00 0.0000000000e+00 0.0000000000e+00 0.0000000000e+00 0.0000000000e+00 0.0000000000e+00 0.0000000000e+00 0.0000000000e+00 0.0000000000e+00 0.0000000000e+00 0.0000000000e+00 0.0000000000e+00 0.0000000000e+00 0.0000000000e+00 0.0000000000e+00 0.0000000000e+00 0.0000000000e+00 0.0000000000e+00 0.0000000000e+00 0.0000000000e+00 0.0000000000e+00 0.0000000000e+00 0.0000000000e+00 0.0000000000e+00 0.0000000000e+00 0.0000000000e+00 0.0000000000e+00 0.0000000000e+00 0.0000000000e+00 0.0000000000e+00 0.0000000000e+00 0.0000000000e+00 0.0000000000e+00 0.0000000000e+00 0.0000000000e+00 0.0000000000e+00 0.0000000000e+00 0.0000000000e+00 0.0000000000e+00 0.0000000000e+00 0.0000000000e+00 0.0000000000e+00 0.0000000000e+00 0.0000000000e+00 0.0000000000e+00 0.0000000000e+00 0.0000000000e+00 0.0000000000e+00 0.0000000000e+00 0.0000000000e+00 0.0000000000e+00 0.0000000000e+00 0.0000000000e+00 0.0000000000e+00 0.0000000000e+00 0.0000000000e+00 0.0000000000e+00 0.0000000000e+00 0.0000000000e+00 0.0000000000e+00 0.0000000000e+00 0.0000000000e+00 0.0000000000e+00 0.0000000000e+00 0.0000000000e+00 0.0000000000e+00 0.0000000000e+00 0.0000000000e+00 0.0000000000e+00 0.0000000000e+00 0.0000000000e+00 0.0000000000e+00 0.0000000000e+00 0.0000000000e+00 0.0000000000e+00 0.0000000000e+00 0.0000000000e+00 0.0000000000e+00 0.0000000000e+00 0.0000000000e+00 0.0000000000e+00 0.0000000000e+00 0.0000000000e+00 0.0000000000e+00 0.0000000000e+00 0.0000000000e+00 0.0000000000e+00 0.0000000000e+00 0.0000000000e+00 0.0000000000e+00 0.0000000000e+00 0.0000000000e+00 0.0000000000e+00 0.0000000000e+00 0.0000000000e+00 0.0000000000e+00 0.0000000000e+00 0.0000000000e+00 0.0000000000e+00 0.0000000000e+00 0.0000000000e+00 0.0000000000e+00 0.0000000000e+00 0.0000000000e+00 0.0000000000e+00 0.0000000000e+00 0.0000000000e+00 0.0000000000e+00 0.0000000000e+00 0.0000000000e+00 0.0000000000e+00 0.0000000000e+00 0.0000000000e+00 0.0000000000e+00 0.0000000000e+00 0.0000000000e+00 0.0000000000e+00 0.0000000000e+00 0.0000000000e+00 0.0000000000e+00 0.0000000000e+00 0.0000000000e+00 0.0000000000e+00 0.0000000000e+00 0.0000000000e+00 0.0000000000e+00 0.0000000000e+00 0.0000000000e+00 0.0000000000e+00 0.0000000000e+00 0.0000000000e+00 0.0000000000e+00 0.0000000000e+00 0.0000000000e+00 0.0000000000e+00 0.0000000000e+00 0.0000000000e+00 0.0000000000e+00 0.0000000000e+00 0.0000000000e+00 0.0000000000e+00 0.0000000000e+00 0.0000000000e+00 0.0000000000e+00 0.0000000000e+00 0.0000000000e+00 0.0000000000e+00 0.0000000000e+00 0.0000000000e+00 0.0000000000e+00 0.0000000000e+00 0.0000000000e+00 0.0000000000e+00 0.0000000000e+00 0.0000000000e+00 0.0000000000e+00 0.0000000000e+00 0.0000000000e+00 0.0000000000e+00 0.0000000000e+00 0.0000000000e+00 0.0000000000e+00 0.0000000000e+00 0.0000000000e+00 0.0000000000e+00 0.0000000000e+00 0.0000000000e+00 0.0000000000e+00 0.0000000000e+00 0.0000000000e+00 0.0000000000e+00 0.0000000000e+00 0.0000000000e+00 0.0000000000e+00 0.0000000000e+00 0.0000000000e+00 0.0000000000e+00 0.0000000000e+00 0.0000000000e+00 0.0000000000e+00 0.0000000000e+00 0.0000000000e+00 0.0000000000e+00 0.0000000000e+00 0.0000000000e+00 0.0000000000e+00 0.0000000000e+00 0.0000000000e+00 0.0000000000e+00 0.0000000000e+00 0.0000000000e+00 0.0000000000e+00 0.0000000000e+00 0.0000000000e+00 0.0000000000e+00 0.0000000000e+00 0.0000000000e+00 0.0000000000e+00 0.0000000000e+00 0.0000000000e+00 0.0000000000e+00 0.0000000000e+00 0.0000000000e+00 0.0000000000e+00 0.0000000000e+00 0.0000000000e+00 0.0000000000e+00 0.0000000000e+00 0.0000000000e+00 0.0000000000e+00 0.0000000000e+00 0.0000000000e+00 0.0000000000e+00 0.0000000000e+00 0.0000000000e+00 0.0000000000e+00 0.0000000000e+00 0.0000000000e+00 0.0000000000e+00 0.0000000000e+00 0.0000000000e+00 0.0000000000e+00 0.0000000000e+00 0.0000000000e+00 0.0000000000e+00 0.0000000000e+00 0.0000000000e+00 0.0000000000e+00 0.0000000000e+00 0.0000000000e+00 0.0000000000e+00 0.0000000000e+00 0.0000000000e+00 0.0000000000e+00 0.0000000000e+00 0.0000000000e+00 0.0000000000e+00 0.0000000000e+00 0.0000000000e+00 0.0000000000e+00 0.0000000000e+00 0.0000000000e+00 0.0000000000e+00 0.0000000000e+00 0.0000000000e+00 0.0000000000e+00 0.0000000000e+00 0.0000000000e+00 0.0000000000e+00 0.0000000000e+00 0.0000000000e+00 0.0000000000e+00 0.0000000000e+00 0.0000000000e+00 0.0000000000e+00 0.0000000000e+00 0.0000000000e+00 0.0000000000e+00 0.0000000000e+00 0.0000000000e+00 0.0000000000e+00 0.0000000000e+00 0.0000000000e+00 0.0000000000e+00 0.0000000000e+00 0.0000000000e+00 0.0000000000e+00 0.0000000000e+00 0.0000000000e+00 0.0000000000e+00 0.0000000000e+00 0.0000000000e+00 0.0000000000e+00 0.0000000000e+00 0.0000000000e+00 0.0000000000e+00 0.0000000000e+00 0.0000000000e+00 0.0000000000e+00 0.0000000000e+00 0.0000000000e+00 0.0000000000e+00 0.0000000000e+00 0.0000000000e+00 0.0000000000e+00 0.0000000000e+00 0.0000000000e+00 0.0000000000e+00 0.0000000000e+00 0.0000000000e+00 0.0000000000e+00 0.0000000000e+00 0.0000000000e+00 0.0000000000e+00 0.0000000000e+00 0.0000000000e+00 0.0000000000e+00 0.0000000000e+00 0.0000000000e+00 0.0000000000e+00 0.0000000000e+00 0.0000000000e+00 0.0000000000e+00 0.0000000000e+00 0.0000000000e+00 0.0000000000e+00 0.0000000000e+00 0.0000000000e+00 0.0000000000e+00 0.0000000000e+00 0.0000000000e+00 0.0000000000e+00 0.0000000000e+00 0.0000000000e+00 0.0000000000e+00 0.0000000000e+00 0.0000000000e+00 0.0000000000e+00 0.0000000000e+00 0.0000000000e+00 0.0000000000e+00 0.0000000000e+00 0.0000000000e+00 0.0000000000e+00 0.0000000000e+00 0.0000000000e+00 0.0000000000e+00 0.0000000000e+00 0.0000000000e+00 0.0000000000e+00 0.0000000000e+00 0.0000000000e+00 0.0000000000e+00 0.0000000000e+00 0.0000000000e+00 0.0000000000e+00 0.0000000000e+00 0.0000000000e+00 0.0000000000e+00 0.0000000000e+00 0.0000000000e+00 0.0000000000e+00 0.0000000000e+00 0.0000000000e+00 0.0000000000e+00 0.0000000000e+00 0.0000000000e+00 0.0000000000e+00 0.0000000000e+00 0.0000000000e+00 0.0000000000e+00 0.0000000000e+00 0.0000000000e+00 0.0000000000e+00 0.0000000000e+00 0.0000000000e+00 0.0000000000e+00 0.0000000000e+00 0.0000000000e+00 0.0000000000e+00 0.0000000000e+00 0.0000000000e+00 0.0000000000e+00 0.0000000000e+00 0.0000000000e+00 0.0000000000e+00 0.0000000000e+00 0.0000000000e+00 0.0000000000e+00 0.0000000000e+00 0.0000000000e+00 0.0000000000e+00 0.0000000000e+00 0.0000000000e+00 0.0000000000e+00 0.0000000000e+00 0.0000000000e+00 0.0000000000e+00 0.0000000000e+00 0.0000000000e+00 0.0000000000e+00 0.0000000000e+00 0.0000000000e+00 0.0000000000e+00 0.0000000000e+00 0.0000000000e+00 0.0000000000e+00 0.0000000000e+00 0.0000000000e+00 0.0000000000e+00 0.0000000000e+00 0.0000000000e+00 0.0000000000e+00 0.0000000000e+00 0.0000000000e+00 0.0000000000e+00 0.0000000000e+00 0.0000000000e+00 0.0000000000e+00 0.0000000000e+00 0.0000000000e+00 0.0000000000e+00 0.0000000000e+00 0.0000000000e+00 0.0000000000e+00 0.0000000000e+00 0.0000000000e+00 0.0000000000e+00 0.0000000000e+00 0.0000000000e+00 0.0000000000e+00 0.0000000000e+00 0.0000000000e+00 0.0000000000e+00 0.0000000000e+00 0.0000000000e+00 0.0000000000e+00 0.0000000000e+00 0.0000000000e+00 0.0000000000e+00 0.0000000000e+00 0.0000000000e+00 0.0000000000e+00 0.0000000000e+00 0.0000000000e+00 0.0000000000e+00 0.0000000000e+00 0.0000000000e+00 0.0000000000e+00 0.0000000000e+00 0.0000000000e+00 0.0000000000e+00 0.0000000000e+00 0.0000000000e+00 0.0000000000e+00 0.0000000000e+00 0.0000000000e+00 0.0000000000e+00 0.0000000000e+00 0.0000000000e+00 0.0000000000e+00 0.0000000000e+00 0.0000000000e+00 0.0000000000e+00 0.0000000000e+00 0.0000000000e+00 0.0000000000e+00 0.0000000000e+00 0.0000000000e+00 0.0000000000e+00 0.0000000000e+00 0.0000000000e+00 0.0000000000e+00 0.0000000000e+00 0.0000000000e+00 0.0000000000e+00 0.0000000000e+00 0.0000000000e+00 0.0000000000e+00 0.0000000000e+00 0.0000000000e+00 0.0000000000e+00 0.0000000000e+00 0.0000000000e+00 0.0000000000e+00 0.0000000000e+00 0.0000000000e+00 0.0000000000e+00 0.0000000000e+00 0.0000000000e+00 0.0000000000e+00 0.0000000000e+00 0.0000000000e+00 0.0000000000e+00 0.0000000000e+00 0.0000000000e+00 0.0000000000e+00 0.0000000000e+00 0.0000000000e+00 0.0000000000e+00 0.0000000000e+00 0.0000000000e+00 0.0000000000e+00 0.0000000000e+00 0.0000000000e+00 0.0000000000e+00 0.0000000000e+00 0.0000000000e+00 0.0000000000e+00 0.0000000000e+00 0.0000000000e+00 0.0000000000e+00 0.0000000000e+00 0.0000000000e+00 0.0000000000e+00 0.0000000000e+00 0.0000000000e+00 0.0000000000e+00 0.0000000000e+00 0.0000000000e+00 0.0000000000e+00 0.0000000000e+00 0.0000000000e+00 0.0000000000e+00 0.0000000000e+00 0.0000000000e+00 0.0000000000e+00 0.0000000000e+00 0.0000000000e+00 0.0000000000e+00 0.0000000000e+00 0.0000000000e+00 0.0000000000e+00 0.0000000000e+00 0.0000000000e+00 0.0000000000e+00 0.0000000000e+00 0.0000000000e+00 0.0000000000e+00 0.0000000000e+00 0.0000000000e+00 0.0000000000e+00 0.0000000000e+00 0.0000000000e+00 0.0000000000e+00 0.0000000000e+00 0.0000000000e+00 0.0000000000e+00 0.0000000000e+00 0.0000000000e+00 0.0000000000e+00 0.0000000000e+00 0.0000000000e+00 0.0000000000e+00 0.0000000000e+00 0.0000000000e+00 0.0000000000e+00 0.0000000000e+00 0.0000000000e+00 0.0000000000e+00 0.0000000000e+00 0.0000000000e+00 0.0000000000e+00 0.0000000000e+00 0.0000000000e+00 0.0000000000e+00 0.0000000000e+00 0.0000000000e+00 0.0000000000e+00 0.0000000000e+00 0.0000000000e+00 0.0000000000e+00 0.0000000000e+00 0.0000000000e+00 0.0000000000e+00 0.0000000000e+00 0.0000000000e+00 0.0000000000e+00 0.0000000000e+00 0.0000000000e+00 0.0000000000e+00 0.0000000000e+00 0.0000000000e+00 0.0000000000e+00 0.0000000000e+00 0.0000000000e+00 0.0000000000e+00 0.0000000000e+00 0.0000000000e+00 0.0000000000e+00 0.0000000000e+00 0.0000000000e+00 0.0000000000e+00 0.0000000000e+00 0.0000000000e+00 0.0000000000e+00 0.0000000000e+00 0.0000000000e+00 0.0000000000e+00 0.0000000000e+00 0.0000000000e+00 0.0000000000e+00 0.0000000000e+00 0.0000000000e+00 0.0000000000e+00 0.0000000000e+00 0.0000000000e+00 0.0000000000e+00 0.0000000000e+00 0.0000000000e+00 0.0000000000e+00 0.0000000000e+00 0.0000000000e+00 0.0000000000e+00 0.0000000000e+00 0.0000000000e+00 0.0000000000e+00 0.0000000000e+00 0.0000000000e+00 0.0000000000e+00 0.0000000000e+00 0.0000000000e+00 0.0000000000e+00 0.0000000000e+00 0.0000000000e+00 0.0000000000e+00 0.0000000000e+00 0.0000000000e+00 0.0000000000e+00 0.0000000000e+00 0.0000000000e+00 0.0000000000e+00 0.0000000000e+00 0.0000000000e+00 0.0000000000e+00 0.0000000000e+00 0.0000000000e+00 0.0000000000e+00 0.0000000000e+00 0.0000000000e+00 0.0000000000e+00 0.0000000000e+00 0.0000000000e+00 0.0000000000e+00 0.0000000000e+00 0.0000000000e+00 0.0000000000e+00 0.0000000000e+00 0.0000000000e+00 0.0000000000e+00 0.0000000000e+00 0.0000000000e+00 0.0000000000e+00 0.0000000000e+00 0.0000000000e+00 0.0000000000e+00 0.0000000000e+00 0.0000000000e+00 0.0000000000e+00 0.0000000000e+00 0.0000000000e+00 0.0000000000e+00 0.0000000000e+00 0.0000000000e+00 0.0000000000e+00 0.0000000000e+00 0.0000000000e+00 0.0000000000e+00 0.0000000000e+00 0.0000000000e+00 0.0000000000e+00 0.0000000000e+00 0.0000000000e+00 0.0000000000e+00 0.0000000000e+00 0.0000000000e+00 0.0000000000e+00 0.0000000000e+00 0.0000000000e+00 0.0000000000e+00 0.0000000000e+00 0.0000000000e+00 0.0000000000e+00 0.0000000000e+00 0.0000000000e+00 0.0000000000e+00 0.0000000000e+00 0.0000000000e+00 0.0000000000e+00 0.0000000000e+00 0.0000000000e+00 0.0000000000e+00 0.0000000000e+00 0.0000000000e+00 0.0000000000e+00 0.0000000000e+00 0.0000000000e+00 0.0000000000e+00 0.0000000000e+00 0.0000000000e+00 0.0000000000e+00 0.0000000000e+00 0.0000000000e+00 0.0000000000e+00 0.0000000000e+00 0.0000000000e+00 0.0000000000e+00 0.0000000000e+00 0.0000000000e+00 0.0000000000e+00 0.0000000000e+00 0.0000000000e+00 0.0000000000e+00 0.0000000000e+00 0.0000000000e+00 0.0000000000e+00 0.0000000000e+00 0.0000000000e+00 0.0000000000e+00 0.0000000000e+00 0.0000000000e+00 0.0000000000e+00 0.0000000000e+00 0.0000000000e+00 0.0000000000e+00 0.0000000000e+00 0.0000000000e+00 0.0000000000e+00 0.0000000000e+00 0.0000000000e+00 0.0000000000e+00 0.0000000000e+00 0.0000000000e+00 0.0000000000e+00 0.0000000000e+00 0.0000000000e+00 0.0000000000e+00 0.0000000000e+00 0.0000000000e+00 0.0000000000e+00 0.0000000000e+00 0.0000000000e+00 0.0000000000e+00 0.0000000000e+00 0.0000000000e+00 0.0000000000e+00 0.0000000000e+00 0.0000000000e+00 0.0000000000e+00 0.0000000000e+00 0.0000000000e+00 0.0000000000e+00 0.0000000000e+00 0.0000000000e+00 0.0000000000e+00 0.0000000000e+00 0.0000000000e+00 0.0000000000e+00 0.0000000000e+00 0.0000000000e+00 0.0000000000e+00 0.0000000000e+00 0.0000000000e+00 0.0000000000e+00 0.0000000000e+00 0.0000000000e+00 0.0000000000e+00 0.0000000000e+00 0.0000000000e+00 0.0000000000e+00 0.0000000000e+00 0.0000000000e+00 0.0000000000e+00 0.0000000000e+00 0.0000000000e+00 0.0000000000e+00 0.0000000000e+00 0.0000000000e+00 0.0000000000e+00 0.0000000000e+00 0.0000000000e+00 0.0000000000e+00 0.0000000000e+00 0.0000000000e+00 0.0000000000e+00 0.0000000000e+00 0.0000000000e+00 0.0000000000e+00 0.0000000000e+00 0.0000000000e+00 0.0000000000e+00 0.0000000000e+00 0.0000000000e+00 0.0000000000e+00 0.0000000000e+00 0.0000000000e+00 0.0000000000e+00 0.0000000000e+00 0.0000000000e+00 0.0000000000e+00 0.0000000000e+00 0.0000000000e+00 0.0000000000e+00 0.0000000000e+00 0.0000000000e+00 0.0000000000e+00 0.0000000000e+00 0.0000000000e+00 0.0000000000e+00 0.0000000000e+00 0.0000000000e+00 0.0000000000e+00 0.0000000000e+00 0.0000000000e+00 0.0000000000e+00 0.0000000000e+00 0.0000000000e+00 0.0000000000e+00 0.0000000000e+00 0.0000000000e+00 0.0000000000e+00 0.0000000000e+00 0.0000000000e+00 0.0000000000e+00 0.0000000000e+00 0.0000000000e+00 0.0000000000e+00 0.0000000000e+00 0.0000000000e+00 0.0000000000e+00 0.0000000000e+00 0.0000000000e+00 0.0000000000e+00 0.0000000000e+00 0.0000000000e+00 0.0000000000e+00 0.0000000000e+00 0.0000000000e+00 0.0000000000e+00 0.0000000000e+00 0.0000000000e+00 0.0000000000e+00 0.0000000000e+00 0.0000000000e+00 0.0000000000e+00 0.0000000000e+00 0.0000000000e+00 0.0000000000e+00 0.0000000000e+00 0.0000000000e+00 0.0000000000e+00 0.0000000000e+00 0.0000000000e+00 0.0000000000e+00 0.0000000000e+00 0.0000000000e+00 0.0000000000e+00 0.0000000000e+00 0.0000000000e+00 0.0000000000e+00 0.0000000000e+00 0.0000000000e+00 0.0000000000e+00 0.0000000000e+00 0.0000000000e+00 0.0000000000e+00 0.0000000000e+00 0.0000000000e+00 0.0000000000e+00 0.0000000000e+00 0.0000000000e+00 0.0000000000e+00 0.0000000000e+00 0.0000000000e+00 0.0000000000e+00 0.0000000000e+00 0.0000000000e+00 0.0000000000e+00 0.0000000000e+00 0.0000000000e+00 0.0000000000e+00 0.0000000000e+00 0.0000000000e+00 0.0000000000e+00 0.0000000000e+00 0.0000000000e+00 0.0000000000e+00 0.0000000000e+00 0.0000000000e+00 0.0000000000e+00 0.0000000000e+00 0.0000000000e+00 0.0000000000e+00 0.0000000000e+00 0.0000000000e+00 0.0000000000e+00 0.0000000000e+00 0.0000000000e+00 0.0000000000e+00 0.0000000000e+00 0.0000000000e+00 0.0000000000e+00 0.0000000000e+00 0.0000000000e+00 0.0000000000e+00 0.0000000000e+00 0.0000000000e+00 0.0000000000e+00 0.0000000000e+00 0.0000000000e+00 0.0000000000e+00 0.0000000000e+00 0.0000000000e+00 0.0000000000e+00 0.0000000000e+00 0.0000000000e+00 0.0000000000e+00 0.0000000000e+00 0.0000000000e+00 0.0000000000e+00 0.0000000000e+00 0.0000000000e+00 0.0000000000e+00 0.0000000000e+00 0.0000000000e+00 0.0000000000e+00 0.0000000000e+00 0.0000000000e+00 0.0000000000e+00 0.0000000000e+00 0.0000000000e+00 0.0000000000e+00 0.0000000000e+00 0.0000000000e+00 0.0000000000e+00 0.0000000000e+00 0.0000000000e+00 0.0000000000e+00 0.0000000000e+00 0.0000000000e+00 0.0000000000e+00 0.0000000000e+00 0.0000000000e+00 0.0000000000e+00 0.0000000000e+00 0.0000000000e+00 0.0000000000e+00 0.0000000000e+00 0.0000000000e+00 0.0000000000e+00 0.0000000000e+00 0.0000000000e+00 0.0000000000e+00 0.0000000000e+00 0.0000000000e+00 0.0000000000e+00 0.0000000000e+00 0.0000000000e+00 0.0000000000e+00 0.0000000000e+00 0.0000000000e+00 0.0000000000e+00 0.0000000000e+00 0.0000000000e+00 0.0000000000e+00 0.0000000000e+00 0.0000000000e+00 0.0000000000e+00 0.0000000000e+00 0.0000000000e+00 0.0000000000e+00 0.0000000000e+00 0.0000000000e+00 0.0000000000e+00 0.0000000000e+00 0.0000000000e+00 0.0000000000e+00 0.0000000000e+00 0.0000000000e+00 0.0000000000e+00 0.0000000000e+00 0.0000000000e+00 0.0000000000e+00 0.0000000000e+00 0.0000000000e+00 0.0000000000e+00 0.0000000000e+00 0.0000000000e+00 0.0000000000e+00 0.0000000000e+00 0.0000000000e+00 0.0000000000e+00 0.0000000000e+00 0.0000000000e+00 0.0000000000e+00 0.0000000000e+00 0.0000000000e+00 0.0000000000e+00 0.0000000000e+00 0.0000000000e+00 0.0000000000e+00 0.0000000000e+00 0.0000000000e+00 0.0000000000e+00 0.0000000000e+00 0.0000000000e+00 0.0000000000e+00 0.0000000000e+00 0.0000000000e+00 0.0000000000e+00 0.0000000000e+00 0.0000000000e+00 0.0000000000e+00 0.0000000000e+00 0.0000000000e+00 0.0000000000e+00 0.0000000000e+00 0.0000000000e+00 0.0000000000e+00 0.0000000000e+00 0.0000000000e+00 0.0000000000e+00 0.0000000000e+00 0.0000000000e+00 0.0000000000e+00 0.0000000000e+00 0.0000000000e+00 0.0000000000e+00 0.0000000000e+00 0.0000000000e+00 0.0000000000e+00 0.0000000000e+00 0.0000000000e+00 0.0000000000e+00 0.0000000000e+00 0.0000000000e+00 0.0000000000e+00 0.0000000000e+00
        </DataArray>
        <DataArray type="Float64" Name="force" NumberOfComponents="3" format="ascii">
          -1.0852885962e-02 -1.0839693512e-03 0.0000000000e+00 -8.6026829240e-03 2.1504755735e-03 0.0000000000e+00 -1.2301373135e-02 -6.6906085835e-04 0.0000000000e+00 9.8620156486e-04 1.1776722011e-02 0.0000000000e+00 -1.3365664551e-02 -1.5100061403e-03 0.0000000000e+00 1.7601139982e-03 1.0623082093e-02 0.0000000000e+00 -8.4002284696e-03 3.0569224325e-03 0.0000000000e+00 -3.8808141609e-05 7.8126891798e-03 0.0000000000e+00 -4.8458776781e-03 5.5198198796e-03 0.0000000000e+00 -1.7991206403e-03 6.6362015185e-03 0.0000000000e+00 -2.5853288196e-03 6.4179305684e-03 0.0000000000e+00 -1.6902792185e-03 6.6892484417e-03 0.0000000000e+00 -2.3020148029e-03 6.5269002223e-03 0.0000000000e+00 -1.7286624385e-03 6.6513961460e-03 0.0000000000e+00 -1.6069171288e-03 6.7142419438e-03 0.0000000000e+00 -1.3893753363e-03 6.8412052572e-03 0.0000000000e+00 -1.2452071107e-03 6.8953898829e-03 0.0000000000e+00 -1.2583646098e-03 6.9024664537e-03 0.0000000000e+00 -1.0921840381e-03 6.9241206852e-03 0.0000000000e+00 -1.0548254015e-03 6.9337260643e-03 0.0000000000e+00 -1.0340807289e-03 6.9539962361e-03 0.0000000000e+00 -8.9544256220e-04 7.0004703687e-03 0.0000000000e+00 -7.4809339249e-04 7.0549739429e-03 0.0000000000e+00 -6.8045338473e-04 7.1042693417e-03 0.0000000000e+00 -6.1433063779e-04 7.1417306178e-03 0.0000000000e+00 -5.5399094721e-04 7.1741268823e-03 0.0000000000e+00 -4.9411159867e-04 7.2023942638e-03 0.0000000000e+00 -4.3731052471e-04 7.2275874865e-03 0.0000000000e+00 -3.8231088653e-04 7.2521918809e-03 0.0000000000e+00 -3.2993278944e-04 7.2728478942e-03 0.0000000000e+00 -2.7928509477e-04 7.2954854521e-03 0.0000000000e+00 -2.3076455350e-04 7.3104253625e-03 0.0000000000e+00 -1.8401062897e-04 7.3463224477e-03 0.0000000000e+00 -1.3922180392e-04 7.3559203033e-03 0.0000000000e+00 -9.5618129543e-05 7.3772222262e-03 0.0000000000e+00 -5.4097208736e-05 7.4017963641e-03 0.0000000000e+00 -1.3809357392e-05 7.4208587978e-03 0.0000000000e+00 2.4802709661e-05 7.4412953339e-03 0.0000000000e+00 6.2433782755e-05 7.4589086009e-03 0.0000000000e+00 9.8855714591e-05 7.4766701541e-03 0.0000000000e+00 1.3465952581e-04 7.4928352517e-03 0.0000000000e+00 1.6987064339e-04 7.5086785464e-03 0.0000000000e+00 2.0520500549e-04 7.5232544464e-03 0.0000000000e+00 2.4155909371e-04 7.5373400988e-03 0.0000000000e+00 2.8458764604e-04 7.5486672779e-03 0.0000000000e+00 3.5885940292e-04 7.5603884608e-03 0.0000000000e+00 4.2239854948e-04 7.5763651212e-03 0.0000000000e+00 3.7196115577e-04 7.6033612252e-03 0.0000000000e+00 4.0558365484e-04 7.6293618699e-03 0.0000000000e+00 4.1220219781e-04 7.6526367866e-03 0.0000000000e+00 4.5228040784e-04 7.6716174844e-03 0.0000000000e+00 4.6211067448e-04 7.6891551670e-03 0.0000000000e+00 5.0682666829e-04 7.7040146048e-03 0.0000000000e+00 5.3437666738e-04 7.7150504682e-03 0.0000000000e+00 5.3568046739e-04 7.7227977472e-03 0.0000000000e+00 5.7381782636e-04 7.7270447360e-03 0.0000000000e+00 5.9253363884e-04 7.7289685683e-03 0.0000000000e+00 6.6074124937e-04 7.7234673741e-03 0.0000000000e+00 7.8436372587e-04 7.7223105265e-03 0.0000000000e+00 7.2310210329e-04 7.7517719431e-03 0.0000000000e+00 6.7762382153e-04 7.7882335867e-03 0.0000000000e+00 7.0782620801e-04 7.8160940029e-03 0.0000000000e+00 7.1222686755e-04 7.8377074054e-03 0.0000000000e+00 7.9502351147e-04 7.8460768459e-03 0.0000000000e+00 7.3926595297e-04 7.8525740671e-03 0.0000000000e+00 8.0003176284e-04 7.8452090360e-03 0.0000000000e+00 8.0826831911e-04 7.8316210997e-03 0.0000000000e+00 1.0129812557e-03 7.8144007470e-03 0.0000000000e+00 9.2651476159e-04 7.8451391471e-03 0.0000000000e+00 8.5907245503e-04 7.8843902475e-03 0.0000000000e+00 8.5245154855e-04 7.9241890225e-03 0.0000000000e+00 9.4310959248e-04 7.9351680091e-03 0.0000000000e+00 9.1787638447e-04 7.9457180237e-03 0.0000000000e+00 9.0954759238e-04 7.9322617996e-03 0.0000000000e+00 9.9881311510e-04 7.9058856056e-03 0.0000000000e+00 1.1567505716e-03 7.8870422855e-03 0.0000000000e+00 1.0652581178e-03 7.9244953579e-03 0.0000000000e+00 9.6227296499e-04 7.9694559222e-03 0.0000000000e+00 1.0209033606e-03 8.0106075729e-03 0.0000000000e+00 1.0764130968e-03 8.0065812083e-03 0.0000000000e+00 1.0064652166e-03 8.0127869745e-03 0.0000000000e+00 1.0929843674e-03 7.9673526844e-03 0.0000000000e+00 1.2601827670e-03 7.9554950994e-03 0.0000000000e+00 1.2237097528e-03 7.9676586082e-03 0.0000000000e+00 1.0336940635e-03 8.0416236839e-03 0.0000000000e+00 1.1505589445e-03 8.0672114846e-03 0.0000000000e+00 1.1589859662e-03 8.0800247361e-03 0.0000000000e+00 1.0925990609e-03 8.0562398132e-03 0.0000000000e+00 1.2855036468e-03 8.0153288308e-03 0.0000000000e+00 1.3855537887e-03 8.0055493312e-03 0.0000000000e+00 1.1823800106e-03 8.0531400614e-03 0.0000000000e+00 1.1653399686e-03 8.1226274914e-03 0.0000000000e+00 1.2775437898e-03 8.1229672054e-03 0.0000000000e+00 1.1686169363e-03 8.1262151787e-03 0.0000000000e+00 1.3085591583e-03 8.0684912928e-03 0.0000000000e+00 1.4535112335e-03 8.0481675322e-03 0.0000000000e+00 1.3445488066e-03 8.0831856305e-03 0.0000000000e+00 1.1935225979e-03 8.1628857437e-03 0.0000000000e+00 1.3628782300e-03 8.1709568908e-03 0.0000000000e+00 1.2337733573e-03 8.1680139253e-03 0.0000000000e+00 1.3884344397e-03 8.1124230573e-03 0.0000000000e+00 1.5417169821e-03 8.0830416262e-03 0.0000000000e+00 1.3686029920e-03 8.1330025577e-03 0.0000000000e+00 1.2896961707e-03 8.2082549603e-03 0.0000000000e+00 1.4170401365e-03 8.2148570178e-03 0.0000000000e+00 1.2911254864e-03 8.1937099629e-03 0.0000000000e+00 1.5043225234e-03 8.1402220917e-03 0.0000000000e+00 1.6436747124e-03 8.1195953585e-03 0.0000000000e+00 1.2902856512e-03 8.2020058403e-03 0.0000000000e+00 1.4572645660e-03 8.2488945308e-03 0.0000000000e+00 1.4037120501e-03 8.2522803034e-03 0.0000000000e+00 1.4204963380e-03 8.2025766929e-03 0.0000000000e+00 1.6298742413e-03 8.1526488021e-03 0.0000000000e+00 1.6114541811e-03 8.1801943595e-03 0.0000000000e+00 1.3261570312e-03 8.2751529898e-03 0.0000000000e+00 1.5685967754e-03 8.2801533793e-03 0.0000000000e+00 1.3713206172e-03 8.2618149714e-03 0.0000000000e+00 1.6453052365e-03 8.1954372935e-03 0.0000000000e+00 1.7543794996e-03 8.1819103473e-03 0.0000000000e+00 1.3473641516e-03 8.2804121148e-03 0.0000000000e+00 1.6147415738e-03 8.3082690216e-03 0.0000000000e+00 1.4347645398e-03 8.3039214273e-03 0.0000000000e+00 1.6311459733e-03 8.2359315042e-03 0.0000000000e+00 1.8182364010e-03 8.1959348376e-03 0.0000000000e+00 1.4436030955e-03 8.2860774065e-03 0.0000000000e+00 1.6142106814e-03 8.3343062891e-03 0.0000000000e+00 1.5192280699e-03 8.3331200218e-03 0.0000000000e+00 1.6180942586e-03 8.2699768572e-03 0.0000000000e+00 1.8723856217e-03 8.2141291485e-03 0.0000000000e+00 1.5216450059e-03 8.2996468537e-03 0.0000000000e+00 1.6302402299e-03 8.3570850259e-03 0.0000000000e+00 1.5765573594e-03 8.3568238016e-03 0.0000000000e+00 1.6395334396e-03 8.2940715590e-03 0.0000000000e+00 1.9317664969e-03 8.2320796458e-03 0.0000000000e+00 1.5420742715e-03 8.3239117587e-03 0.0000000000e+00 1.6912343101e-03 8.3759820502e-03 0.0000000000e+00 1.5846516187e-03 8.3789388331e-03 0.0000000000e+00 1.7218583242e-03 8.3049426506e-03 0.0000000000e+00 1.9716093482e-03 8.2527709225e-03 0.0000000000e+00 1.5283909289e-03 8.3561521070e-03 0.0000000000e+00 1.7798193738e-03 8.3925057775e-03 0.0000000000e+00 1.5609178159e-03 8.3972102071e-03 0.0000000000e+00 1.8539672148e-03 8.3030688565e-03 0.0000000000e+00 1.9666434576e-03 8.2816977181e-03 0.0000000000e+00 1.5312044920e-03 8.3922500626e-03 0.0000000000e+00 1.8643066894e-03 8.4072636055e-03 0.0000000000e+00 1.5262264313e-03 8.4070342051e-03 0.0000000000e+00 2.0376308495e-03 8.2898845419e-03 0.0000000000e+00 1.8521062613e-03 8.3284374660e-03 0.0000000000e+00 1.6599272693e-03 8.4173599321e-03 0.0000000000e+00 1.8135277917e-03 8.4321816421e-03 0.0000000000e+00 1.6513760591e-03 8.3878032861e-03 0.0000000000e+00 2.1336439578e-03 8.2883085078e-03 0.0000000000e+00 1.7063113107e-03 8.3833504502e-03 0.0000000000e+00 1.8416479552e-03 8.4351542037e-03 0.0000000000e+00 1.6671711927e-03 8.4498228857e-03 0.0000000000e+00 1.9654747212e-03 8.3440443379e-03 0.0000000000e+00 2.0516647659e-03 8.3243733619e-03 0.0000000000e+00 1.6579335032e-03 8.4342553550e-03 0.0000000000e+00 1.9428662115e-03 8.4513849662e-03 0.0000000000e+00 1.6339637807e-03 8.4344817618e-03 0.0000000000e+00 2.2229731629e-03 8.3079728234e-03 0.0000000000e+00 1.8051297762e-03 8.3953598036e-03 0.0000000000e+00 1.8941515118e-03 8.4525670347e-03 0.0000000000e+00 1.7226189994e-03 8.4753616521e-03 0.0000000000e+00 2.0489232339e-03 8.3609530131e-03 0.0000000000e+00 2.0908420970e-03 8.3459907788e-03 0.0000000000e+00 1.7566370612e-03 8.4523207681e-03 0.0000000000e+00 1.9579637119e-03 8.4749385237e-03 0.0000000000e+00 1.7623410937e-03 8.4360356646e-03 0.0000000000e+00 2.2923179638e-03 8.3195115627e-03 0.0000000000e+00 1.8032114207e-03 8.4292299048e-03 0.0000000000e+00 2.0119276077e-03 8.4694597877e-03 0.0000000000e+00 1.7223965278e-03 8.4830765097e-03 0.0000000000e+00 2.2684027638e-03 8.3401678764e-03 0.0000000000e+00 1.9862063236e-03 8.3920791357e-03 0.0000000000e+00 1.9580003759e-03 8.4662370759e-03 0.0000000000e+00 1.8216385012e-03 8.4964311052e-03 0.0000000000e+00 2.1559735863e-03 8.3757682709e-03 0.0000000000e+00 2.1599677421e-03 8.3567747487e-03 0.0000000000e+00 1.9196933495e-03 8.4566007261e-03 0.0000000000e+00 1.9459752903e-03 8.4906428465e-03 0.0000000000e+00 2.0329986644e-03 8.4072486944e-03 0.0000000000e+00 2.3004358966e-03 8.3234933554e-03 0.0000000000e+00 1.9297160719e-03 8.4314332028e-03 0.0000000000e+00 2.0301402014e-03 8.4727066190e-03 0.0000000000e+00 1.9685526691e-03 8.4181019732e-03 0.0000000000e+00 2.3655038557e-03 8.2851492303e-03 0.0000000000e+00 2.0462190771e-03 8.3650154061e-03 0.0000000000e+00 1.9750848665e-03 8.4451343110e-03 0.0000000000e+00 2.0319403804e-03 8.3980577220e-03 0.0000000000e+00 2.3757151304e-03 8.2137553366e-03 0.0000000000e+00 2.2616851885e-03 8.1667631726e-03 0.0000000000e+00 1.7278731143e-03 8.4576168737e-03 0.0000000000e+00 2.3123764604e-03 8.1823899524e-03 0.0000000000e+00 1.1056826239e-03 9.1768427702e-03 0.0000000000e+00 3.2796521774e-03 9.6772124310e-03 0.0000000000e+00 4.7956398403e-06 1.3752857096e-02 0.0000000000e+00 8.5150850157e-03 1.0134967834e-02 0.0000000000e+00 -2.7118649065e-04 1.3975343786e-04 0.0000000000e+00 -1.6197021403e-03 -1.0870850521e-02 0.0000000000e+00 3.7910240182e-04 -1.3881422960e-02 0.0000000000e+00 -5.0363708570e-04 -9.6914948690e-03 0.0000000000e+00 -8.1218233274e-04 -9.4715822895e-03 0.0000000000e+00 2.3041306894e-04 -8.3550420783e-03 0.0000000000e+00 4.3345217970e-05 -8.6925036284e-03 0.0000000000e+00 2.2321022496e-04 -8.3574222733e-03 0.0000000000e+00 3.2836879511e-04 -8.6021218431e-03 0.0000000000e+00 1.7988072544e-04 -8.6589215606e-03 0.0000000000e+00 9.1698416056e-05 -8.6508612801e-03 0.0000000000e+00 1.5523934252e-04 -8.6069773657e-03 0.0000000000e+00 2.4339810099e-04 -8.6491349125e-03 0.0000000000e+00 1.5933640949e-04 -8.6929851333e-03 0.0000000000e+00 1.1121667479e-04 -8.6875421613e-03 0.0000000000e+00 1.2621679168e-04 -8.6730261116e-03 0.0000000000e+00 1.6392962215e-04 -8.6860429653e-03 0.0000000000e+00 1.3548417925e-04 -8.6935483014e-03 0.0000000000e+00 1.0599655631e-04 -8.7058085119e-03 0.0000000000e+00 1.0307552068e-04 -8.7061813559e-03 0.0000000000e+00 1.1396935309e-04 -8.6930606141e-03 0.0000000000e+00 1.0277889203e-04 -8.7152456692e-03 0.0000000000e+00 8.8317135044e-05 -8.7120614703e-03 0.0000000000e+00 7.9937745175e-05 -8.7189682449e-03 0.0000000000e+00 7.8828950293e-05 -8.7174089538e-03 0.0000000000e+00 7.2561378714e-05 -8.7229988895e-03 0.0000000000e+00 6.3395316642e-05 -8.7236856254e-03 0.0000000000e+00 5.5303746653e-05 -8.7252081874e-03 0.0000000000e+00 5.0187363049e-05 -8.7256691607e-03 0.0000000000e+00 4.4645657796e-05 -8.7268244266e-03 0.0000000000e+00 3.7615516943e-05 -8.7278785895e-03 0.0000000000e+00 3.0432659679e-05 -8.7286360774e-03 0.0000000000e+00 2.4173465159e-05 -8.7289683366e-03 0.0000000000e+00 1.8230307336e-05 -8.7295569638e-03 0.0000000000e+00 1.1765574461e-05 -8.7300774822e-03 0.0000000000e+00 4.9713214018e-06 -8.7304880580e-03 0.0000000000e+00 -1.6719710949e-06 -8.7309343291e-03 0.0000000000e+00 -8.0779342118e-06 -8.7310260302e-03 0.0000000000e+00 -1.4562348754e-05 -8.7312292481e-03 0.0000000000e+00 -2.1231717983e-05 -8.7315221442e-03 0.0000000000e+00 -2.7841579967e-05 -8.7315912159e-03 0.0000000000e+00 -3.4432326707e-05 -8.7316230174e-03 0.0000000000e+00 -4.1005454771e-05 -8.7315715735e-03 0.0000000000e+00 -4.7691308274e-05 -8.7316564940e-03 0.0000000000e+00 -5.4452409670e-05 -8.7316739830e-03 0.0000000000e+00 -6.1258646680e-05 -8.7315340901e-03 0.0000000000e+00 -6.8064126246e-05 -8.7314349292e-03 0.0000000000e+00 -7.4934627511e-05 -8.7313205746e-03 0.0000000000e+00 -8.1831241654e-05 -8.7311262817e-03 0.0000000000e+00 -8.8822981969e-05 -8.7306578232e-03 0.0000000000e+00 -9.5772715608e-05 -8.7305004557e-03 0.0000000000e+00 -1.0286273521e-04 -8.7296068279e-03 0.0000000000e+00 -1.0982599602e-04 -8.7296528230e-03 0.0000000000e+00 -1.1706126218e-04 -8.7277863421e-03 0.0000000000e+00 -1.2398244677e-04 -8.7282382912e-03 0.0000000000e+00 -1.3139890722e-04 -8.7245424443e-03 0.0000000000e+00 -1.3821754363e-04 -8.7260996290e-03 0.0000000000e+00 -1.4589730702e-04 -8.7173907081e-03 0.0000000000e+00 -1.5265701431e-04 -8.7201252641e-03 0.0000000000e+00 -1.5998210025e-04 -8.7311448044e-03 0.0000000000e+00 -1.6728031790e-04 -8.7131497274e-03 0.0000000000e+00 -1.7471473148e-04 -8.7245875991e-03 0.0000000000e+00 -1.8176098710e-04 -8.7224520444e-03 0.0000000000e+00 -1.8927265610e-04 -8.7276508570e-03 0.0000000000e+00 -1.9646251913e-04 -8.7268318277e-03 0.0000000000e+00 -2.0399782594e-04 -8.7292113627e-03 0.0000000000e+00 -2.1134687938e-04 -8.7292082933e-03 0.0000000000e+00 -2.1892621343e-04 -8.7303956347e-03 0.0000000000e+00 -2.2643229084e-04 -8.7310767954e-03 0.0000000000e+00 -2.3408454910e-04 -8.7317658601e-03 0.0000000000e+00 -2.4171557368e-04 -8.7324407597e-03 0.0000000000e+00 -2.4946585532e-04 -8.7332653469e-03 0.0000000000e+00 -2.5720566143e-04 -8.7338916944e-03 0.0000000000e+00 -2.6504395089e-04 -8.7346983204e-03 0.0000000000e+00 -2.7286550724e-04 -8.7353107596e-03 0.0000000000e+00 -2.8077912446e-04 -8.7361503590e-03 0.0000000000e+00 -2.8862695633e-04 -8.7371548573e-03 0.0000000000e+00 -2.9657976919e-04 -8.7377625749e-03 0.0000000000e+00 -3.0426477903e-04 -8.7386571722e-03 0.0000000000e+00 -3.1302051767e-04 -8.7395968472e-03 0.0000000000e+00 -3.2023516785e-04 -8.7403762736e-03 0.0000000000e+00 -3.2879562963e-04 -8.7413020454e-03 0.0000000000e+00 -3.3648060861e-04 -8.7420788165e-03 0.0000000000e+00 -3.4545752851e-04 -8.7430552968e-03 0.0000000000e+00 -3.5285446556e-04 -8.7440150619e-03 0.0000000000e+00 -3.6241304889e-04 -8.7442945800e-03 0.0000000000e+00 -3.7083680641e-04 -8.7444303573e-03 0.0000000000e+00 -3.8015960622e-04 -8.7444612480e-03 0.0000000000e+00 -3.8918181623e-04 -8.7442997173e-03 0.0000000000e+00 -3.9850858534e-04 -8.7438984160e-03 0.0000000000e+00 -4.0770186829e-04 -8.7427799785e-03 0.0000000000e+00 -4.1699763149e-04 -8.7417317097e-03 0.0000000000e+00 -4.2624866394e-04 -8.7392572469e-03 0.0000000000e+00 -4.3548368992e-04 -8.7374585378e-03 0.0000000000e+00 -4.4510432722e-04 -8.7315714267e-03 0.0000000000e+00 -4.5458514331e-04 -8.7290515380e-03 0.0000000000e+00 -4.6791327848e-04 -8.7168167715e-03 0.0000000000e+00 -4.8285001283e-04 -8.7132191989e-03 0.0000000000e+00 -5.4105162077e-04 -8.6912378345e-03 0.0000000000e+00 -5.5131492243e-04 -8.7027753593e-03 0.0000000000e+00 -5.2718190786e-04 -8.7079671040e-03 0.0000000000e+00 -5.3589854445e-04 -8.7008445691e-03 0.0000000000e+00 -5.4419605064e-04 -8.7206687727e-03 0.0000000000e+00 -5.5617565842e-04 -8.7212766010e-03 0.0000000000e+00 -5.6725014198e-04 -8.7325851163e-03 0.0000000000e+00 -5.7835204625e-04 -8.7349774313e-03 0.0000000000e+00 -5.8898597322e-04 -8.7422266864e-03 0.0000000000e+00 -5.9906729657e-04 -8.7455559484e-03 0.0000000000e+00 -6.1128465996e-04 -8.7514107143e-03 0.0000000000e+00 -6.1975338529e-04 -8.7542879657e-03 0.0000000000e+00 -6.3435761693e-04 -8.7550697028e-03 0.0000000000e+00 -6.4410587455e-04 -8.7544821787e-03 0.0000000000e+00 -6.5689163626e-04 -8.7522302590e-03 0.0000000000e+00 -6.6771482091e-04 -8.7473740870e-03 0.0000000000e+00 -6.7980237265e-04 -8.7391069865e-03 0.0000000000e+00 -6.9773207764e-04 -8.7248679067e-03 0.0000000000e+00 -7.5506170085e-04 -8.7071656045e-03 0.0000000000e+00 -8.3623125411e-04 -8.6961675560e-03 0.0000000000e+00 -7.7510925274e-04 -8.7060794544e-03 0.0000000000e+00 -7.7924358827e-04 -8.7225318947e-03 0.0000000000e+00 -7.7933844649e-04 -8.7372762596e-03 0.0000000000e+00 -8.0861409279e-04 -8.7485322986e-03 0.0000000000e+00 -8.0542035635e-04 -8.7591917479e-03 0.0000000000e+00 -8.4121267968e-04 -8.7680763796e-03 0.0000000000e+00 -8.3021138165e-04 -8.7753340973e-03 0.0000000000e+00 -8.7288295282e-04 -8.7720844515e-03 0.0000000000e+00 -8.5106384511e-04 -8.7681803803e-03 0.0000000000e+00 -9.0820474303e-04 -8.7547121501e-03 0.0000000000e+00 -8.6918278478e-04 -8.7341836153e-03 0.0000000000e+00 -1.0532305514e-03 -8.7026608375e-03 0.0000000000e+00 -1.0586971130e-03 -8.6985249941e-03 0.0000000000e+00 -9.9683421325e-04 -8.7189954719e-03 0.0000000000e+00 -1.0000977684e-03 -8.7479092784e-03 0.0000000000e+00 -1.0125705615e-03 -8.7683011993e-03 0.0000000000e+00 -1.0463983177e-03 -8.7844275635e-03 0.0000000000e+00 -1.0490091319e-03 -8.7975777830e-03 0.0000000000e+00 -1.0721164917e-03 -8.7906763559e-03 0.0000000000e+00 -1.0881558317e-03 -8.7783590886e-03 0.0000000000e+00 -1.0763992691e-03 -8.7470149246e-03 0.0000000000e+00 -1.2979330470e-03 -8.7047665897e-03 0.0000000000e+00 -1.3045234375e-03 -8.7072968252e-03 0.0000000000e+00 -1.2028805747e-03 -8.7357121468e-03 0.0000000000e+00 -1.2133993418e-03 -8.7831973510e-03 0.0000000000e+00 -1.2638512259e-03 -8.8003735808e-03 0.0000000000e+00 -1.2544083716e-03 -8.8243338617e-03 0.0000000000e+00 -1.3000539745e-03 -8.8002066621e-03 0.0000000000e+00 -1.2626629688e-03 -8.7804553973e-03 0.0000000000e+00 -1.4947400216e-03 -8.7188670284e-03 0.0000000000e+00 -1.5831575915e-03 -8.7134884187e-03 0.0000000000e+00 -1.3997568449e-03 -8.7563993610e-03 0.0000000000e+00 -1.4631889739e-03 -8.8187175636e-03 0.0000000000e+00 -1.4542029858e-03 -8.8450351884e-03 0.0000000000e+00 -1.5090216366e-03 -8.8520064609e-03 0.0000000000e+00 -1.4883881403e-03 -8.7912186143e-03 0.0000000000e+00 -1.7355487184e-03 -8.7469124891e-03 0.0000000000e+00 -1.8457440799e-03 -8.7336688395e-03 0.0000000000e+00 -1.5987525734e-03 -8.8091490182e-03 0.0000000000e+00 -1.7085661997e-03 -8.8709077739e-03 0.0000000000e+00 -1.6857607283e-03 -8.8946852041e-03 0.0000000000e+00 -1.7357090882e-03 -8.8215675199e-03 0.0000000000e+00 -1.9862680814e-03 -8.7680540155e-03 0.0000000000e+00 -2.0924791905e-03 -8.7656958230e-03 0.0000000000e+00 -1.8755666848e-03 -8.8482788325e-03 0.0000000000e+00 -1.8774986960e-03 -8.9462132589e-03 0.0000000000e+00 -1.9652126810e-03 -8.8742982627e-03 0.0000000000e+00 -2.1968383094e-03 -8.8053477236e-03 0.0000000000e+00 -2.3714037223e-03 -8.7876430015e-03 0.0000000000e+00 -2.1987055764e-03 -8.8623836804e-03 0.0000000000e+00 -2.0294030913e-03 -9.0155201686e-03 0.0000000000e+00 -2.3799618196e-03 -8.8459109620e-03 0.0000000000e+00 -2.4545475607e-03 -8.8534344156e-03 0.0000000000e+00 -2.8214032757e-03 -8.7854973236e-03 0.0000000000e+00 -2.1570917228e-03 -9.0579627561e-03 0.0000000000e+00 -2.6452745145e-03 -8.9052531087e-03 0.0000000000e+00 -2.7227255822e-03 -8.8760525519e-03 0.0000000000e+00 -3.2601330309e-03 -8.8227632440e-03 0.0000000000e+00 -2.3061419484e-03 -9.0670352673e-03 0.0000000000e+00 -3.1028644988e-03 -8.9872127373e-03 0.0000000000e+00 -3.3960989821e-03 -8.7054618118e-03 0.0000000000e+00 -3.1013208910e-03 -9.2083416790e-03 0.0000000000e+00 -3.1377809116e-03 -8.7086777078e-03 0.0000000000e+00 -3.3082830632e-03 -9.3762164623e-03 0.0000000000e+00 -4.5993627773e-03 -8.1882157339e-03 0.0000000000e+00 -2.1008071374e-03 -9.9996702221e-03 0.0000000000e+00 -5.6616228370e-03 -7.7715833417e-03 0.0000000000e+00 -3.1460851142e-03 -9.7613135060e-03 0.0000000000e+00 -4.3700323953e-03 -8.4360119157e-03 0.0000000000e+00 -5.6212394135e-03 -8.9214402368e-03 0.0000000000e+00 -3.0244325585e-03 -9.2025727889e-03 0.0000000000e+00 -7.3533209566e-03 -8.2822844505e-03 0.0000000000e+00 -3.1791423851e-03 -9.5775550197e-03 0.0000000000e+00 -8.3059447794e-03 -7.7248437509e-03 0.0000000000e+00 -3.5290263122e-03 -1.0242337861e-02 0.0000000000e+00 -1.0265083212e-02 -6.0937274517e-03 0.0000000000e+00 -4.7830691084e-03 -1.0340070881e-02 0.0000000000e+00 -1.0580018800e-02 -4.7026960957e-03 0.0000000000e+00 -8.0149216219e-03 -9.0567739142e-03 0.0000000000e+00 -1.1695085295e-02 -2.7495686961e-03 0.0000000000e+00 -1.0218515759e-02 -3.5213461958e-03 0.0000000000e+00
        </DataArray>
      </PointData>
    </Piece>
  </PolyData>
</VTKFile>
