<?xml version="1.0"?>
<VTKFile type="PolyData" version="0.1" byte_order="LittleEndian">
  <PolyData>
    <FieldData>
      <DataArray type="Float64" Name="TimeValue" NumberOfTuples="1" format="ascii">
        4.999999999998803e+01
      </DataArray>
    </FieldData>
    <Piece NumberOfPoints="398" NumberOfVerts="398" NumberOfLines="0" NumberOfStrips="0" NumberOfPolys="0">
      <Points>
        <DataArray type="Float64" NumberOfComponents="3" format="ascii">
          -4.9726094768e-01 5.2264231634e-02 0.0000000000e+00 -4.9591980461e-01 5.7187521354e-02 0.0000000000e+00 -4.9320742903e-01 6.1518265364e-02 0.0000000000e+00 -4.8960598536e-01 6.5153650837e-02 0.0000000000e+00 -4.8548567450e-01 6.8194643038e-02 0.0000000000e+00 -4.8105786906e-01 7.0770768034e-02 0.0000000000e+00 -4.7643787966e-01 7.2985647804e-02 0.0000000000e+00 -4.7169100133e-01 7.4914697529e-02 0.0000000000e+00 -4.6685629730e-01 7.6612338955e-02 0.0000000000e+00 -4.6195841863e-01 7.8118474475e-02 0.0000000000e+00 -4.5701365804e-01 7.9463020303e-02 0.0000000000e+00 -4.5203321881e-01 8.0668916425e-02 0.0000000000e+00 -4.4702506197e-01 8.1754126178e-02 0.0000000000e+00 -4.4199500846e-01 8.2732982305e-02 0.0000000000e+00 -4.3694742522e-01 8.3617112443e-02 0.0000000000e+00 -4.3188565927e-01 8.4416090884e-02 0.0000000000e+00 -4.2681230400e-01 8.5137908709e-02 0.0000000000e+00 -4.2172941653e-01 8.5789311244e-02 0.0000000000e+00 -4.1663865062e-01 8.6376052829e-02 0.0000000000e+00 -4.1154135992e-01 8.6903088373e-02 0.0000000000e+00 -4.0643863732e-01 8.7374723845e-02 0.0000000000e+00 -4.0133140546e-01 8.7794726707e-02 0.0000000000e+00 -3.9622042424e-01 8.8166419095e-02 0.0000000000e+00 -3.9110634740e-01 8.8492747356e-02 0.0000000000e+00 -3.8598972048e-01 8.8776341615e-02 0.0000000000e+00 -3.8087100981e-01 8.9019561684e-02 0.0000000000e+00 -3.7575063504e-01 8.9224534775e-02 0.0000000000e+00 -3.7062893181e-01 8.9393189274e-02 0.0000000000e+00 -3.6550619075e-01 8.9527279365e-02 0.0000000000e+00 -3.6038270739e-01 8.9628406450e-02 0.0000000000e+00 -3.5525869773e-01 8.9698040036e-02 0.0000000000e+00 -3.5013435246e-01 8.9737531833e-02 0.0000000000e+00 -3.4500987690e-01 8.9748129328e-02 0.0000000000e+00 -3.3988541842e-01 8.9730987908e-02 0.0000000000e+00 -3.3476111444e-01 8.9687180276e-02 0.0000000000e+00 -3.2963709471e-01 8.9617705257e-02 0.0000000000e+00 -3.2451348064e-01 8.9523495400e-02 0.0000000000e+00 -3.1939034143e-01 8.9405422449e-02 0.0000000000e+00 -3.1426779881e-01 8.9264305217e-02 0.0000000000e+00 -3.0914591206e-01 8.9100912041e-02 0.0000000000e+00 -3.0402476307e-01 8.8915967270e-02 0.0000000000e+00 -2.9890440772e-01 8.8710153739e-02 0.0000000000e+00 -2.9378490850e-01 8.8484117338e-02 0.0000000000e+00 -2.8866631015e-01 8.8238469120e-02 0.0000000000e+00 -2.8354865267e-01 8.7973788508e-02 0.0000000000e+00 -2.7843198600e-01 8.7690626604e-02 0.0000000000e+00 -2.7331635766e-01 8.7389507892e-02 0.0000000000e+00 -2.6820177024e-01 8.7070929522e-02 0.0000000000e+00 -2.6308828316e-01 8.6735369256e-02 0.0000000000e+00 -2.5797588368e-01 8.6383278975e-02 0.0000000000e+00 -2.5286463554e-01 8.6015095985e-02 0.0000000000e+00 -2.4775456034e-01 8.5631236490e-02 0.0000000000e+00 -2.4264563136e-01 8.5232095683e-02 0.0000000000e+00 -2.3753787536e-01 8.4818056587e-02 0.0000000000e+00 -2.3243133189e-01 8.4389488400e-02 0.0000000000e+00 -2.2732604551e-01 8.3946746927e-02 0.0000000000e+00 -2.2222190001e-01 8.3490160448e-02 0.0000000000e+00 -2.1711899509e-01 8.3020063562e-02 0.0000000000e+00 -2.1201736213e-01 8.2536773495e-02 0.0000000000e+00 -2.0691697960e-01 8.2040591368e-02 0.0000000000e+00 -2.0181778048e-01 8.1531802906e-02 0.0000000000e+00 -1.9671983644e-01 8.1010697525e-02 0.0000000000e+00 -1.9162315737e-01 8.0477549322e-02 0.0000000000e+00 -1.8652775518e-01 7.9932623721e-02 0.0000000000e+00 -1.8143354438e-01 7.9376166968e-02 0.0000000000e+00 -1.7634058775e-01 7.8808433128e-02 0.0000000000e+00 -1.7124890276e-01 7.8229663908e-02 0.0000000000e+00 -1.6615843046e-01 7.7640084880e-02 0.0000000000e+00 -1.6106919074e-01 7.7039923480e-02 0.0000000000e+00 -1.5598117717e-01 7.6429397432e-02 0.0000000000e+00 -1.5089442149e-01 7.5808722703e-02 0.0000000000e+00 -1.4580891223e-01 7.5178103979e-02 0.0000000000e+00 -1.4072455773e-01 7.4537729809e-02 0.0000000000e+00 -1.3564143273e-01 7.3887803843e-02 0.0000000000e+00 -1.3055953602e-01 7.3228514974e-02 0.0000000000e+00 -1.2547885669e-01 7.2560045603e-02 0.0000000000e+00 -1.2039932696e-01 7.1882565420e-02 0.0000000000e+00 -1.1532097276e-01 7.1196251579e-02 0.0000000000e+00 -1.1024384833e-01 7.0501280681e-02 0.0000000000e+00 -1.0516789419e-01 6.9797809381e-02 0.0000000000e+00 -1.0009305693e-01 6.9085990467e-02 0.0000000000e+00 -9.5019385779e-02 6.8365986871e-02 0.0000000000e+00 -8.9946876275e-02 6.7637950065e-02 0.0000000000e+00 -8.4875512802e-02 6.6902025973e-02 0.0000000000e+00 -7.9805266057e-02 6.6158354627e-02 0.0000000000e+00 -7.4736119229e-02 6.5407074084e-02 0.0000000000e+00 -6.9668110663e-02 6.4648327056e-02 0.0000000000e+00 -6.4601223625e-02 6.3882244673e-02 0.0000000000e+00 -5.9535406374e-02 6.3108949253e-02 0.0000000000e+00 -5.4470657317e-02 6.2328567330e-02 0.0000000000e+00 -4.9407032488e-02 6.1541231275e-02 0.0000000000e+00 -4.4344451672e-02 6.0747049224e-02 0.0000000000e+00 -3.9282923158e-02 5.9946139943e-02 0.0000000000e+00 -3.4222445485e-02 5.9138617762e-02 0.0000000000e+00 -2.9163037454e-02 5.8324597432e-02 0.0000000000e+00 -2.4104648617e-02 5.7504179745e-02 0.0000000000e+00 -1.9047261811e-02 5.6677467985e-02 0.0000000000e+00 -1.3990893842e-02 5.5844568318e-02 0.0000000000e+00 -8.9355444057e-03 5.5005581552e-02 0.0000000000e+00 -3.8812175905e-03 5.4160606701e-02 0.0000000000e+00 1.1721998069e-03 5.3309720494e-02 0.0000000000e+00 6.2245485523e-03 5.2453043054e-02 0.0000000000e+00 1.1275943392e-02 5.1590645938e-02 0.0000000000e+00 1.6326440609e-02 5.0722607920e-02 0.0000000000e+00 2.1375943892e-02 4.9849031720e-02 0.0000000000e+00 2.6424457110e-02 4.8970000753e-02 0.0000000000e+00 3.1472011504e-02 4.8085591397e-02 0.0000000000e+00 3.6518701143e-02 4.7195866621e-02 0.0000000000e+00 4.1564441327e-02 4.6300918671e-02 0.0000000000e+00 4.6609230112e-02 4.5400823257e-02 0.0000000000e+00 5.1653173445e-02 4.4495634621e-02 0.0000000000e+00 5.6696228622e-02 4.3585431459e-02 0.0000000000e+00 6.1738361294e-02 4.2670289132e-02 0.0000000000e+00 6.6779564021e-02 4.1750276257e-02 0.0000000000e+00 7.1819899165e-02 4.0825446710e-02 0.0000000000e+00 7.6859356703e-02 3.9895865608e-02 0.0000000000e+00 8.1898008641e-02 3.8961580986e-02 0.0000000000e+00 8.6935705941e-02 3.8022680059e-02 0.0000000000e+00 9.1972611128e-02 3.7079190280e-02 0.0000000000e+00 9.7008668669e-02 3.6131177844e-02 0.0000000000e+00 1.0204386087e-01 3.5178700202e-02 0.0000000000e+00 1.0707827097e-01 3.4221793894e-02 0.0000000000e+00 1.1211171891e-01 3.3260543822e-02 0.0000000000e+00 1.1714445382e-01 3.2294951292e-02 0.0000000000e+00 1.2217637967e-01 3.1325081711e-02 0.0000000000e+00 1.2720736077e-01 3.0351006860e-02 0.0000000000e+00 1.3223761875e-01 2.9372727682e-02 0.0000000000e+00 1.3726706297e-01 2.8390303861e-02 0.0000000000e+00 1.4229572061e-01 2.7403770609e-02 0.0000000000e+00 1.4732360119e-01 2.6413164931e-02 0.0000000000e+00 1.5235059578e-01 2.5418545708e-02 0.0000000000e+00 1.5737688659e-01 2.4419912645e-02 0.0000000000e+00 1.6240234385e-01 2.3417325663e-02 0.0000000000e+00 1.6742696646e-01 2.2410817741e-02 0.0000000000e+00 1.7245085770e-01 2.1400399305e-02 0.0000000000e+00 1.7747398558e-01 2.0386106299e-02 0.0000000000e+00 1.8249635644e-01 1.9367965495e-02 0.0000000000e+00 1.8751791564e-01 1.8346014588e-02 0.0000000000e+00 1.9253867441e-01 1.7320276492e-02 0.0000000000e+00 1.9755867528e-01 1.6290766192e-02 0.0000000000e+00 2.0257793396e-01 1.5257502622e-02 0.0000000000e+00 2.0759639625e-01 1.4220517707e-02 0.0000000000e+00 2.1261408588e-01 1.3179825911e-02 0.0000000000e+00 2.1763104490e-01 1.2135436390e-02 0.0000000000e+00 2.2264726018e-01 1.1087368318e-02 0.0000000000e+00 2.2766268318e-01 1.0035646948e-02 0.0000000000e+00 2.3267726296e-01 8.9802968007e-03 0.0000000000e+00 2.3769115605e-01 7.9212972708e-03 0.0000000000e+00 2.4270427261e-01 6.8586782309e-03 0.0000000000e+00 2.4771659633e-01 5.7924527911e-03 0.0000000000e+00 2.5272819058e-01 4.7226157199e-03 0.0000000000e+00 2.5773898461e-01 3.6491890353e-03 0.0000000000e+00 2.6274907064e-01 2.5721585331e-03 0.0000000000e+00 2.6775833653e-01 1.4915525741e-03 0.0000000000e+00 2.7276680970e-01 4.0736826173e-04 0.0000000000e+00 2.7777451790e-01 -6.8039875983e-04 0.0000000000e+00 2.8278146879e-01 -1.7717498540e-03 0.0000000000e+00 2.8778759011e-01 -2.8666701914e-03 0.0000000000e+00 2.9279294031e-01 -3.9651747581e-03 0.0000000000e+00 2.9779755351e-01 -5.0672746270e-03 0.0000000000e+00 3.0280135913e-01 -6.1729590882e-03 0.0000000000e+00 3.0780438244e-01 -7.2822397704e-03 0.0000000000e+00 3.1280650594e-01 -8.3950978319e-03 0.0000000000e+00 3.1780794456e-01 -9.5115896717e-03 0.0000000000e+00 3.2280852738e-01 -1.0631687020e-02 0.0000000000e+00 3.2780825022e-01 -1.1755399878e-02 0.0000000000e+00 3.3280721108e-01 -1.2882762556e-02 0.0000000000e+00 3.3780534714e-01 -1.4013774448e-02 0.0000000000e+00 3.4280265335e-01 -1.5148449133e-02 0.0000000000e+00 3.4779915549e-01 -1.6286808434e-02 0.0000000000e+00 3.5279469994e-01 -1.7428834392e-02 0.0000000000e+00 3.5778950179e-01 -1.8574594513e-02 0.0000000000e+00 3.6278342043e-01 -1.9724076172e-02 0.0000000000e+00 3.6777640315e-01 -2.0877287849e-02 0.0000000000e+00 3.7276860129e-01 -2.2034286424e-02 0.0000000000e+00 3.7775992822e-01 -2.3195075031e-02 0.0000000000e+00 3.8275032602e-01 -2.4359664423e-02 0.0000000000e+00 3.8773987974e-01 -2.5528099898e-02 0.0000000000e+00 3.9272844614e-01 -2.6700374472e-02 0.0000000000e+00 3.9771614086e-01 -2.7876543029e-02 0.0000000000e+00 4.0270291178e-01 -2.9056622242e-02 0.0000000000e+00 4.0768869791e-01 -3.0240627667e-02 0.0000000000e+00 4.1267361642e-01 -3.1428618368e-02 0.0000000000e+00 4.1765755604e-01 -3.2620600225e-02 0.0000000000e+00 4.2264052151e-01 -3.3816607805e-02 0.0000000000e+00 4.2762255447e-01 -3.5016685743e-02 0.0000000000e+00 4.3260353408e-01 -3.6220840625e-02 0.0000000000e+00 4.3758354093e-01 -3.7429128723e-02 0.0000000000e+00 4.4256256770e-01 -3.8641586290e-02 0.0000000000e+00 4.4754046411e-01 -3.9858215695e-02 0.0000000000e+00 4.5251740906e-01 -4.1079100795e-02 0.0000000000e+00 4.5749335137e-01 -4.2304270474e-02 0.0000000000e+00 4.6246815394e-01 -4.3533733300e-02 0.0000000000e+00 4.6744192511e-01 -4.4767559442e-02 0.0000000000e+00 4.7241451575e-01 -4.6005756378e-02 0.0000000000e+00 4.7738608692e-01 -4.7248409814e-02 0.0000000000e+00 4.8235650207e-01 -4.8495532369e-02 0.0000000000e+00 4.8732575854e-01 -4.9747171040e-02 0.0000000000e+00 4.9229400251e-01 -5.1003411632e-02 0.0000000000e+00 4.9726094768e-01 -5.2264231634e-02 0.0000000000e+00 4.9214040296e-01 -5.2464813724e-02 0.0000000000e+00 4.8701953993e-01 -5.2660646441e-02 0.0000000000e+00 4.8189864333e-01 -5.2851767290e-02 0.0000000000e+00 4.7677755232e-01 -5.3038229807e-02 0.0000000000e+00 4.7165625973e-01 -5.3220080515e-02 0.0000000000e+00 4.6653489650e-01 -5.3397360149e-02 0.0000000000e+00 4.6141328729e-01 -5.3570119057e-02 0.0000000000e+00 4.5629157639e-01 -5.3738395555e-02 0.0000000000e+00 4.5116964327e-01 -5.3902235761e-02 0.0000000000e+00 4.4604762022e-01 -5.4061676551e-02 0.0000000000e+00 4.4092555131e-01 -5.4216756824e-02 0.0000000000e+00 4.3580324412e-01 -5.4367521411e-02 0.0000000000e+00 4.3068084515e-01 -5.4514003871e-02 0.0000000000e+00 4.2555835402e-01 -5.4656241187e-02 0.0000000000e+00 4.2043568020e-01 -5.4794271646e-02 0.0000000000e+00 4.1531294051e-01 -5.4928126814e-02 0.0000000000e+00 4.1019008497e-01 -5.5057841695e-02 0.0000000000e+00 4.0506710173e-01 -5.5183449112e-02 0.0000000000e+00 3.9994409843e-01 -5.5304977955e-02 0.0000000000e+00 3.9482094815e-01 -5.5422461631e-02 0.0000000000e+00 3.8969770733e-01 -5.5535928040e-02 0.0000000000e+00 3.8457442349e-01 -5.5645404327e-02 0.0000000000e+00 3.7945097209e-01 -5.5750920133e-02 0.0000000000e+00 3.7432749471e-01 -5.5852498408e-02 0.0000000000e+00 3.6920389872e-01 -5.5950165778e-02 0.0000000000e+00 3.6408023857e-01 -5.6043944803e-02 0.0000000000e+00 3.5895659830e-01 -5.6133856558e-02 0.0000000000e+00 3.5383281810e-01 -5.6219925217e-02 0.0000000000e+00 3.4870894773e-01 -5.6302170032e-02 0.0000000000e+00 3.4358512736e-01 -5.6380607890e-02 0.0000000000e+00 3.3846113257e-01 -5.6455260100e-02 0.0000000000e+00 3.3333711736e-01 -5.6526141037e-02 0.0000000000e+00 3.2821305197e-01 -5.6593266688e-02 0.0000000000e+00 3.2308893851e-01 -5.6656651381e-02 0.0000000000e+00 3.1796483857e-01 -5.6716307587e-02 0.0000000000e+00 3.1284064916e-01 -5.6772248492e-02 0.0000000000e+00 3.0771637227e-01 -5.6824484747e-02 0.0000000000e+00 3.0259218097e-01 -5.6873024235e-02 0.0000000000e+00 2.9746785329e-01 -5.6917877437e-02 0.0000000000e+00 2.9234350810e-01 -5.6959050352e-02 0.0000000000e+00 2.8721911827e-01 -5.6996549104e-02 0.0000000000e+00 2.8209475503e-01 -5.7030377886e-02 0.0000000000e+00 2.7697038274e-01 -5.7060540439e-02 0.0000000000e+00 2.7184594108e-01 -5.7087039267e-02 0.0000000000e+00 2.6672150384e-01 -5.7109874891e-02 0.0000000000e+00 2.6159706323e-01 -5.7129047050e-02 0.0000000000e+00 2.5647259122e-01 -5.7144554236e-02 0.0000000000e+00 2.5134806035e-01 -5.7156393579e-02 0.0000000000e+00 2.4622358623e-01 -5.7164560656e-02 0.0000000000e+00 2.4109907571e-01 -5.7169050186e-02 0.0000000000e+00 2.3597460255e-01 -5.7169855343e-02 0.0000000000e+00 2.3085010370e-01 -5.7166968068e-02 0.0000000000e+00 2.2572559782e-01 -5.7160378926e-02 0.0000000000e+00 2.2060117901e-01 -5.7150077380e-02 0.0000000000e+00 2.1547668986e-01 -5.7136051039e-02 0.0000000000e+00 2.1035218532e-01 -5.7118286508e-02 0.0000000000e+00 2.0522771809e-01 -5.7096769179e-02 0.0000000000e+00 2.0010330503e-01 -5.7071483028e-02 0.0000000000e+00 1.9497890690e-01 -5.7042410356e-02 0.0000000000e+00 1.8985450348e-01 -5.7009532077e-02 0.0000000000e+00 1.8473015445e-01 -5.6972828238e-02 0.0000000000e+00 1.7960584836e-01 -5.6932277051e-02 0.0000000000e+00 1.7448154674e-01 -5.6887855015e-02 0.0000000000e+00 1.6935724336e-01 -5.6839537383e-02 0.0000000000e+00 1.6423299950e-01 -5.6787298642e-02 0.0000000000e+00 1.5910881454e-01 -5.6731111290e-02 0.0000000000e+00 1.5398472721e-01 -5.6670946815e-02 0.0000000000e+00 1.4886063870e-01 -5.6606773550e-02 0.0000000000e+00 1.4373655692e-01 -5.6538559464e-02 0.0000000000e+00 1.3861262126e-01 -5.6466272926e-02 0.0000000000e+00 1.3348865342e-01 -5.6389876340e-02 0.0000000000e+00 1.2836477223e-01 -5.6309334762e-02 0.0000000000e+00 1.2324097603e-01 -5.6224610014e-02 0.0000000000e+00 1.1811724558e-01 -5.6135662002e-02 0.0000000000e+00 1.1299368194e-01 -5.6042451195e-02 0.0000000000e+00 1.0787006851e-01 -5.5944930586e-02 0.0000000000e+00 1.0274655297e-01 -5.5843058179e-02 0.0000000000e+00 9.7623242809e-02 -5.5736789958e-02 0.0000000000e+00 9.2499894644e-02 -5.5626072852e-02 0.0000000000e+00 8.7376702232e-02 -5.5510861246e-02 0.0000000000e+00 8.2253591763e-02 -5.5391102098e-02 0.0000000000e+00 7.7130592483e-02 -5.5266742888e-02 0.0000000000e+00 7.2007772477e-02 -5.5137730413e-02 0.0000000000e+00 6.6884978478e-02 -5.5004004031e-02 0.0000000000e+00 6.1762374400e-02 -5.4865509418e-02 0.0000000000e+00 5.6639899797e-02 -5.4722184619e-02 0.0000000000e+00 5.1517578012e-02 -5.4573968022e-02 0.0000000000e+00 4.6395359247e-02 -5.4420793964e-02 0.0000000000e+00 4.1273265047e-02 -5.4262596875e-02 0.0000000000e+00 3.6151344678e-02 -5.4099310180e-02 0.0000000000e+00 3.1029656272e-02 -5.3930865784e-02 0.0000000000e+00 2.5908107476e-02 -5.3757188601e-02 0.0000000000e+00 2.0786715931e-02 -5.3578204980e-02 0.0000000000e+00 1.5665583667e-02 -5.3393842301e-02 0.0000000000e+00 1.0544631760e-02 -5.3204019413e-02 0.0000000000e+00 5.4238455346e-03 -5.3008655112e-02 0.0000000000e+00 3.0323854710e-04 -5.2807667001e-02 0.0000000000e+00 -4.8170736379e-03 -5.2600974629e-02 0.0000000000e+00 -9.9371296962e-03 -5.2388489241e-02 0.0000000000e+00 -1.5057026989e-02 -5.2170116987e-02 0.0000000000e+00 -2.0176584787e-02 -5.1945773477e-02 0.0000000000e+00 -2.5295897865e-02 -5.1715360119e-02 0.0000000000e+00 -3.0414941641e-02 -5.1478780917e-02 0.0000000000e+00 -3.5533695451e-02 -5.1235937199e-02 0.0000000000e+00 -4.0652120784e-02 -5.0986728615e-02 0.0000000000e+00 -4.5770212954e-02 -5.0731050570e-02 0.0000000000e+00 -5.0888000350e-02 -5.0468793984e-02 0.0000000000e+00 -5.6005440725e-02 -5.0199850525e-02 0.0000000000e+00 -6.1122511737e-02 -4.9924108055e-02 0.0000000000e+00 -6.6239180585e-02 -4.9641452129e-02 0.0000000000e+00 -7.1355503248e-02 -4.9351760294e-02 0.0000000000e+00 -7.6471397397e-02 -4.9054914724e-02 0.0000000000e+00 -8.1586838279e-02 -4.8750791317e-02 0.0000000000e+00 -8.6701851077e-02 -4.8439259672e-02 0.0000000000e+00 -9.1816424892e-02 -4.8120188045e-02 0.0000000000e+00 -9.6930492547e-02 -4.7793444814e-02 0.0000000000e+00 -1.0204404178e-01 -4.7458891444e-02 0.0000000000e+00 -1.0715707215e-01 -4.7116384871e-02 0.0000000000e+00 -1.1226956858e-01 -4.6765779115e-02 0.0000000000e+00 -1.1738150394e-01 -4.6406925081e-02 0.0000000000e+00 -1.2249279621e-01 -4.6039673639e-02 0.0000000000e+00 -1.2760346587e-01 -4.5663864229e-02 0.0000000000e+00 -1.3271353851e-01 -4.5279331259e-02 0.0000000000e+00 -1.3782292438e-01 -4.4885913259e-02 0.0000000000e+00 -1.4293156128e-01 -4.4483442340e-02 0.0000000000e+00 -1.4803948021e-01 -4.4071738429e-02 0.0000000000e+00 -1.5314665394e-01 -4.3650620840e-02 0.0000000000e+00 -1.5825304438e-01 -4.3219904557e-02 0.0000000000e+00 -1.6335853606e-01 -4.2779405918e-02 0.0000000000e+00 -1.6846317945e-01 -4.2328921443e-02 0.0000000000e+00 -1.7356694323e-01 -4.1868248527e-02 0.0000000000e+00 -1.7866975142e-01 -4.1397182525e-02 0.0000000000e+00 -1.8377156506e-01 -4.0915509135e-02 0.0000000000e+00 -1.8887231740e-01 -4.0423010023e-02 0.0000000000e+00 -1.9397201921e-01 -3.9919452293e-02 0.0000000000e+00 -1.9907060315e-01 -3.9404603149e-02 0.0000000000e+00 -2.0416795498e-01 -3.8878227134e-02 0.0000000000e+00 -2.0926410713e-01 -3.8340065606e-02 0.0000000000e+00 -2.1435899276e-01 -3.7789861420e-02 0.0000000000e+00 -2.1945254522e-01 -3.7227348521e-02 0.0000000000e+00 -2.2454463421e-01 -3.6652258723e-02 0.0000000000e+00 -2.2963526591e-01 -3.6064298608e-02 0.0000000000e+00 -2.3472439875e-01 -3.5463169159e-02 0.0000000000e+00 -2.3981193609e-01 -3.4848566607e-02 0.0000000000e+00 -2.4489771085e-01 -3.4220184393e-02 0.0000000000e+00 -2.4998176842e-01 -3.3577677250e-02 0.0000000000e+00 -2.5506399126e-01 -3.2920706413e-02 0.0000000000e+00 -2.6014426393e-01 -3.2248918972e-02 0.0000000000e+00 -2.6522248061e-01 -3.1561945841e-02 0.0000000000e+00 -2.7029858526e-01 -3.0859394906e-02 0.0000000000e+00 -2.7537247023e-01 -3.0140863550e-02 0.0000000000e+00 -2.8044398225e-01 -2.9405937276e-02 0.0000000000e+00 -2.8551303983e-01 -2.8654171425e-02 0.0000000000e+00 -2.9057948552e-01 -2.7885111033e-02 0.0000000000e+00 -2.9564321341e-01 -2.7098270352e-02 0.0000000000e+00 -3.0070406800e-01 -2.6293146236e-02 0.0000000000e+00 -3.0576188583e-01 -2.5469210014e-02 0.0000000000e+00 -3.1081650731e-01 -2.4625903240e-02 0.0000000000e+00 -3.1586776165e-01 -2.3762637513e-02 0.0000000000e+00 -3.2091545343e-01 -2.2878794051e-02 0.0000000000e+00 -3.2595938602e-01 -2.1973716558e-02 0.0000000000e+00 -3.3099932872e-01 -2.1046713543e-02 0.0000000000e+00 -3.3603506379e-01 -2.0097045782e-02 0.0000000000e+00 -3.4106630193e-01 -1.9123937664e-02 0.0000000000e+00 -3.4609279420e-01 -1.8126550881e-02 0.0000000000e+00 -3.5111422796e-01 -1.7103998506e-02 0.0000000000e+00 -3.5613026864e-01 -1.6055330517e-02 0.0000000000e+00 -3.6114055876e-01 -1.4979526225e-02 0.0000000000e+00 -3.6614471400e-01 -1.3875486128e-02 0.0000000000e+00 -3.7114227411e-01 -1.2742032692e-02 0.0000000000e+00 -3.7613277157e-01 -1.1577883387e-02 0.0000000000e+00 -3.8111568954e-01 -1.0381645731e-02 0.0000000000e+00 -3.8609040603e-01 -9.1518147596e-03 0.0000000000e+00 -3.9105627202e-01 -7.8867350466e-03 0.0000000000e+00 -3.9601255828e-01 -6.5845901298e-03 0.0000000000e+00 -4.0095841207e-01 -5.2433865304e-03 0.0000000000e+00 -4.0589288660e-01 -3.8609129621e-03 0.0000000000e+00 -4.1081490142e-01 -2.4347101989e-03 0.0000000000e+00 -4.1572320451e-01 -9.6203219494e-04 0.0000000000e+00 -4.2061636185e-01 5.6021259395e-04 0.0000000000e+00 -4.2549268766e-01 2.1355174736e-03 0.0000000000e+00 -4.3035021769e-01 3.7678670960e-03 0.0000000000e+00 -4.3518659767e-01 5.4618266507e-03 0.0000000000e+00 -4.3999901359e-01 7.2226808961e-03 0.0000000000e+00 -4.4478405085e-01 9.0566000589e-03 0.0000000000e+00 -4.4953751130e-01 1.0970861400e-02 0.0000000000e+00 -4.5425413044e-01 1.2974134101e-02 0.0000000000e+00 -4.5892721924e-01 1.5076883774e-02 0.0000000000e+00 -4.6354810402e-01 1.7291919714e-02 0.0000000000e+00 -4.6810526293e-01 1.9635157524e-02 0.0000000000e+00 -4.7258296803e-01 2.2126706606e-02 0.0000000000e+00 -4.7695906267e-01 2.4792441981e-02 0.0000000000e+00 -4.8120113833e-01 2.7666268843e-02 0.0000000000e+00 -4.8525967047e-01 3.0793297982e-02 0.0000000000e+00 -4.8905511125e-01 3.4233720983e-02 0.0000000000e+00 -4.9245312560e-01 3.8064921006e-02 0.0000000000e+00 -4.9522002994e-01 4.2369646827e-02 0.0000000000e+00 -4.9697272129e-01 4.7169688282e-02 0.0000000000e+00
        </DataArray>
      </Points>
      <Verts>
        <DataArray type="Int64" Name="connectivity" format="ascii">
          0 1 2 3 4 5 6 7 8 9 10 11 12 13 14 15 16 17 18 19 20 21 22 23 24 25 26 27 28 29 30 31 32 33 34 35 36 37 38 39 40 41 42 43 44 45 46 47 48 49 50 51 52 53 54 55 56 57 58 59 60 61 62 63 64 65 66 67 68 69 70 71 72 73 74 75 76 77 78 79 80 81 82 83 84 85 86 87 88 89 90 91 92 93 94 95 96 97 98 99 100 101 102 103 104 105 106 107 108 109 110 111 112 113 114 115 116 117 118 119 120 121 122 123 124 125 126 127 128 129 130 131 132 133 134 135 136 137 138 139 140 141 142 143 144 145 146 147 148 149 150 151 152 153 154 155 156 157 158 159 160 161 162 163 164 165 166 167 168 169 170 171 172 173 174 175 176 177 178 179 180 181 182 183 184 185 186 187 188 189 190 191 192 193 194 195 196 197 198 199 200 201 202 203 204 205 206 207 208 209 210 211 212 213 214 215 216 217 218 219 220 221 222 223 224 225 226 227 228 229 230 231 232 233 234 235 236 237 238 239 240 241 242 243 244 245 246 247 248 249 250 251 252 253 254 255 256 257 258 259 260 261 262 263 264 265 266 267 268 269 270 271 272 273 274 275 276 277 278 279 280 281 282 283 284 285 286 287 288 289 290 291 292 293 294 295 296 297 298 299 300 301 302 303 304 305 306 307 308 309 310 311 312 313 314 315 316 317 318 319 320 321 322 323 324 325 326 327 328 329 330 331 332 333 334 335 336 337 338 339 340 341 342 343 344 345 346 347 348 349 350 351 352 353 354 355 356 357 358 359 360 361 362 363 364 365 366 367 368 369 370 371 372 373 374 375 376 377 378 379 380 381 382 383 384 385 386 387 388 389 390 391 392 393 394 395 396 397
        </DataArray>
        <DataArray type="Int64" Name="offsets" format="ascii">
          1 2 3 4 5 6 7 8 9 10 11 12 13 14 15 16 17 18 19 20 21 22 23 24 25 26 27 28 29 30 31 32 33 34 35 36 37 38 39 40 41 42 43 44 45 46 47 48 49 50 51 52 53 54 55 56 57 58 59 60 61 62 63 64 65 66 67 68 69 70 71 72 73 74 75 76 77 78 79 80 81 82 83 84 85 86 87 88 89 90 91 92 93 94 95 96 97 98 99 100 101 102 103 104 105 106 107 108 109 110 111 112 113 114 115 116 117 118 119 120 121 122 123 124 125 126 127 128 129 130 131 132 133 134 135 136 137 138 139 140 141 142 143 144 145 146 147 148 149 150 151 152 153 154 155 156 157 158 159 160 161 162 163 164 165 166 167 168 169 170 171 172 173 174 175 176 177 178 179 180 181 182 183 184 185 186 187 188 189 190 191 192 193 194 195 196 197 198 199 200 201 202 203 204 205 206 207 208 209 210 211 212 213 214 215 216 217 218 219 220 221 222 223 224 225 226 227 228 229 230 231 232 233 234 235 236 237 238 239 240 241 242 243 244 245 246 247 248 249 250 251 252 253 254 255 256 257 258 259 260 261 262 263 264 265 266 267 268 269 270 271 272 273 274 275 276 277 278 279 280 281 282 283 284 285 286 287 288 289 290 291 292 293 294 295 296 297 298 299 300 301 302 303 304 305 306 307 308 309 310 311 312 313 314 315 316 317 318 319 320 321 322 323 324 325 326 327 328 329 330 331 332 333 334 335 336 337 338 339 340 341 342 343 344 345 346 347 348 349 350 351 352 353 354 355 356 357 358 359 360 361 362 363 364 365 366 367 368 369 370 371 372 373 374 375 376 377 378 379 380 381 382 383 384 385 386 387 388 389 390 391 392 393 394 395 396 397 398
        </DataArray>
      </Verts>
      <PointData>
        <DataArray type="Float64" Name="velocity" NumberOfComponents="3" format="ascii">
          0.0000000000e+00 0.0000000000e+00 0.0000000000e+00 0.0000000000e+00 0.0000000000e+00 0.0000000000e+00 0.0000000000e+00 0.0000000000e+00 0.0000000000e+00 0.0000000000e+00 0.0000000000e+00 0.0000000000e+00 0.0000000000e+00 0.0000000000e+00 0.0000000000e+00 0.0000000000e+00 0.0000000000e+00 0.0000000000e+00 0.0000000000e+00 0.0000000000e+00 0.0000000000e+00 0.0000000000e+00 0.0000000000e+00 0.0000000000e+00 0.0000000000e+00 0.0000000000e+00 0.0000000000e+00 0.0000000000e+00 0.0000000000e+00 0.0000000000e+00 0.0000000000e+00 0.0000000000e+00 0.0000000000e+00 0.0000000000e+00 0.0000000000e+00 0.0000000000e+00 0.0000000000e+00 0.0000000000e+00 0.0000000000e+00 0.0000000000e+00 0.0000000000e+00 0.0000000000e+00 0.0000000000e+00 0.0000000000e+00 0.0000000000e+00 0.0000000000e+00 0.0000000000e+00 0.0000000000e+00 0.0000000000e+00 0.0000000000e+00 0.0000000000e+00 0.0000000000e+00 0.0000000000e+00 0.0000000000e+00 0.0000000000e+00 0.0000000000e+00 0.0000000000e+00 0.0000000000e+00 0.0000000000e+00 0.0000000000e+00 0.0000000000e+00 0.0000000000e+00 0.0000000000e+00 0.0000000000e+00 0.0000000000e+00 0.0000000000e+00 0.0000000000e+00 0.0000000000e+00 0.0000000000e+00 0.0000000000e+00 0.0000000000e+00 0.0000000000e+00 0.0000000000e+00 0.0000000000e+00 0.0000000000e+00 0.0000000000e+00 0.0000000000e+00 0.0000000000e+00 0.0000000000e+00 0.0000000000e+00 0.0000000000e+00 0.0000000000e+00 0.0000000000e+00 0.0000000000e+00 0.0000000000e+00 0.0000000000e+00 0.0000000000e+00 0.0000000000e+00 0.0000000000e+00 0.0000000000e+00 0.0000000000e+00 0.0000000000e+00 0.0000000000e+00 0.0000000000e+00 0.0000000000e+00 0.0000000000e+00 0.0000000000e+00 0.0000000000e+00 0.0000000000e+00 0.0000000000e+00 0.0000000000e+00 0.0000000000e+00 0.0000000000e+00 0.0000000000e+00 0.0000000000e+00 0.0000000000e+00 0.0000000000e+00 0.0000000000e+00 0.0000000000e+00 0.0000000000e+00 0.0000000000e+00 0.0000000000e+00 0.0000000000e+00 0.0000000000e+00 0.0000000000e+00 0.0000000000e+00 0.0000000000e+00 0.0000000000e+00 0.0000000000e+00 0.0000000000e+00 0.0000000000e+00 0.0000000000e+00 0.0000000000e+00 0.0000000000e+00 0.0000000000e+00 0.0000000000e+00 0.0000000000e+00 0.0000000000e+00 0.0000000000e+00 0.0000000000e+00 0.0000000000e+00 0.0000000000e+00 0.0000000000e+00 0.0000000000e+00 0.0000000000e+00 0.0000000000e+00 0.0000000000e+00 0.0000000000e+00 0.0000000000e+00 0.0000000000e+00 0.0000000000e+00 0.0000000000e+00 0.0000000000e+00 0.0000000000e+00 0.0000000000e+00 0.0000000000e+00 0.0000000000e+00 0.0000000000e+00 0.0000000000e+00 0.0000000000e+00 0.0000000000e+00 0.0000000000e+00 0.0000000000e+00 0.0000000000e+00 0.0000000000e+00 0.0000000000e+00 0.0000000000e+00 0.0000000000e+00 0.0000000000e+00 0.0000000000e+00 0.0000000000e+00 0.0000000000e+00 0.0000000000e+00 0.0000000000e+00 0.0000000000e+00 0.0000000000e+00 0.0000000000e+00 0.0000000000e+00 0.0000000000e+00 0.0000000000e+00 0.0000000000e+00 0.0000000000e+00 0.0000000000e+00 0.0000000000e+00 0.0000000000e+00 0.0000000000e+00 0.0000000000e+00 0.0000000000e+00 0.0000000000e+00 0.0000000000e+00 0.0000000000e+00 0.0000000000e+00 0.0000000000e+00 0.0000000000e+00 0.0000000000e+00 0.0000000000e+00 0.0000000000e+00 0.0000000000e+00 0.0000000000e+00 0.0000000000e+00 0.0000000000e+00 0.0000000000e+00 0.0000000000e+00 0.0000000000e+00 0.0000000000e+00 0.0000000000e+00 0.0000000000e+00 0.0000000000e+00 0.0000000000e+00 0.0000000000e+00 0.0000000000e+00 0.0000000000e+00 0.0000000000e+00 0.0000000000e+00 0.0000000000e+00 0.0000000000e+00 0.0000000000e+00 0.0000000000e+00 0.0000000000e+00 0.0000000000e+00 0.0000000000e+00 0.0000000000e+00 0.0000000000e+00 0.0000000000e+00 0.0000000000e+00 0.0000000000e+00 0.0000000000e+00 0.0000000000e+00 0.0000000000e+00 0.0000000000e+00 0.0000000000e+00 0.0000000000e+00 0.0000000000e+00 0.0000000000e+00 0.0000000000e+00 0.0000000000e+00 0.0000000000e+00 0.0000000000e+00 0.0000000000e+00 0.0000000000e+00 0.0000000000e+00 0.0000000000e+00 0.0000000000e+00 0.0000000000e+00 0.0000000000e+00 0.0000000000e+00 0.0000000000e+00 0.0000000000e+00 0.0000000000e+00 0.0000000000e+00 0.0000000000e+00 0.0000000000e+00 0.0000000000e+00 0.0000000000e+00 0.0000000000e+00 0.0000000000e+00 0.0000000000e+00 0.0000000000e+00 0.0000000000e+00 0.0000000000e+00 0.0000000000e+00 0.0000000000e+00 0.0000000000e+00 0.0000000000e+00 0.0000000000e+00 0.0000000000e+00 0.0000000000e+00 0.0000000000e+00 0.0000000000e+00 0.0000000000e+00 0.0000000000e+00 0.0000000000e+00 0.0000000000e+00 0.0000000000e+00 0.0000000000e+00 0.0000000000e+00 0.0000000000e+00 0.0000000000e+00 0.0000000000e+00 0.0000000000e+00 0.0000000000e+00 0.0000000000e+00 0.0000000000e+00 0.0000000000e+00 0.0000000000e+00 0.0000000000e+00 0.0000000000e+00 0.0000000000e+00 0.0000000000e+00 0.0000000000e+00 0.0000000000e+00 0.0000000000e+00 0.0000000000e+00 0.0000000000e+00 0.0000000000e+00 0.0000000000e+00 0.0000000000e+00 0.0000000000e+00 0.0000000000e+00 0.0000000000e+00 0.0000000000e+00 0.0000000000e+00 0.0000000000e+00 0.0000000000e+00 0.0000000000e+00 0.0000000000e+00 0.0000000000e+00 0.0000000000e+00 0.0000000000e+00 0.0000000000e+00 0.0000000000e+00 0.0000000000e+00 0.0000000000e+00 0.0000000000e+00 0.0000000000e+00 0.0000000000e+00 0.0000000000e+00 0.0000000000e+00 0.0000000000e+00 0.0000000000e+00 0.0000000000e+00 0.0000000000e+00 0.0000000000e+00 0.0000000000e+00 0.0000000000e+00 0.0000000000e+00 0.0000000000e+00 0.0000000000e+00 0.0000000000e+00 0.0000000000e+00 0.0000000000e+00 0.0000000000e+00 0.0000000000e+00 0.0000000000e+00 0.0000000000e+00 0.0000000000e+00 0.0000000000e+00 0.0000000000e+00 0.0000000000e+00 0.0000000000e+00 0.0000000000e+00 0.0000000000e+00 0.0000000000e+00 0.0000000000e+00 0.0000000000e+00 0.0000000000e+00 0.0000000000e+00 0.0000000000e+00 0.0000000000e+00 0.0000000000e+00 0.0000000000e+00 0.0000000000e+00 0.0000000000e+00 0.0000000000e+00 0.0000000000e+00 0.0000000000e+00 0.0000000000e+00 0.0000000000e+00 0.0000000000e+00 0.0000000000e+00 0.0000000000e+00 0.0000000000e+00 0.0000000000e+00 0.0000000000e+00 0.0000000000e+00 0.0000000000e+00 0.0000000000e+00 0.0000000000e+00 0.0000000000e+00 0.0000000000e+00 0.0000000000e+00 0.0000000000e+00 0.0000000000e+00 0.0000000000e+00 0.0000000000e+00 0.0000000000e+00 0.0000000000e+00 0.0000000000e+00 0.0000000000e+00 0.0000000000e+00 0.0000000000e+00 0.0000000000e+00 0.0000000000e+00 0.0000000000e+00 0.0000000000e+00 0.0000000000e+00 0.0000000000e+00 0.0000000000e+00 0.0000000000e+00 0.0000000000e+00 0.0000000000e+00 0.0000000000e+00 0.0000000000e+00 0.0000000000e+00 0.0000000000e+00 0.0000000000e+00 0.0000000000e+00 0.0000000000e+00 0.0000000000e+00 0.0000000000e+00 0.0000000000e+00 0.0000000000e+00 0.0000000000e+00 0.0000000000e+00 0.0000000000e+00 0.0000000000e+00 0.0000000000e+00 0.0000000000e+00 0.0000000000e+00 0.0000000000e+00 0.0000000000e+00 0.0000000000e+00 0.0000000000e+00 0.0000000000e+00 0.0000000000e+00 0.0000000000e+00 0.0000000000e+00 0.0000000000e+00 0.0000000000e+00 0.0000000000e+00 0.0000000000e+00 0.0000000000e+00 0.0000000000e+00 0.0000000000e+00 0.0000000000e+00 0.0000000000e+00 0.0000000000e+00 0.0000000000e+00 0.0000000000e+00 0.0000000000e+00 0.0000000000e+00 0.0000000000e+00 0.0000000000e+00 0.0000000000e+00 0.0000000000e+00 0.0000000000e+00 0.0000000000e+00 0.0000000000e+00 0.0000000000e+00 0.0000000000e+00 0.0000000000e+00 0.0000000000e+00 0.0000000000e+00 0.0000000000e+00 0.0000000000e+00 0.0000000000e+00 0.0000000000e+00 0.0000000000e+00 0.0000000000e+00 0.0000000000e+00 0.0000000000e+00 0.0000000000e+00 0.0000000000e+00 0.0000000000e+00 0.0000000000e+00 0.0000000000e+00 0.0000000000e+00 0.0000000000e+00 0.0000000000e+00 0.0000000000e+00 0.0000000000e+00 0.0000000000e+00 0.0000000000e+00 0.0000000000e+00 0.0000000000e+00 0.0000000000e+00 0.0000000000e+00 0.0000000000e+00 0.0000000000e+00 0.0000000000e+00 0.0000000000e+00 0.0000000000e+00 0.0000000000e+00 0.0000000000e+00 0.0000000000e+00 0.0000000000e+00 0.0000000000e+00 0.0000000000e+00 0.0000000000e+00 0.0000000000e+00 0.0000000000e+00 0.0000000000e+00 0.0000000000e+00 0.0000000000e+00 0.0000000000e+00 0.0000000000e+00 0.0000000000e+00 0.0000000000e+00 0.0000000000e+00 0.0000000000e+00 0.0000000000e+00 0.0000000000e+00 0.0000000000e+00 0.0000000000e+00 0.0000000000e+00 0.0000000000e+00 0.0000000000e+00 0.0000000000e+00 0.0000000000e+00 0.0000000000e+00 0.0000000000e+00 0.0000000000e+00 0.0000000000e+00 0.0000000000e+00 0.0000000000e+00 0.0000000000e+00 0.0000000000e+00 0.0000000000e+00 0.0000000000e+00 0.0000000000e+00 0.0000000000e+00 0.0000000000e+00 0.0000000000e+00 0.0000000000e+00 0.0000000000e+00 0.0000000000e+00 0.0000000000e+00 0.0000000000e+00 0.0000000000e+00 0.0000000000e+00 0.0000000000e+00 0.0000000000e+00 0.0000000000e+00 0.0000000000e+00 0.0000000000e+00 0.0000000000e+00 0.0000000000e+00 0.0000000000e+00 0.0000000000e+00 0.0000000000e+00 0.0000000000e+00 0.0000000000e+00 0.0000000000e+00 0.0000000000e+00 0.0000000000e+00 0.0000000000e+00 0.0000000000e+00 0.0000000000e+00 0.0000000000e+00 0.0000000000e+00 0.0000000000e+00 0.0000000000e+00 0.0000000000e+00 0.0000000000e+00 0.0000000000e+00 0.0000000000e+00 0.0000000000e+00 0.0000000000e+00 0.0000000000e+00 0.0000000000e+00 0.0000000000e+00 0.0000000000e+00 0.0000000000e+00 0.0000000000e+00 0.0000000000e+00 0.0000000000e+00 0.0000000000e+00 0.0000000000e+00 0.0000000000e+00 0.0000000000e+00 0.0000000000e+00 0.0000000000e+00 0.0000000000e+00 0.0000000000e+00 0.0000000000e+00 0.0000000000e+00 0.0000000000e+00 0.0000000000e+00 0.0000000000e+00 0.0000000000e+00 0.0000000000e+00 0.0000000000e+00 0.0000000000e+00 0.0000000000e+00 0.0000000000e+00 0.0000000000e+00 0.0000000000e+00 0.0000000000e+00 0.0000000000e+00 0.0000000000e+00 0.0000000000e+00 0.0000000000e+00 0.0000000000e+00 0.0000000000e+00 0.0000000000e+00 0.0000000000e+00 0.0000000000e+00 0.0000000000e+00 0.0000000000e+00 0.0000000000e+00 0.0000000000e+00 0.0000000000e+00 0.0000000000e+00 0.0000000000e+00 0.0000000000e+00 0.0000000000e+00 0.0000000000e+00 0.0000000000e+00 0.0000000000e+00 0.0000000000e+00 0.0000000000e+00 0.0000000000e+00 0.0000000000e+00 0.0000000000e+00 0.0000000000e+00 0.0000000000e+00 0.0000000000e+00 0.0000000000e+00 0.0000000000e+00 0.0000000000e+00 0.0000000000e+00 0.0000000000e+00 0.0000000000e+00 0.0000000000e+00 0.0000000000e+00 0.0000000000e+00 0.0000000000e+00 0.0000000000e+00 0.0000000000e+00 0.0000000000e+00 0.0000000000e+00 0.0000000000e+00 0.0000000000e+00 0.0000000000e+00 0.0000000000e+00 0.0000000000e+00 0.0000000000e+00 0.0000000000e+00 0.0000000000e+00 0.0000000000e+00 0.0000000000e+00 0.0000000000e+00 0.0000000000e+00 0.0000000000e+00 0.0000000000e+00 0.0000000000e+00 0.0000000000e+00 0.0000000000e+00 0.0000000000e+00 0.0000000000e+00 0.0000000000e+00 0.0000000000e+00 0.0000000000e+00 0.0000000000e+00 0.0000000000e+00 0.0000000000e+00 0.0000000000e+00 0.0000000000e+00 0.0000000000e+00 0.0000000000e+00 0.0000000000e+00 0.0000000000e+00 0.0000000000e+00 0.0000000000e+00 0.0000000000e+00 0.0000000000e+00 0.0000000000e+00 0.0000000000e+00 0.0000000000e+00 0.0000000000e+00 0.0000000000e+00 0.0000000000e+00 0.0000000000e+00 0.0000000000e+00 0.0000000000e+00 0.0000000000e+00 0.0000000000e+00 0.0000000000e+00 0.0000000000e+00 0.0000000000e+00 0.0000000000e+00 0.0000000000e+00 0.0000000000e+00 0.0000000000e+00 0.0000000000e+00 0.0000000000e+00 0.0000000000e+00 0.0000000000e+00 0.0000000000e+00 0.0000000000e+00 0.0000000000e+00 0.0000000000e+00 0.0000000000e+00 0.0000000000e+00 0.0000000000e+00 0.0000000000e+00 0.0000000000e+00 0.0000000000e+00 0.0000000000e+00 0.0000000000e+00 0.0000000000e+00 0.0000000000e+00 0.0000000000e+00 0.0000000000e+00 0.0000000000e+00 0.0000000000e+00 0.0000000000e+00 0.0000000000e+00 0.0000000000e+00 0.0000000000e+00 0.0000000000e+00 0.0000000000e+00 0.0000000000e+00 0.0000000000e+00 0.0000000000e+00 0.0000000000e+00 0.0000000000e+00 0.0000000000e+00 0.0000000000e+00 0.0000000000e+00 0.0000000000e+00 0.0000000000e+00 0.0000000000e+00 0.0000000000e+00 0.0000000000e+00 0.0000000000e+00 0.0000000000e+00 0.0000000000e+00 0.0000000000e+00 0.0000000000e+00 0.0000000000e+00 0.0000000000e+00 0.0000000000e+00 0.0000000000e+00 0.0000000000e+00 0.0000000000e+00 0.0000000000e+00 0.0000000000e+00 0.0000000000e+00 0.0000000000e+00 0.0000000000e+00 0.0000000000e+00 0.0000000000e+00 0.0000000000e+00 0.0000000000e+00 0.0000000000e+00 0.0000000000e+00 0.0000000000e+00 0.0000000000e+00 0.0000000000e+00 0.0000000000e+00 0.0000000000e+00 0.0000000000e+00 0.0000000000e+00 0.0000000000e+00 0.0000000000e+00 0.0000000000e+00 0.0000000000e+00 0.0000000000e+00 0.0000000000e+00 0.0000000000e+00 0.0000000000e+00 0.0000000000e+00 0.0000000000e+00 0.0000000000e+00 0.0000000000e+00 0.0000000000e+00 0.0000000000e+00 0.0000000000e+00 0.0000000000e+00 0.0000000000e+00 0.0000000000e+00 0.0000000000e+00 0.0000000000e+00 0.0000000000e+00 0.0000000000e+00 0.0000000000e+00 0.0000000000e+00 0.0000000000e+00 0.0000000000e+00 0.0000000000e+00 0.0000000000e+00 0.0000000000e+00 0.0000000000e+00 0.0000000000e+00 0.0000000000e+00 0.0000000000e+00 0.0000000000e+00 0.0000000000e+00 0.0000000000e+00 0.0000000000e+00 0.0000000000e+00 0.0000000000e+00 0.0000000000e+00 0.0000000000e+00 0.0000000000e+00 0.0000000000e+00 0.0000000000e+00 0.0000000000e+00 0.0000000000e+00 0.0000000000e+00 0.0000000000e+00 0.0000000000e+00 0.0000000000e+00 0.0000000000e+00 0.0000000000e+00 0.0000000000e+00 0.0000000000e+00 0.0000000000e+00 0.0000000000e+00 0.0000000000e+00 0.0000000000e+00 0.0000000000e+00 0.0000000000e+00 0.0000000000e+00 0.0000000000e+00 0.0000000000e+00 0.0000000000e+00 0.0000000000e+00 0.0000000000e+00 0.0000000000e+00 0.0000000000e+00 0.0000000000e+00 0.0000000000e+00 0.0000000000e+00 0.0000000000e+00 0.0000000000e+00 0.0000000000e+00 0.0000000000e+00 0.0000000000e+00 0.0000000000e+00 0.0000000000e+00 0.0000000000e+00 0.0000000000e+00 0.0000000000e+00 0.0000000000e+00 0.0000000000e+00 0.0000000000e+00 0.0000000000e+00 0.0000000000e+00 0.0000000000e+00 0.0000000000e+00 0.0000000000e+00 0.0000000000e+00 0.0000000000e+00 0.0000000000e+00 0.0000000000e+00 0.0000000000e+00 0.0000000000e+00 0.0000000000e+00 0.0000000000e+00 0.0000000000e+00 0.0000000000e+00 0.0000000000e+00 0.0000000000e+00 0.0000000000e+00 0.0000000000e+00 0.0000000000e+00 0.0000000000e+00 0.0000000000e+00 0.0000000000e+00 0.0000000000e+00 0.0000000000e+00 0.0000000000e+00 0.0000000000e+00 0.0000000000e+00 0.0000000000e+00 0.0000000000e+00 0.0000000000e+00 0.0000000000e+00 0.0000000000e+00 0.0000000000e+00 0.0000000000e+00 0.0000000000e+00 0.0000000000e+00 0.0000000000e+00 0.0000000000e+00 0.0000000000e+00 0.0000000000e+00 0.0000000000e+00 0.0000000000e+00 0.0000000000e+00 0.0000000000e+00 0.0000000000e+00 0.0000000000e+00 0.0000000000e+00 0.0000000000e+00 0.0000000000e+00 0.0000000000e+00 0.0000000000e+00 0.0000000000e+00 0.0000000000e+00 0.0000000000e+00 0.0000000000e+00 0.0000000000e+00 0.0000000000e+00 0.0000000000e+00 0.0000000000e+00 0.0000000000e+00 0.0000000000e+00 0.0000000000e+00 0.0000000000e+00 0.0000000000e+00 0.0000000000e+00 0.0000000000e+00 0.0000000000e+00 0.0000000000e+00 0.0000000000e+00 0.0000000000e+00 0.0000000000e+00 0.0000000000e+00 0.0000000000e+00 0.0000000000e+00 0.0000000000e+00 0.0000000000e+00 0.0000000000e+00 0.0000000000e+00 0.0000000000e+00 0.0000000000e+00 0.0000000000e+00 0.0000000000e+00 0.0000000000e+00 0.0000000000e+00 0.0000000000e+00 0.0000000000e+00 0.0000000000e+00 0.0000000000e+00 0.0000000000e+00 0.0000000000e+00 0.0000000000e+00 0.0000000000e+00 0.0000000000e+00 0.0000000000e+00 0.0000000000e+00 0.0000000000e+00 0.0000000000e+00 0.0000000000e+00 0.0000000000e+00 0.0000000000e+00 0.0000000000e+00 0.0000000000e+00 0.0000000000e+00 0.0000000000e+00 0.0000000000e+00 0.0000000000e+00 0.0000000000e+00 0.0000000000e+00 0.0000000000e+00 0.0000000000e+00 0.0000000000e+00 0.0000000000e+00 0.0000000000e+00 0.0000000000e+00 0.0000000000e+00 0.0000000000e+00 0.0000000000e+00 0.0000000000e+00 0.0000000000e+00 0.0000000000e+00 0.0000000000e+00 0.0000000000e+00 0.0000000000e+00 0.0000000000e+00 0.0000000000e+00 0.0000000000e+00 0.0000000000e+00 0.0000000000e+00 0.0000000000e+00 0.0000000000e+00 0.0000000000e+00 0.0000000000e+00 0.0000000000e+00 0.0000000000e+00 0.0000000000e+00 0.0000000000e+00 0.0000000000e+00 0.0000000000e+00 0.0000000000e+00 0.0000000000e+00 0.0000000000e+00 0.0000000000e+00 0.0000000000e+00 0.0000000000e+00 0.0000000000e+00 0.0000000000e+00 0.0000000000e+00 0.0000000000e+00 0.0000000000e+00 0.0000000000e+00 0.0000000000e+00 0.0000000000e+00 0.0000000000e+00 0.0000000000e+00 0.0000000000e+00 0.0000000000e+00 0.0000000000e+00 0.0000000000e+00 0.0000000000e+00 0.0000000000e+00 0.0000000000e+00 0.0000000000e+00 0.0000000000e+00 0.0000000000e+00 0.0000000000e+00 0.0000000000e+00 0.0000000000e+00 0.0000000000e+00 0.0000000000e+00 0.0000000000e+00 0.0000000000e+00 0.0000000000e+00 0.0000000000e+00 0.0000000000e+00 0.0000000000e+00 0.0000000000e+00 0.0000000000e+00 0.0000000000e+00 0.0000000000e+00 0.0000000000e+00 0.0000000000e+00 0.0000000000e+00 0.0000000000e+00 0.0000000000e+00 0.0000000000e+00 0.0000000000e+00 0.0000000000e+00 0.0000000000e+00 0.0000000000e+00 0.0000000000e+00 0.0000000000e+00 0.0000000000e+00 0.0000000000e+00 0.0000000000e+00 0.0000000000e+00 0.0000000000e+00 0.0000000000e+00 0.0000000000e+00 0.0000000000e+00 0.0000000000e+00 0.0000000000e+00 0.0000000000e+00 0.0000000000e+00 0.0000000000e+00 0.0000000000e+00 0.0000000000e+00 0.0000000000e+00 0.0000000000e+00 0.0000000000e+00 0.0000000000e+00 0.0000000000e+00 0.0000000000e+00 0.0000000000e+00 0.0000000000e+00 0.0000000000e+00 0.0000000000e+00 0.0000000000e+00 0.0000000000e+00 0.0000000000e+00 0.0000000000e+00 0.0000000000e+00 0.0000000000e+00 0.0000000000e+00 0.0000000000e+00 0.0000000000e+00 0.0000000000e+00 0.0000000000e+00 0.0000000000e+00 0.0000000000e+00 0.0000000000e+00 0.0000000000e+00 0.0000000000e+00 0.0000000000e+00 0.0000000000e+00 0.0000000000e+00 0.0000000000e+00 0.0000000000e+00 0.0000000000e+00 0.0000000000e+00 0.0000000000e+00 0.0000000000e+00 0.0000000000e+00 0.0000000000e+00 0.0000000000e+00 0.0000000000e+00 0.0000000000e+00 0.0000000000e+00 0.0000000000e+00 0.0000000000e+00 0.0000000000e+00 0.0000000000e+00 0.0000000000e+00 0.0000000000e+00 0.0000000000e+00 0.0000000000e+00 0.0000000000e+00 0.0000000000e+00 0.0000000000e+00 0.0000000000e+00 0.0000000000e+00 0.0000000000e+00 0.0000000000e+00 0.0000000000e+00 0.0000000000e+00 0.0000000000e+00 0.0000000000e+00 0.0000000000e+00 0.0000000000e+00 0.0000000000e+00 0.0000000000e+00 0.0000000000e+00 0.0000000000e+00 0.0000000000e+00 0.0000000000e+00 0.0000000000e+00 0.0000000000e+00 0.0000000000e+00 0.0000000000e+00 0.0000000000e+00 0.0000000000e+00 0.0000000000e+00 0.0000000000e+00 0.0000000000e+00 0.0000000000e+00 0.0000000000e+00 0.0000000000e+00 0.0000000000e+00 0.0000000000e+00 0.0000000000e+00 0.0000000000e+00 0.0000000000e+00 0.0000000000e+00 0.0000000000e+00 0.0000000000e+00 0.0000000000e+00 0.0000000000e+00 0.0000000000e+00 0.0000000000e+00 0.0000000000e+00 0.0000000000e+00 0.0000000000e+00 0.0000000000e+00 0.0000000000e+00 0.0000000000e+00 0.0000000000e+00 0.0000000000e+00 0.0000000000e+00 0.0000000000e+00 0.0000000000e+00 0.0000000000e+00 0.0000000000e+00 0.0000000000e+00 0.0000000000e+00 0.0000000000e+00 0.0000000000e+00 0.0000000000e+00 0.0000000000e+00 0.0000000000e+00 0.0000000000e+00 0.0000000000e+00 0.0000000000e+00 0.0000000000e+00 0.0000000000e+00 0.0000000000e+00 0.0000000000e+00 0.0000000000e+00 0.0000000000e+00 0.0000000000e+00 0.0000000000e+00 0.0000000000e+00 0.0000000000e+00 0.0000000000e+00 0.0000000000e+00 0.0000000000e+00 0.0000000000e+00 0.0000000000e+00 0.0000000000e+00 0.0000000000e+00 0.0000000000e+00 0.0000000000e+00 0.0000000000e+00 0.0000000000e+00 0.0000000000e+00 0.0000000000e+00 0.0000000000e+00 0.0000000000e+00 0.0000000000e+00 0.0000000000e+00 0.0000000000e+00 0.0000000000e+00 0.0000000000e+00 0.0000000000e+00 0.0000000000e+00 0.0000000000e+00 0.0000000000e+00 0.0000000000e+00 0.0000000000e+00 0.0000000000e+00 0.0000000000e+00 0.0000000000e+00 0.0000000000e+00 0.0000000000e+00 0.0000000000e+00 0.0000000000e+00 0.0000000000e+00 0.0000000000e+00 0.0000000000e+00 0.0000000000e+00 0.0000000000e+00 0.0000000000e+00 0.0000000000e+00 0.0000000000e+00 0.0000000000e+00 0.0000000000e+00 0.0000000000e+00
        </DataArray>
        <DataArray type="Float64" Name="force" NumberOfComponents="3" format="ascii">
          -1.0852886062e-02 -1.0839708284e-03 0.0000000000e+00 -8.6026821615e-03 2.1504749074e-03 0.0000000000e+00 -1.2301373801e-02 -6.6906338427e-04 0.0000000000e+00 9.8620398278e-04 1.1776723168e-02 0.0000000000e+00 -1.3365665926e-02 -1.5100086836e-03 0.0000000000e+00 1.7601156933e-03 1.0623082459e-02 0.0000000000e+00 -8.4002288468e-03 3.0569211197e-03 0.0000000000e+00 -3.8807493092e-05 7.8126888231e-03 0.0000000000e+00 -4.8458775647e-03 5.5198192043e-03 0.0000000000e+00 -1.7991203165e-03 6.6362010773e-03 0.0000000000e+00 -2.5853286934e-03 6.4179300991e-03 0.0000000000e+00 -1.6902789934e-03 6.6892480712e-03 0.0000000000e+00 -2.3020146849e-03 6.5268998873e-03 0.0000000000e+00 -1.7286622716e-03 6.6513958697e-03 0.0000000000e+00 -1.6069170199e-03 6.7142417017e-03 0.0000000000e+00 -1.3893752213e-03 6.8412050550e-03 0.0000000000e+00 -1.2452070084e-03 6.8953897184e-03 0.0000000000e+00 -1.2583645070e-03 6.9024663275e-03 0.0000000000e+00 -1.0921839490e-03 6.9241205918e-03 0.0000000000e+00 -1.0548253104e-03 6.9337260021e-03 0.0000000000e+00 -1.0340806446e-03 6.9539962024e-03 0.0000000000e+00 -8.9544248160e-04 7.0004703617e-03 0.0000000000e+00 -7.4809331630e-04 7.0549739604e-03 0.0000000000e+00 -6.8045330981e-04 7.1042693824e-03 0.0000000000e+00 -6.1433056453e-04 7.1417306807e-03 0.0000000000e+00 -5.5399087520e-04 7.1741269664e-03 0.0000000000e+00 -4.9411152786e-04 7.2023943679e-03 0.0000000000e+00 -4.3731045480e-04 7.2275876097e-03 0.0000000000e+00 -3.8231081727e-04 7.2521920221e-03 0.0000000000e+00 -3.2993272057e-04 7.2728480525e-03 0.0000000000e+00 -2.7928502608e-04 7.2954856267e-03 0.0000000000e+00 -2.3076448484e-04 7.3104255523e-03 0.0000000000e+00 -1.8401056016e-04 7.3463226527e-03 0.0000000000e+00 -1.3922173489e-04 7.3559205222e-03 0.0000000000e+00 -9.5618060107e-05 7.3772224586e-03 0.0000000000e+00 -5.4097138795e-05 7.4017966097e-03 0.0000000000e+00 -1.3809286781e-05 7.4208590558e-03 0.0000000000e+00 2.4802781045e-05 7.4412956040e-03 0.0000000000e+00 6.2433855059e-05 7.4589088826e-03 0.0000000000e+00 9.8855787890e-05 7.4766704472e-03 0.0000000000e+00 1.3465960018e-04 7.4928355557e-03 0.0000000000e+00 1.6987071878e-04 7.5086788610e-03 0.0000000000e+00 2.0520508183e-04 7.5232547711e-03 0.0000000000e+00 2.4155917066e-04 7.5373404332e-03 0.0000000000e+00 2.8458772365e-04 7.5486676211e-03 0.0000000000e+00 3.5885948282e-04 7.5603888121e-03 0.0000000000e+00 4.2239863234e-04 7.5763654805e-03 0.0000000000e+00 3.7196123620e-04 7.6033615930e-03 0.0000000000e+00 4.0558373714e-04 7.6293622462e-03 0.0000000000e+00 4.1220227944e-04 7.6526371712e-03 0.0000000000e+00 4.5228049218e-04 7.6716178770e-03 0.0000000000e+00 4.6211075719e-04 7.6891555677e-03 0.0000000000e+00 5.0682675557e-04 7.7040150133e-03 0.0000000000e+00 5.3437674895e-04 7.7150508849e-03 0.0000000000e+00 5.3568055914e-04 7.7227981708e-03 0.0000000000e+00 5.7381791253e-04 7.7270451671e-03 0.0000000000e+00 5.9253373060e-04 7.7289690053e-03 0.0000000000e+00 6.6074133896e-04 7.7234678160e-03 0.0000000000e+00 7.8436382609e-04 7.7223109727e-03 0.0000000000e+00 7.2310219735e-04 7.7517723957e-03 0.0000000000e+00 6.7762391753e-04 7.7882340462e-03 0.0000000000e+00 7.0782630026e-04 7.8160944700e-03 0.0000000000e+00 7.1222696875e-04 7.8377078790e-03 0.0000000000e+00 7.9502360190e-04 7.8460773274e-03 0.0000000000e+00 7.3926605600e-04 7.8525745535e-03 0.0000000000e+00 8.0003186016e-04 7.8452095282e-03 0.0000000000e+00 8.0826841999e-04 7.8316215947e-03 0.0000000000e+00 1.0129813660e-03 7.8144012450e-03 0.0000000000e+00 9.2651487082e-04 7.8451396499e-03 0.0000000000e+00 8.5907255686e-04 7.8843907579e-03 0.0000000000e+00 8.5245165685e-04 7.9241895395e-03 0.0000000000e+00 9.4310969515e-04 7.9351685337e-03 0.0000000000e+00 9.1787649266e-04 7.9457185531e-03 0.0000000000e+00 9.0954769967e-04 7.9322623336e-03 0.0000000000e+00 9.9881322579e-04 7.9058861406e-03 0.0000000000e+00 1.1567506935e-03 7.8870428232e-03 0.0000000000e+00 1.0652582355e-03 7.9244959001e-03 0.0000000000e+00 9.6227307569e-04 7.9694564727e-03 0.0000000000e+00 1.0209034778e-03 8.0106081296e-03 0.0000000000e+00 1.0764132062e-03 8.0065817721e-03 0.0000000000e+00 1.0064653354e-03 8.0127875406e-03 0.0000000000e+00 1.0929844827e-03 7.9673532524e-03 0.0000000000e+00 1.2601828981e-03 7.9554956682e-03 0.0000000000e+00 1.2237098807e-03 7.9676591813e-03 0.0000000000e+00 1.0336941819e-03 8.0416242654e-03 0.0000000000e+00 1.1505590670e-03 8.0672120730e-03 0.0000000000e+00 1.1589860851e-03 8.0800253306e-03 0.0000000000e+00 1.0925991841e-03 8.0562404083e-03 0.0000000000e+00 1.2855037769e-03 8.0153294264e-03 0.0000000000e+00 1.3855539313e-03 8.0055499280e-03 0.0000000000e+00 1.1823801352e-03 8.0531406653e-03 0.0000000000e+00 1.1653401011e-03 8.1226281031e-03 0.0000000000e+00 1.2775439109e-03 8.1229678242e-03 0.0000000000e+00 1.1686170686e-03 8.1262157985e-03 0.0000000000e+00 1.3085592897e-03 8.0684919125e-03 0.0000000000e+00 1.4535113829e-03 8.0481681518e-03 0.0000000000e+00 1.3445489428e-03 8.0831862559e-03 0.0000000000e+00 1.1935227342e-03 8.1628863773e-03 0.0000000000e+00 1.3628783573e-03 8.1709575321e-03 0.0000000000e+00 1.2337734952e-03 8.1680145668e-03 0.0000000000e+00 1.3884345778e-03 8.1124236981e-03 0.0000000000e+00 1.5417171395e-03 8.0830422663e-03 0.0000000000e+00 1.3686031314e-03 8.1330032044e-03 0.0000000000e+00 1.2896963132e-03 8.2082556153e-03 0.0000000000e+00 1.4170402691e-03 8.2148576796e-03 0.0000000000e+00 1.2911256294e-03 8.1937106230e-03 0.0000000000e+00 1.5043226717e-03 8.1402227507e-03 0.0000000000e+00 1.6436748769e-03 8.1195960176e-03 0.0000000000e+00 1.2902857908e-03 8.2020065076e-03 0.0000000000e+00 1.4572647112e-03 8.2488952066e-03 0.0000000000e+00 1.4037121924e-03 8.2522809822e-03 0.0000000000e+00 1.4204964853e-03 8.2025773688e-03 0.0000000000e+00 1.6298744048e-03 8.1526494762e-03 0.0000000000e+00 1.6114543408e-03 8.1801950374e-03 0.0000000000e+00 1.3261571784e-03 8.2751536770e-03 0.0000000000e+00 1.5685969199e-03 8.2801540730e-03 0.0000000000e+00 1.3713207675e-03 8.2618156624e-03 0.0000000000e+00 1.6453053978e-03 8.1954379818e-03 0.0000000000e+00 1.7543796727e-03 8.1819110358e-03 0.0000000000e+00 1.3473642998e-03 8.2804128121e-03 0.0000000000e+00 1.6147417252e-03 8.3082697268e-03 0.0000000000e+00 1.4347646913e-03 8.3039221319e-03 0.0000000000e+00 1.6311461361e-03 8.2359322046e-03 0.0000000000e+00 1.8182365789e-03 8.1959355364e-03 0.0000000000e+00 1.4436032498e-03 8.2860781129e-03 0.0000000000e+00 1.6142108374e-03 8.3343070039e-03 0.0000000000e+00 1.5192282231e-03 8.3331207375e-03 0.0000000000e+00 1.6180944239e-03 8.2699775677e-03 0.0000000000e+00 1.8723858020e-03 8.2141298565e-03 0.0000000000e+00 1.5216451668e-03 8.2996475682e-03 0.0000000000e+00 1.6302403883e-03 8.3570857492e-03 0.0000000000e+00 1.5765575155e-03 8.3568245260e-03 0.0000000000e+00 1.6395336081e-03 8.2940722774e-03 0.0000000000e+00 1.9317666806e-03 8.2320803613e-03 0.0000000000e+00 1.5420744353e-03 8.3239124806e-03 0.0000000000e+00 1.6912344716e-03 8.3759827807e-03 0.0000000000e+00 1.5846517762e-03 8.3789395641e-03 0.0000000000e+00 1.7218584992e-03 8.3049433745e-03 0.0000000000e+00 1.9716095341e-03 8.2527716441e-03 0.0000000000e+00 1.5283910933e-03 8.3561528354e-03 0.0000000000e+00 1.7798195384e-03 8.3925065139e-03 0.0000000000e+00 1.5609179750e-03 8.3972109423e-03 0.0000000000e+00 1.8539673986e-03 8.3030695837e-03 0.0000000000e+00 1.9666436434e-03 8.2816984448e-03 0.0000000000e+00 1.5312046581e-03 8.3922507966e-03 0.0000000000e+00 1.8643068552e-03 8.4072643465e-03 0.0000000000e+00 1.5262265948e-03 8.4070349418e-03 0.0000000000e+00 2.0376310409e-03 8.2898852708e-03 0.0000000000e+00 1.8521064449e-03 8.3284381968e-03 0.0000000000e+00 1.6599274386e-03 8.4173606709e-03 0.0000000000e+00 1.8135279561e-03 8.4321823858e-03 0.0000000000e+00 1.6513762349e-03 8.3878040214e-03 0.0000000000e+00 2.1336441519e-03 8.2883092378e-03 0.0000000000e+00 1.7063114911e-03 8.3833511844e-03 0.0000000000e+00 1.8416481261e-03 8.4351549466e-03 0.0000000000e+00 1.6671713565e-03 8.4498236284e-03 0.0000000000e+00 1.9654749173e-03 8.3440450699e-03 0.0000000000e+00 2.0516649555e-03 8.3243740938e-03 0.0000000000e+00 1.6579336833e-03 8.4342560927e-03 0.0000000000e+00 1.9428663785e-03 8.4513857120e-03 0.0000000000e+00 1.6339639600e-03 8.4344824992e-03 0.0000000000e+00 2.2229733622e-03 8.3079735542e-03 0.0000000000e+00 1.8051299666e-03 8.3953605370e-03 0.0000000000e+00 1.8941516893e-03 8.4525677770e-03 0.0000000000e+00 1.7226191655e-03 8.4753623955e-03 0.0000000000e+00 2.0489234415e-03 8.3609537441e-03 0.0000000000e+00 2.0908422878e-03 8.3459915110e-03 0.0000000000e+00 1.7566372559e-03 8.4523215045e-03 0.0000000000e+00 1.9579638750e-03 8.4749392707e-03 0.0000000000e+00 1.7623412945e-03 8.4360363988e-03 0.0000000000e+00 2.2923181609e-03 8.3195122943e-03 0.0000000000e+00 1.8032116271e-03 8.4292306373e-03 0.0000000000e+00 2.0119277813e-03 8.4694605331e-03 0.0000000000e+00 1.7223967133e-03 8.4830772500e-03 0.0000000000e+00 2.2684029784e-03 8.3401686073e-03 0.0000000000e+00 1.9862065253e-03 8.3920798690e-03 0.0000000000e+00 1.9580005771e-03 8.4662378165e-03 0.0000000000e+00 1.8216386641e-03 8.4964318534e-03 0.0000000000e+00 2.1559738276e-03 8.3757690015e-03 0.0000000000e+00 2.1599679262e-03 8.3567754864e-03 0.0000000000e+00 1.9196935890e-03 8.4566014621e-03 0.0000000000e+00 1.9459754297e-03 8.4906436039e-03 0.0000000000e+00 2.0329989334e-03 8.4072494264e-03 0.0000000000e+00 2.3004360614e-03 8.3234941002e-03 0.0000000000e+00 1.9297163525e-03 8.4314339367e-03 0.0000000000e+00 2.0301403197e-03 8.4727073875e-03 0.0000000000e+00 1.9685529658e-03 8.4181027105e-03 0.0000000000e+00 2.3655039991e-03 8.2851499876e-03 0.0000000000e+00 2.0462194092e-03 8.3650161420e-03 0.0000000000e+00 1.9750849484e-03 8.4451351026e-03 0.0000000000e+00 2.0319407294e-03 8.3980584707e-03 0.0000000000e+00 2.3757152172e-03 8.2137561373e-03 0.0000000000e+00 2.2616856515e-03 8.1667638952e-03 0.0000000000e+00 1.7278730390e-03 8.4576177982e-03 0.0000000000e+00 2.3123770947e-03 8.1823906512e-03 0.0000000000e+00 1.1056821274e-03 9.1768440290e-03 0.0000000000e+00 3.2796532617e-03 9.6772136733e-03 0.0000000000e+00 4.7946452760e-06 1.3752860015e-02 0.0000000000e+00 8.5150886712e-03 1.0134970290e-02 0.0000000000e+00 -2.7118673611e-04 1.3975350389e-04 0.0000000000e+00 -1.6197038931e-03 -1.0870853193e-02 0.0000000000e+00 3.7910240703e-04 -1.3881425885e-02 0.0000000000e+00 -5.0363743030e-04 -9.6914960805e-03 0.0000000000e+00 -8.1218277273e-04 -9.4715835972e-03 0.0000000000e+00 2.3041309838e-04 -8.3550428045e-03 0.0000000000e+00 4.3345042083e-05 -8.6925046225e-03 0.0000000000e+00 2.2321021526e-04 -8.3574230517e-03 0.0000000000e+00 3.2836871910e-04 -8.6021227432e-03 0.0000000000e+00 1.7988069297e-04 -8.6589223929e-03 0.0000000000e+00 9.1698345324e-05 -8.6508621505e-03 0.0000000000e+00 1.5523930695e-04 -8.6069782039e-03 0.0000000000e+00 2.4339806071e-04 -8.6491357751e-03 0.0000000000e+00 1.5933637395e-04 -8.6929859876e-03 0.0000000000e+00 1.1121663044e-04 -8.6875430262e-03 0.0000000000e+00 1.2621675517e-04 -8.6730269704e-03 0.0000000000e+00 1.6392958869e-04 -8.6860438336e-03 0.0000000000e+00 1.3548414600e-04 -8.6935491691e-03 0.0000000000e+00 1.0599652043e-04 -8.7058093865e-03 0.0000000000e+00 1.0307548654e-04 -8.7061822313e-03 0.0000000000e+00 1.1396932072e-04 -8.6930614930e-03 0.0000000000e+00 1.0277885984e-04 -8.7152465523e-03 0.0000000000e+00 8.8317102287e-05 -8.7120623569e-03 0.0000000000e+00 7.9937712739e-05 -8.7189691349e-03 0.0000000000e+00 7.8828918596e-05 -8.7174098473e-03 0.0000000000e+00 7.2561347309e-05 -8.7229997865e-03 0.0000000000e+00 6.3395285161e-05 -8.7236865259e-03 0.0000000000e+00 5.5303715245e-05 -8.7252090913e-03 0.0000000000e+00 5.0187331923e-05 -8.7256700681e-03 0.0000000000e+00 4.4645626887e-05 -8.7268253374e-03 0.0000000000e+00 3.7615486073e-05 -8.7278795038e-03 0.0000000000e+00 3.0432628826e-05 -8.7286369952e-03 0.0000000000e+00 2.4173434382e-05 -8.7289692579e-03 0.0000000000e+00 1.8230276644e-05 -8.7295578885e-03 0.0000000000e+00 1.1765543766e-05 -8.7300784105e-03 0.0000000000e+00 4.9712906755e-06 -8.7304889898e-03 0.0000000000e+00 -1.6720018870e-06 -8.7309352645e-03 0.0000000000e+00 -8.0779650196e-06 -8.7310269691e-03 0.0000000000e+00 -1.4562379669e-05 -8.7312301906e-03 0.0000000000e+00 -2.1231749047e-05 -8.7315230902e-03 0.0000000000e+00 -2.7841611105e-05 -8.7315921654e-03 0.0000000000e+00 -3.4432358044e-05 -8.7316239706e-03 0.0000000000e+00 -4.1005486263e-05 -8.7315725303e-03 0.0000000000e+00 -4.7691339988e-05 -8.7316574544e-03 0.0000000000e+00 -5.4452441603e-05 -8.7316749471e-03 0.0000000000e+00 -6.1258678870e-05 -8.7315350579e-03 0.0000000000e+00 -6.8064158700e-05 -8.7314359006e-03 0.0000000000e+00 -7.4934660262e-05 -8.7313215497e-03 0.0000000000e+00 -8.1831274713e-05 -8.7311272605e-03 0.0000000000e+00 -8.8823015371e-05 -8.7306588058e-03 0.0000000000e+00 -9.5772749357e-05 -8.7305014421e-03 0.0000000000e+00 -1.0286276935e-04 -8.7296078179e-03 0.0000000000e+00 -1.0982603054e-04 -8.7296538169e-03 0.0000000000e+00 -1.1706129714e-04 -8.7277873396e-03 0.0000000000e+00 -1.2398248213e-04 -8.7282392926e-03 0.0000000000e+00 -1.3139894309e-04 -8.7245434492e-03 0.0000000000e+00 -1.3821757991e-04 -8.7261006380e-03 0.0000000000e+00 -1.4589734387e-04 -8.7173917201e-03 0.0000000000e+00 -1.5265705160e-04 -8.7201262803e-03 0.0000000000e+00 -1.5998213809e-04 -8.7311458260e-03 0.0000000000e+00 -1.6728035628e-04 -8.7131507509e-03 0.0000000000e+00 -1.7471477046e-04 -8.7245886280e-03 0.0000000000e+00 -1.8176102663e-04 -8.7224530771e-03 0.0000000000e+00 -1.8927269625e-04 -8.7276518944e-03 0.0000000000e+00 -1.9646255988e-04 -8.7268328691e-03 0.0000000000e+00 -2.0399786735e-04 -8.7292124086e-03 0.0000000000e+00 -2.1134692144e-04 -8.7292093433e-03 0.0000000000e+00 -2.1892625618e-04 -8.7303966891e-03 0.0000000000e+00 -2.2643233429e-04 -8.7310778541e-03 0.0000000000e+00 -2.3408459327e-04 -8.7317669232e-03 0.0000000000e+00 -2.4171561859e-04 -8.7324418271e-03 0.0000000000e+00 -2.4946590100e-04 -8.7332664188e-03 0.0000000000e+00 -2.5720570788e-04 -8.7338927707e-03 0.0000000000e+00 -2.6504399815e-04 -8.7346994012e-03 0.0000000000e+00 -2.7286555531e-04 -8.7353118449e-03 0.0000000000e+00 -2.8077917337e-04 -8.7361514488e-03 0.0000000000e+00 -2.8862700607e-04 -8.7371559517e-03 0.0000000000e+00 -2.9657981981e-04 -8.7377636738e-03 0.0000000000e+00 -3.0426483047e-04 -8.7386582758e-03 0.0000000000e+00 -3.1302057015e-04 -8.7395979554e-03 0.0000000000e+00 -3.2023522108e-04 -8.7403773865e-03 0.0000000000e+00 -3.2879568392e-04 -8.7413031630e-03 0.0000000000e+00 -3.3648066373e-04 -8.7420799389e-03 0.0000000000e+00 -3.4545758482e-04 -8.7430564238e-03 0.0000000000e+00 -3.5285452265e-04 -8.7440161938e-03 0.0000000000e+00 -3.6241310713e-04 -8.7442957166e-03 0.0000000000e+00 -3.7083686577e-04 -8.7444314986e-03 0.0000000000e+00 -3.8015966673e-04 -8.7444623940e-03 0.0000000000e+00 -3.8918187792e-04 -8.7443008680e-03 0.0000000000e+00 -3.9850864823e-04 -8.7438995714e-03 0.0000000000e+00 -4.0770193239e-04 -8.7427811385e-03 0.0000000000e+00 -4.1699769679e-04 -8.7417328743e-03 0.0000000000e+00 -4.2624873044e-04 -8.7392584158e-03 0.0000000000e+00 -4.3548375760e-04 -8.7374597112e-03 0.0000000000e+00 -4.4510439615e-04 -8.7315726039e-03 0.0000000000e+00 -4.5458521344e-04 -8.7290527195e-03 0.0000000000e+00 -4.6791335037e-04 -8.7168179559e-03 0.0000000000e+00 -4.8285008673e-04 -8.7132203874e-03 0.0000000000e+00 -5.4105170299e-04 -8.6912390245e-03 0.0000000000e+00 -5.5131500650e-04 -8.7027765557e-03 0.0000000000e+00 -5.2718198890e-04 -8.7079683060e-03 0.0000000000e+00 -5.3589862684e-04 -8.7008457751e-03 0.0000000000e+00 -5.4419613431e-04 -8.7206699865e-03 0.0000000000e+00 -5.5617574384e-04 -8.7212778200e-03 0.0000000000e+00 -5.6725022907e-04 -8.7325863419e-03 0.0000000000e+00 -5.7835213493e-04 -8.7349786624e-03 0.0000000000e+00 -5.8898606360e-04 -8.7422279235e-03 0.0000000000e+00 -5.9906738822e-04 -8.7455571912e-03 0.0000000000e+00 -6.1128475408e-04 -8.7514119631e-03 0.0000000000e+00 -6.1975348003e-04 -8.7542892200e-03 0.0000000000e+00 -6.3435771409e-04 -8.7550709623e-03 0.0000000000e+00 -6.4410597303e-04 -8.7544834433e-03 0.0000000000e+00 -6.5689173657e-04 -8.7522315283e-03 0.0000000000e+00 -6.6771492273e-04 -8.7473753605e-03 0.0000000000e+00 -6.7980247606e-04 -8.7391082635e-03 0.0000000000e+00 -6.9773218369e-04 -8.7248691863e-03 0.0000000000e+00 -7.5506181549e-04 -8.7071668862e-03 0.0000000000e+00 -8.3623138181e-04 -8.6961688409e-03 0.0000000000e+00 -7.7510937166e-04 -8.7060807460e-03 0.0000000000e+00 -7.7924370864e-04 -8.7225331942e-03 0.0000000000e+00 -7.7933856637e-04 -8.7372775668e-03 0.0000000000e+00 -8.0861421823e-04 -8.7485336129e-03 0.0000000000e+00 -8.0542048010e-04 -8.7591930693e-03 0.0000000000e+00 -8.4121281102e-04 -8.7680777077e-03 0.0000000000e+00 -8.3021150981e-04 -8.7753354322e-03 0.0000000000e+00 -8.7288308811e-04 -8.7720857912e-03 0.0000000000e+00 -8.5106397626e-04 -8.7681817246e-03 0.0000000000e+00 -9.0820488300e-04 -8.7547134973e-03 0.0000000000e+00 -8.6918291813e-04 -8.7341849643e-03 0.0000000000e+00 -1.0532307141e-03 -8.7026621862e-03 0.0000000000e+00 -1.0586972776e-03 -8.6985263474e-03 0.0000000000e+00 -9.9683436862e-04 -8.7189968340e-03 0.0000000000e+00 -1.0000979249e-03 -8.7479106510e-03 0.0000000000e+00 -1.0125707196e-03 -8.7683025810e-03 0.0000000000e+00 -1.0463984824e-03 -8.7844289535e-03 0.0000000000e+00 -1.0490092978e-03 -8.7975791808e-03 0.0000000000e+00 -1.0721166590e-03 -8.7906777585e-03 0.0000000000e+00 -1.0881560020e-03 -8.7783604945e-03 0.0000000000e+00 -1.0763994360e-03 -8.7470163307e-03 0.0000000000e+00 -1.2979332510e-03 -8.7047679938e-03 0.0000000000e+00 -1.3045236433e-03 -8.7072982354e-03 0.0000000000e+00 -1.2028807650e-03 -8.7357135676e-03 0.0000000000e+00 -1.2133995330e-03 -8.7831987861e-03 0.0000000000e+00 -1.2638514275e-03 -8.8003750246e-03 0.0000000000e+00 -1.2544085732e-03 -8.8243353157e-03 0.0000000000e+00 -1.3000541792e-03 -8.8002081182e-03 0.0000000000e+00 -1.2626631676e-03 -8.7804568559e-03 0.0000000000e+00 -1.4947402593e-03 -8.7188684816e-03 0.0000000000e+00 -1.5831578444e-03 -8.7134898775e-03 0.0000000000e+00 -1.3997570693e-03 -8.7564008329e-03 0.0000000000e+00 -1.4631892042e-03 -8.8187190539e-03 0.0000000000e+00 -1.4542032268e-03 -8.8450366876e-03 0.0000000000e+00 -1.5090218757e-03 -8.8520079698e-03 0.0000000000e+00 -1.4883883780e-03 -8.7912201181e-03 0.0000000000e+00 -1.7355489966e-03 -8.7469139914e-03 0.0000000000e+00 -1.8457443806e-03 -8.7336703457e-03 0.0000000000e+00 -1.5987528261e-03 -8.8091505454e-03 0.0000000000e+00 -1.7085664807e-03 -8.8709093177e-03 0.0000000000e+00 -1.6857610050e-03 -8.8946867591e-03 0.0000000000e+00 -1.7357093644e-03 -8.8215690702e-03 0.0000000000e+00 -1.9862684037e-03 -8.7680555618e-03 0.0000000000e+00 -2.0924795368e-03 -8.7656973757e-03 0.0000000000e+00 -1.8755669760e-03 -8.8482804102e-03 0.0000000000e+00 -1.8774990225e-03 -8.9462148556e-03 0.0000000000e+00 -1.9652129911e-03 -8.8742998594e-03 0.0000000000e+00 -2.1968386683e-03 -8.8053493136e-03 0.0000000000e+00 -2.3714041199e-03 -8.7876445934e-03 0.0000000000e+00 -2.1987059133e-03 -8.8623853016e-03 0.0000000000e+00 -2.0294034603e-03 -9.0155218105e-03 0.0000000000e+00 -2.3799621807e-03 -8.8459125990e-03 0.0000000000e+00 -2.4545479900e-03 -8.8534360449e-03 0.0000000000e+00 -2.8214037074e-03 -8.7854989678e-03 0.0000000000e+00 -2.1570921132e-03 -9.0579644352e-03 0.0000000000e+00 -2.6452749286e-03 -8.9052547925e-03 0.0000000000e+00 -2.7227260572e-03 -8.8760542135e-03 0.0000000000e+00 -3.2601335208e-03 -8.8227649408e-03 0.0000000000e+00 -2.3061423878e-03 -9.0670369648e-03 0.0000000000e+00 -3.1028649697e-03 -8.9872144938e-03 0.0000000000e+00 -3.3960995780e-03 -8.7054634502e-03 0.0000000000e+00 -3.1013213402e-03 -9.2083435208e-03 0.0000000000e+00 -3.1377815413e-03 -8.7086793193e-03 0.0000000000e+00 -3.3082834718e-03 -9.3762184021e-03 0.0000000000e+00 -4.5993636389e-03 -8.1882172290e-03 0.0000000000e+00 -2.1008073940e-03 -9.9996723260e-03 0.0000000000e+00 -5.6616238944e-03 -7.7715847409e-03 0.0000000000e+00 -3.1460854117e-03 -9.7613156223e-03 0.0000000000e+00 -4.3700334338e-03 -8.4360134222e-03 0.0000000000e+00 -5.6212398587e-03 -8.9214422359e-03 0.0000000000e+00 -3.0244335462e-03 -9.2025744398e-03 0.0000000000e+00 -7.3533215338e-03 -8.2822863395e-03 0.0000000000e+00 -3.1791434124e-03 -9.5775567496e-03 0.0000000000e+00 -8.3059454450e-03 -7.7248455741e-03 0.0000000000e+00 -3.5290273623e-03 -1.0242339611e-02 0.0000000000e+00 -1.0265084085e-02 -6.0937291392e-03 0.0000000000e+00 -4.7830701311e-03 -1.0340072464e-02 0.0000000000e+00 -1.0580019785e-02 -4.7026974311e-03 0.0000000000e+00 -8.0149222578e-03 -9.0567758781e-03 0.0000000000e+00 -1.1695086120e-02 -2.7495692069e-03 0.0000000000e+00 -1.0218515644e-02 -3.5213482945e-03 0.0000000000e+00
        </DataArray>
      </PointData>
    </Piece>
  </PolyData>
</VTKFile>
